<svg width="20" height="21" viewBox="0 0 20 21" fill="none" xmlns="http://www.w3.org/2000/svg">
<path d="M1.66675 4.66667C1.66675 4.22464 1.84234 3.80072 2.1549 3.48816C2.46746 3.17559 2.89139 3 3.33341 3H16.6667C17.1088 3 17.5327 3.17559 17.8453 3.48816C18.1578 3.80072 18.3334 4.22464 18.3334 4.66667V6.33333C18.3335 6.6287 18.255 6.91876 18.1061 7.17384C17.9572 7.42891 17.7431 7.63983 17.4859 7.785C17.4951 7.855 17.5001 7.92667 17.5001 8V16.3333C17.5001 16.7754 17.3245 17.1993 17.0119 17.5118C16.6994 17.8244 16.2754 18 15.8334 18H4.16675C3.72472 18 3.3008 17.8244 2.98824 17.5118C2.67568 17.1993 2.50008 16.7754 2.50008 16.3333V8C2.50008 7.9275 2.50508 7.855 2.51425 7.785C2.25702 7.63983 2.043 7.42891 1.89408 7.17384C1.74517 6.91876 1.66671 6.6287 1.66675 6.33333V4.66667ZM16.6667 6.33333V4.66667H3.33341V6.33333H16.6667ZM4.16675 8V16.3333H15.8334V8H4.16675ZM6.66675 10.5C6.66675 10.279 6.75455 10.067 6.91083 9.91074C7.06711 9.75446 7.27907 9.66667 7.50008 9.66667H12.5001C12.7211 9.66667 12.9331 9.75446 13.0893 9.91074C13.2456 10.067 13.3334 10.279 13.3334 10.5C13.3334 10.721 13.2456 10.933 13.0893 11.0893C12.9331 11.2455 12.7211 11.3333 12.5001 11.3333H7.50008C7.27907 11.3333 7.06711 11.2455 6.91083 11.0893C6.75455 10.933 6.66675 10.721 6.66675 10.5Z" fill="#4C4F54"/>
</svg>
