<svg width="20" height="21" viewBox="0 0 20 21" fill="none" xmlns="http://www.w3.org/2000/svg">
<g clip-path="url(#clip0_4086_66555)">
<path d="M9.69 0.582298C9.78442 0.528367 9.89127 0.5 10 0.5C10.1087 0.5 10.2156 0.528367 10.31 0.582298L14.9975 3.26105C15.0932 3.31569 15.1727 3.39465 15.228 3.48992C15.2833 3.58518 15.3125 3.69338 15.3125 3.80355V8.7973L19.685 11.2973C19.7803 11.3517 19.8596 11.4303 19.9149 11.5251C19.9702 11.6199 19.9995 11.7276 20 11.8373V17.1948C20 17.305 19.9708 17.4132 19.9155 17.5084C19.8602 17.6037 19.7807 17.6827 19.685 17.7373L14.9975 20.416C14.9031 20.47 14.7962 20.4983 14.6875 20.4983C14.5788 20.4983 14.4719 20.47 14.3775 20.416L10 17.916L5.6225 20.4173C5.52808 20.4712 5.42123 20.4996 5.3125 20.4996C5.20377 20.4996 5.09692 20.4712 5.0025 20.4173L0.315 17.7385C0.219341 17.6839 0.139825 17.605 0.0845069 17.5097C0.0291891 17.4144 3.55338e-05 17.3062 0 17.196L0 11.8385C3.55338e-05 11.7284 0.0291891 11.6202 0.0845069 11.5249C0.139825 11.4296 0.219341 11.3507 0.315 11.296L4.6875 8.7973V3.80355C4.68754 3.69338 4.71669 3.58518 4.77201 3.48992C4.82732 3.39465 4.90684 3.31569 5.0025 3.26105L9.69 0.582298ZM5.3125 9.8798L1.885 11.8385L5.3125 13.7973L8.74 11.8385L5.3125 9.8798ZM9.375 12.916L5.9375 14.8798V18.7973L9.375 16.8335V12.916ZM10.625 16.8335L14.0625 18.7973V14.8798L10.625 12.916V16.8335ZM11.26 11.8385L14.6875 13.7973L18.115 11.8385L14.6875 9.8798L11.26 11.8385ZM14.0625 8.7973V4.8798L10.625 6.8448V10.7623L14.0625 8.7973ZM9.375 10.7623V6.8448L5.9375 4.8798V8.7973L9.375 10.7623ZM6.5725 3.80355L10 5.7623L13.4275 3.80355L10 1.8448L6.5725 3.80355ZM18.75 12.916L15.3125 14.8798V18.7973L18.75 16.8335V12.916ZM4.6875 18.7973V14.8798L1.25 12.916V16.8335L4.6875 18.7973Z" fill="#4C4F54"/>
</g>
<defs>
<clipPath id="clip0_4086_66555">
<rect width="20" height="20" fill="white" transform="translate(0 0.5)"/>
</clipPath>
</defs>
</svg>
