<svg width="20" height="21" viewBox="0 0 20 21" fill="none" xmlns="http://www.w3.org/2000/svg">
<path fill-rule="evenodd" clip-rule="evenodd" d="M13.477 15.39C12.3213 16.2114 10.9121 16.5971 9.49925 16.4785C8.08636 16.36 6.7611 15.745 5.75847 14.7424C4.75584 13.7399 4.14063 12.4148 4.02193 11.0019C3.90322 9.58901 4.2887 8.17975 5.11 7.024L13.477 15.39ZM14.891 13.976L6.524 5.61C7.67971 4.78801 9.08923 4.40197 10.5025 4.52037C11.9158 4.63877 13.2414 5.25395 14.2442 6.25678C15.247 7.25961 15.8622 8.58525 15.9806 9.99851C16.099 11.4118 15.713 12.8213 14.891 13.977M18 10.5C18 12.6217 17.1571 14.6566 15.6569 16.1569C14.1566 17.6571 12.1217 18.5 10 18.5C7.87827 18.5 5.84344 17.6571 4.34315 16.1569C2.84285 14.6566 2 12.6217 2 10.5C2 8.37827 2.84285 6.34344 4.34315 4.84315C5.84344 3.34285 7.87827 2.5 10 2.5C12.1217 2.5 14.1566 3.34285 15.6569 4.84315C17.1571 6.34344 18 8.37827 18 10.5Z" fill="#4C4F54"/>
</svg>
