<svg width="20" height="21" viewBox="0 0 20 21" fill="none" xmlns="http://www.w3.org/2000/svg">
<path d="M1.66675 6.33268L5.34175 2.65768C5.4968 2.50171 5.68118 2.37796 5.88427 2.29358C6.08737 2.2092 6.30515 2.16584 6.52508 2.16602H13.4751C13.695 2.16584 13.9128 2.2092 14.1159 2.29358C14.319 2.37796 14.5034 2.50171 14.6584 2.65768L18.3334 6.33268M3.33341 10.4993V17.166C3.33341 17.608 3.50901 18.032 3.82157 18.3445C4.13413 18.6571 4.55805 18.8327 5.00008 18.8327H15.0001C15.4421 18.8327 15.866 18.6571 16.1786 18.3445C16.4912 18.032 16.6667 17.608 16.6667 17.166V10.4993" stroke="#203864" stroke-width="1.5" stroke-linecap="round" stroke-linejoin="round"/>
<path d="M12.5001 18.832V15.4987C12.5001 15.0567 12.3245 14.6327 12.0119 14.3202C11.6994 14.0076 11.2754 13.832 10.8334 13.832H9.16675C8.72472 13.832 8.3008 14.0076 7.98824 14.3202C7.67568 14.6327 7.50008 15.0567 7.50008 15.4987V18.832M1.66675 6.33203H18.3334V8.83203C18.3334 9.27406 18.1578 9.69798 17.8453 10.0105C17.5327 10.3231 17.1088 10.4987 16.6667 10.4987C16.1799 10.4719 15.7149 10.2877 15.3417 9.9737C15.2423 9.90184 15.1228 9.86317 15.0001 9.86317C14.8774 9.86317 14.7578 9.90184 14.6584 9.9737C14.2853 10.2877 13.8203 10.4719 13.3334 10.4987C12.8465 10.4719 12.3815 10.2877 12.0084 9.9737C11.909 9.90184 11.7894 9.86317 11.6667 9.86317C11.5441 9.86317 11.4245 9.90184 11.3251 9.9737C10.952 10.2877 10.487 10.4719 10.0001 10.4987C9.51319 10.4719 9.04819 10.2877 8.67508 9.9737C8.57565 9.90184 8.45609 9.86317 8.33341 9.86317C8.21074 9.86317 8.09118 9.90184 7.99175 9.9737C7.61864 10.2877 7.15364 10.4719 6.66675 10.4987C6.17986 10.4719 5.71486 10.2877 5.34175 9.9737C5.24232 9.90184 5.12276 9.86317 5.00008 9.86317C4.8774 9.86317 4.75785 9.90184 4.65841 9.9737C4.28531 10.2877 3.8203 10.4719 3.33341 10.4987C2.89139 10.4987 2.46746 10.3231 2.1549 10.0105C1.84234 9.69798 1.66675 9.27406 1.66675 8.83203V6.33203Z" stroke="#203864" stroke-width="1.5" stroke-linecap="round" stroke-linejoin="round"/>
</svg>
