<svg width="20" height="21" viewBox="0 0 20 21" fill="none" xmlns="http://www.w3.org/2000/svg">
<path d="M12.5 3.83398L17.5 5.50065V9.66732H15V16.334C15 16.555 14.9122 16.767 14.7559 16.9232C14.5996 17.0795 14.3877 17.1673 14.1667 17.1673H5.83333C5.61232 17.1673 5.40036 17.0795 5.24408 16.9232C5.0878 16.767 5 16.555 5 16.334V9.66732H2.5V5.50065L7.5 3.83398C7.5 4.49703 7.76339 5.13291 8.23223 5.60175C8.70107 6.07059 9.33696 6.33398 10 6.33398C10.663 6.33398 11.2989 6.07059 11.7678 5.60175C12.2366 5.13291 12.5 4.49703 12.5 3.83398Z" stroke="#4C4F54" stroke-width="1.5" stroke-linecap="round" stroke-linejoin="round"/>
</svg>
