<svg width="16" height="16" viewBox="0 0 16 16" fill="none" xmlns="http://www.w3.org/2000/svg">
<path d="M8 15.6602C6.95833 15.6602 5.98828 15.4648 5.08984 15.0742C4.17839 14.6836 3.3776 14.1497 2.6875 13.4727C2.01042 12.7956 1.47656 12.0013 1.08594 11.0898C0.695312 10.1784 0.5 9.20182 0.5 8.16016C0.5 7.13151 0.695312 6.16146 1.08594 5.25C1.47656 4.33854 2.01042 3.54427 2.6875 2.86719C3.3776 2.1901 4.17839 1.65625 5.08984 1.26562C5.98828 0.861979 6.95833 0.660156 8 0.660156C9.04167 0.660156 10.0117 0.861979 10.9102 1.26562C11.8216 1.65625 12.6159 2.1901 13.293 2.86719C13.9831 3.54427 14.5234 4.33854 14.9141 5.25C15.3047 6.16146 15.5 7.13151 15.5 8.16016C15.5 9.20182 15.3047 10.1784 14.9141 11.0898C14.5234 12.0013 13.9831 12.7956 13.293 13.4727C12.6159 14.1497 11.8216 14.6836 10.9102 15.0742C10.0117 15.4648 9.04167 15.6602 8 15.6602ZM8 2.33984C7.19271 2.33984 6.4375 2.48958 5.73438 2.78906C5.01823 3.10156 4.39323 3.52474 3.85938 4.05859C3.33854 4.57943 2.92839 5.19141 2.62891 5.89453C2.31641 6.59766 2.16016 7.35286 2.16016 8.16016C2.16016 8.96745 2.31641 9.72917 2.62891 10.4453C2.92839 11.1484 3.33854 11.7669 3.85938 12.3008C4.39323 12.8216 5.01823 13.2383 5.73438 13.5508C6.4375 13.8503 7.19271 14 8 14C8.80729 14 9.5625 13.8503 10.2656 13.5508C10.9818 13.2383 11.6003 12.8216 12.1211 12.3008C12.6549 11.7669 13.0716 11.1484 13.3711 10.4453C13.6836 9.72917 13.8398 8.96745 13.8398 8.16016C13.8398 7.36589 13.6836 6.61068 13.3711 5.89453C13.0716 5.19141 12.6549 4.57943 12.1211 4.05859C11.6003 3.52474 10.9818 3.10156 10.2656 2.78906C9.5625 2.48958 8.80729 2.33984 8 2.33984ZM11.3398 9.46875C11.3659 9.42969 11.3854 9.38411 11.3984 9.33203C11.4115 9.27995 11.418 9.22135 11.418 9.15625C11.418 8.98698 11.3659 8.83724 11.2617 8.70703C11.1706 8.5638 11.0469 8.45964 10.8906 8.39453L8.76172 7.51562V4.15625C8.76172 3.9349 8.67708 3.74609 8.50781 3.58984C8.35156 3.42057 8.15625 3.33594 7.92188 3.33594C7.6875 3.33594 7.48568 3.42057 7.31641 3.58984C7.16016 3.74609 7.08203 3.9349 7.08203 4.15625V8.08203C7.08203 8.2513 7.1276 8.40755 7.21875 8.55078C7.32292 8.68099 7.45312 8.77865 7.60938 8.84375L10.2656 9.9375C10.3047 9.95052 10.3503 9.96354 10.4023 9.97656C10.4674 9.98958 10.526 9.99609 10.5781 9.99609C10.7474 9.99609 10.8971 9.95052 11.0273 9.85938C11.1706 9.75521 11.2747 9.63151 11.3398 9.48828V9.46875Z" fill="#203864"/>
</svg>
