<svg width="20" height="20" viewBox="0 0 20 20" fill="none" xmlns="http://www.w3.org/2000/svg">
<path d="M17.8809 18.75H10.2684C9.78086 18.75 9.38086 18.355 9.38086 17.86V9.64C9.38086 9.15125 9.77461 8.75 10.2684 8.75H17.8809C18.3684 8.75 18.7684 9.145 18.7684 9.64V17.8663C18.7674 18.101 18.6734 18.3258 18.5071 18.4914C18.3408 18.657 18.1156 18.75 17.8809 18.75Z" fill="#E4D9FF"/>
<path d="M10.9772 10.0202C11.0601 10.0202 11.1396 10.0531 11.1982 10.1117C11.2568 10.1703 11.2897 10.2498 11.2897 10.3327V12.0102C11.2897 13.282 12.5022 14.3852 14.0922 14.3852C15.6878 14.3852 16.8947 13.2827 16.8947 12.0102V10.332C16.8947 10.2492 16.9276 10.1697 16.9862 10.1111C17.0448 10.0525 17.1243 10.0195 17.2072 10.0195C17.2901 10.0195 17.3696 10.0525 17.4282 10.1111C17.4868 10.1697 17.5197 10.2492 17.5197 10.332V12.0095C17.5197 13.7102 15.9434 15.0095 14.0922 15.0095C12.2484 15.0095 10.6641 13.7108 10.6641 12.0095V10.332C10.6641 10.2492 10.697 10.1697 10.7556 10.1111C10.8142 10.0525 10.8937 10.0195 10.9766 10.0195" fill="#D90368"/>
<path d="M11.3312 17.4793H2.33125C1.7375 17.4793 1.25 16.998 1.25 16.398V6.0793C1.25 5.48555 1.73125 4.99805 2.33125 4.99805H11.3312C11.925 4.99805 12.4125 5.4793 12.4125 6.0793V16.4043C12.4125 16.998 11.9312 17.4793 11.3312 17.4793Z" fill="#FBBA2D"/>
<path d="M6.885 1.25C4.84125 1.25 3.125 2.73438 3.125 4.64062V6.5625C3.125 6.64538 3.15792 6.72487 3.21653 6.78347C3.27513 6.84208 3.35462 6.875 3.4375 6.875C3.52038 6.875 3.59987 6.84208 3.65847 6.78347C3.71708 6.72487 3.75 6.64538 3.75 6.5625V4.64062C3.75 3.14438 5.11812 1.875 6.885 1.875C8.65188 1.875 10.0194 3.14438 10.0194 4.64062V6.5625C10.0194 6.64538 10.0523 6.72487 10.1109 6.78347C10.1695 6.84208 10.249 6.875 10.3319 6.875C10.4148 6.875 10.4942 6.84208 10.5528 6.78347C10.6115 6.72487 10.6444 6.64538 10.6444 6.5625V4.64062C10.6444 2.73438 8.92812 1.25 6.885 1.25ZM1.25 9.18125H12.4125V10.6375H1.25V9.18125ZM1.25 11.9875H12.4125V13.4438H1.25V11.9875ZM12.4125 14.7937H1.25V16.25H12.4125V14.7937Z" fill="#203864"/>
</svg>
