<svg width="20" height="20" viewBox="0 0 20 20" fill="none" xmlns="http://www.w3.org/2000/svg">
<path d="M2.08398 7.91602H17.9173V15.8327H2.08398V7.91602Z" fill="#CFD8DC"/>
<path d="M2.08398 15.834H17.9173V17.5007H2.08398V15.834Z" fill="#B0BEC5"/>
<path d="M11.25 10H16.25V17.5H11.25V10Z" fill="#203864"/>
<path d="M3.75 10H9.58333V14.5833H3.75V10Z" fill="#E3F2FD"/>
<path d="M4.16602 10.416H9.16602V14.166H4.16602V10.416Z" fill="#FBBA2D"/>
<path d="M15.2083 13.959C15.0833 13.959 15 14.0423 15 14.1673V15.0007C15 15.1257 15.0833 15.209 15.2083 15.209C15.3333 15.209 15.4167 15.1257 15.4167 15.0007V14.1673C15.4167 14.0423 15.3333 13.959 15.2083 13.959Z" fill="#90A4AE"/>
<path d="M10 9.16602C10.6904 9.16602 11.25 8.60637 11.25 7.91602C11.25 7.22566 10.6904 6.66602 10 6.66602C9.30964 6.66602 8.75 7.22566 8.75 7.91602C8.75 8.60637 9.30964 9.16602 10 9.16602Z" fill="#203864"/>
<path d="M15 9.16602C15.6904 9.16602 16.25 8.60637 16.25 7.91602C16.25 7.22566 15.6904 6.66602 15 6.66602C14.3096 6.66602 13.75 7.22566 13.75 7.91602C13.75 8.60637 14.3096 9.16602 15 9.16602Z" fill="#203864"/>
<path d="M5 9.16602C5.69036 9.16602 6.25 8.60637 6.25 7.91602C6.25 7.22566 5.69036 6.66602 5 6.66602C4.30964 6.66602 3.75 7.22566 3.75 7.91602C3.75 8.60637 4.30964 9.16602 5 9.16602Z" fill="#203864"/>
<path d="M16.6667 2.5H3.33333C2.875 2.5 2.5 2.875 2.5 3.33333V4.58333H17.5V3.33333C17.5 2.875 17.125 2.5 16.6667 2.5ZM8.75 4.58333H11.25V7.91667H8.75V4.58333ZM15.4167 4.58333H13.3333L13.75 7.91667H16.25L15.4167 4.58333ZM4.58333 4.58333H6.66667L6.25 7.91667H3.75L4.58333 4.58333Z" fill="#203864"/>
<path d="M12.5 9.16602C13.1904 9.16602 13.75 8.60637 13.75 7.91602C13.75 7.22566 13.1904 6.66602 12.5 6.66602C11.8096 6.66602 11.25 7.22566 11.25 7.91602C11.25 8.60637 11.8096 9.16602 12.5 9.16602Z" fill="#FFA000"/>
<path d="M18.75 7.91602C18.75 8.62435 18.2083 9.16602 17.5 9.16602C16.7917 9.16602 16.25 8.62435 16.25 7.91602C16.25 7.20768 16.7917 6.66602 17.5 6.66602L18.75 7.91602Z" fill="#FFA000"/>
<path d="M7.5 9.16602C8.19036 9.16602 8.75 8.60637 8.75 7.91602C8.75 7.22566 8.19036 6.66602 7.5 6.66602C6.80964 6.66602 6.25 7.22566 6.25 7.91602C6.25 8.60637 6.80964 9.16602 7.5 9.16602Z" fill="#FFA000"/>
<path d="M1.25 7.91602C1.25 8.62435 1.79167 9.16602 2.5 9.16602C3.20833 9.16602 3.75 8.62435 3.75 7.91602C3.75 7.20768 3.20833 6.66602 2.5 6.66602L1.25 7.91602Z" fill="#FFA000"/>
<path d="M13.3333 4.58398H11.25V7.91732H13.75L13.3333 4.58398ZM17.5 4.58398H15.4167L16.25 7.91732H18.75L17.5 4.58398ZM6.66667 4.58398H8.75V7.91732H6.25L6.66667 4.58398ZM2.5 4.58398H4.58333L3.75 7.91732H1.25L2.5 4.58398Z" fill="#FFC107"/>
</svg>
