<svg width="251" height="250" viewBox="0 0 251 250" fill="none" xmlns="http://www.w3.org/2000/svg">
<path d="M53.6998 59.6313L59.4548 61.2163L55.1998 62.2563C53.0348 62.6013 52.0598 63.5363 51.6648 64.7563L50.3398 75.4513L48.7098 64.7313C48.509 64.2322 48.2053 63.781 47.8185 63.4071C47.4317 63.0332 46.9705 62.745 46.4648 62.5613L40.9648 61.2163L46.7898 59.5663C47.2703 59.3683 47.7056 59.0748 48.0692 58.7034C48.4327 58.3321 48.717 57.8908 48.9048 57.4063L50.3548 45.2812L51.3948 57.1413C51.5623 57.7053 51.8573 58.2233 52.257 58.655C52.6567 59.0868 53.1504 59.4208 53.6998 59.6313Z" fill="#EBEBEB"/>
<path d="M61.9348 75.8503L63.9998 76.4203L62.4998 76.7953C61.7198 76.9203 61.3748 77.2503 61.2298 77.6853L60.7298 81.5253L60.1448 77.6803C60.0735 77.5013 59.9648 77.3396 59.826 77.206C59.6871 77.0723 59.5214 76.9698 59.3398 76.9053L57.3398 76.4053L59.4298 75.8153C59.6013 75.7434 59.7564 75.6377 59.8862 75.5046C60.0159 75.3714 60.1174 75.2135 60.1848 75.0403L60.6848 70.6953L61.0598 74.9453C61.1224 75.1553 61.2345 75.3472 61.3868 75.5047C61.5391 75.6622 61.7271 75.7808 61.9348 75.8503Z" fill="#EBEBEB"/>
<path d="M23.0465 92.4335L6.74902 147.523L75.6569 167.909L91.9544 112.819L23.0465 92.4335Z" fill="#FAFAFA"/>
<path d="M91.9552 112.831C91.9552 112.831 91.8402 112.831 91.6202 112.741L90.6502 112.466L86.9002 111.381L72.7802 107.256L23.0002 92.6209L23.2352 92.4959C18.3902 108.896 12.8352 127.696 6.95523 147.586L6.81523 147.331L75.7102 167.751L75.4952 167.866C80.4402 151.291 84.5402 137.551 87.4052 127.936L90.7502 116.786C91.1402 115.499 91.4369 114.518 91.6402 113.841C91.8452 113.176 91.9602 112.841 91.9602 112.841C91.9602 112.841 91.8752 113.176 91.6902 113.841C91.5052 114.506 91.1902 115.491 90.8452 116.766L87.5952 127.906C84.7652 137.556 80.7152 151.351 75.8302 167.991L75.7802 168.156L75.6152 168.106L6.69023 147.736L6.49023 147.676L6.55023 147.476C12.4452 127.581 18.0002 108.786 22.8702 92.3909L22.9252 92.2109L23.1002 92.2659L72.9452 107.111L87.0002 111.321L90.7052 112.436L91.6452 112.731L91.9552 112.831Z" fill="#E0E0E0"/>
<path d="M24.3949 96.6087L10.1484 144.766L74.2186 163.72L88.465 115.563L24.3949 96.6087Z" fill="#EBEBEB"/>
<path d="M10.1504 144.768L41.3854 121.453L49.7054 144.283L62.0704 137.053L74.2204 163.723L10.1504 144.768Z" fill="#E0E0E0"/>
<path d="M62.2156 123.633C61.9209 124.631 61.3369 125.519 60.5376 126.184C59.7383 126.85 58.7594 127.264 57.7249 127.374C56.6904 127.483 55.6467 127.283 54.7256 126.8C53.8046 126.316 53.0477 125.57 52.5506 124.656C52.0535 123.743 51.8385 122.702 51.9328 121.666C52.0271 120.63 52.4266 119.645 53.0806 118.836C53.7346 118.027 54.6138 117.43 55.607 117.121C56.6002 116.811 57.6629 116.804 58.6606 117.098C59.3232 117.294 59.9407 117.618 60.4779 118.052C61.0152 118.487 61.4616 119.022 61.7917 119.629C62.1218 120.236 62.3292 120.902 62.4019 121.589C62.4746 122.276 62.4113 122.971 62.2156 123.633Z" fill="#E0E0E0"/>
<path d="M149.617 137.697L143.856 198.414L219.8 205.62L225.561 144.902L149.617 137.697Z" fill="#FAFAFA"/>
<path d="M225.54 144.889H225.175L224.105 144.799L220 144.404L204.425 143.004L149.58 137.904L149.795 137.729C148.09 155.799 146.13 176.514 144.065 198.439L143.87 198.199L219.81 205.434L219.61 205.599C221.38 187.324 222.85 172.169 223.88 161.574C224.38 156.274 224.81 152.119 225.09 149.269C225.235 147.859 225.345 146.769 225.42 146.024C225.495 145.279 225.545 144.904 225.545 144.904C225.545 144.904 225.545 145.264 225.465 145.989C225.385 146.714 225.305 147.804 225.18 149.204C224.92 152.044 224.545 156.204 224.065 161.474C223.065 172.104 221.675 187.299 219.975 205.634V205.819H219.79L143.84 198.659H143.62V198.439C145.71 176.519 147.68 155.804 149.4 137.734V137.539H149.595L204.55 142.849L220.05 144.374L224.135 144.784L225.18 144.894C225.43 144.869 225.54 144.889 225.54 144.889Z" fill="#E0E0E0"/>
<path d="M151.872 141.764L146.837 194.836L217.445 201.535L222.48 148.464L151.872 141.764Z" fill="#EBEBEB"/>
<path d="M146.82 194.822L174.61 164.172L187.93 186.257L199.34 176.207L217.43 201.517L146.82 194.822Z" fill="#E0E0E0"/>
<path d="M196.756 162.196C196.652 163.296 196.224 164.34 195.526 165.197C194.829 166.054 193.893 166.685 192.837 167.009C191.781 167.334 190.652 167.338 189.594 167.021C188.535 166.704 187.595 166.081 186.891 165.229C186.187 164.378 185.751 163.337 185.639 162.237C185.527 161.138 185.744 160.031 186.261 159.055C186.779 158.078 187.574 157.278 188.547 156.754C189.52 156.23 190.626 156.006 191.726 156.111C193.199 156.252 194.557 156.972 195.5 158.113C196.443 159.254 196.895 160.722 196.756 162.196Z" fill="#E0E0E0"/>
<path d="M77.681 153.44L21.1562 167.219L32.1728 212.41L88.6975 198.631L77.681 153.44Z" fill="#FAFAFA"/>
<path d="M77.6755 153.45L77.4005 153.525L76.6105 153.725L73.5455 154.5L62.0005 157.35L21.2055 167.35L21.3155 167.17C24.5955 180.62 28.3605 196.035 32.3455 212.35L32.1405 212.23L88.6555 198.5L88.5505 198.67L80.6355 165.875C79.6905 161.93 78.9455 158.83 78.4355 156.71C78.1855 155.655 77.9955 154.845 77.8655 154.285C77.7355 153.725 77.6755 153.445 77.6755 153.445C77.6755 153.445 77.7505 153.715 77.8855 154.25C78.0205 154.785 78.2255 155.6 78.4855 156.64C78.9855 158.75 79.7705 161.83 80.7455 165.76L88.8255 198.605L88.8555 198.74L88.7205 198.775L32.2205 212.575L32.0555 212.615L32.0155 212.45C28.0455 196.135 24.2955 180.715 21.0155 167.26L20.9805 167.115L21.1255 167.08L62.0555 157.185L73.6055 154.41L76.6505 153.685L77.4305 153.505L77.6755 153.45Z" fill="#E0E0E0"/>
<path d="M76.3626 156.782L23.8066 169.594L33.4365 209.097L85.9924 196.285L76.3626 156.782Z" fill="#EBEBEB"/>
<path d="M33.415 209.095L45.79 180.07L60.905 192.66L66.615 182.57L85.97 196.29L33.415 209.095Z" fill="#E0E0E0"/>
<path d="M61.2554 173.119C61.4548 173.937 61.407 174.797 61.1182 175.588C60.8293 176.379 60.3123 177.067 59.6325 177.565C58.9527 178.062 58.1406 178.347 57.2989 178.383C56.4573 178.419 55.6238 178.205 54.9039 177.768C54.184 177.33 53.61 176.689 53.2545 175.925C52.8989 175.161 52.7778 174.309 52.9064 173.477C53.035 172.644 53.4075 171.869 53.9769 171.248C54.5463 170.627 55.287 170.189 56.1054 169.989C56.6491 169.856 57.2136 169.832 57.7667 169.917C58.3198 170.003 58.8507 170.196 59.329 170.487C59.8072 170.777 60.2235 171.16 60.5541 171.611C60.8846 172.063 61.1229 172.575 61.2554 173.119Z" fill="#E0E0E0"/>
<path d="M217.282 45.6041L137.312 60.2812L149.047 124.218L229.016 109.541L217.282 45.6041Z" fill="#FAFAFA"/>
<path d="M217.285 45.6016L216.9 45.6816L215.78 45.9016L211.44 46.7216L195.075 49.7866L137.35 60.5016L137.52 60.2566C141.02 79.2866 145.02 101.097 149.28 124.182L149 124.002L229 109.362L228.845 109.592C225.345 90.3316 222.455 74.3666 220.43 63.2016C219.43 57.6166 218.64 53.2366 218.1 50.2316C217.835 48.7316 217.635 47.5966 217.495 46.8116C217.355 46.0266 217.3 45.6216 217.3 45.6216C217.3 45.6216 217.385 46.0016 217.53 46.7616C217.675 47.5216 217.895 48.6666 218.175 50.1416C218.735 53.1416 219.55 57.4866 220.595 63.0466C222.67 74.2316 225.645 90.2266 229.23 109.547L229.265 109.737L229.07 109.772L149.095 124.447L148.86 124.492L148.82 124.257C144.595 101.172 140.595 79.3566 137.11 60.3266L137.075 60.1166L137.28 60.0766L195.18 49.5766L211.5 46.6116L215.805 45.8466L216.91 45.6566L217.285 45.6016Z" fill="#E0E0E0"/>
<path d="M215.165 50.1583L140.812 63.8047L151.069 119.691L225.422 106.045L215.165 50.1583Z" fill="#EBEBEB"/>
<path d="M151.07 119.685L170.66 80.1797L190.735 98.9597L199.515 85.3347L225.42 106.035L151.07 119.685Z" fill="#E0E0E0"/>
<path d="M192.795 71.7143C193.008 72.8728 192.873 74.0685 192.406 75.1502C191.94 76.2318 191.163 77.1508 190.174 77.7909C189.185 78.431 188.029 78.7634 186.851 78.7461C185.673 78.7288 184.527 78.3626 183.557 77.6938C182.588 77.0249 181.838 76.0835 181.403 74.9887C180.969 73.8938 180.869 72.6946 181.116 71.5428C181.363 70.3911 181.946 69.3384 182.791 68.5181C183.637 67.6978 184.706 67.1466 185.865 66.9343C186.634 66.7927 187.423 66.8041 188.188 66.9677C188.952 67.1314 189.677 67.4441 190.321 67.888C190.964 68.332 191.514 68.8984 191.939 69.5549C192.363 70.2114 192.654 70.9452 192.795 71.7143Z" fill="#E0E0E0"/>
<path d="M118.384 64.8728H159.789L162.154 62.5078H187.329C188.146 62.5078 188.93 62.8323 189.507 63.4099C190.085 63.9875 190.409 64.7709 190.409 65.5878V69.7478H115.609L115.519 67.9028C115.5 67.5136 115.559 67.1245 115.694 66.7589C115.829 66.3933 116.037 66.0588 116.304 65.7756C116.572 65.4925 116.894 65.2665 117.252 65.1113C117.609 64.9562 117.995 64.875 118.384 64.8728Z" fill="#E9E9EA"/>
<path d="M60.1105 130.706L60.6655 75.5706C60.68 74.026 61.3038 72.5496 62.4012 71.4625C63.4986 70.3754 64.9809 69.7656 66.5255 69.7656H193.221C194.767 69.7656 196.251 70.3768 197.348 71.466C198.446 72.5553 199.069 74.0343 199.081 75.5806L199.496 130.706L205.326 154.786V163.391H201.196V188.036C201.193 192.361 199.473 196.508 196.413 199.566C193.354 202.623 189.206 204.341 184.881 204.341H72.2555C67.9285 204.341 63.7788 202.622 60.7191 199.562C57.6594 196.502 55.9405 192.353 55.9405 188.026V162.341H51.8105V154.786L60.1105 130.706Z" fill="#E9E9EA"/>
<path d="M60.11 130.707C60.11 130.707 59.935 131.242 59.585 132.277L58.005 136.897L51.865 154.807C51.865 157.177 51.865 159.7 51.865 162.377L51.8 162.317H55.995V162.342C55.995 167.727 55.995 173.672 55.995 180.137C55.995 181.754 55.995 183.402 55.995 185.082C55.9431 186.789 55.9982 188.497 56.16 190.197C56.3802 191.95 56.9029 193.652 57.705 195.227C58.5199 196.863 59.6013 198.351 60.905 199.632C63.67 202.326 67.3075 203.941 71.16 204.187C72.16 204.257 73.16 204.237 74.16 204.242H83.375H109.68H168.9H184.9C187.609 204.211 190.269 203.525 192.655 202.242L193.52 201.712L193.955 201.447L194.365 201.142L195.18 200.532L195.935 199.842L196.315 199.497L196.66 199.122L197.35 198.362L197.97 197.542L198.275 197.132C198.375 196.992 198.455 196.842 198.545 196.697L199.08 195.817C199.245 195.517 199.385 195.202 199.535 194.892C199.828 194.27 200.084 193.63 200.3 192.977C200.716 191.657 200.961 190.289 201.03 188.907C201.08 188.217 201.075 187.517 201.075 186.817V180.492C201.075 174.845 201.075 169.145 201.075 163.392V163.262H205.335L205.205 163.392V154.842C204.615 152.397 203.975 149.757 203.335 147.112C201.975 141.512 200.63 135.952 199.375 130.767V130.737C199.24 112.907 199.11 95.547 198.985 78.817C198.885 76.752 199.295 74.552 198.185 72.777C197.676 71.9034 196.946 71.1792 196.068 70.6771C195.19 70.1751 194.196 69.913 193.185 69.917H157.45L76.39 69.842H67.975C67.295 69.842 66.61 69.842 65.975 69.872C65.318 69.941 64.6774 70.1202 64.08 70.402C62.8977 70.958 61.9413 71.902 61.37 73.077C61.0881 73.6438 60.9038 74.254 60.825 74.882C60.755 75.507 60.77 76.142 60.76 76.767C60.76 78.027 60.76 79.267 60.72 80.477C60.6933 82.9137 60.6683 85.2704 60.645 87.547C60.545 96.652 60.46 104.482 60.39 110.877C60.32 117.272 60.255 122.227 60.215 125.587C60.215 127.262 60.175 128.542 60.165 129.402C60.155 130.262 60.165 130.697 60.165 130.697C60.165 130.697 60.165 130.257 60.165 129.397C60.165 128.537 60.165 127.257 60.165 125.577C60.195 122.217 60.235 117.262 60.29 110.867C60.345 104.472 60.42 96.642 60.505 87.537C60.525 85.2637 60.5467 82.9087 60.57 80.472C60.57 79.257 60.57 78.022 60.605 76.767C60.605 76.142 60.605 75.507 60.665 74.862C60.7934 73.8761 61.1668 72.9381 61.7512 72.1336C62.3355 71.3292 63.1121 70.684 64.01 70.257C64.6243 69.964 65.2835 69.7764 65.96 69.702C66.645 69.652 67.315 69.702 68 69.672H76.415H157.475H193.16C193.952 69.6661 194.737 69.8169 195.47 70.1158C196.203 70.4147 196.87 70.8557 197.432 71.4134C197.994 71.9712 198.44 72.6346 198.744 73.3655C199.048 74.0964 199.205 74.8803 199.205 75.672C199.205 76.712 199.205 77.757 199.23 78.802C199.355 95.532 199.49 112.892 199.625 130.717V130.687C200.885 135.877 202.23 141.437 203.585 147.032C204.225 149.682 204.865 152.322 205.46 154.767V163.532H201.2L201.33 163.402V186.842C201.33 187.542 201.33 188.242 201.285 188.947C201.215 190.351 200.966 191.741 200.545 193.082C200.325 193.746 200.064 194.395 199.765 195.027C199.61 195.337 199.47 195.657 199.305 195.967L198.755 196.842C198.665 196.992 198.58 197.142 198.48 197.287L198.17 197.702L197.54 198.537L196.84 199.307L196.49 199.692L196.105 200.037L195.34 200.737L194.51 201.342L194.095 201.652L193.655 201.922L192.77 202.457C190.347 203.754 187.644 204.441 184.895 204.457H168.895H109.675H83.37H74.17C73.17 204.457 72.17 204.457 71.17 204.402C67.2742 204.153 63.5969 202.516 60.805 199.787C59.4896 198.49 58.3966 196.984 57.57 195.332C56.7643 193.737 56.2383 192.015 56.015 190.242C55.8553 188.535 55.8019 186.82 55.855 185.107C55.855 183.427 55.855 181.777 55.855 180.162C55.855 173.697 55.855 167.752 55.855 162.367L55.92 162.437H51.75V162.342C51.75 159.675 51.75 157.152 51.75 154.772C54.455 146.972 56.535 140.957 57.945 136.892L59.55 132.277C59.92 131.237 60.11 130.707 60.11 130.707Z" fill="#E9E9EA"/>
<path d="M88.2586 121.387C92.2182 117.09 91.9447 110.396 87.6477 106.437C83.3507 102.477 76.6574 102.751 72.6978 107.048C68.7382 111.345 69.0117 118.038 73.3087 121.998C77.6057 125.957 84.299 125.684 88.2586 121.387Z" fill="#D7D7D7"/>
<path d="M91.06 114.22C91.0446 114.165 91.0362 114.108 91.035 114.05C91.035 113.92 91.035 113.755 91 113.55C90.9874 113.278 90.9557 113.008 90.905 112.74C90.8529 112.374 90.7777 112.012 90.68 111.655C90.4302 110.669 90.0324 109.727 89.5 108.86C88.8067 107.708 87.8986 106.7 86.825 105.89C85.5272 104.902 84.0146 104.234 82.41 103.94C80.5684 103.6 78.6695 103.759 76.91 104.4C76.4423 104.57 75.9863 104.77 75.545 105C75.0996 105.245 74.6719 105.521 74.265 105.825C73.8474 106.131 73.4514 106.465 73.08 106.825C72.7218 107.207 72.3878 107.611 72.08 108.035C71.43 108.909 70.9236 109.882 70.58 110.915C69.8667 113.056 69.8667 115.37 70.58 117.51C70.9236 118.544 71.43 119.516 72.08 120.39C72.3851 120.818 72.7192 121.224 73.08 121.605C73.454 121.963 73.8497 122.297 74.265 122.605C74.6719 122.91 75.0996 123.185 75.545 123.43C75.9863 123.66 76.4423 123.86 76.91 124.03C79.1994 124.862 81.7068 124.872 84.0027 124.058C86.2986 123.245 88.2402 121.658 89.495 119.57C90.0265 118.703 90.4243 117.761 90.675 116.775C90.7733 116.417 90.8484 116.053 90.9 115.685C90.9512 115.418 90.983 115.147 90.995 114.875C90.995 114.67 91.02 114.5 91.03 114.375C91.0305 114.318 91.0389 114.26 91.055 114.205C91.0606 114.262 91.0606 114.319 91.055 114.375C91.055 114.505 91.055 114.67 91.055 114.875C91.0551 115.148 91.0317 115.421 90.985 115.69C90.946 116.063 90.8774 116.433 90.78 116.795C90.5453 117.797 90.1574 118.757 89.63 119.64C88.8604 120.943 87.8228 122.068 86.5859 122.941C85.349 123.813 83.941 124.413 82.455 124.7C80.5766 125.052 78.6383 124.897 76.84 124.25C76.3607 124.077 75.8931 123.873 75.44 123.64C74.9791 123.404 74.5347 123.137 74.11 122.84C73.6832 122.522 73.2774 122.176 72.895 121.805C72.5173 121.418 72.1665 121.005 71.845 120.57C71.1786 119.675 70.6604 118.679 70.31 117.62C69.5766 115.427 69.5766 113.054 70.31 110.86C70.6593 109.801 71.1777 108.804 71.845 107.91C72.1677 107.475 72.5185 107.06 72.895 106.67C73.2775 106.301 73.6833 105.957 74.11 105.64C74.5287 105.331 74.9681 105.05 75.425 104.8C75.8771 104.565 76.3449 104.361 76.825 104.19C78.6228 103.541 80.5617 103.386 82.44 103.74C83.9244 104.023 85.3315 104.619 86.5677 105.488C87.804 106.357 88.8411 107.479 89.61 108.78C90.1374 109.664 90.5253 110.623 90.76 111.625C90.8569 111.986 90.9255 112.354 90.965 112.725C91.0118 112.996 91.0352 113.27 91.035 113.545C91.035 113.755 91.035 113.92 91.035 114.045C91.0491 114.103 91.0574 114.161 91.06 114.22Z" fill="#E9E9EA"/>
<g opacity="0.3">
<path d="M51.8105 154.786H205.326L199.496 130.711H60.1155L51.8105 154.786Z" fill="#BBBBBB"/>
</g>
<path d="M188.379 98.8056H170.734C170.071 98.8056 169.435 98.5422 168.967 98.0734C168.498 97.6046 168.234 96.9687 168.234 96.3056V78.6406C168.234 77.9776 168.498 77.3417 168.967 76.8729C169.435 76.404 170.071 76.1406 170.734 76.1406H188.379C189.042 76.1406 189.678 76.404 190.147 76.8729C190.616 77.3417 190.879 77.9776 190.879 78.6406V96.2856C190.882 96.6156 190.819 96.9429 190.695 97.2485C190.57 97.5541 190.387 97.8321 190.154 98.0663C189.922 98.3006 189.645 98.4865 189.341 98.6134C189.036 98.7403 188.709 98.8056 188.379 98.8056ZM170.734 76.6206C170.204 76.6206 169.695 76.8313 169.32 77.2064C168.945 77.5815 168.734 78.0902 168.734 78.6206V96.2856C168.734 96.8161 168.945 97.3248 169.32 97.6998C169.695 98.0749 170.204 98.2856 170.734 98.2856H188.379C188.91 98.2856 189.419 98.0749 189.794 97.6998C190.169 97.3248 190.379 96.8161 190.379 96.2856V78.6406C190.379 78.1102 190.169 77.6015 189.794 77.2264C189.419 76.8513 188.91 76.6406 188.379 76.6406L170.734 76.6206Z" fill="#E9E9EA"/>
<path d="M189.375 89.7732C190.642 84.3552 187.278 78.9354 181.86 77.6677C176.442 76.3999 171.022 79.7642 169.754 85.1822C168.487 90.6001 171.851 96.0199 177.269 97.2877C182.687 98.5555 188.107 95.1911 189.375 89.7732Z" fill="#E9E9EA"/>
<path d="M96.8998 81.1328H72.0398C70.1592 81.1328 68.6348 82.6573 68.6348 84.5378V90.4878C68.6348 92.3683 70.1592 93.8928 72.0398 93.8928H96.8998C98.7803 93.8928 100.305 92.3683 100.305 90.4878V84.5378C100.305 82.6573 98.7803 81.1328 96.8998 81.1328Z" fill="#FAFAFA"/>
<path d="M96.9 93.8851C97.1778 93.8615 97.4535 93.8181 97.725 93.7551C98.5028 93.5483 99.1816 93.0715 99.64 92.4101C99.97 91.9381 100.172 91.3885 100.225 90.8151C100.255 90.1851 100.225 89.4851 100.225 88.7401C100.225 87.9951 100.225 87.1951 100.225 86.3501C100.225 85.9301 100.225 85.4951 100.225 85.0451C100.247 84.5953 100.208 84.1446 100.11 83.7051C99.9888 83.2416 99.7681 82.8102 99.4633 82.4406C99.1585 82.0711 98.7769 81.7723 98.345 81.5651C97.45 81.0651 96.345 81.2701 95.25 81.2351H88.2H72.045C71.3598 81.2378 70.6926 81.4541 70.1361 81.8538C69.5795 82.2534 69.1615 82.8167 68.94 83.4651C68.7744 84.118 68.7153 84.7933 68.765 85.4651V89.5151C68.7149 90.159 68.7655 90.8068 68.915 91.4351C69.1031 92.0221 69.452 92.5447 69.9222 92.9433C70.3925 93.3419 70.9651 93.6007 71.575 93.6901C71.8754 93.7245 72.1779 93.7362 72.48 93.7251H75.185H78.605H84.75L93.645 93.7651H96.06H96.69C96.7615 93.7576 96.8335 93.7576 96.905 93.7651H96.69H96.06L93.645 93.7901L84.75 93.8351H78.605H72.475C72.1611 93.8464 71.8468 93.833 71.535 93.7951C70.8798 93.7012 70.2643 93.4249 69.7585 92.9979C69.2528 92.5709 68.8774 92.0103 68.675 91.3801C68.5753 91.0557 68.5197 90.7193 68.51 90.3801C68.51 90.0501 68.51 89.7201 68.51 89.3801V84.4701C68.5191 84.1079 68.5815 83.7491 68.695 83.4051C68.9328 82.7049 69.3836 82.0966 69.9843 81.6653C70.585 81.2341 71.3055 81.0015 72.045 81.0001H88.2H95.25H96.875C97.416 80.9963 97.9504 81.1196 98.435 81.3601C98.8905 81.5824 99.2923 81.9009 99.6125 82.2937C99.9328 82.6865 100.164 83.1442 100.29 83.6351C100.387 84.0899 100.424 84.5556 100.4 85.0201C100.4 85.4701 100.4 85.9051 100.4 86.3251C100.4 87.1701 100.4 87.9701 100.4 88.7151C100.4 89.4601 100.4 90.1501 100.37 90.8001C100.307 91.3916 100.092 91.9566 99.745 92.4401C99.2641 93.1157 98.5528 93.5923 97.745 93.7801C97.4708 93.86 97.1855 93.8954 96.9 93.8851Z" fill="#E9E9EA"/>
<path d="M131.935 129.573C147.106 129.573 159.405 117.274 159.405 102.103C159.405 86.9316 147.106 74.6328 131.935 74.6328C116.764 74.6328 104.465 86.9316 104.465 102.103C104.465 117.274 116.764 129.573 131.935 129.573Z" fill="#E9E9EA"/>
<path d="M131.935 129.838C126.452 129.838 121.093 128.213 116.534 125.166C111.975 122.12 108.422 117.791 106.324 112.725C104.227 107.66 103.678 102.086 104.748 96.7087C105.818 91.3314 108.458 86.3922 112.336 82.5157C116.213 78.6392 121.153 75.9995 126.53 74.9305C131.907 73.8615 137.481 74.4111 142.546 76.5099C147.611 78.6088 151.94 82.1625 154.986 86.7217C158.031 91.2809 159.656 96.6407 159.655 102.123C159.647 109.472 156.724 116.518 151.527 121.714C146.33 126.91 139.284 129.832 131.935 129.838ZM131.935 74.9035C126.551 74.9035 121.289 76.4999 116.812 79.4908C112.336 82.4818 108.847 86.733 106.787 91.7068C104.727 96.6806 104.188 102.154 105.238 107.434C106.288 112.714 108.881 117.564 112.687 121.371C116.494 125.178 121.344 127.77 126.624 128.82C131.905 129.871 137.378 129.332 142.351 127.271C147.325 125.211 151.576 121.722 154.567 117.246C157.558 112.77 159.155 107.507 159.155 102.123C159.152 94.9032 156.284 87.9792 151.181 82.8718C146.077 77.7645 139.155 74.8914 131.935 74.8834V74.9035Z" fill="#D7D7D7"/>
<path d="M131.934 127.067C126.897 127.062 121.974 125.564 117.788 122.761C113.601 119.959 110.34 115.978 108.416 111.323C106.492 106.667 105.991 101.545 106.977 96.6051C107.963 91.665 110.392 87.1281 113.956 83.5681C117.521 80.008 122.06 77.5846 127.002 76.6043C131.943 75.6239 137.064 76.1306 141.717 78.0602C146.371 79.9898 150.348 83.2558 153.145 87.4453C155.943 91.6347 157.435 96.5596 157.434 101.597C157.426 108.355 154.736 114.833 149.955 119.609C145.174 124.385 138.692 127.067 131.934 127.067ZM131.934 76.6222C126.997 76.6271 122.172 78.0955 118.068 80.8416C113.965 83.5878 110.768 87.4887 108.881 92.0512C106.994 96.6138 106.501 101.633 107.466 106.476C108.43 111.318 110.808 115.766 114.299 119.257C117.791 122.748 122.239 125.127 127.081 126.091C131.923 127.056 136.943 126.563 141.505 124.676C146.068 122.789 149.969 119.591 152.715 115.488C155.461 111.385 156.929 106.56 156.934 101.622C156.934 94.9918 154.3 88.6329 149.612 83.9445C144.924 79.2561 138.565 76.6222 131.934 76.6222Z" fill="#D7D7D7"/>
<path d="M131.935 122.325C143.224 122.325 152.375 113.174 152.375 101.885C152.375 90.5966 143.224 81.4453 131.935 81.4453C120.646 81.4453 111.495 90.5966 111.495 101.885C111.495 113.174 120.646 122.325 131.935 122.325Z" fill="#D7D7D7"/>
<path d="M86.2949 119.568C89.2412 116.354 89.024 111.36 85.8098 108.414C82.5956 105.467 77.6014 105.685 74.6551 108.899C71.7088 112.113 71.926 117.107 75.1402 120.054C78.3544 123 83.3485 122.783 86.2949 119.568Z" fill="#E9E9EA"/>
<path d="M88.375 114.22C88.3193 113.575 88.219 112.935 88.075 112.305C87.8883 111.571 87.5916 110.87 87.195 110.225C86.6746 109.368 85.9959 108.618 85.195 108.015C84.2278 107.283 83.1028 106.788 81.91 106.57C80.5418 106.322 79.1322 106.441 77.825 106.915C77.1199 107.166 76.4573 107.523 75.86 107.975C75.5518 108.207 75.2579 108.457 74.98 108.725C74.7069 109.009 74.453 109.312 74.22 109.63C73.239 110.959 72.7097 112.568 72.7097 114.22C72.7097 115.872 73.239 117.48 74.22 118.81C74.4515 119.128 74.7055 119.428 74.98 119.71C75.2556 119.98 75.5496 120.231 75.86 120.46C76.456 120.913 77.119 121.271 77.825 121.52C79.5273 122.138 81.3912 122.146 83.099 121.543C84.8068 120.941 86.2526 119.764 87.19 118.215C87.5861 117.57 87.8828 116.868 88.07 116.135C88.2141 115.504 88.3143 114.864 88.37 114.22C88.37 114.22 88.37 114.265 88.37 114.345C88.37 114.425 88.37 114.57 88.37 114.725C88.3703 114.929 88.3536 115.133 88.32 115.335C88.2886 115.613 88.2385 115.888 88.17 116.16C87.9946 116.909 87.7063 117.627 87.315 118.29C86.7399 119.265 85.9643 120.107 85.0394 120.761C84.1146 121.414 83.0616 121.864 81.95 122.08C80.5437 122.349 79.0909 122.233 77.745 121.745C77.0151 121.489 76.3288 121.124 75.71 120.66C75.3895 120.424 75.0854 120.167 74.8 119.89C74.5169 119.597 74.253 119.286 74.01 118.96C72.9949 117.584 72.4472 115.919 72.4472 114.21C72.4472 112.5 72.9949 110.835 74.01 109.46C74.2499 109.134 74.5122 108.824 74.795 108.535C75.0817 108.257 75.3856 107.999 75.705 107.76C76.3238 107.296 77.0101 106.93 77.74 106.675C79.0869 106.191 80.5391 106.077 81.945 106.345C83.0574 106.558 84.1115 107.007 85.0367 107.661C85.9619 108.314 86.7369 109.158 87.31 110.135C87.7021 110.797 87.9904 111.515 88.165 112.265C88.2335 112.536 88.2836 112.812 88.315 113.09C88.3486 113.291 88.3653 113.495 88.365 113.7C88.365 113.85 88.365 113.975 88.365 114.075C88.365 114.175 88.375 114.22 88.375 114.22Z" fill="#E9E9EA"/>
<path d="M83.8448 108.507C83.401 108.291 82.9433 108.106 82.4748 107.952C81.1834 107.565 79.8052 107.575 78.5198 107.982C77.5764 108.287 76.7144 108.802 75.9983 109.488C75.2822 110.173 74.7306 111.012 74.3848 111.942C74.1851 112.476 74.0573 113.034 74.0048 113.602C73.9518 114.194 73.9787 114.791 74.0848 115.377C74.3083 116.612 74.8848 117.756 75.7446 118.671C76.6044 119.586 77.7107 120.232 78.9298 120.532C80.067 120.81 81.2577 120.781 82.3798 120.447C83.3905 120.134 84.3125 119.586 85.0698 118.847C85.7241 118.198 86.2351 117.42 86.5698 116.562C87.0574 115.305 87.1549 113.93 86.8498 112.617C86.7645 112.261 86.6542 111.912 86.5198 111.572C86.4643 111.455 86.4175 111.335 86.3798 111.212C86.4 111.239 86.4183 111.267 86.4348 111.297C86.4648 111.352 86.5098 111.437 86.5648 111.552C86.7261 111.885 86.8551 112.234 86.9498 112.592C87.2974 113.926 87.224 115.336 86.7398 116.627C86.4036 117.517 85.884 118.326 85.2148 119.002C84.4354 119.772 83.4843 120.346 82.4398 120.677C81.2771 121.031 80.0405 121.065 78.8598 120.777C77.5895 120.472 76.4366 119.801 75.5448 118.847C74.6513 117.896 74.0521 116.706 73.8198 115.422C73.7155 114.813 73.6902 114.192 73.7448 113.577C73.9143 111.883 74.7181 110.317 75.9948 109.192C76.7053 108.558 77.5445 108.086 78.4548 107.807C79.7738 107.404 81.1852 107.419 82.4948 107.852C82.8417 107.97 83.1766 108.12 83.4948 108.302L83.7448 108.447L83.8448 108.507Z" fill="#E9E9EA"/>
<path d="M199.494 130.708C199.494 130.783 168.289 130.843 129.809 130.843C91.3294 130.843 60.1094 130.783 60.1094 130.708C60.1094 130.633 91.3044 130.578 129.804 130.578C168.304 130.578 199.494 130.638 199.494 130.708Z" fill="#E9E9EA"/>
<path d="M203.8 163.423H203.415H202.29H197.965H182.06C168.63 163.373 150.06 163.202 129.59 162.967C109.12 162.732 90.5355 162.533 77.0905 162.443L61.1905 162.342L56.8655 162.312H61.1905H77.0955C90.5255 162.358 109.095 162.527 129.595 162.762C150.095 162.997 168.635 163.197 182.065 163.292L197.97 163.393L202.295 163.423H203.42H203.8Z" fill="#E9E9EA"/>
<path d="M188.455 185.273H68.6797V191.753H188.455V185.273Z" fill="#E9E9EA"/>
<path d="M71.3353 188.516L62.5703 212.366H195.755L185.64 188.516H71.3353Z" fill="white"/>
<path d="M71.3348 188.512C71.3348 188.512 71.5198 188.512 71.8898 188.512H73.5398H79.9398L103.825 188.477L185.64 188.422H185.725L185.755 188.502C189.01 196.167 192.4 204.162 195.875 212.352L195.95 212.532H186.57L62.5698 212.477H62.4648L62.4998 212.377L68.9998 194.797L70.7298 190.142C70.9248 189.642 71.0748 189.222 71.1748 188.947C71.2748 188.672 71.3298 188.552 71.3298 188.552C71.3298 188.552 71.2848 188.692 71.1898 188.967L70.7548 190.172L69.0598 194.837C67.5598 198.922 65.3898 204.882 62.6398 212.412L62.5748 212.317L186.575 212.257H195.76L195.64 212.437C192.165 204.247 188.78 196.252 185.53 188.587L185.645 188.662L103.9 188.607L79.9898 188.572H73.5698H71.9098L71.3348 188.512Z" fill="#E9E9EA"/>
<g opacity="0.3">
<path d="M145.035 111.342C144.785 108.772 142.535 107.842 140.42 107.572C135.965 106.947 130.92 108.222 127.26 105.622C126.092 104.763 125.2 103.582 124.693 102.225C124.185 100.867 124.083 99.391 124.4 97.9766C124.9 95.8316 126.4 93.4766 124.945 91.6666C124.662 91.3304 124.311 91.0578 123.916 90.8665C123.52 90.6752 123.089 90.5696 122.65 90.5566C121.816 90.5345 120.987 90.7056 120.23 91.0566C118.593 91.7787 117.263 93.0529 116.47 94.6566C114.626 98.4527 114.288 102.807 115.525 106.842C116.28 109.357 117.592 111.67 119.361 113.611C121.131 115.551 123.315 117.069 125.75 118.052C128.2 118.997 130.827 119.397 133.448 119.224C136.068 119.052 138.62 118.31 140.925 117.052C142.66 116.097 144.295 114.797 144.88 112.807C145.023 112.332 145.076 111.835 145.035 111.342Z" fill="white"/>
</g>
<g opacity="0.3">
<path d="M133.795 87.8009C133.796 88.2157 133.674 88.6215 133.444 88.9667C133.215 89.312 132.888 89.5813 132.504 89.7405C132.121 89.8997 131.7 89.9416 131.293 89.8609C130.886 89.7802 130.512 89.5806 130.219 89.2873C129.926 88.994 129.726 88.6203 129.645 88.2134C129.565 87.8066 129.607 87.3849 129.766 87.0019C129.925 86.6189 130.194 86.2917 130.54 86.0619C130.885 85.8321 131.291 85.71 131.705 85.7109C132.26 85.7109 132.791 85.9311 133.183 86.3231C133.575 86.715 133.795 87.2466 133.795 87.8009Z" fill="white"/>
</g>
<path d="M124.715 119.95C124.593 119.915 124.476 119.867 124.365 119.805C124.145 119.695 123.805 119.56 123.4 119.305C122.231 118.668 121.131 117.911 120.12 117.045C118.615 115.761 117.306 114.263 116.235 112.6C113.547 108.503 112.512 103.54 113.34 98.71C113.656 96.7658 114.252 94.8778 115.11 93.105C115.69 91.9079 116.394 90.7751 117.21 89.725C117.49 89.35 117.75 89.09 117.91 88.9C117.99 88.802 118.077 88.7101 118.17 88.625C118.106 88.7344 118.032 88.8381 117.95 88.935C117.805 89.135 117.56 89.4 117.295 89.79C116.519 90.8533 115.849 91.9904 115.295 93.185C114.459 94.955 113.881 96.8358 113.58 98.77C112.786 103.54 113.806 108.435 116.44 112.49C117.49 114.141 118.77 115.634 120.24 116.925C121.233 117.797 122.308 118.571 123.45 119.235C123.845 119.485 124.18 119.63 124.39 119.735C124.505 119.796 124.614 119.868 124.715 119.95Z" fill="white"/>
<path d="M133.194 121.281C132.494 121.37 131.785 121.37 131.084 121.281C130.377 121.283 129.672 121.201 128.984 121.036C129.687 120.946 130.397 120.946 131.099 121.036C131.805 121.033 132.508 121.115 133.194 121.281Z" fill="white"/>
<path d="M150.99 104.659C150.935 104.659 151.165 103.659 151.24 102.074C151.24 101.669 151.265 101.234 151.24 100.764C151.215 100.294 151.18 99.7888 151.13 99.2638C150.855 96.9822 150.142 94.7752 149.03 92.7638C148.76 92.3088 148.53 91.8637 148.245 91.4837C147.96 91.1037 147.745 90.7388 147.475 90.4188C146.475 89.1638 145.725 88.5087 145.76 88.4688C145.956 88.5968 146.137 88.746 146.3 88.9137C146.508 89.0934 146.705 89.2854 146.89 89.4888C147.11 89.7288 147.39 89.9887 147.62 90.3037C147.904 90.6418 148.171 90.9939 148.42 91.3587C148.705 91.7437 148.96 92.1888 149.24 92.6438C150.391 94.6778 151.114 96.9254 151.365 99.2488C151.42 99.7469 151.45 100.248 151.455 100.749C151.469 101.191 151.458 101.633 151.42 102.074C151.401 102.437 151.363 102.799 151.305 103.159C151.274 103.431 151.227 103.702 151.165 103.969C151.126 104.203 151.068 104.434 150.99 104.659Z" fill="white"/>
<g opacity="0.3">
<path d="M55.9395 162.359V169.189H201.194V163.389L55.9395 162.359Z" fill="#BBBBBB"/>
</g>
<path d="M75.2404 188.516L68.4004 209.401H189.925L182.005 188.516H75.2404Z" fill="#D7D7D7"/>
<path d="M186.175 188.513C186.175 188.583 160.335 188.643 128.475 188.643C96.6145 188.643 70.7695 188.583 70.7695 188.513C70.7695 188.443 96.5995 188.383 128.475 188.383C160.35 188.383 186.175 188.438 186.175 188.513Z" fill="#E9E9EA"/>
<path d="M184.945 84.575L193.805 87.02L187.26 88.62C183.915 89.155 182.42 90.59 181.815 92.455L179.77 108.955L177.27 92.455C176.962 91.6864 176.495 90.9915 175.9 90.4159C175.304 89.8404 174.594 89.397 173.815 89.115L165.315 87.04L174.285 84.5C175.026 84.1956 175.697 83.7432 176.256 83.1706C176.816 82.5981 177.253 81.9173 177.54 81.17L179.775 62.5L181.38 80.765C181.641 81.6318 182.098 82.4266 182.717 83.0875C183.335 83.7484 184.098 84.2575 184.945 84.575Z" fill="white"/>
<path d="M189.509 107.249L191.574 107.819L190.049 108.194C189.269 108.319 188.924 108.654 188.779 109.084L188.304 112.924L187.719 109.079C187.648 108.9 187.539 108.738 187.401 108.604C187.262 108.471 187.096 108.368 186.914 108.304L184.939 107.804L187.029 107.214C187.201 107.142 187.356 107.036 187.486 106.903C187.615 106.77 187.717 106.612 187.784 106.439L188.284 102.094L188.659 106.344C188.719 106.551 188.828 106.741 188.976 106.898C189.123 107.056 189.306 107.176 189.509 107.249Z" fill="white"/>
</svg>
