<svg width="91" height="80" viewBox="0 0 91 80" fill="none" xmlns="http://www.w3.org/2000/svg">
<path d="M68.9772 0.125H6.69557C3.10665 0.125 0.197266 3.03439 0.197266 6.6233V68.905C0.197266 72.4939 3.10665 75.4033 6.69557 75.4033H68.9772C72.5662 75.4033 75.4755 72.4939 75.4755 68.905V6.6233C75.4755 3.03439 72.5662 0.125 68.9772 0.125Z" fill="#FAFAFA"/>
<path d="M0.197714 6.62234C0.197714 6.62234 0.197714 6.36737 0.197714 5.87121C0.301663 4.90646 0.620576 3.97727 1.13099 3.15203C1.6414 2.32678 2.33033 1.62645 3.1471 1.10257C3.79754 0.672733 4.52176 0.366693 5.28334 0.199842C6.14055 0.0488792 7.01185 -0.00658943 7.88128 0.0344549L38.9808 0H60.4327H66.3177C67.3169 0 68.3093 0 69.336 0C70.3762 0.055913 71.3876 0.360777 72.2854 0.888951C73.2158 1.42269 74.0036 2.17314 74.5819 3.07653C75.1601 3.97992 75.5118 5.00955 75.6069 6.07794C75.6689 8.21418 75.6069 10.3366 75.6069 12.5073C75.6069 29.8522 75.6069 48.9199 75.6069 68.9316C75.6085 70.2183 75.2378 71.478 74.5397 72.5589C73.8415 73.6397 72.8456 74.4956 71.6721 75.0233C71.0934 75.2892 70.4777 75.4658 69.846 75.547C69.2282 75.6143 68.6064 75.6374 67.9854 75.616H49.9652H22.7523H7.01989C5.9912 75.6516 4.9674 75.4586 4.02227 75.0509C3.10065 74.6434 2.28332 74.0324 1.63166 73.2638C0.980004 72.4952 0.510955 71.5889 0.259734 70.613C0.0617948 69.6642 -0.00773783 68.693 0.0530021 67.7257V64.9072C0.0530021 63.0696 0.0530021 61.2457 0.0530021 59.4357C0.0530021 55.8523 0.0530021 52.4205 0.0530021 49.1404C0.0530021 36.0473 0.10124 25.4143 0.115022 18.0684C0.115022 14.4093 0.115021 11.5633 0.149477 9.62686C0.149477 8.6621 0.149477 7.93165 0.149477 7.4286C0.149477 6.92555 0.149477 6.67747 0.149477 6.67747C0.149477 6.67747 0.149477 6.93244 0.149477 7.4286C0.149477 7.92475 0.149477 8.6621 0.149477 9.62686C0.149477 11.5633 0.149478 14.4093 0.183933 18.0684C0.183933 25.4143 0.218389 36.0266 0.239062 49.1404C0.239062 52.4205 0.239062 55.8523 0.239062 59.4357C0.239062 61.2182 0.239062 63.042 0.239062 64.9072V67.7257C0.186228 68.6678 0.255717 69.6129 0.445794 70.5372C0.686399 71.4686 1.13512 72.3332 1.75819 73.0661C2.38125 73.799 3.16244 74.381 4.04294 74.7683C4.94894 75.1589 5.93062 75.3425 6.91653 75.3059H67.9303C68.5351 75.327 69.1406 75.3063 69.7426 75.2438C70.3377 75.1621 70.918 74.995 71.4654 74.7477C72.5767 74.248 73.5199 73.4378 74.1814 72.4144C74.8428 71.3911 75.1943 70.1983 75.1935 68.9798C75.1935 48.9957 75.1935 29.9004 75.1935 12.5556C75.1935 10.3987 75.1935 8.23485 75.1935 6.15374C75.1046 5.13678 74.7711 4.15637 74.2216 3.29606C73.6721 2.43575 72.9227 1.72105 72.0373 1.21283C71.2102 0.696511 70.2729 0.382509 69.3016 0.296317C68.3024 0.296317 67.2894 0.296317 66.2971 0.296317H60.4121L38.9808 0.254972L7.88128 0.199842C7.02179 0.158293 6.1603 0.206794 5.3109 0.344555C4.5757 0.501729 3.8752 0.791268 3.24358 1.19905C2.23485 1.83172 1.42327 2.73402 0.900606 3.80389C0.467103 4.68217 0.227395 5.64335 0.197714 6.62234Z" fill="#E9E9EA"/>
<path d="M55.7672 57.287C55.5192 56.7633 52.3768 45.4343 52.3768 45.4343L52.9557 33.368L53.5276 16.6503L45.403 15.2031C39.5112 18.6487 30.2426 20.0269 24.2405 17.2705C24.2405 17.2705 21.0017 17.4221 19.4167 18.8761C18.8103 19.4343 19.7958 24.3063 20.6847 29.1093C21.6219 34.1605 24.2543 46.7161 24.2543 46.7161C24.2543 46.7161 19.7889 57.4869 18.8379 60.581C18.8379 60.581 46.1266 55.6332 55.2642 60.581C55.2642 60.5878 57.1937 60.3191 55.7672 57.287Z" fill="#E9E9EA"/>
<path d="M9.41701 25.0083L19.5883 18.7305L22.3447 32.7263L17.1006 37.1848C17.1006 37.1848 9.13447 33.0846 9.41701 25.0083Z" fill="#E9E9EA"/>
<path d="M53.5288 16.6484L63.8654 21.1276C63.8654 21.1276 60.4681 34.0898 58.4835 35.5989L53.2394 33.38L51.9507 37.4113L51.8818 21.1345L53.5288 16.6484Z" fill="#E9E9EA"/>
<path d="M18.0461 35.8885C17.8603 35.8351 17.6837 35.7538 17.5224 35.6473C17.076 35.3923 16.6477 35.1068 16.2406 34.7928C14.8551 33.7573 13.665 32.4832 12.7262 31.0303C12.2039 30.2176 11.7653 29.3541 11.4169 28.453C11.1549 27.7223 10.9657 26.9675 10.8518 26.1997C10.7696 25.6848 10.7327 25.1636 10.7415 24.6423C10.7235 24.4498 10.7422 24.2557 10.7967 24.0703C10.8587 24.0703 10.8518 24.8835 11.0999 26.1376C11.2465 26.8823 11.4563 27.6131 11.727 28.3221C12.0702 29.1826 12.49 30.0105 12.9811 30.796C13.9022 32.2156 15.0391 33.4827 16.3509 34.5517C17.3846 35.413 18.0806 35.8334 18.0461 35.8885Z" fill="white"/>
<path d="M20.9459 30.771C20.9459 30.771 20.7943 30.7227 20.5462 30.5711C20.2403 30.3332 19.9524 30.0729 19.6848 29.7924C18.7954 28.8449 17.9821 27.8288 17.2523 26.7535C16.5128 25.6881 15.8386 24.5789 15.2332 23.4319C14.949 22.9706 14.7505 22.4617 14.6475 21.9297C14.6957 21.9297 14.9438 22.4672 15.4606 23.3079C15.9774 24.1486 16.6941 25.2994 17.5279 26.5398C18.3618 27.7802 19.2094 28.869 19.8502 29.6133C20.1741 29.9785 20.4498 30.261 20.6427 30.454C20.8357 30.6469 20.9528 30.7434 20.9459 30.771Z" fill="white"/>
<path d="M52.3343 17.5977C51.9263 17.7334 51.5096 17.8416 51.087 17.9215C50.2808 18.1214 49.1231 18.4315 47.7104 18.8656L42.7282 20.423C40.7016 21.0658 38.628 21.5497 36.5262 21.8701C32.6404 22.4015 28.6842 22.012 24.9767 20.7331C23.8647 20.3538 22.7822 19.8931 21.7379 19.3549C21.3658 19.1688 21.097 18.9897 20.9041 18.8794C20.8044 18.8269 20.7118 18.7621 20.6284 18.6865C21.03 18.8404 21.4213 19.0199 21.7999 19.224C22.8582 19.7216 23.9469 20.152 25.0594 20.5126C28.7298 21.701 32.6203 22.0495 36.4435 21.5325C38.5426 21.23 40.6158 20.7692 42.6455 20.1543C44.5267 19.603 46.2082 19.0655 47.6415 18.6658C49.0748 18.2661 50.2463 17.9767 51.087 17.832C51.4936 17.7493 51.7762 17.7079 52.0311 17.6735C52.1272 17.6313 52.2297 17.6056 52.3343 17.5977Z" fill="white"/>
<path d="M53.4511 27.0767C53.3434 27.112 53.2326 27.1373 53.1203 27.1525L52.1693 27.3041C51.3424 27.4419 50.1434 27.5935 48.6549 27.7451C45.6779 28.0552 41.5433 28.2964 36.94 28.3033C32.3368 28.3102 28.2366 28.1379 25.2252 27.9863L21.7521 27.7658L20.7942 27.69C20.6803 27.6853 20.5672 27.6691 20.4565 27.6417C20.5684 27.624 20.6824 27.624 20.7942 27.6417H21.7521L25.2941 27.7313C28.2779 27.8209 32.4057 27.9518 36.9676 27.9449C41.5295 27.9381 45.6435 27.7382 48.6204 27.4901C50.1089 27.373 51.3148 27.2558 52.1487 27.1663L53.1065 27.0767C53.2206 27.0578 53.337 27.0578 53.4511 27.0767Z" fill="white"/>
<path d="M52.9535 33.3633C52.5751 33.5243 52.183 33.6512 51.782 33.7423C51.403 33.8594 50.9344 33.9628 50.4038 34.0868C49.8732 34.2109 49.2254 34.3418 48.5225 34.4452C44.8746 35.0266 41.1902 35.349 37.4968 35.4099C33.1761 35.534 29.2619 35.4099 26.471 35.1894C25.0928 35.0861 23.9144 34.962 23.1288 34.8587C22.7203 34.814 22.3152 34.7426 21.916 34.645C22.3263 34.6346 22.7367 34.6599 23.1426 34.7208C23.9351 34.776 25.0721 34.8655 26.4848 34.9345C29.3033 35.0654 33.2105 35.1756 37.5106 35.0516C41.1995 34.9867 44.8814 34.7014 48.5363 34.1971C49.2254 34.1075 49.8663 33.9973 50.4176 33.887C50.9688 33.7767 51.4443 33.7009 51.7958 33.6045C52.1765 33.5011 52.5631 33.4205 52.9535 33.3633Z" fill="white"/>
<path d="M52.0709 41.9702C51.7012 42.0535 51.3257 42.1087 50.9476 42.1355C50.2585 42.2182 49.1697 42.3147 47.8673 42.425C45.2625 42.6248 41.6653 42.8315 37.6685 42.8798C33.6717 42.928 30.0883 42.7833 27.4628 42.549C26.1604 42.425 25.106 42.3078 24.3825 42.1769C24.0058 42.135 23.6327 42.0659 23.2661 41.9702C23.6464 41.959 24.027 41.9821 24.4031 42.0391C25.0923 42.1218 26.181 42.2044 27.4766 42.294C30.0814 42.4663 33.6786 42.5766 37.6616 42.5214C41.6447 42.4663 45.2418 42.3078 47.8466 42.17L50.9338 41.9977C51.3113 41.9552 51.6918 41.946 52.0709 41.9702Z" fill="white"/>
<path d="M53.755 50.4457C53.3455 50.4633 52.9352 50.4471 52.5284 50.3974L49.1862 50.1631C46.3677 49.9771 42.4605 49.7841 38.1605 49.7841C33.8604 49.7841 29.9394 49.9771 27.1347 50.1631L23.7925 50.3974C23.3857 50.4471 22.9754 50.4633 22.5659 50.4457C22.9652 50.3545 23.3705 50.2923 23.7788 50.2596C24.5643 50.1562 25.7014 50.0391 27.114 49.9082C29.9325 49.6601 33.8466 49.4258 38.1398 49.4258C42.4329 49.4258 46.3677 49.6601 49.1655 49.9082C50.5437 50.0322 51.7152 50.1562 52.5008 50.2596C52.9229 50.2903 53.3422 50.3525 53.755 50.4457Z" fill="white"/>
<path d="M57.0232 20.2318C56.7447 21.2876 56.2778 22.2844 55.6449 23.1743C55.112 24.1277 54.4117 24.9774 53.5776 25.6826C53.4949 25.6206 54.3839 24.4836 55.3142 22.9813C56.2445 21.4791 56.8991 20.1835 57.0232 20.2318Z" fill="white"/>
<path d="M19.791 24.0977C19.8976 24.38 19.9715 24.6737 20.0115 24.9728L20.5284 27.3916C20.9694 29.5072 21.5551 32.2912 22.2029 35.3715C22.8507 38.4518 23.402 41.3185 23.7741 43.372C23.9532 44.3988 24.0911 45.2326 24.1738 45.8115C24.2295 46.1115 24.2572 46.416 24.2565 46.7211C24.1507 46.4361 24.0768 46.1403 24.0359 45.839L23.5191 43.4203C23.0781 41.3116 22.4923 38.5207 21.8515 35.4404C21.2106 32.3601 20.6455 29.5003 20.2803 27.4398C20.0942 26.4131 19.9564 25.5792 19.8737 25.0004C19.8181 24.7027 19.7904 24.4005 19.791 24.0977Z" fill="#E9E9EA"/>
<path d="M53.6296 27.8047C53.6556 28.0337 53.6556 28.2648 53.6296 28.4938C53.6296 28.9417 53.5882 29.5895 53.5538 30.3888C53.4711 31.9807 53.3332 34.1858 53.161 36.5908C52.9887 38.9958 52.8095 41.2285 52.6648 42.7928C52.589 43.5922 52.527 44.2399 52.4719 44.681C52.4593 44.9144 52.42 45.1456 52.3547 45.3701C52.3199 45.1417 52.3199 44.9094 52.3547 44.681C52.3547 44.2331 52.3547 43.5853 52.4305 42.7859C52.5132 41.1941 52.651 38.9889 52.8233 36.5839C52.9956 34.179 53.1747 31.9462 53.3195 30.382C53.3884 29.5826 53.4573 28.9417 53.5124 28.4938C53.5149 28.2594 53.5545 28.0268 53.6296 27.8047Z" fill="#E9E9EA"/>
<path d="M61.0957 20.0859C60.8561 20.7919 60.5731 21.4823 60.2481 22.1533C59.7106 23.4143 59.0215 25.1785 58.3806 27.1631C57.7398 29.1477 57.2918 30.9945 57.0024 32.3383C56.8777 33.0689 56.7098 33.7914 56.4994 34.5021C56.4677 34.3035 56.4677 34.1012 56.4994 33.9026C56.5407 33.5167 56.6165 32.9654 56.7337 32.2832C57.0419 30.5143 57.4725 28.769 58.0223 27.0597C58.5669 25.3468 59.2276 23.6729 60 22.0499C60.2963 21.4297 60.5513 20.9335 60.7443 20.5959C60.8377 20.4107 60.9559 20.2391 61.0957 20.0859Z" fill="white"/>
<path d="M55.734 57.6995C55.6059 57.6875 55.4791 57.6644 55.355 57.6306L54.2937 57.3757C53.832 57.2585 53.267 57.1207 52.6054 56.9898C51.9439 56.8588 51.2272 56.6728 50.3589 56.5487C49.4906 56.4247 48.6086 56.2455 47.6025 56.1422C46.5964 56.0388 45.5352 55.9285 44.4326 55.8321C42.0091 55.6872 39.5791 55.6872 37.1556 55.8321C34.7307 56.0081 32.3189 56.3326 29.9337 56.8037C28.838 57.0449 27.7975 57.2516 26.8396 57.5273C25.8818 57.8029 24.9859 58.0441 24.1728 58.2991C23.3596 58.554 22.6429 58.809 22.009 59.0295C21.375 59.25 20.8306 59.4568 20.3896 59.6359L19.3697 60.0356C19.2518 60.0921 19.1265 60.1316 18.9976 60.1528C19.1041 60.0823 19.2171 60.0223 19.3352 59.9736L20.3275 59.5188C20.7617 59.319 21.2923 59.0847 21.9332 58.8297C22.574 58.5747 23.3114 58.2922 24.0901 58.0441C24.8688 57.796 25.7853 57.479 26.7569 57.2241C27.7286 56.9691 28.7622 56.7141 29.8579 56.466C34.6665 55.4531 39.5946 55.1283 44.4946 55.5013C45.611 55.6047 46.6791 55.6873 47.6714 55.8458C48.6637 56.0043 49.5871 56.1353 50.4278 56.3007C51.2685 56.466 52.0128 56.6383 52.6743 56.7968C53.3359 56.9553 53.894 57.1 54.3489 57.2447L55.3963 57.5617C55.5152 57.5902 55.6291 57.6367 55.734 57.6995Z" fill="white"/>
<path d="M68.7656 57.1914C68.7656 57.1914 71.7081 76.8172 72.0802 76.5692C72.4524 76.3211 77.476 71.6627 77.476 71.6627L85.6901 80.0009L90.9687 74.7292L82.7476 66.5151L87.9022 61.6086L68.7656 57.1914Z" fill="#E9E9EA"/>
<path d="M67.4435 58.172C66.2329 58.5213 64.9913 58.7521 63.7361 58.8611C62.4998 59.09 61.2445 59.2007 59.9873 59.1919C61.1965 58.847 62.4355 58.6163 63.6878 58.5028C64.927 58.2781 66.1841 58.1674 67.4435 58.172Z" fill="#E9E9EA"/>
<path d="M66.8603 55.8745C65.8237 55.5376 64.8258 55.0918 63.8833 54.5445C62.8891 54.0964 61.9465 53.5419 61.0718 52.8906C62.1097 53.2239 63.108 53.6698 64.0487 54.2206C65.0429 54.6687 65.9856 55.2232 66.8603 55.8745Z" fill="#E9E9EA"/>
<path d="M68.8687 55.2122C68.1498 53.9803 67.5322 52.6921 67.0219 51.3601C66.4021 50.0741 65.8948 48.7368 65.5059 47.3633C66.2265 48.5943 66.8442 49.8827 67.3527 51.2154C67.9653 52.5045 68.4723 53.8411 68.8687 55.2122Z" fill="#E9E9EA"/>
<path d="M71.9448 50.3164C71.9246 51.1807 71.7879 52.0384 71.5382 52.8661C71.4037 53.7216 71.1509 54.5542 70.7871 55.34C70.8026 54.4758 70.9371 53.6178 71.1868 52.7903C71.3254 51.935 71.5805 51.1026 71.9448 50.3164Z" fill="#E9E9EA"/>
</svg>
