<svg width="91" height="80" viewBox="0 0 91 80" fill="none" xmlns="http://www.w3.org/2000/svg">
<path d="M68.9772 0.125H6.69557C3.10665 0.125 0.197266 3.03439 0.197266 6.6233V68.905C0.197266 72.4939 3.10665 75.4033 6.69557 75.4033H68.9772C72.5662 75.4033 75.4755 72.4939 75.4755 68.905V6.6233C75.4755 3.03439 72.5662 0.125 68.9772 0.125Z" fill="#FAFAFA"/>
<path d="M0.197226 6.62234C0.197226 6.62234 0.197226 6.36737 0.197226 5.87121C0.301175 4.90646 0.620088 3.97727 1.1305 3.15203C1.64092 2.32678 2.32985 1.62645 3.14661 1.10257C3.79706 0.672733 4.52128 0.366693 5.28285 0.199842C6.14006 0.0488792 7.01136 -0.00658943 7.88079 0.0344549L38.9803 0H60.4323H66.3173C67.3165 0 68.3088 0 69.3355 0C70.3757 0.055913 71.3872 0.360777 72.2849 0.888951C73.2153 1.42269 74.0031 2.17314 74.5814 3.07653C75.1597 3.97992 75.5113 5.00955 75.6064 6.07794C75.6685 8.21418 75.6064 10.3366 75.6064 12.5073C75.6064 29.8522 75.6064 48.9199 75.6064 68.9316C75.608 70.2183 75.2373 71.478 74.5392 72.5589C73.841 73.6397 72.8452 74.4956 71.6716 75.0233C71.0929 75.2892 70.4772 75.4658 69.8455 75.547C69.2277 75.6143 68.6059 75.6374 67.9849 75.616H49.9647H22.7518H7.01941C5.99071 75.6516 4.96691 75.4586 4.02178 75.0509C3.10016 74.6434 2.28283 74.0324 1.63117 73.2638C0.979515 72.4952 0.510466 71.5889 0.259246 70.613C0.0613065 69.6642 -0.00822611 68.693 0.0525138 67.7257V64.9072C0.0525138 63.0696 0.0525138 61.2457 0.0525138 59.4357C0.0525138 55.8523 0.0525138 52.4205 0.0525138 49.1404C0.0525138 36.0473 0.100752 25.4143 0.114534 18.0684C0.114534 14.4093 0.114533 11.5633 0.148989 9.62686C0.148989 8.6621 0.148989 7.93165 0.148989 7.4286C0.148989 6.92555 0.148989 6.67747 0.148989 6.67747C0.148989 6.67747 0.148989 6.93244 0.148989 7.4286C0.148989 7.92475 0.148989 8.6621 0.148989 9.62686C0.148989 11.5633 0.148989 14.4093 0.183445 18.0684C0.183445 25.4143 0.2179 36.0266 0.238574 49.1404C0.238574 52.4205 0.238574 55.8523 0.238574 59.4357C0.238574 61.2182 0.238574 63.042 0.238574 64.9072V67.7257C0.185739 68.6678 0.255228 69.6129 0.445306 70.5372C0.68591 71.4686 1.13463 72.3332 1.7577 73.0661C2.38077 73.799 3.16195 74.381 4.04246 74.7683C4.94845 75.1589 5.93013 75.3425 6.91604 75.3059H67.9298C68.5346 75.327 69.1402 75.3063 69.7421 75.2438C70.3372 75.1621 70.9175 74.995 71.4649 74.7477C72.5763 74.248 73.5195 73.4378 74.1809 72.4144C74.8423 71.3911 75.1938 70.1983 75.193 68.9798C75.193 48.9957 75.193 29.9004 75.193 12.5556C75.193 10.3987 75.193 8.23485 75.193 6.15374C75.1041 5.13678 74.7707 4.15637 74.2211 3.29606C73.6716 2.43575 72.9222 1.72105 72.0369 1.21283C71.2097 0.696511 70.2724 0.382509 69.3011 0.296317C68.3019 0.296317 67.2889 0.296317 66.2966 0.296317H60.4116L38.9803 0.254972L7.88079 0.199842C7.0213 0.158293 6.15982 0.206794 5.31042 0.344555C4.57521 0.501729 3.87471 0.791268 3.24309 1.19905C2.23437 1.83172 1.42278 2.73402 0.900118 3.80389C0.466615 4.68217 0.226907 5.64335 0.197226 6.62234Z" fill="#E9E9EA"/>
<path d="M58.8113 21.9922H15.2969V55.9186H58.8113V21.9922Z" fill="#EBEBEB"/>
<path d="M58.8122 55.9216C58.8122 55.9216 58.8122 55.7075 58.8122 55.3099C58.8122 54.9123 58.8122 54.2914 58.8122 53.4993C58.8122 51.9151 58.8122 49.5938 58.8122 46.6302C58.8122 40.7123 58.7908 32.2376 58.7786 22.0043L58.8428 22.0716H15.3315L15.411 21.9921C15.411 34.2255 15.411 45.7923 15.411 55.9216L15.3406 55.8482L46.7653 55.8849L55.6743 55.9032H58.0385H55.6896L46.7959 55.9246L15.3254 55.9583H15.252V55.8879C15.252 45.7586 15.252 34.1919 15.252 21.9584V21.8789H15.3345H58.8459H58.9131V21.9431C58.8979 32.1948 58.8856 40.6817 58.8764 46.6119C58.8764 49.5663 58.8764 51.8845 58.8612 53.4657C58.8612 54.2517 58.8612 54.8511 58.8612 55.2609C58.8612 55.6708 58.8122 55.9216 58.8122 55.9216Z" fill="#FEFEFF"/>
<path d="M14.52 20L10.9814 31.5117H61.9124L59.0345 20H14.52Z" fill="#E9E9EA"/>
<path d="M10.9814 31.5117C11.0054 32.2367 11.3103 32.9239 11.8316 33.4283C12.3529 33.9327 13.0499 34.2146 13.7753 34.2146C14.5006 34.2146 15.1976 33.9327 15.7189 33.4283C16.2402 32.9239 16.5451 32.2367 16.5691 31.5117H10.9814Z" fill="#E9E9EA"/>
<path d="M16.6514 31.5117C16.6514 32.2523 16.9456 32.9625 17.4692 33.4862C17.9929 34.0098 18.7031 34.304 19.4437 34.304C20.1842 34.304 20.8944 34.0098 21.4181 33.4862C21.9418 32.9625 22.2359 32.2523 22.2359 31.5117H16.6514Z" fill="#E9E9EA"/>
<path d="M22.3184 31.5117C22.3184 32.2523 22.6125 32.9625 23.1362 33.4862C23.6599 34.0098 24.3701 34.304 25.1106 34.304C25.8512 34.304 26.5614 34.0098 27.0851 33.4862C27.6087 32.9625 27.9029 32.2523 27.9029 31.5117H22.3184Z" fill="#E9E9EA"/>
<path d="M27.9863 31.5117C28.0103 32.2367 28.3152 32.9239 28.8365 33.4283C29.3578 33.9327 30.0548 34.2146 30.7801 34.2146C31.5055 34.2146 32.2025 33.9327 32.7238 33.4283C33.2451 32.9239 33.55 32.2367 33.574 31.5117H27.9863Z" fill="#E9E9EA"/>
<path d="M33.6543 31.5117C33.6783 32.2367 33.9831 32.9239 34.5045 33.4283C35.0258 33.9327 35.7227 34.2146 36.4481 34.2146C37.1735 34.2146 37.8704 33.9327 38.3918 33.4283C38.9131 32.9239 39.2179 32.2367 39.2419 31.5117H33.6543Z" fill="#E9E9EA"/>
<path d="M39.3242 31.5117C39.3242 32.2523 39.6184 32.9625 40.1421 33.4862C40.6657 34.0098 41.3759 34.304 42.1165 34.304C42.8571 34.304 43.5673 34.0098 44.0909 33.4862C44.6146 32.9625 44.9088 32.2523 44.9088 31.5117H39.3242Z" fill="#E9E9EA"/>
<path d="M44.9902 31.5117C44.9902 32.2523 45.2844 32.9625 45.8081 33.4862C46.3317 34.0098 47.042 34.304 47.7825 34.304C48.5231 34.304 49.2333 34.0098 49.757 33.4862C50.2806 32.9625 50.5748 32.2523 50.5748 31.5117H44.9902Z" fill="#E9E9EA"/>
<path d="M50.6582 31.5117C50.6822 32.2367 50.987 32.9239 51.5084 33.4283C52.0297 33.9327 52.7267 34.2146 53.452 34.2146C54.1774 34.2146 54.8743 33.9327 55.3957 33.4283C55.917 32.9239 56.2218 32.2367 56.2458 31.5117H50.6582Z" fill="#E9E9EA"/>
<path d="M56.3281 31.5117C56.3281 32.2523 56.6223 32.9625 57.146 33.4862C57.6696 34.0098 58.3799 34.304 59.1204 34.304C59.861 34.304 60.5712 34.0098 61.0949 33.4862C61.6185 32.9625 61.9127 32.2523 61.9127 31.5117H56.3281Z" fill="#E9E9EA"/>
<path d="M61.894 31.5365C61.894 31.5794 50.5047 31.6161 36.4607 31.6161C22.4167 31.6161 11.0273 31.5794 11.0273 31.5365C11.0273 31.4937 22.4136 31.457 36.4607 31.457C50.5078 31.457 61.894 31.4907 61.894 31.5365Z" fill="#FEFEFF"/>
<path d="M53.9089 36.2852H44.7246V55.9198H53.9089V36.2852Z" fill="white"/>
<path d="M53.9089 36.2877C53.9116 36.3183 53.9116 36.349 53.9089 36.3795C53.9089 36.4468 53.9089 36.5355 53.9089 36.6547C53.9089 36.9055 53.9089 37.2664 53.9089 37.7313C53.9089 38.6824 53.9089 40.0587 53.9303 41.7897C53.9303 45.2824 53.9518 50.1972 53.967 55.9224V55.9989H44.7277C44.5656 55.8398 44.6819 55.953 44.6452 55.9132V53.1026C44.6452 52.1851 44.6452 51.2676 44.6452 50.3501C44.6452 48.5487 44.6452 46.8116 44.6452 45.1509C44.6452 41.8325 44.6452 38.8292 44.6604 36.2816V36.2266H44.7186L51.447 36.2571H53.2667H53.7377H53.8936H53.7254H53.2453H51.4103L44.7094 36.2877L44.7675 36.2296C44.7675 38.7834 44.7675 41.7867 44.7675 45.0989C44.7675 46.7596 44.7675 48.4967 44.7675 50.2981V55.849C44.7338 55.8154 44.847 55.9347 44.691 55.7756H53.8661L53.7897 55.8521C53.7897 50.1482 53.8172 45.2487 53.8264 41.7836C53.8264 40.0465 53.8264 38.661 53.8478 37.7068C53.8478 37.2358 53.8478 36.8688 53.8478 36.6119C53.8478 36.4926 53.8478 36.4009 53.8478 36.3305C53.8478 36.2602 53.9089 36.2908 53.9089 36.2877Z" fill="#FEFEFF"/>
<path d="M46.8648 44.1172H45.6445V48.0869H46.8648V44.1172Z" fill="#E0E0E0"/>
<path d="M51.5293 40.4883H47.5718C47.2964 40.4883 47.0732 40.7115 47.0732 40.9868V42.4303C47.0732 42.7057 47.2964 42.9289 47.5718 42.9289H51.5293C51.8046 42.9289 52.0278 42.7057 52.0278 42.4303V40.9868C52.0278 40.7115 51.8046 40.4883 51.5293 40.4883Z" fill="#E9E9EA"/>
<path d="M51.5295 42.9267C51.5295 42.9267 51.5784 42.9267 51.6641 42.8931C51.7851 42.849 51.8846 42.7604 51.9424 42.6453C51.992 42.4454 52.0045 42.2381 51.9791 42.0337C51.9791 41.7798 51.9791 41.4954 51.9791 41.1834C52.0023 41.0312 51.972 40.8755 51.8935 40.743C51.8452 40.6793 51.7812 40.6291 51.7078 40.5975C51.6343 40.5658 51.5539 40.5538 51.4745 40.5626H50.2909H47.5812C47.4801 40.563 47.3826 40.5996 47.3062 40.6659C47.2299 40.7321 47.1799 40.8235 47.1652 40.9235C47.1652 41.1345 47.1652 41.3822 47.1652 41.6024V42.4313C47.1657 42.4772 47.1739 42.5227 47.1897 42.5658C47.2197 42.6509 47.2752 42.7246 47.3487 42.7768C47.4224 42.8276 47.51 42.8543 47.5995 42.8533H47.9054H48.4803H49.511L51.0065 42.8778C51.1895 42.8752 51.3724 42.8855 51.554 42.9084C51.3726 42.9332 51.1895 42.9435 51.0065 42.9389L49.511 42.9665H48.4803H47.6056C47.4871 42.9686 47.3708 42.9345 47.2723 42.8686C47.1709 42.7999 47.0946 42.7001 47.0551 42.5842C47.0334 42.5265 47.022 42.4654 47.0215 42.4037V42.2386C47.0215 42.0214 47.0215 41.7982 47.0215 41.5719C47.0215 41.3455 47.0215 41.1253 47.0215 40.8684C47.0413 40.7309 47.1101 40.6051 47.2151 40.5141C47.3201 40.4231 47.4544 40.373 47.5934 40.373H50.3031H51.4867C51.6343 40.3609 51.7807 40.4069 51.8949 40.5011C52.0092 40.5954 52.0821 40.7304 52.0984 40.8776C52.0984 40.9724 52.0984 41.0428 52.0984 41.1253C52.0984 41.4312 52.0984 41.7217 52.0984 41.9756C52.0984 42.0979 52.0984 42.2172 52.0984 42.3242C52.1047 42.4301 52.0825 42.5357 52.0341 42.63C51.9999 42.6925 51.9532 42.7473 51.8969 42.791C51.8406 42.8346 51.7759 42.8663 51.7069 42.8839C51.6545 42.9181 51.5918 42.9333 51.5295 42.9267Z" fill="#FEFEFF"/>
<path d="M50.8774 40.4883C50.7159 40.3485 50.5712 40.1905 50.4462 40.0173L50.0119 39.476L49.7611 39.1701L49.6296 38.9989C49.5776 38.9346 49.5562 38.901 49.5042 38.8857C49.4805 38.8788 49.4554 38.8774 49.4311 38.8816C49.4067 38.8858 49.3836 38.8956 49.3636 38.9102C49.3198 38.9552 49.2817 39.0056 49.2504 39.06L49.018 39.3995L48.6204 39.9622C48.5081 40.1445 48.3735 40.3119 48.2197 40.4608C48.298 40.2622 48.4008 40.0742 48.5256 39.9011L48.8956 39.3169L49.1219 38.9744C49.16 38.9034 49.2096 38.8393 49.2687 38.7848C49.3078 38.7538 49.3539 38.7329 49.403 38.7238C49.452 38.7148 49.5025 38.7178 49.5501 38.7328C49.6364 38.7641 49.7089 38.8247 49.755 38.904L49.8835 39.0753L50.1281 39.4026L50.5349 39.9622C50.6719 40.1216 50.7871 40.2985 50.8774 40.4883Z" fill="#FEFEFF"/>
<path d="M48.0156 41.6469C48.0101 41.5667 48.0288 41.4867 48.0693 41.4173C48.1099 41.3479 48.1703 41.2923 48.2429 41.2577C48.3154 41.2232 48.3967 41.2112 48.4762 41.2234C48.5556 41.2356 48.6295 41.2714 48.6883 41.3262C48.7472 41.381 48.7881 41.4522 48.806 41.5306C48.8238 41.6089 48.8176 41.6908 48.7883 41.7657C48.7589 41.8405 48.7078 41.9048 48.6414 41.9501C48.5751 41.9955 48.4966 42.0199 48.4162 42.02C48.3652 42.0229 48.3141 42.0155 48.266 41.9981C48.2179 41.9807 48.1738 41.9538 48.1363 41.9189C48.0989 41.8841 48.0689 41.842 48.0482 41.7953C48.0274 41.7485 48.0163 41.6981 48.0156 41.6469ZM48.6089 41.6469C48.6065 41.6094 48.5932 41.5734 48.5707 41.5434C48.5481 41.5134 48.5172 41.4906 48.4819 41.4779C48.4465 41.4651 48.4082 41.463 48.3717 41.4718C48.3352 41.4805 48.302 41.4998 48.2763 41.5272C48.2505 41.5545 48.2333 41.5888 48.2269 41.6258C48.2204 41.6628 48.2248 41.7009 48.2397 41.7354C48.2546 41.7699 48.2792 41.7993 48.3106 41.82C48.3419 41.8407 48.3787 41.8518 48.4162 41.8518C48.4426 41.8519 48.4687 41.8465 48.4929 41.8361C48.5171 41.8257 48.5389 41.8104 48.557 41.7911C48.5751 41.7719 48.589 41.7492 48.5979 41.7244C48.6068 41.6996 48.6106 41.6732 48.6089 41.6469Z" fill="white"/>
<path d="M49.5722 41.5512C49.5722 41.7133 49.4468 41.8173 49.2511 41.8173H49.1257V42.0039H48.9238V41.2852H49.2511C49.4468 41.2852 49.5722 41.3861 49.5722 41.5512ZM49.3642 41.5512C49.3642 41.4839 49.3245 41.4442 49.2388 41.4442H49.1257V41.6552H49.2388C49.3245 41.6552 49.3642 41.6185 49.3642 41.5512Z" fill="white"/>
<path d="M50.248 41.8479V42.0039H49.6699V41.2852H50.2327V41.4411H49.8718V41.5635H50.1776V41.7164H49.8718V41.8479H50.248Z" fill="white"/>
<path d="M51.0428 41.2852V42.0039H50.8777L50.5718 41.6216V42.0039H50.373V41.2852H50.5413L50.8471 41.6675V41.2852H51.0428Z" fill="white"/>
<path d="M47.7549 50.1223C48.305 49.2341 48.9001 48.3746 49.5379 47.5471C50.5563 46.1525 51.4127 45.0423 51.4463 45.0668C50.8984 45.9557 50.3042 46.8152 49.6664 47.6419C48.6449 49.0366 47.7885 50.1498 47.7549 50.1223Z" fill="#FEFEFF"/>
<path d="M49.4739 49.6985C49.4403 49.6648 50.0856 48.9645 50.7829 48.0378C51.4802 47.1111 52.0062 46.3159 52.0429 46.3404C51.9756 46.5378 51.8798 46.7243 51.7585 46.894C51.4999 47.3236 51.217 47.7381 50.9114 48.1357C50.6069 48.5332 50.2812 48.914 49.9357 49.2764C49.8018 49.4375 49.6464 49.5795 49.4739 49.6985Z" fill="#FEFEFF"/>
<path d="M20.8811 38.1328H16.6514V39.7782H20.8811V38.1328Z" fill="#F5F5F5"/>
<path d="M18.8422 39.7773H15.374V41.4227H18.8422V39.7773Z" fill="#E0E0E0"/>
<path d="M31.219 50.1367H26.9893V51.7821H31.219V50.1367Z" fill="#F5F5F5"/>
<path d="M42.7024 45.9492H40.6777V47.5946H42.7024V45.9492Z" fill="#E0E0E0"/>
<path d="M57.9399 44.3633H53.9824V46.0087H57.9399V44.3633Z" fill="#E0E0E0"/>
<path d="M41.1556 52.5117H37.1094V54.1571H41.1556V52.5117Z" fill="#E0E0E0"/>
<path d="M20.2122 50.957H16.166V52.6024H20.2122V50.957Z" fill="#F5F5F5"/>
<path d="M44.6244 37.1367H42.4102V38.7821H44.6244V37.1367Z" fill="#F5F5F5"/>
<path d="M28.9434 51.7812H24.7656V53.4267H28.9434V51.7812Z" fill="#E0E0E0"/>
<path d="M40.6786 36.2852H20.8818V50.1334H40.6786V36.2852Z" fill="white"/>
<path d="M40.6788 50.1364C40.6788 50.1364 40.6788 50.0446 40.6788 49.8795C40.6788 49.7143 40.6788 49.4605 40.6788 49.1424C40.6788 48.494 40.6788 47.552 40.6635 46.3471C40.6635 43.9371 40.6421 40.4842 40.6298 36.285L40.6941 36.3493L20.8973 36.3646L20.9768 36.285C20.9768 41.2365 20.9768 45.9372 20.9768 50.1364L20.9065 50.063L35.1646 50.0997L39.2383 50.118H40.324H40.6054H40.7032H40.321H39.2505L35.1951 50.1394L20.8881 50.1731H20.8086V50.1027C20.8086 45.9036 20.8086 41.2029 20.8086 36.2514V36.1719H20.8881L40.6849 36.1872H40.7491V36.2514C40.7491 40.4658 40.7247 43.934 40.7155 46.344C40.7155 47.5429 40.7155 48.4848 40.7155 49.124C40.7155 49.4401 40.7155 49.6817 40.7155 49.8489C40.6818 50.0538 40.6788 50.1364 40.6788 50.1364Z" fill="#FEFEFF"/>
<path d="M30.6621 46.4375C30.7151 46.3395 30.781 46.249 30.8578 46.1683C30.9894 46.0001 31.1881 45.7616 31.4359 45.471C31.9313 44.8899 32.6286 44.0978 33.4177 43.2415C34.2068 42.3851 34.9469 41.6236 35.479 41.0823C35.7482 40.8131 35.9684 40.596 36.1243 40.4492C36.2803 40.3024 36.369 40.2259 36.3782 40.2351C36.3194 40.3288 36.2496 40.415 36.1702 40.492L35.5585 41.1618L33.5339 43.3485L31.5185 45.5475L30.9068 46.2081C30.8347 46.2941 30.7525 46.3711 30.6621 46.4375Z" fill="#FEFEFF"/>
<path d="M27.8639 46.193C27.8333 46.1624 28.9374 45.0186 30.3289 43.6423C31.7205 42.266 32.8735 41.1742 32.9041 41.1956C32.9347 41.217 31.8337 42.367 30.4574 43.7463C29.0811 45.1256 27.8945 46.2236 27.8639 46.193Z" fill="#FEFEFF"/>
<path d="M27.2002 43.6406C27.557 43.1414 27.956 42.6737 28.393 42.2429C28.79 41.7758 29.2259 41.343 29.6958 40.9492C29.3401 41.4474 28.9409 41.913 28.5031 42.3408C28.1078 42.8115 27.6718 43.2464 27.2002 43.6406Z" fill="#FEFEFF"/>
<path d="M16.5696 31.5122C16.5237 31.5122 16.9824 28.9187 17.588 25.7411C18.1936 22.5634 18.7227 19.9913 18.7655 20.0158C18.8083 20.0403 18.3526 22.6062 17.744 25.7869C17.1354 28.9676 16.6124 31.5183 16.5696 31.5122Z" fill="#FEFEFF"/>
<path d="M22.2762 31.5122C22.2334 31.5122 22.6891 28.9187 23.2977 25.7411C23.9063 22.5634 24.4415 19.9913 24.4844 20.0158C24.5272 20.0403 24.0684 22.6062 23.4629 25.7869C22.8573 28.9676 22.3282 31.5183 22.2762 31.5122Z" fill="#FEFEFF"/>
<path d="M28.0047 31.5122C27.9619 31.5122 28.4176 28.9187 29.0232 25.7411C29.6287 22.5634 30.1578 19.9913 30.2006 20.0158C30.2435 20.0403 29.7878 22.6062 29.1791 25.7869C28.5705 28.9676 28.0476 31.5183 28.0047 31.5122Z" fill="#FEFEFF"/>
<path d="M33.7208 31.5127C33.678 31.5127 33.9808 28.9498 34.3998 25.8027C34.8188 22.6556 35.1919 20.1111 35.2347 20.1172C35.2775 20.1233 34.9748 22.677 34.5558 25.8241C34.1368 28.9712 33.7636 31.5188 33.7208 31.5127Z" fill="#FEFEFF"/>
<path d="M39.4392 31.5118C39.3933 31.5118 39.6349 28.952 39.9775 25.8049C40.32 22.6578 40.635 20.1102 40.6778 20.1133C40.7206 20.1163 40.479 22.6731 40.1365 25.8232C39.794 28.9734 39.482 31.5149 39.4392 31.5118Z" fill="#FEFEFF"/>
<path d="M45.1555 31.5118C45.1127 31.5118 45.2442 28.955 45.4614 25.808C45.6785 22.6609 45.8681 20.1133 45.914 20.1133C45.9599 20.1133 45.8253 22.6701 45.6082 25.8171C45.391 28.9642 45.2136 31.5149 45.1555 31.5118Z" fill="#FEFEFF"/>
<path d="M50.8748 31.5116C50.8289 31.5116 50.6576 28.9701 50.4863 25.8292C50.3151 22.6882 50.2172 20.1406 50.26 20.1406C50.3028 20.1406 50.4772 22.6821 50.6454 25.82C50.8136 28.9579 50.9176 31.5086 50.8748 31.5116Z" fill="#FEFEFF"/>
<path d="M56.5908 31.5116C56.548 31.5116 56.0556 28.9793 55.4928 25.8384C54.9301 22.6974 54.508 20.1468 54.5508 20.1406C54.5937 20.1345 55.0861 22.6699 55.6488 25.8108C56.2115 28.9518 56.6336 31.5025 56.5908 31.5116Z" fill="#FEFEFF"/>
<path d="M66.0751 55.9194C66.0751 55.9622 53.5205 55.9989 38.0391 55.9989C22.5576 55.9989 10 55.9622 10 55.9194C10 55.8765 22.5393 55.8398 38.0391 55.8398C53.5389 55.8398 66.0751 55.8735 66.0751 55.9194Z" fill="#FEFEFF"/>
<path d="M68.7646 57.1914C68.7646 57.1914 71.7071 76.8172 72.0793 76.5692C72.4514 76.3211 77.475 71.6627 77.475 71.6627L85.6892 80.0009L90.9677 74.7292L82.7467 66.5151L87.9012 61.6086L68.7646 57.1914Z" fill="#E9E9EA"/>
<path d="M67.4425 58.172C66.2319 58.5213 64.9903 58.7521 63.7351 58.8611C62.4988 59.09 61.2436 59.2007 59.9863 59.1919C61.1956 58.847 62.4345 58.6163 63.6868 58.5028C64.926 58.2781 66.1831 58.1674 67.4425 58.172Z" fill="#E9E9EA"/>
<path d="M66.8588 55.8745C65.8223 55.5376 64.8244 55.0918 63.8819 54.5445C62.8877 54.0964 61.945 53.5419 61.0703 52.8906C62.1082 53.2239 63.1065 53.6698 64.0473 54.2206C65.0415 54.6687 65.9841 55.2232 66.8588 55.8745Z" fill="#E9E9EA"/>
<path d="M68.8677 55.2122C68.1488 53.9803 67.5312 52.6921 67.0209 51.3601C66.4011 50.0741 65.8938 48.7368 65.5049 47.3633C66.2255 48.5943 66.8432 49.8827 67.3517 51.2154C67.9643 52.5045 68.4713 53.8411 68.8677 55.2122Z" fill="#E9E9EA"/>
<path d="M71.9438 50.3164C71.9237 51.1807 71.7869 52.0384 71.5373 52.8661C71.4027 53.7216 71.1499 54.5542 70.7861 55.34C70.8017 54.4758 70.9362 53.6178 71.1858 52.7903C71.3244 51.935 71.5795 51.1026 71.9438 50.3164Z" fill="#E9E9EA"/>
</svg>
