<svg width="132" height="80" viewBox="0 0 132 80" fill="none" xmlns="http://www.w3.org/2000/svg">
<g clip-path="url(#clip0_8880_217234)">
<path d="M79.9644 9.37075C80.2033 10.9826 79.9585 12.6291 79.261 14.1017C78.5635 15.5743 77.4447 16.8067 76.0462 17.643C74.6477 18.4793 73.0325 18.8817 71.4052 18.7993C69.7778 18.7169 68.2115 18.1534 66.9046 17.1802C65.5977 16.207 64.6091 14.8678 64.0639 13.3323C63.5186 11.7968 63.4414 10.134 63.8419 8.55457C64.2424 6.97511 65.1026 5.55004 66.3136 4.45983C67.5246 3.36961 69.0319 2.66332 70.6446 2.43038C71.7122 2.2741 72.8002 2.32965 73.8464 2.59386C74.8926 2.85808 75.8765 3.32578 76.742 3.97026C77.6074 4.61474 78.3374 5.42337 78.8903 6.34999C79.4432 7.27661 79.8082 8.30307 79.9644 9.37075Z" fill="#F5F5F5"/>
<path d="M78.0277 9.65383C78.2087 10.8817 78.0215 12.1356 77.4895 13.257C76.9576 14.3784 76.1049 15.3167 75.0395 15.9532C73.974 16.5898 72.7436 16.8959 71.5041 16.8328C70.2646 16.7697 69.0716 16.3403 68.0762 15.599C67.0809 14.8576 66.3279 13.8376 65.9125 12.668C65.4971 11.4984 65.438 10.2319 65.7428 9.02882C66.0476 7.82569 66.7024 6.74002 67.6245 5.90925C68.5466 5.07847 69.6944 4.53994 70.9227 4.36183C72.5663 4.12348 74.2374 4.54676 75.5693 5.53884C76.9013 6.53092 77.7854 8.01078 78.0277 9.65383Z" fill="#EBEBEB"/>
<path d="M77.9986 9.46113C77.9614 9.46113 77.8947 9.19849 77.7262 8.73789C77.4902 8.09126 77.1556 7.48499 76.7344 6.94057C76.4456 6.56989 76.117 6.23205 75.7544 5.93313C75.3351 5.59348 74.874 5.30893 74.3824 5.08641C74.1178 4.9653 73.8446 4.86376 73.5651 4.78261C72.9718 4.61029 72.356 4.52835 71.7384 4.53957C71.0916 4.55206 70.4507 4.66582 69.8391 4.87669C69.5427 4.97979 69.2545 5.10493 68.9767 5.25105C68.7085 5.39163 68.4516 5.55283 68.2084 5.73321C67.9733 5.9047 67.7518 6.09407 67.5459 6.29965C66.8224 7.00768 66.2839 7.88267 65.9779 8.84765C65.7694 9.50363 65.6636 10.1879 65.6643 10.8762C65.6643 11.3682 65.6957 11.6426 65.6643 11.6485C65.633 11.6544 65.5428 11.3898 65.484 10.888C65.4087 10.172 65.4672 9.4482 65.6565 8.75357C65.7842 8.27474 65.967 7.81236 66.2014 7.37569C66.4798 6.8738 66.8253 6.41221 67.2284 6.00369C67.4457 5.77914 67.6803 5.57205 67.9301 5.38433C68.1891 5.18549 68.4637 5.00786 68.7513 4.85317C69.0489 4.69154 69.3589 4.55391 69.6784 4.44157C70.008 4.32883 70.3453 4.2404 70.6878 4.17697C71.0318 4.1183 71.3797 4.08554 71.7286 4.07897C72.0669 4.07337 72.4052 4.09566 72.7399 4.14561C73.0628 4.1913 73.3814 4.26341 73.6925 4.36121C73.9914 4.44546 74.2831 4.55361 74.5647 4.68461C75.5415 5.14842 76.3825 5.8558 77.0068 6.73869C77.4212 7.32615 77.7229 7.98543 77.8967 8.68301C78.0221 9.17497 78.026 9.45721 77.9986 9.46113Z" fill="#E0E0E0"/>
<path d="M73.0633 14.151L73.2358 15.231L72.2715 15.3838L72.1049 14.3352C71.1425 14.4293 70.1782 14.2784 69.5824 13.9432L69.9254 12.683C70.539 12.9843 71.2209 13.1195 71.903 13.075L71.6443 11.4678C70.5349 11.3796 69.2825 11.213 69.063 9.83705C68.9003 8.81589 69.5001 7.82021 70.9936 7.40469L70.8231 6.33453L71.7854 6.17969L71.954 7.23025C72.6488 7.15828 73.3508 7.25233 74.0022 7.50465L73.7101 8.76689C73.2155 8.57589 72.6878 8.48528 72.1578 8.50033L72.4205 10.1389C73.5279 10.2173 74.7607 10.3858 74.9783 11.7441C75.139 12.7437 74.5451 13.7276 73.0633 14.151ZM71.4287 10.0507L71.2092 8.67869C70.7172 8.87469 70.5604 9.18829 70.6114 9.50581C70.6623 9.82333 70.972 9.98405 71.4287 10.0507ZM73.4553 12.1048C73.4024 11.7676 73.0927 11.6304 72.6557 11.552L72.8693 12.8809C73.324 12.6986 73.4945 12.4144 73.4455 12.1048H73.4553Z" fill="#E0E0E0"/>
<path d="M53.2789 58.067L15.9233 46.4403C15.4622 46.2968 15.0771 45.976 14.8525 45.5485C14.6279 45.1211 14.5823 44.6219 14.7258 44.1608L21.9092 21.0896C21.9795 20.8604 22.0946 20.6473 22.2476 20.4627C22.4007 20.2781 22.5887 20.1256 22.8009 20.0139C23.0131 19.9023 23.2453 19.8337 23.4842 19.8121C23.723 19.7905 23.9638 19.8163 24.1926 19.8881L61.5502 31.5168C62.0107 31.6603 62.3954 31.9809 62.6196 32.408C62.8439 32.8351 62.8892 33.3338 62.7458 33.7944L55.5526 56.8714C55.4095 57.3314 55.0896 57.7157 54.6633 57.9399C54.2369 58.1641 53.739 58.2098 53.2789 58.067Z" fill="#FAFAFA"/>
<path d="M55.3431 36.3691C55.1694 36.9265 54.8343 37.4198 54.3802 37.7867C53.9262 38.1536 53.3735 38.3776 52.7922 38.4305C52.2108 38.4833 51.6268 38.3626 51.114 38.0835C50.6013 37.8045 50.1828 37.3796 49.9114 36.8627C49.6401 36.3458 49.5281 35.7601 49.5897 35.1796C49.6513 34.5991 49.8836 34.0498 50.2572 33.6013C50.6309 33.1528 51.1292 32.8252 51.6891 32.6599C52.249 32.4946 52.8453 32.499 53.4027 32.6726C53.773 32.7876 54.1169 32.9745 54.4149 33.2227C54.7129 33.4708 54.9591 33.7752 55.1393 34.1185C55.3195 34.4619 55.4303 34.8374 55.4652 35.2235C55.5002 35.6097 55.4587 35.999 55.3431 36.3691Z" fill="white"/>
<path d="M55.5525 39.5949C55.3711 39.5711 55.1921 39.5318 55.0174 39.4773C54.2724 39.2414 53.6471 38.7273 53.2715 38.0419C52.896 37.3566 52.7991 36.5529 53.0012 35.798C53.2032 35.0431 53.6886 34.3952 54.3562 33.989C55.0239 33.5829 55.8224 33.4499 56.5857 33.6177C57.349 33.7854 58.0181 34.241 58.454 34.8896C58.8898 35.5383 59.0588 36.33 58.9257 37.1001C58.7926 37.8701 58.3676 38.5592 57.7393 39.0239C57.111 39.4886 56.3278 39.6931 55.5525 39.5949ZM56.2836 33.7345C55.7489 33.6675 55.2062 33.7543 54.7192 33.9849C54.2322 34.2155 53.8211 34.5802 53.5341 35.0363C53.2471 35.4924 53.0962 36.0208 53.099 36.5597C53.1019 37.0985 53.2584 37.6254 53.5502 38.0784C53.842 38.5314 54.2569 38.8917 54.7464 39.1171C55.2358 39.3426 55.7794 39.4237 56.3133 39.351C56.8472 39.2783 57.3493 39.0548 57.7606 38.7067C58.172 38.3587 58.4755 37.9005 58.6356 37.386C58.8582 36.6689 58.7871 35.8927 58.438 35.228C58.0889 34.5632 57.4903 34.0641 56.7736 33.8403C56.6102 33.7912 56.443 33.7558 56.2738 33.7345H56.2836Z" fill="white"/>
<path d="M20.7782 37.4657L20.0765 39.7314L19.8433 39.6589L20.4842 37.6009L19.9511 37.4343L20.0157 37.2266L20.7782 37.4657Z" fill="white"/>
<path d="M22.4677 40.2492L22.403 40.457L20.8135 39.9611L20.8664 39.7965L22.0953 39.1673C22.4285 38.9929 22.5246 38.8557 22.5736 38.7008C22.6559 38.4382 22.5206 38.2187 22.1816 38.1128C22.0682 38.0699 21.9465 38.0531 21.8257 38.0636C21.705 38.0742 21.5881 38.1117 21.4838 38.1736L21.3623 37.9776C21.4982 37.8996 21.6496 37.8524 21.8057 37.8395C21.9619 37.8267 22.119 37.8484 22.2658 37.9031C22.7264 38.0462 22.946 38.3716 22.8284 38.7498C22.7598 38.9674 22.6324 39.1418 22.2404 39.3378L21.2329 39.8553L22.4677 40.2492Z" fill="white"/>
<path d="M24.9766 40.6043L24.5219 40.4652L24.3377 41.0532L24.1044 40.9787L24.2887 40.3907L23.0107 39.9987L23.0617 39.8301L24.7316 38.7031L24.9903 38.7835L23.3753 39.885L24.3553 40.1927L24.518 39.6674L24.7434 39.738L24.5807 40.2633L25.0335 40.4044L24.9766 40.6043Z" fill="white"/>
<path d="M28.4498 41.6844L27.997 41.5433L27.8108 42.1313L27.5776 42.0588L27.7638 41.4708L26.4839 41.0788L26.5368 40.9102L28.2048 39.7812L28.4635 39.8616L26.8504 40.9651L27.8304 41.2708L27.9931 40.7475L28.2204 40.8181L28.0558 41.3414L28.5105 41.4825L28.4498 41.6844Z" fill="white"/>
<path d="M30.4529 42.2337C30.3334 42.6257 29.9708 42.8373 29.4161 42.6649C29.1148 42.5822 28.8567 42.3872 28.6948 42.12L28.8653 41.971C28.9991 42.2048 29.2194 42.3766 29.4788 42.4493C29.8708 42.5708 30.1276 42.4493 30.2138 42.1709C30.3001 41.8926 30.1785 41.6417 29.6023 41.4614L29.1201 41.3125L29.5905 40.2109L30.8312 40.6029L30.7665 40.8107L29.7297 40.4873L29.4279 41.187L29.7199 41.2772C30.402 41.481 30.5784 41.8338 30.4529 42.2337Z" fill="white"/>
<path d="M32.6952 42.9153C32.5639 43.3406 32.1464 43.5033 31.7152 43.3719C31.1135 43.1759 30.9156 42.6644 31.139 41.949C31.3781 41.1787 31.923 40.9063 32.5404 41.0983C32.7294 41.1486 32.9013 41.2488 33.0382 41.3884L32.8873 41.5472C32.7774 41.429 32.6359 41.3446 32.4796 41.3041C31.9916 41.1513 31.578 41.3688 31.3879 41.9843C31.3682 42.0454 31.3519 42.1076 31.3389 42.1705C31.4433 42.0655 31.576 41.9932 31.7209 41.9626C31.8657 41.9319 32.0163 41.9442 32.1543 41.998C32.5933 42.1391 32.8168 42.5017 32.6952 42.9153ZM32.464 42.8467C32.5561 42.5487 32.3954 42.29 32.0465 42.1803C31.6976 42.0705 31.3977 42.2136 31.3095 42.4939C31.2311 42.7447 31.3664 43.0446 31.7564 43.1661C31.8234 43.196 31.8959 43.2114 31.9692 43.2113C32.0426 43.2111 32.1151 43.1954 32.1819 43.1652C32.2487 43.1351 32.3084 43.0911 32.357 43.0362C32.4057 42.9813 32.4421 42.9167 32.464 42.8467Z" fill="white"/>
<path d="M35.7898 43.9136C35.6703 44.2919 35.3057 44.5016 34.7589 44.3271C34.4566 44.2445 34.1972 44.0496 34.0337 43.7823L34.2042 43.6333C34.3395 43.8694 34.563 44.0421 34.8255 44.1135C35.1999 44.2311 35.4625 44.1135 35.5488 43.8391C35.635 43.5647 35.4978 43.3295 35.0784 43.1982L34.9157 43.1472L34.9686 42.9767L35.8428 42.3887L34.6825 42.0281L34.7471 41.8203L36.2054 42.275L36.1525 42.4397L35.2607 43.0473C35.7389 43.2197 35.9016 43.551 35.7898 43.9136Z" fill="white"/>
<path d="M38.0693 44.5952C37.938 45.0185 37.5205 45.1832 37.0795 45.0499C36.4778 44.8539 36.2798 44.3423 36.5033 43.6269C36.7424 42.8566 37.2873 42.5862 37.9047 42.7782C38.0937 42.8282 38.2658 42.9285 38.4025 43.0683L38.2516 43.2271C38.1418 43.1082 38.0004 43.0232 37.8439 42.9821C37.3539 42.8312 36.9423 43.0468 36.7522 43.6622C36.7323 43.7266 36.7159 43.792 36.7032 43.8582C36.807 43.753 36.9393 43.6805 37.0838 43.6495C37.2283 43.6185 37.3787 43.6304 37.5166 43.6838C37.9674 43.817 38.1987 44.1796 38.0693 44.5952ZM37.838 44.5285C37.9301 44.2326 37.7694 43.9719 37.4205 43.8641C37.0717 43.7563 36.7718 43.8954 36.6836 44.1777C36.6052 44.4266 36.7384 44.7265 37.1304 44.85C37.1975 44.8798 37.2702 44.8951 37.3437 44.8948C37.4171 44.8946 37.4896 44.8787 37.5565 44.8483C37.6234 44.818 37.683 44.7738 37.7316 44.7186C37.7801 44.6635 37.8164 44.5987 37.838 44.5285Z" fill="white"/>
<path d="M40.6566 43.6483L40.6037 43.8129L39.0024 45.6201L38.7495 45.5397L40.3175 43.7757L39.1533 43.4131L39.02 43.8365L38.7907 43.7639L38.9867 43.1328L40.6566 43.6483Z" fill="white"/>
<path d="M43.8905 44.66L43.8395 44.8266L42.2362 46.6318L41.9834 46.5534L43.5514 44.7894L42.3754 44.4268L42.2441 44.8521L42.0128 44.7796L42.2088 44.1484L43.8905 44.66Z" fill="white"/>
<path d="M45.6115 46.9888C45.486 47.3906 45.0686 47.5337 44.5276 47.3652C43.9866 47.1966 43.7318 46.8438 43.8573 46.442C43.8951 46.3125 43.9763 46.1999 44.0873 46.1232C44.1983 46.0465 44.3323 46.0102 44.4668 46.0206C44.3726 45.9539 44.3025 45.8585 44.2671 45.7485C44.2318 45.6386 44.2331 45.5202 44.2708 45.4111C44.3845 45.0426 44.7706 44.9113 45.2508 45.0602C45.731 45.2092 45.978 45.5385 45.8643 45.9069C45.8326 46.0201 45.7646 46.1197 45.6708 46.1906C45.5769 46.2614 45.4625 46.2994 45.3449 46.2989C45.4616 46.366 45.5517 46.4712 45.6003 46.5967C45.6488 46.7223 45.6527 46.8607 45.6115 46.9888ZM45.3743 46.9105C45.4606 46.6321 45.2744 46.3832 44.8726 46.2578C44.4708 46.1323 44.1807 46.2343 44.0886 46.5126C43.9964 46.7909 44.1826 47.0437 44.5844 47.1672C44.9862 47.2907 45.2861 47.1927 45.3743 46.9105ZM44.9314 46.0735C45.2842 46.1833 45.5429 46.0892 45.6193 45.8442C45.6958 45.5992 45.5252 45.364 45.1842 45.2562C44.8432 45.1484 44.5766 45.2366 44.4982 45.4895C44.4198 45.7423 44.5766 45.9638 44.9314 46.0735Z" fill="white"/>
<path d="M47.9754 47.1623C47.7363 47.9326 47.1914 48.2031 46.574 48.011C46.3847 47.9614 46.2126 47.8611 46.0762 47.7209L46.2271 47.5622C46.3362 47.6814 46.478 47.766 46.6348 47.8052C47.1228 47.9581 47.5364 47.7425 47.7265 47.127C47.7441 47.0741 47.7598 47.0094 47.7755 46.931C47.6711 47.036 47.5384 47.1083 47.3935 47.1389C47.2487 47.1695 47.0981 47.1573 46.9601 47.1035C46.5113 46.9644 46.28 46.5998 46.4094 46.1862C46.5387 45.7727 46.9582 45.5982 47.3894 45.7315C48.0009 45.9177 48.1989 46.4371 47.9754 47.1623ZM47.7951 46.6116C47.8735 46.3626 47.7383 46.0608 47.3482 45.9393C47.2812 45.9097 47.2087 45.8946 47.1355 45.8949C47.0622 45.8952 46.9899 45.9109 46.9231 45.9411C46.8564 45.9712 46.7967 46.0151 46.748 46.0698C46.6994 46.1246 46.6628 46.1889 46.6407 46.2588C46.5466 46.5567 46.7073 46.8174 47.0581 46.9252C47.409 47.033 47.7128 46.886 47.7951 46.6037V46.6116Z" fill="white"/>
<path d="M50.621 46.7547L49.9154 49.0225L49.6821 48.9499L50.3231 46.89L49.788 46.7234L49.8527 46.5156L50.621 46.7547Z" fill="white"/>
<path d="M52.3107 49.5391L52.2461 49.7468L50.6526 49.251L50.7035 49.0863L51.9325 48.4572C52.2676 48.2847 52.3637 48.1475 52.4127 47.9907C52.493 47.73 52.3598 47.5105 52.0207 47.4027C51.9074 47.3596 51.7859 47.3425 51.6651 47.3527C51.5443 47.3629 51.4274 47.4001 51.3229 47.4615L51.2033 47.2655C51.3394 47.1877 51.4909 47.141 51.647 47.1284C51.8032 47.1159 51.9602 47.1379 52.1069 47.193C52.5656 47.336 52.7851 47.6594 52.6675 48.0377C52.5989 48.2553 52.4715 48.4297 52.0795 48.6257L51.074 49.1432L52.3107 49.5391Z" fill="white"/>
<path d="M54.4822 49.7261C54.3646 50.1044 53.9981 50.3141 53.4493 50.1396C53.1482 50.0556 52.8899 49.861 52.7261 49.5948L52.8966 49.4458C53.0328 49.6803 53.2549 49.8526 53.516 49.926C53.8923 50.0436 54.1549 49.926 54.2412 49.6516C54.3274 49.3772 54.1902 49.142 53.7708 49.0107L53.6081 48.9597L53.661 48.7892L54.5352 48.2012L53.3748 47.8406L53.4395 47.6328L54.8978 48.0856L54.8468 48.2522L53.953 48.8578C54.4313 49.0323 54.594 49.3635 54.4822 49.7261Z" fill="white"/>
<path d="M36.3518 46.6406L36.0454 47.625L54.2002 53.2761L54.5066 52.2917L36.3518 46.6406Z" fill="white"/>
<path d="M44.5838 51.3594L44.2773 52.3438L53.5896 55.2424L53.896 54.258L44.5838 51.3594Z" fill="white"/>
<g opacity="0.5">
<path d="M28.4663 31.4732L22.7041 29.6796C22.1915 29.52 21.6465 29.8062 21.4869 30.3189L20.2933 34.1534C20.1338 34.6661 20.42 35.211 20.9326 35.3706L26.6948 37.1642C27.2074 37.3238 27.7524 37.0375 27.9119 36.5249L29.1056 32.6903C29.2651 32.1777 28.9789 31.6327 28.4663 31.4732Z" fill="#EBEBEB"/>
</g>
<path d="M20.494 33.5044L20.6077 33.1399L24.5277 34.3609C24.6365 34.3979 24.7515 34.4128 24.8661 34.4046C24.9807 34.3964 25.0925 34.3654 25.1949 34.3133C25.2972 34.2612 25.3882 34.1892 25.4623 34.1014C25.5364 34.0136 25.5922 33.9119 25.6263 33.8022C25.6605 33.6925 25.6723 33.5771 25.6612 33.4628C25.65 33.3485 25.6161 33.2375 25.5614 33.1365C25.5066 33.0355 25.4323 32.9465 25.3426 32.8747C25.2529 32.8029 25.1498 32.7498 25.0393 32.7185L21.1193 31.4974L21.2329 31.1328L25.1529 32.3539C25.3134 32.3984 25.4632 32.4747 25.5936 32.5782C25.724 32.6817 25.8322 32.8104 25.9119 32.9565C25.9916 33.1027 26.0411 33.2634 26.0575 33.4291C26.0738 33.5948 26.0568 33.762 26.0072 33.921C25.9577 34.0799 25.8768 34.2273 25.7692 34.3543C25.6616 34.4814 25.5296 34.5855 25.381 34.6606C25.2324 34.7356 25.0702 34.78 24.9041 34.7912C24.738 34.8023 24.5713 34.78 24.414 34.7255L20.494 33.5044Z" fill="#E0E0E0"/>
<path d="M25.7245 33.9025L25.6099 34.2656L28.2893 35.1118L28.4039 34.7487L25.7245 33.9025Z" fill="#E0E0E0"/>
<path d="M43.7268 31.0829L24.1348 24.9844L23.6117 26.6649L43.2037 32.7634L43.7268 31.0829Z" fill="white"/>
<path d="M30.2154 69.0138C30.366 70.0325 30.211 71.0729 29.7701 72.0034C29.3291 72.9339 28.622 73.7126 27.7383 74.2411C26.8545 74.7696 25.8338 75.024 24.8054 74.9721C23.7771 74.9202 22.7872 74.5644 21.9611 73.9497C21.135 73.335 20.5098 72.4891 20.1647 71.5189C19.8196 70.5488 19.7701 69.4981 20.0224 68.4998C20.2747 67.5014 20.8176 66.6004 21.5822 65.9108C22.3468 65.2211 23.2988 64.7738 24.3178 64.6254C24.9932 64.5263 25.6815 64.5612 26.3434 64.7281C27.0053 64.895 27.6279 65.1906 28.1755 65.5981C28.7232 66.0056 29.1852 66.517 29.5352 67.1031C29.8852 67.6892 30.1163 68.3384 30.2154 69.0138Z" fill="#F5F5F5"/>
<path d="M28.9907 69.1918C29.1055 69.9684 28.9873 70.7617 28.6511 71.4711C28.3148 72.1805 27.7757 72.7742 27.1019 73.177C26.428 73.5798 25.6499 73.7736 24.8658 73.734C24.0818 73.6943 23.3271 73.4229 22.6974 72.9541C22.0677 72.4853 21.5912 71.8402 21.3283 71.1005C21.0654 70.3608 21.0279 69.5597 21.2205 68.7987C21.4131 68.0376 21.8272 67.3508 22.4104 66.8252C22.9935 66.2996 23.7195 65.9589 24.4964 65.8461C25.5359 65.6947 26.593 65.962 27.4357 66.5893C28.2783 67.2165 28.8376 68.1526 28.9907 69.1918Z" fill="#EBEBEB"/>
<path d="M28.9712 69.0709C28.8979 68.9251 28.8401 68.772 28.7987 68.6142C28.6492 68.2053 28.4377 67.8219 28.1715 67.4774C27.6648 66.8189 26.962 66.3385 26.1645 66.1054C25.9812 66.0504 25.7937 66.0104 25.6039 65.9858C25.4091 65.9595 25.2125 65.9477 25.0159 65.9506C24.8116 65.9566 24.608 65.9763 24.4063 66.0094C24.207 66.0475 24.0106 66.0992 23.8183 66.1642C23.6309 66.2292 23.4488 66.3085 23.2735 66.4014C22.9414 66.5776 22.6365 66.8007 22.368 67.0638C22.1242 67.3025 21.9127 67.572 21.7388 67.8655C21.5873 68.1224 21.4644 68.3952 21.3723 68.6789C21.2416 69.0936 21.1755 69.5259 21.1763 69.9607C21.1949 70.1235 21.1949 70.2879 21.1763 70.4507C21.1058 70.2995 21.0671 70.1354 21.0626 69.9686C21.0166 69.5155 21.0538 69.0578 21.1723 68.6181C21.2561 68.3129 21.3745 68.0183 21.5252 67.7401C21.7018 67.4208 21.9207 67.1267 22.1759 66.8659C22.3129 66.7237 22.4611 66.5927 22.6188 66.4739C22.783 66.3489 22.9567 66.2369 23.1382 66.1387C23.3272 66.0374 23.5238 65.9509 23.7262 65.88C23.9349 65.8085 24.1484 65.7521 24.3652 65.7114C24.5828 65.6742 24.803 65.6532 25.0238 65.6487C25.2375 65.6462 25.4512 65.6606 25.6627 65.6918C25.8673 65.7205 26.0692 65.7657 26.2664 65.8271C26.4551 65.885 26.6393 65.9571 26.8171 66.0427C27.435 66.336 27.9669 66.7836 28.3616 67.3422C28.625 67.7134 28.8177 68.13 28.93 68.5711C28.9799 68.7327 28.9939 68.9033 28.9712 69.0709Z" fill="#E0E0E0"/>
<path d="M25.8487 72.0353L25.9585 72.7173L25.3489 72.8153L25.2431 72.1509C24.6996 72.2212 24.1474 72.137 23.6496 71.9079L23.8652 71.1101C24.254 71.2979 24.6849 71.3816 25.1157 71.3532L24.953 70.3359C24.2494 70.2811 23.4595 70.1772 23.3203 69.305C23.2165 68.6601 23.5967 68.031 24.5414 67.7664L24.4336 67.0902L25.0412 66.9922L25.149 67.6566C25.5886 67.6115 26.0326 67.6713 26.4446 67.8311L26.2603 68.6288C25.948 68.5083 25.6149 68.451 25.2803 68.4602L25.4469 69.4971C26.1486 69.5461 26.9267 69.6539 27.0639 70.5123C27.1619 71.1454 26.7876 71.7667 25.8487 72.0353ZM24.8099 69.4422L24.6708 68.5759C24.3591 68.7013 24.2592 68.8993 24.2925 69.0992C24.3258 69.2991 24.5277 69.3991 24.8099 69.4422ZM26.0918 70.7417C26.0585 70.528 25.8625 70.4418 25.5861 70.3908L25.7213 71.2317C26.0153 71.116 26.1231 70.9357 26.0918 70.7417Z" fill="#E0E0E0"/>
<path d="M65.3528 60.593L35.0159 28.5039C34.8627 28.3412 34.7802 28.1245 34.7865 27.9012C34.7927 27.6778 34.8872 27.4661 35.0492 27.3122L54.9648 8.48836C55.0452 8.41228 55.1398 8.35279 55.2432 8.31329C55.3466 8.27379 55.4568 8.25505 55.5675 8.25814C55.6782 8.26124 55.7871 8.2861 55.8882 8.33132C55.9892 8.37654 56.0804 8.44122 56.1564 8.52168L86.4914 40.6128C86.6445 40.7754 86.727 40.9921 86.7208 41.2155C86.7145 41.4388 86.6201 41.6506 86.458 41.8044L66.5464 60.6204C66.4664 60.6974 66.372 60.7578 66.2686 60.7981C66.1652 60.8385 66.0548 60.8579 65.9439 60.8554C65.8329 60.8528 65.7235 60.8283 65.6221 60.7833C65.5206 60.7383 65.4291 60.6736 65.3528 60.593Z" fill="#E9E9EA"/>
<g opacity="0.3">
<path d="M65.3528 60.593L35.0159 28.5039C34.8627 28.3412 34.7802 28.1245 34.7865 27.9012C34.7927 27.6778 34.8872 27.4661 35.0492 27.3122L54.9648 8.48836C55.0452 8.41228 55.1398 8.35279 55.2432 8.31329C55.3466 8.27379 55.4568 8.25505 55.5675 8.25814C55.6782 8.26124 55.7871 8.2861 55.8882 8.33132C55.9892 8.37654 56.0804 8.44122 56.1564 8.52168L86.4914 40.6128C86.6445 40.7754 86.727 40.9921 86.7208 41.2155C86.7145 41.4388 86.6201 41.6506 86.458 41.8044L66.5464 60.6204C66.4664 60.6974 66.372 60.7578 66.2686 60.7981C66.1652 60.8385 66.0548 60.8579 65.9439 60.8554C65.8329 60.8528 65.7235 60.8283 65.6221 60.7833C65.5206 60.7383 65.4291 60.6736 65.3528 60.593Z" fill="black" fill-opacity="0.2"/>
</g>
<path d="M86.2679 40.3774L56.3739 8.75675C56.2689 8.64522 56.1429 8.55551 56.0032 8.49276C55.8634 8.43002 55.7127 8.39547 55.5595 8.3911C55.4064 8.38673 55.2539 8.41262 55.1108 8.4673C54.9677 8.52197 54.8368 8.60435 54.7256 8.70971L49.069 14.0586C49.0131 14.1108 48.9709 14.1761 48.9463 14.2486C48.9217 14.3211 48.9154 14.3985 48.9279 14.4741C49.4943 17.6375 51.7562 20.4658 54.4531 22.3396C57.7107 24.6034 61.5719 25.797 65.2331 27.3082C68.8944 28.8193 72.5851 30.8107 74.7862 34.1133C76.8618 37.2316 77.3518 41.0987 78.4083 44.6973C78.6955 45.6749 79.0545 46.6301 79.4823 47.555C79.5135 47.6221 79.5602 47.6809 79.6185 47.7266C79.6768 47.7722 79.745 47.8034 79.8177 47.8176C79.8904 47.8317 79.9654 47.8285 80.0366 47.808C80.1077 47.7876 80.1731 47.7506 80.2271 47.7L86.2228 42.0317C86.3351 41.9264 86.4254 41.8 86.4885 41.6596C86.5516 41.5193 86.5862 41.3678 86.5904 41.214C86.5946 41.0601 86.5682 40.907 86.5129 40.7634C86.4575 40.6198 86.3742 40.4886 86.2679 40.3774Z" fill="#E9E9EA"/>
<path d="M55.933 17.9619C55.6625 18.2187 55.3019 18.1579 54.9138 17.7404L54.1494 16.931L55.7174 15.4531L56.4387 16.2175C56.8091 16.6095 56.8307 16.9643 56.5935 17.1975C56.5239 17.2666 56.436 17.3143 56.3402 17.3351C56.2444 17.3559 56.1446 17.349 56.0526 17.3151C56.1078 17.4208 56.1261 17.5419 56.1044 17.6592C56.0828 17.7764 56.0224 17.883 55.933 17.9619ZM55.7801 16.0705L55.4117 16.4194L55.7488 16.7859C55.9154 16.9623 56.0683 16.9996 56.1917 16.8839C56.3152 16.7683 56.2839 16.6154 56.1173 16.439L55.7801 16.0705ZM55.6253 17.5621C55.7566 17.4386 55.7253 17.2779 55.5469 17.0897L55.1549 16.6683L54.7629 17.0329L55.1549 17.4562C55.3391 17.6444 55.492 17.6895 55.6253 17.5699V17.5621Z" fill="white"/>
<path d="M57.0736 19.3517L56.3857 18.6245L55.9192 18.8029L55.5703 18.4324L57.793 17.6484L58.1301 18.0071L57.2285 20.1847L56.8678 19.8044L57.0736 19.3517ZM57.2402 18.9773L57.6048 18.1639L56.7718 18.4814L57.2402 18.9773Z" fill="white"/>
<path d="M60.2998 20.3117L58.7318 21.7895L58.4554 21.4877L58.6691 19.8119L57.7185 20.7037L57.3813 20.345L58.9493 18.8672L59.2336 19.1671L59.0179 20.8409L59.9686 19.9432L60.2998 20.3117Z" fill="white"/>
<path d="M60.2392 22.1399H59.8217L59.4297 22.5143L59.0808 22.1517L60.6488 20.6719L60.9879 21.0325L60.2568 21.7224H61.6425L62.0228 22.1144L60.7135 22.1262L60.4979 23.6432L60.1059 23.2218L60.2392 22.1399Z" fill="white"/>
<path d="M49.1516 23.8138L48.889 23.5257L48.497 23.8824L48.3578 23.7354L48.7361 23.3787L47.9697 22.5692L48.0756 22.4673L49.7474 22.3281L49.9023 22.4928L48.2814 22.6358L48.8694 23.2591L49.2006 22.9436L49.3358 23.0886L49.0046 23.4022L49.2751 23.6884L49.1516 23.8138Z" fill="white"/>
<path d="M50.1843 24.8369C49.9433 25.0623 49.5963 25.0643 49.2671 24.7173C49.0817 24.5336 48.9731 24.2863 48.9633 24.0255L49.1475 23.9863C49.15 24.2125 49.2415 24.4287 49.4023 24.588C49.6277 24.8271 49.8609 24.8526 50.0393 24.684C50.2177 24.5155 50.2098 24.292 49.9589 24.0274L49.8609 23.9255L49.9707 23.8216L50.8449 23.7491L50.151 23.0141L50.2823 22.8906L51.1545 23.8138L51.0507 23.9118L50.1549 23.9882C50.4293 24.3116 50.4137 24.6233 50.1843 24.8369Z" fill="white"/>
<path d="M51.2919 25.9927C51.0469 26.224 50.7039 26.2338 50.3648 25.883C50.1793 25.7003 50.0712 25.4533 50.063 25.1931L50.2472 25.1539C50.2512 25.375 50.3412 25.5859 50.4981 25.7419C50.7274 25.9869 50.9685 26.0045 51.143 25.8379C51.3174 25.6713 51.339 25.4459 50.9901 25.0755L50.7 24.7697L51.484 24.1641L52.2268 24.9481L52.0955 25.0715L51.482 24.4247L50.9763 24.8069L51.1508 25.0029C51.5604 25.4185 51.5448 25.7438 51.2919 25.9927Z" fill="white"/>
<path d="M52.4932 27.2447C52.4308 27.3029 52.357 27.3475 52.2765 27.3756C52.1959 27.4037 52.1104 27.4147 52.0254 27.4078C51.9403 27.401 51.8577 27.3765 51.7826 27.336C51.7076 27.2954 51.6419 27.2396 51.5896 27.1722C51.229 26.79 51.2976 26.3333 51.7503 25.9041C52.2384 25.4435 52.744 25.469 53.1125 25.859C53.2306 25.9725 53.3154 26.1162 53.3575 26.2745L53.1811 26.3274C53.1517 26.196 53.0834 26.0765 52.9851 25.9844C52.6931 25.6748 52.307 25.663 51.9169 26.0315C51.8836 26.0628 51.8444 26.104 51.8052 26.1491C51.9233 26.1148 52.049 26.1161 52.1664 26.1527C52.2838 26.1893 52.3879 26.2596 52.4657 26.3549C52.7362 26.6391 52.7558 26.9978 52.4932 27.2447ZM52.352 27.1036C52.548 26.9252 52.5304 26.6724 52.3207 26.4509C52.2832 26.401 52.2358 26.3592 52.1816 26.3283C52.1273 26.2974 52.0672 26.2779 52.0052 26.2711C51.9431 26.2643 51.8802 26.2703 51.8206 26.2888C51.7609 26.3072 51.7056 26.3377 51.6582 26.3784C51.4994 26.5274 51.474 26.7998 51.7092 27.0468C51.7454 27.0958 51.7917 27.1366 51.8449 27.1664C51.8981 27.1962 51.957 27.2144 52.0178 27.2198C52.0786 27.2252 52.1398 27.2176 52.1974 27.1976C52.255 27.1775 52.3077 27.1455 52.352 27.1036Z" fill="white"/>
<path d="M54.998 30.7565L55.1254 29.9882L54.3414 30.0705L54.1865 29.9059L55.145 29.8079L55.2841 28.9062L55.4409 29.0709L55.3233 29.7941L56.0524 29.7177L56.2034 29.8784L55.2959 29.9686L55.1489 30.9231L54.998 30.7565Z" fill="white"/>
<path d="M56.0331 31.8502L56.1605 31.08L55.3765 31.1623L55.2197 30.9976L56.1782 30.9016L56.3193 30L56.4741 30.1627L56.3585 30.8859L57.0857 30.8114L57.2385 30.9722L56.3291 31.0623L56.1821 32.0168L56.0331 31.8502Z" fill="white"/>
<path d="M57.0678 32.944L57.1952 32.1757L56.4112 32.258L56.2563 32.0934L57.2128 31.9973L57.3539 31.0938L57.5088 31.2584L57.3932 31.9816L58.1223 31.9072L58.2732 32.0659L57.3637 32.1561L57.2167 33.1106L57.0678 32.944Z" fill="white"/>
<path d="M58.101 34.0299L58.2284 33.2616L57.4444 33.3439L57.2896 33.1793L58.246 33.0813L58.3872 32.1797L58.542 32.3443L58.4264 33.0676L59.1555 32.9911L59.3064 33.1518L58.397 33.242L58.2519 34.1965L58.101 34.0299Z" fill="white"/>
<path d="M61.6777 37.819L61.8051 37.0507L61.0211 37.133L60.8662 36.9684L61.8227 36.8723L61.9638 35.9688L62.1187 36.1334L62.003 36.8566L62.7321 36.7802L62.8831 36.9409L61.9736 37.0311L61.8266 37.9856L61.6777 37.819Z" fill="white"/>
<path d="M62.7128 38.9127L62.8402 38.1425L62.0562 38.2248L61.9014 38.0621L62.8578 37.9641L62.999 37.0625L63.1538 37.2271L63.0382 37.9504L63.7673 37.8739L63.9182 38.0347L63.0088 38.1248L62.8618 39.0793L62.7128 38.9127Z" fill="white"/>
<path d="M63.7475 40.0143L63.8768 39.244L63.0928 39.3263L62.938 39.1617L63.8945 39.0657L64.0356 38.1641L64.1904 38.3267L64.0748 39.05L64.8039 38.9755L64.9548 39.1343L64.0454 39.2244L63.9003 40.1789L63.7475 40.0143Z" fill="white"/>
<path d="M64.7846 41.1081L64.912 40.3397L64.128 40.4221L63.9731 40.2574L64.9296 40.1614L65.0707 39.2578L65.2275 39.4225L65.1099 40.1457L65.8391 40.0693L65.99 40.23L65.0805 40.3201L64.9355 41.2747L64.7846 41.1081Z" fill="white"/>
<path d="M69.4294 43.1423L67.9946 44.5006L67.8535 44.3516L69.1589 43.1188L68.8394 42.7817L68.9707 42.6562L69.4294 43.1423Z" fill="white"/>
<path d="M69.6273 45.3994C69.3882 45.6268 69.0393 45.6268 68.7101 45.2798C68.5247 45.0961 68.4161 44.8488 68.4062 44.588L68.5905 44.5488C68.5941 44.7754 68.6855 44.9917 68.8453 45.1524C69.0707 45.3896 69.3059 45.417 69.4843 45.2485C69.6626 45.0799 69.6548 44.8565 69.4019 44.5899L69.3059 44.488L69.4137 44.3861L70.2879 44.3116L69.594 43.5786L69.7253 43.4531L70.5975 44.3763L70.4937 44.4762L69.5999 44.5527C69.8743 44.88 69.8606 45.1858 69.6273 45.3994Z" fill="white"/>
<path d="M70.9426 46.8665L70.6702 46.5784L70.2938 46.9351L70.1527 46.7881L70.531 46.4314L69.7646 45.6219L69.8724 45.52L71.5424 45.3828L71.6972 45.5455L70.0763 45.6886L70.6643 46.3119L70.9955 45.9983L71.1327 46.1413L70.7995 46.4549L71.072 46.7431L70.9426 46.8665Z" fill="white"/>
<path d="M71.7426 48.2047L71.6112 48.3282L70.6587 47.3207L70.7645 47.2227L71.9131 47.2659C72.2267 47.2776 72.3521 47.2169 72.4501 47.1247C72.6167 46.966 72.6089 46.7523 72.4011 46.5367C72.3363 46.4595 72.2548 46.3979 72.1629 46.3565C72.0709 46.3151 71.9708 46.2949 71.87 46.2976V46.1016C72.0003 46.1002 72.1294 46.1276 72.248 46.1818C72.3666 46.236 72.4717 46.3157 72.556 46.4152C72.8304 46.7073 72.8578 47.0307 72.6167 47.258C72.4795 47.3874 72.3169 47.454 71.9464 47.454L71.0036 47.4207L71.7426 48.2047Z" fill="white"/>
<path d="M43.92 25.0187C43.9981 24.9537 44.0935 24.913 44.1945 24.9017C44.2954 24.8904 44.3975 24.9089 44.488 24.955C44.5786 25.0011 44.6536 25.0727 44.7038 25.1611C44.7541 25.2494 44.7773 25.3505 44.7706 25.4519L44.5746 25.4401C44.5804 25.3951 44.576 25.3494 44.5617 25.3063C44.5475 25.2632 44.5238 25.2239 44.4923 25.1912C44.465 25.1623 44.4323 25.1392 44.3961 25.123C44.3599 25.1068 44.3208 25.0979 44.2811 25.0968C44.201 25.0946 44.1233 25.1243 44.065 25.1794C44.0068 25.2345 43.9729 25.3105 43.9707 25.3906C43.9685 25.4707 43.9982 25.5485 44.0533 25.6067C44.0842 25.64 44.1224 25.6659 44.1649 25.6822C44.2073 25.6985 44.253 25.7048 44.2983 25.7008V25.8968C44.2244 25.9001 44.1508 25.8866 44.083 25.8574C44.0151 25.8282 43.9547 25.784 43.9063 25.7282C43.8583 25.682 43.8205 25.6263 43.795 25.5648C43.7696 25.5032 43.7571 25.4371 43.7584 25.3705C43.7597 25.3039 43.7747 25.2383 43.8025 25.1777C43.8303 25.1172 43.8703 25.0631 43.92 25.0187Z" fill="white"/>
<path d="M44.8592 26.3854L44.5574 26.0679L44.3614 26.1463L44.2085 25.9836L45.1885 25.6406L45.3355 25.7974L44.9435 26.7519L44.773 26.5814L44.8592 26.3854ZM44.9317 26.2227L45.0905 25.866L44.7259 26.0052L44.9317 26.2227Z" fill="white"/>
<path d="M45.4077 27.2635L45.4724 26.9499L45.3411 26.8127L45.1451 26.9931L44.9941 26.8343L45.6801 26.1875L45.9604 26.4835C46.1329 26.6657 46.1466 26.8755 45.9918 27.0146C45.9477 27.0606 45.8904 27.0916 45.8278 27.1032C45.7652 27.1148 45.7005 27.1064 45.6429 27.0793L45.5684 27.4399L45.4077 27.2635ZM45.8232 26.5893L45.6997 26.4599L45.4606 26.6853L45.5841 26.8147C45.6743 26.9107 45.7664 26.9166 45.8409 26.848C45.9153 26.7794 45.9134 26.6853 45.8232 26.5815V26.5893Z" fill="white"/>
<path d="M45.6919 27.4281L45.8624 27.3693C45.8789 27.4796 45.9288 27.5822 46.0055 27.6633C46.0937 27.7574 46.1603 27.7652 46.2015 27.726C46.3289 27.6045 45.8644 27.2909 46.1192 27.0498C46.2368 26.94 46.421 26.942 46.6053 27.136C46.6864 27.2176 46.7434 27.32 46.7699 27.432L46.6033 27.4967C46.5829 27.4069 46.5397 27.3238 46.4779 27.2556C46.3877 27.1615 46.3191 27.1596 46.2819 27.1988C46.1564 27.3183 46.619 27.6358 46.3681 27.873C46.2525 27.9808 46.0663 27.9788 45.8801 27.7828C45.7833 27.6861 45.7177 27.5625 45.6919 27.4281Z" fill="white"/>
<path d="M47.8087 28.4319L47.1227 29.0806L46.9737 28.9219L47.254 28.6553L46.96 28.3437L46.6797 28.6102L46.5288 28.4515L47.2148 27.8047L47.3638 27.9615L47.0933 28.2182L47.3873 28.5299L47.6578 28.2731L47.8087 28.4319Z" fill="white"/>
<path d="M47.5792 28.8736C47.6503 28.7982 47.7424 28.7458 47.8436 28.7233C47.9448 28.7008 48.0504 28.7092 48.1468 28.7474C48.2431 28.7856 48.3258 28.8519 48.384 28.9377C48.4422 29.0234 48.4734 29.1247 48.4734 29.2284C48.4734 29.332 48.4422 29.4333 48.384 29.5191C48.3258 29.6048 48.2431 29.6711 48.1468 29.7093C48.0504 29.7476 47.9448 29.756 47.8436 29.7335C47.7424 29.711 47.6503 29.6586 47.5792 29.5831C47.5312 29.5374 47.493 29.4823 47.4668 29.4214C47.4407 29.3604 47.4272 29.2947 47.4272 29.2284C47.4272 29.162 47.4407 29.0964 47.4668 29.0354C47.493 28.9744 47.5312 28.9194 47.5792 28.8736ZM48.1359 29.4616C48.1662 29.4361 48.1909 29.4045 48.2084 29.3689C48.2258 29.3333 48.2357 29.2944 48.2374 29.2548C48.239 29.2152 48.2324 29.1756 48.218 29.1387C48.2036 29.1018 48.1816 29.0682 48.1535 29.0402C48.1134 28.9956 48.0609 28.9639 48.0028 28.9492C47.9446 28.9345 47.8834 28.9375 47.8269 28.9578C47.7704 28.9781 47.7213 29.0148 47.6857 29.0631C47.6502 29.1115 47.6299 29.1693 47.6274 29.2293C47.6249 29.2892 47.6403 29.3486 47.6716 29.3997C47.703 29.4508 47.7489 29.4915 47.8035 29.5164C47.8581 29.5414 47.9188 29.5495 47.978 29.5397C48.0373 29.5299 48.0922 29.5028 48.1359 29.4616Z" fill="white"/>
<path d="M48.7456 29.4219L48.8945 29.5806L48.3379 30.1098L48.6633 30.4528L48.5339 30.5744L48.0596 30.0726L48.7456 29.4219Z" fill="white"/>
<path d="M49.3042 30.0156L49.5982 30.3273C49.6469 30.3708 49.686 30.424 49.7131 30.4835C49.7402 30.543 49.7547 30.6075 49.7556 30.6728C49.7565 30.7382 49.7438 30.803 49.7184 30.8632C49.6929 30.9234 49.6553 30.9777 49.6078 31.0226C49.5603 31.0675 49.504 31.102 49.4425 31.1241C49.3809 31.1461 49.3155 31.1551 49.2503 31.1506C49.1851 31.146 49.1216 31.128 49.0637 31.0976C49.0058 31.0672 48.9549 31.0251 48.9141 30.9741L48.6201 30.6624L49.3042 30.0156ZM49.0356 30.8427C49.0587 30.8792 49.0894 30.9101 49.1257 30.9333C49.162 30.9565 49.203 30.9715 49.2457 30.9771C49.2884 30.9827 49.3318 30.9789 49.3729 30.9659C49.414 30.9529 49.4517 30.931 49.4834 30.9018C49.5151 30.8726 49.5399 30.8368 49.5562 30.7969C49.5726 30.757 49.5799 30.7141 49.5778 30.671C49.5756 30.628 49.5641 30.586 49.5439 30.5479C49.5237 30.5098 49.4954 30.4767 49.461 30.4507L49.3238 30.3057L48.9004 30.6997L49.0356 30.8427Z" fill="white"/>
<path d="M50.0139 31.8768L49.8865 31.9983L49.3848 31.4671L50.0708 30.8203L50.5588 31.3378L50.4334 31.4573L50.0923 31.0986L49.9434 31.2378L50.2432 31.5573L50.1198 31.6729L49.8199 31.3554L49.6611 31.5044L50.0139 31.8768Z" fill="white"/>
<path d="M50.4194 32.5682L50.4841 32.2566L50.3528 32.1194L50.1568 32.2997L50.0059 32.1409L50.6919 31.4922L50.9721 31.7901C51.1446 31.9724 51.1583 32.1821 51.0035 32.3213C50.9595 32.3672 50.9021 32.3982 50.8395 32.4098C50.7769 32.4214 50.7122 32.4131 50.6546 32.3859L50.5801 32.7466L50.4194 32.5682ZM50.8349 31.894L50.7115 31.7646L50.4743 31.992L50.5958 32.1213C50.6879 32.2174 50.7781 32.2233 50.8526 32.1527C50.9271 32.0821 50.9251 31.992 50.8349 31.894Z" fill="white"/>
<path d="M41.1783 27.4682L41.5428 27.4446C41.5252 27.5106 41.5238 27.5798 41.5388 27.6464C41.5539 27.7129 41.5848 27.7749 41.6291 27.8268C41.7447 27.9484 41.88 27.9444 42.0211 27.8072L42.6483 27.2192L42.2092 26.7547L42.4542 26.5234L43.1814 27.2918L42.3249 28.0993C41.9976 28.409 41.684 28.3952 41.39 28.0856C41.3093 28.0061 41.2481 27.9089 41.2114 27.8018C41.1747 27.6946 41.1633 27.5804 41.1783 27.4682Z" fill="white"/>
<path d="M42.2247 28.5687C42.2731 28.5229 42.3376 28.4983 42.4041 28.5001C42.4706 28.5019 42.5337 28.5301 42.5795 28.5785C42.6252 28.6268 42.6499 28.6913 42.648 28.7579C42.6462 28.8244 42.618 28.8875 42.5697 28.9332C42.5457 28.9559 42.5176 28.9736 42.4868 28.9854C42.456 28.9971 42.4232 29.0027 42.3903 29.0018C42.3573 29.0009 42.3249 28.9935 42.2948 28.9801C42.2647 28.9666 42.2376 28.9474 42.2149 28.9234C42.1923 28.8995 42.1745 28.8713 42.1628 28.8405C42.151 28.8098 42.1454 28.777 42.1463 28.744C42.1472 28.7111 42.1546 28.6786 42.1681 28.6485C42.1815 28.6185 42.2008 28.5913 42.2247 28.5687Z" fill="white"/>
<path d="M45.7411 29.9918L44.0124 30.8071L43.7027 30.4798L44.3221 29.345L43.1461 29.8899L42.8384 29.5645L43.7478 27.8828L44.0477 28.1984L43.4009 29.3744L44.6239 28.8079L44.8905 29.0902L44.2398 30.276L45.4667 29.6997L45.7411 29.9918Z" fill="white"/>
<path d="M45.8644 30.1236C45.8875 30.102 45.9149 30.0855 45.9448 30.0751C45.9747 30.0647 46.0065 30.0607 46.038 30.0633C46.0696 30.0658 46.1002 30.075 46.128 30.0901C46.1559 30.1052 46.1802 30.126 46.1995 30.1511C46.2234 30.1711 46.2429 30.1958 46.2568 30.2237C46.2706 30.2516 46.2785 30.2821 46.28 30.3132C46.2815 30.3444 46.2765 30.3755 46.2653 30.4046C46.2542 30.4337 46.2371 30.4601 46.2152 30.4823C46.1921 30.505 46.1644 30.5225 46.134 30.5338C46.1037 30.5451 46.0712 30.5499 46.0389 30.5478C46.0066 30.5458 45.975 30.537 45.9463 30.522C45.9176 30.507 45.8923 30.4861 45.8722 30.4607C45.8484 30.4398 45.8292 30.4142 45.8158 30.3855C45.8025 30.3567 45.7952 30.3256 45.7944 30.2939C45.7937 30.2622 45.7995 30.2307 45.8116 30.2014C45.8236 30.1721 45.8416 30.1456 45.8644 30.1236ZM45.5919 30.447L45.8703 30.741L44.855 31.6994L44.5786 31.4054L45.5919 30.447Z" fill="white"/>
<path d="M46.5132 30.6484L46.7915 30.9424L45.3921 32.2674L45.1138 31.9734L46.5132 30.6484Z" fill="white"/>
<path d="M47.0484 31.2109L47.3267 31.5049L45.9272 32.8279L45.6489 32.5339L47.0484 31.2109Z" fill="white"/>
<path d="M47.4718 31.8172C47.4954 31.7961 47.523 31.7801 47.553 31.77C47.583 31.7599 47.6147 31.756 47.6462 31.7586C47.6778 31.7611 47.7085 31.7701 47.7364 31.7849C47.7644 31.7997 47.7891 31.82 47.8089 31.8447C47.8325 31.8652 47.8516 31.8902 47.8651 31.9184C47.8787 31.9465 47.8863 31.9771 47.8876 32.0083C47.8889 32.0395 47.8838 32.0706 47.8726 32.0998C47.8614 32.129 47.8444 32.1555 47.8226 32.1779C47.7736 32.2169 47.7118 32.2362 47.6492 32.2322C47.5867 32.2282 47.5278 32.2011 47.4841 32.1562C47.4404 32.1113 47.415 32.0517 47.4127 31.9891C47.4104 31.9265 47.4315 31.8652 47.4718 31.8172ZM47.1994 32.1426L47.4777 32.4366L46.4644 33.395L46.186 33.101L47.1994 32.1426Z" fill="white"/>
<path d="M48.1477 34.0316L47.5597 34.5785L47.299 34.3041L47.4264 34.1845C47.345 34.1967 47.2618 34.1867 47.1856 34.1557C47.1094 34.1247 47.0429 34.0737 46.9932 34.0081C46.7678 33.771 46.7659 33.5044 46.9423 33.3398C47.1187 33.1751 47.3637 33.179 47.6557 33.4868L47.8772 33.722C48.0046 33.6024 48.0065 33.4574 47.8556 33.2986C47.7563 33.1952 47.6265 33.1265 47.4852 33.1026L47.591 32.8047C47.7978 32.8555 47.9847 32.9667 48.1281 33.1242C48.4299 33.4162 48.4554 33.7318 48.1477 34.0316ZM47.6126 33.9826L47.7165 33.8846L47.5205 33.6886C47.3911 33.5495 47.299 33.5554 47.2304 33.6181C47.1618 33.6808 47.1677 33.7964 47.2657 33.9003C47.3083 33.9477 47.3649 33.9803 47.4273 33.9933C47.4896 34.0064 47.5545 33.9992 47.6126 33.9728V33.9826Z" fill="white"/>
<path d="M50.0219 35.9918L49.4339 36.5406L49.1575 36.2466L49.6926 35.7409C49.8553 35.5861 49.8611 35.441 49.7494 35.3234C49.6377 35.2058 49.4535 35.1784 49.2712 35.3489L48.7635 35.8311L48.4852 35.5371L49.0203 35.0314C49.1849 34.8746 49.1928 34.7335 49.0771 34.612C48.9615 34.4904 48.7831 34.4689 48.6009 34.6414L48.105 35.1274L47.8267 34.8334L48.84 33.875L49.1065 34.1553L48.9889 34.267C49.0711 34.2659 49.1525 34.2829 49.2273 34.3168C49.3022 34.3507 49.3687 34.4006 49.4221 34.463C49.4873 34.5251 49.5353 34.6031 49.5614 34.6893C49.5875 34.7756 49.5909 34.8671 49.5711 34.955C49.6668 34.9481 49.7629 34.9633 49.8519 34.9993C49.9409 35.0353 50.0205 35.0912 50.0846 35.1627C50.3061 35.4038 50.3296 35.7056 50.0219 35.9918Z" fill="white"/>
<path d="M49.6904 36.6183L49.9942 36.5164C50.0307 36.6833 50.112 36.8372 50.2294 36.9613C50.3568 37.0966 50.4411 37.1142 50.4979 37.0613C50.6626 36.9045 49.9099 36.4517 50.3196 36.0676C50.5156 35.8872 50.8115 35.9323 51.0918 36.2283C51.2222 36.3614 51.3183 36.5242 51.3721 36.7026L51.0703 36.8026C51.0388 36.6657 50.9711 36.5398 50.8743 36.438C50.7508 36.3067 50.6547 36.289 50.6018 36.338C50.4293 36.5027 51.1761 36.9574 50.7763 37.3337C50.5803 37.5121 50.2882 37.465 49.9923 37.1612C49.8452 37.0103 49.741 36.8229 49.6904 36.6183Z" fill="white"/>
<path d="M61.4014 47.9571C61.8365 47.5455 62.3108 47.5533 62.6185 47.8767C62.9262 48.2001 62.9066 48.6764 62.4696 49.088C62.0325 49.4996 61.5621 49.4937 61.2524 49.1684C60.9427 48.843 60.9662 48.3687 61.4014 47.9571ZM62.1854 48.7803C62.4852 48.4981 62.5107 48.2746 62.3657 48.1217C62.2206 47.9689 61.9992 47.9826 61.6993 48.2668C61.3994 48.551 61.3739 48.7725 61.517 48.9234C61.6601 49.0743 61.8796 49.0645 62.1795 48.7803H62.1854Z" fill="white"/>
<path d="M63.3927 50.5556C63.1242 50.8104 62.7459 50.7516 62.4813 50.4713C62.1383 50.1068 62.152 49.6638 62.5774 49.262C63.034 48.8308 63.5574 48.87 63.9239 49.262C64.0497 49.3873 64.1392 49.5445 64.1826 49.7167L63.8514 49.8147C63.8268 49.6972 63.7682 49.5895 63.6828 49.505C63.6382 49.4515 63.5826 49.4082 63.5197 49.3782C63.4568 49.3482 63.3882 49.3322 63.3185 49.3312C63.2489 49.3303 63.1798 49.3445 63.1162 49.3728C63.0525 49.4011 62.9957 49.4429 62.9498 49.4952C63.1144 49.5083 63.2672 49.5858 63.3751 49.7108C63.4328 49.7645 63.4792 49.8292 63.5115 49.9011C63.5438 49.973 63.5612 50.0507 63.5629 50.1295C63.5645 50.2083 63.5503 50.2866 63.5211 50.3598C63.4918 50.433 63.4482 50.4996 63.3927 50.5556ZM63.0987 50.2734C63.127 50.2465 63.1492 50.214 63.1639 50.1779C63.1785 50.1418 63.1854 50.103 63.1839 50.064C63.1824 50.0251 63.1726 49.9869 63.1552 49.952C63.1379 49.9172 63.1132 49.8864 63.083 49.8618C63.0594 49.8308 63.0296 49.805 62.9956 49.786C62.9616 49.767 62.924 49.7552 62.8852 49.7513C62.8464 49.7474 62.8072 49.7516 62.7701 49.7635C62.733 49.7754 62.6988 49.7949 62.6695 49.8206C62.6416 49.8485 62.6198 49.882 62.6058 49.9189C62.5917 49.9558 62.5856 49.9952 62.5878 50.0346C62.59 50.074 62.6005 50.1125 62.6187 50.1476C62.6368 50.1826 62.6621 50.2135 62.693 50.2381C62.7162 50.2693 62.7457 50.2953 62.7796 50.3142C62.8136 50.3332 62.8511 50.3447 62.8899 50.348C62.9286 50.3514 62.9676 50.3464 63.0043 50.3336C63.041 50.3207 63.0745 50.3002 63.1026 50.2734H63.0987Z" fill="white"/>
<path d="M65.1567 50.0625L65.4056 50.3232L63.0399 51.3816L62.793 51.1189L65.1567 50.0625Z" fill="white"/>
<path d="M64.9803 52.5688L64.7313 52.804L63.7847 51.8063L63.9807 51.6201L64.943 51.675C65.0084 51.6878 65.0757 51.6861 65.1404 51.6702C65.205 51.6543 65.2654 51.6245 65.3174 51.5829C65.4213 51.4849 65.4134 51.3555 65.2801 51.2164C65.2323 51.161 65.1714 51.1183 65.103 51.0923C65.0345 51.0663 64.9607 51.0578 64.8881 51.0674L64.8215 50.7087C64.9595 50.6928 65.0993 50.711 65.2285 50.762C65.3578 50.8129 65.4724 50.8949 65.5624 51.0008C65.8407 51.2967 65.874 51.6339 65.6349 51.8612C65.5075 51.9827 65.3566 52.0572 65.0097 52.0337L64.4373 52.0004L64.9803 52.5688Z" fill="white"/>
<path d="M66.2526 53.8532L66.0566 53.6396L65.7802 53.9003L65.498 53.6023L65.7763 53.3417L65.104 52.6302L65.3098 52.4342L66.7347 52.2656L67.0385 52.5851L65.6979 52.7576L66.033 53.1123L66.28 52.8791L66.5524 53.1672L66.3055 53.4005L66.5015 53.6161L66.2526 53.8532Z" fill="white"/>
<path d="M72.4439 37.5266C73.1887 36.382 72.8967 34.861 71.8971 33.932C71.593 33.6452 71.2407 33.4143 70.8563 33.2499C69.9018 32.8579 68.6376 33.1421 68.1359 34.0476C67.7262 34.7866 67.8909 35.7097 68.179 36.5035C68.4789 37.3365 68.963 38.1872 69.7881 38.5106C70.6133 38.834 71.5365 38.538 72.1284 37.9226C72.2469 37.8017 72.3526 37.6691 72.4439 37.5266Z" fill="#E9E9EA"/>
<path d="M90.6229 38.0078H40.4998C38.6119 38.0078 37.0815 39.5382 37.0815 41.4261V75.9279C37.0815 77.8158 38.6119 79.3462 40.4998 79.3462H90.6229C92.5107 79.3462 94.0411 77.8158 94.0411 75.9279V41.4261C94.0411 39.5382 92.5107 38.0078 90.6229 38.0078Z" fill="#E9E9EA"/>
<path d="M94.0412 41.4247C94.0412 41.4247 94.0412 41.3836 94.0412 41.3012C94.0376 41.1784 94.0258 41.056 94.0059 40.9347C93.9371 40.4575 93.7659 40.0009 93.5041 39.596C93.3123 39.2982 93.0771 39.0307 92.8064 38.8022C92.4756 38.5312 92.0975 38.3238 91.6911 38.1907C91.5814 38.1535 91.4657 38.1319 91.3501 38.0986C91.2345 38.0653 91.111 38.0614 90.9875 38.0418L90.6092 38.0241H88.4963L68.0594 38.0398H53.9474H46.0839H40.9271C40.5791 38.0259 40.2306 38.0456 39.8864 38.0986C39.1932 38.2258 38.558 38.5688 38.0714 39.0786C37.8257 39.3325 37.6225 39.6244 37.4697 39.943C37.3121 40.2614 37.2088 40.6039 37.1639 40.9563C37.1301 41.3146 37.119 41.6746 37.1306 42.0343V47.5595C37.1306 50.5466 37.1306 53.5931 37.1306 56.699V75.907C37.1318 76.7268 37.4298 77.5184 37.9695 78.1355C38.5018 78.7491 39.24 79.1471 40.0451 79.2547C40.4466 79.2894 40.8497 79.3005 41.2525 79.288H72.2519H88.4513H90.3368C90.6444 79.2975 90.9523 79.2771 91.256 79.2272C91.5546 79.1698 91.844 79.0722 92.1165 78.9372C92.2516 78.8708 92.3825 78.7962 92.5085 78.7137C92.6311 78.6275 92.7489 78.5346 92.8613 78.4354C93.195 78.1419 93.4669 77.7848 93.661 77.385C93.8552 76.9852 93.9678 76.5507 93.9922 76.1069C94.0118 73.7549 93.9922 71.4931 94.0039 69.3371C94.0039 60.7131 94.0177 53.7276 94.0216 48.9021C94.0216 46.4894 94.0216 44.6176 94.0314 43.3455C94.0314 42.7124 94.0314 42.2283 94.0314 41.901C94.0314 41.5737 94.0314 41.409 94.0314 41.409C94.0314 41.409 94.0314 41.5756 94.0314 41.901C94.0314 42.2264 94.0314 42.7124 94.0314 43.3455C94.0314 44.6176 94.0314 46.4815 94.0412 48.9021C94.0412 53.7276 94.0412 60.7092 94.0569 69.3371C94.0569 71.4931 94.0706 73.753 94.0569 76.1108C94.0239 76.7151 93.8318 77.3 93.5002 77.8062C93.3349 78.0607 93.1372 78.2926 92.9122 78.4962C92.797 78.5979 92.676 78.6928 92.5496 78.7804C92.4236 78.8644 92.2927 78.941 92.1576 79.0097C91.8794 79.149 91.5832 79.2493 91.2776 79.3076C90.9688 79.3597 90.6556 79.3807 90.3427 79.3703H88.4571H72.2577H54.3551H41.2447C40.8373 79.3829 40.4295 79.3712 40.0236 79.335C39.194 79.2262 38.4332 78.8168 37.8852 78.1845C37.3319 77.5507 37.0257 76.7386 37.0228 75.8972C37.0228 69.3136 37.0228 62.8887 37.0228 56.6892V47.5595C37.0228 46.0673 37.0228 44.5908 37.0228 43.1299V42.0382C37.0111 41.6739 37.0229 41.3093 37.0581 40.9465C37.1044 40.5844 37.2111 40.2326 37.3737 39.9057C37.5303 39.5774 37.7395 39.2768 37.993 39.0159C38.244 38.7578 38.532 38.5385 38.8476 38.3652C39.1648 38.1968 39.5058 38.0778 39.8589 38.0124L40.1235 37.9712L40.3881 37.9575C40.5665 37.9477 40.7409 37.9575 40.9154 37.9575H53.9357H68.0477L88.4846 37.9751H90.5877L90.9699 37.9947C91.0933 38.0163 91.2168 38.03 91.3344 38.0555C91.452 38.081 91.5677 38.1104 91.6774 38.1496C92.087 38.2844 92.4679 38.4945 92.8005 38.7689C93.0726 38.9995 93.3085 39.2698 93.5002 39.5706C93.7609 39.9788 93.9295 40.439 93.9941 40.919C94.0142 41.0409 94.0246 41.1641 94.0255 41.2875C94.0412 41.3836 94.0412 41.4247 94.0412 41.4247Z" fill="#F5F5F5"/>
<path d="M92.0459 40.551C92.435 40.483 92.8328 40.483 93.2219 40.551C92.8328 40.6189 92.435 40.6189 92.0459 40.551Z" fill="#F5F5F5"/>
<path d="M87.248 40.551C88.0463 40.483 88.8489 40.483 89.6471 40.551C88.8489 40.6189 88.0463 40.6189 87.248 40.551Z" fill="#F5F5F5"/>
<path d="M82.4517 40.551C83.2492 40.483 84.0512 40.483 84.8487 40.551C84.0512 40.619 83.2492 40.619 82.4517 40.551Z" fill="#F5F5F5"/>
<path d="M77.6538 40.551C78.452 40.483 79.2546 40.483 80.0528 40.551C79.2546 40.6189 78.452 40.6189 77.6538 40.551Z" fill="#F5F5F5"/>
<path d="M72.8574 40.551C73.655 40.483 74.4569 40.483 75.2545 40.551C74.4569 40.619 73.655 40.619 72.8574 40.551Z" fill="#F5F5F5"/>
<path d="M68.0596 40.551C68.8578 40.483 69.6604 40.483 70.4586 40.551C69.6604 40.6189 68.8578 40.6189 68.0596 40.551Z" fill="#F5F5F5"/>
<path d="M63.2632 40.551C64.0608 40.483 64.8627 40.483 65.6603 40.551C64.8627 40.619 64.0608 40.619 63.2632 40.551Z" fill="#F5F5F5"/>
<path d="M58.4653 40.551C59.2636 40.483 60.0661 40.483 60.8644 40.551C60.0661 40.6189 59.2636 40.6189 58.4653 40.551Z" fill="#F5F5F5"/>
<path d="M53.667 40.551C54.4652 40.483 55.2678 40.483 56.066 40.551C55.2678 40.6189 54.4652 40.6189 53.667 40.551Z" fill="#F5F5F5"/>
<path d="M48.8711 40.557C49.2669 40.507 49.6661 40.4899 50.0647 40.5061C50.4653 40.4896 50.8665 40.5066 51.2643 40.557C50.8666 40.6086 50.4653 40.6256 50.0647 40.608C49.6661 40.6253 49.2668 40.6083 48.8711 40.557Z" fill="#F5F5F5"/>
<path d="M44.0728 40.557C44.4705 40.5066 44.8717 40.4896 45.2723 40.5061C45.6728 40.4896 46.0741 40.5066 46.4718 40.557C46.0742 40.6086 45.6728 40.6256 45.2723 40.608C44.8717 40.6256 44.4704 40.6086 44.0728 40.557Z" fill="#F5F5F5"/>
<path d="M40.4996 41.727C40.448 41.3372 40.4309 40.9437 40.4487 40.551L40.4996 40.5H40.9563L41.3307 40.5118C41.4467 40.5075 41.5628 40.5194 41.6756 40.547C41.5631 40.5761 41.4469 40.5886 41.3307 40.5843L40.9563 40.5941H40.7368H40.4996L40.5506 40.5431C40.5676 40.9385 40.5505 41.3345 40.4996 41.727Z" fill="#F5F5F5"/>
<path d="M40.4998 46.1268C40.4483 45.7627 40.4312 45.3946 40.4489 45.0273C40.4313 44.6606 40.4483 44.2931 40.4998 43.9297C40.5502 44.2932 40.5672 44.6606 40.5508 45.0273C40.5673 45.3946 40.5502 45.7626 40.4998 46.1268Z" fill="#F5F5F5"/>
<path d="M40.4997 50.5253C40.4317 49.7945 40.4317 49.0589 40.4997 48.3281C40.5676 49.0589 40.5676 49.7945 40.4997 50.5253Z" fill="#F5F5F5"/>
<path d="M40.4997 54.9179C40.4317 54.1864 40.4317 53.4502 40.4997 52.7188C40.5676 53.4502 40.5676 54.1864 40.4997 54.9179Z" fill="#F5F5F5"/>
<path d="M40.4997 59.3163C40.4317 58.5848 40.4317 57.8487 40.4997 57.1172C40.5676 57.8487 40.5676 58.5848 40.4997 59.3163Z" fill="#F5F5F5"/>
<path d="M40.4997 63.7128C40.4317 62.982 40.4317 62.2464 40.4997 61.5156C40.5676 62.2464 40.5676 62.982 40.4997 63.7128Z" fill="#F5F5F5"/>
<path d="M40.4997 68.1034C40.4317 67.3726 40.4317 66.6371 40.4997 65.9062C40.5676 66.6371 40.5676 67.3726 40.4997 68.1034Z" fill="#F5F5F5"/>
<path d="M40.4997 72.5019C40.4317 71.771 40.4317 71.0355 40.4997 70.3047C40.5676 71.0355 40.5676 71.771 40.4997 72.5019Z" fill="#F5F5F5"/>
<path d="M41.6759 75.8772C41.2861 75.9275 40.8927 75.9446 40.4999 75.9281C40.398 75.8262 40.4705 75.8987 40.449 75.8752V75.642C40.449 75.5655 40.449 75.493 40.449 75.4205C40.449 75.2911 40.449 75.1676 40.449 75.0461C40.4433 74.9305 40.4559 74.8148 40.4862 74.7031C40.514 74.8152 40.5258 74.9307 40.5215 75.0461C40.5215 75.1676 40.5215 75.2911 40.5333 75.4205C40.5333 75.493 40.5333 75.5655 40.5333 75.642C40.5333 75.6792 40.5333 75.7184 40.5333 75.7576V75.8752C40.5097 75.8536 40.5842 75.9281 40.4823 75.8262C40.8809 75.8075 41.2804 75.8246 41.6759 75.8772Z" fill="#F5F5F5"/>
<path d="M46.4034 75.8778C46.0135 75.9279 45.6201 75.9449 45.2274 75.9288C44.8347 75.9449 44.4413 75.9279 44.0514 75.8778C44.4412 75.8266 44.8347 75.8096 45.2274 75.8268C45.6201 75.8096 46.0136 75.8266 46.4034 75.8778Z" fill="#F5F5F5"/>
<path d="M51.1309 75.8778C50.7411 75.9279 50.3477 75.9449 49.9549 75.9288C49.5622 75.9449 49.1688 75.9279 48.7789 75.8778C49.1687 75.8266 49.5622 75.8096 49.9549 75.8268C50.3477 75.8096 50.7412 75.8266 51.1309 75.8778Z" fill="#F5F5F5"/>
<path d="M55.8584 75.8791C55.0719 75.947 54.2811 75.947 53.4946 75.8791C54.2811 75.8111 55.0719 75.8111 55.8584 75.8791Z" fill="#F5F5F5"/>
<path d="M60.5859 75.8791C59.7995 75.947 59.0086 75.947 58.2222 75.8791C59.0086 75.8111 59.7995 75.8111 60.5859 75.8791Z" fill="#F5F5F5"/>
<path d="M65.3135 75.8791C64.527 75.947 63.7362 75.947 62.9497 75.8791C63.7362 75.8111 64.527 75.8111 65.3135 75.8791Z" fill="#F5F5F5"/>
<path d="M70.041 75.8791C69.2546 75.947 68.4637 75.947 67.6772 75.8791C68.4637 75.8111 69.2546 75.8111 70.041 75.8791Z" fill="#F5F5F5"/>
<path d="M74.7607 75.8791C73.9743 75.947 73.1834 75.947 72.397 75.8791C73.1834 75.8111 73.9743 75.8111 74.7607 75.8791Z" fill="#F5F5F5"/>
<path d="M79.4961 75.8791C78.7096 75.947 77.9188 75.947 77.1323 75.8791C77.9188 75.8111 78.7096 75.8111 79.4961 75.8791Z" fill="#F5F5F5"/>
<path d="M84.2236 75.8791C83.4372 75.947 82.6463 75.947 81.8599 75.8791C82.6463 75.8111 83.4372 75.8111 84.2236 75.8791Z" fill="#F5F5F5"/>
<path d="M88.9531 75.8791C88.1667 75.947 87.3758 75.947 86.5894 75.8791C87.3758 75.8111 88.1667 75.8111 88.9531 75.8791Z" fill="#F5F5F5"/>
<path d="M92.4929 75.8791C92.1038 75.947 91.706 75.947 91.3169 75.8791C91.706 75.8111 92.1038 75.8111 92.4929 75.8791Z" fill="#F5F5F5"/>
<g opacity="0.3">
<path d="M56.7286 60.9375C56.7286 60.9375 56.7404 62.8975 56.1406 64.0735C55.5409 65.2495 55.3566 65.716 54.1022 66.1707C52.8478 66.6254 37.0659 68.36 37.0659 68.36V63.0347L56.7286 60.9375Z" fill="black" fill-opacity="0.2"/>
</g>
<g opacity="0.3">
<path d="M56.4522 53.5416C56.4522 53.5416 56.6325 51.5405 51.613 50.7976C45.8721 49.949 37.0815 48.9062 37.0815 48.9062V52.691L56.4522 53.5416Z" fill="black" fill-opacity="0.2"/>
</g>
<path d="M53.9319 51.7266H37.6031C36.0541 51.7266 34.7983 52.9823 34.7983 54.5313V61.8421C34.7983 63.3912 36.0541 64.6469 37.6031 64.6469H53.9319C55.4809 64.6469 56.7366 63.3912 56.7366 61.8421V54.5313C56.7366 52.9823 55.4809 51.7266 53.9319 51.7266Z" fill="#E9E9EA"/>
<path d="M37.603 64.6521C37.603 64.6521 37.5461 64.6521 37.4364 64.6521C37.2719 64.6458 37.1085 64.6235 36.9483 64.5855C36.6864 64.5264 36.4347 64.4287 36.2016 64.2954C35.8822 64.1151 35.6018 63.8733 35.3764 63.5839C35.0909 63.2212 34.8991 62.7938 34.8178 62.3393C34.777 62.0801 34.7612 61.8176 34.7708 61.5553C34.7708 61.2849 34.7708 61.0026 34.7708 60.7106C34.7708 59.5444 34.7708 58.2175 34.7708 56.7494C34.7708 56.0144 34.7708 55.2481 34.7708 54.4445C34.7839 54.0208 34.8918 53.6055 35.0865 53.2291C35.2812 52.8526 35.5577 52.5245 35.8958 52.2689C36.2512 51.9957 36.6675 51.8127 37.1091 51.7357C37.3331 51.6986 37.5602 51.6828 37.7872 51.6887H41.3152H53.9454C54.3709 51.6878 54.7912 51.7824 55.1752 51.9656C55.5592 52.1488 55.8972 52.4159 56.1642 52.7471C56.5178 53.1805 56.7347 53.7092 56.7874 54.2661C56.809 54.5425 56.8012 54.811 56.8031 55.0795C56.8031 55.6165 56.8031 56.149 56.8031 56.6769V59.7874C56.8031 60.2951 56.8031 60.7988 56.8031 61.2947C56.8031 61.5455 56.8129 61.7886 56.8031 62.0395C56.796 62.1638 56.7809 62.2875 56.758 62.4099C56.7314 62.5304 56.6987 62.6494 56.66 62.7666C56.5005 63.2255 56.2264 63.6361 55.8639 63.9595C55.5014 64.2829 55.0624 64.5085 54.5883 64.6149C54.4751 64.641 54.3606 64.6613 54.2453 64.6757C54.1297 64.6855 54.014 64.6894 53.8984 64.6933H51.909H47.107L40.1529 64.6757L38.2615 64.6659H37.7715H37.603C37.603 64.6659 37.6598 64.6659 37.7715 64.6659H38.2615L40.1529 64.6561L47.107 64.6404H51.909H53.2242C53.671 64.6286 54.1277 64.6776 54.5668 64.562C55.0213 64.4534 55.4409 64.2314 55.7864 63.9168C56.1318 63.6022 56.392 63.2051 56.5424 62.7627C56.711 62.3099 56.6875 61.818 56.6875 61.3201V59.8129C56.6875 58.7976 56.6875 57.7588 56.6875 56.7024V55.105C56.6875 54.8365 56.6875 54.564 56.6738 54.3014C56.621 53.7643 56.4117 53.2546 56.0721 52.8353C55.9011 52.6278 55.7034 52.444 55.484 52.2885C55.2563 52.1384 55.0089 52.0204 54.7491 51.9376C54.4859 51.861 54.2136 51.8201 53.9396 51.8161H41.3093H37.7813C37.5589 51.8103 37.3365 51.8254 37.1169 51.8612C36.6893 51.9352 36.2859 52.1114 35.9409 52.3747C35.6121 52.6224 35.3428 52.9405 35.1529 53.3058C34.963 53.6711 34.8572 54.0742 34.8433 54.4856C34.8335 55.2833 34.8433 56.0536 34.8433 56.7886C34.8433 58.2567 34.8433 59.5836 34.8433 60.7498C34.8433 61.0418 34.8433 61.3241 34.8433 61.5945C34.8334 61.8534 34.8478 62.1126 34.8864 62.3687C34.9805 62.9031 35.2276 63.3986 35.5978 63.7952C35.9679 64.1918 36.4453 64.4725 36.9719 64.6031C37.1306 64.6428 37.2927 64.6677 37.456 64.6776L37.603 64.6521Z" fill="#F5F5F5"/>
<path d="M50.1273 63.3767C52.7209 63.3767 54.8235 61.2742 54.8235 58.6805C54.8235 56.0869 52.7209 53.9844 50.1273 53.9844C47.5337 53.9844 45.4312 56.0869 45.4312 58.6805C45.4312 61.2742 47.5337 63.3767 50.1273 63.3767Z" fill="#F5F5F5"/>
<path d="M51.3306 62.5085C51.7278 62.3612 52.1046 62.1636 52.4517 61.9205C52.8209 61.6498 53.1417 61.3184 53.4003 60.9405C53.7223 60.4821 53.9355 59.9562 54.0234 59.4028C54.1114 58.8495 54.0719 58.2834 53.908 57.7477C53.7799 57.308 53.577 56.8936 53.3082 56.5227C53.0549 56.1837 52.7584 55.8793 52.4262 55.6172C52.4262 55.6172 52.4556 55.6289 52.5026 55.6603C52.5752 55.7055 52.6452 55.7545 52.7124 55.8073C52.9592 56.0017 53.1793 56.2277 53.367 56.4796C53.6488 56.8528 53.8624 57.2728 53.9981 57.7203C54.1724 58.2687 54.2161 58.8504 54.1256 59.4187C54.035 59.987 53.8129 60.5263 53.4768 60.9935C53.2101 61.3751 52.8784 61.7068 52.4968 61.9735C52.2406 62.1547 51.961 62.3004 51.6657 62.4066C51.5864 62.4371 51.5052 62.4626 51.4227 62.4831C51.3939 62.4975 51.3626 62.5061 51.3306 62.5085Z" fill="#FAFAFA"/>
<path d="M111.413 54.1508C110.981 55.0503 110.293 55.8017 109.434 56.3096C108.575 56.8176 107.585 57.0593 106.589 57.0042C105.593 56.9492 104.635 56.5997 103.838 56.0002C103.041 55.4007 102.439 54.578 102.109 53.6364C101.78 52.6947 101.737 51.6765 101.986 50.7105C102.236 49.7445 102.766 48.8742 103.51 48.2099C104.255 47.5455 105.179 47.117 106.167 46.9785C107.156 46.84 108.162 46.9978 109.061 47.4319C109.656 47.7186 110.19 48.1198 110.63 48.6126C111.071 49.1055 111.41 49.6802 111.628 50.3042C111.847 50.9281 111.94 51.5889 111.903 52.2489C111.866 52.9089 111.699 53.5552 111.413 54.1508Z" fill="#E9E9EA"/>
<g opacity="0.3">
<path d="M110.391 53.5165C110.412 53.3595 110.448 53.2051 110.501 53.0559C110.602 52.6466 110.64 52.2242 110.613 51.8035C110.592 51.5152 110.54 51.23 110.458 50.9528C110.362 50.6369 110.225 50.3346 110.052 50.0532C109.959 49.9016 109.855 49.7568 109.741 49.62C109.369 49.1754 108.899 48.8226 108.369 48.5891C108.188 48.5099 108.001 48.4443 107.81 48.3931C107.624 48.3443 107.435 48.3095 107.244 48.2892C107.059 48.2681 106.874 48.2615 106.689 48.2696C106.511 48.2766 106.333 48.2969 106.158 48.3303C105.833 48.3894 105.517 48.4909 105.219 48.6322C104.958 48.7569 104.712 48.9093 104.484 49.0869C104.154 49.3495 103.866 49.6615 103.631 50.012C103.555 50.1513 103.465 50.2826 103.363 50.404C103.386 50.2438 103.445 50.0907 103.533 49.9552C103.74 49.5621 104.02 49.2117 104.357 48.9223C104.588 48.7211 104.842 48.5487 105.115 48.4087C105.429 48.2478 105.763 48.1298 106.109 48.0579C106.495 47.9779 106.892 47.9567 107.285 47.9952C107.491 48.0157 107.696 48.0524 107.896 48.1049C108.102 48.1605 108.304 48.2313 108.5 48.3166C108.695 48.404 108.883 48.5063 109.062 48.6224C109.236 48.736 109.399 48.8632 109.552 49.0026C109.702 49.1366 109.839 49.2828 109.964 49.4397C110.085 49.5878 110.193 49.7451 110.289 49.9101C110.47 50.2167 110.607 50.5464 110.699 50.8901C110.777 51.1859 110.82 51.4898 110.826 51.7956C110.838 52.2367 110.766 52.6761 110.617 53.0912C110.572 53.247 110.495 53.3918 110.391 53.5165Z" fill="black" fill-opacity="0.2"/>
</g>
<g opacity="0.3">
<path d="M106.275 54.2139L105.995 54.8195L105.452 54.5686L105.727 53.9806C105.252 53.7413 104.854 53.374 104.578 52.9203L105.184 52.397C105.394 52.7589 105.694 53.0601 106.056 53.2711L106.477 52.3656C105.942 51.9403 105.364 51.4268 105.725 50.6526C105.991 50.0783 106.636 49.7784 107.538 50.0783L107.818 49.4766L108.359 49.7294L108.085 50.3174C108.462 50.5188 108.787 50.807 109.031 51.1582L108.443 51.6992C108.257 51.4332 108.02 51.2067 107.745 51.0328L107.318 51.954C107.853 52.3734 108.422 52.8811 108.067 53.6455C107.814 54.2139 107.175 54.502 106.275 54.2139ZM106.846 51.5659L107.205 50.7976C106.887 50.729 106.699 50.8329 106.617 51.0112C106.534 51.1896 106.644 51.3758 106.846 51.562V51.5659ZM107.173 53.3064C107.259 53.1104 107.152 52.9399 106.956 52.7498L106.609 53.4985C106.905 53.5612 107.101 53.475 107.173 53.3025V53.3064Z" fill="black" fill-opacity="0.2"/>
</g>
<path d="M103.414 50.2969C103.414 50.2969 103.355 50.4556 103.259 50.7438C103.129 51.1516 103.068 51.5782 103.079 52.006C103.086 52.3002 103.126 52.5927 103.198 52.8782C103.284 53.208 103.409 53.5259 103.573 53.8249C103.758 54.148 103.989 54.4431 104.259 54.701C104.84 55.2592 105.586 55.6164 106.385 55.7202C106.754 55.7682 107.129 55.7629 107.496 55.7045C108.123 55.6042 108.715 55.3489 109.217 54.9617C109.557 54.701 109.852 54.3865 110.09 54.0307C110.252 53.7759 110.329 53.623 110.338 53.6289C110.327 53.668 110.31 53.7055 110.289 53.7406C110.24 53.8468 110.184 53.9502 110.123 54.0503C109.894 54.4205 109.603 54.7482 109.262 55.0185C108.756 55.4262 108.153 55.6962 107.512 55.8025C107.135 55.8659 106.751 55.8731 106.371 55.8241C105.964 55.7672 105.568 55.6503 105.195 55.4772C104.827 55.296 104.488 55.0608 104.19 54.7794C103.915 54.5143 103.68 54.2106 103.492 53.8778C103.321 53.5755 103.19 53.2528 103.1 52.9174C103.031 52.6251 102.995 52.326 102.992 52.0256C102.988 51.591 103.06 51.159 103.206 50.7496C103.244 50.6388 103.29 50.5308 103.343 50.4262C103.361 50.3804 103.385 50.337 103.414 50.2969Z" fill="#DCDCDD"/>
<path d="M28.1988 53.4335C28.4376 55.0452 28.1928 56.6915 27.4954 58.1639C26.798 59.6363 25.6793 60.8687 24.281 61.705C22.8828 62.5412 21.2678 62.9438 19.6406 62.8616C18.0135 62.7795 16.4472 62.2163 15.1403 61.2435C13.8334 60.2706 12.8446 58.9318 12.299 57.3967C11.7534 55.8615 11.6757 54.1989 12.0756 52.6195C12.4755 51.0401 13.3351 49.6149 14.5455 48.5243C15.7559 47.4337 17.2627 46.7268 18.8751 46.4932C19.943 46.3366 21.0313 46.3919 22.0779 46.656C23.1244 46.92 24.1087 47.3877 24.9745 48.0322C25.8403 48.6766 26.5707 49.4854 27.1239 50.4121C27.6772 51.3389 28.0424 52.3656 28.1988 53.4335Z" fill="#E9E9EA"/>
<g opacity="0.3">
<path d="M26.2308 53.5174C26.1935 53.5174 26.1269 53.2567 25.9583 52.7961C25.7237 52.1483 25.389 51.5412 24.9666 50.9968C24.6772 50.6266 24.3487 50.2888 23.9866 49.9894C23.5679 49.6489 23.1067 49.3643 22.6146 49.1427C22.3502 49.0214 22.077 48.9205 21.7972 48.8408C21.5068 48.7525 21.21 48.687 20.9094 48.6448C20.5989 48.6027 20.2857 48.5844 19.9725 48.59C19.6499 48.5982 19.3282 48.6296 19.0101 48.684C18.6923 48.7419 18.3791 48.8231 18.0732 48.9271C17.777 49.0307 17.4888 49.1558 17.2108 49.3014C16.9426 49.4427 16.6857 49.6045 16.4425 49.7856C16.2077 49.9575 15.9857 50.1461 15.7781 50.35C15.0563 51.0595 14.5181 51.934 14.2101 52.898C14.0009 53.5545 13.8958 54.2396 13.8984 54.9286C13.8984 55.4186 13.9278 55.693 13.8984 55.6989C13.869 55.7048 13.7769 55.4402 13.7201 54.9384C13.6428 54.2224 13.7013 53.4983 13.8926 52.804C14.0223 52.3209 14.2092 51.8551 14.4492 51.4163C14.7284 50.912 15.0739 50.4473 15.4762 50.0345C15.694 49.8104 15.9286 49.6033 16.1779 49.4151C16.4374 49.217 16.712 49.0394 16.9992 48.884C17.2968 48.723 17.6068 48.586 17.9262 48.4743C18.5851 48.2415 19.2777 48.1184 19.9764 48.1098C20.3147 48.1061 20.6528 48.1284 20.9878 48.1764C21.3112 48.2223 21.6305 48.2944 21.9423 48.392C22.241 48.4834 22.5325 48.5967 22.8145 48.7311C23.7913 49.1949 24.6323 49.9023 25.2566 50.7852C25.6731 51.3732 25.9774 52.033 26.1543 52.7314C26.2562 53.2391 26.2582 53.5135 26.2308 53.5174Z" fill="black" fill-opacity="0.2"/>
</g>
<g opacity="0.3">
<path d="M21.2957 58.2135L21.4682 59.2915L20.5058 59.4464L20.3373 58.3958C19.3749 58.4899 18.4125 58.3389 17.8167 58.0038L18.1577 56.7435C18.7715 57.0444 19.4533 57.1795 20.1354 57.1355L19.8786 55.5283C18.7673 55.4401 17.5168 55.2735 17.2953 53.8976C17.1327 52.8764 17.7344 51.8808 19.2279 51.4652L19.0554 50.3951L20.0197 50.2422L20.1863 51.2908C20.8818 51.2198 21.5842 51.3138 22.2365 51.5652L21.9445 52.8274C21.4491 52.6368 20.9207 52.5469 20.3902 52.5628L20.6528 54.1994C21.7622 54.2778 22.9931 54.4464 23.2106 55.8047C23.3713 56.8043 22.7775 57.7882 21.2957 58.2135ZM19.6513 54.1112L19.4317 52.7392C18.9398 52.9352 18.783 53.2488 18.8339 53.5664C18.8849 53.8839 19.2063 54.0446 19.6513 54.1112ZM21.6799 56.1673C21.625 55.8302 21.3173 55.691 20.8802 55.6126L21.0919 56.9415C21.5564 56.767 21.7289 56.475 21.6799 56.1673Z" fill="black" fill-opacity="0.2"/>
</g>
<path d="M13.8535 55.5319C13.8594 55.5478 13.864 55.5642 13.8672 55.5809C13.877 55.6181 13.8888 55.6671 13.9025 55.7259L13.9535 55.9611C13.9745 56.0691 14.002 56.1758 14.0358 56.2806C14.2305 56.9536 14.5359 57.5894 14.9394 58.1622C15.2177 58.5561 15.5391 58.9177 15.8978 59.2402L16.2055 59.4911C16.2584 59.5322 16.3094 59.5773 16.3643 59.6165L16.5368 59.7302C16.6524 59.8047 16.7661 59.8889 16.8896 59.9595L17.2698 60.1555C17.8179 60.4263 18.4021 60.6171 19.0044 60.7219C19.6532 60.8246 20.3135 60.8319 20.9644 60.7435C21.6128 60.6387 22.2426 60.4407 22.8342 60.1555C23.3798 59.8809 23.8834 59.5298 24.3297 59.1128L24.6355 58.8051C24.7354 58.7031 24.8178 58.5895 24.9079 58.4856L25.0392 58.3268C25.0824 58.2719 25.1176 58.2151 25.1549 58.1602C25.2313 58.0485 25.3038 57.9387 25.3783 57.8309C25.6263 57.4176 25.8287 56.9786 25.982 56.5217C26.2025 55.8562 26.3105 55.1587 26.3015 54.4578C26.3053 54.3478 26.3007 54.2377 26.2878 54.1285C26.2878 54.0364 26.274 53.956 26.2701 53.8874C26.2662 53.8188 26.2701 53.7796 26.2603 53.7385C26.2577 53.7216 26.2577 53.7044 26.2603 53.6875C26.2663 53.7038 26.2696 53.7211 26.2701 53.7385C26.2701 53.7777 26.2819 53.8267 26.2897 53.8855C26.2976 53.9443 26.3074 54.0344 26.3191 54.1265C26.3341 54.2363 26.3413 54.347 26.3407 54.4578C26.3661 55.1645 26.2679 55.8702 26.0506 56.5432C25.9014 57.0089 25.6996 57.4561 25.4489 57.876L25.2274 58.2092C25.1882 58.2661 25.1529 58.3249 25.1098 58.3797L24.9785 58.5405C24.8883 58.6483 24.804 58.7639 24.7041 58.8678C24.6041 58.9717 24.5081 59.0755 24.3944 59.1794C23.9429 59.6063 23.4319 59.9654 22.8774 60.2457C21.6767 60.8484 20.3143 61.0497 18.9907 60.8199C18.3774 60.7102 17.7832 60.5121 17.2267 60.2319L16.8347 60.0222C16.7092 59.9517 16.5956 59.8654 16.478 59.789L16.3035 59.6733C16.2486 59.6322 16.1977 59.5851 16.1428 59.544L15.8331 59.2892C15.4726 58.9593 15.1504 58.5898 14.8727 58.1877C14.4704 57.6058 14.1719 56.9585 13.9907 56.2747C13.9571 56.1691 13.9322 56.061 13.9162 55.9513C13.9006 55.8592 13.8868 55.7808 13.8731 55.7122L13.8496 55.5652C13.85 55.554 13.8513 55.5428 13.8535 55.5319Z" fill="#DCDCDD"/>
<path d="M131.692 79.3478C131.692 79.3772 102.428 79.4008 66.3362 79.4008C30.2448 79.4008 0.972168 79.3772 0.972168 79.3478C0.972168 79.3184 30.231 79.2969 66.3362 79.2969C102.441 79.2969 131.692 79.3204 131.692 79.3478Z" fill="#DCDCDD"/>
</g>
<defs>
<clipPath id="clip0_8880_217234">
<rect width="131" height="79" fill="white" transform="translate(0.83252 0.5)"/>
</clipPath>
</defs>
</svg>
