<svg width="20" height="19" viewBox="0 0 20 19" fill="none" xmlns="http://www.w3.org/2000/svg">
<path d="M1.66675 5.33317L5.34175 1.65817C5.4968 1.5022 5.68118 1.37845 5.88427 1.29407C6.08737 1.20968 6.30515 1.16633 6.52508 1.1665H13.4751C13.695 1.16633 13.9128 1.20968 14.1159 1.29407C14.319 1.37845 14.5034 1.5022 14.6584 1.65817L18.3334 5.33317M3.33341 9.49984V16.1665C3.33341 16.6085 3.50901 17.0325 3.82157 17.345C4.13413 17.6576 4.55805 17.8332 5.00008 17.8332H15.0001C15.4421 17.8332 15.866 17.6576 16.1786 17.345C16.4912 17.0325 16.6667 16.6085 16.6667 16.1665V9.49984" stroke="#4C4F54" stroke-width="1.5" stroke-linecap="round" stroke-linejoin="round"/>
<path d="M12.5001 17.833V14.4997C12.5001 14.0576 12.3245 13.6337 12.0119 13.3212C11.6994 13.0086 11.2754 12.833 10.8334 12.833H9.16675C8.72472 12.833 8.3008 13.0086 7.98824 13.3212C7.67568 13.6337 7.50008 14.0576 7.50008 14.4997V17.833M1.66675 5.33301H18.3334V7.83301C18.3334 8.27504 18.1578 8.69896 17.8453 9.01152C17.5327 9.32408 17.1088 9.49967 16.6667 9.49967C16.1799 9.47288 15.7149 9.28863 15.3417 8.97467C15.2423 8.90282 15.1228 8.86414 15.0001 8.86414C14.8774 8.86414 14.7578 8.90282 14.6584 8.97467C14.2853 9.28863 13.8203 9.47288 13.3334 9.49967C12.8465 9.47288 12.3815 9.28863 12.0084 8.97467C11.909 8.90282 11.7894 8.86414 11.6667 8.86414C11.5441 8.86414 11.4245 8.90282 11.3251 8.97467C10.952 9.28863 10.487 9.47288 10.0001 9.49967C9.51319 9.47288 9.04819 9.28863 8.67508 8.97467C8.57565 8.90282 8.45609 8.86414 8.33341 8.86414C8.21074 8.86414 8.09118 8.90282 7.99175 8.97467C7.61864 9.28863 7.15364 9.47288 6.66675 9.49967C6.17986 9.47288 5.71486 9.28863 5.34175 8.97467C5.24232 8.90282 5.12276 8.86414 5.00008 8.86414C4.8774 8.86414 4.75785 8.90282 4.65841 8.97467C4.28531 9.28863 3.8203 9.47288 3.33341 9.49967C2.89139 9.49967 2.46746 9.32408 2.1549 9.01152C1.84234 8.69896 1.66675 8.27504 1.66675 7.83301V5.33301Z" stroke="#4C4F54" stroke-width="1.5" stroke-linecap="round" stroke-linejoin="round"/>
</svg>
