<svg width="251" height="250" viewBox="0 0 251 250" fill="none" xmlns="http://www.w3.org/2000/svg">
<path d="M53.6998 59.6293L59.4548 61.2143L55.1998 62.2543C53.0348 62.5993 52.0598 63.5343 51.6648 64.7543L50.3398 75.4493L48.7098 64.7293C48.509 64.2302 48.2053 63.779 47.8185 63.4051C47.4317 63.0313 46.9705 62.743 46.4648 62.5593L40.9648 61.2143L46.7898 59.5643C47.2703 59.3663 47.7056 59.0728 48.0692 58.7015C48.4327 58.3302 48.717 57.8889 48.9048 57.4043L50.3548 45.2793L51.3948 57.1393C51.5623 57.7034 51.8573 58.2213 52.257 58.6531C52.6567 59.0849 53.1504 59.4189 53.6998 59.6293Z" fill="#EBEBEB"/>
<path d="M61.9348 75.8484L63.9998 76.4184L62.4998 76.7934C61.7198 76.9184 61.3748 77.2484 61.2298 77.6834L60.7298 81.5234L60.1448 77.6784C60.0735 77.4994 59.9648 77.3377 59.826 77.204C59.6871 77.0704 59.5214 76.9679 59.3398 76.9034L57.3398 76.4034L59.4298 75.8134C59.6013 75.7415 59.7564 75.6358 59.8862 75.5026C60.0159 75.3695 60.1174 75.2116 60.1848 75.0384L60.6848 70.6934L61.0598 74.9434C61.1224 75.1534 61.2345 75.3452 61.3868 75.5027C61.5391 75.6603 61.7271 75.7788 61.9348 75.8484Z" fill="#EBEBEB"/>
<path d="M23.0465 92.4335L6.74902 147.523L75.6569 167.909L91.9544 112.819L23.0465 92.4335Z" fill="#FAFAFA"/>
<path d="M91.9552 112.829C91.9552 112.829 91.8402 112.829 91.6202 112.739L90.6502 112.464L86.9002 111.379L72.7802 107.254L23.0002 92.619L23.2352 92.494C18.3902 108.894 12.8352 127.694 6.95523 147.584L6.81523 147.329L75.7102 167.749L75.4952 167.864C80.4402 151.289 84.5402 137.549 87.4052 127.934L90.7502 116.784C91.1402 115.497 91.4369 114.516 91.6402 113.839C91.8452 113.174 91.9602 112.839 91.9602 112.839C91.9602 112.839 91.8752 113.174 91.6902 113.839C91.5052 114.504 91.1902 115.489 90.8452 116.764L87.5952 127.904C84.7652 137.554 80.7152 151.349 75.8302 167.989L75.7802 168.154L75.6152 168.104L6.69023 147.734L6.49023 147.674L6.55023 147.474C12.4452 127.579 18.0002 108.784 22.8702 92.389L22.9252 92.209L23.1002 92.264L72.9452 107.109L87.0002 111.319L90.7052 112.434L91.6452 112.729L91.9552 112.829Z" fill="#E0E0E0"/>
<path d="M24.3949 96.6048L10.1484 144.762L74.2186 163.716L88.465 115.559L24.3949 96.6048Z" fill="#EBEBEB"/>
<path d="M10.1504 144.77L41.3854 121.455L49.7054 144.285L62.0704 137.055L74.2204 163.725L10.1504 144.77Z" fill="#E0E0E0"/>
<path d="M62.2156 123.629C61.9209 124.627 61.3369 125.515 60.5376 126.181C59.7383 126.846 58.7594 127.26 57.7249 127.37C56.6904 127.479 55.6467 127.28 54.7256 126.796C53.8046 126.312 53.0477 125.566 52.5506 124.652C52.0535 123.739 51.8385 122.698 51.9328 121.662C52.0271 120.626 52.4266 119.641 53.0806 118.832C53.7346 118.023 54.6138 117.426 55.607 117.117C56.6002 116.808 57.6629 116.8 58.6606 117.094C59.3232 117.29 59.9407 117.614 60.4779 118.048C61.0152 118.483 61.4616 119.019 61.7917 119.625C62.1218 120.232 62.3292 120.898 62.4019 121.585C62.4746 122.272 62.4113 122.967 62.2156 123.629Z" fill="#E0E0E0"/>
<path d="M149.617 137.695L143.856 198.412L219.8 205.618L225.561 144.9L149.617 137.695Z" fill="#FAFAFA"/>
<path d="M225.54 144.885H225.175L224.105 144.795L220 144.4L204.425 143L149.58 137.9L149.795 137.725C148.09 155.795 146.13 176.51 144.065 198.435L143.87 198.195L219.81 205.43L219.61 205.595C221.38 187.32 222.85 172.165 223.88 161.57C224.38 156.27 224.81 152.115 225.09 149.265C225.235 147.855 225.345 146.765 225.42 146.02C225.495 145.275 225.545 144.9 225.545 144.9C225.545 144.9 225.545 145.26 225.465 145.985C225.385 146.71 225.305 147.8 225.18 149.2C224.92 152.04 224.545 156.2 224.065 161.47C223.065 172.1 221.675 187.295 219.975 205.63V205.815H219.79L143.84 198.655H143.62V198.435C145.71 176.515 147.68 155.8 149.4 137.73V137.535H149.595L204.55 142.845L220.05 144.37L224.135 144.78L225.18 144.89C225.43 144.865 225.54 144.885 225.54 144.885Z" fill="#E0E0E0"/>
<path d="M151.872 141.764L146.837 194.836L217.445 201.535L222.48 148.464L151.872 141.764Z" fill="#EBEBEB"/>
<path d="M146.82 194.824L174.61 164.174L187.93 186.259L199.34 176.209L217.43 201.519L146.82 194.824Z" fill="#E0E0E0"/>
<path d="M196.756 162.194C196.652 163.294 196.224 164.339 195.526 165.195C194.829 166.052 193.893 166.683 192.837 167.007C191.781 167.332 190.652 167.336 189.594 167.019C188.535 166.703 187.595 166.079 186.891 165.227C186.187 164.376 185.751 163.335 185.639 162.235C185.527 161.136 185.744 160.029 186.261 159.053C186.779 158.076 187.574 157.276 188.547 156.752C189.52 156.228 190.626 156.004 191.726 156.109C193.199 156.25 194.557 156.97 195.5 158.111C196.443 159.252 196.895 160.72 196.756 162.194Z" fill="#E0E0E0"/>
<path d="M77.681 153.44L21.1562 167.219L32.1728 212.41L88.6975 198.631L77.681 153.44Z" fill="#FAFAFA"/>
<path d="M77.6755 153.448L77.4005 153.523L76.6105 153.723L73.5455 154.498L62.0005 157.348L21.2055 167.348L21.3155 167.168C24.5955 180.618 28.3605 196.033 32.3455 212.348L32.1405 212.228L88.6555 198.498L88.5505 198.668L80.6355 165.873C79.6905 161.928 78.9455 158.828 78.4355 156.708C78.1855 155.653 77.9955 154.843 77.8655 154.283C77.7355 153.723 77.6755 153.443 77.6755 153.443C77.6755 153.443 77.7505 153.713 77.8855 154.248C78.0205 154.783 78.2255 155.598 78.4855 156.638C78.9855 158.748 79.7705 161.828 80.7455 165.758L88.8255 198.603L88.8555 198.738L88.7205 198.773L32.2205 212.573L32.0555 212.613L32.0155 212.448C28.0455 196.133 24.2955 180.713 21.0155 167.258L20.9805 167.113L21.1255 167.078L62.0555 157.183L73.6055 154.408L76.6505 153.683L77.4305 153.503L77.6755 153.448Z" fill="#E0E0E0"/>
<path d="M76.3626 156.776L23.8066 169.588L33.4365 209.091L85.9924 196.279L76.3626 156.776Z" fill="#EBEBEB"/>
<path d="M33.415 209.093L45.79 180.068L60.905 192.658L66.615 182.568L85.97 196.288L33.415 209.093Z" fill="#E0E0E0"/>
<path d="M61.2554 173.115C61.4548 173.933 61.407 174.793 61.1182 175.584C60.8293 176.375 60.3123 177.063 59.6325 177.561C58.9527 178.058 58.1406 178.343 57.2989 178.379C56.4573 178.415 55.6238 178.201 54.9039 177.764C54.184 177.326 53.61 176.685 53.2545 175.921C52.8989 175.158 52.7778 174.306 52.9064 173.473C53.035 172.64 53.4075 171.865 53.9769 171.244C54.5463 170.623 55.287 170.185 56.1054 169.985C56.6491 169.852 57.2136 169.828 57.7667 169.913C58.3198 169.999 58.8507 170.192 59.329 170.483C59.8072 170.774 60.2235 171.156 60.5541 171.607C60.8846 172.059 61.1229 172.571 61.2554 173.115Z" fill="#E0E0E0"/>
<path d="M217.282 45.6041L137.312 60.2812L149.047 124.218L229.016 109.541L217.282 45.6041Z" fill="#FAFAFA"/>
<path d="M217.285 45.5996L216.9 45.6796L215.78 45.8996L211.44 46.7196L195.075 49.7846L137.35 60.4996L137.52 60.2546C141.02 79.2846 145.02 101.095 149.28 124.18L149 124L229 109.36L228.845 109.59C225.345 90.3296 222.455 74.3646 220.43 63.1996C219.43 57.6146 218.64 53.2346 218.1 50.2296C217.835 48.7296 217.635 47.5946 217.495 46.8096C217.355 46.0246 217.3 45.6196 217.3 45.6196C217.3 45.6196 217.385 45.9996 217.53 46.7596C217.675 47.5196 217.895 48.6646 218.175 50.1396C218.735 53.1396 219.55 57.4846 220.595 63.0446C222.67 74.2296 225.645 90.2246 229.23 109.545L229.265 109.735L229.07 109.77L149.095 124.445L148.86 124.49L148.82 124.255C144.595 101.17 140.595 79.3546 137.11 60.3246L137.075 60.1146L137.28 60.0746L195.18 49.5746L211.5 46.6096L215.805 45.8446L216.91 45.6546L217.285 45.5996Z" fill="#E0E0E0"/>
<path d="M215.165 50.1564L140.812 63.8027L151.069 119.689L225.422 106.043L215.165 50.1564Z" fill="#EBEBEB"/>
<path d="M151.07 119.685L170.66 80.1797L190.735 98.9597L199.515 85.3347L225.42 106.035L151.07 119.685Z" fill="#E0E0E0"/>
<path d="M192.795 71.7143C193.008 72.8728 192.873 74.0685 192.406 75.1502C191.94 76.2318 191.163 77.1508 190.174 77.7909C189.185 78.431 188.029 78.7634 186.851 78.7461C185.673 78.7288 184.527 78.3626 183.557 77.6938C182.588 77.0249 181.838 76.0835 181.403 74.9887C180.969 73.8938 180.869 72.6946 181.116 71.5428C181.363 70.3911 181.946 69.3384 182.791 68.5181C183.637 67.6978 184.706 67.1466 185.865 66.9343C186.634 66.7927 187.423 66.8041 188.188 66.9677C188.952 67.1314 189.677 67.4441 190.321 67.888C190.964 68.332 191.514 68.8984 191.939 69.5549C192.363 70.2114 192.654 70.9452 192.795 71.7143Z" fill="#E0E0E0"/>
<path d="M118.384 64.8709H159.789L162.154 62.5059H187.329C188.146 62.5059 188.93 62.8304 189.507 63.408C190.085 63.9856 190.409 64.769 190.409 65.5859V69.7459H115.609L115.519 67.9009C115.5 67.5116 115.559 67.1225 115.694 66.7569C115.829 66.3913 116.037 66.0568 116.304 65.7737C116.572 65.4905 116.894 65.2645 117.252 65.1094C117.609 64.9542 117.995 64.8731 118.384 64.8709Z" fill="#E9E9EA"/>
<path d="M60.1105 130.706L60.6655 75.5706C60.68 74.026 61.3038 72.5496 62.4012 71.4625C63.4986 70.3754 64.9809 69.7656 66.5255 69.7656H193.221C194.767 69.7656 196.251 70.3768 197.348 71.466C198.446 72.5553 199.069 74.0343 199.081 75.5806L199.496 130.706L205.326 154.786V163.391H201.196V188.036C201.193 192.361 199.473 196.508 196.413 199.566C193.354 202.623 189.206 204.341 184.881 204.341H72.2555C67.9285 204.341 63.7788 202.622 60.7191 199.562C57.6594 196.502 55.9405 192.353 55.9405 188.026V162.341H51.8105V154.786L60.1105 130.706Z" fill="#E9E9EA"/>
<path d="M60.11 130.705C60.11 130.705 59.935 131.24 59.585 132.275L58.005 136.895L51.865 154.805C51.865 157.175 51.865 159.698 51.865 162.375L51.8 162.315H55.995V162.34C55.995 167.725 55.995 173.67 55.995 180.135C55.995 181.752 55.995 183.4 55.995 185.08C55.9431 186.787 55.9982 188.495 56.16 190.195C56.3802 191.949 56.9029 193.65 57.705 195.225C58.5199 196.861 59.6013 198.349 60.905 199.63C63.67 202.324 67.3075 203.94 71.16 204.185C72.16 204.255 73.16 204.235 74.16 204.24H83.375H109.68H168.9H184.9C187.609 204.21 190.269 203.523 192.655 202.24L193.52 201.71L193.955 201.445L194.365 201.14L195.18 200.53L195.935 199.84L196.315 199.495L196.66 199.12L197.35 198.36L197.97 197.54L198.275 197.13C198.375 196.99 198.455 196.84 198.545 196.695L199.08 195.815C199.245 195.515 199.385 195.2 199.535 194.89C199.828 194.268 200.084 193.628 200.3 192.975C200.716 191.655 200.961 190.287 201.03 188.905C201.08 188.215 201.075 187.515 201.075 186.815V180.49C201.075 174.843 201.075 169.143 201.075 163.39V163.26H205.335L205.205 163.39V154.84C204.615 152.395 203.975 149.755 203.335 147.11C201.975 141.51 200.63 135.95 199.375 130.765V130.735C199.24 112.905 199.11 95.5451 198.985 78.8151C198.885 76.7501 199.295 74.5501 198.185 72.7751C197.676 71.9015 196.946 71.1772 196.068 70.6752C195.19 70.1732 194.196 69.911 193.185 69.9151H157.45L76.39 69.8401H67.975C67.295 69.8401 66.61 69.8401 65.975 69.8701C65.318 69.9391 64.6774 70.1182 64.08 70.4001C62.8977 70.9561 61.9413 71.9001 61.37 73.0751C61.0881 73.6418 60.9038 74.252 60.825 74.8801C60.755 75.5051 60.77 76.1401 60.76 76.7651C60.76 78.0251 60.76 79.2651 60.72 80.4751C60.6933 82.9118 60.6683 85.2684 60.645 87.5451C60.545 96.6501 60.46 104.48 60.39 110.875C60.32 117.27 60.255 122.225 60.215 125.585C60.215 127.26 60.175 128.54 60.165 129.4C60.155 130.26 60.165 130.695 60.165 130.695C60.165 130.695 60.165 130.255 60.165 129.395C60.165 128.535 60.165 127.255 60.165 125.575C60.195 122.215 60.235 117.26 60.29 110.865C60.345 104.47 60.42 96.6401 60.505 87.5351C60.525 85.2618 60.5467 82.9068 60.57 80.4701C60.57 79.2551 60.57 78.0201 60.605 76.7651C60.605 76.1401 60.605 75.5051 60.665 74.8601C60.7934 73.8742 61.1668 72.9361 61.7512 72.1317C62.3355 71.3272 63.1121 70.6821 64.01 70.2551C64.6243 69.9621 65.2835 69.7745 65.96 69.7001C66.645 69.6501 67.315 69.7001 68 69.6701H76.415H157.475H193.16C193.952 69.6642 194.737 69.815 195.47 70.1138C196.203 70.4127 196.87 70.8537 197.432 71.4115C197.994 71.9692 198.44 72.6326 198.744 73.3635C199.048 74.0945 199.205 74.8784 199.205 75.6701C199.205 76.7101 199.205 77.7551 199.23 78.8001C199.355 95.5301 199.49 112.89 199.625 130.715V130.685C200.885 135.875 202.23 141.435 203.585 147.03C204.225 149.68 204.865 152.32 205.46 154.765V163.53H201.2L201.33 163.4V186.84C201.33 187.54 201.33 188.24 201.285 188.945C201.215 190.349 200.966 191.739 200.545 193.08C200.325 193.744 200.064 194.393 199.765 195.025C199.61 195.335 199.47 195.655 199.305 195.965L198.755 196.84C198.665 196.99 198.58 197.14 198.48 197.285L198.17 197.7L197.54 198.535L196.84 199.305L196.49 199.69L196.105 200.035L195.34 200.735L194.51 201.34L194.095 201.65L193.655 201.92L192.77 202.455C190.347 203.752 187.644 204.439 184.895 204.455H168.895H109.675H83.37H74.17C73.17 204.455 72.17 204.455 71.17 204.4C67.2742 204.151 63.5969 202.514 60.805 199.785C59.4896 198.488 58.3966 196.983 57.57 195.33C56.7643 193.735 56.2383 192.013 56.015 190.24C55.8553 188.533 55.8019 186.818 55.855 185.105C55.855 183.425 55.855 181.775 55.855 180.16C55.855 173.695 55.855 167.75 55.855 162.365L55.92 162.435H51.75V162.34C51.75 159.673 51.75 157.15 51.75 154.77C54.455 146.97 56.535 140.955 57.945 136.89L59.55 132.275C59.92 131.235 60.11 130.705 60.11 130.705Z" fill="#E9E9EA"/>
<path d="M88.2586 121.391C92.2182 117.094 91.9447 110.4 87.6477 106.441C83.3507 102.481 76.6574 102.755 72.6978 107.052C68.7382 111.349 69.0117 118.042 73.3087 122.002C77.6057 125.961 84.299 125.688 88.2586 121.391Z" fill="#D7D7D7"/>
<path d="M91.0598 114.22C91.0444 114.165 91.036 114.108 91.0348 114.05C91.0348 113.92 91.0348 113.755 90.9998 113.55C90.9872 113.278 90.9555 113.008 90.9048 112.74C90.8527 112.374 90.7775 112.012 90.6798 111.655C90.43 110.669 90.0322 109.727 89.4998 108.86C88.8065 107.708 87.8984 106.7 86.8248 105.89C85.527 104.902 84.0144 104.234 82.4098 103.94C80.5683 103.6 78.6693 103.759 76.9098 104.4C76.4421 104.57 75.9861 104.77 75.5448 105C75.0995 105.245 74.6718 105.521 74.2648 105.825C73.8472 106.131 73.4513 106.465 73.0798 106.825C72.7216 107.207 72.3877 107.611 72.0798 108.035C71.4298 108.909 70.9234 109.882 70.5798 110.915C69.8665 113.056 69.8665 115.37 70.5798 117.51C70.9234 118.544 71.4298 119.516 72.0798 120.39C72.3849 120.818 72.719 121.224 73.0798 121.605C73.4538 121.963 73.8495 122.297 74.2648 122.605C74.6718 122.91 75.0995 123.185 75.5448 123.43C75.9861 123.66 76.4421 123.86 76.9098 124.03C79.1992 124.862 81.7066 124.872 84.0025 124.058C86.2984 123.245 88.24 121.658 89.4948 119.57C90.0264 118.703 90.4242 117.761 90.6748 116.775C90.7731 116.417 90.8482 116.053 90.8998 115.685C90.951 115.418 90.9828 115.147 90.9948 114.875C90.9948 114.67 91.0198 114.5 91.0298 114.375C91.0303 114.318 91.0388 114.26 91.0548 114.205C91.0604 114.262 91.0604 114.319 91.0548 114.375C91.0548 114.505 91.0548 114.67 91.0548 114.875C91.055 115.148 91.0315 115.421 90.9848 115.69C90.9458 116.063 90.8772 116.433 90.7798 116.795C90.5451 117.797 90.1572 118.757 89.6298 119.64C88.8602 120.943 87.8227 122.068 86.5858 122.941C85.3489 123.813 83.9408 124.413 82.4548 124.7C80.5764 125.052 78.6382 124.897 76.8398 124.25C76.3605 124.077 75.8929 123.873 75.4398 123.64C74.9789 123.404 74.5346 123.137 74.1098 122.84C73.6831 122.522 73.2772 122.176 72.8948 121.805C72.5171 121.418 72.1663 121.005 71.8448 120.57C71.1784 119.675 70.6602 118.679 70.3098 117.62C69.5764 115.427 69.5764 113.054 70.3098 110.86C70.6591 109.801 71.1775 108.804 71.8448 107.91C72.1676 107.475 72.5183 107.06 72.8948 106.67C73.2773 106.301 73.6831 105.957 74.1098 105.64C74.5285 105.331 74.9679 105.05 75.4248 104.8C75.8769 104.565 76.3447 104.361 76.8248 104.19C78.6226 103.541 80.5616 103.386 82.4398 103.74C83.9242 104.023 85.3313 104.619 86.5676 105.488C87.8038 106.357 88.8409 107.479 89.6098 108.78C90.1372 109.664 90.5251 110.623 90.7598 111.625C90.8568 111.986 90.9253 112.354 90.9648 112.725C91.0116 112.996 91.035 113.27 91.0348 113.545C91.0348 113.755 91.0348 113.92 91.0348 114.045C91.0489 114.103 91.0572 114.161 91.0598 114.22Z" fill="#E9E9EA"/>
<g opacity="0.3">
<path d="M51.8105 154.786H205.326L199.496 130.711H60.1155L51.8105 154.786Z" fill="#BBBBBB"/>
</g>
<path d="M188.379 98.8095H170.734C170.071 98.8095 169.435 98.5461 168.967 98.0773C168.498 97.6085 168.234 96.9726 168.234 96.3095V78.6445C168.234 77.9815 168.498 77.3456 168.967 76.8768C169.435 76.4079 170.071 76.1445 170.734 76.1445H188.379C189.042 76.1445 189.678 76.4079 190.147 76.8768C190.616 77.3456 190.879 77.9815 190.879 78.6445V96.2895C190.882 96.6195 190.819 96.9468 190.695 97.2524C190.57 97.558 190.387 97.836 190.154 98.0702C189.922 98.3045 189.645 98.4904 189.341 98.6173C189.036 98.7442 188.709 98.8095 188.379 98.8095ZM170.734 76.6245C170.204 76.6245 169.695 76.8352 169.32 77.2103C168.945 77.5854 168.734 78.0941 168.734 78.6245V96.2895C168.734 96.82 168.945 97.3287 169.32 97.7037C169.695 98.0788 170.204 98.2895 170.734 98.2895H188.379C188.91 98.2895 189.419 98.0788 189.794 97.7037C190.169 97.3287 190.379 96.82 190.379 96.2895V78.6445C190.379 78.1141 190.169 77.6054 189.794 77.2303C189.419 76.8552 188.91 76.6445 188.379 76.6445L170.734 76.6245Z" fill="#E9E9EA"/>
<path d="M189.375 89.7712C190.642 84.3533 187.278 78.9335 181.86 77.6657C176.442 76.3979 171.022 79.7623 169.754 85.1802C168.487 90.5981 171.851 96.018 177.269 97.2857C182.687 98.5535 188.107 95.1891 189.375 89.7712Z" fill="#E9E9EA"/>
<path d="M96.8998 81.1309H72.0398C70.1592 81.1309 68.6348 82.6553 68.6348 84.5359V90.4859C68.6348 92.3664 70.1592 93.8909 72.0398 93.8909H96.8998C98.7803 93.8909 100.305 92.3664 100.305 90.4859V84.5359C100.305 82.6553 98.7803 81.1309 96.8998 81.1309Z" fill="#FAFAFA"/>
<path d="M96.8998 93.8851C97.1775 93.8615 97.4532 93.8181 97.7248 93.7551C98.5025 93.5483 99.1813 93.0715 99.6398 92.4101C99.9698 91.9381 100.171 91.3885 100.225 90.8151C100.255 90.1851 100.225 89.4851 100.225 88.7401C100.225 87.9951 100.225 87.1951 100.225 86.3501C100.225 85.9301 100.225 85.4951 100.225 85.0451C100.246 84.5953 100.208 84.1446 100.11 83.7051C99.9885 83.2416 99.7678 82.8102 99.463 82.4406C99.1582 82.0711 98.7766 81.7723 98.3448 81.5651C97.4498 81.0651 96.3448 81.2701 95.2498 81.2351H88.1998H72.0448C71.3596 81.2378 70.6923 81.4541 70.1358 81.8538C69.5793 82.2534 69.1612 82.8167 68.9398 83.4651C68.7741 84.118 68.715 84.7933 68.7648 85.4651V89.5151C68.7146 90.159 68.7652 90.8068 68.9148 91.4351C69.1028 92.0221 69.4518 92.5447 69.922 92.9433C70.3922 93.3419 70.9648 93.6007 71.5748 93.6901C71.8751 93.7245 72.1776 93.7362 72.4798 93.7251H75.1848H78.6048H84.7498L93.6448 93.7651H96.0598H96.6898C96.7612 93.7576 96.8333 93.7576 96.9048 93.7651H96.6898H96.0598L93.6448 93.7901L84.7498 93.8351H78.6048H72.4748C72.1609 93.8464 71.8466 93.833 71.5348 93.7951C70.8796 93.7012 70.264 93.4249 69.7583 92.9979C69.2526 92.5709 68.8771 92.0103 68.6748 91.3801C68.575 91.0557 68.5195 90.7193 68.5098 90.3801C68.5098 90.0501 68.5098 89.7201 68.5098 89.3801V84.4701C68.5189 84.1079 68.5812 83.7491 68.6948 83.4051C68.9326 82.7049 69.3834 82.0966 69.9841 81.6653C70.5848 81.2341 71.3053 81.0015 72.0448 81.0001H88.1998H95.2498H96.8748C97.4158 80.9963 97.9501 81.1196 98.4348 81.3601C98.8902 81.5824 99.292 81.9009 99.6123 82.2937C99.9326 82.6865 100.164 83.1442 100.29 83.6351C100.387 84.0899 100.424 84.5556 100.4 85.0201C100.4 85.4701 100.4 85.9051 100.4 86.3251C100.4 87.1701 100.4 87.9701 100.4 88.7151C100.4 89.4601 100.4 90.1501 100.37 90.8001C100.307 91.3916 100.091 91.9566 99.7448 92.4401C99.2638 93.1157 98.5525 93.5923 97.7448 93.7801C97.4705 93.86 97.1852 93.8954 96.8998 93.8851Z" fill="#E9E9EA"/>
<path d="M131.935 129.575C147.106 129.575 159.405 117.276 159.405 102.105C159.405 86.9335 147.106 74.6348 131.935 74.6348C116.764 74.6348 104.465 86.9335 104.465 102.105C104.465 117.276 116.764 129.575 131.935 129.575Z" fill="#E9E9EA"/>
<path d="M131.935 129.84C126.452 129.84 121.093 128.215 116.534 125.168C111.975 122.122 108.422 117.793 106.324 112.727C104.227 107.662 103.678 102.088 104.748 96.7107C105.818 91.3334 108.458 86.3941 112.336 82.5176C116.213 78.6411 121.153 76.0014 126.53 74.9324C131.907 73.8634 137.481 74.4131 142.546 76.5119C147.611 78.6107 151.94 82.1644 154.986 86.7236C158.031 91.2828 159.656 96.6427 159.655 102.125C159.647 109.474 156.724 116.52 151.527 121.716C146.33 126.912 139.284 129.834 131.935 129.84ZM131.935 74.9054C126.551 74.9054 121.289 76.5018 116.812 79.4928C112.336 82.4838 108.847 86.735 106.787 91.7088C104.727 96.6826 104.188 102.156 105.238 107.436C106.288 112.716 108.881 117.566 112.687 121.373C116.494 125.18 121.344 127.772 126.624 128.822C131.905 129.873 137.378 129.334 142.351 127.273C147.325 125.213 151.576 121.724 154.567 117.248C157.558 112.772 159.155 107.509 159.155 102.125C159.152 94.9052 156.284 87.9811 151.181 82.8738C146.077 77.7665 139.155 74.8933 131.935 74.8854V74.9054Z" fill="#D7D7D7"/>
<path d="M131.934 127.069C126.897 127.064 121.974 125.566 117.788 122.763C113.601 119.961 110.34 115.98 108.416 111.325C106.492 106.669 105.991 101.547 106.977 96.6071C107.963 91.6669 110.392 87.13 113.956 83.57C117.521 80.01 122.06 77.5866 127.002 76.6062C131.943 75.6258 137.064 76.1325 141.717 78.0621C146.371 79.9918 150.348 83.2578 153.145 87.4472C155.943 91.6367 157.435 96.5615 157.434 101.599C157.426 108.357 154.736 114.835 149.955 119.611C145.174 124.387 138.692 127.069 131.934 127.069ZM131.934 76.6241C126.997 76.6291 122.172 78.0974 118.068 80.8436C113.965 83.5898 110.768 87.4906 108.881 92.0532C106.994 96.6157 106.501 101.635 107.466 106.478C108.43 111.32 110.808 115.768 114.299 119.259C117.791 122.75 122.239 125.129 127.081 126.093C131.923 127.057 136.943 126.565 141.505 124.678C146.068 122.791 149.969 119.593 152.715 115.49C155.461 111.387 156.929 106.562 156.934 101.624C156.934 94.9937 154.3 88.6349 149.612 83.9465C144.924 79.2581 138.565 76.6241 131.934 76.6241Z" fill="#D7D7D7"/>
<path d="M131.935 122.325C143.224 122.325 152.375 113.174 152.375 101.885C152.375 90.5966 143.224 81.4453 131.935 81.4453C120.646 81.4453 111.495 90.5966 111.495 101.885C111.495 113.174 120.646 122.325 131.935 122.325Z" fill="#D7D7D7"/>
<path d="M86.2949 119.568C89.2412 116.354 89.024 111.36 85.8098 108.414C82.5956 105.467 77.6014 105.685 74.6551 108.899C71.7088 112.113 71.926 117.107 75.1402 120.054C78.3544 123 83.3485 122.783 86.2949 119.568Z" fill="#E9E9EA"/>
<path d="M88.3751 114.22C88.3194 113.575 88.2191 112.935 88.0751 112.305C87.8884 111.571 87.5917 110.87 87.1951 110.225C86.6747 109.368 85.9959 108.618 85.1951 108.015C84.2278 107.283 83.1028 106.788 81.9101 106.57C80.5418 106.322 79.1323 106.441 77.8251 106.915C77.1199 107.166 76.4573 107.523 75.8601 107.975C75.5519 108.207 75.258 108.457 74.9801 108.725C74.7069 109.009 74.453 109.312 74.2201 109.63C73.2391 110.959 72.7098 112.568 72.7098 114.22C72.7098 115.872 73.2391 117.48 74.2201 118.81C74.4515 119.128 74.7055 119.428 74.9801 119.71C75.2556 119.98 75.5497 120.231 75.8601 120.46C76.4561 120.913 77.119 121.271 77.8251 121.52C79.5274 122.138 81.3913 122.146 83.0991 121.543C84.8068 120.941 86.2527 119.764 87.1901 118.215C87.5862 117.57 87.8828 116.868 88.0701 116.135C88.2141 115.504 88.3144 114.864 88.3701 114.22C88.3701 114.22 88.3701 114.265 88.3701 114.345C88.3701 114.425 88.3701 114.57 88.3701 114.725C88.3704 114.929 88.3537 115.133 88.3201 115.335C88.2887 115.613 88.2386 115.888 88.1701 116.16C87.9947 116.909 87.7064 117.627 87.3151 118.29C86.74 119.265 85.9644 120.107 85.0395 120.761C84.1146 121.414 83.0616 121.864 81.9501 122.08C80.5438 122.349 79.091 122.233 77.7451 121.745C77.0152 121.489 76.3288 121.124 75.7101 120.66C75.3895 120.424 75.0855 120.167 74.8001 119.89C74.517 119.597 74.2531 119.286 74.0101 118.96C72.995 117.584 72.4473 115.919 72.4473 114.21C72.4473 112.5 72.995 110.835 74.0101 109.46C74.2499 109.134 74.5122 108.824 74.7951 108.535C75.0817 108.257 75.3857 107.999 75.7051 107.76C76.3238 107.296 77.0102 106.93 77.7401 106.675C79.087 106.191 80.5391 106.077 81.9451 106.345C83.0575 106.558 84.1115 107.007 85.0367 107.661C85.9619 108.314 86.737 109.158 87.3101 110.135C87.7022 110.797 87.9905 111.515 88.1651 112.265C88.2336 112.536 88.2837 112.812 88.3151 113.09C88.3487 113.291 88.3654 113.495 88.3651 113.7C88.3651 113.85 88.3651 113.975 88.3651 114.075C88.3651 114.175 88.3751 114.22 88.3751 114.22Z" fill="#E9E9EA"/>
<path d="M83.8448 108.505C83.401 108.289 82.9433 108.104 82.4748 107.95C81.1834 107.563 79.8052 107.573 78.5198 107.98C77.5764 108.285 76.7144 108.8 75.9983 109.486C75.2822 110.172 74.7306 111.011 74.3848 111.94C74.1851 112.474 74.0573 113.032 74.0048 113.6C73.9518 114.192 73.9787 114.789 74.0848 115.375C74.3083 116.61 74.8848 117.754 75.7446 118.669C76.6044 119.584 77.7107 120.23 78.9298 120.53C80.067 120.808 81.2577 120.779 82.3798 120.445C83.3905 120.132 84.3125 119.584 85.0698 118.845C85.7241 118.196 86.2351 117.418 86.5698 116.56C87.0574 115.303 87.1549 113.928 86.8498 112.615C86.7645 112.259 86.6542 111.91 86.5198 111.57C86.4643 111.453 86.4175 111.333 86.3798 111.21C86.4 111.237 86.4183 111.265 86.4348 111.295C86.4648 111.35 86.5098 111.435 86.5648 111.55C86.7261 111.883 86.8551 112.232 86.9498 112.59C87.2974 113.924 87.224 115.334 86.7398 116.625C86.4036 117.515 85.884 118.324 85.2148 119C84.4354 119.77 83.4843 120.344 82.4398 120.675C81.2771 121.029 80.0405 121.063 78.8598 120.775C77.5895 120.471 76.4366 119.799 75.5448 118.845C74.6513 117.894 74.0521 116.704 73.8198 115.42C73.7155 114.811 73.6902 114.191 73.7448 113.575C73.9143 111.882 74.7181 110.315 75.9948 109.19C76.7053 108.556 77.5445 108.084 78.4548 107.805C79.7738 107.402 81.1852 107.418 82.4948 107.85C82.8417 107.968 83.1766 108.118 83.4948 108.3L83.7448 108.445L83.8448 108.505Z" fill="#E9E9EA"/>
<path d="M199.494 130.704C199.494 130.779 168.289 130.839 129.809 130.839C91.3294 130.839 60.1094 130.779 60.1094 130.704C60.1094 130.629 91.3044 130.574 129.804 130.574C168.304 130.574 199.494 130.634 199.494 130.704Z" fill="#E9E9EA"/>
<path d="M203.8 163.421H203.415H202.29H197.965H182.06C168.63 163.371 150.06 163.201 129.59 162.966C109.12 162.731 90.5355 162.531 77.0905 162.441L61.1905 162.341L56.8655 162.311H61.1905H77.0955C90.5255 162.356 109.095 162.526 129.595 162.761C150.095 162.996 168.635 163.196 182.065 163.291L197.97 163.391L202.295 163.421H203.42H203.8Z" fill="#E9E9EA"/>
<path d="M188.455 185.275H68.6797V191.755H188.455V185.275Z" fill="#E9E9EA"/>
<path d="M71.3353 188.516L62.5703 212.366H195.755L185.64 188.516H71.3353Z" fill="white"/>
<path d="M71.3348 188.516C71.3348 188.516 71.5198 188.516 71.8898 188.516H73.5398H79.9398L103.825 188.481L185.64 188.426H185.725L185.755 188.506C189.01 196.171 192.4 204.166 195.875 212.356L195.95 212.536H186.57L62.5698 212.481H62.4648L62.4998 212.381L68.9998 194.801L70.7298 190.146C70.9248 189.646 71.0748 189.226 71.1748 188.951C71.2748 188.676 71.3298 188.556 71.3298 188.556C71.3298 188.556 71.2848 188.696 71.1898 188.971L70.7548 190.176L69.0598 194.841C67.5598 198.926 65.3898 204.886 62.6398 212.416L62.5748 212.321L186.575 212.261H195.76L195.64 212.441C192.165 204.251 188.78 196.256 185.53 188.591L185.645 188.666L103.9 188.611L79.9898 188.576H73.5698H71.9098L71.3348 188.516Z" fill="#E9E9EA"/>
<g opacity="0.3">
<path d="M145.035 111.34C144.785 108.77 142.535 107.84 140.42 107.57C135.965 106.945 130.92 108.22 127.26 105.62C126.092 104.761 125.2 103.58 124.693 102.223C124.185 100.865 124.083 99.389 124.4 97.9746C124.9 95.8296 126.4 93.4746 124.945 91.6646C124.662 91.3285 124.311 91.0558 123.916 90.8645C123.52 90.6733 123.089 90.5676 122.65 90.5546C121.816 90.5325 120.987 90.7037 120.23 91.0546C118.593 91.7768 117.263 93.051 116.47 94.6546C114.626 98.4507 114.288 102.805 115.525 106.84C116.28 109.355 117.592 111.668 119.361 113.609C121.131 115.549 123.315 117.067 125.75 118.05C128.2 118.995 130.827 119.395 133.448 119.222C136.068 119.05 138.62 118.308 140.925 117.05C142.66 116.095 144.295 114.795 144.88 112.805C145.023 112.33 145.076 111.833 145.035 111.34Z" fill="white"/>
</g>
<g opacity="0.3">
<path d="M133.795 87.8009C133.796 88.2157 133.674 88.6215 133.444 88.9667C133.215 89.312 132.888 89.5813 132.504 89.7405C132.121 89.8997 131.7 89.9416 131.293 89.8609C130.886 89.7802 130.512 89.5806 130.219 89.2873C129.926 88.994 129.726 88.6203 129.645 88.2134C129.565 87.8066 129.607 87.3849 129.766 87.0019C129.925 86.6189 130.194 86.2917 130.54 86.0619C130.885 85.8321 131.291 85.71 131.705 85.7109C132.26 85.7109 132.791 85.9311 133.183 86.3231C133.575 86.715 133.795 87.2466 133.795 87.8009Z" fill="white"/>
</g>
<path d="M124.715 119.95C124.593 119.915 124.476 119.867 124.365 119.805C124.145 119.695 123.805 119.56 123.4 119.305C122.231 118.668 121.131 117.911 120.12 117.045C118.615 115.761 117.306 114.263 116.235 112.6C113.546 108.503 112.512 103.54 113.34 98.71C113.656 96.7658 114.252 94.8778 115.11 93.105C115.69 91.9079 116.394 90.7751 117.21 89.725C117.49 89.35 117.75 89.09 117.91 88.9C117.99 88.802 118.077 88.7101 118.17 88.625C118.105 88.7344 118.032 88.8381 117.95 88.935C117.805 89.135 117.56 89.4 117.295 89.79C116.518 90.8533 115.849 91.9904 115.295 93.185C114.459 94.955 113.881 96.8358 113.58 98.77C112.786 103.54 113.806 108.435 116.44 112.49C117.49 114.141 118.769 115.634 120.24 116.925C121.233 117.797 122.308 118.571 123.45 119.235C123.845 119.485 124.18 119.63 124.39 119.735C124.505 119.796 124.614 119.868 124.715 119.95Z" fill="white"/>
<path d="M133.194 121.281C132.494 121.37 131.785 121.37 131.084 121.281C130.377 121.283 129.672 121.201 128.984 121.036C129.687 120.946 130.397 120.946 131.099 121.036C131.805 121.033 132.508 121.115 133.194 121.281Z" fill="white"/>
<path d="M150.99 104.661C150.935 104.661 151.165 103.661 151.24 102.076C151.24 101.671 151.265 101.236 151.24 100.766C151.215 100.296 151.18 99.7907 151.13 99.2657C150.855 96.9841 150.142 94.7771 149.03 92.7657C148.76 92.3107 148.53 91.8657 148.245 91.4857C147.96 91.1057 147.745 90.7407 147.475 90.4207C146.475 89.1657 145.725 88.5107 145.76 88.4707C145.956 88.5988 146.137 88.748 146.3 88.9157C146.508 89.0953 146.705 89.2873 146.89 89.4907C147.11 89.7307 147.39 89.9907 147.62 90.3057C147.904 90.6437 148.171 90.9958 148.42 91.3607C148.705 91.7457 148.96 92.1907 149.24 92.6457C150.391 94.6798 151.114 96.9273 151.365 99.2507C151.42 99.7489 151.45 100.25 151.455 100.751C151.469 101.193 151.458 101.635 151.42 102.076C151.401 102.439 151.363 102.801 151.305 103.161C151.274 103.433 151.227 103.704 151.165 103.971C151.126 104.205 151.068 104.436 150.99 104.661Z" fill="white"/>
<g opacity="0.3">
<path d="M55.9395 162.359V169.189H201.194V163.389L55.9395 162.359Z" fill="#BBBBBB"/>
</g>
<path d="M75.2404 188.516L68.4004 209.401H189.925L182.005 188.516H75.2404Z" fill="#D7D7D7"/>
<path d="M186.175 188.515C186.175 188.585 160.335 188.645 128.475 188.645C96.6145 188.645 70.7695 188.585 70.7695 188.515C70.7695 188.445 96.5995 188.385 128.475 188.385C160.35 188.385 186.175 188.44 186.175 188.515Z" fill="#E9E9EA"/>
<path d="M184.945 84.575L193.805 87.02L187.26 88.62C183.915 89.155 182.42 90.59 181.815 92.455L179.77 108.955L177.27 92.455C176.962 91.6864 176.495 90.9915 175.9 90.4159C175.304 89.8404 174.594 89.397 173.815 89.115L165.315 87.04L174.285 84.5C175.026 84.1956 175.697 83.7432 176.256 83.1706C176.816 82.5981 177.253 81.9173 177.54 81.17L179.775 62.5L181.38 80.765C181.641 81.6318 182.098 82.4266 182.717 83.0875C183.335 83.7484 184.098 84.2575 184.945 84.575Z" fill="white"/>
<path d="M189.509 107.245L191.574 107.815L190.049 108.19C189.269 108.315 188.924 108.65 188.779 109.08L188.304 112.92L187.719 109.075C187.648 108.896 187.539 108.734 187.401 108.6C187.262 108.467 187.096 108.364 186.914 108.3L184.939 107.8L187.029 107.21C187.201 107.138 187.356 107.032 187.486 106.899C187.615 106.766 187.717 106.608 187.784 106.435L188.284 102.09L188.659 106.34C188.719 106.547 188.828 106.737 188.976 106.895C189.123 107.052 189.306 107.172 189.509 107.245Z" fill="white"/>
</svg>
