<svg width="91" height="80" viewBox="0 0 91 80" fill="none" xmlns="http://www.w3.org/2000/svg">
    <path d="M68.9772 0.125H6.69557C3.10665 0.125 0.197266 3.03439 0.197266 6.6233V68.905C0.197266 72.4939 3.10665 75.4033 6.69557 75.4033H68.9772C72.5662 75.4033 75.4755 72.4939 75.4755 68.905V6.6233C75.4755 3.03439 72.5662 0.125 68.9772 0.125Z" fill="#FAFAFA"/>
    <path d="M0.197714 6.62234C0.197714 6.62234 0.197714 6.36737 0.197714 5.87121C0.301663 4.90646 0.620576 3.97727 1.13099 3.15203C1.6414 2.32678 2.33033 1.62645 3.1471 1.10257C3.79754 0.672733 4.52176 0.366693 5.28334 0.199842C6.14055 0.0488792 7.01185 -0.00658943 7.88128 0.0344549L38.9808 0H60.4327H66.3177C67.3169 0 68.3093 0 69.336 0C70.3762 0.055913 71.3876 0.360777 72.2854 0.888951C73.2158 1.42269 74.0036 2.17314 74.5819 3.07653C75.1601 3.97992 75.5118 5.00955 75.6069 6.07794C75.6689 8.21418 75.6069 10.3366 75.6069 12.5073C75.6069 29.8522 75.6069 48.9199 75.6069 68.9316C75.6085 70.2183 75.2378 71.478 74.5397 72.5589C73.8415 73.6397 72.8456 74.4956 71.6721 75.0233C71.0934 75.2892 70.4777 75.4658 69.846 75.547C69.2282 75.6143 68.6064 75.6374 67.9854 75.616H49.9652H22.7523H7.01989C5.9912 75.6516 4.9674 75.4586 4.02227 75.0509C3.10065 74.6434 2.28332 74.0324 1.63166 73.2638C0.980004 72.4952 0.510955 71.5889 0.259734 70.613C0.0617948 69.6642 -0.00773783 68.693 0.0530021 67.7257V64.9072C0.0530021 63.0696 0.0530021 61.2457 0.0530021 59.4357C0.0530021 55.8523 0.0530021 52.4205 0.0530021 49.1404C0.0530021 36.0473 0.10124 25.4143 0.115022 18.0684C0.115022 14.4093 0.115021 11.5633 0.149477 9.62686C0.149477 8.6621 0.149477 7.93165 0.149477 7.4286C0.149477 6.92555 0.149477 6.67747 0.149477 6.67747C0.149477 6.67747 0.149477 6.93244 0.149477 7.4286C0.149477 7.92475 0.149477 8.6621 0.149477 9.62686C0.149477 11.5633 0.149478 14.4093 0.183933 18.0684C0.183933 25.4143 0.218389 36.0266 0.239062 49.1404C0.239062 52.4205 0.239062 55.8523 0.239062 59.4357C0.239062 61.2182 0.239062 63.042 0.239062 64.9072V67.7257C0.186228 68.6678 0.255717 69.6129 0.445794 70.5372C0.686399 71.4686 1.13512 72.3332 1.75819 73.0661C2.38125 73.799 3.16244 74.381 4.04294 74.7683C4.94894 75.1589 5.93062 75.3425 6.91653 75.3059H67.9303C68.5351 75.327 69.1406 75.3063 69.7426 75.2438C70.3377 75.1621 70.918 74.995 71.4654 74.7477C72.5767 74.248 73.5199 73.4378 74.1814 72.4144C74.8428 71.3911 75.1943 70.1983 75.1935 68.9798C75.1935 48.9957 75.1935 29.9004 75.1935 12.5556C75.1935 10.3987 75.1935 8.23485 75.1935 6.15374C75.1046 5.13678 74.7711 4.15637 74.2216 3.29606C73.6721 2.43575 72.9227 1.72105 72.0373 1.21283C71.2102 0.696511 70.2729 0.382509 69.3016 0.296317C68.3024 0.296317 67.2894 0.296317 66.2971 0.296317H60.4121L38.9808 0.254972L7.88128 0.199842C7.02179 0.158293 6.1603 0.206794 5.3109 0.344555C4.5757 0.501729 3.8752 0.791268 3.24358 1.19905C2.23485 1.83172 1.42327 2.73402 0.900606 3.80389C0.467103 4.68217 0.227395 5.64335 0.197714 6.62234Z" fill="#E9E9EA"/>
    <path d="M55.7672 57.2851C55.5192 56.7613 52.3768 45.4324 52.3768 45.4324L52.9557 33.3661L53.5276 16.6483L45.403 15.2012C39.5112 18.6467 30.2426 20.0249 24.2405 17.2685C24.2405 17.2685 21.0017 17.4201 19.4167 18.8741C18.8103 19.4323 19.7958 24.3043 20.6847 29.1074C21.6219 34.1586 24.2543 46.7141 24.2543 46.7141C24.2543 46.7141 19.7889 57.4849 18.8379 60.579C18.8379 60.579 46.1266 55.6312 55.2642 60.579C55.2642 60.5859 57.1937 60.3171 55.7672 57.2851Z" fill="#E9E9EA"/>
    <path d="M9.41701 25.0083L19.5883 18.7305L22.3447 32.7263L17.1006 37.1848C17.1006 37.1848 9.13447 33.0846 9.41701 25.0083Z" fill="#E9E9EA"/>
    <path d="M53.5288 16.6504L63.8654 21.1296C63.8654 21.1296 60.4681 34.0917 58.4835 35.6009L53.2394 33.382L51.9507 37.4132L51.8818 21.1365L53.5288 16.6504Z" fill="#E9E9EA"/>
    <path d="M18.0461 35.8885C17.8603 35.8351 17.6837 35.7538 17.5224 35.6473C17.076 35.3923 16.6477 35.1068 16.2406 34.7928C14.8551 33.7573 13.665 32.4832 12.7262 31.0303C12.2039 30.2176 11.7653 29.3541 11.4169 28.453C11.1549 27.7223 10.9657 26.9675 10.8518 26.1997C10.7696 25.6848 10.7327 25.1636 10.7415 24.6423C10.7235 24.4498 10.7422 24.2557 10.7967 24.0703C10.8587 24.0703 10.8518 24.8835 11.0999 26.1376C11.2465 26.8823 11.4563 27.6131 11.727 28.3221C12.0702 29.1826 12.49 30.0105 12.9811 30.796C13.9022 32.2156 15.0391 33.4827 16.3509 34.5517C17.3846 35.413 18.0806 35.8334 18.0461 35.8885Z" fill="white"/>
    <path d="M20.9459 30.769C20.9459 30.769 20.7943 30.7208 20.5462 30.5692C20.2403 30.3312 19.9524 30.0709 19.6848 29.7905C18.7954 28.8429 17.9821 27.8268 17.2523 26.7515C16.5128 25.6861 15.8386 24.5769 15.2332 23.43C14.949 22.9687 14.7505 22.4597 14.6475 21.9277C14.6957 21.9277 14.9438 22.4652 15.4606 23.306C15.9774 24.1467 16.6941 25.2975 17.5279 26.5379C18.3618 27.7783 19.2094 28.8671 19.8502 29.6113C20.1741 29.9765 20.4498 30.2591 20.6427 30.452C20.8357 30.645 20.9528 30.7414 20.9459 30.769Z" fill="white"/>
    <path d="M52.3343 17.5996C51.9263 17.7354 51.5096 17.8436 51.087 17.9235C50.2808 18.1233 49.1231 18.4334 47.7104 18.8676L42.7282 20.425C40.7016 21.0678 38.628 21.5516 36.5262 21.8721C32.6404 22.4034 28.6842 22.014 24.9767 20.7351C23.8647 20.3557 22.7822 19.8951 21.7379 19.3568C21.3658 19.1708 21.097 18.9916 20.9041 18.8814C20.8044 18.8289 20.7118 18.7641 20.6284 18.6884C21.03 18.8423 21.4213 19.0219 21.7999 19.2259C22.8582 19.7236 23.9469 20.154 25.0594 20.5145C28.7298 21.703 32.6203 22.0515 36.4435 21.5344C38.5426 21.2319 40.6158 20.7712 42.6455 20.1562C44.5267 19.6049 46.2082 19.0674 47.6415 18.6677C49.0748 18.268 50.2463 17.9786 51.087 17.8339C51.4936 17.7512 51.7762 17.7099 52.0311 17.6754C52.1272 17.6332 52.2297 17.6076 52.3343 17.5996Z" fill="white"/>
    <path d="M53.4511 27.0747C53.3434 27.11 53.2326 27.1354 53.1203 27.1505L52.1693 27.3021C51.3424 27.4399 50.1434 27.5915 48.6549 27.7432C45.6779 28.0533 41.5433 28.2944 36.94 28.3013C32.3368 28.3082 28.2366 28.1359 25.2252 27.9843L21.7521 27.7638L20.7942 27.688C20.6803 27.6833 20.5672 27.6672 20.4565 27.6398C20.5684 27.622 20.6824 27.622 20.7942 27.6398H21.7521L25.2941 27.7294C28.2779 27.819 32.4057 27.9499 36.9676 27.943C41.5295 27.9361 45.6435 27.7363 48.6204 27.4882C50.1089 27.371 51.3148 27.2539 52.1487 27.1643L53.1065 27.0747C53.2206 27.0558 53.337 27.0558 53.4511 27.0747Z" fill="white"/>
    <path d="M52.9535 33.3652C52.5751 33.5263 52.183 33.6531 51.782 33.7442C51.403 33.8614 50.9344 33.9648 50.4038 34.0888C49.8732 34.2128 49.2254 34.3438 48.5225 34.4471C44.8746 35.0285 41.1902 35.3509 37.4968 35.4119C33.1761 35.5359 29.2619 35.4119 26.471 35.1914C25.0928 35.088 23.9144 34.964 23.1288 34.8606C22.7203 34.8159 22.3152 34.7445 21.916 34.647C22.3263 34.6365 22.7367 34.6619 23.1426 34.7228C23.9351 34.7779 25.0721 34.8675 26.4848 34.9364C29.3033 35.0673 33.2105 35.1776 37.5106 35.0536C41.1995 34.9887 44.8814 34.7033 48.5363 34.1991C49.2254 34.1095 49.8663 33.9992 50.4176 33.889C50.9688 33.7787 51.4443 33.7029 51.7958 33.6064C52.1765 33.503 52.5631 33.4225 52.9535 33.3652Z" fill="white"/>
    <path d="M52.0709 41.9721C51.7012 42.0554 51.3257 42.1107 50.9476 42.1375C50.2585 42.2202 49.1697 42.3167 47.8673 42.4269C45.2625 42.6268 41.6653 42.8335 37.6685 42.8817C33.6717 42.93 30.0883 42.7853 27.4628 42.551C26.1604 42.4269 25.106 42.3098 24.3825 42.1788C24.0058 42.137 23.6327 42.0679 23.2661 41.9721C23.6464 41.961 24.027 41.984 24.4031 42.041C25.0923 42.1237 26.181 42.2064 27.4766 42.296C30.0814 42.4683 33.6786 42.5785 37.6616 42.5234C41.6447 42.4683 45.2418 42.3098 47.8466 42.172L50.9338 41.9997C51.3113 41.9572 51.6918 41.9479 52.0709 41.9721Z" fill="white"/>
    <path d="M53.755 50.4476C53.3455 50.4652 52.9352 50.4491 52.5284 50.3994L49.1862 50.1651C46.3677 49.979 42.4605 49.7861 38.1605 49.7861C33.8604 49.7861 29.9394 49.979 27.1347 50.1651L23.7925 50.3994C23.3857 50.4491 22.9754 50.4652 22.5659 50.4476C22.9652 50.3564 23.3705 50.2942 23.7788 50.2616C24.5643 50.1582 25.7014 50.041 27.114 49.9101C29.9325 49.662 33.8466 49.4277 38.1398 49.4277C42.4329 49.4277 46.3677 49.662 49.1655 49.9101C50.5437 50.0341 51.7152 50.1582 52.5008 50.2616C52.9229 50.2922 53.3422 50.3544 53.755 50.4476Z" fill="white"/>
    <path d="M57.0232 20.2337C56.7447 21.2895 56.2778 22.2864 55.6449 23.1762C55.112 24.1297 54.4117 24.9794 53.5776 25.6846C53.4949 25.6226 54.3839 24.4855 55.3142 22.9833C56.2445 21.481 56.8991 20.1855 57.0232 20.2337Z" fill="white"/>
    <path d="M19.791 24.0957C19.8976 24.3781 19.9715 24.6717 20.0115 24.9709L20.5284 27.3896C20.9694 29.5052 21.5551 32.2892 22.2029 35.3695C22.8507 38.4498 23.402 41.3165 23.7741 43.3701C23.9532 44.3969 24.0911 45.2307 24.1738 45.8095C24.2295 46.1095 24.2572 46.414 24.2565 46.7192C24.1507 46.4341 24.0768 46.1383 24.0359 45.8371L23.5191 43.4183C23.0781 41.3096 22.4923 38.5188 21.8515 35.4384C21.2106 32.3581 20.6455 29.4983 20.2803 27.4379C20.0942 26.4111 19.9564 25.5773 19.8737 24.9984C19.8181 24.7008 19.7904 24.3985 19.791 24.0957Z" fill="#E9E9EA"/>
    <path d="M53.6296 27.8047C53.6556 28.0337 53.6556 28.2648 53.6296 28.4938C53.6296 28.9417 53.5882 29.5895 53.5538 30.3888C53.4711 31.9807 53.3332 34.1858 53.161 36.5908C52.9887 38.9958 52.8095 41.2285 52.6648 42.7928C52.589 43.5922 52.527 44.2399 52.4719 44.681C52.4593 44.9144 52.42 45.1456 52.3547 45.3701C52.3199 45.1417 52.3199 44.9094 52.3547 44.681C52.3547 44.2331 52.3547 43.5853 52.4305 42.7859C52.5132 41.1941 52.651 38.9889 52.8233 36.5839C52.9956 34.179 53.1747 31.9462 53.3195 30.382C53.3884 29.5826 53.4573 28.9417 53.5124 28.4938C53.5149 28.2594 53.5545 28.0268 53.6296 27.8047Z" fill="#E9E9EA"/>
    <path d="M61.0957 20.0879C60.8561 20.7938 60.5731 21.4843 60.2481 22.1552C59.7106 23.4163 59.0215 25.1804 58.3806 27.165C57.7398 29.1497 57.2918 30.9965 57.0024 32.3402C56.8777 33.0708 56.7098 33.7934 56.4994 34.5041C56.4677 34.3055 56.4677 34.1031 56.4994 33.9045C56.5407 33.5186 56.6165 32.9673 56.7337 32.2851C57.0419 30.5163 57.4725 28.7709 58.0223 27.0617C58.5669 25.3487 59.2276 23.6749 60 22.0519C60.2963 21.4317 60.5513 20.9355 60.7443 20.5978C60.8377 20.4127 60.9559 20.2411 61.0957 20.0879Z" fill="white"/>
    <path d="M55.734 57.7015C55.6059 57.6894 55.4791 57.6664 55.355 57.6326L54.2937 57.3776C53.832 57.2605 53.267 57.1227 52.6054 56.9917C51.9439 56.8608 51.2272 56.6747 50.3589 56.5507C49.4906 56.4267 48.6086 56.2475 47.6025 56.1441C46.5964 56.0407 45.5352 55.9305 44.4326 55.834C42.0091 55.6891 39.5791 55.6891 37.1556 55.834C34.7307 56.0101 32.3189 56.3346 29.9337 56.8057C28.838 57.0468 27.7975 57.2536 26.8396 57.5292C25.8818 57.8049 24.9859 58.0461 24.1728 58.301C23.3596 58.556 22.6429 58.811 22.009 59.0315C21.375 59.252 20.8306 59.4587 20.3896 59.6379L19.3697 60.0376C19.2518 60.0941 19.1265 60.1335 18.9976 60.1547C19.1041 60.0842 19.2171 60.0242 19.3352 59.9756L20.3275 59.5208C20.7617 59.3209 21.2923 59.0866 21.9332 58.8316C22.574 58.5767 23.3114 58.2941 24.0901 58.0461C24.8688 57.798 25.7853 57.481 26.7569 57.226C27.7286 56.971 28.7622 56.7161 29.8579 56.468C34.6665 55.4551 39.5946 55.1302 44.4946 55.5032C45.611 55.6066 46.6791 55.6893 47.6714 55.8478C48.6637 56.0063 49.5871 56.1372 50.4278 56.3026C51.2685 56.468 52.0128 56.6403 52.6743 56.7988C53.3359 56.9573 53.894 57.102 54.3489 57.2467L55.3963 57.5637C55.5152 57.5921 55.6291 57.6386 55.734 57.7015Z" fill="white"/>
    <path d="M68.7656 57.1895C68.7656 57.1895 71.7081 76.8153 72.0802 76.5672C72.4524 76.3191 77.476 71.6607 77.476 71.6607L85.6901 79.999L90.9687 74.7273L82.7476 66.5131L87.9022 61.6066L68.7656 57.1895Z" fill="#E9E9EA"/>
    <path d="M67.4435 58.1681C66.2329 58.5174 64.9913 58.7482 63.7361 58.8572C62.4998 59.086 61.2445 59.1968 59.9873 59.188C61.1965 58.8431 62.4355 58.6124 63.6878 58.4989C64.927 58.2742 66.1841 58.1635 67.4435 58.1681Z" fill="#E9E9EA"/>
    <path d="M66.8603 55.8706C65.8237 55.5337 64.8258 55.0879 63.8833 54.5406C62.8891 54.0925 61.9465 53.538 61.0718 52.8867C62.1097 53.22 63.108 53.6659 64.0487 54.2167C65.0429 54.6648 65.9856 55.2193 66.8603 55.8706Z" fill="#E9E9EA"/>
    <path d="M68.8687 55.2103C68.1498 53.9784 67.5322 52.6901 67.0219 51.3582C66.4021 50.0722 65.8948 48.7349 65.5059 47.3613C66.2265 48.5923 66.8442 49.8807 67.3527 51.2134C67.9653 52.5025 68.4723 53.8392 68.8687 55.2103Z" fill="#E9E9EA"/>
    <path d="M71.9448 50.3145C71.9246 51.1788 71.7879 52.0364 71.5382 52.8642C71.4037 53.7196 71.1509 54.5522 70.7871 55.3381C70.8026 54.4738 70.9371 53.6159 71.1868 52.7884C71.3254 51.933 71.5805 51.1006 71.9448 50.3145Z" fill="#E9E9EA"/>
</svg>
