<svg width="145" height="410" viewBox="0 0 145 410" fill="none" xmlns="http://www.w3.org/2000/svg">
<path d="M67.1482 397.043L63.9736 350.28L89.276 352.659L87.167 397.996L74.7242 398.686L67.1482 397.043Z" fill="#FFBE9D"/>
<path d="M66.4234 394.721L66.4318 396.086C66.4318 396.086 43.3862 405.609 43.1836 410.001L89.124 409.309L88.2684 394.031C81.4868 397.298 74.3444 397.762 66.4234 394.721Z" fill="#FBBA2D"/>
<g opacity="0.6">
<path d="M83.6898 398.98C84.5823 399.21 85.2122 400.2 85.0191 401.102C84.8261 402.004 83.8249 402.652 82.9281 402.439C82.0313 402.224 81.239 401.059 81.5323 400.185C81.8246 399.311 83.042 398.613 83.8618 399.036" fill="white"/>
</g>
<g opacity="0.6">
<path d="M89.123 409.308L88.9172 405.634L44.9612 407.643C44.9612 407.643 42.9293 408.564 43.1825 410L89.123 409.308Z" fill="white"/>
</g>
<path d="M66.2715 396.222C66.2821 396.447 67.4056 396.531 68.5197 397.236C69.6528 397.911 70.2362 398.875 70.4409 398.783C70.6477 398.736 70.2922 397.4 68.928 396.57C67.5713 395.73 66.2188 396.018 66.2715 396.222Z" fill="#263238"/>
<path d="M61.4842 398.294C61.4356 398.512 62.4136 398.88 63.1901 399.816C63.994 400.731 64.2019 401.753 64.4245 401.741C64.6365 401.772 64.7716 400.457 63.7841 399.309C62.8071 398.154 61.4852 398.08 61.4842 398.294Z" fill="#263238"/>
<path d="M58.8333 404.087C59.038 404.132 59.3334 403.007 58.7383 401.787C58.1528 400.562 57.0873 400.094 56.9955 400.283C56.872 400.469 57.5631 401.118 58.0357 402.127C58.5316 403.124 58.6096 404.069 58.8333 404.087Z" fill="#263238"/>
<path d="M119.061 365.718L90.6577 328.435L113.087 316.486L136.295 355.489L126.29 362.918L119.061 365.718Z" fill="#FFBE9D"/>
<path d="M117.177 364.189L117.936 365.325C117.936 365.325 103.945 385.965 106.195 389.743L144.159 363.863L135.031 351.582C131.169 358.044 125.462 362.365 117.177 364.189Z" fill="#FBBA2D"/>
<g opacity="0.6">
<path d="M133.941 358.225C134.813 357.926 135.884 358.406 136.219 359.263C136.555 360.122 136.076 361.215 135.21 361.531C134.343 361.846 133.041 361.309 132.803 360.419C132.566 359.528 133.198 358.275 134.115 358.177" fill="white"/>
</g>
<g opacity="0.6">
<path d="M144.16 363.845L141.965 360.891L106.383 386.776C106.383 386.776 105.194 388.664 106.197 389.724L144.16 363.845Z" fill="white"/>
</g>
<path d="M117.873 365.511C118.006 365.692 118.99 365.145 120.308 365.119C121.626 365.058 122.644 365.541 122.764 365.351C122.911 365.198 121.879 364.278 120.283 364.338C118.687 364.383 117.717 365.369 117.873 365.511Z" fill="#263238"/>
<path d="M115.016 369.88C115.096 370.089 116.114 369.857 117.278 370.211C118.452 370.532 119.189 371.272 119.368 371.138C119.562 371.048 118.95 369.875 117.494 369.461C116.042 369.035 114.898 369.701 115.016 369.88Z" fill="#263238"/>
<path d="M116.002 376.171C116.197 376.096 115.824 374.994 114.656 374.304C113.492 373.604 112.345 373.8 112.372 374.008C112.37 374.232 113.305 374.394 114.256 374.975C115.22 375.533 115.806 376.279 116.002 376.171Z" fill="#263238"/>
<path d="M75.1699 205.267C75.1699 205.267 53.2194 283.502 54.6996 289.126C56.1808 294.749 95.1603 352.514 96.2712 352.865C97.3821 353.217 128.19 334.854 128.19 334.854L96.2712 282.231C96.2712 282.231 114.041 244.169 119.224 227.354C124.407 210.539 125.405 209.682 122.185 194.374C120.234 185.094 111.527 172.667 111.527 172.667L110.132 168.369H74.1635L75.1699 205.267Z" fill="#263238"/>
<path d="M51.4767 168.369L48.8793 178.737C44.4366 181.9 37.7795 196.834 37.4092 202.809C37.0389 208.783 35.6072 233.318 35.5587 250.251C35.5017 269.912 57.3542 386.705 57.3542 386.705H96.6671L82.8169 201.403L79.3512 168.369H51.4767Z" fill="#263238"/>
<path d="M73.91 191.83C73.9195 191.832 73.8974 191.983 73.8457 192.274C73.7866 192.591 73.7054 193.019 73.602 193.568C73.3699 194.73 73.0375 196.398 72.6124 198.532C71.6956 202.831 70.3283 209.043 68.5179 216.689C66.7328 224.341 64.5225 233.433 62.3545 243.589C61.2889 248.669 60.217 254.013 59.3646 259.594C58.4699 265.166 57.7979 270.985 57.6819 276.959C57.588 282.919 58.0564 288.816 60.1326 294.067C62.0897 299.348 64.5584 304.221 66.967 308.812C71.8686 317.962 76.8145 325.911 81.1463 332.459C85.4782 339.009 89.2256 344.145 91.9254 347.609C93.3011 349.319 94.3583 350.657 95.1369 351.511C95.4998 351.934 95.7836 352.266 95.9935 352.51C96.1845 352.737 96.2784 352.857 96.272 352.864C96.272 352.864 94.527 351.162 91.7587 347.742C89.0041 344.314 85.2018 339.206 80.8235 332.674C76.4442 326.146 71.4582 318.209 66.5207 309.05C64.0931 304.454 61.6075 299.575 59.6273 294.252C57.5173 288.934 57.0362 282.936 57.1332 276.949C57.2503 270.936 57.9298 265.095 58.8329 259.511C59.6937 253.916 60.7794 248.566 61.8597 243.482C64.0573 233.323 66.3066 224.239 68.1402 216.599C69.9991 208.965 71.4234 202.768 72.4035 198.485C72.8719 196.361 73.238 194.702 73.4943 193.544C73.6199 193.001 73.718 192.576 73.7908 192.262C73.8604 191.976 73.9016 191.829 73.91 191.83Z" fill="#203864"/>
<path d="M120.297 196.176C120.306 196.207 119.839 196.396 118.962 196.65C118.088 196.906 116.792 197.191 115.166 197.366C111.936 197.733 107.265 197.458 102.644 195.463C98.0214 193.467 94.618 190.256 92.6704 187.653C91.6829 186.35 91.0024 185.212 90.5889 184.399C90.1732 183.588 89.9896 183.117 90.0192 183.104C90.1173 183.049 90.9497 184.9 92.9764 187.413C94.9746 189.917 98.3443 193.008 102.863 194.959C107.38 196.909 111.941 197.242 115.133 196.979C118.351 196.732 120.271 196.068 120.297 196.176Z" fill="#203864"/>
<path d="M53.5852 179.93C53.6211 179.942 53.5557 180.248 53.4059 180.793C53.2634 181.342 52.9965 182.117 52.6157 183.057C51.8592 184.936 50.5363 187.439 48.6119 189.876C46.6802 192.308 44.5459 194.17 42.8906 195.335C42.0635 195.921 41.3693 196.359 40.8681 196.623C40.3712 196.894 40.0885 197.027 40.0684 196.994C40.0209 196.915 41.0823 196.259 42.6574 195.024C44.2336 193.793 46.2835 191.922 48.1815 189.534C50.071 187.141 51.4225 184.717 52.2601 182.901C53.102 181.085 53.4966 179.902 53.5852 179.93Z" fill="#203864"/>
<path d="M117.259 30.4922C118.913 28.5605 119.36 25.674 118.368 23.3329C117.375 20.9908 114.989 19.3059 112.45 19.1519C113.268 16.7813 112.759 13.9992 111.155 12.0707C109.552 10.1421 106.911 9.1335 104.43 9.50275C104.267 6.99288 102.823 4.60012 100.678 3.28663C98.5333 1.97314 95.746 1.77375 93.4355 2.76862C91.9532 0.966664 89.6026 -0.0862404 87.2711 0.00554559C84.9395 0.0973316 82.6796 1.33275 81.344 3.24548C80.0474 3.46282 78.8035 3.96817 77.7137 4.70351C76.5427 4.46192 75.2682 4.70773 74.1773 5.23524C72.7942 5.90411 71.6474 6.96546 70.5228 8.01097C68.6934 9.71165 66.7817 11.5453 66.1329 13.9581C65.4091 16.6494 66.3639 19.7343 65.0082 22.1682C64.4754 23.1251 63.6156 23.9016 63.2558 24.9365C62.5732 26.9009 63.8973 29.0162 63.738 31.0893C63.5692 33.2827 61.7598 35.1965 61.9782 37.3846C62.1365 38.9713 63.3403 40.2532 64.6242 41.1984C65.9081 42.1437 67.3567 42.9044 68.4106 44.1008C69.2536 45.0577 69.798 46.2446 70.624 47.2152C72.9672 49.9709 77.6166 50.3306 80.3565 47.9685C82.188 49.5552 84.8941 49.7915 87.2384 49.1743C89.5826 48.5582 91.6546 47.2067 93.6802 45.8764C94.5485 47.0612 96.0382 47.7596 97.5036 47.671C98.969 47.5813 100.364 46.7067 101.081 45.4259C101.589 47.0284 103.486 47.844 105.158 47.6794C106.83 47.5148 108.326 46.6107 109.758 45.7287C112.442 44.0755 115.441 41.9 115.513 38.7487C115.557 36.8202 114.444 34.8294 115.177 33.0453C115.6 32.0262 116.539 31.3309 117.259 30.4922Z" fill="#263238"/>
<path d="M57.4487 17.9189C61.9705 12.1543 66.257 10.5992 71.2968 9.74149C78.9383 8.44171 87.448 9.7457 93.6599 14.3814C99.3622 18.6373 102.526 25.6627 103.406 32.7228C103.716 35.2137 102.967 37.6064 102.272 40.0192C101.577 42.431 98.8368 45.5 96.615 46.6679C94.3931 47.8358 93.4636 47.0878 91.5815 45.4262C90.4315 44.4102 89.7774 42.9617 89.1381 41.5659C86.4362 35.6684 83.3471 29.8226 78.8001 25.1963C74.253 20.5701 68.0305 17.2521 61.5464 17.4526" fill="#FBBA2D"/>
<path d="M91.1887 29.5886C90.409 27.4691 90.7519 25.1175 90.4618 22.8777C89.8214 17.9455 85.9758 13.775 81.3422 11.9689C76.7076 10.1627 71.4399 10.4897 66.7166 12.048C63.1992 13.2085 59.8358 15.0864 57.4494 17.9191C54.2823 21.6792 53.1154 27.0334 54.4289 31.7693L79.6658 28.4228C81.9995 30.4041 84.3881 32.4192 87.2355 33.5438C88.0711 33.874 88.971 34.1262 89.8593 33.9964C90.7477 33.8677 91.618 33.2748 91.8396 32.4055C92.0801 31.4538 91.5273 30.5096 91.1887 29.5886Z" fill="#263238"/>
<path d="M66.0896 18.9932L88.0222 23.9338C90.1481 24.1026 91.7907 25.8697 91.8044 28.003L90.9319 75.5924C90.8729 78.8429 89.7429 81.9837 87.7173 84.5273L85.5851 87.206C80.7247 93.3124 71.046 92.5676 67.4812 85.6245C67.2322 85.1392 67.0613 84.7151 66.9906 84.3722C66.922 83.9428 66.8123 83.659 66.7975 83.2951C66.2183 79.6015 66.5084 76.083 66.5084 76.083C66.3481 71.8429 66.3038 70.1032 66.3017 70.1422C66.3017 70.1422 57.3161 68.8899 55.1586 57.2648C54.0857 51.4833 54.13 41.9576 54.417 34.1642C54.6754 27.1495 59.0917 18.4361 66.0896 18.9932Z" fill="#FFBE9D"/>
<path d="M58.9713 41.4253C58.9639 42.2166 59.6275 42.876 60.4535 42.8981C61.2786 42.9203 61.9548 42.2999 61.9622 41.5087C61.9696 40.7174 61.3049 40.058 60.481 40.0348C59.6538 40.0116 58.9776 40.6341 58.9713 41.4253Z" fill="#263238"/>
<path d="M56.6106 39.0592C56.8016 39.2501 57.9136 38.3808 59.5246 38.3428C61.1335 38.2816 62.3372 39.0803 62.5071 38.8777C62.5904 38.788 62.3921 38.4409 61.8678 38.0791C61.3508 37.7193 60.4773 37.3785 59.4739 37.4091C58.4706 37.4408 57.6361 37.8322 57.1603 38.2226C56.676 38.6171 56.5167 38.9737 56.6106 39.0592Z" fill="#263238"/>
<path d="M74.2413 41.4127C74.2339 42.2039 74.8975 42.8623 75.7236 42.8855C76.5486 42.9076 77.2238 42.2873 77.2312 41.496C77.2386 40.7048 76.5749 40.0454 75.7499 40.0222C74.9249 39.9979 74.2487 40.6214 74.2413 41.4127Z" fill="#263238"/>
<path d="M72.452 38.9566C72.6429 39.1465 73.757 38.2782 75.367 38.2402C76.9748 38.179 78.1796 38.9777 78.3495 38.7751C78.4328 38.6855 78.2366 38.3384 77.7101 37.9765C77.1932 37.6157 76.3196 37.276 75.3163 37.3055C74.313 37.3372 73.4785 37.7286 73.0027 38.12C72.5184 38.5135 72.3591 38.8711 72.452 38.9566Z" fill="#263238"/>
<path d="M66.918 51.051C66.9233 50.9592 65.9179 50.8126 64.2889 50.6469C63.8764 50.6153 63.485 50.5436 63.408 50.265C63.3035 49.9696 63.4639 49.5223 63.6506 49.038C64.0115 48.0326 64.3892 46.9787 64.7858 45.8741C66.3589 41.3702 67.4867 37.6714 67.3052 37.6102C67.1227 37.5479 65.7005 41.1487 64.1265 45.6525C63.7488 46.7624 63.3869 47.8216 63.043 48.8344C62.8995 49.306 62.6452 49.843 62.871 50.4549C62.9902 50.7598 63.2972 50.975 63.5631 51.0394C63.8289 51.1133 64.06 51.1111 64.2647 51.1185C65.901 51.1618 66.9148 51.1428 66.918 51.051Z" fill="#263238"/>
<path d="M66.3008 70.144C66.3008 70.144 74.1669 70.4458 81.8253 65.5674C81.8253 65.5674 78.1053 73.7501 66.3926 72.962L66.3008 70.144Z" fill="#AA6550"/>
<path d="M67.6987 54.9015C68.2579 54.1208 69.2623 53.6735 70.273 53.7558C70.9735 53.8127 71.6888 54.1314 72.1287 54.6895C72.5687 55.2476 72.6784 56.0536 72.306 56.6064C71.8871 57.2289 70.9819 57.3935 70.2076 57.1951C69.4332 56.9968 68.758 56.5072 68.1165 56.0198C67.9393 55.8848 67.7578 55.7434 67.6439 55.5556C67.5299 55.3678 67.5004 55.1178 67.6302 54.9564" fill="#AA6550"/>
<path d="M71.6868 52.0413C71.4251 52.0328 71.4673 53.7821 70.0019 55.0618C68.5407 56.3457 66.6713 56.198 66.6639 56.4428C66.6417 56.5536 67.088 56.772 67.875 56.773C68.6473 56.7793 69.7677 56.5019 70.6645 55.7191C71.5581 54.9341 71.9242 53.9087 71.9653 53.1891C72.0128 52.457 71.806 52.0286 71.6868 52.0413Z" fill="#263238"/>
<path d="M72.0561 34.0882C72.2259 34.5218 73.8295 34.2729 75.7254 34.4511C77.6255 34.5915 79.1637 35.1053 79.4042 34.7054C79.5108 34.5144 79.2344 34.1093 78.6077 33.701C77.9863 33.2938 77.0009 32.9161 75.8625 32.8201C74.7242 32.7252 73.6903 32.933 73.0098 33.2305C72.323 33.528 71.9833 33.8814 72.0561 34.0882Z" fill="#263238"/>
<path d="M56.8931 32.0273C57.1853 32.386 58.2857 31.9766 59.6203 31.9239C60.9517 31.8247 62.0911 32.1054 62.3411 31.7161C62.4509 31.5272 62.2631 31.1653 61.7598 30.832C61.264 30.4996 60.4432 30.239 59.5264 30.2907C58.6106 30.3435 57.8247 30.6959 57.3699 31.0831C56.9089 31.4713 56.7644 31.8522 56.8931 32.0273Z" fill="#263238"/>
<path d="M95.2629 26.2409C93.0685 19.5152 83.2305 10.2627 76.1767 10.8061L64.9546 17.6457C65.6636 21.4807 68.6535 24.804 72.3924 25.9138C74.3896 26.5067 76.7908 26.6555 77.9871 28.3615C79.2099 30.1022 78.521 32.6554 79.6593 34.452C81.2376 36.9419 85.503 36.7931 86.6942 39.4897C87.2143 40.6682 86.9568 42.0819 87.4981 43.2508C88.2186 44.808 92.1886 46.7608 93.8207 46.2312C95.4528 45.7006 95.4381 42.9153 95.9624 41.452C96.8581 38.9517 96.473 37.6614 96.1618 36.2709C95.4265 32.9771 96.3095 29.4502 95.2629 26.2409Z" fill="#263238"/>
<path d="M99.6405 21.2132L98.7806 24.929C98.6604 22.0846 98.2109 19.388 96.8331 17.3097C94.0215 13.0685 87.8275 10.1904 82.9375 8.78517C78.0476 7.3799 72.0498 8.24079 67.3244 10.1261C63.7712 11.544 60.4669 13.4589 56.8492 18.3573C53.2622 23.2146 52.4287 30.5258 54.6485 31.8213C56.3987 26.7847 59.1745 21.018 63.5707 18.0028C67.968 14.9876 73.6851 13.7479 78.7987 15.2556C84.4916 16.9341 88.8329 21.7513 91.347 27.1276C92.5624 29.7282 93.4898 32.7023 94.2072 35.6837C95.0364 39.1294 94.9974 42.727 94.1323 46.1642L91.2911 56.1309L91.2278 59.3751C98.1582 56.8093 102.443 49.5846 103.587 42.2828C104.733 34.9832 103.915 27.9463 99.6405 21.2132Z" fill="#FBBA2D"/>
<path d="M93.8114 43.378C93.7565 43.359 93.9939 42.7787 94.1754 41.6826C94.3315 40.5928 94.4054 38.9459 93.8177 37.0542C93.2406 35.1943 92.0021 33.0304 89.8024 31.6336C88.7125 30.9278 87.4286 30.4035 86.1119 29.7926C84.8058 29.1807 83.4058 28.4559 82.3487 27.2395C81.2874 26.0188 80.7926 24.545 80.1648 23.2758C79.5614 21.9908 78.7311 20.8999 77.7573 20.0411C75.8108 18.3078 73.4444 17.5735 71.4874 17.545C69.5103 17.5007 67.9436 18.0208 66.9413 18.4776C65.9285 18.9376 65.4327 19.3227 65.4031 19.2784C65.3915 19.2625 65.5086 19.1592 65.7428 18.9756C65.9813 18.7973 66.3452 18.5483 66.8474 18.2856C67.8423 17.7602 69.4364 17.161 71.4926 17.1567C73.5288 17.1346 76.0292 17.8615 78.0917 19.6613C79.1193 20.5465 80.0171 21.7112 80.648 23.0405C81.2958 24.3456 81.7906 25.772 82.7623 26.8808C83.7287 27.9949 85.0506 28.6964 86.3398 29.3062C87.6354 29.9171 88.9415 30.4594 90.0777 31.2095C92.3893 32.7139 93.6415 35.0044 94.1902 36.9456C94.7504 38.9216 94.61 40.6202 94.3853 41.7216C94.2535 42.2734 94.1311 42.6964 94.0076 42.9686C93.8958 43.244 93.8293 43.3843 93.8114 43.378Z" fill="#203864"/>
<path d="M92.743 30.8798C92.6913 30.9093 92.4876 30.4588 91.8852 29.8522C91.287 29.235 90.2204 28.5862 88.8014 27.9511C88.0988 27.6198 87.3118 27.2738 86.5036 26.8022C85.706 26.3316 84.8578 25.7123 84.2459 24.8219C82.9968 23.0738 82.5958 20.7148 80.9237 19.0879C79.3032 17.4295 77.1288 16.5791 75.1475 16.3048C73.144 16.0347 71.2977 16.3312 69.8175 16.731C66.8424 17.5772 65.205 18.6733 65.1534 18.5636C65.1365 18.5351 65.5289 18.2492 66.2928 17.8198C67.0576 17.3957 68.2002 16.8207 69.7099 16.3576C71.2123 15.9007 73.1092 15.5494 75.2129 15.8026C77.2891 16.0632 79.5848 16.9346 81.3172 18.705C83.117 20.4869 83.5137 22.9229 84.6605 24.5318C85.802 26.1755 87.6124 26.8824 88.9713 27.6019C90.3755 28.2845 91.4664 29.0156 92.0403 29.7066C92.3283 30.0453 92.5203 30.3354 92.6132 30.5496C92.7155 30.7585 92.7598 30.8703 92.743 30.8798Z" fill="#203864"/>
<path d="M89.0037 47.6481C88.9837 46.7788 89.9342 44.7036 90.7899 44.5464C93.0729 44.1297 97.2096 44.2056 97.4006 50.0272C97.6601 57.9851 89.6178 56.6041 89.5956 56.3762C89.5787 56.199 89.0755 50.6507 89.0037 47.6481Z" fill="#FFBE9D"/>
<path d="M91.9277 53.2837C91.9615 53.2573 92.0701 53.3765 92.3065 53.4757C92.5386 53.5727 92.9342 53.6318 93.3435 53.463C94.1738 53.1275 94.8385 51.7697 94.83 50.3339C94.8269 49.6091 94.6528 48.9244 94.3774 48.361C94.1158 47.7871 93.7254 47.3925 93.3003 47.3313C92.8762 47.248 92.585 47.5106 92.4943 47.7375C92.3951 47.9643 92.451 48.1215 92.4088 48.1352C92.3877 48.1563 92.2337 48.0076 92.2875 47.6773C92.316 47.518 92.4025 47.3271 92.585 47.1678C92.7707 47.0064 93.0492 46.9177 93.3446 46.9399C93.9597 46.962 94.5304 47.5085 94.8332 48.1268C95.1698 48.7461 95.3829 49.5152 95.386 50.3286C95.3871 51.9343 94.6159 53.4609 93.4754 53.8312C92.9205 53.9947 92.4478 53.8418 92.201 53.6624C91.9488 53.4757 91.9003 53.2984 91.9277 53.2837Z" fill="#AA6550"/>
<path d="M98.6156 53.9013C98.5987 53.8918 98.7296 53.6101 98.9912 53.0847C99.2412 52.553 99.6084 51.7681 99.9882 50.7205C100.753 48.641 101.579 45.4686 101.535 41.4849C101.531 39.4994 101.253 37.3303 100.859 35.0209C100.454 32.7167 99.8742 30.2754 98.9532 27.8183C98.029 25.3654 96.7282 22.9125 94.9663 20.6716C93.2045 18.4361 91.0153 16.402 88.4685 14.7794C83.376 11.4762 77.3603 10.4665 72.1929 11.185C69.5965 11.5236 67.1963 12.2864 65.1032 13.2992C63.0153 14.3268 61.2218 15.5897 59.7659 16.9337C56.8266 19.6209 55.1882 22.4778 54.2714 24.4897C53.822 25.5078 53.5287 26.3233 53.3472 26.8814C53.171 27.4416 53.0687 27.7349 53.0508 27.7297C53.0328 27.7254 53.0982 27.4227 53.2417 26.8498C53.3894 26.278 53.651 25.4456 54.0752 24.4043C54.9403 22.3459 56.547 19.4183 59.5021 16.6478C60.9654 15.2626 62.779 13.9565 64.9017 12.8899C67.0307 11.838 69.4752 11.0426 72.1243 10.6839C77.392 9.92109 83.5585 10.9402 88.7629 14.3163C91.3645 15.9737 93.5969 18.0531 95.3894 20.3393C97.1819 22.6308 98.5006 25.1438 99.4259 27.64C100.35 30.1414 100.919 32.6165 101.307 34.9438C101.685 37.2701 101.942 39.4656 101.923 41.4828C101.918 45.5214 101.022 48.7212 100.188 50.7954C99.774 51.8398 99.3721 52.6163 99.0893 53.1333C98.795 53.6471 98.6325 53.9108 98.6156 53.9013Z" fill="#263238"/>
<path d="M95.2417 55.3348C95.3472 55.1871 95.6004 55.1195 95.9559 55.2883C96.303 55.4529 96.7303 55.8813 96.9212 56.5734C97.0162 56.9162 97.0542 57.3245 96.974 57.7718C96.8959 58.216 96.6659 58.7129 96.3136 59.1096C95.6014 59.903 94.4641 60.3419 93.2635 60.1256C92.0028 59.8935 91.144 58.9461 90.8222 58.0641C90.4783 57.1589 90.5595 56.2453 90.9119 55.5806C91.2495 54.937 91.8065 54.5836 92.2275 54.5319C92.6558 54.4739 92.869 54.6691 92.8901 54.8452C92.9185 55.0362 92.812 55.2282 92.7761 55.4498C92.736 55.6639 92.7191 55.9087 92.7571 56.1851C92.8014 56.4299 92.9185 56.739 93.1127 56.988C93.3121 57.2486 93.5621 57.3952 93.7668 57.4258C94.0157 57.4786 94.3439 57.4089 94.5327 57.3108C94.7142 57.2349 94.8904 57.046 94.9874 56.7611C95.2121 56.2104 95.037 55.6534 95.2417 55.3348Z" fill="#203864"/>
<path d="M32.8073 105.181C32.8073 105.181 34.1313 94.5876 39.2397 89.2904C44.347 83.9932 66.4547 77.1261 66.4547 77.1261C66.4547 77.1261 66.5982 84.9174 71.715 86.7394C77.1441 88.6732 82.4128 87.6467 86.3881 83.0352C90.2315 78.5768 90.9795 73.0137 90.9795 73.0137C90.9795 73.0137 117.737 75.4908 121.899 82.4908C126.061 89.4908 131.442 116.6 131.442 116.6L107.582 121.664L110.826 168.367H47.4202L48.6609 124.539L31.3999 127.004L32.8073 105.181Z" fill="#203864"/>
<path d="M102.844 123.207C102.806 123.206 102.778 122.832 102.759 122.153C102.74 121.476 102.73 120.496 102.732 119.285C102.732 116.864 102.771 113.519 102.847 109.827C102.924 106.133 103.023 102.789 103.123 100.368C103.173 99.1583 103.223 98.1793 103.27 97.502C103.316 96.8257 103.36 96.4512 103.398 96.4512C103.436 96.4512 103.465 96.8257 103.484 97.503C103.503 98.1803 103.512 99.1594 103.512 100.371C103.512 102.792 103.473 106.137 103.396 109.833C103.32 113.528 103.22 116.872 103.12 119.292C103.07 120.502 103.02 121.481 102.973 122.158C102.926 122.835 102.882 123.208 102.844 123.207Z" fill="#263238"/>
<path d="M42.783 103.98C42.9286 103.938 44.4183 108.674 46.1084 114.556C47.7996 120.441 49.0519 125.245 48.9052 125.286C48.7596 125.328 47.271 120.593 45.5798 114.708C43.8897 108.825 42.6374 104.022 42.783 103.98Z" fill="#263238"/>
<path d="M119.232 80.8116C119.251 80.9097 118.101 81.1207 116.358 81.7832C114.617 82.4384 112.312 83.6422 110.165 85.5022C108.026 87.3716 106.513 89.4869 105.623 91.1201C104.726 92.7533 104.357 93.8631 104.264 93.8304C104.228 93.8188 104.293 93.534 104.444 93.0255C104.584 92.5138 104.866 91.7953 105.279 90.9408C106.098 89.2285 107.606 87.0087 109.806 85.0875C112.013 83.1759 114.419 81.9911 116.228 81.4172C117.133 81.127 117.883 80.9466 118.409 80.8791C118.935 80.8 119.226 80.7746 119.232 80.8116Z" fill="#263238"/>
<path d="M38.8536 91.4294C39.0003 91.3925 39.5025 92.8653 39.973 94.7189C40.4446 96.5736 40.7073 98.1066 40.5596 98.1435C40.4129 98.1804 39.9118 96.7087 39.4402 94.854C38.9697 93.0003 38.707 91.4674 38.8536 91.4294Z" fill="#263238"/>
<path d="M127.197 117.505C127.197 117.505 120.05 153.798 119.232 156.904C118.415 160.01 117.094 168.37 108.44 170.098C96.7553 172.432 50.8687 170.803 50.8687 170.803L59.524 159.846L99.6724 148.588L105.16 122.182L127.197 117.505Z" fill="#FFBE9D"/>
<path d="M20.3438 110.763C20.3438 110.763 26.8141 132.534 29.4981 141.941C32.3508 151.936 38.5828 174.634 51.8696 170.6C61.9766 167.534 59.0015 154.436 59.0015 154.436L48.6592 124.541L40.6158 125.883L32.8045 105.724L20.3438 110.763Z" fill="#FFBE9D"/>
<path d="M55.4685 155.377C55.3419 155.37 56.17 153.476 55.4727 150.452C55.134 148.962 54.4293 147.252 53.3183 145.558C52.2095 143.855 50.7156 142.173 49.1268 140.417C47.5316 138.665 46.0504 136.922 44.9183 135.185C43.7694 133.462 42.9138 131.8 42.2755 130.375C41.6415 128.947 41.2332 127.749 40.98 126.915C40.7268 126.08 40.635 125.605 40.6667 125.596C40.7078 125.583 40.8692 126.037 41.1826 126.845C41.4959 127.653 41.9559 128.819 42.6279 130.211C43.3031 131.599 44.183 133.219 45.3382 134.901C46.4766 136.597 47.9378 138.295 49.5351 140.049C51.1229 141.805 52.6305 143.523 53.7435 145.282C54.8618 147.041 55.5518 148.821 55.8525 150.371C56.169 151.923 56.0645 153.226 55.8968 154.084C55.7976 154.514 55.7101 154.843 55.6193 155.057C55.5381 155.274 55.4864 155.383 55.4685 155.377Z" fill="#AA6550"/>
<path d="M9.56924 69.8735C9.56924 69.8735 10.6654 68.3944 13.2217 70.6775C15.778 72.9605 26.3703 90.8567 27.1921 92.5004C28.014 94.1441 32.8069 105.722 32.8069 105.722L22.1313 113.29L20.3441 110.762C20.3441 110.762 11.3955 102.817 9.56924 100.626C7.74302 98.4348 5.27746 95.2392 5.18673 94.7823C5.09494 94.3255 4.45665 92.0182 6.28182 91.3462C6.28182 91.3462 4.54739 88.5736 6.09931 87.2042C7.65123 85.8348 10.4818 87.1135 10.4818 87.1135L0.985671 74.8785C0.985671 74.8785 0.163819 71.2261 2.90368 72.5955C5.64249 73.9649 12.8567 84.4654 14.1343 84.7397C15.4129 85.014 15.4129 83.6446 15.4129 83.6446C15.4129 83.6446 7.92553 72.357 9.56924 69.8735Z" fill="#FFBE9D"/>
<path d="M19.3311 101.995C19.3089 102.002 19.2351 101.827 19.1138 101.486C18.9893 101.149 18.8447 100.634 18.7551 99.9576C18.5725 98.6452 18.6105 96.4824 20.1825 94.5327L20.1688 94.8302C19.2129 93.6676 18.1611 92.3879 17.0354 91.0185L17.1103 91.0818C16.356 90.6524 15.5932 90.1808 14.8167 89.6691C14.4295 89.4128 14.0413 89.1448 13.653 88.8652C13.2743 88.5846 12.8628 88.3145 12.501 87.9157C12.2056 87.5823 11.9344 87.1487 11.9313 86.6423C11.9175 86.1338 12.1454 85.6907 12.4967 85.3531L12.5991 85.2539L12.7478 85.2961C15.1195 85.9682 17.3403 86.598 19.3121 87.1571L19.3554 87.1688L19.387 87.193C21.4622 88.7386 23.2199 90.0489 24.5608 91.047C25.7983 91.9901 26.4915 92.5482 26.4619 92.5883C26.4324 92.6295 25.6854 92.1473 24.3994 91.2696C23.0289 90.3116 21.2312 89.0562 19.1106 87.5749L19.1855 87.6108C17.2074 87.0728 14.9802 86.4672 12.6022 85.8194L12.8533 85.7624C12.6371 85.9745 12.4566 86.3142 12.4799 86.6275C12.4767 86.9493 12.6655 87.27 12.9114 87.5486C13.1983 87.8714 13.5939 88.1394 13.9748 88.421C14.3557 88.6964 14.7376 88.9623 15.1184 89.2165C15.8802 89.724 16.6377 90.1998 17.3688 90.625L17.4141 90.6513L17.4437 90.6883C18.5483 92.0735 19.5811 93.3701 20.519 94.5464L20.6372 94.6952L20.5053 94.844C19.7795 95.6648 19.3765 96.6807 19.1697 97.5617C18.9576 98.4574 18.9587 99.2718 19.0114 99.9281C19.1296 101.252 19.3986 101.976 19.3311 101.995Z" fill="#AA6550"/>
<path d="M10.5946 87.7147C10.6231 87.6936 10.9586 88.0639 11.4977 88.7898C12.0326 89.5177 12.77 90.6033 13.5339 92.0318C13.9126 92.7534 14.3146 93.5247 14.6691 94.4404C14.8263 94.9015 14.9645 95.4374 14.8178 96.0166C14.6765 96.6021 14.1278 97.0695 13.537 97.1792C12.9389 97.3196 12.309 97.1581 11.7868 96.8923C11.2582 96.6222 10.7919 96.273 10.3351 95.8879C9.42988 95.1103 8.65867 94.1471 7.9613 93.1238C7.57517 92.5593 7.21752 91.9917 6.88203 91.4568L7.31986 91.133C8.78632 92.8442 9.94367 94.6303 10.8024 96.3616C11.0092 96.8068 11.1728 97.2995 11.1348 97.8143C11.0936 98.3134 10.8636 98.8156 10.4248 99.0888C9.98481 99.361 9.45098 99.3061 9.07012 99.1426C8.6766 98.9801 8.36115 98.7438 8.08368 98.5054C7.0139 97.539 6.28383 96.6486 5.8133 96.0124C5.34593 95.3741 5.13599 94.9932 5.16236 94.9753C5.23727 94.911 6.18362 96.3964 8.32001 98.2247C8.82325 98.6341 9.59129 99.1004 10.1927 98.7217C10.4733 98.5412 10.6505 98.1699 10.6727 97.7816C10.6948 97.3945 10.5609 96.9767 10.3615 96.5705C9.50584 94.9131 8.34533 93.1554 6.90629 91.4896L7.34412 91.1657C7.68067 91.6984 8.03621 92.2597 8.41496 92.8125C9.09861 93.8159 9.83817 94.7411 10.6875 95.4796C11.5262 96.1896 12.5052 96.8828 13.4294 96.6823C13.8873 96.5937 14.2407 96.292 14.3526 95.8847C14.4676 95.4764 14.3768 95.0101 14.2376 94.5839C13.9274 93.7283 13.536 92.9191 13.1889 92.207C12.4778 90.7732 11.7984 89.6665 11.3205 88.9079C10.8404 88.1525 10.5619 87.739 10.5946 87.7147Z" fill="#AA6550"/>
<path d="M58.7669 153.717C58.7986 153.707 58.9347 153.999 59.1098 154.554C59.2849 155.108 59.4727 155.935 59.5698 156.974C59.7776 159.034 59.4886 162.047 57.9303 164.879C57.1601 166.266 56.2929 167.533 55.3033 168.519C54.3222 169.514 53.2228 170.185 52.2385 170.559C51.2531 170.941 50.4039 171.054 49.8257 171.103C49.2433 171.128 48.9226 171.109 48.9216 171.073C48.9036 170.956 50.2287 170.996 52.0898 170.201C53.0108 169.798 54.0246 169.132 54.9415 168.164C55.8656 167.206 56.6949 165.972 57.4492 164.613C58.9431 161.901 59.287 159.013 59.1826 156.999C59.0887 154.964 58.6678 153.743 58.7669 153.717Z" fill="#AA6550"/>
</svg>
