<svg width="132" height="162" viewBox="0 0 132 162" fill="none" xmlns="http://www.w3.org/2000/svg">
<path d="M35.7836 21.4435L38.4653 59.4284C38.6778 62.4176 40.0155 65.2152 42.2088 67.2572C44.4021 69.2993 47.2879 70.434 50.2847 70.4326C51.9068 70.4329 53.5117 70.1 54.9999 69.4544C56.488 68.8089 57.8277 67.8646 58.9359 66.68C60.044 65.4954 60.897 64.0958 61.442 62.568C61.987 61.0402 62.2123 59.4167 62.1041 57.7982C61.8677 54.1831 61.6517 51.2241 61.6517 51.2241C61.6517 51.2241 70.8504 49.7936 70.9645 40.599C71.0297 35.3006 70.1127 23.2367 69.3342 14.0054C69.0769 10.9952 67.6992 8.19119 65.4735 6.14816C63.2478 4.10513 60.3364 2.97189 57.3152 2.97266H51.7438C49.4715 3.10519 47.2489 3.69227 45.2075 4.69913C43.1662 5.706 41.3476 7.1122 39.8594 8.83447C38.3712 10.5567 37.2437 12.5601 36.5436 14.7259C35.8435 16.8917 35.5851 19.176 35.7836 21.4435Z" fill="#F5F5F5"/>
<path d="M61.6593 51.1104C61.6593 51.1104 55.8474 51.5831 49.6729 47.7031C49.6729 47.7031 52.5054 54.322 61.6797 53.4946L61.6593 51.1104Z" fill="#E9E9EA"/>
<path d="M66.4605 25.1353C66.4639 25.4778 66.3333 25.8081 66.0964 26.0556C65.8596 26.3031 65.5354 26.4482 65.193 26.4599C65.0261 26.4732 64.8583 26.453 64.6993 26.4004C64.5404 26.3479 64.3936 26.2641 64.2675 26.1539C64.1414 26.0438 64.0386 25.9096 63.9652 25.7591C63.8918 25.6087 63.8492 25.4451 63.8399 25.2779C63.8365 24.9357 63.9664 24.6055 64.2023 24.3575C64.4382 24.1094 64.7614 23.963 65.1034 23.9493C65.2708 23.936 65.4392 23.9563 65.5986 24.009C65.758 24.0618 65.9053 24.1459 66.0318 24.2564C66.1582 24.3669 66.2613 24.5016 66.335 24.6525C66.4086 24.8035 66.4513 24.9676 66.4605 25.1353Z" fill="#DCDCDD"/>
<path d="M67.7326 23.2449C67.5695 23.4161 66.5751 22.6825 65.1649 22.6865C63.7548 22.6906 62.7195 23.3957 62.5606 23.2245C62.4872 23.1471 62.6543 22.8169 63.1027 22.5072C63.7143 22.0843 64.4417 21.8608 65.1853 21.8673C65.9176 21.8643 66.6317 22.0957 67.2231 22.5276C67.6674 22.8618 67.8141 23.1715 67.7326 23.2449Z" fill="#DCDCDD"/>
<path d="M52.6725 25.135C52.6758 25.4775 52.5452 25.8078 52.3083 26.0553C52.0715 26.3028 51.7473 26.4479 51.4049 26.4595C51.2381 26.4728 51.0702 26.4526 50.9113 26.4001C50.7523 26.3476 50.6055 26.2638 50.4794 26.1536C50.3533 26.0435 50.2505 25.9093 50.1771 25.7588C50.1037 25.6084 50.0611 25.4448 50.0518 25.2776C50.0484 24.9347 50.1789 24.6039 50.4157 24.3558C50.6524 24.1076 50.9766 23.9617 51.3193 23.949C51.4864 23.9362 51.6544 23.957 51.8133 24.01C51.9723 24.063 52.1191 24.1472 52.2451 24.2576C52.3711 24.3681 52.4738 24.5026 52.5472 24.6532C52.6206 24.8039 52.6632 24.9676 52.6725 25.135Z" fill="#DCDCDD"/>
<path d="M53.8472 23.5066C53.6842 23.6778 52.6857 22.9401 51.2755 22.9442C49.8653 22.9483 48.8301 23.6574 48.6712 23.4822C48.5978 23.4048 48.7608 23.0991 49.2132 22.769C49.8262 22.3482 50.5525 22.1236 51.2959 22.125C52.0273 22.1276 52.7397 22.3584 53.3337 22.7853C53.778 23.1235 53.9247 23.4333 53.8472 23.5066Z" fill="#DCDCDD"/>
<path d="M58.9741 33.9859C58.9741 33.9044 59.8463 33.7536 61.2687 33.5783C61.6274 33.5376 61.9697 33.4683 62.0309 33.2197C62.0621 32.8475 61.9781 32.4747 61.7904 32.1519C61.4535 31.2797 61.0976 30.364 60.7226 29.4049C59.2431 25.4923 58.1672 22.2766 58.3261 22.2195C58.4851 22.1625 59.8137 25.2844 61.2973 29.1929C61.6532 30.1602 61.9942 31.0827 62.3202 31.9603C62.4547 32.3679 62.6911 32.8325 62.5037 33.3745C62.4524 33.5019 62.3724 33.6156 62.2699 33.7068C62.1674 33.798 62.0451 33.8643 61.9127 33.9003C61.7138 33.9569 61.5081 33.9857 61.3013 33.9859C59.8667 34.0593 58.9782 34.0674 58.9741 33.9859Z" fill="#DCDCDD"/>
<path d="M54.8174 34.965C55.0456 34.965 55.0497 36.4852 56.362 37.5734C57.6744 38.6616 59.3047 38.4945 59.3169 38.7064C59.3413 38.8042 58.9542 39.0039 58.2654 39.0243C57.3666 39.0369 56.4921 38.7325 55.7955 38.1644C55.1269 37.6183 54.6971 36.8333 54.5973 35.9757C54.5402 35.3236 54.7114 34.9568 54.8174 34.965Z" fill="#DCDCDD"/>
<path d="M54.2098 17.9703C54.0713 18.3779 52.6611 18.1741 51.0023 18.3779C49.3435 18.5816 48.0026 19.03 47.7825 18.6835C47.6847 18.5205 47.917 18.1578 48.4591 17.7869C49.1798 17.3315 49.9947 17.0461 50.842 16.9522C51.6893 16.8583 52.5469 16.9583 53.3499 17.2448C53.9816 17.4894 54.271 17.7991 54.2098 17.9703Z" fill="#DCDCDD"/>
<path d="M67.2152 19.156C66.9665 19.478 65.9925 19.156 64.8228 19.1275C63.653 19.0989 62.6627 19.3435 62.4344 19.0093C62.3325 18.8462 62.4874 18.5243 62.9235 18.2186C63.5051 17.8543 64.182 17.6714 64.8679 17.6931C65.5538 17.7149 66.2177 17.9404 66.775 18.3409C67.1866 18.6669 67.3252 19.0215 67.2152 19.156Z" fill="#DCDCDD"/>
<path d="M38.9016 28.3444C38.7427 28.2751 32.5844 26.4778 32.7882 32.7624C32.9919 39.047 39.2562 37.5513 39.2643 37.3679C39.2725 37.1845 38.9016 28.3444 38.9016 28.3444Z" fill="#F5F5F5"/>
<path d="M37.2466 35.048C37.2181 35.048 37.1407 35.1296 36.9572 35.2192C36.7012 35.3377 36.4096 35.3538 36.1421 35.264C35.4696 35.0399 34.8787 34.0047 34.8094 32.8716C34.778 32.3334 34.8657 31.7949 35.0662 31.2944C35.1208 31.0941 35.2237 30.9103 35.3658 30.759C35.5079 30.6077 35.6849 30.4934 35.8813 30.4263C36.0063 30.3891 36.1403 30.3969 36.2602 30.4483C36.38 30.4997 36.4781 30.5914 36.5375 30.7075C36.6271 30.8787 36.5904 31.005 36.623 31.0172C36.6557 31.0295 36.7575 30.9072 36.6964 30.6463C36.656 30.4925 36.5639 30.3572 36.4356 30.2632C36.3482 30.2002 36.2491 30.1552 36.1442 30.1307C36.0392 30.1062 35.9305 30.1028 35.8242 30.1206C35.568 30.1804 35.3314 30.3046 35.1367 30.4815C34.9419 30.6584 34.7956 30.8821 34.7116 31.1313C34.4637 31.6851 34.3532 32.2905 34.3896 32.8961C34.4711 34.1636 35.1558 35.3415 36.0728 35.5616C36.2436 35.6054 36.422 35.6102 36.5949 35.5756C36.7677 35.5411 36.9306 35.468 37.0714 35.3619C37.2385 35.2029 37.2711 35.0603 37.2466 35.048Z" fill="#E9E9EA"/>
<path d="M35.3879 28.132C36.3457 27.8997 38.0045 28.7841 38.4121 29.6808C38.8196 30.5774 38.9093 31.5963 39.3169 32.497C39.7244 33.3977 40.6455 34.2047 41.6074 33.9765C41.9324 33.8748 42.2246 33.6889 42.4544 33.4376C42.6842 33.1863 42.8434 32.8787 42.9157 32.5459C43.0542 31.8744 43.0612 31.1823 42.936 30.5081C42.5651 27.5736 41.9497 24.6636 41.8315 21.7047C41.7133 18.7458 42.1331 15.6769 43.6859 13.1459C45.2388 10.6149 48.0876 8.77273 51.0221 9.01319C52.9743 9.16806 54.7676 10.187 56.7076 10.46C57.8635 10.6129 59.039 10.5004 60.1449 10.1311C61.2508 9.76173 62.258 9.14527 63.0901 8.32848C63.302 8.12062 64.2801 7.4726 64.2801 7.4726C64.2801 7.3218 64.1375 6.00944 63.6199 5.52852C59.7684 1.97048 52.8317 0.976026 47.7453 2.268C42.6589 3.55998 37.8904 7.15877 35.7018 11.9028C33.5131 16.6469 34.1653 23.3146 35.3716 28.1239" fill="#DCDCDD"/>
<path d="M69.4199 12.6071C69.4199 12.6071 45.3003 4.8634 34.8666 25.7144C34.8666 25.7144 33.3057 20.4935 33.3057 17.6935C33.3057 15.8228 34.4224 4.68815 45.8831 1.1831C45.8831 1.1831 63.1434 -5.40314 69.4199 12.6071Z" fill="#E9E9EA"/>
<path d="M48.6827 13.1276C49.1113 13.8185 49.6944 14.4004 50.3862 14.8275C51.078 15.2546 51.8595 15.5152 52.6692 15.5887C53.4789 15.6622 54.2946 15.5466 55.052 15.2511C55.8094 14.9555 56.4878 14.4881 57.0337 13.8856C57.2735 14.4853 57.695 14.9948 58.2391 15.3428C58.7831 15.6908 59.4225 15.8598 60.0674 15.8261C60.7123 15.7924 61.3306 15.5577 61.8354 15.1549C62.3402 14.7521 62.7063 14.2014 62.8823 13.58C63.5362 14.3088 64.336 14.892 65.2298 15.2917C66.1469 15.63 67.3084 15.4996 67.9075 14.7334C68.5067 13.9672 68.3436 12.7567 67.7404 11.966C67.0816 11.2184 66.2385 10.6563 65.295 10.3358C62.4356 9.07831 59.2935 8.60291 56.1901 8.9582C53.113 9.36576 50.1337 10.8656 48.21 13.3028" fill="#DCDCDD"/>
<g opacity="0.4">
<path d="M69.4196 12.6071C67.413 10.4926 64.6618 9.24272 61.7493 9.12244C54.6332 8.80862 41.3181 12.8109 34.85 25.7144C34.85 25.7144 33.2891 20.4935 33.2891 17.6935C33.2891 15.8228 34.4058 4.68815 45.8665 1.1831C45.8828 1.1831 63.1431 -5.40314 69.4196 12.6071Z" fill="#C4C4C4"/>
</g>
<path d="M35.873 23.2716C39.4474 17.798 44.3789 13.274 49.9258 9.82198C55.4728 6.36991 64.6389 2.93415 70.9561 1.26313C72.8554 0.757755 74.8321 0.317586 76.768 0.651788C78.7039 0.98599 80.595 2.28204 81.0719 4.17722C81.6751 6.56147 77.4446 10.2377 75.4597 11.6805C73.4749 13.1232 69.4196 15.2467 69.4196 15.2467C69.4196 15.2467 69.4767 10.8287 62.4014 9.91979C52.7829 8.66042 35.873 23.2716 35.873 23.2716Z" fill="#E9E9EA"/>
<path d="M55.6565 5.24333C55.6565 5.24333 59.129 3.31963 62.6218 2.87131C62.0385 2.41795 61.4021 2.03746 60.7266 1.73828C58.8308 2.05165 56.9977 2.66817 55.2979 3.56417L55.6565 5.24333Z" fill="#E0E0E0"/>
<path d="M75.232 59.1523L67.582 57.465L64.4682 56.6865L61.8761 52.668C61.8761 52.668 60.6534 59.8533 56.0112 63.7211C55.3827 64.2353 54.6459 64.6007 53.8561 64.7899C53.0663 64.979 52.2439 64.9871 51.4506 64.8134C50.4032 64.5933 49.1723 64.3243 48.2594 64.0798C48.0637 64.0268 47.8518 63.9575 47.6236 63.876C44.2675 62.6297 41.4713 60.2184 39.7454 57.0819C38.7183 55.256 37.8502 53.3812 38.1477 52.668L34.5163 60.1875L13.1192 70.0424L0.969727 99.7212L24.5147 106.682L25.2483 131.136L20.814 161.964L87.4222 162.009L85.0583 93.4203" fill="#E9E9EA"/>
<path d="M58.0117 85.7062C57.876 85.717 57.7398 85.717 57.6041 85.7062L56.4181 85.6776L52.1835 85.5268H52.102V85.4575C52.0327 83.6194 51.9471 81.443 51.8534 79.1159C51.7433 75.7616 51.6455 72.7293 51.5681 70.5C51.5436 69.4158 51.5233 68.5314 51.507 67.8875C51.507 67.5981 51.507 67.3617 51.507 67.1783C51.4964 67.0958 51.4964 67.0122 51.507 66.9297C51.5257 67.0099 51.5353 67.0919 51.5355 67.1742C51.5355 67.3617 51.564 67.5818 51.5803 67.8834C51.6129 68.5273 51.6578 69.4118 51.7107 70.4918C51.8004 72.7212 51.9227 75.7535 52.0572 79.1036C52.1387 81.4349 52.212 83.6113 52.2773 85.4494L52.1876 85.3638L56.4222 85.588L57.6041 85.6654C57.741 85.6641 57.8777 85.6778 58.0117 85.7062Z" fill="#DCDCDD"/>
<path d="M54.3886 75.7947C54.482 75.7293 54.5924 75.6924 54.7065 75.6888C54.9711 75.6715 55.235 75.7312 55.4665 75.8606C55.6979 75.9901 55.8869 76.1838 56.0107 76.4183C56.1269 76.647 56.1683 76.9065 56.1289 77.1601C56.0854 77.4474 55.9594 77.7159 55.7663 77.9329C55.5731 78.15 55.321 78.3063 55.0407 78.3828C54.7569 78.4423 54.4622 78.4224 54.189 78.3253C53.9157 78.2283 53.6746 78.0578 53.4919 77.8325C53.3439 77.6511 53.2403 77.4376 53.1893 77.2091C53.1384 76.9805 53.1415 76.7432 53.1985 76.5161C53.2617 76.207 53.4148 75.9234 53.6386 75.701C53.7935 75.5502 53.9076 75.5013 53.9117 75.5135C53.9158 75.5257 53.8302 75.5991 53.6998 75.7581C53.5191 75.9812 53.3972 76.246 53.3452 76.5284C53.3038 76.7316 53.3087 76.9415 53.3595 77.1426C53.4103 77.3437 53.5057 77.5307 53.6386 77.6899C53.8016 77.8821 54.013 78.0273 54.2509 78.1104C54.4888 78.1935 54.7445 78.2116 54.9918 78.1627C55.2323 78.0949 55.4486 77.96 55.6153 77.7738C55.782 77.5875 55.8923 77.3577 55.9332 77.1112C55.9671 76.909 55.9443 76.7015 55.8673 76.5115C55.7903 76.3216 55.6622 76.1567 55.4971 76.0352C55.2735 75.8567 54.9967 75.7577 54.7105 75.754C54.4986 75.7703 54.3886 75.811 54.3886 75.7947Z" fill="#DCDCDD"/>
<path d="M53.6675 67.1829C53.7617 67.1002 53.8778 67.0464 54.0017 67.028C54.3401 66.9565 54.6929 67.0085 54.9962 67.1747C55.2114 67.2844 55.3952 67.4471 55.5301 67.6475C55.6868 67.8821 55.7653 68.1603 55.7543 68.4423C55.7414 68.7637 55.6319 69.0738 55.4399 69.332C55.2479 69.5901 54.9825 69.7843 54.6783 69.8891C54.3673 69.9687 54.0397 69.9547 53.7366 69.8488C53.4336 69.7429 53.1685 69.55 52.9747 69.2941C52.8027 69.0733 52.6992 68.8069 52.6772 68.5278C52.6644 68.2874 52.7034 68.047 52.7913 67.8228C52.9177 67.5037 53.1417 67.2327 53.4311 67.0484C53.5319 66.973 53.6521 66.9277 53.7776 66.918C53.7776 66.918 53.6594 66.9791 53.4801 67.1177C53.228 67.3117 53.0381 67.5752 52.9339 67.8757C52.8521 68.091 52.8272 68.3237 52.8614 68.5514C52.8957 68.7791 52.988 68.9942 53.1296 69.1759C53.3017 69.3956 53.5338 69.5606 53.7979 69.6511C54.0619 69.7415 54.3465 69.7534 54.6172 69.6853C54.8796 69.5922 55.1088 69.4239 55.2762 69.2014C55.4436 68.9789 55.5419 68.7121 55.5586 68.4341C55.5694 68.2057 55.516 67.9788 55.4043 67.7792C55.2926 67.5797 55.1272 67.4154 54.9269 67.3052C54.653 67.1437 54.3342 67.0751 54.018 67.1095C53.7939 67.1381 53.6757 67.1992 53.6675 67.1829Z" fill="#DCDCDD"/>
<path d="M51.499 100.077C51.499 100.077 51.5316 100.057 51.6009 100.032L51.9066 99.9139C52.1797 99.8201 52.5668 99.6489 53.06 99.4207C54.4371 98.7264 55.7013 97.8277 56.8096 96.7552C58.4388 95.1508 59.8788 93.3649 61.1012 91.4325C62.63 89.0833 64.026 86.6504 65.2828 84.1452C67.5429 79.579 69.5259 74.8808 71.221 70.0761C71.8854 68.2339 72.403 66.7382 72.7657 65.707L73.1733 64.5169C73.2181 64.3947 73.2589 64.2928 73.2874 64.2113C73.299 64.1759 73.314 64.1418 73.3322 64.1094C73.3292 64.147 73.321 64.184 73.3078 64.2194C73.2833 64.3009 73.2507 64.4028 73.214 64.5332C73.1203 64.8226 72.9939 65.222 72.835 65.7559C72.4967 66.7952 71.9995 68.2991 71.3474 70.1454C69.6961 74.9631 67.7329 79.6682 65.4703 84.2308C64.2104 86.7431 62.8061 89.1804 61.2643 91.5303C60.0274 93.473 58.5665 95.2637 56.9115 96.8653C55.7855 97.9361 54.4982 98.8232 53.0967 99.4941C52.7132 99.67 52.3199 99.8238 51.9188 99.9546L51.605 100.052C51.5711 100.066 51.5354 100.074 51.499 100.077Z" fill="#DCDCDD"/>
<path d="M65.5318 91.9373C65.7071 91.9373 69.7623 91.6602 69.7623 91.6602C69.7623 91.6602 68.0872 94.6191 66.3428 95.7358H62.793L65.5318 91.9373Z" fill="#FAFAFA"/>
<path d="M50.79 109.04C50.8595 108.974 50.936 108.915 51.0183 108.865L51.703 108.392C52.294 107.985 53.1458 107.373 54.1687 106.587C56.2066 105.026 58.9209 102.694 61.8228 100.029C63.2737 98.6961 64.6757 97.4409 65.874 96.2345C66.9492 95.1767 67.9476 94.0435 68.8614 92.8435C69.4747 92.0341 70.02 91.1752 70.4917 90.2759C70.671 89.962 70.781 89.7053 70.8666 89.5341C70.9053 89.4439 70.9531 89.3579 71.0093 89.2773C70.9831 89.3711 70.9491 89.4624 70.9074 89.5504C70.834 89.7257 70.7321 89.9906 70.565 90.3126C70.1173 91.2324 69.5866 92.1096 68.9796 92.9332C68.078 94.1535 67.0847 95.3035 66.0085 96.373C64.8062 97.5957 63.4123 98.8551 61.9614 100.184C59.0595 102.849 56.3411 105.172 54.2584 106.705C53.2191 107.475 52.351 108.062 51.7478 108.457C51.4421 108.653 51.2017 108.796 51.0387 108.897C50.9614 108.954 50.878 109.002 50.79 109.04Z" fill="#DCDCDD"/>
<path d="M39.3623 154.335C39.3623 154.335 39.3623 154.298 39.4112 154.237C39.4601 154.176 39.5131 154.078 39.5783 153.968C39.7291 153.736 39.9573 153.394 40.263 152.962C40.8744 152.106 41.8199 150.899 43.0671 149.481C45.5777 146.665 49.0949 142.821 52.9668 138.566L62.948 127.689L65.9844 124.428L66.7995 123.544L67.0196 123.319L67.1011 123.246C67.1011 123.246 67.0807 123.279 67.0359 123.332L66.8321 123.572L66.017 124.485L63.0295 127.807L53.1257 138.697L43.1812 149.571C41.9218 150.973 40.96 152.159 40.3282 152.998C40.0144 153.406 39.7739 153.752 39.615 153.98L39.4316 154.237C39.4112 154.272 39.388 154.304 39.3623 154.335Z" fill="#DCDCDD"/>
<path d="M74.7021 58.9648C75.0527 59.4906 82.9268 60.3669 84.8546 62.2906C86.7823 64.2143 106.048 78.9192 106.048 78.9192L92.3171 97.3981L83.4566 95.4459L74.7021 58.9648Z" fill="#E9E9EA"/>
<path opacity="0.4" d="M103.712 77.125L88.3184 96.5169L92.3166 97.3972L106.031 78.8979L103.712 77.125Z" fill="#C4C4C4"/>
<path d="M78.8956 78.2002C78.8267 77.9898 78.7735 77.7746 78.7367 77.5562C78.6918 77.3484 78.6389 77.0916 78.6022 76.79C78.5655 76.4884 78.5044 76.1461 78.484 75.763C78.4636 75.3799 78.4229 74.9478 78.4229 74.5117C78.4229 74.0757 78.4229 73.5825 78.4595 73.0771C78.5387 71.978 78.7091 70.8875 78.969 69.8166C79.2464 68.7511 79.6131 67.7108 80.0653 66.7069C80.2813 66.2504 80.4729 65.8103 80.7052 65.419C80.9375 65.0277 81.1372 64.665 81.3451 64.343C81.5529 64.0211 81.7526 63.7439 81.932 63.4953C82.0802 63.2821 82.2394 63.0767 82.4088 62.8799C82.5423 62.7029 82.6909 62.5379 82.8531 62.3867C82.7418 62.5775 82.615 62.7588 82.474 62.9288C82.3477 63.1 82.1928 63.3078 82.0298 63.5646C81.8668 63.8213 81.6589 64.0944 81.4714 64.4245C81.284 64.7547 81.0639 65.1052 80.8601 65.5046C80.6563 65.904 80.4525 66.3197 80.2447 66.7843C79.8155 67.7842 79.4639 68.8157 79.1931 69.8696C78.9393 70.9268 78.7663 72.0018 78.6755 73.0853C78.647 73.5866 78.6103 74.0634 78.6226 74.5077C78.6348 74.9519 78.6226 75.3676 78.6552 75.7304C78.6878 76.0931 78.7122 76.4517 78.7408 76.7533C78.7693 77.0549 78.806 77.3117 78.8386 77.5196C78.8795 77.7441 78.8986 77.972 78.8956 78.2002Z" fill="#DCDCDD"/>
<path d="M85.0581 93.394C84.4269 92.1703 83.8597 90.9147 83.3586 89.6322C82.7908 88.379 82.2875 87.0976 81.8506 85.793C82.4818 87.0159 83.0504 88.2701 83.5542 89.5507C84.123 90.8044 84.625 92.0873 85.0581 93.394Z" fill="#DCDCDD"/>
<path d="M24.514 79.9678C24.4814 79.9678 24.1512 79.3769 23.5277 78.4598C22.714 77.2654 21.7828 76.1553 20.7481 75.1463C19.7081 74.145 18.5723 73.2481 17.3571 72.4686C16.4197 71.8736 15.8043 71.5639 15.8206 71.5312C15.9768 71.5743 16.1273 71.6359 16.269 71.7147C16.6678 71.9042 17.0568 72.1136 17.4346 72.3423C18.6883 73.0894 19.8509 73.9798 20.8989 74.9955C21.9434 76.0143 22.8678 77.1493 23.654 78.3783C23.9515 78.8511 24.1757 79.2424 24.3143 79.5236C24.3988 79.6629 24.4659 79.8121 24.514 79.9678Z" fill="#DCDCDD"/>
<path opacity="0.4" d="M0.969727 99.7093L1.91935 97.3984L27.9627 104.49L26.9316 107.388L0.969727 99.7093Z" fill="#C4C4C4"/>
<path d="M70.496 90.5742H80.4121V94.6499L67.7246 94.5683C67.7246 94.5683 69.685 92.2086 70.496 90.5742Z" fill="#FAFAFA"/>
<g opacity="0.2">
<path d="M35.127 61.0835C35.4856 64.2625 35.8769 67.5434 37.4501 70.3312C39.0233 73.1189 42.1004 75.3157 45.2671 74.847C47.3783 74.5331 49.1675 73.123 50.6062 71.5416C52.0449 69.9603 53.2513 68.1711 54.8204 66.7242C55.7693 67.7462 56.8303 68.6581 57.9831 69.4427C59.1479 70.2317 60.5463 70.6011 61.9487 70.4901C63.3304 70.323 64.0925 69.7728 64.5286 68.4523C63.0532 68.9088 62.2422 68.8395 60.7709 68.5583C59.1463 68.2468 57.6209 67.5477 56.3244 66.5204C55.4603 65.8398 55.1465 64.8168 54.0501 64.8902C53.0353 64.9472 52.2406 65.7501 51.5722 66.5204C50.4931 67.7558 49.3095 68.8957 48.0345 69.9277C46.8118 70.8936 45.6299 71.5579 44.073 71.5131C41.5094 71.456 39.4104 69.4427 37.9962 67.303C36.6908 65.3302 35.7264 63.152 35.1433 60.8594" fill="#C4C4C4"/>
</g>
<path d="M65.1409 57.1172C65.1642 57.1914 65.1793 57.2679 65.1857 57.3454C65.1857 57.4962 65.2347 57.7163 65.2632 58.0016C65.3243 58.5722 65.3855 59.3995 65.4099 60.447C65.465 63.1262 65.2093 65.8027 64.6478 68.423V68.4882V68.5534H64.5866C63.1377 68.8931 61.6257 68.8523 60.1972 68.4352C59.0291 68.123 57.9253 67.607 56.9367 66.9109C56.2675 66.4562 55.6676 65.9071 55.1556 65.2807C55.0179 65.1115 54.89 64.9346 54.7725 64.7509C54.7269 64.6882 54.6873 64.6213 54.6543 64.5512C55.3192 65.4206 56.1169 66.1798 57.0182 66.8009C58.0016 67.4651 59.0902 67.9584 60.2379 68.26C61.6357 68.6548 63.1106 68.6898 64.5255 68.3619L64.4481 68.4393V68.3741C65.0031 65.7672 65.2764 63.1082 65.2632 60.4429C65.2632 59.4199 65.2184 58.5926 65.1857 58.0179C65.1857 57.753 65.1572 57.537 65.145 57.3617C65.1318 57.2808 65.1305 57.1985 65.1409 57.1172Z" fill="#DCDCDD"/>
<path d="M52.7588 65.1594C52.7265 65.2464 52.6826 65.3286 52.6283 65.4039C52.4919 65.6299 52.3422 65.8477 52.18 66.056C51.5714 66.8155 50.9007 67.523 50.1748 68.1713C49.7224 68.5788 49.213 69.0312 48.6627 69.4959C48.3856 69.7282 48.1085 69.9727 47.7987 70.2172C47.4797 70.458 47.1432 70.6746 46.792 70.8653C46.0377 71.2813 45.2048 71.5354 44.3466 71.6111C43.4104 71.6906 42.4721 71.483 41.6567 71.0161C40.8629 70.5432 40.1513 69.9444 39.5496 69.2432C38.9792 68.6079 38.4484 67.9383 37.9601 67.238C37.1371 66.0496 36.4417 64.7778 35.8856 63.4435C35.513 62.5464 35.2078 61.6228 34.9727 60.6803C34.8871 60.3461 34.8341 60.0852 34.8015 59.9059C34.7789 59.8164 34.7652 59.725 34.7607 59.6328C34.7981 59.7177 34.8254 59.8066 34.8423 59.8977C34.8912 60.073 34.9564 60.3297 35.0501 60.6599C35.3175 61.5882 35.6428 62.4989 36.0242 63.3865C36.5952 64.7003 37.2985 65.9525 38.1231 67.1238C38.6092 67.8145 39.1374 68.4747 39.7045 69.1005C40.2866 69.7834 40.9746 70.3682 41.7423 70.8327C42.5223 71.278 43.4189 71.4769 44.314 71.4033C45.1475 71.3315 45.9574 71.0902 46.6942 70.6941C47.0401 70.5108 47.3712 70.301 47.6846 70.0665C47.9821 69.8382 48.2674 69.5896 48.5446 69.3614C49.0988 68.9008 49.6124 68.4688 50.0688 68.0612C50.7973 67.433 51.4784 66.7519 52.1067 66.0234C52.3227 65.7626 52.4816 65.5466 52.5876 65.3998C52.6376 65.3149 52.6949 65.2344 52.7588 65.1594Z" fill="#DCDCDD"/>
<path d="M43.9795 111.988L47.1218 107.407C47.1218 107.407 49.2819 99.8996 48.9885 98.8481C48.695 97.7966 47.7413 93.884 47.9655 93.8351C48.1896 93.7862 50.5413 92.914 51.8169 96.0522C52.6117 98.0085 52.8725 100.584 52.9581 102.247C52.9675 102.453 53.0212 102.654 53.1158 102.836C53.2103 103.019 53.3433 103.179 53.5056 103.305C53.6679 103.432 53.8557 103.521 54.056 103.568C54.2563 103.615 54.4644 103.617 54.6658 103.576C56.8381 103.128 60.4532 102.447 61.3132 102.655C62.5603 102.952 63.677 104.542 63.783 105.076C63.889 105.61 63.0331 106.812 63.0331 106.812C63.0331 106.812 64.0928 107.354 64.4188 108.173C64.4636 108.283 64.5003 108.393 64.5329 108.499C64.6324 108.828 64.6445 109.176 64.568 109.511C64.4916 109.845 64.3292 110.154 64.0968 110.407L63.7626 110.773C63.7626 110.773 65.0872 111.136 65.2502 111.894C65.3386 112.448 65.3234 113.013 65.2054 113.561L63.9623 114.845C64.3089 115.168 64.5358 115.599 64.6063 116.068C64.6715 116.769 62.8089 118.513 62.8089 118.513L54.8166 121.366L51.6458 122.181L43.9795 111.988Z" fill="#F5F5F5"/>
<path d="M63.0579 106.819C62.1446 107.065 61.2197 107.265 60.2864 107.418C59.3696 107.642 58.4418 107.819 57.5068 107.948C57.7571 107.826 58.0212 107.734 58.2934 107.675C58.7866 107.536 59.4754 107.365 60.2457 107.21C61.016 107.056 61.7129 106.941 62.2264 106.876C62.4998 106.82 62.7794 106.801 63.0579 106.819Z" fill="#E9E9EA"/>
<path d="M63.7877 110.773C63.1085 111.092 62.4001 111.344 61.6725 111.527C60.9663 111.781 60.2375 111.966 59.4961 112.082C60.1754 111.763 60.8837 111.511 61.6114 111.328C62.3176 111.074 63.0463 110.889 63.7877 110.773Z" fill="#E9E9EA"/>
<path d="M64.2644 114.672C63.5485 115.101 62.7972 115.467 62.0188 115.768C61.2688 116.135 60.4889 116.438 59.6875 116.673C60.4035 116.244 61.1547 115.877 61.9332 115.577C62.6832 115.209 63.4631 114.907 64.2644 114.672Z" fill="#E9E9EA"/>
<path d="M25.5659 140.299L54.9594 120.581L47.5418 107.132L20.7159 120.928L23.7604 106.435L5.55452 101.047L0.997955 125.868C0.296945 136.904 9.14923 145.814 19.8193 142.916C21.8646 142.363 23.8057 141.479 25.5659 140.299Z" fill="#F5F5F5"/>
<path d="M16.8324 128.726C16.7794 128.608 16.745 128.483 16.7305 128.355C16.67 128.011 16.6359 127.664 16.6286 127.315C16.6132 126.156 16.873 125.009 17.3866 123.969C17.9074 122.932 18.669 122.035 19.6079 121.353C19.8876 121.145 20.1849 120.963 20.4963 120.807C20.6081 120.741 20.729 120.693 20.855 120.664C20.855 120.701 20.3782 120.933 19.6975 121.479C18.8063 122.175 18.0818 123.062 17.5769 124.073C17.0721 125.085 16.7996 126.197 16.7794 127.328C16.759 128.184 16.8935 128.722 16.8324 128.726Z" fill="#E9E9EA"/>
<path d="M92.3164 97.3978C92.4998 97.1451 113.249 109.788 113.249 109.788L119.9 140.09L129.474 143.603C129.474 143.603 132.461 109.881 130.187 104.632C127.913 99.3826 104.857 80.4961 104.857 80.4961L92.3164 97.3978Z" fill="#F5F5F5"/>
<path d="M117.781 107.465C117.319 108.16 116.704 108.74 115.984 109.16C115.301 109.641 114.518 109.962 113.693 110.098C114.438 109.764 115.164 109.391 115.87 108.981C116.535 108.512 117.173 108.006 117.781 107.465Z" fill="#E9E9EA"/>
<path d="M67.3613 97.4645L68.9875 126.548L102.147 124.307L101.144 102.657L96.3147 96.1562L67.3613 97.4645Z" fill="#DCDCDD"/>
<path d="M59.8262 127.192C59.924 127.751 62.7403 154.091 62.7403 154.091L112.092 150.664L120.443 149.543L116.592 125.016L110.694 123.602L59.8262 127.192Z" fill="#E9E9EA"/>
<path opacity="0.4" d="M110.694 123.598L59.8262 127.192C59.924 127.751 62.7403 154.092 62.7403 154.092L114.122 150.517L110.694 123.598Z" fill="#C4C4C4"/>
<path d="M97.1746 124.641L68.9875 126.548L67.3613 97.4645L96.3147 96.1562L97.1746 124.641Z" fill="#DCDCDD"/>
<path d="M77.873 96.991L78.4681 105.953L79.9761 105.089L80.8116 105.953L81.8509 105.089L83.4567 105.953V96.7383L77.873 96.991Z" fill="#DCDCDD"/>
<path d="M89.6553 125.251L87.7275 103.422L106.569 108.614L108.387 123.682L89.6553 125.251Z" fill="#E9E9EA"/>
<path d="M106.558 108.618C106.524 108.674 106.485 108.726 106.439 108.773L106.077 109.201L104.691 110.782L99.8776 116.183L99.8043 116.264L99.7269 116.187L97.1837 113.497L90.4711 106.405L88.4536 104.237L87.9116 103.642C87.8444 103.576 87.7856 103.502 87.7363 103.422C87.8109 103.478 87.8804 103.541 87.9442 103.609L88.5148 104.18L90.577 106.299L97.3345 113.35L99.894 116.044H99.7432L104.634 110.693L106.064 109.152L106.452 108.745C106.483 108.699 106.518 108.657 106.558 108.618Z" fill="#DCDCDD"/>
<path d="M96.0047 112.66C96.0577 112.689 94.7128 115.265 93.0051 118.415C91.2974 121.566 89.8709 124.097 89.8179 124.068C89.7649 124.04 91.1099 121.464 92.8176 118.313C94.5253 115.163 95.9599 112.632 96.0047 112.66Z" fill="#DCDCDD"/>
<path d="M107.946 123.681C107.897 123.71 106.593 121.623 105.032 119.023C103.471 116.423 102.245 114.283 102.298 114.25C102.351 114.218 103.651 116.309 105.212 118.913C106.773 121.517 107.999 123.653 107.946 123.681Z" fill="#DCDCDD"/>
<path d="M99.7748 124.398L98.5439 110.496L110.543 113.806L111.7 123.4L99.7748 124.398Z" fill="#E9E9EA"/>
<path opacity="0.4" d="M99.7748 124.398L98.5439 110.496L110.543 113.806L111.7 123.4L99.7748 124.398Z" fill="white"/>
<path d="M110.542 113.806C110.457 113.942 110.357 114.069 110.245 114.185C110.021 114.449 109.727 114.788 109.373 115.199L106.316 118.647L106.243 118.733L106.165 118.651L104.535 116.94C102.86 115.183 101.352 113.581 100.268 112.416L98.9962 111.026C98.8316 110.863 98.6816 110.685 98.5479 110.496C98.7289 110.64 98.8979 110.798 99.0532 110.969L100.378 112.31C101.49 113.451 103.015 115.036 104.69 116.793L106.32 118.509H106.149L109.259 115.11L110.18 114.136C110.29 114.014 110.411 113.904 110.542 113.806Z" fill="#DCDCDD"/>
<path d="M103.818 116.379C103.867 116.407 103.027 118.054 101.939 120.047C101.315 121.276 100.626 122.472 99.877 123.629C100.438 122.375 101.063 121.151 101.752 119.961C102.377 118.731 103.066 117.536 103.818 116.379Z" fill="#DCDCDD"/>
<path d="M111.424 123.402C110.735 122.459 110.103 121.475 109.533 120.455C108.9 119.472 108.329 118.45 107.825 117.395C109.141 119.325 110.343 121.331 111.424 123.402Z" fill="#DCDCDD"/>
<path d="M107.421 113.219V114.335L109.173 114.539L109.267 113.687L107.421 113.219Z" fill="white"/>
<path d="M101.234 107.551V109.181L104.544 109.727L104.727 108.48L101.234 107.551Z" fill="white"/>
<path d="M88.3188 133.377L88.1557 125.25L81.5654 125.694L82.2705 133.951L88.3188 133.377Z" fill="#E9E9EA"/>
<path d="M109.81 137.649L98.7451 138.699L99.6737 148.486L110.738 147.436L109.81 137.649Z" fill="#FAFAFA"/>
<path d="M110.723 147.445C110.709 147.383 110.7 147.321 110.694 147.258C110.694 147.123 110.658 146.948 110.633 146.728C110.584 146.255 110.511 145.583 110.421 144.739C110.246 143.019 110.014 140.59 109.704 137.668L109.802 137.749L98.7446 138.813C98.7201 138.837 98.9239 138.597 98.8383 138.699V138.772V138.858V139.021L98.8709 139.355L98.932 140.015C98.9769 140.451 99.0176 140.883 99.0584 141.315C99.1358 142.175 99.2173 143.015 99.2948 143.838C99.4456 145.469 99.5923 147.038 99.7227 148.476L99.6208 148.395L107.605 147.686L109.871 147.494L110.478 147.449C110.55 147.444 110.622 147.444 110.694 147.449C110.631 147.464 110.567 147.474 110.503 147.478L109.916 147.547L107.674 147.784L99.6412 148.599H99.5475V148.505C99.4048 147.062 99.254 145.505 99.0951 143.867C99.019 143.052 98.9388 142.211 98.8546 141.344C98.8139 140.912 98.7731 140.48 98.7323 140.04C98.712 139.824 98.6916 139.604 98.6671 139.384L98.6386 139.049V138.886V138.801V138.727C98.553 138.829 98.7527 138.585 98.7364 138.609L109.798 137.578H109.887V137.668C110.148 140.614 110.364 143.068 110.519 144.804C110.588 145.64 110.641 146.304 110.682 146.777C110.682 146.993 110.711 147.164 110.719 147.294C110.724 147.345 110.725 147.395 110.723 147.445Z" fill="#DCDCDD"/>
<path d="M108.929 140C108.929 140.061 107.002 140.31 104.609 140.563C103.169 140.752 101.72 140.869 100.269 140.913C100.269 140.856 102.196 140.603 104.589 140.351C106.981 140.098 108.925 139.943 108.929 140Z" fill="#DCDCDD"/>
<path d="M108.864 141.664C108.48 141.802 108.083 141.902 107.678 141.962C106.937 142.108 105.905 142.279 104.76 142.414C103.615 142.548 102.568 142.622 101.814 142.646C101.407 142.683 100.998 142.683 100.591 142.646C100.994 142.567 101.403 142.52 101.814 142.508C102.563 142.438 103.599 142.345 104.74 142.21C105.881 142.076 106.912 141.929 107.658 141.803C108.056 141.727 108.459 141.68 108.864 141.664Z" fill="#DCDCDD"/>
<path d="M109.332 145.301C108.946 145.438 108.548 145.538 108.142 145.598C107.4 145.745 106.369 145.916 105.224 146.051C104.079 146.185 103.035 146.259 102.277 146.283C101.871 146.322 101.461 146.322 101.055 146.283C101.458 146.203 101.867 146.157 102.277 146.144C103.027 146.079 104.067 145.981 105.208 145.847C106.349 145.712 107.38 145.566 108.126 145.439C108.524 145.363 108.927 145.317 109.332 145.301Z" fill="#DCDCDD"/>
<path d="M108.774 143.438C107.444 143.738 106.099 143.967 104.744 144.122C103.394 144.351 102.034 144.509 100.668 144.595C101.999 144.299 103.345 144.07 104.699 143.91C106.048 143.684 107.409 143.526 108.774 143.438Z" fill="#DCDCDD"/>
<path d="M118.543 158.599C118.543 158.599 127.652 152.571 128.353 149.49C129.054 146.409 129.474 143.605 129.474 143.605L119.742 139.574L120.707 143.079C120.707 143.079 117.219 145.154 116.86 147.668C116.624 149.344 112.112 152.213 112.112 152.213C111.737 151.759 111.259 151.401 110.718 151.168C110.178 150.935 109.59 150.833 109.002 150.872L105.212 151.141L107.775 156.916L118.543 158.599Z" fill="#F5F5F5"/>
<path d="M122.101 150.336C121.969 150.417 121.824 150.476 121.673 150.511C121.388 150.605 120.964 150.699 120.451 150.862C119.871 151.068 119.335 151.38 118.869 151.783C118.283 152.283 117.627 152.695 116.921 153.005C115.616 153.561 114.168 153.683 112.788 153.352C112.546 153.305 112.313 153.218 112.1 153.095C112.012 153.046 111.941 152.971 111.896 152.881C111.851 152.791 111.834 152.69 111.847 152.59C111.854 152.528 111.876 152.468 111.912 152.417C111.947 152.366 111.995 152.324 112.051 152.296C112.132 152.268 112.177 152.296 112.177 152.296C112.177 152.296 112.132 152.296 112.071 152.341C112.028 152.372 111.993 152.413 111.969 152.459C111.944 152.506 111.93 152.557 111.929 152.61C111.921 152.694 111.94 152.779 111.982 152.852C112.024 152.925 112.088 152.983 112.165 153.018C112.373 153.12 112.596 153.19 112.825 153.226C114.174 153.5 115.574 153.358 116.84 152.818C117.529 152.511 118.171 152.108 118.747 151.62C119.235 151.214 119.797 150.907 120.402 150.715C120.923 150.568 121.347 150.499 121.624 150.426C121.781 150.383 121.94 150.353 122.101 150.336Z" fill="#E9E9EA"/>
<path d="M115.793 155.01C115.793 155.042 115.324 154.773 114.549 154.451C113.54 154.038 112.476 153.774 111.391 153.665C111.073 153.632 110.759 153.624 110.458 153.616H110.4L110.368 153.567C109.896 152.828 109.327 152.157 108.676 151.57C108.183 151.126 107.861 150.897 107.861 150.873C107.861 150.848 107.959 150.905 108.114 151.003C108.334 151.146 108.546 151.299 108.75 151.464C109.445 152.03 110.046 152.703 110.531 153.457L110.445 153.408C110.755 153.408 111.073 153.408 111.399 153.457C112.506 153.564 113.587 153.854 114.598 154.317C114.903 154.455 115.198 154.613 115.483 154.79C115.597 154.846 115.701 154.921 115.793 155.01Z" fill="#E9E9EA"/>
<path d="M118.254 153.355C118.254 153.413 117.639 153.645 116.922 154.052C116.204 154.46 115.678 154.888 115.638 154.839C116.31 154.055 117.236 153.53 118.254 153.355Z" fill="#E9E9EA"/>
<path d="M123.19 142.512C123.19 142.578 122.554 142.512 121.829 142.696C121.103 142.879 120.606 143.254 120.549 143.201C120.886 142.859 121.309 142.614 121.774 142.492C122.239 142.371 122.728 142.378 123.19 142.512Z" fill="#E9E9EA"/>
</svg>
