<svg width="600" height="600" viewBox="0 0 600 600" fill="none" xmlns="http://www.w3.org/2000/svg">
<path d="M111.138 103.974L170.843 225.473C172.099 228.029 171.046 231.119 168.489 232.375C165.933 233.631 162.841 232.578 161.586 230.021L101.883 108.522C100.626 105.966 101.68 102.876 104.237 101.619C106.792 100.363 109.883 101.417 111.138 103.974Z" fill="#E0E0E0"/>
<path d="M153.351 192.362L165.646 217.386L171.903 214.312L159.607 189.288L153.351 192.362Z" fill="#E0E0E0"/>
<path d="M152.233 178.597C153.411 180.994 152.423 183.89 150.027 185.069L140.776 189.614C138.379 190.792 135.483 189.804 134.304 187.408C133.127 185.011 134.115 182.114 136.511 180.937L145.762 176.392C148.158 175.213 151.056 176.202 152.233 178.597Z" fill="#E0E0E0"/>
<path d="M172.111 219.588L185.027 213.241L181.664 206.398L175.206 209.571L173.095 205.275L179.552 202.101L174.019 190.841L169.488 193.068L167.376 188.771L171.908 186.545L168.565 179.74L155.648 186.088L172.111 219.588Z" fill="#E0E0E0"/>
<path d="M95.8102 105.764L101.006 116.338L119.332 107.333L114.136 96.759L95.8102 105.764Z" fill="#E0E0E0"/>
<path d="M76.2467 69.2603C76.4531 69.6803 76.6859 70.0799 76.9379 70.4603C67.5623 76.1951 63.9288 88.2335 68.8716 98.2931C74.1131 108.959 87.0084 113.357 97.6751 108.115L113.845 100.169C124.511 94.9271 128.909 82.0319 123.667 71.3651C118.649 61.1519 106.613 56.6927 96.2351 60.9335C96.0899 60.5147 95.9207 60.0983 95.7191 59.6903C93.0767 54.3131 86.5751 52.0955 81.1979 54.7379C75.8207 57.3815 73.6043 63.8831 76.2467 69.2603ZM99.3311 68.4887C105.931 65.2451 113.911 67.9667 117.154 74.5667C120.397 81.1667 117.676 89.1467 111.076 92.3891C107.569 94.1123 103.674 94.1519 100.307 92.8211C99.3023 96.2999 96.8915 99.3599 93.3851 101.082C86.7851 104.326 78.8051 101.604 75.5627 95.0039C72.3191 88.4039 75.0407 80.4239 81.6407 77.1815C85.1471 75.4583 89.0424 75.4187 92.4095 76.7495C93.4139 73.2707 95.8259 70.2119 99.3311 68.4887ZM90.3071 61.5695C91.5647 64.1279 90.5099 67.2227 87.9503 68.4803C85.3919 69.7379 82.2971 68.6831 81.0395 66.1235C79.7819 63.5639 80.8367 60.4703 83.3963 59.2127C85.9559 57.9563 89.0495 59.0111 90.3071 61.5695Z" fill="#E0E0E0"/>
<path d="M482.389 463.633L513.575 310.675C514.104 308.08 516.637 306.404 519.232 306.934L521.327 307.361C523.922 307.89 525.598 310.423 525.068 313.018L493.883 465.976C493.354 468.571 490.82 470.246 488.225 469.717L486.13 469.29C483.534 468.761 481.86 466.229 482.389 463.633Z" fill="#E0E0E0"/>
<path d="M506.084 353.664L512.419 322.593L504.651 321.009L498.315 352.08L506.084 353.664Z" fill="#E0E0E0"/>
<path d="M497.313 367.831L497.713 365.867C498.209 363.435 500.584 361.864 503.017 362.359L516.468 365.101C518.902 365.597 520.471 367.972 519.976 370.405L519.575 372.37C519.079 374.803 516.705 376.373 514.271 375.877L500.82 373.135C498.388 372.639 496.817 370.264 497.313 367.831Z" fill="#E0E0E0"/>
<path d="M508.128 316.136L492.091 312.866L490.359 321.363L498.377 322.998L497.29 328.333L489.271 326.699L486.42 340.68L492.047 341.827L490.96 347.162L485.333 346.015L483.61 354.463L499.648 357.733L508.128 316.136Z" fill="#E0E0E0"/>
<path d="M497.65 471.604L500.328 458.476L477.573 453.836L474.896 466.964L497.65 471.604Z" fill="#E0E0E0"/>
<path d="M489.864 518.091C489.971 517.569 490.038 517.048 490.077 516.531C502.503 517.89 514.144 509.581 516.69 497.092C519.39 483.847 510.843 470.922 497.599 468.222L477.521 464.129C464.277 461.429 451.351 469.977 448.651 483.22C446.065 495.901 453.797 508.284 466.085 511.684C465.924 512.163 465.787 512.655 465.684 513.161C464.323 519.838 468.633 526.355 475.309 527.716C481.986 529.077 488.503 524.767 489.864 518.091ZM468.552 502.731C460.357 501.06 455.068 493.062 456.739 484.866C458.41 476.671 466.408 471.382 474.604 473.053C478.957 473.941 482.49 476.614 484.596 480.154C487.919 477.721 492.217 476.645 496.57 477.532C504.765 479.202 510.054 487.2 508.383 495.396C506.712 503.591 498.714 508.881 490.518 507.209C486.165 506.321 482.632 503.649 480.526 500.109C477.203 502.542 472.905 503.619 468.552 502.731ZM471.862 515.233C472.51 512.056 475.611 510.005 478.788 510.653C481.966 511.301 484.017 514.402 483.369 517.579C482.721 520.757 479.62 522.808 476.442 522.16C473.265 521.512 471.214 518.411 471.862 515.233Z" fill="#E0E0E0"/>
<path d="M481.645 64.4958L470.749 64.5547L471.042 118.771L481.938 118.712L481.645 64.4958Z" fill="#E0E0E0"/>
<path d="M404.568 64.6722L376.352 64.8218L376.511 94.7522L404.726 94.6026L404.568 64.6722Z" fill="#EBEBEB"/>
<path d="M432.656 64.4824L404.44 64.6348L404.602 94.5652L432.817 94.4128L432.656 64.4824Z" fill="#F5F5F5"/>
<path d="M376.394 73.0707C395.145 73.2255 413.942 73.1163 432.69 72.8115C433.076 72.8055 433.073 72.2139 432.687 72.2127C413.936 72.1095 395.139 72.2007 376.391 72.5571C376.06 72.5631 376.062 73.0671 376.394 73.0707Z" fill="#E0E0E0"/>
<path d="M410.03 94.0679L358.767 94.3447L358.899 118.736L410.162 118.459L410.03 94.0679Z" fill="#EBEBEB"/>
<path d="M461.05 93.793L409.787 94.0698L409.919 118.461L461.182 118.184L461.05 93.793Z" fill="#F5F5F5"/>
<path d="M358.794 101.142C392.849 101.527 427.024 101.182 461.076 100.637C461.463 100.63 461.459 100.039 461.073 100.037C427.015 99.8568 392.839 99.8772 358.791 100.627C358.461 100.636 358.463 101.138 358.794 101.142Z" fill="#E0E0E0"/>
<path d="M538.23 118.75H339.623V127.488H538.23V118.75Z" fill="#E0E0E0"/>
<path d="M380.202 122.951H372.14V152.767H380.202V122.951Z" fill="#E0E0E0"/>
<path d="M500.557 122.951H492.495V152.767H500.557V122.951Z" fill="#E0E0E0"/>
<path d="M492.277 44.2776L481.381 44.3364L481.784 118.902L492.68 118.843L492.277 44.2776Z" fill="#EBEBEB"/>
<path d="M509.302 58.1586L492.372 58.25L492.698 118.677L509.628 118.586L509.302 58.1586Z" fill="#F5F5F5"/>
<path d="M509.178 69.8162C509.178 69.9782 505.388 70.109 500.714 70.109C496.037 70.109 492.248 69.977 492.248 69.8162C492.248 69.6542 496.037 69.5234 500.714 69.5234C505.389 69.5234 509.178 69.6554 509.178 69.8162Z" fill="#E0E0E0"/>
<path d="M509.178 67.2782C509.178 67.4402 505.388 67.571 500.714 67.571C496.037 67.571 492.248 67.4402 492.248 67.2782C492.248 67.1162 496.037 66.9854 500.714 66.9854C505.389 66.9854 509.178 67.1162 509.178 67.2782Z" fill="#E0E0E0"/>
<path d="M509.178 109.51C509.178 109.672 505.388 109.802 500.714 109.802C496.037 109.802 492.248 109.672 492.248 109.51C492.248 109.348 496.037 109.217 500.714 109.217C505.389 109.217 509.178 109.348 509.178 109.51Z" fill="#E0E0E0"/>
<path d="M509.178 106.972C509.178 107.134 505.388 107.264 500.714 107.264C496.037 107.264 492.248 107.134 492.248 106.972C492.248 106.81 496.037 106.679 500.714 106.679C505.389 106.678 509.178 106.81 509.178 106.972Z" fill="#E0E0E0"/>
<path d="M500.986 101.432C500.824 101.432 500.693 95.3363 500.693 87.8171C500.693 80.2955 500.824 74.2007 500.986 74.2007C501.148 74.2007 501.28 80.2955 501.28 87.8171C501.28 95.3363 501.148 101.432 500.986 101.432Z" fill="#E0E0E0"/>
<path d="M527.79 73.0142H509.362V118.624H527.79V73.0142Z" fill="#EBEBEB"/>
<path d="M489.791 57.0251C489.791 58.7543 488.389 60.1571 486.659 60.1571C484.93 60.1571 483.527 58.7555 483.527 57.0251C483.527 55.2959 484.928 53.8931 486.659 53.8931C488.389 53.8931 489.791 55.2959 489.791 57.0251Z" fill="#E0E0E0"/>
<path d="M487.627 65.6387H485.692V109.997H487.627V65.6387Z" fill="#E0E0E0"/>
<path d="M133.858 334.022L120.055 389.624H125.646L139.973 334.022H133.858Z" fill="#EBEBEB"/>
<path d="M173.864 334.022L187.667 389.624H182.076L167.749 334.022H173.864Z" fill="#EBEBEB"/>
<path d="M156.445 318.903H149.938V389.624H156.445V318.903Z" fill="#EBEBEB"/>
<path d="M198.954 262.186H107.118V321.023H198.954V262.186Z" fill="#E0E0E0"/>
<path d="M176.109 333.12H130.014V338.802H176.109V333.12Z" fill="#EBEBEB"/>
<path d="M113.22 313.346C113.242 313.346 113.263 313.685 113.282 314.423H113.156C113.062 311.545 112.993 302.012 112.993 290.714C113.018 283.896 113.042 277.728 113.059 273.187C113.089 270.991 113.113 269.191 113.131 267.876C113.148 267.289 113.162 266.811 113.173 266.431C113.188 266.101 113.203 265.928 113.219 265.928C113.234 265.928 113.25 266.101 113.264 266.431C113.275 266.811 113.29 267.289 113.306 267.876C113.324 269.192 113.348 270.991 113.378 273.187C113.395 277.728 113.419 283.897 113.444 290.714C113.444 302.011 113.377 311.545 113.282 314.423H113.156C113.179 313.685 113.198 313.346 113.22 313.346Z" fill="#F5F5F5"/>
<path d="M120.055 313.346C120.077 313.346 120.099 313.685 120.118 314.423H119.992C119.897 311.545 119.829 302.012 119.829 290.714C119.854 283.896 119.878 277.728 119.895 273.187C119.925 270.991 119.949 269.191 119.967 267.876C119.983 267.289 119.998 266.811 120.009 266.431C120.023 266.101 120.039 265.928 120.054 265.928C120.07 265.928 120.085 266.101 120.1 266.431C120.111 266.811 120.125 267.289 120.142 267.876C120.16 269.192 120.184 270.991 120.214 273.187C120.231 277.728 120.255 283.897 120.28 290.714C120.28 302.011 120.213 311.545 120.118 314.423H119.992C120.015 313.685 120.034 313.346 120.055 313.346Z" fill="#F5F5F5"/>
<path d="M126.89 313.346C126.912 313.346 126.934 313.685 126.953 314.423H126.827C126.732 311.545 126.664 302.012 126.664 290.714C126.689 283.896 126.713 277.728 126.73 273.187C126.76 270.991 126.784 269.191 126.802 267.876C126.818 267.289 126.833 266.811 126.844 266.431C126.858 266.101 126.874 265.928 126.889 265.928C126.905 265.928 126.92 266.101 126.935 266.431C126.946 266.811 126.96 267.289 126.977 267.876C126.995 269.192 127.019 270.991 127.049 273.187C127.066 277.728 127.09 283.897 127.115 290.714C127.115 302.011 127.046 311.545 126.953 314.423H126.827C126.848 313.685 126.869 313.346 126.89 313.346Z" fill="#F5F5F5"/>
<path d="M133.726 313.346C133.747 313.346 133.769 313.685 133.788 314.423H133.662C133.567 311.545 133.499 302.012 133.499 290.714C133.525 283.896 133.548 277.728 133.565 273.187C133.595 270.991 133.619 269.191 133.637 267.876C133.654 267.289 133.668 266.811 133.679 266.431C133.693 266.101 133.709 265.928 133.725 265.928C133.74 265.928 133.756 266.101 133.77 266.431C133.781 266.811 133.795 267.289 133.812 267.876C133.83 269.192 133.854 270.991 133.884 273.187C133.901 277.728 133.925 283.897 133.95 290.714C133.95 302.011 133.882 311.545 133.788 314.423H133.662C133.684 313.685 133.704 313.346 133.726 313.346Z" fill="#F5F5F5"/>
<path d="M140.561 313.346C140.582 313.346 140.604 313.685 140.623 314.423H140.497C140.402 311.545 140.334 302.012 140.334 290.714C140.359 283.896 140.383 277.728 140.4 273.187C140.43 270.991 140.454 269.191 140.472 267.876C140.489 267.289 140.503 266.811 140.514 266.431C140.528 266.101 140.544 265.928 140.56 265.928C140.575 265.928 140.591 266.101 140.605 266.431C140.616 266.811 140.63 267.289 140.647 267.876C140.665 269.192 140.689 270.991 140.719 273.187C140.736 277.728 140.76 283.897 140.785 290.714C140.785 302.011 140.717 311.545 140.623 314.423H140.497C140.519 313.685 140.539 313.346 140.561 313.346Z" fill="#F5F5F5"/>
<path d="M147.396 313.346C147.418 313.346 147.439 313.685 147.459 314.423H147.333C147.238 311.545 147.169 302.012 147.169 290.714C147.195 283.896 147.219 277.728 147.235 273.187C147.265 270.991 147.289 269.191 147.307 267.876C147.324 267.289 147.339 266.811 147.349 266.431C147.364 266.101 147.379 265.928 147.395 265.928C147.411 265.928 147.426 266.101 147.441 266.431C147.451 266.811 147.466 267.289 147.483 267.876C147.501 269.192 147.525 270.991 147.555 273.187C147.571 277.728 147.595 283.897 147.621 290.714C147.621 302.011 147.552 311.545 147.457 314.423H147.333C147.354 313.685 147.375 313.346 147.396 313.346Z" fill="#F5F5F5"/>
<path d="M154.231 313.346C154.253 313.346 154.274 313.685 154.294 314.423H154.168C154.073 311.545 154.004 302.012 154.004 290.714C154.03 283.896 154.054 277.728 154.07 273.187C154.1 270.991 154.124 269.191 154.142 267.876C154.159 267.289 154.174 266.811 154.184 266.431C154.199 266.101 154.214 265.928 154.23 265.928C154.246 265.928 154.261 266.101 154.276 266.431C154.286 266.811 154.301 267.289 154.318 267.876C154.336 269.192 154.36 270.991 154.39 273.187C154.406 277.728 154.43 283.897 154.456 290.714C154.456 302.011 154.387 311.545 154.292 314.423H154.166C154.188 313.685 154.208 313.346 154.231 313.346Z" fill="#F5F5F5"/>
<path d="M161.067 313.346C161.088 313.346 161.11 313.685 161.129 314.423H161.003C160.908 311.545 160.84 302.012 160.84 290.714C160.865 283.896 160.889 277.728 160.906 273.187C160.936 270.991 160.96 269.191 160.978 267.876C160.995 267.289 161.009 266.811 161.02 266.431C161.034 266.101 161.05 265.928 161.065 265.928C161.081 265.928 161.097 266.101 161.111 266.431C161.122 266.811 161.136 267.289 161.153 267.876C161.171 269.192 161.195 270.991 161.225 273.187C161.242 277.728 161.266 283.897 161.291 290.714C161.291 302.011 161.221 311.545 161.128 314.423H161.002C161.023 313.685 161.044 313.346 161.067 313.346Z" fill="#F5F5F5"/>
<path d="M167.901 313.346C167.922 313.346 167.944 313.685 167.963 314.423H167.837C167.742 311.545 167.674 302.012 167.674 290.714C167.699 283.896 167.723 277.728 167.74 273.187C167.77 270.991 167.794 269.191 167.812 267.876C167.829 267.289 167.843 266.811 167.854 266.431C167.868 266.101 167.884 265.928 167.899 265.928C167.915 265.928 167.931 266.101 167.945 266.431C167.956 266.811 167.97 267.289 167.987 267.876C168.005 269.192 168.029 270.991 168.059 273.187C168.076 277.728 168.1 283.897 168.125 290.714C168.125 302.011 168.057 311.545 167.963 314.423H167.837C167.86 313.685 167.879 313.346 167.901 313.346Z" fill="#F5F5F5"/>
<path d="M174.736 313.346C174.757 313.346 174.779 313.685 174.798 314.423H174.672C174.577 311.545 174.509 302.012 174.509 290.714C174.535 283.896 174.558 277.728 174.575 273.187C174.605 270.991 174.629 269.191 174.647 267.876C174.664 267.289 174.678 266.811 174.689 266.431C174.703 266.101 174.719 265.928 174.734 265.928C174.75 265.928 174.766 266.101 174.78 266.431C174.791 266.811 174.805 267.289 174.822 267.876C174.84 269.192 174.864 270.991 174.894 273.187C174.911 277.728 174.935 283.897 174.96 290.714C174.96 302.011 174.892 311.545 174.798 314.423H174.672C174.695 313.685 174.714 313.346 174.736 313.346Z" fill="#F5F5F5"/>
<path d="M181.571 313.346C181.593 313.346 181.614 313.685 181.633 314.423H181.507C181.413 311.545 181.344 302.012 181.344 290.714C181.369 283.896 181.393 277.728 181.41 273.187C181.44 270.991 181.464 269.191 181.482 267.876C181.499 267.289 181.513 266.811 181.524 266.431C181.539 266.101 181.554 265.928 181.57 265.928C181.585 265.928 181.601 266.101 181.615 266.431C181.626 266.811 181.641 267.289 181.657 267.876C181.675 269.192 181.699 270.991 181.729 273.187C181.746 277.728 181.77 283.897 181.795 290.714C181.795 302.011 181.727 311.545 181.633 314.423H181.507C181.529 313.685 181.549 313.346 181.571 313.346Z" fill="#F5F5F5"/>
<path d="M188.406 313.346C188.428 313.346 188.449 313.685 188.468 314.423H188.342C188.248 311.545 188.179 302.012 188.179 290.714C188.204 283.896 188.228 277.728 188.245 273.187C188.275 270.991 188.299 269.191 188.317 267.876C188.334 267.289 188.348 266.811 188.359 266.431C188.374 266.101 188.389 265.928 188.405 265.928C188.42 265.928 188.436 266.101 188.45 266.431C188.461 266.811 188.476 267.289 188.492 267.876C188.51 269.192 188.534 270.991 188.564 273.187C188.581 277.728 188.605 283.897 188.63 290.714C188.63 302.011 188.562 311.545 188.467 314.423H188.342C188.364 313.685 188.384 313.346 188.406 313.346Z" fill="#F5F5F5"/>
<path d="M195.241 313.346C195.263 313.346 195.285 313.685 195.304 314.423H195.178C195.083 311.545 195.015 302.012 195.015 290.714C195.04 283.896 195.064 277.728 195.081 273.187C195.111 270.991 195.135 269.191 195.153 267.876C195.169 267.289 195.184 266.811 195.195 266.431C195.209 266.101 195.225 265.928 195.24 265.928C195.256 265.928 195.271 266.101 195.286 266.431C195.297 266.811 195.311 267.289 195.328 267.876C195.346 269.192 195.37 270.991 195.4 273.187C195.417 277.728 195.441 283.897 195.466 290.714C195.466 302.011 195.397 311.545 195.303 314.423H195.178C195.199 313.685 195.22 313.346 195.241 313.346Z" fill="#F5F5F5"/>
<path d="M309.048 382.757H69.6528V493.163H309.048V382.757Z" fill="#F5F5F5"/>
<path d="M303.35 487.96H75.1321V388.566H303.349V487.96H303.35ZM76.6213 486.47H301.861V390.055H76.6213V486.47Z" fill="#E0E0E0"/>
<path d="M367.531 382.757H309.048V493.163H367.531V382.757Z" fill="#E0E0E0"/>
<path d="M75.8773 419.326C101.524 419.326 127.17 419.326 152.816 419.326C193.337 419.326 233.856 419.326 274.376 419.326C283.786 419.326 293.196 419.326 302.606 419.326C302.993 419.326 302.994 418.725 302.606 418.725C276.96 418.725 251.315 418.725 225.668 418.725C185.148 418.725 144.629 418.725 104.108 418.725C94.6981 418.725 85.2889 418.725 75.8785 418.725C75.4909 418.726 75.4897 419.326 75.8773 419.326Z" fill="#E0E0E0"/>
<path d="M189.982 419.026C190.661 409.225 190.588 398.845 190.059 389.035C190.037 388.643 189.469 388.642 189.448 389.035C188.919 398.845 188.845 409.224 189.526 419.026C189.547 419.319 189.961 419.319 189.982 419.026Z" fill="#E0E0E0"/>
<path d="M251.01 404.031C251.01 405.737 249.628 407.119 247.921 407.119C246.215 407.119 244.833 405.736 244.833 404.031C244.833 402.325 246.215 400.942 247.921 400.942C249.627 400.942 251.01 402.325 251.01 404.031Z" fill="#E0E0E0"/>
<path d="M132.022 404.031C132.022 405.737 130.639 407.119 128.933 407.119C127.227 407.119 125.844 405.736 125.844 404.031C125.844 402.325 127.227 400.942 128.933 400.942C130.639 400.942 132.022 402.325 132.022 404.031Z" fill="#E0E0E0"/>
<path d="M192.33 438.263C192.33 439.969 190.948 441.351 189.241 441.351C187.535 441.351 186.152 439.969 186.152 438.263C186.152 436.556 187.535 435.174 189.241 435.174C190.948 435.174 192.33 436.556 192.33 438.263Z" fill="#E0E0E0"/>
<path d="M98.2751 493.163L86.7275 559.839H93.6611L115.607 493.163H98.2751Z" fill="#E0E0E0"/>
<path d="M292.111 493.163L302.418 559.839H295.486L274.778 493.163H292.111Z" fill="#E0E0E0"/>
<path d="M338.39 493.163L350.647 559.839H343.714L321.058 493.163H338.39Z" fill="#E0E0E0"/>
<path d="M192.122 469.51C192.122 471.215 190.74 472.599 189.034 472.599C187.327 472.599 185.945 471.216 185.945 469.51C185.945 467.803 187.327 466.421 189.034 466.421C190.74 466.421 192.122 467.803 192.122 469.51Z" fill="#E0E0E0"/>
<path d="M75.8773 453.515C101.524 453.515 127.17 453.515 152.816 453.515C193.337 453.515 233.856 453.515 274.376 453.515C283.786 453.515 293.196 453.515 302.606 453.515C302.993 453.515 302.994 452.914 302.606 452.914C276.96 452.914 251.315 452.914 225.668 452.914C185.148 452.914 144.629 452.914 104.108 452.914C94.6981 452.914 85.2889 452.914 75.8785 452.914C75.4909 452.914 75.4897 453.515 75.8773 453.515Z" fill="#E0E0E0"/>
<path d="M560.261 210.795H501.877V226.241H560.261V210.795Z" fill="#F5F5F5"/>
<path d="M535.573 242.509C535.567 242.503 535.561 242.408 535.555 242.228C535.551 242.022 535.545 241.761 535.536 241.436C535.525 240.709 535.511 239.696 535.493 238.397C535.469 235.73 535.435 231.897 535.393 227.064L535.575 227.245C522.244 227.271 501.043 227.313 477.195 227.361C477.327 227.229 476.895 227.658 477.489 227.064V227.067V227.076V227.091V227.123V227.185V227.31V227.558V228.055V229.045C477.489 229.704 477.489 230.36 477.489 231.015C477.489 232.325 477.487 233.624 477.487 234.913C477.486 237.491 477.484 240.026 477.483 242.51L477.192 242.22C493.817 242.273 508.365 242.319 518.797 242.352C523.995 242.387 528.165 242.415 531.078 242.435C532.495 242.451 533.604 242.463 534.399 242.473C534.756 242.481 535.042 242.487 535.267 242.492C535.463 242.496 535.566 242.502 535.573 242.509C535.579 242.515 535.488 242.521 535.303 242.528C535.087 242.533 534.814 242.539 534.471 242.546C533.692 242.556 532.603 242.568 531.213 242.585C528.316 242.604 524.167 242.633 518.999 242.667C508.515 242.701 493.896 242.747 477.191 242.799L476.901 242.801V242.509C476.899 240.025 476.897 237.489 476.896 234.912C476.896 233.623 476.895 232.323 476.895 231.014C476.895 230.36 476.895 229.703 476.895 229.044V228.054V227.557V227.309V227.184V227.121V227.09V227.075V227.066V227.063C477.49 226.467 477.061 226.898 477.196 226.765C501.045 226.813 522.245 226.855 535.576 226.881H535.758L535.757 227.063C535.714 231.942 535.68 235.811 535.657 238.503C535.638 239.785 535.624 240.786 535.613 241.502C535.606 241.814 535.599 242.064 535.594 242.263C535.585 242.432 535.579 242.515 535.573 242.509Z" fill="#E0E0E0"/>
<path d="M444.246 377.918C444.24 377.912 444.234 377.817 444.228 377.637C444.223 377.431 444.217 377.171 444.209 376.845C444.198 376.118 444.184 375.105 444.166 373.806C444.142 371.139 444.108 367.307 444.066 362.473L444.247 362.654C430.917 362.681 409.716 362.723 385.867 362.771C385.999 362.639 385.567 363.067 386.161 362.474V362.478V362.486V362.502V362.533V362.595V362.72V362.969V363.465V364.455C386.161 365.114 386.161 365.771 386.161 366.426C386.161 367.735 386.16 369.035 386.16 370.323C386.159 372.901 386.157 375.437 386.155 377.921L385.865 377.63C402.49 377.683 417.037 377.73 427.47 377.762C432.667 377.797 436.837 377.826 439.751 377.845C441.168 377.862 442.277 377.874 443.071 377.883C443.429 377.892 443.715 377.898 443.94 377.903C444.136 377.905 444.24 377.911 444.246 377.918C444.252 377.924 444.161 377.93 443.976 377.937C443.76 377.942 443.487 377.948 443.143 377.957C442.365 377.966 441.275 377.978 439.885 377.995C436.989 378.014 432.84 378.043 427.672 378.078C417.187 378.111 402.569 378.157 385.864 378.21L385.573 378.211V377.919C385.572 375.435 385.57 372.9 385.569 370.322C385.569 369.033 385.567 367.734 385.567 366.425C385.567 365.771 385.567 365.113 385.567 364.454V363.464V362.967V362.719V362.594V362.532V362.501V362.485V362.477V362.473C386.163 361.878 385.734 362.307 385.869 362.175C409.717 362.223 430.918 362.265 444.249 362.292H444.431L444.43 362.473C444.387 367.352 444.353 371.221 444.33 373.914C444.311 375.195 444.297 376.196 444.286 376.913C444.279 377.225 444.271 377.474 444.267 377.673C444.258 377.841 444.252 377.924 444.246 377.918Z" fill="#E0E0E0"/>
<path d="M122.846 216.968H64.4629V232.413H122.846V216.968Z" fill="#F5F5F5"/>
<path d="M98.1588 248.682C98.1528 248.676 98.1468 248.581 98.1408 248.401C98.136 248.195 98.13 247.934 98.1216 247.609C98.1108 246.882 98.0964 245.869 98.0772 244.57C98.0532 241.903 98.0196 238.07 97.9776 233.237L98.1588 233.418C84.828 233.444 63.6276 233.488 39.7788 233.534C39.9108 233.402 39.4788 233.831 40.0728 233.238V233.242V233.25V233.266V233.297V233.359V233.484V233.732V234.229V235.219C40.0728 235.878 40.0728 236.534 40.0728 237.19C40.0728 238.499 40.0716 239.798 40.0716 241.087C40.0704 243.665 40.068 246.2 40.0668 248.684L39.7764 248.394C56.4012 248.447 70.9488 248.492 81.3816 248.526C86.5788 248.561 90.7488 248.59 93.6624 248.609C95.0796 248.626 96.1884 248.638 96.9828 248.647C97.3404 248.656 97.626 248.662 97.8516 248.666C98.0484 248.67 98.1528 248.676 98.1588 248.682C98.1648 248.688 98.0736 248.694 97.8888 248.701C97.6728 248.706 97.3992 248.712 97.056 248.72C96.2772 248.73 95.1888 248.742 93.798 248.759C90.9012 248.778 86.7528 248.807 81.5844 248.842C71.1 248.875 56.4816 248.921 39.7764 248.974L39.486 248.975V248.683C39.4848 246.199 39.4824 243.664 39.4812 241.086C39.4812 239.797 39.48 238.498 39.48 237.188C39.48 236.534 39.48 235.877 39.48 235.218V234.228V233.731V233.483V233.358V233.296V233.264V233.249V233.24V233.237C40.0752 232.642 39.6468 233.072 39.7812 232.939C63.63 232.987 84.8304 233.029 98.1612 233.056H98.3436L98.3424 233.237C98.2992 238.116 98.2656 241.985 98.2428 244.676C98.2236 245.958 98.2092 246.959 98.1984 247.675C98.1912 247.987 98.184 248.237 98.1792 248.436C98.1708 248.605 98.1648 248.688 98.1588 248.682Z" fill="#E0E0E0"/>
<path d="M318.479 60.5437C318.473 60.5377 318.467 60.4429 318.461 60.2629C318.456 60.0565 318.45 59.7961 318.441 59.4709C318.431 58.7437 318.416 57.7309 318.397 56.4313C318.373 53.7649 318.339 49.9321 318.297 45.0985L318.479 45.2797C305.148 45.3061 283.947 45.3481 260.099 45.3961C260.231 45.2641 259.799 45.6925 260.393 45.0985V45.1021V45.1105V45.1261V45.1573V45.2197V45.3445V45.5929V46.0897V47.0797C260.393 47.7385 260.393 48.3961 260.393 49.0501C260.393 50.3593 260.391 51.6589 260.391 52.9477C260.39 55.5253 260.388 58.0609 260.387 60.5449L260.096 60.2545C276.721 60.3073 291.269 60.3541 301.701 60.3865C306.899 60.4213 311.069 60.4501 313.982 60.4693C315.399 60.4861 316.508 60.4981 317.303 60.5077C317.66 60.5149 317.946 60.5221 318.171 60.5269C318.368 60.5305 318.473 60.5365 318.479 60.5437C318.485 60.5497 318.393 60.5569 318.209 60.5629C317.993 60.5677 317.719 60.5737 317.376 60.5821C316.597 60.5917 315.509 60.6037 314.118 60.6205C311.221 60.6397 307.073 60.6685 301.904 60.7033C291.42 60.7369 276.801 60.7825 260.096 60.8353L259.806 60.8365V60.5449C259.805 58.0609 259.802 55.5253 259.801 52.9477C259.801 51.6589 259.8 50.3593 259.8 49.0501C259.8 48.3961 259.8 47.7385 259.8 47.0797V46.0897V45.5929V45.3445V45.2197V45.1573V45.1261V45.1105V45.1021V45.0985C260.395 44.5033 259.967 44.9329 260.101 44.8009C283.95 44.8489 305.15 44.8909 318.481 44.9173H318.663L318.662 45.0985C318.619 49.9777 318.585 53.8477 318.563 56.5393C318.543 57.8209 318.529 58.8217 318.518 59.5381C318.51 59.8501 318.504 60.0997 318.499 60.2989C318.491 60.4669 318.485 60.5497 318.479 60.5437Z" fill="#E0E0E0"/>
<path d="M326.395 45.0983C326.388 45.0911 326.38 44.9915 326.372 44.8043C326.366 44.5823 326.358 44.3135 326.349 43.9859C326.336 43.2263 326.318 42.1931 326.296 40.8887C326.269 38.1803 326.229 34.3559 326.181 29.6531L326.395 29.8667C317.307 29.8883 304.945 29.9183 291.319 29.9507C291.051 30.2159 291.678 29.5883 291.614 29.6543V29.6579V29.6663V29.6819V29.7143V29.7779V29.9051V30.1595V30.6659V31.6751C291.614 32.3459 291.614 33.0143 291.613 33.6779C291.612 35.0051 291.612 36.3167 291.61 37.6091C291.607 40.1927 291.603 42.6983 291.6 45.0983L291.316 44.8151C301.443 44.8691 310.161 44.9159 316.41 44.9495C319.491 44.9831 321.961 45.0083 323.719 45.0275C324.54 45.0419 325.194 45.0539 325.69 45.0635C326.142 45.0743 326.383 45.0863 326.395 45.0983C326.407 45.1103 326.188 45.1211 325.758 45.1331C325.276 45.1415 324.642 45.1535 323.845 45.1691C322.102 45.1883 319.654 45.2147 316.6 45.2471C310.304 45.2807 301.52 45.3275 291.316 45.3815L291.033 45.3827V45.0983C291.03 42.6983 291.026 40.1927 291.022 37.6091C291.021 36.3167 291.021 35.0051 291.02 33.6779C291.02 33.0143 291.02 32.3459 291.019 31.6751V30.6659V30.1595V29.9039V29.7767V29.7131V29.6807V29.6651V29.6567V29.6531C290.954 29.7155 291.583 29.0879 291.319 29.3543C304.945 29.3867 317.307 29.4167 326.395 29.4383H326.611L326.608 29.6519C326.56 34.4099 326.521 38.2787 326.493 41.0183C326.47 42.3023 326.452 43.3187 326.44 44.0675C326.424 44.7587 326.409 45.1127 326.395 45.0983Z" fill="#E0E0E0"/>
<path d="M541.108 559.839C541.108 560.012 433.152 560.151 300.012 560.151C166.826 560.151 58.8936 560.012 58.8936 559.839C58.8936 559.667 166.826 559.527 300.012 559.527C433.151 559.526 541.108 559.667 541.108 559.839Z" fill="#263238"/>
<path d="M241.243 134.039L236.496 124.368C238.63 118.554 239.234 112.098 237.911 105.583C234.106 86.8498 215.836 74.7478 197.102 78.553C178.369 82.3582 166.267 100.628 170.071 119.361C173.876 138.095 192.146 150.197 210.881 146.391C218.702 144.803 225.362 140.687 230.196 135.072L230.188 135.09L241.243 134.039Z" fill="white"/>
<path d="M241.243 134.039C241.243 134.039 241.021 134.072 240.555 134.124C240.063 134.177 239.367 134.252 238.461 134.351C236.565 134.549 233.796 134.837 230.199 135.211C230.133 135.218 230.075 135.17 230.067 135.104C230.065 135.081 230.07 135.057 230.079 135.038L230.088 135.02L230.288 135.152C227.397 138.533 222.871 142.5 216.374 144.995C214.76 145.62 213.03 146.137 211.206 146.526C209.367 146.825 207.465 147.206 205.469 147.23C201.495 147.415 197.223 146.922 192.999 145.518C188.779 144.122 184.616 141.819 180.972 138.613C177.326 135.417 174.209 131.312 172.093 126.559C169.947 121.819 168.939 116.408 169.169 110.935C169.407 105.464 170.917 99.8843 173.847 94.9727L174.955 93.1307L176.221 91.4051L176.852 90.5459L177.557 89.7491L178.968 88.1675C179.455 87.6599 179.993 87.2027 180.501 86.7203C181.026 86.2547 181.506 85.7399 182.081 85.3427C183.199 84.5099 184.265 83.6134 185.474 82.9402C190.152 80.0122 195.397 78.283 200.597 77.7562C205.807 77.2642 210.941 77.977 215.532 79.6078C220.13 81.2326 224.186 83.7586 227.474 86.773C230.772 89.7874 233.299 93.2831 235.082 96.8519C236.021 98.6207 236.639 100.46 237.257 102.223C237.705 104.036 238.218 105.77 238.428 107.493C239.409 114.389 238.159 120.27 236.61 124.412L236.605 124.319C238.121 127.478 239.289 129.914 240.09 131.583C240.469 132.381 240.761 132.995 240.967 133.429C241.158 133.837 241.243 134.039 241.243 134.039C241.243 134.039 241.121 133.817 240.907 133.399C240.686 132.963 240.374 132.348 239.967 131.546C239.145 129.909 237.944 127.52 236.388 124.421C236.373 124.391 236.372 124.356 236.383 124.327C237.878 120.197 239.069 114.36 238.058 107.544C237.841 105.84 237.324 104.127 236.873 102.337C236.252 100.598 235.634 98.7826 234.699 97.0403C232.922 93.5231 230.415 90.0827 227.153 87.1199C223.899 84.1571 219.895 81.6791 215.359 80.0879C210.833 78.4919 205.776 77.8006 200.648 78.2914C195.529 78.8182 190.368 80.5259 185.769 83.4107C184.58 84.0731 183.534 84.9575 182.432 85.7759C181.866 86.1671 181.394 86.6747 180.878 87.1331C180.379 87.6083 179.849 88.057 179.37 88.5574L177.981 90.1139L177.288 90.8975L176.667 91.7435L175.422 93.4414L174.332 95.2547C171.449 100.087 169.962 105.576 169.723 110.958C169.494 116.342 170.478 121.671 172.584 126.339C174.66 131.022 177.722 135.069 181.307 138.227C184.891 141.393 188.988 143.676 193.146 145.065C197.307 146.463 201.522 146.966 205.446 146.801C207.419 146.786 209.299 146.417 211.118 146.131C212.923 145.755 214.637 145.254 216.237 144.644C222.678 142.214 227.193 138.319 230.101 134.993C230.144 134.942 230.22 134.936 230.271 134.979C230.313 135.015 230.324 135.077 230.301 135.125L230.293 135.141L230.173 134.969C233.739 134.661 236.486 134.425 238.367 134.263C239.289 134.187 239.997 134.129 240.499 134.087C240.984 134.051 241.243 134.039 241.243 134.039Z" fill="#263238"/>
<path d="M187.981 114.739L192.461 110.26L201.099 117.938L218.059 101.62L222.218 106.099L200.46 126.578L187.981 114.739Z" fill="#FBBA2D"/>
<path d="M220.028 515.199L199.17 534.971C199.17 534.971 219.77 558.474 217.113 563.342L166.916 534.371L197.991 499.448L220.028 515.199Z" fill="#203864"/>
<g opacity="0.6">
<path d="M185.333 523.311C184.22 522.974 182.893 523.63 182.51 524.728C182.129 525.826 182.783 527.181 183.89 527.538C184.997 527.894 186.614 527.156 186.871 526.022C187.128 524.888 186.272 523.339 185.113 523.259" fill="white"/>
</g>
<g opacity="0.6">
<path d="M166.915 534.37L170.082 530.812L216.888 560.047C216.888 560.047 218.087 561.683 217.155 563.855L166.915 534.37Z" fill="white"/>
</g>
<path d="M200.123 535.222C199.964 535.456 198.697 534.812 197.035 534.842C195.371 534.828 194.112 535.484 193.951 535.252C193.759 535.066 195.017 533.858 197.03 533.857C199.044 533.838 200.312 535.034 200.123 535.222Z" fill="#263238"/>
<path d="M203.932 540.583C203.84 540.849 202.547 540.605 201.096 541.108C199.631 541.567 198.737 542.534 198.505 542.373C198.257 542.269 198.972 540.762 200.788 540.172C202.597 539.567 204.07 540.351 203.932 540.583Z" fill="#263238"/>
<path d="M202.985 548.58C202.735 548.495 203.154 547.087 204.594 546.162C206.027 545.226 207.482 545.418 207.458 545.681C207.47 545.963 206.3 546.21 205.13 546.987C203.941 547.739 203.238 548.705 202.985 548.58Z" fill="#263238"/>
<path d="M203.323 529.166C203.085 529.322 202.194 528.301 200.781 527.541C199.385 526.754 198.045 526.547 198.05 526.262C198.02 526.002 199.607 525.762 201.257 526.679C202.914 527.582 203.559 529.052 203.323 529.166Z" fill="#263238"/>
<path d="M206.618 524.12C206.559 524.221 205.519 523.773 204.169 522.564C203.498 521.96 202.765 521.156 202.094 520.158C201.759 519.658 201.44 519.112 201.153 518.522C201.018 518.234 200.843 517.92 200.774 517.478C200.666 517.062 200.915 516.331 201.465 516.134C201.954 515.916 202.501 516.032 202.86 516.246C203.229 516.46 203.477 516.718 203.702 516.952C204.165 517.428 204.564 517.932 204.901 518.437C205.571 519.452 205.993 520.471 206.233 521.348C206.709 523.118 206.535 524.257 206.425 524.252C206.267 524.263 206.184 523.165 205.572 521.566C205.266 520.771 204.81 519.859 204.156 518.954C203.827 518.504 203.449 518.056 203.018 517.633C202.584 517.17 202.145 516.888 201.866 517.035C201.763 517.093 201.734 517.124 201.747 517.345C201.771 517.556 201.896 517.825 202.028 518.109C202.284 518.665 202.567 519.186 202.86 519.667C203.449 520.629 204.085 521.433 204.663 522.07C205.82 523.345 206.703 523.993 206.618 524.12Z" fill="#263238"/>
<path d="M206.09 524.267C205.982 524.25 206.046 523.093 206.933 521.486C207.375 520.691 208.041 519.809 208.958 519.006C209.419 518.608 209.941 518.232 210.522 517.907C211.113 517.603 211.872 517.174 212.869 517.651C213.366 517.938 213.531 518.57 213.465 518.981C213.419 519.415 213.272 519.72 213.151 520.04C212.881 520.67 212.517 521.226 212.113 521.696C211.303 522.643 210.329 523.244 209.468 523.576C207.71 524.245 206.531 523.903 206.561 523.81C206.556 523.639 207.683 523.702 209.184 522.94C209.924 522.564 210.745 521.972 211.412 521.119C211.746 520.696 212.042 520.208 212.259 519.671C212.51 519.101 212.579 518.557 212.351 518.489C212.109 518.332 211.447 518.464 210.985 518.754C210.457 519.036 209.973 519.36 209.539 519.703C208.675 520.397 208.007 521.161 207.522 521.856C206.551 523.255 206.244 524.312 206.09 524.267Z" fill="#263238"/>
<path d="M377.015 516.899L381.989 543.73C381.989 543.73 411.695 553.444 411.89 558.987L355.358 559.659L351.185 516.899H377.015Z" fill="#203864"/>
<g opacity="0.6">
<path d="M360.032 542.902C358.903 543.179 358.096 544.42 358.326 545.56C358.558 546.7 359.812 547.531 360.946 547.273C362.078 547.015 363.095 545.556 362.737 544.45C362.381 543.343 360.854 542.447 359.815 542.969" fill="white"/>
</g>
<g opacity="0.6">
<path d="M355.358 559.659L354.468 555.55L410.017 556.266C410.017 556.266 411.883 557.062 412.188 559.405L355.358 559.659Z" fill="white"/>
</g>
<path d="M382.935 543.459C382.919 543.742 381.5 543.833 380.085 544.707C378.647 545.543 377.898 546.75 377.641 546.631C377.382 546.569 377.847 544.889 379.579 543.862C381.302 542.819 383.004 543.201 382.935 543.459Z" fill="#263238"/>
<path d="M388.946 546.128C389.004 546.404 387.766 546.853 386.774 548.026C385.748 549.168 385.472 550.456 385.191 550.435C384.925 550.472 384.771 548.81 386.032 547.378C387.28 545.934 388.947 545.86 388.946 546.128Z" fill="#263238"/>
<path d="M392.209 553.491C391.951 553.545 391.593 552.12 392.36 550.59C393.116 549.054 394.466 548.478 394.579 548.717C394.733 548.953 393.853 549.762 393.242 551.029C392.603 552.28 392.491 553.47 392.209 553.491Z" fill="#263238"/>
<path d="M380.583 537.207C380.459 537.461 379.171 537.037 377.569 537.105C375.967 537.139 374.708 537.643 374.568 537.397C374.409 537.189 375.651 536.173 377.539 536.121C379.424 536.053 380.729 536.988 380.583 537.207Z" fill="#263238"/>
<path d="M246.533 321.864C245.594 322.497 243.46 354.696 246.533 361.757L238.714 419.771C238.714 419.771 217.741 453.077 213.518 457.923C209.297 462.77 181.912 510.048 181.912 510.048L212.828 536.717C212.828 536.717 266.566 466.508 275.203 454.047C288.756 434.497 304.753 361.208 304.753 361.208L306.836 324.83L246.533 321.864Z" fill="#263238"/>
<path d="M288.756 368.277C289.694 369.996 331.533 434.309 331.533 434.309C331.533 434.309 337.881 468.376 339.289 483.401C340.697 498.426 350.983 537.063 350.983 537.063L384.654 534.419C384.654 534.419 375.547 434.944 369.918 415.557C364.289 396.169 348.627 358.708 348.627 358.708L335.412 323.653L297.362 324.366L288.756 368.277Z" fill="#263238"/>
<path d="M312.574 334.181C312.594 334.187 312.522 334.544 312.364 335.22C312.186 335.947 311.945 336.931 311.642 338.17C310.976 340.782 310.038 344.465 308.885 348.991C306.53 358.122 303.269 370.735 299.472 384.616C295.67 398.5 291.973 410.997 289.153 419.999C287.742 424.499 286.574 428.132 285.734 430.632C285.325 431.84 284.999 432.799 284.759 433.508C284.53 434.163 284.399 434.504 284.378 434.498C284.358 434.492 284.448 434.138 284.639 433.47C284.851 432.752 285.139 431.782 285.503 430.559C286.282 427.979 287.381 424.341 288.731 419.87C291.442 410.84 295.069 398.33 298.87 384.451C302.608 370.585 305.99 358.033 308.459 348.88C309.692 344.374 310.696 340.709 311.408 338.107C311.759 336.881 312.037 335.908 312.244 335.188C312.439 334.523 312.552 334.176 312.574 334.181Z" fill="#203864"/>
<path d="M415.97 182.408C415.97 182.408 419.505 179.617 420.651 179.705C421.796 179.793 428.911 180.819 428.911 180.819C428.911 180.819 429.366 183.812 427.32 184.799C425.275 185.785 422.249 185.864 422.249 185.864L420.553 187.057L415.97 182.408Z" fill="#FFCAAE"/>
<path d="M323.093 192.247L378.834 236.017L406.386 210.049L407.146 204.999C407.362 203.563 407.755 202.16 408.318 200.822L415.445 183.885L432.113 210.915C432.113 210.915 391.138 264.422 383.958 266.294C374.498 268.761 327.373 236.859 327.373 236.859L323.093 192.247Z" fill="#FFCAAE"/>
<path d="M415.172 198.807C415.254 198.68 417.707 201.18 418.774 205.232C419.885 209.275 419.016 212.666 418.882 212.598C418.68 212.585 419.243 209.275 418.17 205.394C417.151 201.5 415.004 198.919 415.172 198.807Z" fill="#FF9A6C"/>
<path d="M287.012 113.604L285.925 170.726C285.542 180.477 285.026 194.915 300.471 194.816C313.866 193.721 317.747 181.172 318.095 172.073C318.259 167.756 318.405 164.156 318.452 163.715C318.452 163.715 333.103 162.914 334.724 148.507C335.508 141.546 335.953 127.074 336.204 113.978C336.474 99.913 325.88 88.0054 311.883 86.6062L310.491 86.467C295.395 85.8418 287.219 98.497 287.012 113.604Z" fill="#FFCAAE"/>
<path d="M318.489 163.715C318.489 163.715 309.344 163.339 300.264 156.284C300.264 156.284 303.792 167.279 318.314 167.418L318.489 163.715Z" fill="#FF935C"/>
<path d="M311.992 121.305C311.67 121.38 310.266 120.246 307.942 119.575C305.626 118.888 303.691 119.046 303.494 118.818C303.395 118.714 303.764 118.515 304.61 118.435C305.444 118.354 306.792 118.429 308.238 118.852C309.684 119.275 310.799 119.919 311.394 120.419C312.004 120.925 312.148 121.273 311.992 121.305Z" fill="#263238"/>
<path d="M309.142 124.152C309.074 125.184 308.146 125.98 307.066 125.931C305.988 125.881 305.167 125.005 305.233 123.972C305.299 122.94 306.229 122.143 307.307 122.193C308.387 122.242 309.208 123.119 309.142 124.152Z" fill="#263238"/>
<path d="M317.351 136.235C317.353 136.108 318.755 136.008 321.015 135.946C321.588 135.943 322.134 135.885 322.268 135.509C322.442 135.113 322.267 134.479 322.058 133.793C321.663 132.37 321.249 130.878 320.815 129.316C319.104 122.947 317.925 117.733 318.183 117.666C318.44 117.6 320.036 122.707 321.747 129.077C322.155 130.647 322.547 132.142 322.917 133.573C323.067 134.238 323.363 135.005 322.988 135.825C322.794 136.233 322.347 136.498 321.975 136.559C321.601 136.633 321.282 136.608 321.001 136.596C318.74 136.491 317.346 136.362 317.351 136.235Z" fill="#263238"/>
<path d="M310.955 110.122C310.706 110.652 308.78 110.196 306.458 110.254C304.135 110.262 302.216 110.771 301.961 110.248C301.849 109.998 302.222 109.513 303.024 109.056C303.818 108.599 305.052 108.212 306.445 108.192C307.837 108.174 309.076 108.527 309.876 108.961C310.684 109.394 311.064 109.868 310.955 110.122Z" fill="#263238"/>
<path d="M333.811 115.219C333.546 115.65 331.672 115.114 329.386 114.982C327.101 114.809 325.193 115.092 324.964 114.628C324.864 114.407 325.252 114.025 326.058 113.699C326.858 113.372 328.086 113.14 329.456 113.231C330.827 113.324 332.029 113.719 332.798 114.15C333.574 114.581 333.929 115.013 333.811 115.219Z" fill="#263238"/>
<path d="M287.121 124.604C286.871 124.474 276.921 120.752 276.488 131.152C276.055 141.551 286.585 139.841 286.615 139.543C286.646 139.244 287.121 124.604 287.121 124.604Z" fill="#FFCAAE"/>
<path d="M283.603 135.47C283.559 135.435 283.416 135.589 283.105 135.717C282.8 135.841 282.283 135.914 281.749 135.689C280.668 135.24 279.815 133.457 279.842 131.581C279.855 130.634 280.092 129.74 280.458 129.008C280.807 128.261 281.321 127.749 281.879 127.675C282.434 127.571 282.812 127.917 282.927 128.216C283.055 128.513 282.98 128.718 283.034 128.738C283.062 128.766 283.265 128.574 283.199 128.141C283.165 127.932 283.052 127.682 282.817 127.472C282.576 127.259 282.213 127.14 281.826 127.166C281.022 127.188 280.268 127.896 279.866 128.7C279.42 129.505 279.132 130.508 279.117 131.573C279.097 133.671 280.088 135.677 281.573 136.173C282.296 136.395 282.915 136.2 283.241 135.967C283.574 135.721 283.638 135.491 283.603 135.47Z" fill="#FF935C"/>
<path d="M317.538 143.131C317.581 142.862 315.555 142.78 313.783 141.353C312.9 140.653 312.277 139.804 311.814 139.186C311.355 138.56 311.032 138.178 310.937 138.236C310.847 138.292 310.992 138.757 311.34 139.476C311.692 140.184 312.293 141.173 313.293 141.968C314.285 142.776 315.426 143.119 316.225 143.219C317.034 143.328 317.534 143.22 317.538 143.131Z" fill="#263238"/>
<path d="M333.356 120.156C333.119 120.38 331.34 120.172 329.005 120.806C326.669 121.422 325.088 122.528 324.803 122.443C324.665 122.408 324.882 122.062 325.568 121.568C326.244 121.08 327.439 120.46 328.895 120.071C330.35 119.682 331.632 119.639 332.396 119.743C333.175 119.844 333.475 120.053 333.356 120.156Z" fill="#263238"/>
<path d="M330.239 125.244C330.173 126.276 329.243 127.071 328.164 127.022C327.086 126.973 326.265 126.097 326.331 125.065C326.397 124.033 327.327 123.236 328.405 123.285C329.484 123.335 330.306 124.212 330.239 125.244Z" fill="#263238"/>
<path d="M356.108 101.539C355.967 100.954 355.556 100.464 355.046 100.144C353.934 99.4464 352.628 99.4992 351.371 99.4464C348.24 99.312 345.155 98.4276 342.401 96.936C343.387 96.4692 344.313 95.8932 345.105 95.1432C346.743 93.594 347.725 91.182 347.052 89.0316C346.926 88.6284 346.704 88.2024 346.303 88.0668C345.667 87.8532 345.09 88.4676 344.629 88.9548C343.116 90.558 341.738 91.2264 339.552 90.9468C338.193 90.7728 336.883 90.432 335.829 89.7372C335.787 89.6916 335.751 89.6412 335.709 89.5956C335.21 89.052 334.723 88.5336 334.242 88.0308C334.241 88.0284 334.238 88.026 334.238 88.026L334.239 88.0296C330.625 84.2472 327.5 81.6108 324.248 80.1996C319.482 78.1308 311.444 77.1288 306.385 78.312C301.326 79.4952 296.705 83.4516 295.868 88.5792C293.114 86.1216 288.884 86.028 285.415 87.3168L285.33 87.2772C281.472 88.5372 279.192 92.5164 277.961 96.384C277.893 96.5952 277.833 96.81 277.77 97.0224C276.423 99.036 274.62 100.744 272.492 101.908C272.117 102.113 271.687 102.365 271.631 102.788C271.574 103.208 271.921 103.567 272.259 103.823C273.158 104.503 274.214 104.963 275.318 105.191C274.944 106.108 274.509 106.997 273.979 107.843C273.528 108.562 272.991 109.423 273.348 110.194C273.624 110.789 274.364 111.052 275.016 110.974C275.667 110.896 276.253 110.552 276.816 110.216C276.362 111.226 275.909 112.235 275.455 113.244C276.831 113.522 278.265 113.449 279.62 113.078C280.334 116.744 281.127 121.42 282.001 123.916C283.598 123.954 285.121 123.62 286.082 124.532C287.389 125.772 287.927 128.052 290.174 127.252C291.318 126.845 292.415 124.496 292.824 123.354C295.543 115.768 296.597 107.593 295.903 99.564C297.531 97.9188 299.478 96.5916 301.604 95.6772L301.429 95.826C305.502 94.5324 310.104 93.276 313.881 95.2728C316.812 96.822 318.475 99.9504 320.63 102.469C324.714 107.243 329.759 109.884 336.025 110.322C336.474 114.695 335.859 120.209 335.964 124.28L339.897 117.824L339.9 117.857C340.193 117.388 340.437 116.914 340.674 116.437L340.754 116.293V116.275C341.131 115.511 341.49 114.745 341.96 113.993C341.973 114.005 341.985 114.017 341.999 114.029C344.149 116.032 347.475 113.147 345.801 110.731C345.469 110.252 345.068 109.822 344.606 109.464C345.588 110.436 347.077 110.929 348.408 110.56C349.739 110.189 350.799 108.881 350.721 107.501C350.667 106.559 350.019 105.701 349.181 105.307C350.957 105.492 352.787 105.152 354.361 104.31C355.395 103.756 356.419 102.828 356.108 101.539Z" fill="#263238"/>
<path d="M300.371 90.3589C300.398 90.3973 299.755 90.7249 298.886 91.6453C298.026 92.5621 297.044 94.1701 296.54 96.3817C296.284 97.4809 296.108 98.7133 296.074 100.043C296.032 101.372 296.101 102.8 296.162 104.304C296.22 105.808 296.285 107.396 296.144 109.044C296.074 109.866 295.952 110.701 295.752 111.534C295.548 112.352 295.308 113.239 294.668 113.93C294.158 114.493 293.324 114.727 292.612 114.562C291.893 114.414 291.262 114.013 290.806 113.477C289.904 112.368 289.71 110.986 289.512 109.766L289.814 109.811C289.29 110.887 288.752 111.95 287.976 112.789C287.212 113.634 286.17 114.179 285.125 114.245C284.604 114.277 284.083 114.18 283.643 113.944C283.194 113.71 282.874 113.324 282.658 112.92C282.452 112.508 282.352 112.061 282.385 111.631C282.421 111.203 282.599 110.801 282.878 110.52L283.028 110.66C281.881 111.899 280.686 112.549 279.863 112.906C279.448 113.083 279.115 113.188 278.891 113.254C278.665 113.314 278.546 113.339 278.544 113.329C278.542 113.32 278.654 113.276 278.874 113.2C279.091 113.117 279.414 112.997 279.817 112.805C280.618 112.422 281.774 111.754 282.875 110.522L283.025 110.663C282.526 111.164 282.473 112.068 282.871 112.806C283.073 113.17 283.367 113.514 283.762 113.712C284.154 113.918 284.63 114.004 285.106 113.969C286.066 113.899 287.036 113.388 287.753 112.584C288.486 111.781 289.006 110.747 289.524 109.668L289.744 109.211L289.825 109.714C290.024 110.93 290.236 112.258 291.056 113.258C291.464 113.74 292.044 114.102 292.673 114.229C293.303 114.368 293.976 114.178 294.421 113.695C294.98 113.098 295.225 112.258 295.423 111.452C295.62 110.64 295.741 109.823 295.812 109.014C295.955 107.395 295.897 105.816 295.849 104.315C295.796 102.812 295.738 101.378 295.792 100.032C295.84 98.6857 296.032 97.4377 296.308 96.3241C296.848 94.0849 297.884 92.4577 298.789 91.5541C299.706 90.6457 300.371 90.3589 300.371 90.3589Z" fill="#203864"/>
<path d="M344.68 105.609C344.683 105.614 344.642 105.647 344.561 105.705C344.461 105.774 344.34 105.857 344.192 105.959C344.032 106.073 343.828 106.205 343.57 106.334C343.316 106.471 343.027 106.637 342.679 106.773C341.321 107.375 339.152 107.951 336.467 107.72C333.806 107.498 330.634 106.47 327.835 104.268C325.006 102.115 322.554 98.9914 320.578 95.4346C319.573 93.6574 318.766 91.8418 317.866 90.1606C316.973 88.4782 315.978 86.9194 314.755 85.6762C313.548 84.427 312.133 83.491 310.661 83.0386C309.928 82.7986 309.184 82.729 308.472 82.7266C307.759 82.7458 307.08 82.8718 306.452 83.059C305.196 83.443 304.174 84.1042 303.392 84.7918C302.609 85.4854 302.075 86.2258 301.705 86.863C301.013 88.1734 300.954 89.0242 300.901 89.0086C300.895 89.0074 300.901 88.957 300.917 88.8574C300.938 88.7386 300.965 88.5934 300.997 88.417C301.078 88.0318 301.26 87.4762 301.589 86.8006C301.946 86.1418 302.474 85.375 303.264 84.6514C304.051 83.935 305.089 83.2426 306.379 82.831C307.024 82.6306 307.723 82.4926 308.464 82.4662C309.2 82.4602 309.98 82.5286 310.74 82.7698C312.27 83.227 313.734 84.1858 314.975 85.4578C316.232 86.7238 317.25 88.3114 318.154 90.0034C319.064 91.6966 319.873 93.5086 320.868 95.269C322.83 98.7982 325.244 101.887 328.021 104.019C330.768 106.201 333.865 107.231 336.485 107.481C339.125 107.738 341.266 107.209 342.625 106.651C343.998 106.086 344.654 105.567 344.68 105.609Z" fill="#203864"/>
<path d="M346.164 99.2974C346.175 99.3178 345.987 99.4402 345.636 99.6442C345.288 99.8554 344.756 100.112 344.081 100.382C343.406 100.658 342.573 100.91 341.63 101.114C340.685 101.301 339.629 101.431 338.514 101.443C337.399 101.443 336.341 101.324 335.394 101.147C334.449 100.952 333.613 100.709 332.936 100.44C332.258 100.177 331.724 99.925 331.374 99.7186C331.021 99.5182 330.831 99.3982 330.842 99.3778C330.872 99.3214 331.658 99.7534 333.017 100.215C333.693 100.452 334.521 100.667 335.45 100.841C336.383 100.998 337.419 101.105 338.511 101.105C339.603 101.093 340.639 100.975 341.569 100.808C342.497 100.625 343.322 100.4 343.997 100.157C345.351 99.6814 346.134 99.241 346.164 99.2974Z" fill="#203864"/>
<path d="M306.479 172.332L321.325 178.376C324.962 179.428 331.904 185.336 336.077 189.331L353.346 212.374L326.943 244.549L306.479 172.332Z" fill="#203864"/>
<path d="M285.765 161.455L283.356 165.228C283.356 165.228 248.455 174.33 245.562 181.321C241.499 191.137 246.824 221.628 246.824 221.628L254.193 287.316L244.118 323.664L336.569 325.244C336.569 325.244 330.959 229.95 329.658 219.863C328.357 209.775 319.544 175.574 319.544 175.574L285.765 161.455Z" fill="#203864"/>
<path d="M328.086 201.27C328.097 201.269 328.116 201.372 328.145 201.574C328.174 201.812 328.211 202.108 328.255 202.471C328.344 203.311 328.465 204.466 328.62 205.928C328.93 208.932 329.324 213.282 329.78 218.662C330.695 229.42 331.736 244.298 332.766 260.736C333.794 277.18 334.766 292.058 335.568 302.822C335.971 308.165 336.299 312.506 336.53 315.568C336.635 317.034 336.718 318.192 336.778 319.034C336.798 319.4 336.814 319.698 336.827 319.938C336.834 320.142 336.833 320.246 336.822 320.248C336.811 320.249 336.792 320.146 336.763 319.944C336.733 319.705 336.697 319.41 336.653 319.046C336.564 318.206 336.443 317.052 336.288 315.589C335.978 312.586 335.584 308.236 335.128 302.857C334.213 292.099 333.172 277.219 332.142 260.776C331.114 244.338 330.142 229.46 329.34 218.696C328.937 213.353 328.608 209.012 328.378 205.95C328.273 204.484 328.19 203.324 328.13 202.482C328.111 202.116 328.094 201.818 328.081 201.578C328.074 201.376 328.075 201.271 328.086 201.27Z" fill="#263238"/>
<path opacity="0.3" d="M248.587 307.537L257.901 311.061L263.079 294.79C263.079 294.79 271.956 301.595 278.168 300.707C284.382 299.819 293.257 294.79 293.257 294.79L313.375 298.537L335.417 306.031L333.789 278.812L275.504 275.854L257.9 277.925L248.587 307.537Z" fill="black"/>
<path d="M192.547 330.639L207.581 323.477C208.97 318.823 210.377 314.175 211.91 309.077C218.292 311.909 223.986 314.436 229.925 317.071C232.076 310.382 233.989 304.437 235.975 298.265C242.267 300.983 247.984 303.452 254.041 306.069C256.088 299.453 257.93 293.499 259.896 287.148C265.094 289.496 269.462 291.846 274.097 293.406C276.457 294.2 279.61 294.35 281.857 293.441C288.349 290.814 294.564 287.501 301.102 284.354C302.039 286.143 302.626 287.185 303.14 288.26C306.232 294.728 306.444 294.829 313.045 291.793C320.072 288.561 327.114 285.357 334.073 281.982C337.02 280.553 339.271 280.795 342.278 282.486C365.192 295.371 388.243 296.081 410.401 281.07C431.376 266.859 440.551 246.354 437.464 221.381C434.39 196.526 420.209 179.203 396.791 170.472C359.882 156.71 319.795 180.584 313.65 219.549C313.144 222.764 311.964 224.485 309.026 225.708C303.011 228.212 297.136 231.051 291.211 233.772C281.285 238.328 281.288 238.334 284.442 248.875C282.461 249.942 280.816 250.953 279.071 251.75C256.069 262.267 194.782 289.62 174.694 298.578L167.701 322.424L192.547 330.639ZM422.005 223.869C416.95 237.174 401.928 243.807 388.618 238.613C375.484 233.487 368.778 218.785 373.597 205.682C378.592 192.105 393.702 185.281 407.264 190.476C420.6 195.585 427.13 210.38 422.005 223.869Z" fill="#FBBA2D"/>
<path opacity="0.3" d="M287 266.045L183.242 311.024C181.503 311.778 179.481 310.98 178.728 309.24C177.974 307.501 178.772 305.479 180.512 304.726L284.27 259.745C286.009 258.991 288.031 259.789 288.785 261.529C289.537 263.269 288.739 265.291 287 266.045Z" fill="black"/>
<path d="M292.696 266.394C292.701 266.403 292.597 266.462 292.391 266.565C292.152 266.682 291.849 266.829 291.471 267.013C290.615 267.413 289.421 267.971 287.905 268.679C284.757 270.122 280.273 272.179 274.751 274.712C263.634 279.787 248.268 286.778 231.245 294.386C214.215 301.993 198.733 308.737 187.465 313.471C181.836 315.848 177.259 317.723 174.088 318.995C172.531 319.61 171.307 320.095 170.429 320.442C170.035 320.591 169.72 320.709 169.471 320.804C169.254 320.882 169.141 320.917 169.138 320.907C169.134 320.898 169.239 320.843 169.447 320.745C169.69 320.636 169.997 320.498 170.381 320.327C171.249 319.953 172.458 319.433 173.995 318.771C177.178 317.406 181.71 315.462 187.293 313.067C198.514 308.231 213.961 301.424 230.991 293.819C247.99 286.209 263.38 279.321 274.57 274.313C280.127 271.855 284.639 269.861 287.807 268.46C289.344 267.798 290.553 267.276 291.42 266.901C291.809 266.741 292.121 266.612 292.367 266.51C292.579 266.423 292.691 266.383 292.696 266.394Z" fill="#263238"/>
<path d="M304.103 289.237C303.947 289.312 299.215 279.78 293.534 267.95C287.852 256.116 283.374 246.466 283.529 246.39C283.685 246.316 288.415 255.845 294.097 267.679C299.779 279.509 304.259 289.163 304.103 289.237Z" fill="#263238"/>
<path d="M434.343 229.412C434.343 229.412 434.306 229.092 434.264 228.467C434.225 227.823 434.167 226.898 434.093 225.692C434.058 225.081 434.018 224.4 433.974 223.649C433.896 222.9 433.737 222.089 433.607 221.207C433.467 220.325 433.317 219.375 433.158 218.36C433.038 217.338 432.659 216.3 432.397 215.172C431.372 210.655 429.263 205.316 425.931 199.656C422.574 194.019 417.728 188.131 411.125 183.131C410.295 182.513 409.457 181.887 408.608 181.255C407.724 180.675 406.793 180.144 405.871 179.576C404.931 179.041 404.041 178.391 403.032 177.935C402.035 177.456 401.028 176.973 400.01 176.485C399.5 176.244 398.988 176 398.473 175.757C397.938 175.561 397.399 175.365 396.859 175.169C395.778 174.774 394.686 174.377 393.584 173.975C392.472 173.607 391.308 173.37 390.156 173.057C388.992 172.793 387.848 172.383 386.634 172.259C384.228 171.917 381.797 171.421 379.278 171.407C378.024 171.363 376.759 171.24 375.486 171.26C374.213 171.326 372.929 171.392 371.636 171.458C370.991 171.503 370.339 171.499 369.693 171.584C369.049 171.684 368.402 171.782 367.754 171.883C366.459 172.098 365.143 172.249 363.841 172.518C361.274 173.216 358.614 173.737 356.085 174.793L354.156 175.501C353.834 175.622 353.508 175.73 353.19 175.863L352.257 176.313C351.012 176.915 349.76 177.518 348.5 178.127C347.273 178.793 346.094 179.568 344.879 180.289C344.283 180.669 343.649 180.995 343.081 181.424L341.369 182.706C339.005 184.328 336.937 186.357 334.772 188.311C333.792 189.391 332.807 190.476 331.817 191.567L331.073 192.385L330.404 193.269L329.073 195.051L327.737 196.841L326.565 198.753L325.397 200.678L324.81 201.644C324.635 201.977 324.48 202.322 324.313 202.661C323.658 204.021 322.999 205.388 322.339 206.761C321.815 208.19 321.289 209.627 320.761 211.067C318.865 216.902 317.844 223.101 317.76 229.409C317.843 235.718 318.861 241.919 320.756 247.757C321.284 249.198 321.81 250.634 322.333 252.063C322.994 253.436 323.652 254.803 324.308 256.165L324.805 257.183L325.392 258.149L326.562 260.075L327.732 261.989L329.07 263.778L330.401 265.56L331.068 266.444L331.812 267.263C332.802 268.353 333.787 269.438 334.769 270.518C336.933 272.473 339.001 274.502 341.366 276.126L343.079 277.407C343.645 277.838 344.281 278.162 344.876 278.544C346.092 279.265 347.27 280.04 348.498 280.707C349.758 281.316 351.011 281.919 352.255 282.521L353.187 282.971C353.505 283.103 353.833 283.212 354.153 283.333L356.083 284.041C358.611 285.097 361.272 285.618 363.84 286.316C365.142 286.585 366.458 286.737 367.753 286.951C368.402 287.051 369.049 287.15 369.693 287.249C370.339 287.334 370.992 287.329 371.637 287.375C372.93 287.441 374.214 287.507 375.487 287.573C376.76 287.592 378.025 287.469 379.279 287.426C381.799 287.412 384.23 286.915 386.636 286.573C387.849 286.448 388.994 286.039 390.158 285.775C391.31 285.462 392.474 285.225 393.587 284.856C394.688 284.454 395.78 284.055 396.861 283.662C397.403 283.465 397.94 283.269 398.475 283.074C398.99 282.829 399.503 282.587 400.011 282.344C401.029 281.856 402.036 281.372 403.033 280.895C404.041 280.437 404.931 279.787 405.872 279.252C406.793 278.684 407.725 278.154 408.608 277.573C409.457 276.941 410.295 276.315 411.125 275.697C417.727 270.697 422.573 264.807 425.93 259.172C429.26 253.512 431.37 248.174 432.395 243.657C432.656 242.531 433.035 241.493 433.155 240.469C433.315 239.455 433.465 238.506 433.604 237.624C433.735 236.742 433.893 235.931 433.971 235.182C434.015 234.432 434.054 233.75 434.089 233.138C434.163 231.932 434.221 231.007 434.261 230.364C434.306 229.733 434.343 229.412 434.343 229.412C434.343 229.412 434.348 229.733 434.328 230.359C434.303 231.003 434.267 231.931 434.219 233.141C434.192 233.754 434.162 234.438 434.13 235.191C434.063 235.943 433.913 236.757 433.791 237.644C433.661 238.531 433.52 239.485 433.369 240.504C433.257 241.532 432.888 242.576 432.633 243.71C431.64 248.255 429.554 253.634 426.234 259.345C422.886 265.032 418.032 270.983 411.396 276.043C410.562 276.668 409.719 277.302 408.865 277.941C407.977 278.529 407.04 279.068 406.112 279.643C405.167 280.185 404.27 280.842 403.256 281.307C402.253 281.792 401.239 282.283 400.214 282.779C399.701 283.023 399.185 283.271 398.666 283.518C398.126 283.716 397.585 283.915 397.04 284.115C395.951 284.516 394.85 284.919 393.74 285.327C392.619 285.702 391.446 285.944 390.284 286.263C389.111 286.532 387.956 286.947 386.733 287.077C384.307 287.427 381.854 287.933 379.311 287.954C378.045 288.001 376.77 288.126 375.485 288.109C374.199 288.045 372.903 287.982 371.599 287.917C370.947 287.873 370.289 287.877 369.637 287.793C368.987 287.695 368.334 287.595 367.679 287.497C366.371 287.283 365.041 287.131 363.726 286.862C361.131 286.163 358.445 285.639 355.889 284.577C355.241 284.341 354.591 284.103 353.939 283.865C353.613 283.742 353.283 283.633 352.962 283.5L352.02 283.046C350.761 282.441 349.495 281.832 348.222 281.22C346.981 280.549 345.789 279.768 344.561 279.039C343.959 278.655 343.317 278.328 342.744 277.893L341.012 276.601C338.623 274.963 336.53 272.917 334.343 270.942C333.35 269.851 332.354 268.755 331.352 267.655L330.601 266.828L329.925 265.935L328.579 264.137L327.227 262.328L326.042 260.395L324.859 258.45L324.266 257.474L323.763 256.446C323.1 255.069 322.434 253.688 321.765 252.301C321.235 250.855 320.703 249.404 320.169 247.949C318.251 242.048 317.221 235.781 317.138 229.404C317.222 223.029 318.255 216.764 320.174 210.866C320.708 209.411 321.241 207.96 321.771 206.515C322.44 205.129 323.106 203.747 323.768 202.371C323.937 202.029 324.093 201.68 324.271 201.344L324.864 200.369L326.046 198.423L327.23 196.491L328.583 194.684L329.929 192.885L330.605 191.993L331.356 191.166C332.357 190.065 333.354 188.97 334.345 187.88C336.533 185.906 338.625 183.86 341.015 182.223L342.746 180.931C343.32 180.498 343.962 180.17 344.563 179.786C345.792 179.059 346.982 178.278 348.224 177.607C349.497 176.995 350.763 176.385 352.021 175.781L352.963 175.327C353.283 175.194 353.615 175.085 353.94 174.962C354.591 174.723 355.242 174.487 355.889 174.249C358.445 173.187 361.13 172.664 363.725 171.965C365.04 171.695 366.369 171.543 367.676 171.33C368.331 171.23 368.984 171.132 369.635 171.033C370.286 170.948 370.945 170.954 371.597 170.91C372.901 170.845 374.197 170.781 375.482 170.718C376.767 170.701 378.043 170.826 379.309 170.873C381.851 170.893 384.305 171.398 386.73 171.749C387.954 171.878 389.108 172.292 390.281 172.562C391.442 172.881 392.615 173.124 393.737 173.497C394.847 173.905 395.947 174.309 397.037 174.709C397.581 174.909 398.124 175.109 398.663 175.307C399.181 175.554 399.697 175.801 400.211 176.046C401.235 176.541 402.249 177.031 403.253 177.517C404.268 177.981 405.164 178.639 406.11 179.181C407.036 179.756 407.973 180.295 408.863 180.882C409.716 181.523 410.559 182.155 411.393 182.78C418.029 187.841 422.883 193.791 426.233 199.478C429.554 205.189 431.64 210.569 432.633 215.114C432.888 216.248 433.257 217.293 433.369 218.322C433.519 219.342 433.661 220.296 433.791 221.183C433.913 222.069 434.061 222.884 434.13 223.635C434.162 224.389 434.192 225.073 434.219 225.686C434.267 226.896 434.303 227.823 434.328 228.468C434.349 229.092 434.343 229.412 434.343 229.412Z" fill="#263238"/>
<path d="M426.346 214.558C426.335 214.558 426.316 214.399 426.291 214.089C426.265 213.75 426.233 213.295 426.19 212.715C426.169 212.41 426.148 212.073 426.124 211.704C426.083 211.333 426.001 210.932 425.934 210.495C425.793 209.623 425.658 208.611 425.321 207.511C424.805 205.278 423.753 202.64 422.098 199.846C420.431 197.064 418.029 194.158 414.762 191.695C411.507 189.254 407.399 187.178 402.66 186.342C397.954 185.535 392.641 185.683 387.582 187.606C386.295 188.019 385.085 188.656 383.841 189.253C382.662 189.966 381.42 190.622 380.323 191.515C379.157 192.315 378.138 193.317 377.07 194.282C376.105 195.35 375.093 196.395 374.261 197.607C372.555 199.978 371.064 202.612 370.163 205.508C369.228 208.387 368.725 211.443 368.683 214.555C368.724 217.668 369.227 220.725 370.161 223.605C371.062 226.503 372.552 229.137 374.259 231.508C375.09 232.72 376.104 233.767 377.069 234.835C378.137 235.8 379.156 236.802 380.322 237.602C381.419 238.495 382.661 239.151 383.839 239.864C385.084 240.462 386.293 241.099 387.581 241.512C392.64 243.435 397.954 243.583 402.66 242.775C407.399 241.939 411.507 239.863 414.762 237.421C418.029 234.956 420.43 232.051 422.097 229.268C423.75 226.474 424.803 223.837 425.319 221.604C425.656 220.504 425.79 219.493 425.932 218.62C425.999 218.184 426.081 217.783 426.121 217.412C426.145 217.042 426.168 216.705 426.187 216.4C426.229 215.821 426.263 215.366 426.288 215.026C426.316 214.718 426.335 214.558 426.346 214.558C426.357 214.558 426.359 214.717 426.354 215.029C426.345 215.371 426.331 215.828 426.316 216.41C426.305 216.717 426.293 217.057 426.28 217.429C426.249 217.802 426.177 218.206 426.119 218.648C425.995 219.529 425.879 220.551 425.559 221.665C425.074 223.926 424.045 226.604 422.4 229.449C420.742 232.282 418.332 235.249 415.033 237.774C411.745 240.276 407.58 242.41 402.759 243.285C397.971 244.13 392.556 243.999 387.388 242.053C386.074 241.635 384.837 240.99 383.565 240.382C382.36 239.659 381.091 238.989 379.969 238.082C378.778 237.266 377.734 236.247 376.643 235.262C375.655 234.174 374.62 233.107 373.768 231.871C372.021 229.452 370.497 226.76 369.573 223.801C368.615 220.86 368.101 217.734 368.061 214.555C368.103 211.377 368.617 208.252 369.575 205.311C370.499 202.353 372.023 199.662 373.77 197.244C374.622 196.008 375.658 194.941 376.645 193.852C377.736 192.868 378.78 191.85 379.972 191.034C381.094 190.126 382.362 189.457 383.567 188.734C384.838 188.127 386.075 187.482 387.389 187.064C392.556 185.119 397.971 184.987 402.757 185.832C407.578 186.706 411.744 188.841 415.032 191.342C418.331 193.867 420.741 196.833 422.399 199.666C424.044 202.512 425.073 205.19 425.557 207.451C425.879 208.564 425.995 209.587 426.119 210.469C426.177 210.909 426.249 211.315 426.28 211.688C426.293 212.06 426.305 212.4 426.316 212.707C426.333 213.289 426.345 213.747 426.354 214.088C426.359 214.4 426.357 214.558 426.346 214.558Z" fill="#263238"/>
<path opacity="0.3" d="M348.627 172.608V285.74C348.627 285.74 355.363 289.209 364.843 291.113L363.689 167.649C358.377 168.686 353.319 170.258 348.627 172.608Z" fill="white"/>
<path d="M340.413 281.595C340.24 281.595 340.101 258.361 340.101 229.707C340.101 201.043 340.241 177.814 340.413 177.814C340.584 177.814 340.725 201.044 340.725 229.707C340.726 258.361 340.585 281.595 340.413 281.595Z" fill="white"/>
<path d="M328.043 189.992C328.077 190.019 327.752 190.529 327.139 191.425C326.515 192.314 325.659 193.634 324.657 195.294C323.647 196.95 322.55 198.984 321.441 201.293C320.361 203.616 319.286 206.221 318.354 209.027C317.442 211.839 316.763 214.577 316.255 217.088C315.779 219.606 315.456 221.894 315.288 223.826C315.11 225.757 315.018 227.328 314.993 228.414C314.955 229.5 314.915 230.102 314.871 230.104C314.828 230.105 314.787 229.503 314.75 228.413C314.7 227.322 314.726 225.74 314.849 223.791C314.96 221.84 315.24 219.527 315.69 216.981C316.171 214.442 316.839 211.674 317.761 208.832C318.703 205.999 319.805 203.375 320.923 201.044C322.07 198.727 323.216 196.699 324.283 195.061C325.34 193.419 326.257 192.129 326.943 191.281C327.619 190.427 328.008 189.966 328.043 189.992Z" fill="white"/>
<path d="M310.416 229.38C310.491 229.536 305.717 231.972 299.754 234.819C293.79 237.668 288.897 239.851 288.822 239.696C288.748 239.54 293.521 237.105 299.485 234.257C305.447 231.408 310.342 229.225 310.416 229.38Z" fill="white"/>
<path d="M279.375 254.777C279.38 254.786 279.299 254.837 279.137 254.925C278.939 255.029 278.7 255.152 278.408 255.305C277.713 255.649 276.77 256.117 275.58 256.706C273.118 257.913 269.541 259.629 265.109 261.722C256.244 265.91 243.942 271.577 230.258 277.621C216.569 283.664 204.092 288.941 195.026 292.67C190.494 294.536 186.816 296.024 184.266 297.03C183.027 297.512 182.046 297.895 181.325 298.176C181.015 298.29 180.763 298.382 180.554 298.459C180.379 298.52 180.288 298.545 180.283 298.536C180.278 298.526 180.362 298.479 180.529 298.4C180.732 298.308 180.977 298.196 181.277 298.059C181.987 297.751 182.954 297.333 184.173 296.805C186.749 295.711 190.385 294.164 194.856 292.263C203.877 288.429 216.321 283.092 230.006 277.05C243.685 271.008 256.013 265.406 264.923 261.321C269.34 259.297 272.933 257.652 275.477 256.485C276.689 255.939 277.649 255.507 278.355 255.189C278.658 255.06 278.906 254.954 279.111 254.867C279.281 254.798 279.371 254.767 279.375 254.777Z" fill="white"/>
<path d="M398.267 182.963C398.251 183.084 396.195 182.659 392.858 182.781C389.543 182.887 384.901 183.719 380.419 186.129C375.936 188.539 372.68 191.953 370.764 194.661C368.822 197.378 368.042 199.327 367.932 199.273C367.897 199.259 368.06 198.762 368.444 197.899C368.826 197.036 369.462 195.819 370.4 194.409C372.252 191.595 375.53 188.047 380.121 185.58C384.71 183.111 389.478 182.334 392.846 182.341C394.539 182.335 395.905 182.475 396.836 182.634C397.769 182.789 398.274 182.927 398.267 182.963Z" fill="white"/>
<path d="M407.471 176.748C407.449 176.785 406.921 176.543 405.989 176.075C405.062 175.595 403.693 174.953 401.982 174.221C400.273 173.478 398.191 172.71 395.843 171.974C393.486 171.269 390.859 170.614 388.061 170.131C385.257 169.672 382.561 169.431 380.102 169.325C377.643 169.252 375.423 169.295 373.566 169.437C371.708 169.569 370.205 169.727 369.173 169.877C368.138 170.014 367.56 170.07 367.551 170.027C367.543 169.985 368.106 169.848 369.133 169.637C370.158 169.412 371.661 169.186 373.529 168.996C375.396 168.796 377.635 168.706 380.119 168.749C382.602 168.823 385.332 169.049 388.164 169.514C390.991 170.002 393.643 170.682 396.014 171.425C398.376 172.198 400.461 173.016 402.159 173.816C403.861 174.607 405.209 175.314 406.103 175.861C407.005 176.398 407.492 176.711 407.471 176.748Z" fill="white"/>
<path opacity="0.3" d="M262.823 264.246L266.918 243.545L271.741 243.349L274.152 216.394L268.966 237.853L263.702 236.676L258.721 263.414L262.823 264.246Z" fill="black"/>
<path d="M305.072 272.529C305.072 272.529 312.255 267.301 314.727 266.429C317.201 265.557 325.532 264.075 328.469 261.97C328.469 261.97 331.109 263.392 328.877 265.675C326.645 267.959 322.595 270.312 320.485 270.936C318.375 271.56 319.039 273.079 320.555 273.615C322.069 274.15 332.857 275.993 332.857 275.993C332.857 275.993 345.396 276.262 346.423 277.533C347.45 278.803 346.598 280.519 345.572 280.878C344.833 281.136 334.068 281.855 334.068 281.855L328.532 281.197C328.532 281.197 345.735 284.371 346.717 285.822C347.699 287.273 346.848 288.257 345.965 288.783C345.08 289.308 337.502 287.831 337.502 287.831L327.171 286.554L345.967 291.935C345.967 291.935 347.678 292.671 347.319 294.081C346.961 295.491 344.631 295.798 344.631 295.798L324.75 291.942C324.75 291.942 334.436 298.758 334.777 299.647C335.233 300.838 333.229 301.925 332.455 301.428C331.681 300.931 319.209 295.588 319.209 295.588L304.946 289.092L295.501 289.206L299.601 271.702L305.072 272.529Z" fill="#FFCAAE"/>
<path d="M262.333 289.697L302.875 289.095L302.095 272.206L258.722 263.416L264.972 231.534L235.397 224.703C231.049 242.928 229.614 258.243 228.536 270.595C228.536 270.595 226.508 283.374 240.983 286.919C250.194 289.174 262.333 289.697 262.333 289.697Z" fill="#FFCAAE"/>
<path d="M228.171 228.733L268.965 237.853C268.965 237.853 276.092 211.285 276.338 203.912C276.584 196.54 266.481 173.233 252.258 177.95C252.258 177.95 247.951 177.079 244.033 182.837C242.456 185.152 228.171 228.733 228.171 228.733Z" fill="#203864"/>
<path d="M274.562 200.084C274.439 200.082 274.926 197.768 274.116 194.164C273.714 192.374 273.009 190.289 271.914 188.119C270.853 185.938 269.445 183.612 267.159 182.016C264.877 180.445 262.326 179.498 259.938 179.172C257.539 178.812 255.332 178.783 253.496 178.865C251.655 178.943 250.179 179.177 249.177 179.406C248.177 179.641 247.646 179.861 247.623 179.807C247.615 179.788 247.74 179.716 247.989 179.598C248.235 179.468 248.618 179.335 249.115 179.17C250.116 178.865 251.606 178.559 253.47 178.423C255.331 178.284 257.564 178.266 260.023 178.602C262.49 178.91 265.146 179.866 267.524 181.507C269.93 183.184 271.397 185.658 272.432 187.865C273.518 190.088 274.195 192.235 274.549 194.072C274.905 195.914 274.921 197.446 274.841 198.486C274.793 199.007 274.741 199.409 274.679 199.678C274.622 199.949 274.583 200.088 274.562 200.084Z" fill="#263238"/>
<path d="M274.562 213.302C274.58 213.306 274.56 213.473 274.506 213.79C274.434 214.165 274.347 214.621 274.242 215.174C273.972 216.46 273.608 218.19 273.16 220.32C272.173 224.779 270.818 230.896 269.262 237.92L269.197 238.214L268.9 238.148C266.337 237.578 263.606 236.971 260.79 236.345C251.809 234.3 243.682 232.451 237.697 231.089C234.812 230.402 232.448 229.838 230.714 229.426C229.947 229.23 229.322 229.07 228.823 228.943C228.392 228.826 228.168 228.755 228.172 228.733C228.177 228.712 228.41 228.743 228.85 228.821C229.357 228.918 229.99 229.04 230.768 229.189C232.512 229.554 234.891 230.051 237.794 230.658C243.79 231.974 251.93 233.761 260.926 235.736C263.74 236.369 266.472 236.983 269.032 237.559L268.671 237.787C270.313 230.782 271.742 224.682 272.785 220.235C273.304 218.122 273.727 216.403 274.04 215.129C274.184 214.585 274.304 214.136 274.402 213.767C274.489 213.457 274.544 213.298 274.562 213.302Z" fill="#263238"/>
<path d="M434.884 210.047C434.884 210.047 436.062 210.511 437.382 209.352C438.701 208.193 440.897 205.154 439.942 204.007C438.986 202.86 436.577 202.409 436.577 202.409C436.577 202.409 438.326 200.192 437.563 198.581C436.475 196.284 434.316 197.205 434.316 197.205C434.316 197.205 435.324 195.525 434.377 192.932C434.114 192.213 433.562 191.631 432.862 191.324L430.777 190.41C430.777 190.41 432.643 187.632 430.516 185.315C430.075 184.835 429.509 184.459 428.886 184.165C426.133 182.864 422.796 183.121 420.758 185.384C422.443 187.055 424.324 188.921 423.907 190.295C423.907 190.295 415.092 196.138 417.37 199.235C418.843 201.239 420.376 200.335 420.376 200.335C420.376 200.335 418.183 202.328 419.342 203.648C419.705 204.061 420.206 204.285 420.726 204.399C421.952 204.669 422.771 204.651 424.033 203.912L425.48 203.094C425.48 203.094 424.86 204.961 426.089 205.989C426.191 206.075 426.296 206.151 426.402 206.221C427.468 206.913 428.869 206.808 429.929 206.106L433.204 203.936L433.488 205.542C433.488 205.542 431.556 207.782 434.884 210.047Z" fill="#FFCAAE"/>
<path d="M434.884 210.047C434.884 210.047 434.431 209.848 433.769 209.202C433.453 208.87 433.079 208.404 432.894 207.73C432.713 207.06 432.817 206.19 433.379 205.45L433.346 205.567C433.252 205.066 433.151 204.53 433.044 203.965L433.292 204.072C432.685 204.483 432.036 204.923 431.345 205.39C430.998 205.624 430.64 205.865 430.273 206.113C429.918 206.365 429.478 206.627 429.004 206.755C428.066 207.041 426.887 206.931 426.018 206.218C425.563 205.884 425.24 205.33 425.144 204.759C425.039 204.18 425.083 203.603 425.25 203.016L425.602 203.305C424.901 203.688 424.244 204.123 423.437 204.501C422.627 204.886 421.621 204.886 420.755 204.677C420.304 204.588 419.825 204.42 419.426 204.101C419.028 203.813 418.698 203.261 418.734 202.71C418.748 202.164 418.97 201.688 419.234 201.27C419.503 200.848 419.813 200.476 420.184 200.121L420.521 200.578C419.876 200.913 419.146 200.884 418.52 200.599C417.893 200.309 417.427 199.83 417.049 199.272C416.639 198.669 416.63 197.871 416.827 197.223C417.02 196.561 417.37 195.983 417.751 195.441C419.344 193.306 421.47 191.617 423.734 190.032L423.608 190.201C423.743 189.731 423.528 189.135 423.188 188.605C422.855 188.067 422.419 187.555 421.963 187.06C421.504 186.562 421.02 186.082 420.539 185.603L420.329 185.394L420.527 185.172C421.542 184.035 422.975 183.335 424.428 183.142C425.886 182.939 427.355 183.186 428.654 183.73C429.956 184.233 431.183 185.227 431.629 186.609C432.072 187.996 431.712 189.427 431.017 190.567L430.894 190.141C431.622 190.464 432.34 190.782 433.046 191.095C433.814 191.454 434.41 192.137 434.66 192.91C435.164 194.368 435.233 195.97 434.538 197.334L434.216 196.966C434.99 196.678 435.836 196.697 436.54 197.076C437.249 197.464 437.653 198.119 437.903 198.813C438.094 199.551 437.928 200.265 437.692 200.875C437.441 201.491 437.125 202.036 436.745 202.535L436.618 202.196C437.618 202.418 438.534 202.738 439.326 203.236C439.706 203.501 440.099 203.764 440.276 204.26C440.418 204.734 440.312 205.178 440.197 205.566C439.624 207.095 438.714 208.141 437.959 208.948C437.204 209.769 436.348 210.162 435.756 210.178C435.462 210.199 435.239 210.164 435.094 210.128C434.948 210.095 434.88 210.057 434.884 210.047C434.887 210.022 435.181 210.138 435.742 210.064C436.304 210.006 437.075 209.617 437.79 208.793C438.5 207.989 439.374 206.909 439.878 205.47C439.98 205.114 440.048 204.715 439.937 204.379C439.837 204.066 439.47 203.782 439.121 203.561C438.39 203.115 437.484 202.812 436.538 202.618L436.219 202.552L436.411 202.279C437.05 201.372 437.737 200.134 437.448 198.947C437.244 198.4 436.862 197.795 436.303 197.517C435.758 197.218 435.024 197.213 434.417 197.445L433.793 197.683L434.096 197.076C434.662 195.943 434.629 194.431 434.142 193.099C433.927 192.453 433.438 191.906 432.806 191.614C432.102 191.306 431.387 190.994 430.661 190.678L430.36 190.547L430.537 190.253C431.136 189.262 431.45 187.95 431.064 186.804C430.681 185.641 429.643 184.77 428.42 184.3C427.21 183.797 425.848 183.575 424.516 183.762C423.186 183.942 421.906 184.573 420.992 185.597L420.98 185.166C421.463 185.644 421.951 186.13 422.425 186.642C422.894 187.153 423.35 187.684 423.722 188.284C424.082 188.865 424.42 189.6 424.207 190.389L424.181 190.489L424.081 190.558C421.872 192.096 419.75 193.789 418.247 195.799C417.536 196.774 416.942 198.046 417.551 198.964C417.858 199.428 418.284 199.861 418.764 200.078C419.232 200.308 419.82 200.303 420.233 200.093L421.91 199.241L420.57 200.551C419.945 201.162 419.326 201.956 419.291 202.729C419.239 203.5 420.085 204.022 420.869 204.162C421.709 204.36 422.512 204.365 423.241 204.036C423.955 203.712 424.674 203.257 425.365 202.888L425.89 202.607L425.717 203.177C425.42 204.153 425.54 205.309 426.302 205.87C427.04 206.491 428.052 206.604 428.894 206.364C429.736 206.133 430.426 205.506 431.146 205.086C431.845 204.633 432.504 204.205 433.118 203.807L433.327 203.671L433.367 203.914C433.46 204.481 433.549 205.019 433.632 205.522L433.643 205.585L433.6 205.639C433.097 206.272 432.964 207.071 433.112 207.682C433.26 208.304 433.594 208.765 433.883 209.103C434.489 209.761 434.91 210.006 434.884 210.047Z" fill="#FF9A6C"/>
<path d="M431.223 189.522C431.293 189.535 431.203 190.417 430.614 191.705C430.039 192.993 428.891 194.617 427.284 196.042C425.677 197.466 424.017 198.467 422.811 199.147C421.599 199.823 420.821 200.182 420.777 200.11C420.732 200.034 421.434 199.537 422.58 198.771C423.721 197.998 425.312 196.955 426.867 195.575C428.421 194.197 429.567 192.691 430.22 191.503C430.886 190.32 431.126 189.496 431.223 189.522Z" fill="#FF9A6C"/>
<path d="M434.385 196.619C434.477 196.628 434.303 197.375 433.437 198.07C432.596 198.74 431.417 199.541 430.089 200.436C427.435 202.208 425.207 203.528 425.111 203.384C425.015 203.242 427.088 201.689 429.743 199.916C431.06 199.028 432.311 198.264 433.17 197.718C434.03 197.168 434.304 196.588 434.385 196.619Z" fill="#FF9A6C"/>
<path d="M436.833 202.263C436.932 202.398 436.193 203.089 435.066 203.58C433.94 204.076 432.932 204.151 432.899 203.987C432.86 203.814 433.754 203.477 434.815 203.008C435.878 202.546 436.733 202.116 436.833 202.263Z" fill="#FF9A6C"/>
<path d="M436.287 204.041C436.296 204.221 435.46 204.384 434.645 204.97C433.817 205.535 433.377 206.266 433.211 206.195C433.048 206.155 433.294 205.146 434.286 204.457C435.273 203.761 436.303 203.874 436.287 204.041Z" fill="#FF9A6C"/>
</svg>
