<svg width="132" height="162" viewBox="0 0 132 162" fill="none" xmlns="http://www.w3.org/2000/svg">
<path d="M35.7836 21.4317L38.4653 59.4167C38.6778 62.4059 40.0155 65.2035 42.2088 67.2455C44.4021 69.2876 47.2879 70.4223 50.2847 70.4209C51.9068 70.4212 53.5117 70.0882 54.9999 69.4427C56.488 68.7972 57.8277 67.8529 58.9359 66.6683C60.044 65.4837 60.897 64.0841 61.442 62.5563C61.987 61.0284 62.2123 59.4049 62.1041 57.7864C61.8677 54.1713 61.6517 51.2124 61.6517 51.2124C61.6517 51.2124 70.8504 49.7819 70.9645 40.5872C71.0297 35.2889 70.1127 23.225 69.3342 13.9937C69.0769 10.9835 67.6992 8.17947 65.4735 6.13644C63.2478 4.09341 60.3364 2.96017 57.3152 2.96094H51.7438C49.4715 3.09347 47.2489 3.68055 45.2075 4.68742C43.1662 5.69428 41.3476 7.10048 39.8594 8.82275C38.3712 10.545 37.2437 12.5484 36.5436 14.7142C35.8435 16.88 35.5851 19.1642 35.7836 21.4317Z" fill="#FFBF9D"/>
<path d="M61.6593 51.1025C61.6593 51.1025 55.8474 51.5753 49.6729 47.6953C49.6729 47.6953 52.5054 54.3142 61.6797 53.4868L61.6593 51.1025Z" fill="#FF996C"/>
<path d="M66.4605 25.1275C66.4639 25.47 66.3333 25.8003 66.0964 26.0478C65.8596 26.2953 65.5354 26.4404 65.193 26.4521C65.0261 26.4654 64.8583 26.4451 64.6993 26.3926C64.5404 26.3401 64.3936 26.2563 64.2675 26.1461C64.1414 26.036 64.0386 25.9018 63.9652 25.7513C63.8918 25.6009 63.8492 25.4373 63.8399 25.2701C63.8365 24.9279 63.9664 24.5977 64.2023 24.3497C64.4382 24.1016 64.7614 23.9552 65.1034 23.9415C65.2708 23.9282 65.4392 23.9485 65.5986 24.0012C65.758 24.054 65.9053 24.1381 66.0318 24.2486C66.1582 24.3591 66.2613 24.4938 66.335 24.6447C66.4086 24.7956 66.4513 24.9598 66.4605 25.1275Z" fill="#263238"/>
<path d="M67.7326 23.2371C67.5695 23.4083 66.5751 22.6746 65.1649 22.6787C63.7548 22.6828 62.7195 23.3879 62.5606 23.2167C62.4872 23.1393 62.6543 22.8091 63.1027 22.4994C63.7143 22.0765 64.4417 21.853 65.1853 21.8595C65.9176 21.8565 66.6317 22.0879 67.2231 22.5198C67.6674 22.854 67.8141 23.1637 67.7326 23.2371Z" fill="#263238"/>
<path d="M52.6725 25.1272C52.6758 25.4697 52.5452 25.8 52.3083 26.0475C52.0715 26.295 51.7473 26.44 51.4049 26.4517C51.2381 26.465 51.0702 26.4448 50.9113 26.3923C50.7523 26.3398 50.6055 26.2559 50.4794 26.1458C50.3533 26.0357 50.2505 25.9014 50.1771 25.751C50.1037 25.6006 50.0611 25.437 50.0518 25.2698C50.0484 24.9269 50.1789 24.5961 50.4157 24.348C50.6524 24.0998 50.9766 23.9539 51.3193 23.9411C51.4864 23.9284 51.6544 23.9492 51.8133 24.0022C51.9723 24.0552 52.1191 24.1394 52.2451 24.2498C52.3711 24.3603 52.4738 24.4948 52.5472 24.6454C52.6206 24.7961 52.6632 24.9598 52.6725 25.1272Z" fill="#263238"/>
<path d="M53.8472 23.4988C53.6842 23.67 52.6857 22.9323 51.2755 22.9364C49.8653 22.9405 48.8301 23.6496 48.6712 23.4744C48.5978 23.3969 48.7608 23.0913 49.2132 22.7611C49.8262 22.3404 50.5525 22.1158 51.2959 22.1172C52.0273 22.1198 52.7397 22.3506 53.3337 22.7774C53.778 23.1157 53.9247 23.4255 53.8472 23.4988Z" fill="#263238"/>
<path d="M58.9741 33.9781C58.9741 33.8966 59.8463 33.7458 61.2687 33.5705C61.6274 33.5298 61.9697 33.4605 62.0309 33.2119C62.0621 32.8397 61.9781 32.4669 61.7904 32.144C61.4535 31.2719 61.0976 30.3562 60.7226 29.3971C59.2431 25.4844 58.1672 22.2688 58.3261 22.2117C58.4851 22.1546 59.8137 25.2766 61.2973 29.1851C61.6532 30.1524 61.9942 31.0749 62.3202 31.9525C62.4547 32.3601 62.6911 32.8247 62.5037 33.3667C62.4524 33.4941 62.3724 33.6078 62.2699 33.699C62.1674 33.7902 62.0451 33.8564 61.9127 33.8925C61.7138 33.9491 61.5081 33.9779 61.3013 33.9781C59.8667 34.0514 58.9782 34.0596 58.9741 33.9781Z" fill="#263238"/>
<path d="M54.8174 34.9611C55.0456 34.9611 55.0497 36.4813 56.362 37.5695C57.6744 38.6577 59.3047 38.4906 59.3169 38.7025C59.3413 38.8003 58.9542 39 58.2654 39.0204C57.3666 39.033 56.4921 38.7285 55.7955 38.1604C55.1269 37.6143 54.6971 36.8294 54.5973 35.9718C54.5402 35.3197 54.7114 34.9529 54.8174 34.9611Z" fill="#263238"/>
<path d="M54.2098 17.9664C54.0713 18.374 52.6611 18.1702 51.0023 18.374C49.3435 18.5777 48.0026 19.0261 47.7825 18.6796C47.6847 18.5166 47.917 18.1539 48.4591 17.783C49.1798 17.3276 49.9947 17.0422 50.842 16.9483C51.6893 16.8544 52.5469 16.9544 53.3499 17.2409C53.9816 17.4855 54.271 17.7952 54.2098 17.9664Z" fill="#263238"/>
<path d="M67.2152 19.1521C66.9665 19.4741 65.9925 19.1521 64.8228 19.1236C63.653 19.095 62.6627 19.3396 62.4344 19.0054C62.3325 18.8423 62.4874 18.5204 62.9235 18.2147C63.5051 17.8504 64.182 17.6675 64.8679 17.6892C65.5538 17.711 66.2177 17.9365 66.775 18.337C67.1866 18.663 67.3252 19.0176 67.2152 19.1521Z" fill="#263238"/>
<path d="M38.9016 28.3366C38.7427 28.2673 32.5844 26.47 32.7882 32.7546C32.9919 39.0392 39.2562 37.5435 39.2643 37.3601C39.2725 37.1767 38.9016 28.3366 38.9016 28.3366Z" fill="#FFBF9D"/>
<path d="M37.2466 35.0402C37.2181 35.0402 37.1407 35.1217 36.9572 35.2114C36.7012 35.3299 36.4096 35.3459 36.1421 35.2562C35.4696 35.0321 34.8787 33.9969 34.8094 32.8638C34.778 32.3256 34.8657 31.7871 35.0662 31.2866C35.1208 31.0863 35.2237 30.9025 35.3658 30.7512C35.5079 30.5999 35.6849 30.4856 35.8813 30.4184C36.0063 30.3813 36.1403 30.3891 36.2602 30.4405C36.38 30.4919 36.4781 30.5835 36.5375 30.6997C36.6271 30.8708 36.5904 30.9972 36.623 31.0094C36.6557 31.0216 36.7575 30.8994 36.6964 30.6385C36.656 30.4847 36.5639 30.3494 36.4356 30.2554C36.3482 30.1924 36.2491 30.1474 36.1442 30.1229C36.0392 30.0984 35.9305 30.095 35.8242 30.1128C35.568 30.1726 35.3314 30.2968 35.1367 30.4737C34.9419 30.6506 34.7956 30.8743 34.7116 31.1235C34.4637 31.6773 34.3532 32.2827 34.3896 32.8883C34.4711 34.1558 35.1558 35.3337 36.0728 35.5538C36.2436 35.5976 36.422 35.6024 36.5949 35.5678C36.7677 35.5332 36.9306 35.4602 37.0714 35.354C37.2385 35.1951 37.2711 35.0525 37.2466 35.0402Z" fill="#FF996C"/>
<path d="M35.3879 28.1242C36.3457 27.8919 38.0045 28.7763 38.4121 29.6729C38.8196 30.5696 38.9093 31.5885 39.3169 32.4892C39.7244 33.3899 40.6455 34.1969 41.6074 33.9687C41.9324 33.867 42.2246 33.6811 42.4544 33.4298C42.6842 33.1785 42.8434 32.8709 42.9157 32.5381C43.0542 31.8666 43.0612 31.1745 42.936 30.5003C42.5651 27.5658 41.9497 24.6558 41.8315 21.6969C41.7133 18.738 42.1331 15.669 43.6859 13.1381C45.2388 10.6071 48.0876 8.76491 51.0221 9.00538C52.9743 9.16025 54.7676 10.1792 56.7076 10.4522C57.8635 10.6051 59.039 10.4926 60.1449 10.1233C61.2508 9.75392 62.258 9.13745 63.0901 8.32067C63.302 8.11281 64.2801 7.46478 64.2801 7.46478C64.2801 7.31399 64.1375 6.00163 63.6199 5.5207C59.7684 1.96267 52.8317 0.968213 47.7453 2.26019C42.6589 3.55217 37.8904 7.15096 35.7018 11.895C33.5131 16.639 34.1653 23.3068 35.3716 28.1161" fill="#263238"/>
<path d="M69.4199 12.5993C69.4199 12.5993 45.3003 4.85559 34.8666 25.7066C34.8666 25.7066 33.3057 20.4857 33.3057 17.6857C33.3057 15.815 34.4224 4.68034 45.8831 1.17529C45.8831 1.17529 63.1434 -5.41095 69.4199 12.5993Z" fill="#4777CF"/>
<path d="M48.6827 13.1198C49.1113 13.8107 49.6944 14.3926 50.3862 14.8197C51.078 15.2468 51.8595 15.5074 52.6692 15.5809C53.4789 15.6544 54.2946 15.5388 55.052 15.2432C55.8094 14.9477 56.4878 14.4803 57.0337 13.8778C57.2735 14.4775 57.695 14.987 58.2391 15.335C58.7831 15.683 59.4225 15.852 60.0674 15.8183C60.7123 15.7846 61.3306 15.5499 61.8354 15.1471C62.3402 14.7443 62.7063 14.1935 62.8823 13.5722C63.5362 14.301 64.336 14.8842 65.2298 15.2839C66.1469 15.6222 67.3084 15.4918 67.9075 14.7256C68.5067 13.9593 68.3436 12.7489 67.7404 11.9582C67.0816 11.2106 66.2385 10.6485 65.295 10.328C62.4356 9.0705 59.2935 8.5951 56.1901 8.95039C53.113 9.35795 50.1337 10.8578 48.21 13.295" fill="#263238"/>
<g opacity="0.4">
<path d="M69.4196 12.5993C67.413 10.4848 64.6618 9.23491 61.7493 9.11463C54.6332 8.80081 41.3181 12.8031 34.85 25.7066C34.85 25.7066 33.2891 20.4857 33.2891 17.6857C33.2891 15.815 34.4058 4.68034 45.8665 1.17529C45.8828 1.17529 63.1431 -5.41095 69.4196 12.5993Z" fill="black"/>
</g>
<path d="M35.873 23.2677C39.4474 17.7941 44.3789 13.2701 49.9258 9.81807C55.4728 6.366 64.6389 2.93024 70.9561 1.25923C72.8554 0.753848 74.8321 0.313679 76.768 0.647882C78.7039 0.982084 80.595 2.27814 81.0719 4.17331C81.6751 6.55756 77.4446 10.2338 75.4597 11.6766C73.4749 13.1193 69.4196 15.2427 69.4196 15.2427C69.4196 15.2427 69.4767 10.8248 62.4014 9.91588C52.7829 8.65651 35.873 23.2677 35.873 23.2677Z" fill="#4777CF"/>
<path d="M55.6565 5.23942C55.6565 5.23942 59.129 3.31572 62.6218 2.8674C62.0385 2.41404 61.4021 2.03355 60.7266 1.73438C58.8308 2.04774 56.9977 2.66426 55.2979 3.56026L55.6565 5.23942Z" fill="#E0E0E0"/>
<path d="M75.232 59.1406L67.582 57.4533L64.4682 56.6748L61.8761 52.6562C61.8761 52.6562 60.6534 59.8416 56.0112 63.7094C55.3827 64.2236 54.6459 64.589 53.8561 64.7782C53.0663 64.9673 52.2439 64.9754 51.4506 64.8017C50.4032 64.5816 49.1723 64.3126 48.2594 64.068C48.0637 64.0151 47.8518 63.9458 47.6236 63.8643C44.2675 62.618 41.4713 60.2066 39.7454 57.0702C38.7183 55.2443 37.8502 53.3695 38.1477 52.6562L34.5163 60.1758L13.1192 70.0307L0.969727 99.7095L24.5147 106.671L25.2483 131.125L20.814 161.953L87.4222 161.997L85.0583 93.4086" fill="#4777CF"/>
<path d="M58.0117 85.6983C57.876 85.7092 57.7398 85.7092 57.6041 85.6983L56.4181 85.6698L52.1835 85.519H52.102V85.4497C52.0327 83.6116 51.9471 81.4352 51.8534 79.108C51.7433 75.7538 51.6455 72.7215 51.5681 70.4921C51.5436 69.408 51.5233 68.5236 51.507 67.8797C51.507 67.5903 51.507 67.3539 51.507 67.1705C51.4964 67.088 51.4964 67.0044 51.507 66.9219C51.5257 67.002 51.5353 67.0841 51.5355 67.1664C51.5355 67.3539 51.564 67.574 51.5803 67.8756C51.6129 68.5195 51.6578 69.4039 51.7107 70.484C51.8004 72.7134 51.9227 75.7456 52.0572 79.0958C52.1387 81.4271 52.212 83.6035 52.2773 85.4416L52.1876 85.356L56.4222 85.5802L57.6041 85.6576C57.741 85.6563 57.8777 85.6699 58.0117 85.6983Z" fill="#263238"/>
<path d="M54.3886 75.7908C54.482 75.7254 54.5924 75.6885 54.7065 75.6849C54.9711 75.6676 55.235 75.7273 55.4665 75.8567C55.6979 75.9862 55.8869 76.1799 56.0107 76.4144C56.1269 76.6431 56.1683 76.9026 56.1289 77.1562C56.0854 77.4435 55.9594 77.712 55.7663 77.929C55.5731 78.1461 55.321 78.3024 55.0407 78.3789C54.7569 78.4384 54.4622 78.4185 54.189 78.3214C53.9157 78.2244 53.6746 78.0538 53.4919 77.8286C53.3439 77.6472 53.2403 77.4337 53.1893 77.2052C53.1384 76.9766 53.1415 76.7393 53.1985 76.5122C53.2617 76.2031 53.4148 75.9195 53.6386 75.6971C53.7935 75.5463 53.9076 75.4974 53.9117 75.5096C53.9158 75.5218 53.8302 75.5952 53.6998 75.7541C53.5191 75.9773 53.3972 76.2421 53.3452 76.5244C53.3038 76.7277 53.3087 76.9376 53.3595 77.1387C53.4103 77.3398 53.5057 77.5268 53.6386 77.686C53.8016 77.8782 54.013 78.0234 54.2509 78.1065C54.4888 78.1896 54.7445 78.2077 54.9918 78.1588C55.2323 78.091 55.4486 77.9561 55.6153 77.7698C55.782 77.5836 55.8923 77.3538 55.9332 77.1073C55.9671 76.9051 55.9443 76.6976 55.8673 76.5076C55.7903 76.3177 55.6622 76.1528 55.4971 76.0313C55.2735 75.8528 54.9967 75.7538 54.7105 75.7501C54.4986 75.7664 54.3886 75.8071 54.3886 75.7908Z" fill="#263238"/>
<path d="M53.6675 67.179C53.7617 67.0963 53.8778 67.0425 54.0017 67.0241C54.3401 66.9526 54.6929 67.0046 54.9962 67.1708C55.2114 67.2805 55.3952 67.4432 55.5301 67.6436C55.6868 67.8782 55.7653 68.1564 55.7543 68.4383C55.7414 68.7598 55.6319 69.0699 55.4399 69.3281C55.2479 69.5862 54.9825 69.7804 54.6783 69.8852C54.3673 69.9648 54.0397 69.9507 53.7366 69.8449C53.4336 69.739 53.1685 69.5461 52.9747 69.2902C52.8027 69.0694 52.6992 68.803 52.6772 68.5239C52.6644 68.2835 52.7034 68.043 52.7913 67.8189C52.9177 67.4998 53.1417 67.2288 53.4311 67.0445C53.5319 66.9691 53.6521 66.9238 53.7776 66.9141C53.7776 66.9141 53.6594 66.9752 53.4801 67.1138C53.228 67.3078 53.0381 67.5713 52.9339 67.8718C52.8521 68.0871 52.8272 68.3198 52.8614 68.5475C52.8957 68.7752 52.988 68.9903 53.1296 69.172C53.3017 69.3917 53.5338 69.5567 53.7979 69.6472C54.0619 69.7376 54.3465 69.7495 54.6172 69.6814C54.8796 69.5883 55.1088 69.42 55.2762 69.1975C55.4436 68.975 55.5419 68.7081 55.5586 68.4302C55.5694 68.2018 55.516 67.9749 55.4043 67.7753C55.2926 67.5758 55.1272 67.4115 54.9269 67.3012C54.653 67.1398 54.3342 67.0712 54.018 67.1056C53.7939 67.1341 53.6757 67.1953 53.6675 67.179Z" fill="#263238"/>
<path d="M51.499 100.069C51.499 100.069 51.5316 100.049 51.6009 100.024L51.9066 99.9061C52.1797 99.8123 52.5668 99.6411 53.06 99.4129C54.4371 98.7186 55.7013 97.8199 56.8096 96.7474C58.4388 95.143 59.8788 93.3571 61.1012 91.4247C62.63 89.0755 64.026 86.6426 65.2828 84.1374C67.5429 79.5712 69.5259 74.873 71.221 70.0683C71.8854 68.2261 72.403 66.7303 72.7657 65.6992L73.1733 64.5091C73.2181 64.3869 73.2589 64.285 73.2874 64.2035C73.299 64.1681 73.314 64.134 73.3322 64.1016C73.3292 64.1392 73.321 64.1762 73.3078 64.2116C73.2833 64.2931 73.2507 64.395 73.214 64.5254C73.1203 64.8148 72.9939 65.2142 72.835 65.7481C72.4967 66.7874 71.9995 68.2913 71.3474 70.1376C69.6961 74.9553 67.7329 79.6604 65.4703 84.223C64.2104 86.7353 62.8061 89.1726 61.2643 91.5225C60.0274 93.4652 58.5665 95.2559 56.9115 96.8575C55.7855 97.9283 54.4982 98.8154 53.0967 99.4863C52.7132 99.6622 52.3199 99.816 51.9188 99.9468L51.605 100.045C51.5711 100.058 51.5354 100.066 51.499 100.069Z" fill="#263238"/>
<path d="M65.5318 91.9334C65.7071 91.9334 69.7623 91.6562 69.7623 91.6562C69.7623 91.6562 68.0872 94.6152 66.3428 95.7319H62.793L65.5318 91.9334Z" fill="#FAFAFA"/>
<path d="M50.79 109.028C50.8595 108.962 50.936 108.903 51.0183 108.853L51.703 108.38C52.294 107.973 53.1458 107.361 54.1687 106.575C56.2066 105.014 58.9209 102.683 61.8228 100.017C63.2737 98.6844 64.6757 97.4291 65.874 96.2227C66.9492 95.165 67.9476 94.0318 68.8614 92.8318C69.4747 92.0223 70.02 91.1635 70.4917 90.2641C70.671 89.9503 70.781 89.6936 70.8666 89.5224C70.9053 89.4322 70.9531 89.3461 71.0093 89.2656C70.9831 89.3594 70.9491 89.4507 70.9074 89.5387C70.834 89.7139 70.7321 89.9789 70.565 90.3008C70.1173 91.2207 69.5866 92.0979 68.9796 92.9215C68.078 94.1418 67.0847 95.2918 66.0085 96.3613C64.8062 97.584 63.4123 98.8434 61.9614 100.172C59.0595 102.838 56.3411 105.161 54.2584 106.693C53.2191 107.463 52.351 108.05 51.7478 108.446C51.4421 108.641 51.2017 108.784 51.0387 108.886C50.9614 108.943 50.878 108.99 50.79 109.028Z" fill="#263238"/>
<path d="M39.3623 154.323C39.3623 154.323 39.3623 154.287 39.4112 154.226C39.4601 154.164 39.5131 154.067 39.5783 153.957C39.7291 153.724 39.9573 153.382 40.263 152.95C40.8744 152.094 41.8199 150.888 43.0671 149.469C45.5777 146.653 49.0949 142.81 52.9668 138.555L62.948 127.677L65.9844 124.416L66.7995 123.532L67.0196 123.308L67.1011 123.234C67.1011 123.234 67.0807 123.267 67.0359 123.32L66.8321 123.56L66.017 124.473L63.0295 127.795L53.1257 138.685L43.1812 149.559C41.9218 150.961 40.96 152.147 40.3282 152.987C40.0144 153.394 39.7739 153.741 39.615 153.969L39.4316 154.226C39.4112 154.26 39.388 154.293 39.3623 154.323Z" fill="#263238"/>
<path d="M74.7021 58.9531C75.0527 59.4789 82.9268 60.3551 84.8546 62.2788C86.7823 64.2025 106.048 78.9075 106.048 78.9075L92.3171 97.3864L83.4566 95.4342L74.7021 58.9531Z" fill="#4777CF"/>
<path opacity="0.4" d="M103.712 77.1172L88.3184 96.5091L92.3166 97.3894L106.031 78.8901L103.712 77.1172Z" fill="black"/>
<path d="M78.8956 78.1963C78.8267 77.9859 78.7735 77.7707 78.7367 77.5523C78.6918 77.3445 78.6389 77.0877 78.6022 76.7861C78.5655 76.4845 78.5044 76.1422 78.484 75.7591C78.4636 75.376 78.4229 74.9439 78.4229 74.5078C78.4229 74.0717 78.4229 73.5786 78.4595 73.0732C78.5387 71.9741 78.7091 70.8835 78.969 69.8127C79.2464 68.7472 79.6131 67.7069 80.0653 66.703C80.2813 66.2465 80.4729 65.8064 80.7052 65.4151C80.9375 65.0238 81.1372 64.6611 81.3451 64.3391C81.5529 64.0171 81.7526 63.74 81.932 63.4914C82.0802 63.2782 82.2394 63.0728 82.4088 62.876C82.5423 62.699 82.6909 62.534 82.8531 62.3828C82.7418 62.5736 82.615 62.7549 82.474 62.9249C82.3477 63.0961 82.1928 63.3039 82.0298 63.5607C81.8668 63.8174 81.6589 64.0905 81.4714 64.4206C81.284 64.7508 81.0639 65.1013 80.8601 65.5007C80.6563 65.9001 80.4525 66.3158 80.2447 66.7804C79.8155 67.7803 79.4639 68.8118 79.1931 69.8657C78.9393 70.9229 78.7663 71.9979 78.6755 73.0814C78.647 73.5827 78.6103 74.0595 78.6226 74.5038C78.6348 74.948 78.6226 75.3637 78.6552 75.7265C78.6878 76.0892 78.7122 76.4478 78.7408 76.7494C78.7693 77.051 78.806 77.3078 78.8386 77.5157C78.8795 77.7402 78.8986 77.9681 78.8956 78.1963Z" fill="#263238"/>
<path d="M85.0581 93.3901C84.4269 92.1664 83.8597 90.9108 83.3586 89.6283C82.7908 88.3751 82.2875 87.0937 81.8506 85.7891C82.4818 87.012 83.0504 88.2662 83.5542 89.5468C84.123 90.8005 84.625 92.0834 85.0581 93.3901Z" fill="#263238"/>
<path d="M24.514 79.96C24.4814 79.96 24.1512 79.369 23.5277 78.452C22.714 77.2576 21.7828 76.1475 20.7481 75.1385C19.7081 74.1372 18.5723 73.2403 17.3571 72.4608C16.4197 71.8658 15.8043 71.556 15.8206 71.5234C15.9768 71.5665 16.1273 71.6281 16.269 71.7068C16.6678 71.8963 17.0568 72.1058 17.4346 72.3345C18.6883 73.0816 19.8509 73.972 20.8989 74.9877C21.9434 76.0065 22.8678 77.1415 23.654 78.3705C23.9515 78.8433 24.1757 79.2346 24.3143 79.5158C24.3988 79.6551 24.4659 79.8043 24.514 79.96Z" fill="#263238"/>
<path opacity="0.4" d="M0.969727 99.7015L1.91935 97.3906L27.9627 104.482L26.9316 107.38L0.969727 99.7015Z" fill="black"/>
<path d="M70.496 90.5625H80.4121V94.6381L67.7246 94.5566C67.7246 94.5566 69.685 92.1968 70.496 90.5625Z" fill="#FAFAFA"/>
<g opacity="0.2">
<path d="M35.127 61.0757C35.4856 64.2547 35.8769 67.5356 37.4501 70.3233C39.0233 73.1111 42.1004 75.3079 45.2671 74.8392C47.3783 74.5253 49.1675 73.1152 50.6062 71.5338C52.0449 69.9525 53.2513 68.1633 54.8204 66.7164C55.7693 67.7383 56.8303 68.6502 57.9831 69.4349C59.1479 70.2239 60.5463 70.5932 61.9487 70.4823C63.3304 70.3152 64.0925 69.765 64.5286 68.4445C63.0532 68.901 62.2422 68.8317 60.7709 68.5504C59.1463 68.239 57.6209 67.5399 56.3244 66.5126C55.4603 65.832 55.1465 64.809 54.0501 64.8824C53.0353 64.9394 52.2406 65.7423 51.5722 66.5126C50.4931 67.748 49.3095 68.8879 48.0345 69.9199C46.8118 70.8858 45.6299 71.5501 44.073 71.5053C41.5094 71.4482 39.4104 69.4349 37.9962 67.2952C36.6908 65.3224 35.7264 63.1441 35.1433 60.8516" fill="black"/>
</g>
<path d="M65.1409 57.1094C65.1642 57.1836 65.1793 57.2601 65.1857 57.3376C65.1857 57.4884 65.2347 57.7085 65.2632 57.9938C65.3243 58.5644 65.3855 59.3917 65.4099 60.4392C65.465 63.1184 65.2093 65.7949 64.6478 68.4152V68.4804V68.5456H64.5866C63.1377 68.8852 61.6257 68.8445 60.1972 68.4274C59.0291 68.1152 57.9253 67.5992 56.9367 66.9031C56.2675 66.4484 55.6676 65.8993 55.1556 65.2729C55.0179 65.1037 54.89 64.9268 54.7725 64.743C54.7269 64.6804 54.6873 64.6135 54.6543 64.5433C55.3192 65.4128 56.1169 66.172 57.0182 66.7931C58.0016 67.4573 59.0902 67.9506 60.2379 68.2522C61.6357 68.647 63.1106 68.682 64.5255 68.3541L64.4481 68.4315V68.3663C65.0031 65.7594 65.2764 63.1004 65.2632 60.4351C65.2632 59.4121 65.2184 58.5848 65.1857 58.0101C65.1857 57.7452 65.1572 57.5292 65.145 57.3539C65.1318 57.273 65.1305 57.1907 65.1409 57.1094Z" fill="#263238"/>
<path d="M52.7588 65.1516C52.7265 65.2386 52.6826 65.3208 52.6283 65.3961C52.4919 65.6221 52.3422 65.8399 52.18 66.0482C51.5714 66.8077 50.9007 67.5152 50.1748 68.1635C49.7224 68.571 49.213 69.0234 48.6627 69.488C48.3856 69.7204 48.1085 69.9649 47.7987 70.2094C47.4797 70.4502 47.1432 70.6668 46.792 70.8575C46.0377 71.2735 45.2048 71.5275 44.3466 71.6033C43.4104 71.6828 42.4721 71.4752 41.6567 71.0083C40.8629 70.5354 40.1513 69.9366 39.5496 69.2354C38.9792 68.6001 38.4484 67.9305 37.9601 67.2301C37.1371 66.0418 36.4417 64.77 35.8856 63.4357C35.513 62.5386 35.2078 61.615 34.9727 60.6724C34.8871 60.3382 34.8341 60.0774 34.8015 59.8981C34.7789 59.8086 34.7652 59.7172 34.7607 59.625C34.7981 59.7099 34.8254 59.7988 34.8423 59.8899C34.8912 60.0652 34.9564 60.3219 35.0501 60.6521C35.3175 61.5804 35.6428 62.491 36.0242 63.3787C36.5952 64.6925 37.2985 65.9447 38.1231 67.116C38.6092 67.8067 39.1374 68.4669 39.7045 69.0927C40.2866 69.7756 40.9746 70.3604 41.7423 70.8249C42.5223 71.2702 43.4189 71.4691 44.314 71.3954C45.1475 71.3237 45.9574 71.0824 46.6942 70.6863C47.0401 70.503 47.3712 70.2931 47.6846 70.0586C47.9821 69.8304 48.2674 69.5818 48.5446 69.3535C49.0988 68.893 49.6124 68.461 50.0688 68.0534C50.7973 67.4252 51.4784 66.7441 52.1067 66.0156C52.3227 65.7548 52.4816 65.5388 52.5876 65.392C52.6376 65.3071 52.6949 65.2266 52.7588 65.1516Z" fill="#263238"/>
<path d="M43.9795 111.98L47.1218 107.399C47.1218 107.399 49.2819 99.8918 48.9885 98.8403C48.695 97.7888 47.7413 93.8762 47.9655 93.8273C48.1896 93.7784 50.5413 92.9062 51.8169 96.0444C52.6117 98.0007 52.8725 100.577 52.9581 102.239C52.9675 102.445 53.0212 102.646 53.1158 102.829C53.2103 103.011 53.3433 103.171 53.5056 103.297C53.6679 103.424 53.8557 103.513 54.056 103.56C54.2563 103.607 54.4644 103.61 54.6658 103.568C56.8381 103.12 60.4532 102.439 61.3132 102.647C62.5603 102.944 63.677 104.534 63.783 105.068C63.889 105.602 63.0331 106.804 63.0331 106.804C63.0331 106.804 64.0928 107.346 64.4188 108.165C64.4636 108.275 64.5003 108.385 64.5329 108.491C64.6324 108.82 64.6445 109.168 64.568 109.503C64.4916 109.837 64.3292 110.146 64.0968 110.399L63.7626 110.766C63.7626 110.766 65.0872 111.128 65.2502 111.886C65.3386 112.44 65.3234 113.005 65.2054 113.553L63.9623 114.837C64.3089 115.16 64.5358 115.591 64.6063 116.06C64.6715 116.761 62.8089 118.505 62.8089 118.505L54.8166 121.358L51.6458 122.173L43.9795 111.98Z" fill="#FFBF9D"/>
<path d="M63.0579 106.811C62.1446 107.057 61.2197 107.257 60.2864 107.41C59.3696 107.635 58.4418 107.811 57.5068 107.94C57.7571 107.818 58.0212 107.726 58.2934 107.667C58.7866 107.529 59.4754 107.358 60.2457 107.203C61.016 107.048 61.7129 106.934 62.2264 106.868C62.4998 106.812 62.7794 106.793 63.0579 106.811Z" fill="#FF996C"/>
<path d="M63.7877 110.766C63.1085 111.084 62.4001 111.337 61.6725 111.52C60.9663 111.773 60.2375 111.959 59.4961 112.074C60.1754 111.755 60.8837 111.503 61.6114 111.32C62.3176 111.066 63.0463 110.881 63.7877 110.766Z" fill="#FF996C"/>
<path d="M64.2644 114.664C63.5485 115.093 62.7972 115.46 62.0188 115.76C61.2688 116.128 60.4889 116.43 59.6875 116.665C60.4035 116.236 61.1547 115.87 61.9332 115.569C62.6832 115.202 63.4631 114.899 64.2644 114.664Z" fill="#FF996C"/>
<path d="M25.5659 140.292L54.9594 120.574L47.5418 107.124L20.7159 120.92L23.7604 106.427L5.55452 101.039L0.997955 125.86C0.296945 136.897 9.14923 145.806 19.8193 142.908C21.8646 142.355 23.8057 141.471 25.5659 140.292Z" fill="#FFBF9D"/>
<path d="M16.8324 128.718C16.7794 128.6 16.745 128.475 16.7305 128.347C16.67 128.004 16.6359 127.656 16.6286 127.308C16.6132 126.148 16.873 125.001 17.3866 123.962C17.9074 122.924 18.669 122.027 19.6079 121.345C19.8876 121.137 20.1849 120.955 20.4963 120.799C20.6081 120.734 20.729 120.686 20.855 120.656C20.855 120.693 20.3782 120.925 19.6975 121.471C18.8063 122.167 18.0818 123.054 17.5769 124.066C17.0721 125.077 16.7996 126.189 16.7794 127.32C16.759 128.176 16.8935 128.714 16.8324 128.718Z" fill="#FF996C"/>
<path d="M92.3164 97.3861C92.4998 97.1334 113.249 109.776 113.249 109.776L119.9 140.078L129.474 143.592C129.474 143.592 132.461 109.87 130.187 104.62C127.913 99.3709 104.857 80.4844 104.857 80.4844L92.3164 97.3861Z" fill="#FFBF9D"/>
<path d="M117.781 107.453C117.319 108.148 116.704 108.728 115.984 109.149C115.301 109.63 114.518 109.95 113.693 110.086C114.438 109.752 115.164 109.38 115.87 108.969C116.535 108.5 117.173 107.994 117.781 107.453Z" fill="#FF996C"/>
<path d="M67.3613 97.4567L68.9875 126.54L102.147 124.299L101.144 102.649L96.3147 96.1484L67.3613 97.4567Z" fill="#263238"/>
<path d="M59.8262 127.184C59.924 127.743 62.7403 154.084 62.7403 154.084L112.092 150.656L120.443 149.535L116.592 125.008L110.694 123.594L59.8262 127.184Z" fill="#4777CF"/>
<path opacity="0.4" d="M110.694 123.594L59.8262 127.188C59.924 127.747 62.7403 154.088 62.7403 154.088L114.122 150.513L110.694 123.594Z" fill="black"/>
<path d="M97.1746 124.633L68.9875 126.54L67.3613 97.4567L96.3147 96.1484L97.1746 124.633Z" fill="#455A64"/>
<path d="M77.873 96.9793L78.4681 105.942L79.9761 105.078L80.8116 105.942L81.8509 105.078L83.4567 105.942V96.7266L77.873 96.9793Z" fill="#263238"/>
<path d="M89.6553 125.243L87.7275 103.414L106.569 108.606L108.387 123.674L89.6553 125.243Z" fill="#4777CF"/>
<path d="M106.558 108.611C106.524 108.666 106.485 108.718 106.439 108.765L106.077 109.193L104.691 110.775L99.8776 116.175L99.8043 116.256L99.7269 116.179L97.1837 113.489L90.4711 106.397L88.4536 104.229L87.9116 103.634C87.8444 103.568 87.7856 103.494 87.7363 103.414C87.8109 103.47 87.8804 103.533 87.9442 103.602L88.5148 104.172L90.577 106.291L97.3345 113.342L99.894 116.036H99.7432L104.634 110.685L106.064 109.144L106.452 108.737C106.483 108.691 106.518 108.649 106.558 108.611Z" fill="#263238"/>
<path d="M96.0047 112.656C96.0577 112.685 94.7128 115.261 93.0051 118.411C91.2974 121.562 89.8709 124.093 89.8179 124.064C89.7649 124.036 91.1099 121.46 92.8176 118.309C94.5253 115.159 95.9599 112.628 96.0047 112.656Z" fill="#263238"/>
<path d="M107.946 123.674C107.897 123.702 106.593 121.615 105.032 119.015C103.471 116.415 102.245 114.275 102.298 114.243C102.351 114.21 103.651 116.301 105.212 118.905C106.773 121.509 107.999 123.645 107.946 123.674Z" fill="#263238"/>
<path d="M99.7748 124.386L98.5439 110.484L110.543 113.794L111.7 123.388L99.7748 124.386Z" fill="#4777CF"/>
<path opacity="0.4" d="M99.7748 124.386L98.5439 110.484L110.543 113.794L111.7 123.388L99.7748 124.386Z" fill="white"/>
<path d="M110.542 113.794C110.457 113.93 110.357 114.057 110.245 114.173C110.021 114.438 109.727 114.776 109.373 115.188L106.316 118.636L106.243 118.721L106.165 118.64L104.535 116.928C102.86 115.171 101.352 113.57 100.268 112.404L98.9962 111.014C98.8316 110.851 98.6816 110.674 98.5479 110.484C98.7289 110.628 98.8979 110.786 99.0532 110.957L100.378 112.298C101.49 113.439 103.015 115.025 104.69 116.781L106.32 118.497H106.149L109.259 115.098L110.18 114.124C110.29 114.003 110.411 113.892 110.542 113.794Z" fill="#263238"/>
<path d="M103.818 116.375C103.867 116.404 103.027 118.05 101.939 120.043C101.315 121.272 100.626 122.468 99.877 123.626C100.438 122.371 101.063 121.147 101.752 119.957C102.377 118.728 103.066 117.532 103.818 116.375Z" fill="#263238"/>
<path d="M111.424 123.39C110.735 122.447 110.103 121.463 109.533 120.444C108.9 119.46 108.329 118.438 107.825 117.383C109.141 119.313 110.343 121.319 111.424 123.39Z" fill="#263238"/>
<path d="M107.421 113.211V114.328L109.173 114.531L109.267 113.68L107.421 113.211Z" fill="white"/>
<path d="M101.234 107.539V109.169L104.544 109.715L104.727 108.468L101.234 107.539Z" fill="white"/>
<path d="M88.3188 133.369L88.1557 125.242L81.5654 125.686L82.2705 133.944L88.3188 133.369Z" fill="#4777CF"/>
<path d="M109.81 137.638L98.7451 138.688L99.6737 148.474L110.738 147.424L109.81 137.638Z" fill="#FAFAFA"/>
<path d="M110.723 147.437C110.709 147.376 110.7 147.313 110.694 147.25C110.694 147.115 110.658 146.94 110.633 146.72C110.584 146.247 110.511 145.575 110.421 144.731C110.246 143.011 110.014 140.582 109.704 137.66L109.802 137.741L98.7446 138.805C98.7201 138.83 98.9239 138.589 98.8383 138.691V138.764V138.85V139.013L98.8709 139.347L98.932 140.008C98.9769 140.444 99.0176 140.876 99.0584 141.308C99.1358 142.168 99.2173 143.007 99.2948 143.83C99.4456 145.461 99.5923 147.03 99.7227 148.469L99.6208 148.387L107.605 147.678L109.871 147.486L110.478 147.441C110.55 147.436 110.622 147.436 110.694 147.441C110.631 147.456 110.567 147.466 110.503 147.47L109.916 147.539L107.674 147.776L99.6412 148.591H99.5475V148.497C99.4048 147.054 99.254 145.497 99.0951 143.859C99.019 143.044 98.9388 142.203 98.8546 141.336C98.8139 140.904 98.7731 140.472 98.7323 140.032C98.712 139.816 98.6916 139.596 98.6671 139.376L98.6386 139.042V138.879V138.793V138.72C98.553 138.822 98.7527 138.577 98.7364 138.601L109.798 137.57H109.887V137.66C110.148 140.607 110.364 143.06 110.519 144.796C110.588 145.632 110.641 146.296 110.682 146.769C110.682 146.985 110.711 147.156 110.719 147.287C110.724 147.337 110.725 147.387 110.723 147.437Z" fill="#263238"/>
<path d="M108.929 139.996C108.929 140.057 107.002 140.306 104.609 140.559C103.169 140.748 101.72 140.865 100.269 140.909C100.269 140.852 102.196 140.599 104.589 140.347C106.981 140.094 108.925 139.939 108.929 139.996Z" fill="#263238"/>
<path d="M108.864 141.656C108.48 141.795 108.083 141.894 107.678 141.954C106.937 142.1 105.905 142.272 104.76 142.406C103.615 142.541 102.568 142.614 101.814 142.638C101.407 142.675 100.998 142.675 100.591 142.638C100.994 142.559 101.403 142.513 101.814 142.5C102.563 142.431 103.599 142.337 104.74 142.202C105.881 142.068 106.912 141.921 107.658 141.795C108.056 141.719 108.459 141.672 108.864 141.656Z" fill="#263238"/>
<path d="M109.332 145.297C108.946 145.434 108.548 145.534 108.142 145.594C107.4 145.741 106.369 145.912 105.224 146.047C104.079 146.181 103.035 146.255 102.277 146.279C101.871 146.319 101.461 146.319 101.055 146.279C101.458 146.199 101.867 146.153 102.277 146.141C103.027 146.075 104.067 145.978 105.208 145.843C106.349 145.709 107.38 145.562 108.126 145.435C108.524 145.359 108.927 145.313 109.332 145.297Z" fill="#263238"/>
<path d="M108.774 143.43C107.444 143.73 106.099 143.959 104.744 144.114C103.394 144.344 102.034 144.501 100.668 144.587C101.999 144.291 103.345 144.063 104.699 143.902C106.048 143.676 107.409 143.518 108.774 143.43Z" fill="#263238"/>
<path d="M118.543 158.588C118.543 158.588 127.652 152.56 128.353 149.479C129.054 146.397 129.474 143.593 129.474 143.593L119.742 139.562L120.707 143.068C120.707 143.068 117.219 145.142 116.86 147.657C116.624 149.332 112.112 152.201 112.112 152.201C111.737 151.747 111.259 151.389 110.718 151.156C110.178 150.923 109.59 150.822 109.002 150.86L105.212 151.129L107.775 156.904L118.543 158.588Z" fill="#FFBF9D"/>
<path d="M122.101 150.328C121.969 150.409 121.824 150.468 121.673 150.503C121.388 150.597 120.964 150.691 120.451 150.854C119.871 151.06 119.335 151.372 118.869 151.775C118.283 152.275 117.627 152.687 116.921 152.998C115.616 153.553 114.168 153.675 112.788 153.344C112.546 153.297 112.313 153.211 112.1 153.087C112.012 153.038 111.941 152.963 111.896 152.873C111.851 152.783 111.834 152.682 111.847 152.582C111.854 152.52 111.876 152.461 111.912 152.409C111.947 152.358 111.995 152.317 112.051 152.289C112.132 152.26 112.177 152.289 112.177 152.289C112.177 152.289 112.132 152.289 112.071 152.333C112.028 152.364 111.993 152.405 111.969 152.451C111.944 152.498 111.93 152.55 111.929 152.602C111.921 152.686 111.94 152.771 111.982 152.844C112.024 152.917 112.088 152.975 112.165 153.01C112.373 153.112 112.596 153.182 112.825 153.218C114.174 153.492 115.574 153.35 116.84 152.81C117.529 152.503 118.171 152.1 118.747 151.612C119.235 151.207 119.797 150.899 120.402 150.707C120.923 150.56 121.347 150.491 121.624 150.418C121.781 150.375 121.94 150.345 122.101 150.328Z" fill="#FF996C"/>
<path d="M115.793 155.002C115.793 155.034 115.324 154.765 114.549 154.443C113.54 154.031 112.476 153.766 111.391 153.657C111.073 153.624 110.759 153.616 110.458 153.608H110.4L110.368 153.559C109.896 152.821 109.327 152.149 108.676 151.562C108.183 151.118 107.861 150.889 107.861 150.865C107.861 150.841 107.959 150.898 108.114 150.995C108.334 151.138 108.546 151.291 108.75 151.456C109.445 152.022 110.046 152.695 110.531 153.449L110.445 153.4C110.755 153.4 111.073 153.4 111.399 153.449C112.506 153.556 113.587 153.846 114.598 154.309C114.903 154.448 115.198 154.606 115.483 154.782C115.597 154.838 115.701 154.913 115.793 155.002Z" fill="#FF996C"/>
<path d="M118.254 153.344C118.254 153.401 117.639 153.633 116.922 154.041C116.204 154.448 115.678 154.876 115.638 154.827C116.31 154.043 117.236 153.518 118.254 153.344Z" fill="#FF996C"/>
<path d="M123.19 142.505C123.19 142.57 122.554 142.505 121.829 142.688C121.103 142.871 120.606 143.246 120.549 143.193C120.886 142.851 121.309 142.606 121.774 142.485C122.239 142.363 122.728 142.37 123.19 142.505Z" fill="#FF996C"/>
</svg>
