<svg width="206" height="176" viewBox="0 0 206 176" fill="none" xmlns="http://www.w3.org/2000/svg">
<path d="M100.092 64.6432C101.385 64.7429 102.684 64.5803 103.912 64.1652C105.14 63.7501 106.272 63.091 107.24 62.2273C108.208 61.3636 108.992 60.3131 109.545 59.1387C110.099 57.9643 110.41 56.6902 110.46 55.3924C110.662 50.1397 110.842 44.8231 110.842 44.8231C110.842 44.8231 118.801 44.0788 119.332 36.1996C119.863 28.3205 119.672 10.1166 119.672 10.1166C115.314 7.91809 110.451 6.92366 105.582 7.23579C100.714 7.54792 96.0163 9.15532 91.9743 11.8923L90.7539 12.7217L91.1678 55.1266C91.1933 57.5453 92.125 59.866 93.778 61.6287C95.4311 63.3914 97.6848 64.4674 100.092 64.6432Z" fill="#FFBF9D"/>
<path d="M115.967 23.9902C115.807 23.8295 115.698 23.6248 115.655 23.4022C115.611 23.1795 115.634 22.9488 115.72 22.7392C115.807 22.5296 115.954 22.3505 116.143 22.2245C116.331 22.0985 116.552 22.0312 116.779 22.0312C117.005 22.0312 117.227 22.0985 117.415 22.2245C117.604 22.3505 117.751 22.5296 117.837 22.7392C117.924 22.9488 117.947 23.1795 117.903 23.4022C117.859 23.6248 117.751 23.8295 117.591 23.9902C117.374 24.2039 117.083 24.3236 116.779 24.3236C116.475 24.3236 116.184 24.2039 115.967 23.9902Z" fill="#263238"/>
<path d="M119.034 22.6601C118.907 22.7877 118.175 22.1391 117.082 22.0753C115.989 22.0115 115.182 22.5112 115.065 22.3624C114.949 22.2135 115.15 22.0646 115.511 21.8201C115.992 21.5083 116.564 21.3662 117.135 21.416C117.706 21.4577 118.249 21.6812 118.684 22.054C119.002 22.3411 119.098 22.5963 119.034 22.6601Z" fill="#263238"/>
<path d="M105.695 22.5246C105.879 22.656 106.021 22.8392 106.102 23.0512C106.182 23.2631 106.199 23.4942 106.148 23.7154C106.098 23.9365 105.984 24.1378 105.819 24.2939C105.655 24.4499 105.448 24.5537 105.225 24.5922C105.002 24.6307 104.773 24.6021 104.566 24.5101C104.359 24.4181 104.184 24.2668 104.063 24.0752C103.942 23.8836 103.88 23.6603 103.885 23.4336C103.89 23.2068 103.963 22.9867 104.093 22.801C104.271 22.5552 104.539 22.3889 104.838 22.3373C105.137 22.2857 105.444 22.3529 105.695 22.5246Z" fill="#263238"/>
<path d="M107.212 22.9121C107.074 23.0397 106.342 22.3911 105.259 22.3166C104.177 22.2422 103.349 22.7632 103.243 22.6143C103.137 22.4655 103.328 22.306 103.678 22.0721C104.164 21.7646 104.735 21.6213 105.308 21.6635C105.882 21.7056 106.426 21.9308 106.862 22.306C107.17 22.5931 107.276 22.8483 107.212 22.9121Z" fill="#263238"/>
<path d="M111.076 31.3441C111.65 31.1558 112.254 31.0695 112.858 31.0889C113.134 31.0889 113.368 31.0251 113.4 30.8656C113.421 30.5833 113.366 30.3005 113.24 30.0469C113.007 29.3026 112.773 28.5583 112.519 27.782C111.826 25.8623 111.324 23.8784 111.022 21.8594C111.92 23.6973 112.631 25.6209 113.145 27.6013C113.378 28.3881 113.601 29.1324 113.813 29.8768C113.978 30.252 114.008 30.6728 113.898 31.0677C113.85 31.1719 113.779 31.2641 113.691 31.3377C113.603 31.4112 113.5 31.4643 113.389 31.493C113.227 31.5118 113.063 31.5118 112.901 31.493C112.288 31.5497 111.671 31.4994 111.076 31.3441Z" fill="#263238"/>
<path d="M107.456 32.3359C108.104 32.623 110.47 34.1861 112.677 34.2074C112.276 34.7565 111.7 35.1526 111.044 35.3303C110.389 35.5081 109.692 35.4571 109.069 35.1856C106.766 34.2286 107.456 32.3359 107.456 32.3359Z" fill="white"/>
<path d="M110.874 44.7077C107.236 44.5569 103.725 43.3202 100.793 41.1562C100.793 41.1562 102.915 46.9832 110.768 46.7599L110.874 44.7077Z" fill="#FF996C"/>
<path d="M91.2312 22.4643C91.2342 22.1567 91.1171 21.8601 90.905 21.6376C90.693 21.4152 90.4026 21.2845 90.0957 21.2734C88.6313 21.2734 86.2223 21.8157 85.9995 25.8776C85.6811 31.6726 91.2418 30.2265 91.3055 30.067C91.3692 29.9075 91.2524 24.7186 91.2312 22.4643Z" fill="#FFBF9D"/>
<path d="M89.9887 27.7812C89.9887 27.7812 89.8826 27.845 89.7128 27.9195C89.4701 28.0118 89.202 28.0118 88.9594 27.9195C88.5927 27.6651 88.3009 27.3168 88.1142 26.911C87.9276 26.5052 87.853 26.0566 87.8982 25.6121C87.9153 25.1154 88.0421 24.6288 88.2696 24.1872C88.3325 24.0092 88.438 23.8493 88.5767 23.7214C88.7154 23.5936 88.8832 23.5016 89.0655 23.4535C89.1834 23.4272 89.3069 23.4437 89.4139 23.5002C89.5208 23.5567 89.6042 23.6495 89.6491 23.7619C89.7128 23.9214 89.6491 24.0384 89.6491 24.049C89.6491 24.0596 89.7765 23.9639 89.7446 23.7194C89.7209 23.5762 89.6499 23.4452 89.543 23.3472C89.4675 23.282 89.3799 23.2325 89.2852 23.2014C89.1904 23.1704 89.0905 23.1585 88.9912 23.1664C88.7579 23.2053 88.5383 23.3028 88.3527 23.4496C88.1672 23.5965 88.0217 23.7881 87.93 24.0065C87.6558 24.4945 87.5029 25.0416 87.4843 25.6014C87.4281 26.1162 87.5251 26.6362 87.763 27.0959C88.0009 27.5557 88.3691 27.9347 88.8214 28.1853C88.9739 28.2422 89.1375 28.2631 89.2995 28.2465C89.4614 28.2299 89.6173 28.1762 89.7553 28.0896C89.9675 27.9194 90.0099 27.845 89.9887 27.7812Z" fill="#FF996C"/>
<path d="M118.047 8.03334C111.589 5.67458 104.591 5.22431 97.8843 6.73609C97.8843 6.73609 91.1669 9.08602 90.8167 12.7119C90.6329 15.6768 90.6613 18.651 90.9016 21.6118H91.3261L91.3898 27.6834H93.8305L94.1701 19.4746C94.1701 19.4746 98.8076 16.2846 98.9031 11.2764C101.163 10.9787 112.242 9.67084 119.798 12.2547V10.4896C119.788 9.95093 119.615 9.42802 119.302 8.98961C118.99 8.55121 118.552 8.21783 118.047 8.03334Z" fill="#263238"/>
<path d="M106.289 19.1079C106.289 19.2674 105.503 19.278 104.612 19.4907C103.721 19.7034 103.031 20.0117 102.935 19.8841C102.84 19.7565 103.476 19.1823 104.485 18.9484C105.493 18.7145 106.32 18.959 106.289 19.1079Z" fill="#263238"/>
<path d="M117.995 17.376C117.899 17.5036 117.39 17.2909 116.753 17.376C116.116 17.4611 115.692 17.8013 115.565 17.7056C115.437 17.6099 115.809 16.9507 116.626 16.8231C117.443 16.6955 118.101 17.2697 117.995 17.376Z" fill="#263238"/>
<path d="M90.6579 15.083C90.2758 10.9893 90.9338 7.83121 92.6529 5.82154C93.6702 4.77451 94.9416 4.01034 96.3425 3.60398C97.7433 3.19761 99.2255 3.163 100.644 3.50353C101.527 3.94094 102.472 4.24207 103.445 4.39671C105.048 4.39671 106.247 3.04631 107.457 1.99363C108.383 1.05627 109.642 0.524821 110.959 0.515625C111.28 0.529926 111.595 0.609777 111.885 0.750301C112.175 0.890826 112.433 1.08907 112.643 1.3329C112.854 1.57674 113.012 1.86105 113.11 2.16845C113.207 2.47585 113.24 2.79989 113.208 3.12074C114.292 2.62713 115.451 2.3215 116.636 2.21692C117.228 2.17159 117.822 2.26198 118.374 2.48123C118.925 2.70049 119.42 3.04283 119.82 3.48226C120.192 3.93548 120.387 4.50858 120.37 5.09521C120.352 5.68183 120.123 6.24214 119.724 6.6722C120.176 6.30981 120.737 6.11236 121.316 6.11236C121.895 6.11236 122.456 6.30981 122.908 6.6722C123.339 7.06633 123.641 7.58216 123.773 8.15165C123.906 8.72113 123.863 9.31751 123.651 9.86214C123.417 10.4037 123.044 10.8738 122.571 11.2248C122.098 11.5759 121.54 11.7954 120.955 11.8612C120.373 11.913 119.787 11.8371 119.237 11.6388C118.687 11.4404 118.187 11.1244 117.771 10.7128L114.397 9.30923L98.1499 10.2449L90.6579 15.083Z" fill="#263238"/>
<path d="M98.617 13.1796C98.6811 12.5801 98.9697 12.0272 99.4247 11.6325C99.8796 11.2378 100.467 11.0307 101.068 11.053C102.283 11.1438 103.43 11.6506 104.316 12.4884C105.182 13.3268 106.132 14.075 107.149 14.7214C108.351 15.343 109.717 15.5699 111.054 15.37C112.386 15.17 113.654 14.6642 114.758 13.892C115.996 14.5725 117.37 14.965 118.78 15.0404C119.73 15.1454 120.686 14.9161 121.486 14.3918C122.219 13.7588 122.701 12.8835 122.844 11.9249C123.045 11.1608 123.016 10.3542 122.759 9.60687C122.434 8.89046 121.871 8.30841 121.168 7.95873C120.471 7.61481 119.737 7.35085 118.981 7.17188L99.657 7.65036L96.8555 11.6484L98.617 13.1796Z" fill="#263238"/>
<path d="M205.576 30.4019C204.006 29.8277 200.684 38.2811 200.344 36.0481C200.005 33.8151 205.65 26.1912 203.953 25.6595C201.83 24.9684 198.466 33.8789 198.127 34.602C197.787 35.325 196.715 34.8784 197.065 34.2298C197.554 33.3047 202.446 23.4266 200.323 22.7248C199.145 22.342 198.636 24.5218 198.636 24.5218C198.636 24.5218 194.752 34.0916 193.765 33.7301C192.778 33.3685 194.826 27.6586 195.696 25.7871C196.567 23.9157 195.983 22.7886 194.858 23.1076C194.094 23.3202 191.377 28.9877 190.613 30.8591C189.849 32.7306 187.748 37.8983 186.708 34.5169C185.668 31.1356 183.578 28.9345 182.601 28.7219C182.359 28.6547 182.101 28.6759 181.873 28.7817C181.645 28.8874 181.461 29.0709 181.356 29.2994C181.25 29.5279 181.228 29.7866 181.295 30.0294C181.362 30.2722 181.513 30.4833 181.72 30.6252C182.431 31.603 182.999 32.6771 183.408 33.8151C183.774 34.7009 183.986 35.6433 184.034 36.601C184.165 38.5266 184.108 40.4603 183.864 42.3748L163.977 77.1664L132.948 64.9808L128.448 82.7701C128.448 82.7701 169.166 101.346 171.745 99.9851C177.561 96.9121 196.354 46.1815 196.354 46.1815C199.095 42.7555 201.646 39.1809 203.995 35.4739C206.584 30.8591 206.16 30.6146 205.576 30.4019Z" fill="#FFBF9D"/>
<path d="M128.415 143.749C128.415 143.749 155.593 202.635 162.851 218.606C163.605 220.272 163.944 222.096 163.838 223.922L157.768 322.513L129.487 320.716L133.732 225.613L86.498 164.77C82.4761 159.581 78.7831 153.552 77.3823 147.13C76.9154 145.003 77.3823 142.877 77.3823 140.75L128.415 143.749Z" fill="#263238"/>
<path d="M125.624 152.247C125.624 152.247 103.509 213.217 97.4283 229.677C96.7908 231.403 95.7372 232.945 94.3614 234.164L20.693 299.824L1.87793 278.558L71.7473 214.036L81.0009 137.477C81.7256 130.943 83.9012 124.654 87.3681 119.071C88.4988 117.245 89.834 115.554 91.3476 114.031L125.624 152.247Z" fill="#263238"/>
<path d="M133.658 225.618C133.597 225.562 133.54 225.502 133.488 225.437L133.011 224.863L131.238 222.63C129.668 220.641 127.45 217.845 124.733 214.389L115.108 202.15L103.095 187.338C94.6059 176.822 87.1032 167.072 82.5719 159.416C80.707 156.436 79.1767 153.259 78.0087 149.942C77.7153 149.028 77.4919 148.093 77.3402 147.145L77.2659 146.411C77.2564 146.327 77.2564 146.241 77.2659 146.156C77.2993 146.234 77.3208 146.317 77.3296 146.401C77.3296 146.603 77.4145 146.837 77.4675 147.135C77.6619 148.06 77.9135 148.973 78.221 149.867C79.4629 153.131 81.0345 156.259 82.9115 159.203C87.5171 166.785 95.0304 176.471 103.531 186.987C107.775 192.251 111.861 197.238 115.501 201.874C119.141 206.51 122.314 210.678 125.052 214.187L131.419 222.545L133.127 224.831L133.562 225.426C133.633 225.554 133.665 225.618 133.658 225.618Z" fill="#FBBA2D"/>
<path d="M151.762 71.3246C143.155 66.8906 137.064 64.2535 132.363 61.2231C117.75 51.8234 113.898 53.9075 110.46 53.4822C107.573 54.3647 103.297 56.0554 101.684 56.3531C99.9114 56.6828 94.1385 54.6518 90.3181 53.4609C81.4253 53.8437 75.9707 57.6291 67.757 63.69L54.3223 75.0143L71.3015 92.1549L76.9895 89.1989C77.9446 96.9292 77.7111 99.9383 78.0507 109.253L77.2866 146.703L132.586 149.84L129.561 113.963L128.224 85.7537L143.972 93.6541L151.751 71.3246" fill="#FBBA2D"/>
<path d="M89.915 54.526V48.7734C89.915 48.7734 99.7842 49.8368 101.79 56.6951L89.915 54.526Z" fill="#FBBA2D"/>
<path d="M110.46 53.4945L110.089 48.7734C108.045 49.0392 106.139 49.9503 104.647 51.3747C103.155 52.7991 102.154 54.6626 101.79 56.6951L110.46 53.4945Z" fill="#FBBA2D"/>
<path d="M111.638 74.7446C112.27 74.6518 112.909 74.6127 113.548 74.6276C114.811 74.6276 116.657 74.5319 118.854 74.5H119.087V74.7446C119.087 76.8712 119.087 79.4444 119.087 82.1877V82.3366L118.96 82.411L118.429 82.7832L115.585 84.7397L115.437 84.8354L115.288 84.7397C113.909 83.8465 112.603 83.0065 111.425 82.2303L111.309 82.1665V82.0389C111.309 79.8059 111.393 77.9558 111.436 76.7223C111.421 76.0822 111.46 75.4419 111.553 74.8084C111.553 74.8084 111.616 75.5952 111.659 76.8712C111.701 78.1472 111.754 79.9229 111.786 82.0602L111.669 81.8581L115.575 84.3144H115.32L118.164 82.3472L118.695 81.9857L118.578 82.209C118.578 79.5082 118.578 76.9882 118.578 74.7658L118.811 74.9998C116.689 74.9998 114.885 74.9147 113.611 74.8721C112.338 74.8296 111.669 74.7765 111.638 74.7446Z" fill="#263238"/>
<path d="M118.716 76.5491C117.528 76.8041 116.308 76.8794 115.097 76.7724C113.885 76.8474 112.668 76.7362 111.489 76.4427C112.678 76.1871 113.897 76.1118 115.108 76.2194C116.32 76.138 117.538 76.2493 118.716 76.5491Z" fill="#263238"/>
<path d="M100.028 53.25C100.155 53.3457 98.2766 55.5255 96.6954 58.8218L96.5469 59.1301L96.2816 58.9175L95.6236 58.3964C93.6355 56.937 91.7623 55.3267 90.0205 53.5796C92.1082 54.8886 94.0947 56.353 95.9632 57.9605L96.6212 58.4921L96.2073 58.5772C96.8947 57.1729 97.7307 55.8468 98.7011 54.6217C99.0593 54.0898 99.5084 53.6255 100.028 53.25Z" fill="#263238"/>
<path d="M110.396 53.7046C109.372 55.1205 108.201 56.4248 106.905 57.5964L106.778 57.7133L106.544 57.9472L106.353 57.6814C105.324 56.3429 104.438 54.8995 103.711 53.375C104.882 54.5903 105.921 55.927 106.81 57.3624H106.385L106.513 57.2348C107.674 55.9185 108.976 54.7346 110.396 53.7046Z" fill="#263238"/>
<path d="M102.671 87.0774C102.523 87.0774 102.226 80.4105 102.003 72.1911C101.78 63.9717 101.738 57.3047 101.886 57.3047C102.035 57.3047 102.342 63.9717 102.555 72.1911C102.767 80.4105 102.831 87.0668 102.671 87.0774Z" fill="#263238"/>
<path d="M82.625 56.3467C82.7868 56.3219 82.9514 56.3219 83.1132 56.3467C83.5786 56.3289 84.0447 56.361 84.5033 56.4424C86.202 56.7321 87.7943 57.4657 89.1196 58.5691C91.1399 60.2118 92.5248 62.5095 93.0354 65.0659C93.6459 68.1677 93.2749 71.3831 91.9742 74.2635C90.6553 77.1123 88.7493 79.649 86.3817 81.7067C84.4771 83.369 82.4117 84.8366 80.2161 86.0876C78.3484 87.1509 76.799 87.959 75.7272 88.4907C75.1817 88.7892 74.6141 89.0452 74.0293 89.2563C74.5347 88.897 75.0669 88.5771 75.6211 88.2993C76.6823 87.7038 78.1892 86.8744 80.0145 85.758C82.1558 84.4693 84.1736 82.985 86.0421 81.3239C88.3324 79.3117 90.1824 76.8463 91.4754 74.0828C92.722 71.304 93.0923 68.2101 92.5366 65.2148C92.0756 62.7698 90.7997 60.5542 88.9179 58.9306C87.6561 57.8316 86.1436 57.061 84.514 56.687C83.2936 56.368 82.625 56.4105 82.625 56.3467Z" fill="#263238"/>
<path d="M127.97 87.4906C127.679 86.8504 127.489 86.1689 127.407 85.4703C127.086 83.8085 126.862 82.1291 126.739 80.4408C126.609 78.7534 126.581 77.0597 126.654 75.3688C126.636 74.6513 126.722 73.9351 126.909 73.2422C127.078 73.2422 126.993 76.4321 127.291 80.3558C127.588 84.2794 128.129 87.4587 127.97 87.4906Z" fill="#263238"/>
<path d="M112.455 87.7922L6.94141 105.219L17.7611 170.99L123.274 153.564L112.455 87.7922Z" fill="#96B5EA"/>
<g opacity="0.6">
<path d="M112.455 87.8L6.94141 105.227L17.7611 170.998L123.274 153.572L112.455 87.8Z" fill="black"/>
</g>
<path d="M116.612 89.1594L11.0986 106.586L21.9183 172.357L127.432 154.931L116.612 89.1594Z" fill="#96B5EA"/>
<g opacity="0.4">
<path d="M116.612 89.175L11.0986 106.602L21.9183 172.373L127.432 154.947L116.612 89.175Z" fill="black"/>
</g>
<path d="M120.334 91.1594L14.8203 108.586L25.64 174.357L131.153 156.931L120.334 91.1594Z" fill="#96B5EA"/>
<path d="M14.8037 108.592C14.9178 108.617 15.0283 108.656 15.1327 108.709L16.0453 109.113L19.5685 110.729L32.4833 116.747L74.9949 136.791L77.5312 137.992L77.2022 138.056L107.69 104.743L116.902 94.7687L119.417 92.0785L120.085 91.3873C120.159 91.3053 120.241 91.2305 120.329 91.1641C120.269 91.2578 120.202 91.3467 120.128 91.4299L119.502 92.1529L117.061 94.9069L107.966 105.008L77.6055 138.428L77.4675 138.588L77.2765 138.492L74.7402 137.291L32.2923 117.088L19.4624 110.91L15.9816 109.208L15.0796 108.751L14.8037 108.592Z" fill="#263238"/>
<path d="M58.7369 129.407C58.8642 129.502 51.5526 139.636 42.405 152.045C33.2575 164.454 25.7442 174.449 25.6169 174.374C25.4895 174.3 32.8118 164.145 41.9593 151.736C51.1069 139.327 58.6202 129.322 58.7369 129.407Z" fill="#263238"/>
<path d="M133.052 156.622C132.957 156.739 123.554 149.285 112.051 139.971C100.548 130.656 91.3046 122.958 91.4001 122.883C91.4957 122.809 100.898 130.22 112.401 139.535C123.905 148.849 133.148 156.505 133.052 156.622Z" fill="#263238"/>
<path opacity="0.3" d="M77.9448 143.361L22.9004 112.418L77.4036 138.246L119.215 92.375L77.9448 143.361Z" fill="black"/>
<path d="M54.5138 159.694C53.4294 159.198 52.4187 158.554 51.5106 157.78C50.7527 157.187 50.1028 156.468 49.5898 155.653C48.8105 154.444 48.1019 153.191 47.4674 151.9C47.4674 151.9 48.1784 117.384 49.4413 111.685C50.7041 105.986 70.5379 91.7799 70.5379 91.7799L57.1774 78.0312C47.9599 84.8128 39.8969 93.0427 33.3004 102.402C26.9332 111.749 33.8629 155.196 33.8629 155.228C33.2757 158.943 32.8931 162.688 32.7168 166.446C32.7168 171.762 33.1519 171.762 33.778 171.624C35.4228 171.348 34.1812 162.352 35.5714 164.181C36.9616 166.01 35.8049 175.356 37.5134 175.005C39.7419 174.538 38.2775 165.148 38.2138 164.372C38.1501 163.596 39.275 163.447 39.275 164.181C39.275 165.244 39.8799 176.228 42.0659 175.803C43.2863 175.558 42.6496 173.41 42.6496 173.41C42.6496 173.41 41.3549 163.16 42.3949 162.99C43.4349 162.82 44.4218 168.806 44.6022 170.858C44.7826 172.911 45.812 173.612 46.6397 172.783C47.2021 172.23 46.7989 165.946 46.5654 163.936C46.332 161.927 45.621 156.387 48.1891 158.822C50.7572 161.257 53.6436 162.161 54.5563 161.852C54.6977 161.849 54.8372 161.819 54.9668 161.762C55.0965 161.705 55.2136 161.623 55.3117 161.521C55.4097 161.419 55.4867 161.298 55.5383 161.166C55.5898 161.034 55.6149 160.893 55.6121 160.752C55.6094 160.61 55.5787 160.47 55.522 160.34C55.4653 160.21 55.3836 160.093 55.2817 159.995C55.1797 159.896 55.0594 159.819 54.9276 159.768C54.7959 159.716 54.6552 159.691 54.5138 159.694Z" fill="#FFBF9D"/>
</svg>
