<svg width="206" height="176" viewBox="0 0 206 176" fill="none" xmlns="http://www.w3.org/2000/svg">
<g clip-path="url(#clip0_6304_192323)">
<path d="M100.092 64.6354C101.385 64.7351 102.684 64.5725 103.912 64.1574C105.14 63.7423 106.272 63.0831 107.24 62.2195C108.208 61.3558 108.992 60.3053 109.545 59.1309C110.099 57.9565 110.41 56.6823 110.46 55.3846C110.662 50.1319 110.842 44.8153 110.842 44.8153C110.842 44.8153 118.801 44.071 119.332 36.1918C119.863 28.3127 119.672 10.1088 119.672 10.1088C115.314 7.91027 110.451 6.91584 105.582 7.22798C100.714 7.54011 96.0163 9.14751 91.9743 11.8845L90.7539 12.7139L91.1678 55.1188C91.1933 57.5375 92.125 59.8582 93.778 61.6209C95.4311 63.3836 97.6848 64.4596 100.092 64.6354Z" fill="#F5F5F5"/>
<path d="M115.967 23.9824C115.807 23.8217 115.698 23.617 115.655 23.3944C115.611 23.1717 115.634 22.941 115.72 22.7314C115.807 22.5218 115.954 22.3427 116.143 22.2167C116.331 22.0907 116.552 22.0234 116.779 22.0234C117.005 22.0234 117.227 22.0907 117.415 22.2167C117.604 22.3427 117.751 22.5218 117.837 22.7314C117.924 22.941 117.947 23.1717 117.903 23.3944C117.859 23.617 117.751 23.8217 117.591 23.9824C117.374 24.1961 117.083 24.3158 116.779 24.3158C116.475 24.3158 116.184 24.1961 115.967 23.9824Z" fill="#DADADB"/>
<path d="M119.034 22.6523C118.907 22.7799 118.175 22.1312 117.082 22.0674C115.989 22.0036 115.182 22.5034 115.065 22.3545C114.949 22.2057 115.15 22.0568 115.511 21.8122C115.992 21.5005 116.564 21.3583 117.135 21.4082C117.706 21.4499 118.249 21.6734 118.684 22.0462C119.002 22.3333 119.098 22.5885 119.034 22.6523Z" fill="#DADADB"/>
<path d="M105.695 22.5168C105.879 22.6482 106.021 22.8314 106.102 23.0433C106.182 23.2553 106.199 23.4864 106.148 23.7075C106.098 23.9287 105.984 24.13 105.819 24.2861C105.655 24.4421 105.448 24.5459 105.225 24.5844C105.002 24.6229 104.773 24.5943 104.566 24.5023C104.359 24.4103 104.184 24.2589 104.063 24.0674C103.942 23.8758 103.88 23.6525 103.885 23.4258C103.89 23.199 103.963 22.9789 104.093 22.7932C104.271 22.5474 104.539 22.3811 104.838 22.3295C105.137 22.2779 105.444 22.345 105.695 22.5168Z" fill="#DADADB"/>
<path d="M107.212 22.9043C107.074 23.0319 106.342 22.3832 105.259 22.3088C104.177 22.2344 103.349 22.7554 103.243 22.6065C103.137 22.4577 103.328 22.2982 103.678 22.0643C104.164 21.7568 104.735 21.6135 105.308 21.6556C105.882 21.6978 106.426 21.923 106.862 22.2982C107.17 22.5853 107.276 22.8405 107.212 22.9043Z" fill="#DADADB"/>
<path d="M111.076 31.3363C111.65 31.148 112.254 31.0616 112.858 31.0811C113.134 31.0811 113.368 31.0173 113.4 30.8578C113.421 30.5755 113.366 30.2927 113.24 30.0391C113.007 29.2948 112.773 28.5504 112.519 27.7742C111.826 25.8545 111.324 23.8705 111.022 21.8516C111.92 23.6895 112.631 25.6131 113.145 27.5935C113.378 28.3803 113.601 29.1246 113.813 29.8689C113.978 30.2442 114.008 30.665 113.898 31.0599C113.85 31.1641 113.779 31.2563 113.691 31.3299C113.603 31.4034 113.5 31.4565 113.389 31.4852C113.227 31.504 113.063 31.504 112.901 31.4852C112.288 31.5419 111.671 31.4916 111.076 31.3363Z" fill="#DADADB"/>
<path d="M107.456 32.3281C108.104 32.6152 110.47 34.1783 112.677 34.1995C112.276 34.7487 111.7 35.1447 111.044 35.3225C110.389 35.5003 109.692 35.4493 109.069 35.1778C106.766 34.2208 107.456 32.3281 107.456 32.3281Z" fill="white"/>
<path d="M110.874 44.6999C107.236 44.5491 103.725 43.3123 100.793 41.1484C100.793 41.1484 102.915 46.9754 110.768 46.7521L110.874 44.6999Z" fill="#E9E9EA"/>
<path d="M91.2312 22.4565C91.2342 22.1489 91.1171 21.8523 90.905 21.6298C90.693 21.4074 90.4026 21.2767 90.0957 21.2656C88.6313 21.2656 86.2223 21.8079 85.9995 25.8698C85.6811 31.6648 91.2418 30.2187 91.3055 30.0592C91.3692 29.8997 91.2524 24.7108 91.2312 22.4565Z" fill="#F5F5F5"/>
<path d="M89.9887 27.7734C89.9887 27.7734 89.8826 27.8372 89.7128 27.9116C89.4701 28.004 89.202 28.004 88.9594 27.9116C88.5927 27.6572 88.3009 27.309 88.1142 26.9032C87.9276 26.4973 87.853 26.0488 87.8982 25.6042C87.9153 25.1076 88.0421 24.621 88.2696 24.1794C88.3325 24.0014 88.438 23.8415 88.5767 23.7136C88.7154 23.5858 88.8832 23.4938 89.0655 23.4457C89.1834 23.4194 89.3069 23.4359 89.4139 23.4924C89.5208 23.5489 89.6042 23.6417 89.6491 23.7541C89.7128 23.9136 89.6491 24.0305 89.6491 24.0412C89.6491 24.0518 89.7765 23.9561 89.7446 23.7115C89.7209 23.5684 89.6499 23.4374 89.543 23.3394C89.4675 23.2742 89.3799 23.2246 89.2852 23.1936C89.1904 23.1626 89.0905 23.1507 88.9912 23.1586C88.7579 23.1975 88.5383 23.2949 88.3527 23.4418C88.1672 23.5887 88.0217 23.7803 87.93 23.9986C87.6558 24.4867 87.5029 25.0338 87.4843 25.5936C87.4281 26.1084 87.5251 26.6284 87.763 27.0881C88.0009 27.5478 88.3691 27.9269 88.8214 28.1775C88.9739 28.2344 89.1375 28.2553 89.2995 28.2387C89.4614 28.2221 89.6173 28.1684 89.7553 28.0818C89.9675 27.9116 90.0099 27.8372 89.9887 27.7734Z" fill="#E9E9EA"/>
<path d="M118.047 8.02552C111.589 5.66677 104.591 5.2165 97.8843 6.72828C97.8843 6.72828 91.1669 9.07821 90.8167 12.7041C90.6329 15.669 90.6613 18.6432 90.9016 21.604H91.3261L91.3898 27.6756H93.8305L94.1701 19.4668C94.1701 19.4668 98.8076 16.2768 98.9031 11.2686C101.163 10.9709 112.242 9.66303 119.798 12.2469V10.4818C119.788 9.94311 119.615 9.42021 119.302 8.9818C118.99 8.54339 118.552 8.21002 118.047 8.02552Z" fill="#DADADB"/>
<path d="M106.289 19.1001C106.289 19.2596 105.503 19.2702 104.612 19.4829C103.721 19.6955 103.031 20.0039 102.935 19.8763C102.84 19.7487 103.476 19.1745 104.485 18.9406C105.493 18.7067 106.32 18.9512 106.289 19.1001Z" fill="#DADADB"/>
<path d="M117.995 17.3682C117.899 17.4958 117.39 17.2831 116.753 17.3682C116.116 17.4533 115.692 17.7935 115.565 17.6978C115.437 17.6021 115.809 16.9429 116.626 16.8153C117.443 16.6877 118.101 17.2619 117.995 17.3682Z" fill="#DADADB"/>
<path d="M90.6579 15.0752C90.2758 10.9814 90.9338 7.82339 92.6529 5.81373C93.6702 4.76669 94.9416 4.00253 96.3425 3.59617C97.7433 3.1898 99.2255 3.15519 100.644 3.49572C101.527 3.93313 102.472 4.23425 103.445 4.3889C105.048 4.3889 106.247 3.0385 107.457 1.98582C108.383 1.04846 109.642 0.517008 110.959 0.507812C111.28 0.522114 111.595 0.601964 111.885 0.742489C112.175 0.883013 112.433 1.08125 112.643 1.32509C112.854 1.56893 113.012 1.85324 113.11 2.16064C113.207 2.46804 113.24 2.79208 113.208 3.11293C114.292 2.61932 115.451 2.31369 116.636 2.2091C117.228 2.16377 117.822 2.25417 118.374 2.47342C118.925 2.69268 119.42 3.03502 119.82 3.47445C120.192 3.92767 120.387 4.50077 120.37 5.08739C120.352 5.67402 120.123 6.23433 119.724 6.66439C120.176 6.302 120.737 6.10455 121.316 6.10455C121.895 6.10455 122.456 6.302 122.908 6.66439C123.339 7.05851 123.641 7.57435 123.773 8.14383C123.906 8.71332 123.863 9.3097 123.651 9.85432C123.417 10.3959 123.044 10.866 122.571 11.217C122.098 11.568 121.54 11.7876 120.955 11.8534C120.373 11.9052 119.787 11.8293 119.237 11.6309C118.687 11.4326 118.187 11.1166 117.771 10.705L114.397 9.30141L98.1499 10.2371L90.6579 15.0752Z" fill="#DADADB"/>
<path d="M98.617 13.1718C98.6811 12.5722 98.9697 12.0193 99.4247 11.6247C99.8796 11.23 100.467 11.0229 101.068 11.0452C102.283 11.136 103.43 11.6428 104.316 12.4806C105.182 13.319 106.132 14.0672 107.149 14.7136C108.351 15.3351 109.717 15.5621 111.054 15.3622C112.386 15.1622 113.654 14.6564 114.758 13.8842C115.996 14.5647 117.37 14.9572 118.78 15.0326C119.73 15.1376 120.686 14.9083 121.486 14.384C122.219 13.751 122.701 12.8757 122.844 11.9171C123.045 11.153 123.016 10.3463 122.759 9.59906C122.434 8.88265 121.871 8.3006 121.168 7.95092C120.471 7.607 119.737 7.34304 118.981 7.16406L99.657 7.64255L96.8555 11.6406L98.617 13.1718Z" fill="#DADADB"/>
<path d="M205.576 30.3941C204.006 29.8199 200.684 38.2732 200.344 36.0403C200.005 33.8073 205.65 26.1834 203.953 25.6517C201.83 24.9606 198.466 33.8711 198.127 34.5942C197.787 35.3172 196.715 34.8706 197.065 34.222C197.554 33.2969 202.446 23.4188 200.323 22.717C199.145 22.3342 198.636 24.514 198.636 24.514C198.636 24.514 194.752 34.0838 193.765 33.7223C192.778 33.3607 194.826 27.6508 195.696 25.7793C196.567 23.9079 195.983 22.7808 194.858 23.0998C194.094 23.3124 191.377 28.9799 190.613 30.8513C189.849 32.7227 187.748 37.8904 186.708 34.5091C185.668 31.1278 183.578 28.9267 182.601 28.7141C182.359 28.6469 182.101 28.6681 181.873 28.7739C181.645 28.8796 181.461 29.0631 181.356 29.2916C181.25 29.5201 181.228 29.7788 181.295 30.0216C181.362 30.2644 181.513 30.4755 181.72 30.6174C182.431 31.5952 182.999 32.6692 183.408 33.8073C183.774 34.6931 183.986 35.6355 184.034 36.5932C184.165 38.5188 184.108 40.4525 183.864 42.367L163.977 77.1586L132.948 64.973L128.448 82.7622C128.448 82.7622 169.166 101.338 171.745 99.9773C177.561 96.9043 196.354 46.1736 196.354 46.1736C199.095 42.7477 201.646 39.1731 203.995 35.4661C206.584 30.8513 206.16 30.6068 205.576 30.3941Z" fill="#F5F5F5"/>
<path d="M128.415 143.741C128.415 143.741 155.593 202.627 162.851 218.598C163.605 220.264 163.944 222.088 163.838 223.915L157.768 322.505L129.487 320.708L133.732 225.605L86.498 164.762C82.4761 159.573 78.7831 153.544 77.3823 147.122C76.9154 144.995 77.3823 142.869 77.3823 140.742L128.415 143.741Z" fill="#DADADB"/>
<path d="M125.624 152.239C125.624 152.239 103.509 213.209 97.4283 229.669C96.7908 231.395 95.7372 232.937 94.3614 234.157L20.693 299.816L1.87793 278.55L71.7473 214.028L81.0009 137.469C81.7256 130.935 83.9012 124.646 87.3681 119.064C88.4988 117.237 89.834 115.546 91.3476 114.023L125.624 152.239Z" fill="#DADADB"/>
<path d="M133.658 225.61C133.597 225.554 133.54 225.494 133.488 225.429L133.011 224.855L131.238 222.622C129.668 220.634 127.45 217.837 124.733 214.381L115.108 202.142L103.095 187.331C94.6059 176.814 87.1032 167.064 82.5719 159.408C80.707 156.428 79.1767 153.251 78.0087 149.934C77.7153 149.02 77.4919 148.085 77.3402 147.137L77.2659 146.404C77.2564 146.319 77.2564 146.233 77.2659 146.148C77.2993 146.226 77.3208 146.309 77.3296 146.393C77.3296 146.595 77.4145 146.829 77.4675 147.127C77.6619 148.052 77.9135 148.965 78.221 149.859C79.4629 153.123 81.0345 156.252 82.9115 159.195C87.5171 166.777 95.0304 176.464 103.531 186.98C107.775 192.243 111.861 197.23 115.501 201.866C119.141 206.502 122.314 210.67 125.052 214.179L131.419 222.537L133.127 224.823L133.562 225.418C133.633 225.546 133.665 225.61 133.658 225.61Z" fill="#E9E9EA"/>
<path d="M151.762 71.3168C143.155 66.8828 137.064 64.2457 132.363 61.2153C117.75 51.8156 113.898 53.8997 110.46 53.4744C107.573 54.3569 103.297 56.0476 101.684 56.3453C99.9114 56.675 94.1385 54.644 90.3181 53.4531C81.4253 53.8359 75.9707 57.6213 67.757 63.6822L54.3223 75.0065L71.3015 92.1471L76.9895 89.1911C77.9446 96.9213 77.7111 99.9305 78.0507 109.245L77.2866 146.695L132.586 149.832L129.561 113.956L128.224 85.7459L143.972 93.6463L151.751 71.3168" fill="#E9E9EA"/>
<path d="M89.915 54.5182V48.7656C89.915 48.7656 99.7842 49.829 101.79 56.6873L89.915 54.5182Z" fill="#E9E9EA"/>
<path d="M110.46 53.4867L110.089 48.7656C108.045 49.0314 106.139 49.9425 104.647 51.3669C103.155 52.7912 102.154 54.6548 101.79 56.6873L110.46 53.4867Z" fill="#E9E9EA"/>
<path d="M111.638 74.7367C112.27 74.644 112.909 74.6049 113.548 74.6198C114.811 74.6198 116.657 74.5241 118.854 74.4922H119.087V74.7367C119.087 76.8634 119.087 79.4366 119.087 82.1799V82.3288L118.96 82.4032L118.429 82.7754L115.585 84.7319L115.437 84.8276L115.288 84.7319C113.909 83.8387 112.603 82.9987 111.425 82.2225L111.309 82.1587V82.0311C111.309 79.7981 111.393 77.9479 111.436 76.7145C111.421 76.0744 111.46 75.4341 111.553 74.8005C111.553 74.8005 111.616 75.5874 111.659 76.8634C111.701 78.1393 111.754 79.9151 111.786 82.0523L111.669 81.8503L115.575 84.3066H115.32L118.164 82.3394L118.695 81.9779L118.578 82.2012C118.578 79.5004 118.578 76.9803 118.578 74.758L118.811 74.9919C116.689 74.9919 114.885 74.9069 113.611 74.8643C112.338 74.8218 111.669 74.7686 111.638 74.7367Z" fill="#DADADB"/>
<path d="M118.716 76.5413C117.528 76.7963 116.308 76.8716 115.097 76.7646C113.885 76.8396 112.668 76.7284 111.489 76.4349C112.678 76.1793 113.897 76.104 115.108 76.2116C116.32 76.1302 117.538 76.2415 118.716 76.5413Z" fill="#DADADB"/>
<path d="M100.028 53.2422C100.155 53.3379 98.2766 55.5177 96.6954 58.814L96.5469 59.1223L96.2816 58.9096L95.6236 58.3886C93.6355 56.9292 91.7623 55.3189 90.0205 53.5718C92.1082 54.8808 94.0947 56.3452 95.9632 57.9527L96.6212 58.4843L96.2073 58.5694C96.8947 57.1651 97.7307 55.839 98.7011 54.6139C99.0593 54.082 99.5084 53.6177 100.028 53.2422Z" fill="#DADADB"/>
<path d="M110.396 53.6968C109.372 55.1127 108.201 56.417 106.905 57.5885L106.778 57.7055L106.544 57.9394L106.353 57.6736C105.324 56.3351 104.438 54.8917 103.711 53.3672C104.882 54.5825 105.921 55.9192 106.81 57.3546H106.385L106.513 57.227C107.674 55.9107 108.976 54.7268 110.396 53.6968Z" fill="#DADADB"/>
<path d="M102.671 87.0696C102.523 87.0696 102.226 80.4027 102.003 72.1833C101.78 63.9638 101.738 57.2969 101.886 57.2969C102.035 57.2969 102.342 63.9638 102.555 72.1833C102.767 80.4027 102.831 87.059 102.671 87.0696Z" fill="#DADADB"/>
<path d="M82.625 56.3389C82.7868 56.3141 82.9514 56.3141 83.1132 56.3389C83.5786 56.3211 84.0447 56.3532 84.5033 56.4346C86.202 56.7243 87.7943 57.4579 89.1196 58.5612C91.1399 60.204 92.5248 62.5017 93.0354 65.0581C93.6459 68.1599 93.2749 71.3753 91.9742 74.2557C90.6553 77.1045 88.7493 79.6412 86.3817 81.6989C84.4771 83.3612 82.4117 84.8288 80.2161 86.0798C78.3484 87.1431 76.799 87.9512 75.7272 88.4829C75.1817 88.7814 74.6141 89.0374 74.0293 89.2484C74.5347 88.8892 75.0669 88.5693 75.6211 88.2915C76.6823 87.696 78.1892 86.8666 80.0145 85.7502C82.1558 84.4615 84.1736 82.9771 86.0421 81.3161C88.3324 79.3039 90.1824 76.8385 91.4754 74.075C92.722 71.2962 93.0923 68.2023 92.5366 65.2069C92.0756 62.762 90.7997 60.5463 88.9179 58.9228C87.6561 57.8238 86.1436 57.0532 84.514 56.6792C83.2936 56.3602 82.625 56.4027 82.625 56.3389Z" fill="#DADADB"/>
<path d="M127.97 87.4828C127.679 86.8426 127.489 86.161 127.407 85.4625C127.086 83.8007 126.862 82.1212 126.739 80.433C126.609 78.7456 126.581 77.0518 126.654 75.361C126.636 74.6435 126.722 73.9272 126.909 73.2344C127.078 73.2344 126.993 76.4243 127.291 80.3479C127.588 84.2716 128.129 87.4509 127.97 87.4828Z" fill="#DADADB"/>
<path d="M112.455 87.7844L6.94141 105.211L17.7611 170.982L123.274 153.556L112.455 87.7844Z" fill="#DCDCDD"/>
<g opacity="0.6">
<path d="M112.455 87.7922L6.94141 105.219L17.7611 170.99L123.274 153.564L112.455 87.7922Z" fill="#DCDCDD"/>
</g>
<path d="M116.612 89.1515L11.0986 106.578L21.9183 172.35L127.432 154.923L116.612 89.1515Z" fill="#DCDCDD"/>
<g opacity="0.4">
<path d="M116.612 89.1672L11.0986 106.594L21.9183 172.365L127.432 154.939L116.612 89.1672Z" fill="#DCDCDD"/>
</g>
<path d="M120.334 91.1515L14.8203 108.578L25.64 174.35L131.153 156.923L120.334 91.1515Z" fill="#E9E9EA"/>
<path d="M14.8037 108.584C14.9178 108.609 15.0283 108.648 15.1327 108.701L16.0453 109.105L19.5685 110.721L32.4833 116.74L74.9949 136.783L77.5312 137.985L77.2022 138.048L107.69 104.735L116.902 94.7609L119.417 92.0707L120.085 91.3795C120.159 91.2975 120.241 91.2227 120.329 91.1562C120.269 91.25 120.202 91.3389 120.128 91.4221L119.502 92.1451L117.061 94.8991L107.966 105.001L77.6055 138.42L77.4675 138.58L77.2765 138.484L74.7402 137.283L32.2923 117.08L19.4624 110.902L15.9816 109.201L15.0796 108.743L14.8037 108.584Z" fill="#DADADB"/>
<path d="M58.7369 129.399C58.8642 129.495 51.5526 139.628 42.405 152.037C33.2575 164.446 25.7442 174.441 25.6169 174.366C25.4895 174.292 32.8118 164.137 41.9593 151.729C51.1069 139.32 58.6202 129.314 58.7369 129.399Z" fill="#DADADB"/>
<path d="M133.052 156.614C132.957 156.731 123.554 149.278 112.051 139.963C100.548 130.648 91.3046 122.95 91.4001 122.876C91.4957 122.801 100.898 130.212 112.401 139.527C123.905 148.842 133.148 156.497 133.052 156.614Z" fill="#DADADB"/>
<path opacity="0.3" d="M77.9448 143.353L22.9004 112.411L77.4036 138.238L119.215 92.3672L77.9448 143.353Z" fill="#DCDCDD"/>
<path d="M54.5138 159.686C53.4294 159.19 52.4187 158.546 51.5106 157.772C50.7527 157.179 50.1028 156.46 49.5898 155.645C48.8105 154.436 48.1019 153.183 47.4674 151.892C47.4674 151.892 48.1784 117.377 49.4413 111.677C50.7041 105.978 70.5379 91.7721 70.5379 91.7721L57.1774 78.0234C47.9599 84.805 39.8969 93.0349 33.3004 102.395C26.9332 111.741 33.8629 155.188 33.8629 155.22C33.2757 158.935 32.8931 162.68 32.7168 166.438C32.7168 171.754 33.1519 171.754 33.778 171.616C35.4228 171.34 34.1812 162.344 35.5714 164.173C36.9616 166.002 35.8049 175.348 37.5134 174.998C39.7419 174.53 38.2775 165.141 38.2138 164.364C38.1501 163.588 39.275 163.439 39.275 164.173C39.275 165.236 39.8799 176.22 42.0659 175.795C43.2863 175.55 42.6496 173.403 42.6496 173.403C42.6496 173.403 41.3549 163.152 42.3949 162.982C43.4349 162.812 44.4218 168.798 44.6022 170.851C44.7826 172.903 45.812 173.605 46.6397 172.775C47.2021 172.222 46.7989 165.938 46.5654 163.928C46.332 161.919 45.621 156.379 48.1891 158.814C50.7572 161.249 53.6436 162.153 54.5563 161.844C54.6977 161.842 54.8372 161.811 54.9668 161.754C55.0965 161.697 55.2136 161.615 55.3117 161.513C55.4097 161.411 55.4867 161.29 55.5383 161.158C55.5898 161.026 55.6149 160.886 55.6121 160.744C55.6094 160.602 55.5787 160.462 55.522 160.332C55.4653 160.203 55.3836 160.085 55.2817 159.987C55.1797 159.889 55.0594 159.812 54.9276 159.76C54.7959 159.708 54.6552 159.683 54.5138 159.686Z" fill="#F5F5F5"/>
</g>
<defs>
<clipPath id="clip0_6304_192323">
<rect width="206" height="175" fill="white" transform="translate(0 0.5)"/>
</clipPath>
</defs>
</svg>
