<svg xmlns="http://www.w3.org/2000/svg" width="51" height="44" viewBox="0 0 51 44" fill="none">
  <path d="M37.9195 0.0703125H3.66486C1.69097 0.0703125 0.0908203 1.67046 0.0908203 3.64435V37.899C0.0908203 39.8729 1.69097 41.473 3.66486 41.473H37.9195C39.8934 41.473 41.4936 39.8729 41.4936 37.899V3.64435C41.4936 1.67046 39.8934 0.0703125 37.9195 0.0703125Z" fill="#FAFAFA"/>
  <path d="M0.0912861 3.64226C0.0912861 3.64226 0.0912861 3.50203 0.0912861 3.22914C0.148458 2.69853 0.323858 2.18748 0.604584 1.7336C0.88531 1.27972 1.26422 0.894542 1.71344 0.606411C2.07118 0.37 2.46949 0.201679 2.88836 0.109912C3.35982 0.0268834 3.83903 -0.00362416 4.31722 0.0189501L21.4218 0H33.2203H36.457C37.0066 0 37.5523 0 38.1171 0C38.6891 0.0307519 39.2454 0.198426 39.7392 0.48892C40.2509 0.782476 40.6842 1.19522 41.0023 1.69208C41.3203 2.18894 41.5137 2.75523 41.566 3.34284C41.6001 4.51777 41.566 5.68511 41.566 6.87898C41.566 16.4186 41.566 26.9057 41.566 37.9121C41.5669 38.6198 41.363 39.3126 40.979 39.9071C40.5951 40.5015 40.0473 40.9723 39.4019 41.2625C39.0836 41.4088 38.745 41.5059 38.3975 41.5506C38.0578 41.5876 37.7158 41.6002 37.3742 41.5885H27.4632H12.4962H3.84346C3.27768 41.608 2.71459 41.5019 2.19478 41.2777C1.68789 41.0536 1.23836 40.7175 0.87995 40.2948C0.521542 39.872 0.263567 39.3736 0.125397 38.8369C0.016531 38.315 -0.0217117 37.7809 0.011695 37.2488V35.6987C0.011695 34.688 0.011695 33.6849 0.011695 32.6894C0.011695 30.7185 0.011695 28.8311 0.011695 27.027C0.011695 19.8259 0.0382256 13.9778 0.0458057 9.93757C0.0458057 7.92504 0.0458054 6.35974 0.0647558 5.29473C0.0647558 4.76412 0.0647558 4.36237 0.0647558 4.0857C0.0647558 3.80902 0.0647558 3.67258 0.0647558 3.67258C0.0647558 3.67258 0.0647558 3.81281 0.0647558 4.0857C0.0647558 4.35858 0.0647558 4.76412 0.0647558 5.29473C0.0647558 6.35974 0.0647562 7.92504 0.0837066 9.93757C0.0837066 13.9778 0.102657 19.8145 0.114027 27.027C0.114027 28.8311 0.114027 30.7185 0.114027 32.6894C0.114027 33.6697 0.114027 34.6728 0.114027 35.6987V37.2488C0.0849685 37.767 0.123187 38.2868 0.227729 38.7952C0.36006 39.3074 0.606855 39.783 0.94954 40.1861C1.29222 40.5891 1.72187 40.9092 2.20615 41.1223C2.70444 41.3371 3.24436 41.4381 3.78661 41.4179H37.3439C37.6765 41.4295 38.0096 41.4181 38.3407 41.3838C38.668 41.3388 38.9871 41.2469 39.2882 41.1109C39.8994 40.8361 40.4182 40.3905 40.782 39.8276C41.1458 39.2648 41.3391 38.6088 41.3386 37.9386C41.3386 26.9474 41.3386 16.4451 41.3386 6.90551C41.3386 5.71922 41.3386 4.52914 41.3386 3.38453C41.2897 2.82521 41.1064 2.28598 40.8041 1.81282C40.5019 1.33965 40.0897 0.946568 39.6028 0.667053C39.1478 0.383078 38.6323 0.210378 38.0981 0.162973C37.5486 0.162973 36.9914 0.162973 36.4456 0.162973H33.2089L21.4218 0.140234L4.31722 0.109912C3.8445 0.0870603 3.37068 0.113736 2.90352 0.189504C2.49916 0.275949 2.11389 0.435194 1.7665 0.659472C1.2117 1.00744 0.765337 1.5037 0.477874 2.09212C0.239449 2.57517 0.10761 3.10382 0.0912861 3.64226Z" fill="#203864"/>
  <path d="M30.6547 31.5053C30.5183 31.2173 28.79 24.9864 28.79 24.9864L29.1084 18.35L29.423 9.15529L24.9545 8.35938C21.714 10.2544 16.6163 11.0124 13.3152 9.4964C13.3152 9.4964 11.5338 9.57978 10.6621 10.3795C10.3286 10.6865 10.8706 13.3661 11.3595 16.0077C11.8749 18.7859 13.3227 25.6914 13.3227 25.6914C13.3227 25.6914 10.8668 31.6152 10.3438 33.317C10.3438 33.317 25.3524 30.5957 30.3781 33.317C30.3781 33.3208 31.4393 33.173 30.6547 31.5053Z" fill="#203864"/>
  <path d="M5.16224 13.7535L10.7564 10.3008L12.2724 17.9984L9.38817 20.4506C9.38817 20.4506 5.00685 18.1955 5.16224 13.7535Z" fill="#203864"/>
  <path d="M29.4224 9.15625L35.1075 11.6198C35.1075 11.6198 33.239 18.7489 32.1475 19.5789L29.2632 18.3585L28.5545 20.5757L28.5166 11.6236L29.4224 9.15625Z" fill="#203864"/>
  <path d="M9.90787 19.7383C9.80569 19.7089 9.70857 19.6641 9.61982 19.6056C9.37432 19.4653 9.13877 19.3083 8.91487 19.1356C8.15281 18.5661 7.49827 17.8653 6.98193 17.0663C6.6947 16.6193 6.45343 16.1443 6.26182 15.6488C6.11775 15.2469 6.01365 14.8317 5.95103 14.4094C5.9058 14.1262 5.8855 13.8396 5.89039 13.5529C5.88045 13.447 5.89074 13.3403 5.92071 13.2383C5.95482 13.2383 5.95103 13.6855 6.08748 14.3753C6.16813 14.7849 6.28351 15.1868 6.43237 15.5768C6.62116 16.05 6.85201 16.5054 7.12217 16.9374C7.62872 17.7181 8.25403 18.4151 8.97551 19.003C9.54402 19.4767 9.92682 19.7079 9.90787 19.7383Z" fill="#E7EAEE"/>
  <path d="M11.5032 16.9213C11.5032 16.9213 11.4198 16.8947 11.2834 16.8113C11.1151 16.6805 10.9567 16.5373 10.8096 16.3831C10.3204 15.8619 9.87308 15.3031 9.47171 14.7116C9.06501 14.1257 8.69416 13.5156 8.36122 12.8848C8.20489 12.6311 8.09575 12.3512 8.03906 12.0586C8.06559 12.0586 8.20204 12.3542 8.48629 12.8166C8.77055 13.279 9.16471 13.9119 9.62331 14.5942C10.0819 15.2764 10.5481 15.8752 10.9006 16.2845C11.0787 16.4854 11.2303 16.6408 11.3364 16.7469C11.4425 16.853 11.507 16.9061 11.5032 16.9213Z" fill="#E7EAEE"/>
  <path d="M28.7672 9.67969C28.5428 9.75435 28.3136 9.81387 28.0812 9.85782C27.6378 9.96773 27.001 10.1383 26.2241 10.3771L23.4839 11.2336C22.3693 11.5872 21.2288 11.8533 20.0728 12.0295C17.9357 12.3218 15.7598 12.1076 13.7206 11.4042C13.1091 11.1955 12.5137 10.9422 11.9393 10.6462C11.7346 10.5438 11.5868 10.4453 11.4807 10.3846C11.4259 10.3558 11.375 10.3201 11.3291 10.2785C11.55 10.3632 11.7652 10.4619 11.9734 10.5741C12.5555 10.8478 13.1542 11.0846 13.7661 11.2829C15.7848 11.9365 17.9246 12.1282 20.0273 11.8438C21.1818 11.6774 22.3221 11.424 23.4384 11.0858C24.4731 10.7826 25.3978 10.487 26.1862 10.2671C26.9745 10.0473 27.6188 9.88814 28.0812 9.80855C28.3048 9.76307 28.4602 9.74033 28.6005 9.72138C28.6533 9.69818 28.7097 9.68408 28.7672 9.67969Z" fill="#E7EAEE"/>
  <path d="M29.3803 14.8906C29.321 14.91 29.2601 14.924 29.1983 14.9323L28.6753 15.0157C28.2205 15.0915 27.561 15.1749 26.7424 15.2582C25.1051 15.4288 22.831 15.5614 20.2992 15.5652C17.7675 15.569 15.5124 15.4743 13.8561 15.3909L11.9459 15.2696L11.4191 15.2279C11.3565 15.2253 11.2943 15.2165 11.2334 15.2014C11.2949 15.1916 11.3576 15.1916 11.4191 15.2014H11.9459L13.894 15.2507C15.5351 15.2999 17.8054 15.3719 20.3144 15.3682C22.8234 15.3644 25.0861 15.2545 26.7234 15.118C27.5421 15.0536 28.2053 14.9891 28.6639 14.9399L29.1908 14.8906C29.2535 14.8802 29.3175 14.8802 29.3803 14.8906Z" fill="#E7EAEE"/>
  <path d="M29.1076 18.3516C28.8995 18.4401 28.6838 18.5099 28.4633 18.56C28.2548 18.6244 27.9971 18.6813 27.7053 18.7495C27.4134 18.8177 27.0572 18.8898 26.6706 18.9466C24.6643 19.2664 22.6378 19.4437 20.6065 19.4772C18.2301 19.5454 16.0773 19.4772 14.5423 19.3559C13.7843 19.2991 13.1362 19.2309 12.7042 19.174C12.4795 19.1494 12.2567 19.1102 12.0371 19.0565C12.2628 19.0508 12.4885 19.0647 12.7117 19.0982C13.1476 19.1285 13.773 19.1778 14.5499 19.2157C16.1001 19.2877 18.249 19.3484 20.614 19.2801C22.643 19.2445 24.668 19.0875 26.6782 18.8102C27.0572 18.7609 27.4096 18.7002 27.7128 18.6396C28.016 18.579 28.2776 18.5373 28.4709 18.4842C28.6803 18.4274 28.8929 18.3831 29.1076 18.3516Z" fill="#E7EAEE"/>
  <path d="M28.6228 23.0853C28.4194 23.1312 28.2129 23.1616 28.005 23.1763C27.626 23.2218 27.0272 23.2748 26.3108 23.3355C24.8782 23.4454 22.8998 23.5591 20.7015 23.5856C18.5033 23.6122 16.5324 23.5326 15.0884 23.4037C14.3721 23.3355 13.7922 23.2711 13.3943 23.199C13.1871 23.176 12.9819 23.138 12.7803 23.0853C12.9894 23.0792 13.1987 23.0919 13.4056 23.1232C13.7846 23.1687 14.3835 23.2142 15.096 23.2635C16.5287 23.3582 18.5071 23.4189 20.6977 23.3885C22.8884 23.3582 24.8668 23.2711 26.2995 23.1953L27.9974 23.1005C28.205 23.0771 28.4143 23.0721 28.6228 23.0853Z" fill="#E7EAEE"/>
  <path d="M29.5474 27.7445C29.3222 27.7542 29.0966 27.7453 28.8728 27.718L27.0346 27.5891C25.4845 27.4868 23.3355 27.3807 20.9705 27.3807C18.6055 27.3807 16.4489 27.4868 14.9064 27.5891L13.0682 27.718C12.8444 27.7453 12.6188 27.7542 12.3936 27.7445C12.6131 27.6944 12.8361 27.6602 13.0606 27.6422C13.4927 27.5853 14.118 27.5209 14.895 27.4489C16.4451 27.3125 18.5979 27.1836 20.9591 27.1836C23.3203 27.1836 25.4845 27.3125 27.0232 27.4489C27.7812 27.5171 28.4256 27.5853 28.8576 27.6422C29.0898 27.6591 29.3204 27.6933 29.5474 27.7445Z" fill="#E7EAEE"/>
  <path d="M31.3443 11.1296C31.1911 11.7103 30.9343 12.2586 30.5863 12.748C30.2932 13.2724 29.908 13.7397 29.4492 14.1276C29.4038 14.0935 29.8927 13.4681 30.4043 12.6419C30.916 11.8156 31.276 11.1031 31.3443 11.1296Z" fill="#E7EAEE"/>
  <path d="M10.8662 13.2539C10.9248 13.4092 10.9655 13.5707 10.9875 13.7352L11.2718 15.0656C11.5143 16.2291 11.8365 17.7603 12.1927 19.4545C12.549 21.1486 12.8522 22.7253 13.0569 23.8547C13.1554 24.4195 13.2312 24.8781 13.2767 25.1964C13.3074 25.3614 13.3226 25.5289 13.3222 25.6967C13.264 25.5399 13.2234 25.3773 13.2009 25.2116L12.9166 23.8813C12.6741 22.7215 12.3519 21.1865 11.9994 19.4924C11.647 17.7982 11.3362 16.2253 11.1353 15.0921C11.033 14.5274 10.9572 14.0688 10.9117 13.7504C10.8811 13.5867 10.8659 13.4205 10.8662 13.2539Z" fill="#203864"/>
  <path d="M29.4792 15.293C29.4935 15.4189 29.4935 15.546 29.4792 15.672C29.4792 15.9183 29.4564 16.2746 29.4375 16.7142C29.392 17.5898 29.3162 18.8026 29.2215 20.1253C29.1267 21.448 29.0282 22.676 28.9486 23.5364C28.9069 23.976 28.8728 24.3323 28.8425 24.5749C28.8355 24.7032 28.8139 24.8304 28.778 24.9539C28.7589 24.8283 28.7589 24.7005 28.778 24.5749C28.778 24.3285 28.778 23.9722 28.8197 23.5326C28.8652 22.6571 28.941 21.4443 29.0357 20.1215C29.1305 18.7988 29.229 17.5708 29.3086 16.7105C29.3465 16.2708 29.3844 15.9183 29.4148 15.672C29.4161 15.543 29.4379 15.4151 29.4792 15.293Z" fill="#203864"/>
  <path d="M33.584 11.0469C33.4522 11.4351 33.2966 11.8149 33.1178 12.1839C32.8222 12.8775 32.4432 13.8477 32.0907 14.9393C31.7383 16.0308 31.4919 17.0466 31.3327 17.7856C31.2641 18.1874 31.1718 18.5848 31.056 18.9757C31.0386 18.8665 31.0386 18.7552 31.056 18.646C31.0788 18.4337 31.1205 18.1305 31.1849 17.7553C31.3544 16.7824 31.5912 15.8225 31.8936 14.8824C32.1932 13.9403 32.5566 13.0197 32.9814 12.127C33.1444 11.7859 33.2846 11.5131 33.3907 11.3273C33.4421 11.2255 33.5071 11.1311 33.584 11.0469Z" fill="#E7EAEE"/>
  <path d="M30.6355 31.7367C30.5651 31.7301 30.4953 31.7174 30.4271 31.6988L29.8434 31.5586C29.5895 31.4941 29.2787 31.4183 28.9148 31.3463C28.551 31.2743 28.1568 31.172 27.6793 31.1038C27.2017 31.0355 26.7166 30.937 26.1632 30.8801C25.6099 30.8233 25.0262 30.7626 24.4198 30.7096C23.0869 30.6299 21.7504 30.6299 20.4175 30.7096C19.0838 30.8064 17.7573 30.9849 16.4455 31.244C15.8429 31.3766 15.2706 31.4903 14.7438 31.6419C14.2169 31.7935 13.7242 31.9262 13.277 32.0664C12.8298 32.2067 12.4356 32.3469 12.0869 32.4682C11.7382 32.5895 11.4388 32.7032 11.1963 32.8017L10.6353 33.0215C10.5705 33.0526 10.5016 33.0743 10.4307 33.086C10.4892 33.0472 10.5514 33.0142 10.6164 32.9874L11.1621 32.7373C11.4009 32.6274 11.6928 32.4985 12.0452 32.3583C12.3977 32.218 12.8032 32.0626 13.2315 31.9262C13.6598 31.7898 14.1639 31.6154 14.6983 31.4752C15.2327 31.3349 15.8012 31.1947 16.4038 31.0583C19.0485 30.5012 21.759 30.3225 24.4539 30.5277C25.0679 30.5845 25.6554 30.63 26.2011 30.7172C26.7469 30.8043 27.2548 30.8763 27.7172 30.9673C28.1796 31.0583 28.5889 31.153 28.9527 31.2402C29.3166 31.3274 29.6236 31.407 29.8737 31.4865L30.4498 31.6609C30.5152 31.6765 30.5779 31.7021 30.6355 31.7367Z" fill="#E7EAEE"/>
  <path d="M37.8027 31.457C37.8027 31.457 39.4211 42.2512 39.6258 42.1147C39.8304 41.9783 42.5934 39.4162 42.5934 39.4162L47.1111 44.0022L50.0143 41.1028L45.4928 36.585L48.3278 33.8865L37.8027 31.457Z" fill="#203864"/>
  <path d="M37.0755 31.9962C36.4097 32.1883 35.7268 32.3152 35.0364 32.3752C34.3565 32.501 33.6661 32.562 32.9746 32.5571C33.6397 32.3674 34.3211 32.2405 35.0099 32.1781C35.6914 32.0545 36.3828 31.9936 37.0755 31.9962Z" fill="#203864"/>
  <path d="M36.754 30.7309C36.1839 30.5457 35.635 30.3005 35.1167 29.9995C34.5699 29.753 34.0514 29.448 33.5703 29.0898C34.1412 29.2731 34.6902 29.5184 35.2076 29.8213C35.7544 30.0678 36.2729 30.3728 36.754 30.7309Z" fill="#203864"/>
  <path d="M37.8603 30.3677C37.4649 29.6901 37.1252 28.9816 36.8446 28.249C36.5036 27.5417 36.2247 26.8062 36.0107 26.0508C36.4071 26.7278 36.7468 27.4364 37.0265 28.1694C37.3634 28.8784 37.6423 29.6136 37.8603 30.3677Z" fill="#203864"/>
  <path d="M39.5508 27.6758C39.5397 28.1512 39.4645 28.6229 39.3272 29.0781C39.2532 29.5486 39.1142 30.0065 38.9141 30.4387C38.9226 29.9634 38.9966 29.4916 39.1339 29.0364C39.2101 28.566 39.3504 28.1082 39.5508 27.6758Z" fill="#203864"/>
</svg>