<svg width="201" height="201" viewBox="0 0 201 201" fill="none" xmlns="http://www.w3.org/2000/svg">
<g id="Camera-pana 1">
<g id="freepik--background-complete--inject-2">
<path id="Vector" d="M43.0601 48.2046L47.6641 49.4726L44.2601 50.3046C42.5281 50.5806 41.7481 51.3286 41.4321 52.3046L40.3721 60.8606L39.0681 52.2846C38.9074 51.8853 38.6645 51.5244 38.355 51.2253C38.0456 50.9262 37.6766 50.6956 37.2721 50.5486L32.8721 49.4726L37.5321 48.1526C37.9165 47.9942 38.2647 47.7594 38.5555 47.4624C38.8464 47.1653 39.0738 46.8123 39.2241 46.4246L40.3841 36.7246L41.2161 46.2126C41.35 46.6639 41.586 47.0782 41.9058 47.4236C42.2255 47.7691 42.6205 48.0363 43.0601 48.2046Z" fill="#EBEBEB"/>
<path id="Vector_2" d="M49.6482 61.1806L51.3002 61.6366L50.1002 61.9366C49.4762 62.0366 49.2002 62.3006 49.0842 62.6486L48.6842 65.7206L48.2162 62.6446C48.1591 62.5014 48.0721 62.3721 47.9611 62.2652C47.85 62.1583 47.7174 62.0763 47.5722 62.0246L45.9722 61.6246L47.6442 61.1526C47.7813 61.0951 47.9054 61.0106 48.0092 60.9041C48.113 60.7975 48.1942 60.6712 48.2482 60.5326L48.6482 57.0566L48.9482 60.4566C48.9982 60.6246 49.0879 60.7781 49.2097 60.9042C49.3316 61.0302 49.4819 61.125 49.6482 61.1806Z" fill="#EBEBEB"/>
<path id="Vector_3" d="M18.537 74.4476L5.49902 118.52L60.6254 134.828L73.6633 90.7559L18.537 74.4476Z" fill="#FAFAFA"/>
<path id="Vector_4" d="M73.664 90.7655C73.664 90.7655 73.572 90.7655 73.396 90.6935L72.62 90.4735L69.62 89.6055L58.324 86.3055L18.5 74.5975L18.688 74.4975C14.812 87.6175 10.368 102.658 5.66399 118.57L5.55199 118.366L60.668 134.702L60.496 134.794C64.452 121.534 67.732 110.542 70.024 102.85L72.7 93.9295C73.012 92.9002 73.2493 92.1149 73.412 91.5735C73.576 91.0415 73.668 90.7735 73.668 90.7735C73.668 90.7735 73.6 91.0415 73.452 91.5735C73.304 92.1055 73.052 92.8935 72.776 93.9135L70.176 102.826C67.912 110.546 64.672 121.582 60.764 134.894L60.724 135.026L60.592 134.986L5.45199 118.69L5.29199 118.642L5.33999 118.482C10.056 102.566 14.5 87.5295 18.396 74.4135L18.44 74.2695L18.58 74.3135L58.456 86.1895L69.7 89.5575L72.664 90.4495L73.416 90.6855L73.664 90.7655Z" fill="#E0E0E0"/>
<path id="Vector_5" d="M19.6159 77.785L8.21875 116.311L59.4749 131.474L70.872 92.9483L19.6159 77.785Z" fill="#EBEBEB"/>
<path id="Vector_6" d="M8.22021 116.316L33.2082 97.6641L39.8642 115.928L49.7562 110.144L59.4762 131.48L8.22021 116.316Z" fill="#E0E0E0"/>
<path id="Vector_7" d="M49.872 99.4041C49.6362 100.202 49.169 100.913 48.5296 101.445C47.8901 101.978 47.1071 102.309 46.2795 102.397C45.4518 102.484 44.6168 102.324 43.88 101.937C43.1432 101.551 42.5377 100.954 42.14 100.223C41.7423 99.4917 41.5703 98.6591 41.6458 97.8303C41.7212 97.0015 42.0408 96.2137 42.564 95.5665C43.0872 94.9193 43.7905 94.4417 44.5851 94.1943C45.3797 93.9468 46.2298 93.9405 47.028 94.1761C47.558 94.3326 48.0521 94.592 48.4818 94.9394C48.9116 95.2869 49.2688 95.7156 49.5329 96.2011C49.797 96.6865 49.9628 97.2193 50.021 97.7689C50.0792 98.3185 50.0286 98.8741 49.872 99.4041Z" fill="#E0E0E0"/>
<path id="Vector_8" d="M119.793 110.657L115.185 159.23L175.94 164.995L180.548 116.421L119.793 110.657Z" fill="#FAFAFA"/>
<path id="Vector_9" d="M180.532 116.409H180.24L179.384 116.337L176.1 116.021L163.64 114.901L119.764 110.821L119.936 110.681C118.572 125.137 117.004 141.709 115.352 159.249L115.196 159.057L175.948 164.845L175.788 164.977C177.204 150.357 178.38 138.233 179.204 129.757C179.604 125.517 179.948 122.193 180.172 119.913C180.288 118.785 180.376 117.913 180.436 117.317C180.496 116.721 180.536 116.421 180.536 116.421C180.536 116.421 180.536 116.709 180.472 117.289C180.408 117.869 180.344 118.741 180.244 119.861C180.036 122.133 179.736 125.461 179.352 129.677C178.552 138.181 177.44 150.337 176.08 165.005V165.153H175.932L115.172 159.425H114.996V159.249C116.668 141.713 118.244 125.141 119.62 110.685V110.529H119.776L163.74 114.777L176.14 115.997L179.408 116.325L180.244 116.413C180.444 116.393 180.532 116.409 180.532 116.409Z" fill="#E0E0E0"/>
<path id="Vector_10" d="M121.598 113.912L117.57 156.369L174.056 161.729L178.084 119.271L121.598 113.912Z" fill="#EBEBEB"/>
<path id="Vector_11" d="M117.556 156.36L139.788 131.84L150.444 149.508L159.572 141.468L174.044 161.716L117.556 156.36Z" fill="#E0E0E0"/>
<path id="Vector_12" d="M157.504 130.257C157.421 131.137 157.079 131.973 156.521 132.658C155.963 133.344 155.214 133.848 154.369 134.108C153.524 134.368 152.621 134.371 151.775 134.117C150.928 133.864 150.175 133.365 149.612 132.684C149.049 132.003 148.701 131.17 148.611 130.29C148.521 129.411 148.694 128.525 149.109 127.744C149.523 126.963 150.159 126.323 150.937 125.903C151.715 125.484 152.6 125.305 153.48 125.389C154.659 125.502 155.745 126.078 156.5 126.99C157.254 127.903 157.615 129.078 157.504 130.257Z" fill="#E0E0E0"/>
<path id="Vector_13" d="M62.2452 123.252L17.0254 134.275L25.8386 170.429L71.0584 159.405L62.2452 123.252Z" fill="#FAFAFA"/>
<path id="Vector_14" d="M62.2398 123.26L62.0198 123.32L61.3878 123.48L58.9358 124.1L49.6998 126.38L17.0638 134.38L17.1518 134.236C19.7758 144.996 22.7878 157.328 25.9758 170.38L25.8118 170.284L71.0238 159.3L70.9398 159.436L64.6078 133.2C63.8518 130.044 63.2558 127.564 62.8478 125.868C62.6478 125.024 62.4958 124.376 62.3918 123.928C62.2878 123.48 62.2398 123.256 62.2398 123.256C62.2398 123.256 62.2998 123.472 62.4078 123.9C62.5158 124.328 62.6798 124.98 62.8878 125.812C63.2878 127.5 63.9158 129.964 64.6958 133.108L71.1598 159.384L71.1838 159.492L71.0758 159.52L25.8758 170.56L25.7438 170.592L25.7118 170.46C22.5358 157.408 19.5358 145.072 16.9118 134.308L16.8838 134.192L16.9998 134.164L49.7438 126.248L58.9838 124.028L61.4198 123.448L62.0438 123.304L62.2398 123.26Z" fill="#E0E0E0"/>
<path id="Vector_15" d="M61.1893 125.922L19.1445 136.172L26.8484 167.774L68.8932 157.525L61.1893 125.922Z" fill="#EBEBEB"/>
<path id="Vector_16" d="M26.832 167.777L36.732 144.557L48.824 154.629L53.392 146.557L68.876 157.533L26.832 167.777Z" fill="#E0E0E0"/>
<path id="Vector_17" d="M49.1039 138.992C49.2634 139.647 49.2252 140.334 48.9941 140.967C48.763 141.6 48.3494 142.151 47.8056 142.549C47.2617 142.947 46.6121 143.175 45.9388 143.204C45.2654 143.232 44.5987 143.061 44.0228 142.711C43.4468 142.361 42.9876 141.848 42.7032 141.237C42.4187 140.626 42.3218 139.944 42.4247 139.278C42.5276 138.612 42.8256 137.992 43.2812 137.495C43.7367 136.998 44.3292 136.648 44.9839 136.488C45.4189 136.382 45.8705 136.362 46.313 136.431C46.7555 136.499 47.1802 136.654 47.5628 136.886C47.9454 137.119 48.2784 137.425 48.5429 137.786C48.8073 138.147 48.998 138.557 49.1039 138.992Z" fill="#E0E0E0"/>
<path id="Vector_18" d="M173.925 36.9849L109.95 48.7266L119.337 99.8762L183.313 88.1345L173.925 36.9849Z" fill="#FAFAFA"/>
<path id="Vector_19" d="M173.928 36.9805L173.62 37.0445L172.724 37.2205L169.252 37.8765L156.16 40.3285L109.98 48.9005L110.116 48.7045C112.916 63.9285 116.116 81.3765 119.524 99.8445L119.3 99.7005L183.3 87.9885L183.176 88.1725C180.376 72.7645 178.064 59.9925 176.444 51.0605C175.644 46.5925 175.012 43.0885 174.58 40.6845C174.368 39.4845 174.208 38.5765 174.096 37.9485C173.984 37.3205 173.94 36.9965 173.94 36.9965C173.94 36.9965 174.008 37.3005 174.124 37.9085C174.24 38.5165 174.416 39.4325 174.64 40.6125C175.088 43.0125 175.74 46.4885 176.576 50.9365C178.236 59.8845 180.616 72.6805 183.484 88.1365L183.512 88.2885L183.356 88.3165L119.376 100.056L119.188 100.092L119.156 99.9045C115.776 81.4365 112.576 63.9845 109.788 48.7605L109.76 48.5925L109.924 48.5605L156.244 40.1605L169.3 37.7885L172.744 37.1765L173.628 37.0245L173.928 36.9805Z" fill="#E0E0E0"/>
<path id="Vector_20" d="M172.231 40.6259L112.749 51.543L120.955 96.2522L180.437 85.3351L172.231 40.6259Z" fill="#EBEBEB"/>
<path id="Vector_21" d="M120.956 96.2485L136.628 64.6445L152.688 79.6685L159.712 68.7685L180.436 85.3285L120.956 96.2485Z" fill="#E0E0E0"/>
<path id="Vector_22" d="M154.336 57.8734C154.507 58.8002 154.398 59.7568 154.025 60.6221C153.652 61.4874 153.03 62.2226 152.239 62.7347C151.448 63.2467 150.523 63.5127 149.581 63.4988C148.639 63.485 147.722 63.192 146.946 62.657C146.17 62.1219 145.57 61.3688 145.223 60.4929C144.875 59.617 144.795 58.6576 144.993 57.7362C145.19 56.8148 145.657 55.9727 146.333 55.3164C147.009 54.6602 147.865 54.2192 148.792 54.0494C149.407 53.9361 150.039 53.9452 150.65 54.0761C151.262 54.2071 151.842 54.4573 152.357 54.8124C152.871 55.1675 153.311 55.6207 153.651 56.1459C153.991 56.6711 154.223 57.2581 154.336 57.8734Z" fill="#E0E0E0"/>
</g>
<g id="freepik--Camera--inject-2">
<path id="Vector_23" d="M94.8081 52.3959H127.932L129.824 50.5039H149.964C150.618 50.5039 151.244 50.7635 151.706 51.2256C152.168 51.6877 152.428 52.3144 152.428 52.9679V56.2959H92.5881L92.5161 54.8199C92.5004 54.5085 92.548 54.1972 92.6559 53.9047C92.7639 53.6123 92.93 53.3447 93.1442 53.1182C93.3583 52.8916 93.6162 52.7109 93.9022 52.5867C94.1882 52.4626 94.4963 52.3977 94.8081 52.3959Z" fill="#E9E9EA"/>
<path id="Vector_24" d="M48.1879 105.065L48.6319 60.9565C48.6434 59.7208 49.1425 58.5397 50.0204 57.67C50.8983 56.8003 52.0841 56.3124 53.3199 56.3125H154.676C155.913 56.3125 157.1 56.8014 157.978 57.6728C158.856 58.5442 159.354 59.7274 159.364 60.9645L159.696 105.065L164.36 124.329V131.213H161.056V150.929C161.054 154.389 159.678 157.706 157.23 160.152C154.783 162.598 151.464 163.972 148.004 163.972H57.9038C54.4422 163.972 51.1224 162.597 48.6747 160.15C46.227 157.702 44.8519 154.382 44.8519 150.92V130.372H41.5479V124.329L48.1879 105.065Z" fill="#E9E9EA"/>
<path id="Vector_25" d="M48.188 105.064C48.188 105.064 48.048 105.492 47.768 106.32L46.504 110.016L41.592 124.344C41.592 126.24 41.592 128.259 41.592 130.4L41.54 130.352H44.896V130.372C44.896 134.68 44.896 139.436 44.896 144.608C44.896 145.902 44.896 147.22 44.896 148.564C44.8545 149.93 44.8986 151.297 45.028 152.656C45.2041 154.059 45.6223 155.421 46.264 156.68C46.9159 157.989 47.7811 159.18 48.824 160.204C51.036 162.359 53.946 163.652 57.028 163.848C57.828 163.904 58.628 163.888 59.428 163.892H66.8H87.844H135.22H148.02C150.187 163.868 152.316 163.319 154.224 162.292L154.916 161.868L155.264 161.656L155.592 161.412L156.244 160.924L156.848 160.372L157.152 160.096L157.428 159.796L157.98 159.188L158.476 158.532L158.72 158.204C158.8 158.092 158.864 157.972 158.936 157.856L159.364 157.152C159.496 156.912 159.608 156.66 159.728 156.412C159.963 155.915 160.167 155.403 160.34 154.88C160.672 153.824 160.869 152.73 160.924 151.624C160.964 151.072 160.96 150.512 160.96 149.952V144.892C160.96 140.375 160.96 135.815 160.96 131.212V131.108H164.368L164.264 131.212V124.372C163.792 122.416 163.28 120.304 162.768 118.188C161.68 113.708 160.604 109.26 159.6 105.112V105.088C159.492 90.8245 159.388 76.9365 159.288 63.5525C159.208 61.9005 159.536 60.1405 158.648 58.7205C158.241 58.0216 157.657 57.4422 156.955 57.0405C156.252 56.6389 155.457 56.4292 154.648 56.4325H126.06L61.212 56.3725H54.48C53.936 56.3725 53.388 56.3725 52.88 56.3965C52.3544 56.4516 51.8419 56.595 51.364 56.8205C50.4181 57.2653 49.6531 58.0205 49.196 58.9605C48.9705 59.4138 48.8231 59.902 48.76 60.4045C48.704 60.9045 48.716 61.4125 48.708 61.9125C48.708 62.9205 48.708 63.9125 48.676 64.8805C48.6547 66.8298 48.6347 68.7151 48.616 70.5365C48.536 77.8205 48.468 84.0845 48.412 89.2005C48.356 94.3165 48.304 98.2805 48.272 100.968C48.272 102.308 48.24 103.332 48.232 104.02C48.224 104.708 48.232 105.056 48.232 105.056C48.232 105.056 48.232 104.704 48.232 104.016C48.232 103.328 48.232 102.304 48.232 100.96C48.256 98.2725 48.288 94.3085 48.332 89.1925C48.376 84.0765 48.436 77.8125 48.504 70.5285C48.52 68.7098 48.5373 66.8258 48.556 64.8765C48.556 63.9045 48.556 62.9165 48.584 61.9125C48.584 61.4125 48.584 60.9045 48.632 60.3885C48.7347 59.5997 49.0335 58.8493 49.5009 58.2057C49.9684 57.5622 50.5897 57.046 51.308 56.7045C51.7994 56.4701 52.3268 56.32 52.868 56.2605C53.416 56.2205 53.952 56.2605 54.5 56.2365H61.232H126.08H154.628C155.261 56.2317 155.889 56.3524 156.476 56.5915C157.062 56.8306 157.596 57.1834 158.045 57.6296C158.495 58.0758 158.852 58.6065 159.095 59.1912C159.339 59.776 159.464 60.4031 159.464 61.0365C159.464 61.8685 159.464 62.7045 159.484 63.5405C159.584 76.9245 159.692 90.8125 159.8 105.072V105.048C160.808 109.2 161.884 113.648 162.968 118.124C163.48 120.244 163.992 122.356 164.468 124.312V131.324H161.06L161.164 131.22V149.972C161.164 150.532 161.164 151.092 161.128 151.656C161.072 152.78 160.873 153.891 160.536 154.964C160.36 155.495 160.152 156.015 159.912 156.52C159.788 156.768 159.676 157.024 159.544 157.272L159.104 157.972C159.032 158.092 158.964 158.212 158.884 158.328L158.636 158.66L158.132 159.328L157.572 159.944L157.292 160.252L156.984 160.528L156.372 161.088L155.708 161.572L155.376 161.82L155.024 162.036L154.316 162.464C152.377 163.502 150.215 164.051 148.016 164.064H135.216H87.84H66.796H59.436C58.636 164.064 57.836 164.064 57.036 164.02C53.9194 163.821 50.9775 162.511 48.744 160.328C47.6917 159.29 46.8173 158.086 46.156 156.764C45.5114 155.488 45.0907 154.111 44.912 152.692C44.7843 151.327 44.7415 149.955 44.784 148.584C44.784 147.24 44.784 145.92 44.784 144.628C44.784 139.456 44.784 134.7 44.784 130.392L44.836 130.448H41.5V130.372C41.5 128.239 41.5 126.22 41.5 124.316C43.664 118.076 45.328 113.264 46.456 110.012L47.74 106.32C48.036 105.488 48.188 105.064 48.188 105.064Z" fill="#E9E9EA"/>
<path id="Vector_26" d="M70.7067 97.6121C73.8744 94.1745 73.6556 88.8199 70.218 85.6522C66.7804 82.4845 61.4257 82.7033 58.2581 86.1409C55.0904 89.5785 55.3092 94.9332 58.7468 98.1008C62.1844 101.269 67.539 101.05 70.7067 97.6121Z" fill="#D7D7D7"/>
<path id="Vector_27" d="M72.9482 91.8762C72.9359 91.8318 72.9292 91.7861 72.9282 91.7402C72.9282 91.6362 72.9282 91.5042 72.9002 91.3402C72.8902 91.1226 72.8648 90.9061 72.8242 90.6921C72.7825 90.3993 72.7224 90.1094 72.6442 89.8242C72.4444 89.0354 72.1261 88.2815 71.7002 87.5882C71.1456 86.6664 70.4191 85.8598 69.5602 85.2122C68.522 84.4216 67.3119 83.8871 66.0282 83.6522C64.555 83.3803 63.0359 83.5073 61.6282 84.0201C61.2541 84.156 60.8893 84.3163 60.5362 84.5002C60.18 84.6961 59.8378 84.9166 59.5122 85.1602C59.1782 85.4046 58.8614 85.6719 58.5642 85.9602C58.2777 86.2659 58.0105 86.5892 57.7642 86.9282C57.2442 87.6274 56.8392 88.4052 56.5642 89.2321C55.9936 90.9445 55.9936 92.7958 56.5642 94.5082C56.8392 95.3351 57.2442 96.1129 57.7642 96.8122C58.0083 97.1541 58.2756 97.4789 58.5642 97.7842C58.8634 98.0701 59.18 98.3373 59.5122 98.5842C59.8378 98.8277 60.18 99.0482 60.5362 99.2441C60.8893 99.428 61.2541 99.5883 61.6282 99.7242C63.4598 100.39 65.4657 100.397 67.3024 99.7465C69.1391 99.0956 70.6924 97.8264 71.6962 96.1561C72.1215 95.4625 72.4397 94.7087 72.6402 93.9201C72.7189 93.6336 72.779 93.3424 72.8202 93.0482C72.8612 92.8343 72.8866 92.6177 72.8962 92.4002C72.8962 92.2362 72.9162 92.1002 72.9242 92.0002C72.9247 91.9541 72.9314 91.9084 72.9442 91.8642C72.9487 91.9094 72.9487 91.9549 72.9442 92.0002C72.9442 92.1042 72.9442 92.2362 72.9442 92.4002C72.9444 92.6187 72.9256 92.8368 72.8882 93.0522C72.857 93.3507 72.8022 93.6463 72.7242 93.9362C72.5365 94.7376 72.2262 95.5053 71.8042 96.2122C71.1886 97.2548 70.3585 98.1548 69.369 98.8526C68.3795 99.5505 67.253 100.03 66.0642 100.26C64.5615 100.542 63.0109 100.417 61.5722 99.9002C61.1888 99.7617 60.8147 99.5987 60.4522 99.4122C60.0835 99.2231 59.728 99.0093 59.3882 98.7722C59.0468 98.5173 58.7222 98.2407 58.4162 97.9441C58.1141 97.6343 57.8334 97.3042 57.5762 96.9561C57.0432 96.2403 56.6285 95.4435 56.3482 94.5962C55.7615 92.8412 55.7615 90.9431 56.3482 89.1882C56.6277 88.3404 57.0424 87.5435 57.5762 86.8282C57.8344 86.4796 58.115 86.1483 58.4162 85.8362C58.7222 85.5409 59.0469 85.2657 59.3882 85.0122C59.7232 84.7645 60.0747 84.54 60.4402 84.3402C60.8019 84.1519 61.1761 83.9889 61.5602 83.8522C62.9985 83.3329 64.5496 83.2086 66.0522 83.4921C67.2397 83.7186 68.3654 84.1952 69.3544 84.8905C70.3434 85.5857 71.1731 86.4835 71.7882 87.5242C72.2102 88.231 72.5205 88.9987 72.7082 89.8002C72.7858 90.0888 72.8406 90.383 72.8722 90.6801C72.9097 90.8968 72.9284 91.1163 72.9282 91.3362C72.9282 91.5042 72.9282 91.6362 72.9282 91.7362C72.9395 91.7821 72.9462 91.8289 72.9482 91.8762Z" fill="#E9E9EA"/>
<g id="Group" opacity="0.3">
<path id="Vector_28" d="M41.5479 124.328H164.36L159.696 105.068H48.1919L41.5479 124.328Z" fill="#BBBBBB"/>
</g>
<path id="Vector_29" d="M150.804 79.548H136.688C136.158 79.548 135.649 79.3373 135.274 78.9622C134.899 78.5872 134.688 78.0785 134.688 77.548V63.416C134.688 62.8856 134.899 62.3769 135.274 62.0018C135.649 61.6267 136.158 61.416 136.688 61.416H150.804C151.334 61.416 151.843 61.6267 152.218 62.0018C152.593 62.3769 152.804 62.8856 152.804 63.416V77.532C152.806 77.796 152.756 78.0578 152.656 78.3023C152.557 78.5468 152.41 78.7692 152.224 78.9566C152.038 79.144 151.817 79.2927 151.573 79.3943C151.329 79.4958 151.068 79.548 150.804 79.548ZM136.688 61.8C136.264 61.8 135.857 61.9686 135.557 62.2686C135.257 62.5687 135.088 62.9757 135.088 63.4V77.532C135.088 77.9564 135.257 78.3633 135.557 78.6634C135.857 78.9634 136.264 79.132 136.688 79.132H150.804C151.228 79.132 151.635 78.9634 151.935 78.6634C152.235 78.3633 152.404 77.9564 152.404 77.532V63.416C152.404 62.9917 152.235 62.5847 151.935 62.2846C151.635 61.9846 151.228 61.816 150.804 61.816L136.688 61.8Z" fill="#E9E9EA"/>
<path id="Vector_30" d="M151.599 72.317C152.614 67.9826 149.922 63.6468 145.588 62.6326C141.253 61.6183 136.918 64.3098 135.903 68.6442C134.889 72.9785 137.581 77.3144 141.915 78.3286C146.249 79.3428 150.585 76.6513 151.599 72.317Z" fill="#E9E9EA"/>
<path id="Vector_31" d="M77.6198 65.4043H57.7318C56.2274 65.4043 55.0078 66.6239 55.0078 68.1283V72.8883C55.0078 74.3927 56.2274 75.6123 57.7318 75.6123H77.6198C79.1242 75.6123 80.3438 74.3927 80.3438 72.8883V68.1283C80.3438 66.6239 79.1242 65.4043 77.6198 65.4043Z" fill="#FAFAFA"/>
<path id="Vector_32" d="M77.6202 75.6088C77.8424 75.59 78.063 75.5552 78.2802 75.5048C78.9024 75.3394 79.4454 74.958 79.8122 74.4288C80.0762 74.0513 80.2375 73.6116 80.2802 73.1528C80.3042 72.6488 80.2802 72.0888 80.2802 71.4928C80.2802 70.8968 80.2802 70.2568 80.2802 69.5808C80.2802 69.2448 80.2802 68.8968 80.2802 68.5368C80.2975 68.177 80.2666 67.8165 80.1882 67.4648C80.0912 67.0941 79.9147 66.7489 79.6708 66.4533C79.427 66.1576 79.1217 65.9186 78.7762 65.7528C78.0602 65.3528 77.1762 65.5168 76.3002 65.4888H70.6602H57.7362C57.1881 65.491 56.6543 65.664 56.209 65.9838C55.7638 66.3035 55.4294 66.7541 55.2522 67.2728C55.1197 67.7952 55.0724 68.3355 55.1122 68.8728V72.1128C55.0721 72.628 55.1126 73.1462 55.2322 73.6488C55.3826 74.1185 55.6618 74.5365 56.038 74.8554C56.4142 75.1743 56.8723 75.3813 57.3602 75.4528C57.6005 75.4804 57.8425 75.4898 58.0842 75.4808H60.2482H62.9842H67.9002L75.0162 75.5128H76.9482H77.4522C77.5094 75.5068 77.567 75.5068 77.6242 75.5128H77.4522H76.9482L75.0162 75.5328L67.9002 75.5688H62.9842H58.0802C57.8291 75.5779 57.5776 75.5672 57.3282 75.5368C56.8041 75.4617 56.3116 75.2407 55.907 74.8991C55.5025 74.5575 55.2021 74.109 55.0402 73.6048C54.9604 73.3453 54.916 73.0762 54.9082 72.8048C54.9082 72.5408 54.9082 72.2768 54.9082 72.0048V68.0768C54.9155 67.7871 54.9654 67.5001 55.0562 67.2248C55.2464 66.6647 55.6071 66.1781 56.0876 65.8331C56.5682 65.4881 57.1446 65.302 57.7362 65.3008H70.6602H76.3002H77.6002C78.033 65.2978 78.4605 65.3965 78.8482 65.5888C79.2126 65.7667 79.534 66.0215 79.7902 66.3358C80.0464 66.65 80.2314 67.0161 80.3322 67.4088C80.4102 67.7727 80.4398 68.1453 80.4202 68.5168C80.4202 68.8768 80.4202 69.2248 80.4202 69.5608C80.4202 70.2368 80.4202 70.8768 80.4202 71.4728C80.4202 72.0688 80.4202 72.6208 80.3962 73.1408C80.3458 73.6141 80.1735 74.0661 79.8962 74.4528C79.5115 74.9934 78.9424 75.3746 78.2962 75.5248C78.0768 75.5888 77.8486 75.6171 77.6202 75.6088Z" fill="#E9E9EA"/>
<path id="Vector_33" d="M105.648 104.159C117.785 104.159 127.624 94.32 127.624 82.183C127.624 70.046 117.785 60.207 105.648 60.207C93.5109 60.207 83.6719 70.046 83.6719 82.183C83.6719 94.32 93.5109 104.159 105.648 104.159Z" fill="#E9E9EA"/>
<path id="Vector_34" d="M105.648 104.372C101.262 104.372 96.9743 103.071 93.3274 100.634C89.6805 98.197 86.8382 94.7334 85.1598 90.681C83.4815 86.6286 83.0426 82.1696 83.8986 77.8677C84.7546 73.5659 86.867 69.6145 89.9688 66.5133C93.0706 63.4121 97.0223 61.3004 101.324 60.4452C105.626 59.5899 110.085 60.0297 114.137 61.7087C118.189 63.3878 121.653 66.2308 124.089 69.8781C126.525 73.5255 127.825 77.8134 127.824 82.1995C127.818 88.0787 125.479 93.7151 121.322 97.8719C117.164 102.029 111.527 104.366 105.648 104.372ZM105.648 60.4235C101.341 60.4235 97.1311 61.7007 93.5501 64.0935C89.969 66.4862 87.178 69.8872 85.5298 73.8662C83.8816 77.8453 83.4504 82.2237 84.2906 86.4478C85.1308 90.672 87.2048 94.5521 90.2502 97.5975C93.2956 100.643 97.1758 102.717 101.4 103.557C105.624 104.397 110.002 103.966 113.981 102.318C117.961 100.67 121.361 97.8787 123.754 94.2976C126.147 90.7166 127.424 86.5064 127.424 82.1995C127.422 76.4234 125.128 70.8841 121.045 66.7983C116.962 62.7124 111.424 60.4139 105.648 60.4075V60.4235Z" fill="#D7D7D7"/>
<path id="Vector_35" d="M105.648 102.156C101.618 102.153 97.6795 100.954 94.3306 98.7118C90.9817 96.4699 88.3726 93.2853 86.8333 89.5608C85.294 85.8363 84.8935 81.7389 85.6824 77.7868C86.4714 73.8347 88.4144 70.2052 91.2657 67.3572C94.1171 64.5091 97.7489 62.5704 101.702 61.7861C105.655 61.0018 109.752 61.4072 113.475 62.9509C117.197 64.4946 120.379 67.1074 122.617 70.459C124.855 73.8105 126.049 77.7504 126.048 81.7805C126.042 87.1867 123.89 92.3694 120.065 96.19C116.24 100.011 111.054 102.156 105.648 102.156ZM105.648 61.8005C101.698 61.8044 97.838 62.9791 94.5553 65.1761C91.2727 67.373 88.7149 70.4937 87.2052 74.1437C85.6954 77.7938 85.3014 81.8094 86.073 85.6833C86.8446 89.5572 88.7471 93.1154 91.5401 95.9085C94.3332 98.7015 97.8914 100.604 101.765 101.376C105.639 102.147 109.655 101.753 113.305 100.243C116.955 98.7337 120.076 96.1759 122.273 92.8932C124.469 89.6106 125.644 85.7505 125.648 81.8005C125.648 76.4962 123.541 71.4091 119.79 67.6583C116.04 63.9076 110.952 61.8005 105.648 61.8005Z" fill="#D7D7D7"/>
<path id="Vector_36" d="M105.648 98.3602C114.679 98.3602 122 91.0392 122 82.0082C122 72.9773 114.679 65.6562 105.648 65.6562C96.6169 65.6562 89.2959 72.9773 89.2959 82.0082C89.2959 91.0392 96.6169 98.3602 105.648 98.3602Z" fill="#D7D7D7"/>
<path id="Vector_37" d="M69.1358 96.1552C71.4929 93.5838 71.3191 89.5885 68.7477 87.2314C66.1764 84.8744 62.1811 85.0481 59.824 87.6195C57.4669 90.1909 57.6407 94.1862 60.2121 96.5432C62.7834 98.9003 66.7787 98.7265 69.1358 96.1552Z" fill="#E9E9EA"/>
<path id="Vector_38" d="M70.7999 91.8762C70.7553 91.3606 70.6751 90.8487 70.5599 90.3442C70.4105 89.7572 70.1732 89.1961 69.8559 88.6802C69.4395 87.9947 68.8965 87.3947 68.2559 86.9122C67.4821 86.3271 66.5821 85.9312 65.6279 85.7562C64.5333 85.5577 63.4056 85.6529 62.3599 86.0322C61.7958 86.2332 61.2657 86.5192 60.7879 86.8802C60.5413 87.0658 60.3062 87.2662 60.0839 87.4802C59.8653 87.7078 59.6622 87.9496 59.4759 88.2042C58.6911 89.2676 58.2676 90.5545 58.2676 91.8762C58.2676 93.1979 58.6911 94.4848 59.4759 95.5482C59.661 95.8024 59.8642 96.0431 60.0839 96.2682C60.3043 96.4843 60.5395 96.6848 60.7879 96.8682C61.2647 97.2307 61.795 97.5168 62.3599 97.7162C63.7217 98.2105 65.2128 98.2172 66.5791 97.735C67.9453 97.2529 69.1019 96.3118 69.8519 95.0722C70.1687 94.556 70.4061 93.9951 70.5559 93.4082C70.6711 92.9037 70.7513 92.3918 70.7959 91.8762C70.7959 91.8762 70.7959 91.9122 70.7959 91.9762C70.7959 92.0402 70.7959 92.1562 70.7959 92.2802C70.7961 92.4437 70.7827 92.6069 70.7559 92.7682C70.7308 92.9906 70.6907 93.2112 70.6359 93.4282C70.4956 94.0276 70.2649 94.6022 69.9519 95.1322C69.4918 95.9126 68.8713 96.5864 68.1314 97.109C67.3915 97.6317 66.5491 97.9914 65.6599 98.1642C64.5348 98.3794 63.3726 98.2868 62.2959 97.8962C61.7119 97.6919 61.1629 97.3992 60.6679 97.0282C60.4114 96.8397 60.1682 96.6339 59.9399 96.4122C59.7134 96.1781 59.5023 95.9296 59.3079 95.6682C58.4958 94.5677 58.0576 93.2359 58.0576 91.8682C58.0576 90.5005 58.4958 89.1687 59.3079 88.0682C59.4997 87.8072 59.7096 87.56 59.9359 87.3282C60.1652 87.1064 60.4083 86.8993 60.6639 86.7082C61.1589 86.3372 61.7079 86.0445 62.2919 85.8402C63.3694 85.4529 64.5311 85.3617 65.6559 85.5762C66.5458 85.7471 67.389 86.106 68.1292 86.6288C68.8693 87.1517 69.4894 87.8265 69.9479 88.6082C70.2615 89.1379 70.4922 89.7126 70.6319 90.3122C70.6867 90.5293 70.7268 90.7498 70.7519 90.9722C70.7787 91.1335 70.7921 91.2967 70.7919 91.4602C70.7919 91.5802 70.7919 91.6802 70.7919 91.7602C70.7919 91.8402 70.7999 91.8762 70.7999 91.8762Z" fill="#E9E9EA"/>
<path id="Vector_39" d="M67.1761 87.3047C66.8211 87.1324 66.455 86.984 66.0801 86.8607C65.047 86.5508 63.9445 86.5592 62.9161 86.8847C62.1614 87.1289 61.4718 87.5407 60.8989 88.0894C60.326 88.638 59.8847 89.3092 59.6081 90.0527C59.4484 90.4799 59.3462 90.9265 59.3041 91.3807C59.2618 91.8547 59.2833 92.3323 59.3681 92.8007C59.5469 93.789 60.0081 94.7043 60.696 95.4362C61.3838 96.168 62.2688 96.685 63.2441 96.9247C64.1539 97.1474 65.1065 97.1239 66.0041 96.8567C66.8127 96.6064 67.5503 96.1677 68.1561 95.5767C68.6796 95.058 69.0884 94.4352 69.3561 93.7487C69.7462 92.7431 69.8242 91.6433 69.5801 90.5927C69.5119 90.3081 69.4237 90.0288 69.3161 89.7567C69.2718 89.6636 69.2343 89.5673 69.2041 89.4687C69.2203 89.4903 69.235 89.5131 69.2481 89.5367C69.2721 89.5807 69.3081 89.6487 69.3521 89.7407C69.4812 90.0075 69.5843 90.2861 69.6601 90.5727C69.9382 91.6403 69.8795 92.7677 69.4921 93.8007C69.2232 94.5125 68.8075 95.1598 68.2721 95.7007C67.6486 96.3167 66.8877 96.7759 66.0521 97.0407C65.122 97.3239 64.1327 97.3516 63.1881 97.1207C62.1719 96.8772 61.2496 96.3403 60.5361 95.5767C59.8213 94.8157 59.342 93.8641 59.1561 92.8367C59.0727 92.3493 59.0525 91.8532 59.0961 91.3607C59.2318 90.006 59.8748 88.7528 60.8961 87.8527C61.4646 87.3457 62.1359 86.9677 62.8641 86.7447C63.9193 86.4222 65.0484 86.4348 66.0961 86.7807C66.3737 86.8749 66.6415 86.9955 66.8961 87.1407L67.0961 87.2567L67.1761 87.3047Z" fill="#E9E9EA"/>
<path id="Vector_40" d="M159.696 105.065C159.696 105.125 134.732 105.173 103.948 105.173C73.164 105.173 48.188 105.125 48.188 105.065C48.188 105.005 73.144 104.961 103.944 104.961C134.744 104.961 159.696 105.009 159.696 105.065Z" fill="#E9E9EA"/>
<path id="Vector_41" d="M163.14 131.236H162.832H161.932H158.472H145.748C135.004 131.196 120.148 131.06 103.772 130.872C87.3958 130.684 72.5278 130.524 61.7718 130.452L49.0518 130.372L45.5918 130.348H49.0518H61.7758C72.5198 130.384 87.3758 130.52 103.776 130.708C120.176 130.896 135.008 131.056 145.752 131.132L158.476 131.212L161.936 131.236H162.836H163.14Z" fill="#E9E9EA"/>
<path id="Vector_42" d="M150.864 148.721H55.0439V153.905H150.864V148.721Z" fill="#E9E9EA"/>
<path id="Vector_43" d="M57.1678 151.312L50.1558 170.392H156.704L148.612 151.312H57.1678Z" fill="white"/>
<path id="Vector_44" d="M57.1678 151.312C57.1678 151.312 57.3158 151.312 57.6118 151.312H58.9318H64.0518L83.1598 151.284L148.612 151.24H148.68L148.704 151.304C151.308 157.436 154.02 163.832 156.8 170.384L156.86 170.528H149.356L50.1558 170.484H50.0718L50.0998 170.404L55.2998 156.34L56.6838 152.616C56.8398 152.216 56.9598 151.88 57.0398 151.66C57.1198 151.44 57.1638 151.344 57.1638 151.344C57.1638 151.344 57.1278 151.456 57.0518 151.676L56.7038 152.64L55.3478 156.372C54.1478 159.64 52.4118 164.408 50.2118 170.432L50.1598 170.356L149.36 170.308H156.708L156.612 170.452C153.832 163.9 151.124 157.504 148.524 151.372L148.616 151.432L83.2198 151.388L64.0918 151.36H58.9558H57.6278L57.1678 151.312Z" fill="#E9E9EA"/>
<g id="Group_2" opacity="0.3">
<path id="Vector_45" d="M116.128 89.5729C115.928 87.5169 114.128 86.7729 112.436 86.5569C108.872 86.0569 104.836 87.0769 101.908 84.9969C100.974 84.3096 100.26 83.3653 99.854 82.2793C99.4477 81.1932 99.3664 80.0124 99.6199 78.8809C100.02 77.1649 101.22 75.2809 100.056 73.8329C99.8297 73.5639 99.5492 73.3458 99.2328 73.1928C98.9164 73.0398 98.5712 72.9553 98.2199 72.9449C97.5524 72.9272 96.8898 73.0641 96.2839 73.3449C94.9747 73.9226 93.91 74.942 93.2759 76.2249C91.8005 79.2618 91.5304 82.7448 92.5199 85.9729C93.1243 87.9851 94.1732 89.8358 95.5891 91.388C97.005 92.9403 98.7516 94.1545 100.7 94.9409C102.66 95.697 104.762 96.0171 106.858 95.879C108.955 95.7408 110.996 95.1477 112.84 94.1409C114.228 93.3769 115.536 92.3369 116.004 90.7449C116.119 90.3655 116.161 89.9679 116.128 89.5729Z" fill="white"/>
</g>
<g id="Group_3" opacity="0.3">
<path id="Vector_46" d="M107.136 70.7404C107.137 71.0722 107.039 71.3968 106.855 71.673C106.672 71.9492 106.41 72.1647 106.103 72.292C105.797 72.4194 105.46 72.4529 105.134 72.3883C104.809 72.3238 104.51 72.1641 104.275 71.9295C104.04 71.6948 103.881 71.3958 103.816 71.0703C103.752 70.7449 103.785 70.4075 103.913 70.1011C104.04 69.7947 104.255 69.533 104.532 69.3492C104.808 69.1653 105.132 69.0676 105.464 69.0684C105.908 69.0684 106.333 69.2445 106.646 69.5581C106.96 69.8716 107.136 70.2969 107.136 70.7404Z" fill="white"/>
</g>
<path id="Vector_47" d="M99.872 96.4604C99.7746 96.4326 99.6806 96.3936 99.592 96.3444C99.416 96.2564 99.144 96.1484 98.82 95.9444C97.8846 95.4351 97.0051 94.8291 96.196 94.1364C94.9923 93.1088 93.9452 91.9108 93.088 90.5804C90.9373 87.3031 90.1096 83.332 90.772 79.4684C91.0245 77.9131 91.5015 76.4026 92.188 74.9844C92.6519 74.0267 93.2149 73.1204 93.868 72.2804C94.092 71.9804 94.3 71.7724 94.428 71.6204C94.4918 71.542 94.5613 71.4684 94.636 71.4004C94.5845 71.4879 94.5256 71.5708 94.46 71.6484C94.344 71.8084 94.148 72.0204 93.936 72.3324C93.3149 73.183 92.7789 74.0927 92.336 75.0484C91.6672 76.4644 91.2052 77.9691 90.964 79.5164C90.3288 83.3324 91.145 87.248 93.252 90.4924C94.0921 91.8131 95.1157 93.0078 96.292 94.0404C97.0861 94.7382 97.9462 95.3571 98.86 95.8884C99.176 96.0884 99.444 96.2044 99.612 96.2884C99.7042 96.3369 99.7914 96.3945 99.872 96.4604Z" fill="white"/>
<path id="Vector_48" d="M106.656 97.5249C106.096 97.5961 105.529 97.5961 104.968 97.5249C104.402 97.527 103.838 97.4612 103.288 97.3289C103.85 97.2576 104.418 97.2576 104.98 97.3289C105.545 97.3269 106.107 97.3927 106.656 97.5249Z" fill="white"/>
<path id="Vector_49" d="M120.892 84.2274C120.848 84.2274 121.032 83.4274 121.092 82.1594C121.092 81.8354 121.112 81.4874 121.092 81.1114C121.072 80.7354 121.044 80.3314 121.004 79.9114C120.784 78.0861 120.213 76.3205 119.324 74.7114C119.108 74.3474 118.924 73.9914 118.696 73.6874C118.468 73.3834 118.296 73.0914 118.08 72.8354C117.28 71.8314 116.68 71.3074 116.708 71.2754C116.865 71.3778 117.009 71.4972 117.14 71.6314C117.306 71.7751 117.464 71.9287 117.612 72.0914C117.788 72.2834 118.012 72.4914 118.196 72.7434C118.423 73.0138 118.637 73.2955 118.836 73.5874C119.064 73.8954 119.268 74.2514 119.492 74.6154C120.412 76.2426 120.991 78.0407 121.192 79.8994C121.236 80.2979 121.26 80.6984 121.264 81.0994C121.275 81.453 121.266 81.8069 121.236 82.1594C121.221 82.4502 121.19 82.7399 121.144 83.0274C121.119 83.2454 121.082 83.4618 121.032 83.6754C121.001 83.863 120.954 84.0477 120.892 84.2274Z" fill="white"/>
<g id="Group_4" opacity="0.3">
<path id="Vector_50" d="M44.8521 130.389V135.853H161.056V131.213L44.8521 130.389Z" fill="#BBBBBB"/>
</g>
<path id="Vector_51" d="M60.2918 151.312L54.8198 168.02H152.04L145.704 151.312H60.2918Z" fill="#D7D7D7"/>
<path id="Vector_52" d="M149.04 151.311C149.04 151.367 128.368 151.415 102.88 151.415C77.3918 151.415 56.7158 151.367 56.7158 151.311C56.7158 151.255 77.3798 151.207 102.88 151.207C128.38 151.207 149.04 151.251 149.04 151.311Z" fill="#E9E9EA"/>
<path id="Vector_53" d="M148.056 68.16L155.144 70.116L149.908 71.396C147.232 71.824 146.036 72.972 145.552 74.464L143.916 87.664L141.916 74.464C141.669 73.8491 141.296 73.2932 140.819 72.8327C140.343 72.3723 139.775 72.0176 139.152 71.792L132.352 70.132L139.528 68.1C140.12 67.8565 140.657 67.4946 141.105 67.0365C141.552 66.5784 141.902 66.0338 142.132 65.436L143.92 50.5L145.204 65.112C145.413 65.8054 145.778 66.4413 146.273 66.97C146.768 67.4987 147.378 67.906 148.056 68.16Z" fill="white"/>
<path id="Vector_54" d="M151.708 86.2959L153.36 86.7519L152.14 87.0519C151.516 87.1519 151.24 87.4199 151.124 87.7639L150.744 90.8359L150.276 87.7599C150.219 87.6167 150.132 87.4873 150.021 87.3804C149.91 87.2735 149.777 87.1915 149.632 87.1399L148.052 86.7399L149.724 86.2679C149.861 86.2103 149.985 86.1258 150.089 86.0193C150.193 85.9128 150.274 85.7865 150.328 85.6479L150.728 82.1719L151.028 85.5719C151.076 85.7377 151.162 85.8898 151.281 86.0157C151.399 86.1415 151.545 86.2375 151.708 86.2959Z" fill="white"/>
</g>
</g>
</svg>
