<svg xmlns="http://www.w3.org/2000/svg" width="150" height="100" viewBox="0 0 150 100" fill="none">
  <path d="M43.9763 24.4519L21.5361 39.4629L43.6396 72.5056L66.0797 57.4945L43.9763 24.4519Z" fill="#F5F5F5"/>
  <path d="M54.4832 55.9322L54.2292 57.5082L43.0732 55.9002L43.3272 54.3242L54.4832 55.9322Z" fill="#E0E0E0"/>
  <path d="M48.8658 50.3105L50.4658 50.5405L48.6918 61.5245L47.0898 61.2925L48.8658 50.3105Z" fill="#E0E0E0"/>
  <path d="M38.6001 36.3499C38.6161 36.3719 36.3681 37.9059 33.5781 39.7699C30.7881 41.6339 28.5141 43.1299 28.4981 43.1059C28.4821 43.0819 30.7301 41.5499 33.5201 39.6839C36.3101 37.8179 38.5741 36.3259 38.6001 36.3499Z" fill="#E0E0E0"/>
  <path d="M46.8441 34.2775C46.8601 34.3015 43.1201 36.8295 38.4921 39.9255C33.8641 43.0215 30.0921 45.5115 30.0801 45.4895C30.0681 45.4675 33.8001 42.9355 38.4341 39.8395C43.0681 36.7435 46.8281 34.2535 46.8441 34.2775Z" fill="#E0E0E0"/>
  <path d="M48.4974 36.7502C48.5134 36.7742 44.7734 39.3042 40.1454 42.4002C35.5174 45.4962 31.7454 47.9862 31.7334 47.9622C31.7214 47.9382 35.4574 45.4102 40.0874 42.3122C44.7174 39.2142 48.4814 36.7262 48.4974 36.7502Z" fill="#E0E0E0"/>
  <path d="M50.1514 39.2248C50.1674 39.2488 46.4274 41.7788 41.7994 44.8728C37.1714 47.9668 33.3994 50.4608 33.3994 50.4368C33.3994 50.4128 37.1214 47.8828 41.7514 44.7868C46.3814 41.6908 50.1354 39.2008 50.1514 39.2248Z" fill="#E0E0E0"/>
  <path d="M51.8001 41.6974C51.8161 41.7214 48.0761 44.2494 43.4481 47.3454C38.8201 50.4414 35.0481 52.9314 35.0381 52.9074C35.0281 52.8834 38.7661 50.3554 43.4001 47.2594C48.0341 44.1634 51.8001 41.6734 51.8001 41.6974Z" fill="#E0E0E0"/>
  <path d="M119.013 46.5924L100.167 59.1992L118.73 86.9489L137.576 74.3421L119.013 46.5924Z" fill="#F5F5F5"/>
  <path d="M127.84 73.0355L127.626 74.3595L118.256 73.0095L118.472 71.6855L127.84 73.0355Z" fill="#E0E0E0"/>
  <path d="M123.122 68.3145L124.466 68.5085L122.976 77.7325L121.63 77.5385L123.122 68.3145Z" fill="#E0E0E0"/>
  <path d="M114.492 56.6003C114.508 56.6243 112.622 57.9143 110.278 59.4803C107.934 61.0463 106.022 62.2983 106.006 62.2803C105.99 62.2623 107.878 60.9683 110.22 59.4003C112.562 57.8323 114.476 56.5663 114.492 56.6003Z" fill="#E0E0E0"/>
  <path d="M121.422 54.8498C121.438 54.8738 118.3 57.0018 114.422 59.5998C110.544 62.1978 107.37 64.2898 107.354 64.2658C107.338 64.2418 110.476 62.1138 114.354 59.5138C118.232 56.9138 121.4 54.8258 121.422 54.8498Z" fill="#E0E0E0"/>
  <path d="M122.811 56.926C122.827 56.95 119.689 59.078 115.811 61.678C111.933 64.278 108.759 66.366 108.743 66.342C108.727 66.318 111.855 64.2 115.743 61.6C119.631 59 122.799 56.904 122.811 56.926Z" fill="#E0E0E0"/>
  <path d="M124.2 59.0001C124.216 59.0241 121.076 61.1521 117.2 63.7521C113.324 66.3521 110.148 68.4401 110.132 68.4161C110.116 68.3921 113.254 66.2661 117.132 63.6641C121.01 61.0621 124.186 58.9801 124.2 59.0001Z" fill="#E0E0E0"/>
  <path d="M125.599 61.0822C125.615 61.1062 122.477 63.2322 118.599 65.8322C114.721 68.4322 111.547 70.5202 111.531 70.4982C111.515 70.4762 114.653 68.3462 118.531 65.7462C122.409 63.1462 125.573 61.0582 125.599 61.0822Z" fill="#E0E0E0"/>
  <path d="M89.1983 25.6683L68.6348 14.6699L52.44 44.9491L73.0035 55.9475L89.1983 25.6683Z" fill="#F5F5F5"/>
  <path d="M69.4842 46.4744L68.1802 46.9204L64.8682 37.7664L66.1742 37.3184L69.4842 46.4744Z" fill="#E0E0E0"/>
  <path d="M71.4836 39.9062L71.9596 41.2203L62.8676 44.3342L62.3916 43.0203L71.4836 39.9062Z" fill="#E0E0E0"/>
  <path d="M77.9436 26.3998C77.9276 26.4298 75.8436 25.3458 73.2856 23.9798C70.7276 22.6138 68.6696 21.4798 68.6856 21.4498C68.7016 21.4198 70.7876 22.5038 73.3456 23.8698C75.9036 25.2358 77.9596 26.3678 77.9436 26.3998Z" fill="#E0E0E0"/>
  <path d="M82.8796 31.8453C82.8636 31.8753 79.4116 30.0593 75.1696 27.7913C70.9276 25.5233 67.5036 23.6593 67.5196 23.6293C67.5356 23.5993 70.9856 25.4133 75.2276 27.6833C79.4696 29.9533 82.8956 31.8153 82.8796 31.8453Z" fill="#E0E0E0"/>
  <path d="M81.6677 34.1129C81.6517 34.1429 78.1997 32.3289 73.9577 30.0589C69.7157 27.7889 66.2917 25.9269 66.3077 25.8969C66.3237 25.8669 69.7737 27.6829 74.0157 29.9509C78.2577 32.2189 81.6837 34.0829 81.6677 34.1129Z" fill="#E0E0E0"/>
  <path d="M80.4558 36.3786C80.4398 36.4086 76.9878 34.5946 72.7458 32.3266C68.5038 30.0586 65.0798 28.2006 65.0958 28.1646C65.1118 28.1286 68.5618 29.9486 72.8038 32.2166C77.0458 34.4846 80.4718 36.3486 80.4558 36.3786Z" fill="#E0E0E0"/>
  <path d="M79.2439 38.6441C79.2279 38.6741 75.7759 36.8601 71.5339 34.5921C67.2919 32.3241 63.8659 30.4601 63.8839 30.4301C63.9019 30.4001 67.3499 32.2141 71.5919 34.4821C75.8339 36.7501 79.2599 38.6141 79.2439 38.6441Z" fill="#E0E0E0"/>
  <path opacity="0.2" d="M79.35 0H78.834V8.796H79.35V0Z" fill="black"/>
  <path d="M67.0459 19.4388H91.1379C91.1379 19.4388 88.9139 8.80078 78.9099 8.80078C70.0119 8.80078 67.0459 19.4388 67.0459 19.4388Z" fill="#E9E9EA"/>
  <path d="M79.35 0H78.834V8.796H79.35V0Z" fill="#E9E9EA"/>
  <path d="M132.734 87.9661C132.734 87.9941 106.884 88.0181 75.0016 88.0181C43.1196 88.0181 17.2656 88.0001 17.2656 87.9661C17.2656 87.9321 43.1116 87.9141 75.0016 87.9141C106.892 87.9141 132.734 87.9361 132.734 87.9661Z" fill="#4C4F54"/>
  <path d="M23.6584 75.4395C23.9965 75.4639 24.3263 75.5562 24.628 75.7108C24.9297 75.8654 25.1971 76.0792 25.4144 76.3395C25.8463 76.8631 26.1522 77.4789 26.3084 78.1395C26.6464 79.4035 26.4384 80.8975 26.0784 82.1555C24.7104 81.6655 23.8644 80.2055 23.4784 79.4375C22.8784 78.2255 22.5204 75.6655 23.6524 75.4375" fill="#E9E9EA"/>
  <path d="M28.0488 83.6902C27.8434 83.3716 27.7259 83.0044 27.7084 82.6257C27.6908 82.247 27.7738 81.8704 27.9488 81.5342C28.1294 81.2012 28.3744 80.9074 28.6698 80.6701C28.9651 80.4329 29.3047 80.2568 29.6688 80.1522C30.0028 80.0482 30.3908 80.0062 30.6808 80.2002C30.8115 80.2991 30.9134 80.4312 30.9756 80.5828C31.0379 80.7345 31.0583 80.9 31.0348 81.0622C30.9823 81.3872 30.8443 81.6923 30.6348 81.9462C29.9688 82.8482 29.1608 83.5982 28.0348 83.6902" fill="#E9E9EA"/>
  <path d="M28.2005 87.9158C28.1708 87.8308 28.15 87.743 28.1385 87.6538C28.1025 87.4658 28.0545 87.2238 27.9965 86.9338C27.817 86.1397 27.767 85.3218 27.8485 84.5118C27.9428 83.6978 28.2528 82.9238 28.7465 82.2698C28.8973 82.0742 29.0713 81.8976 29.2645 81.7438C29.317 81.7022 29.3717 81.6634 29.4285 81.6278C29.4465 81.6128 29.4668 81.6007 29.4885 81.5918C29.2355 81.8079 29.0044 82.0484 28.7985 82.3098C28.3308 82.9645 28.0364 83.7268 27.9425 84.5258C27.8145 85.4578 27.9725 86.3118 28.0645 86.9258C28.1125 87.2318 28.1525 87.4798 28.1745 87.6518C28.1903 87.739 28.1989 87.8272 28.2005 87.9158Z" fill="#4C4F54"/>
  <path d="M24.0986 77.3652C24.1215 77.3968 24.1403 77.431 24.1546 77.4672C24.1906 77.5472 24.2386 77.6472 24.2946 77.7732C24.4166 78.0392 24.5866 78.4252 24.7926 78.9032C25.2046 79.8612 25.7566 81.1932 26.3326 82.6772C26.9086 84.1612 27.3986 85.5152 27.7326 86.5012C27.9046 86.9932 28.0386 87.3932 28.1326 87.6712C28.1746 87.8032 28.2066 87.9092 28.2326 87.9912C28.2469 88.028 28.257 88.0662 28.2626 88.1052C28.2424 88.0713 28.2262 88.035 28.2146 87.9972C28.1846 87.9172 28.1466 87.8132 28.0966 87.6832L27.6746 86.5232C27.3166 85.5452 26.8166 84.1932 26.2426 82.7112C25.6686 81.2292 25.1246 79.8932 24.7286 78.9292C24.5286 78.4552 24.3746 78.0692 24.2606 77.7872C24.2086 77.6592 24.1666 77.5572 24.1346 77.4752C24.1196 77.4396 24.1076 77.4028 24.0986 77.3652Z" fill="#4C4F54"/>
  <path d="M26.5745 85.1191C26.1629 84.434 25.5942 83.8566 24.9154 83.4347C24.2365 83.0129 23.467 82.7587 22.6705 82.6931C22.2705 82.6651 21.7785 82.7331 21.5985 83.0931C21.4185 83.4531 21.6585 83.8931 21.9345 84.1851C22.5209 84.7986 23.2758 85.2247 24.104 85.4098C24.9322 85.5949 25.7967 85.5306 26.5885 85.2251" fill="#E9E9EA"/>
  <path d="M23.2861 83.7772C23.3709 83.7729 23.4559 83.7763 23.5401 83.7872C23.6387 83.7925 23.7369 83.8038 23.8341 83.8211C23.9481 83.8431 24.0821 83.8552 24.2221 83.8952C24.3786 83.9283 24.5329 83.971 24.6841 84.0231C24.8593 84.0794 25.031 84.1462 25.1981 84.2231C25.5826 84.3954 25.9463 84.6108 26.2821 84.8651C26.6141 85.1255 26.9148 85.4235 27.1781 85.7531C27.2919 85.8966 27.3967 86.0469 27.4921 86.2031C27.5784 86.3381 27.6572 86.4776 27.7281 86.6211C27.7882 86.738 27.8416 86.8582 27.8881 86.9812C27.9282 87.0721 27.9623 87.1657 27.9901 87.2611C28.0198 87.3409 28.0419 87.4233 28.0561 87.5072C28.0341 87.5072 27.9381 87.1632 27.6681 86.6512C27.5946 86.5136 27.5138 86.3801 27.4261 86.2512C27.3287 86.0996 27.2232 85.9534 27.1101 85.8132C26.587 85.1667 25.9199 84.6517 25.1621 84.3091C24.9881 84.2331 24.8221 84.1611 24.6601 84.1091C24.5114 84.055 24.3599 84.0089 24.2061 83.9711C23.6461 83.8171 23.2841 83.7992 23.2861 83.7772Z" fill="#4C4F54"/>
  <path d="M59.7998 46.909L52.7198 83.269L51.7998 88.029L98.9998 87.801C101.12 87.791 103 85.909 103.678 83.113L112.05 48.787C112.568 46.665 111.432 44.457 109.824 44.459L62.0398 44.509C60.9998 44.507 60.0678 45.491 59.7998 46.909Z" fill="#E9E9EA"/>
  <g opacity="0.5">
    <path d="M59.7998 46.909L52.7198 83.269L51.7998 88.029L98.9998 87.801C101.12 87.791 103 85.909 103.678 83.113L112.05 48.787C112.568 46.665 111.432 44.457 109.824 44.459L62.0398 44.509C60.9998 44.507 60.0678 45.491 59.7998 46.909Z" fill="#D0D0D0"/>
  </g>
  <path d="M94.478 80.8006L89.478 40.5186C89.278 38.8686 87.96 37.6366 86.406 37.6426L75.446 37.6766C75.0387 37.6812 74.6366 37.7687 74.2642 37.9337C73.8918 38.0988 73.5569 38.3379 73.28 38.6366L68.08 44.1706L37.6 44.3346C35.738 44.3446 34.306 46.1086 34.552 48.0886L39.194 85.3186C39.394 86.9666 40.712 88.1966 42.262 88.1946L95.392 88.0886C101.308 88.2106 101.874 86.4646 101.874 86.4646C95.082 87.9666 94.478 80.8106 94.478 80.8006Z" fill="#E9E9EA"/>
  <g opacity="0.5">
    <path d="M71.5676 72.7441L69.7756 74.6681L55.9756 62.2521L57.7676 60.3281L71.5676 72.7441Z" fill="white"/>
    <path d="M69.0251 59.9023L71.0051 61.6843L58.5191 75.0943L56.5371 73.3123L69.0251 59.9023Z" fill="white"/>
  </g>
</svg>