<svg width="140" height="162" viewBox="0 0 140 162" fill="none" xmlns="http://www.w3.org/2000/svg">
<g id="Group 1000002807">
<path id="Vector" d="M78.8979 0C78.8979 0 54.8422 1.37938 52.902 5.59328C52.902 5.59328 52.5837 23.2978 69.5757 41.1386L66.2562 48.3841V60.1922C74.1534 44.8523 83.0057 21.3424 83.0057 21.3424C83.0057 21.3424 83.3695 4.85054 78.8979 0Z" fill="#FBBA2D"/>
<g id="Group" opacity="0.3">
<path id="Vector_2" d="M78.0491 1.5625C78.0491 1.5625 69.6364 23.3748 74.7901 39.0784C74.7901 39.0784 86.3253 19.7975 78.0491 1.5625Z" fill="#4777CF"/>
</g>
<path id="Vector_3" d="M115.868 29.362C115.868 29.362 104.712 8.00446 100.074 7.95898C100.074 7.95898 83.8091 14.962 74.5476 37.8201H66.5594C66.5594 37.8201 62.3 19.4639 40.9273 9.38383C40.9273 9.38383 28.801 31.3629 28.3159 31.1506C35.838 38.0598 45.5492 42.1052 55.7518 42.5797C72.9863 43.4892 98.0424 41.8673 98.0424 41.8673C98.0424 41.8673 113.352 35.4403 115.868 29.362Z" fill="#FBBA2D"/>
<g id="Group_2" opacity="0.3">
<path id="Vector_4" d="M62.4055 40.7142C62.4055 40.7142 44.3676 30.3007 29.7856 31.2708C29.7856 31.2708 46.6564 45.5041 62.4055 40.7142Z" fill="#4777CF"/>
</g>
<g id="Group_3" opacity="0.3">
<path id="Vector_5" d="M114.095 29.2246C114.095 29.2246 90.7668 30.5434 78.5647 41.6844C78.5647 41.6844 100.877 44.2764 114.095 29.2246Z" fill="#4777CF"/>
</g>
<path id="Vector_6" d="M139.408 40.7305L138.62 161.721L0.773682 161.918V40.973L139.408 40.7305Z" fill="#4777CF"/>
<path id="Vector_7" d="M52.9318 40.9251C52.8026 41.1516 52.6446 41.3605 52.4619 41.5466C52.0678 42.0014 51.5827 42.5471 50.9461 43.2292C49.5667 44.745 47.7175 46.8064 45.4741 49.2923C40.8358 54.4157 34.3785 61.4187 27.2088 69.1644C20.0391 76.9101 13.5666 83.8675 8.76158 88.8697L3.10766 94.7812L1.59187 96.297C1.22808 96.6608 1.03105 96.8276 1.00073 96.8125C1.13747 96.591 1.2948 96.3829 1.47062 96.191C1.86473 95.7362 2.34978 95.1905 2.98642 94.5084C4.36579 92.9926 6.21503 90.9311 8.45841 88.4452C13.1119 83.3219 19.5692 76.3189 26.7389 68.5732C33.9086 60.8275 40.381 53.87 45.1709 48.8679C47.5052 46.4427 49.4151 44.4418 50.8248 42.9563L52.3406 41.4405C52.7196 41.0768 52.9167 40.8948 52.9318 40.9251Z" fill="white"/>
<path id="Vector_8" d="M26.7241 40.8047C26.4788 41.2447 26.1726 41.6478 25.8146 42.0022C25.178 42.7449 24.2988 43.806 23.0862 45.0338C20.7519 47.6258 17.4929 51.0969 13.8702 55.0228C10.2474 58.9487 7.00364 62.4502 4.60869 64.9664C3.39605 66.2245 2.42591 67.2401 1.72864 67.9222C1.03138 68.6043 0.637271 68.9681 0.591797 68.9226C0.849888 68.4865 1.15486 68.0799 1.50128 67.71C2.12276 66.9673 3.0171 65.8911 4.18426 64.5875C6.48827 61.9803 9.68659 58.403 13.279 54.4923C16.8715 50.5815 20.2365 47.1407 22.6618 44.6548C23.8744 43.4119 24.8748 42.4114 25.5721 41.7445C25.9123 41.3811 26.2998 41.065 26.7241 40.8047Z" fill="white"/>
<path id="Vector_9" d="M80.4138 40.9258C80.1845 41.2524 79.9312 41.5615 79.6559 41.8504L77.3974 44.397L68.9847 53.6433L41.0032 83.9592L12.8549 114.184C9.26251 117.974 6.33701 121.066 4.26037 123.279C3.27511 124.294 2.48689 125.113 1.88057 125.719C1.622 126.022 1.33245 126.296 1.0166 126.538C1.24587 126.211 1.49921 125.902 1.7745 125.613L4.03301 123.067L12.4456 113.805L40.4272 83.4893C51.4016 71.7267 61.33 61.0858 68.5754 53.2947L77.17 44.1999L79.5498 41.7443C79.8042 41.4381 80.0942 41.1633 80.4138 40.9258Z" fill="white"/>
<path id="Vector_10" d="M108.001 40.9267C107.594 41.2817 107.209 41.6613 106.849 42.0635L103.681 45.4892C100.953 48.5208 97.0419 52.9469 92.252 58.3128L54.7816 100.891C40.1693 117.565 26.9365 132.541 17.3263 143.485L5.92759 156.354L2.80506 159.825L1.97134 160.72L1.66821 161.008C1.66821 161.008 1.74401 160.887 1.91075 160.659L2.68377 159.719L5.71535 156.157L16.9171 143.121C26.4059 132.132 39.5782 117.004 54.1904 100.361C68.8027 83.7175 82.1113 68.7263 91.8427 57.9187C96.7084 52.5377 100.68 48.2025 103.484 45.2619C106.288 42.3212 107.895 40.8054 108.001 40.9267Z" fill="white"/>
<path id="Vector_11" d="M138.028 40.8047C137.61 41.1578 137.215 41.5375 136.846 41.9415L133.648 45.3521L122.022 58.2515L83.9449 101.012L45.8833 143.879L34.3178 156.808L31.1347 160.295L30.301 161.189C30.1039 161.401 29.9978 161.492 29.9827 161.477C30.061 161.36 30.1471 161.249 30.2404 161.143L31.0134 160.189L34.045 156.611L45.4438 143.5C55.0842 132.465 68.4687 117.261 83.3386 100.527C98.2085 83.7926 111.714 68.6953 121.597 57.8877C126.539 52.4763 130.571 48.126 133.405 45.1702C134.773 43.5422 136.325 42.0774 138.028 40.8047Z" fill="white"/>
<path id="Vector_12" d="M139.408 76.8205C139.329 76.8764 139.253 76.9371 139.181 77.0024C139.045 77.1237 138.832 77.3207 138.575 77.5935C138.044 78.1392 137.286 78.9578 136.316 80.0188C134.376 82.1409 131.602 85.2331 128.207 89.1136L101.726 119.308C91.4031 131.086 82.0204 141.757 75.2599 149.624L67.1959 158.719L64.9677 161.174C64.719 161.47 64.4506 161.749 64.1643 162.008C64.3496 161.671 64.579 161.36 64.8464 161.083L66.9534 158.522L74.8355 149.245C81.5201 141.424 90.7968 130.677 101.119 118.853C111.442 107.03 120.825 96.4197 127.782 88.8104C134.74 81.2012 139.12 76.5174 139.408 76.8205Z" fill="white"/>
<path id="Vector_13" d="M138.953 110.167C139.119 110.304 128.979 122.036 116.322 136.345C103.665 150.654 93.2667 162.114 93.0999 162.008C92.9332 161.901 103.074 150.139 115.731 135.83C128.388 121.521 138.786 110.016 138.953 110.167Z" fill="white"/>
<path id="Vector_14" d="M61.4057 40.7222L51.0984 40.7402L51.3099 161.928L61.6173 161.91L61.4057 40.7222Z" fill="#FBBA2D"/>
<path id="Vector_15" d="M139.151 96.5254H1.0166V104.726H139.151V96.5254Z" fill="#FBBA2D"/>
<path id="Vector_16" d="M126.387 40.6973L126.448 161.733L119.142 161.749L118.929 40.7124L126.387 40.6973Z" fill="#FBBA2D"/>
<g id="Group_4" opacity="0.3">
<path id="Vector_17" d="M102.983 40.793L103.196 161.92L138.62 161.723L139.408 40.7324L102.983 40.793Z" fill="#4777CF"/>
</g>
<path id="Vector_18" d="M103.18 160.553C102.968 160.553 102.786 133.83 102.786 100.861C102.786 67.8929 102.968 41.1543 103.18 41.1543C103.393 41.1543 103.575 67.8777 103.575 100.861C103.575 133.845 103.408 160.553 103.18 160.553Z" fill="#455A64"/>
<path id="Vector_19" d="M74.8815 72.8794L65.2714 76.1081L59.9509 60.2832L63.4221 56.0996L69.5459 57.0394L74.8815 72.8794Z" fill="white"/>
<path id="Vector_20" d="M74.8803 72.8796C74.6778 72.4963 74.5104 72.0955 74.3802 71.6821C74.0618 70.8029 73.6526 69.7116 73.1827 68.408C72.1671 65.6341 70.7726 61.7537 69.2113 57.1608L69.4993 57.4034L63.3603 56.4787L63.709 56.3423L60.6774 59.9499L60.2984 60.5107V60.1318C62.269 66.1949 64.0879 71.6366 65.5279 76.0021L65.149 75.8051C68.0441 74.8804 70.4239 74.1528 72.1216 73.6375C73.8193 73.1221 74.7894 72.8493 74.85 72.8644C74.0554 73.2496 73.2349 73.5788 72.3945 73.8497C70.7574 74.456 68.3473 75.3655 65.346 76.3962L65.058 76.4872L64.9519 76.1992L59.5405 60.3895V60.1772L59.6921 60.0105C59.8437 59.8135 60.0104 59.6316 60.1772 59.4345C61.1928 58.1916 62.1932 56.9941 63.2088 55.8421L63.3452 55.6602H63.5574L69.6964 56.6303H69.9085L69.9844 56.8425C71.5002 61.6021 72.8189 65.6341 73.698 68.4383C74.0921 69.7267 74.4104 70.8029 74.6833 71.6821C74.7798 72.0756 74.8457 72.4759 74.8803 72.8796Z" fill="#4777CF"/>
<path id="Vector_21" d="M64.7397 57.3886C63.845 57.3357 62.9926 56.9894 62.3145 56.4033C60.5936 55.1103 59.3341 53.2982 58.722 51.2345C58.1319 49.2135 57.891 47.1066 58.0096 45.0046C57.9654 44.1347 58.0679 43.2636 58.3128 42.4277C58.5132 43.2662 58.5998 44.1278 58.5704 44.9894C58.6123 47.0401 58.9128 49.0772 59.4648 51.0526C60.0496 52.9742 61.1569 54.6955 62.6631 56.0244C63.8303 56.9642 64.8458 57.2522 64.7397 57.3886Z" fill="#4777CF"/>
<path id="Vector_22" d="M58.3132 42.4258C59.1704 42.274 60.0533 42.4527 60.7839 42.926C61.6019 43.3847 62.3105 44.0157 62.8605 44.7752C63.5052 45.7098 64.0155 46.7303 64.3763 47.8068C65.9982 52.3542 65.3464 56.2953 65.0888 56.2195C64.9476 53.4509 64.4378 50.7135 63.573 48.0797C63.217 47.0823 62.7438 46.1308 62.1633 45.2451C61.6877 44.5445 61.0864 43.938 60.3898 43.4565C59.2833 42.6077 58.298 42.5925 58.3132 42.4258Z" fill="#4777CF"/>
<path id="Vector_23" d="M68.6503 69.1216L69.014 70.1826L68.0591 70.5161L67.6953 69.4702C66.8337 69.7187 65.9195 69.7187 65.0579 69.4702L65.1791 68.1211C65.8643 68.3045 66.5857 68.3045 67.2709 68.1211L66.7101 66.5144C65.5581 66.6205 64.2544 66.6812 63.7845 65.317C63.614 64.7401 63.6775 64.1193 63.9612 63.5888C64.2448 63.0584 64.7259 62.6609 65.3003 62.4824L64.9366 61.4214L65.8915 61.0879L66.2553 62.1338C66.9504 61.934 67.6831 61.9028 68.3926 62.0428V63.3768C67.8521 63.2701 67.296 63.2701 66.7555 63.3768L67.3164 64.9986C68.4684 64.8774 69.7568 64.8319 70.2267 66.1809C70.5147 67.3026 70.0903 68.4092 68.6503 69.1216ZM66.225 65.2108L65.7551 63.8618C65.2852 64.1498 65.1791 64.4984 65.3003 64.8167C65.4216 65.135 65.7551 65.226 66.225 65.2108ZM68.6806 66.954C68.5593 66.6205 68.2107 66.5296 67.756 66.5296L68.2107 67.8483C68.6503 67.5755 68.7867 67.2572 68.6806 66.954Z" fill="#E0E0E0"/>
</g>
</svg>
