<svg width="500" height="500" viewBox="0 0 500 500" fill="none" xmlns="http://www.w3.org/2000/svg">
<path d="M96.3848 405.491V413.013H152.686V405.491H96.3848Z" fill="#E0E0E0"/>
<path d="M104.055 405.803C104.25 405.803 104.409 407.381 104.409 409.326C104.409 411.272 104.25 412.85 104.055 412.85C103.859 412.85 103.701 411.272 103.701 409.326C103.701 407.381 103.86 405.803 104.055 405.803Z" fill="#FAFAFA"/>
<path d="M102.829 405.65C103.025 405.65 103.183 407.228 103.183 409.174C103.183 411.12 103.025 412.698 102.829 412.698C102.634 412.698 102.475 411.12 102.475 409.174C102.475 407.228 102.634 405.65 102.829 405.65Z" fill="#FAFAFA"/>
<path d="M148.331 405.803C148.527 405.803 148.685 407.381 148.685 409.326C148.685 411.272 148.527 412.85 148.331 412.85C148.136 412.85 147.977 411.272 147.977 409.326C147.978 407.381 148.136 405.803 148.331 405.803Z" fill="#FAFAFA"/>
<path d="M147.106 405.65C147.301 405.65 147.46 407.228 147.46 409.174C147.46 411.12 147.301 412.698 147.106 412.698C146.911 412.698 146.752 411.12 146.752 409.174C146.752 407.228 146.91 405.65 147.106 405.65Z" fill="#FAFAFA"/>
<path d="M139.752 409.48C139.752 409.676 133.303 409.834 125.351 409.834C117.396 409.834 110.949 409.675 110.949 409.48C110.949 409.285 117.396 409.126 125.351 409.126C133.303 409.126 139.752 409.285 139.752 409.48Z" fill="#FAFAFA"/>
<path d="M96.1406 439.356V454.399H152.442V439.356H96.1406Z" fill="#E0E0E0"/>
<path d="M153.163 450.168C153.168 450.179 153.065 450.238 152.857 450.343C152.651 450.45 152.337 450.595 151.919 450.772C151.082 451.114 149.819 451.599 148.102 451.864C146.414 452.104 144.149 452.172 141.908 450.985C140.808 450.397 139.762 449.504 138.966 448.319C138.188 447.137 137.688 445.592 137.942 443.986C138.077 443.187 138.411 442.398 138.977 441.746C139.527 441.093 140.41 440.612 141.351 440.668C142.294 440.71 143.146 441.251 143.737 441.955C144.333 442.661 144.742 443.565 144.826 444.521C145.049 446.428 144.246 448.406 142.885 449.852C141.546 451.35 139.544 452.263 137.475 452.497C135.392 452.744 133.238 452.414 131.194 451.717C129.151 451.012 127.132 449.866 125.707 448.029C125.008 447.116 124.503 445.983 124.428 444.781C124.324 443.583 124.706 442.295 125.627 441.402C126.085 440.957 126.725 440.658 127.388 440.63C128.052 440.598 128.693 440.814 129.229 441.148C130.315 441.822 131.009 442.976 131.301 444.183C131.83 446.643 130.857 449.205 129.081 450.809C127.3 452.429 124.968 453.148 122.742 453.389C120.501 453.614 118.247 453.447 116.171 452.742C114.103 452.054 112.243 450.693 111.172 448.856C110.083 447.061 109.726 444.788 110.546 442.88C110.931 441.935 111.801 441.097 112.843 440.937C113.858 440.747 114.896 441.028 115.679 441.621C117.268 442.882 117.533 445.044 117.02 446.689C116.499 448.381 115.361 449.678 114.182 450.686C111.775 452.718 108.926 453.597 106.461 453.685C103.97 453.773 101.876 453.086 100.344 452.295C98.8012 451.492 97.7852 450.581 97.1542 449.931C96.8442 449.599 96.6172 449.337 96.4802 449.149C96.3392 448.964 96.2722 448.866 96.2822 448.858C96.3542 448.76 97.4092 450.5 100.468 452.049C101.986 452.786 104.037 453.412 106.444 453.289C108.828 453.167 111.569 452.279 113.857 450.305C114.982 449.326 116.04 448.075 116.497 446.533C116.957 445.042 116.658 443.112 115.326 442.088C114.675 441.597 113.78 441.367 112.959 441.53C112.124 441.669 111.462 442.304 111.118 443.128C110.408 444.799 110.719 446.869 111.733 448.519C112.728 450.206 114.434 451.452 116.392 452.101C118.348 452.76 120.524 452.919 122.669 452.698C124.8 452.464 126.986 451.77 128.608 450.287C130.209 448.851 131.083 446.494 130.612 444.341C130.357 443.288 129.753 442.301 128.856 441.747C127.977 441.165 126.828 441.183 126.111 441.914C125.384 442.616 125.032 443.706 125.128 444.733C125.192 445.778 125.627 446.776 126.262 447.61C127.553 449.288 129.469 450.403 131.414 451.076C133.381 451.754 135.441 452.072 137.4 451.848C139.355 451.631 141.184 450.805 142.433 449.426C143.702 448.094 144.435 446.287 144.246 444.583C144.109 442.928 142.847 441.315 141.326 441.213C140.576 441.163 139.858 441.532 139.372 442.093C138.877 442.651 138.564 443.359 138.439 444.069C138.194 445.521 138.629 446.952 139.347 448.073C140.08 449.196 141.064 450.063 142.102 450.638C144.203 451.798 146.411 451.789 148.068 451.591C149.757 451.373 151.024 450.936 151.871 450.639C152.715 450.33 153.151 450.141 153.163 450.168Z" fill="#FAFAFA"/>
<path d="M101.17 413.231V439.33H152.443V413.231H101.17Z" fill="#EBEBEB"/>
<path d="M109.69 414.126C109.886 414.126 110.044 419.782 110.044 426.757C110.044 433.735 109.886 439.39 109.69 439.39C109.494 439.39 109.336 433.735 109.336 426.757C109.336 419.782 109.494 414.126 109.69 414.126Z" fill="#E0E0E0"/>
<path d="M113.575 413.802C113.771 413.802 113.929 419.386 113.929 426.271C113.929 433.159 113.77 438.741 113.575 438.741C113.38 438.741 113.221 433.159 113.221 426.271C113.221 419.386 113.38 413.802 113.575 413.802Z" fill="#E0E0E0"/>
<path d="M146.647 412.964C146.843 412.964 147.001 418.844 147.001 426.096C147.001 433.35 146.843 439.228 146.647 439.228C146.452 439.228 146.293 433.349 146.293 426.096C146.293 418.844 146.452 412.964 146.647 412.964Z" fill="#E0E0E0"/>
<path d="M142.079 413.316C142.274 413.316 142.433 419.044 142.433 426.109C142.433 433.176 142.274 438.903 142.079 438.903C141.884 438.903 141.725 433.176 141.725 426.109C141.725 419.045 141.883 413.316 142.079 413.316Z" fill="#E0E0E0"/>
<path d="M418.069 356.256C423.384 353.514 429.643 353.157 435.544 354.132C438.714 354.656 442.019 355.605 444.176 357.986C446.333 360.367 446.742 364.558 444.265 366.604C442.79 367.822 440.734 368.007 438.822 367.985C434.203 367.931 429.077 367.118 425.387 369.897C423.281 371.483 421.88 374.119 419.362 374.899C416.899 375.662 414.12 374.209 412.814 371.986C411.508 369.763 411.465 366.985 412.073 364.479C412.073 364.479 412.715 359.018 418.069 356.256Z" fill="#EBEBEB"/>
<path d="M405.893 332.748C409.143 337.39 415.46 335.853 418.389 333.02C421.318 330.186 422.556 326.08 423.683 322.164C426.258 313.216 428.854 303.83 426.939 294.718C426.367 291.994 425.348 289.277 423.434 287.256C421.52 285.235 418.576 284.033 415.885 284.744C412.7 285.586 410.72 288.705 409.29 291.673C405.085 300.396 402.858 310.066 402.825 319.749C402.809 324.272 403.342 329.014 405.893 332.748Z" fill="#EBEBEB"/>
<path d="M396.967 339.409C400.496 335.221 401.165 329.112 399.595 323.866C398.025 318.619 394.477 314.156 390.389 310.512C385.595 306.24 379.961 302.915 373.903 300.785C371.519 299.947 369.005 299.286 366.489 299.526C363.973 299.766 361.44 301.052 360.267 303.29C358.532 306.599 360.195 310.612 361.995 313.887C365.165 319.656 368.789 325.174 372.823 330.375C376.069 334.559 379.786 338.686 384.732 340.577C389.678 342.468 394.816 342.246 397.438 338.815" fill="#EBEBEB"/>
<path d="M405.673 402.771C405.734 402.775 405.833 402.023 405.967 400.662C406.116 399.127 406.304 397.199 406.527 394.906C406.795 392.484 407.149 389.601 407.822 386.462C408.493 383.331 409.543 379.938 410.891 376.496C412.287 373.075 413.99 369.966 415.98 367.479C417.956 364.981 420.253 363.173 422.413 362.131C424.566 361.067 426.497 360.636 427.831 360.444C429.177 360.306 429.931 360.2 429.931 360.14C429.932 360.08 429.176 360.07 427.794 360.107C426.424 360.198 424.414 360.545 422.144 361.577C419.868 362.587 417.43 364.422 415.358 366.972C413.269 369.511 411.504 372.689 410.083 376.171C408.711 379.673 407.677 383.101 407.036 386.3C406.397 389.494 406.105 392.408 405.914 394.85C405.731 397.294 405.662 399.274 405.629 400.642C405.598 402.01 405.614 402.768 405.673 402.771Z" fill="#E0E0E0"/>
<path d="M406.069 398.342C406.099 398.341 406.118 398.003 406.126 397.363C406.124 396.628 406.122 395.701 406.119 394.564C406.112 392.135 406.114 388.62 406.244 384.28C406.459 375.599 407.206 366.256 408.65 353.085C410.017 340.699 411.852 326.285 413.789 316.914C414.204 314.783 414.622 312.864 415.016 311.185C415.391 309.501 415.712 308.05 416.021 306.876C416.287 305.771 416.503 304.87 416.675 304.156C416.815 303.531 416.875 303.198 416.846 303.19C416.817 303.181 416.701 303.497 416.506 304.108C416.293 304.812 416.024 305.7 415.693 306.79C415.333 307.954 414.963 309.395 414.542 311.072C414.102 312.744 413.641 314.658 413.186 316.786C411.27 325.278 409.241 337.146 407.784 350.349C406.337 363.548 405.686 375.566 405.628 384.269C405.576 388.62 405.669 392.143 405.78 394.573C405.849 395.71 405.906 396.636 405.951 397.37C405.999 398.009 406.039 398.344 406.069 398.342Z" fill="#E0E0E0"/>
<path d="M406.127 375.162C406.188 375.16 406.177 374.121 406.107 372.238C405.999 370.359 405.741 367.644 405.212 364.317C404.651 360.998 403.867 357.058 402.636 352.776C402.103 350.819 400.848 346.128 397.81 339.12C393.807 329.624 388.369 321.861 383.637 317.052C382.528 315.776 381.292 314.855 380.303 313.953C379.791 313.521 379.339 313.089 378.879 312.748C378.416 312.429 377.985 312.132 377.586 311.856C376.029 310.791 375.157 310.23 375.125 310.28C374.985 310.47 378.613 312.605 383.193 317.478C387.755 322.341 393.041 330.051 397.012 339.467C399.226 344.574 400.77 349.13 401.866 352.997C403.132 357.237 403.972 361.138 404.607 364.423C405.211 367.716 405.56 370.404 405.771 372.266C405.942 374.131 406.067 375.165 406.127 375.162Z" fill="#E0E0E0"/>
<path d="M382.172 412.53L384.495 444.351H425.374L427.697 412.53H382.172Z" fill="#EBEBEB"/>
<path d="M432.574 399.988H378.223V412.53H432.574V399.988Z" fill="#EBEBEB"/>
<path d="M378.223 443.133V446.61H380.777H431.676V443.133H378.223Z" fill="#E0E0E0"/>
<path d="M383.278 452.344L380.775 446.225H429.727L426.807 452.344H383.278Z" fill="#E0E0E0"/>
<path d="M426.937 422.93C426.946 422.938 426.881 423.037 426.746 423.222C426.584 423.437 426.383 423.704 426.135 424.032C425.554 424.775 424.757 425.796 423.754 427.08L423.648 427.216L423.545 427.074C422.048 425.004 420.048 422.238 417.694 418.982H418.031C416.291 421.446 414.352 424.191 412.271 427.138L412.09 427.394L411.888 427.153C409.762 424.624 407.453 421.877 405.057 419.025L405.451 419.02C405.332 419.169 405.204 419.33 405.075 419.492C402.956 422.148 400.906 424.719 398.967 427.15L398.763 427.405L398.575 427.139C396.501 424.205 394.564 421.464 392.812 418.985L393.147 419.001C390.307 422.237 387.898 424.981 386.049 427.087L385.923 427.231L385.827 427.069C384.892 425.497 384.145 424.244 383.605 423.335C383.373 422.93 383.185 422.602 383.035 422.341C382.909 422.114 382.85 421.993 382.861 421.986C382.872 421.979 382.953 422.087 383.099 422.301C383.265 422.552 383.473 422.868 383.73 423.258C384.298 424.15 385.081 425.38 386.063 426.924L385.841 426.906C387.66 424.774 390.03 421.996 392.825 418.721L393.001 418.514L393.16 418.737C394.927 421.204 396.882 423.933 398.975 426.854L398.584 426.843C400.519 424.408 402.564 421.834 404.678 419.174C404.807 419.012 404.935 418.851 405.054 418.702L405.248 418.458L405.448 418.697C407.838 421.554 410.14 424.306 412.26 426.841L411.878 426.856C413.98 423.924 415.938 421.193 417.695 418.741L417.866 418.503L418.032 418.741C420.337 422.032 422.294 424.828 423.759 426.921L423.551 426.915C424.595 425.664 425.424 424.669 426.028 423.945C426.297 423.634 426.515 423.381 426.691 423.177C426.844 423.007 426.927 422.922 426.937 422.93Z" fill="#F5F5F5"/>
<path d="M428.265 412.32C428.265 412.461 418.022 412.574 405.39 412.574C392.753 412.574 382.512 412.46 382.512 412.32C382.512 412.18 392.753 412.066 405.39 412.066C418.021 412.066 428.265 412.18 428.265 412.32Z" fill="#F5F5F5"/>
<path d="M195.205 80.8432C195.201 80.8522 195.122 80.8272 194.972 80.7712C194.792 80.7002 194.575 80.6152 194.31 80.5112C193.689 80.2532 192.847 79.9022 191.786 79.4612C189.557 78.5062 186.411 77.1602 182.544 75.5042C174.721 72.0962 163.991 67.4212 152.137 62.2572C151.776 62.0992 151.416 61.9412 151.083 61.7952L151.302 61.7962C139.648 66.7802 129.149 71.2692 121.508 74.5362C117.733 76.1222 114.666 77.4112 112.493 78.3242C111.46 78.7462 110.64 79.0802 110.035 79.3272C109.471 79.5512 109.171 79.6602 109.164 79.6422C109.157 79.6252 109.442 79.4822 109.992 79.2262C110.588 78.9562 111.393 78.5902 112.41 78.1292C114.567 77.1782 117.61 75.8352 121.357 74.1822C128.981 70.8762 139.457 66.3332 151.086 61.2902L151.196 61.2422L151.306 61.2902C151.639 61.4362 151.999 61.5942 152.36 61.7522C164.189 66.9732 174.897 71.7002 182.703 75.1462C186.541 76.8692 189.662 78.2702 191.875 79.2642C192.919 79.7462 193.747 80.1272 194.358 80.4092C194.614 80.5332 194.824 80.6352 194.998 80.7202C195.138 80.7932 195.209 80.8352 195.205 80.8432Z" fill="#E0E0E0"/>
<path d="M242.639 76.4771H47.3438V222.704H242.639V76.4771Z" fill="#E0E0E0"/>
<path d="M236.544 83.2764H54.1699V216.695H236.544V83.2764Z" fill="#FAFAFA"/>
<path d="M94.4531 141.568C94.4531 141.568 94.6431 163.965 95.7821 170.798L123.873 169.469C123.873 169.469 121.406 147.452 122.355 141.568H94.4531Z" fill="#E0E0E0"/>
<path d="M108.289 144.735C108.289 144.732 108.324 144.728 108.392 144.724C108.471 144.721 108.571 144.717 108.695 144.712C108.962 144.693 109.357 144.712 109.864 144.77C110.367 144.85 110.986 144.986 111.65 145.301C112.312 145.615 112.997 146.127 113.594 146.839C114.169 147.563 114.696 148.462 114.941 149.544C115.172 150.627 115.055 151.843 114.646 153.015C114.447 153.604 114.176 154.183 113.857 154.75C113.54 155.316 113.222 155.885 112.957 156.502C112.427 157.728 112.006 159.077 111.821 160.488L111.809 160.581L111.718 160.583C110.831 160.597 109.894 160.612 108.944 160.628C107.947 160.644 106.965 160.659 106.035 160.673L105.932 160.675L105.928 160.57C105.88 159.157 105.245 157.87 104.579 156.731C104.242 156.155 103.873 155.616 103.527 155.07C103.189 154.534 102.809 154.021 102.54 153.461C101.986 152.343 101.891 151.106 102.1 150.04C102.301 148.972 102.655 148.003 103.184 147.241C103.71 146.478 104.38 145.947 105.012 145.595C105.648 145.241 106.246 145.049 106.737 144.928C107.23 144.809 107.62 144.762 107.884 144.741C108.016 144.734 108.117 144.728 108.185 144.73C108.254 144.728 108.289 144.732 108.289 144.735C108.289 144.739 108.254 144.741 108.187 144.748C108.109 144.756 108.011 144.766 107.889 144.779C107.628 144.812 107.242 144.871 106.757 145.001C106.274 145.132 105.687 145.332 105.068 145.69C104.452 146.045 103.805 146.572 103.301 147.32C102.796 148.063 102.455 149.02 102.266 150.067C102.07 151.112 102.17 152.3 102.71 153.378C102.973 153.921 103.345 154.419 103.694 154.966C104.037 155.503 104.412 156.048 104.754 156.627C105.429 157.778 106.086 159.083 106.14 160.566L106.033 160.463C106.964 160.448 107.946 160.432 108.942 160.416C109.892 160.401 110.829 160.387 111.716 160.373L111.613 160.468C111.805 159.018 112.232 157.665 112.773 156.421C113.041 155.799 113.371 155.214 113.687 154.654C114.003 154.097 114.272 153.529 114.469 152.954C114.875 151.808 114.994 150.628 114.778 149.579C114.551 148.535 114.039 147.639 113.485 146.929C112.909 146.227 112.246 145.719 111.602 145.402C110.956 145.083 110.349 144.938 109.853 144.847C109.353 144.778 108.961 144.747 108.695 144.753C108.571 144.75 108.472 144.747 108.393 144.745C108.324 144.741 108.289 144.738 108.289 144.735Z" fill="white"/>
<path d="M109.73 160.338C109.73 160.338 109.723 160.308 109.713 160.25C109.703 160.188 109.689 160.101 109.67 159.99C109.634 159.757 109.583 159.42 109.517 158.987C109.391 158.115 109.204 156.853 109.078 155.282C109.048 154.889 109.021 154.477 109.005 154.047C108.991 153.617 108.972 153.169 108.997 152.704C109.023 152.241 109.099 151.753 109.313 151.299C109.528 150.852 109.886 150.431 110.384 150.226C110.878 150.013 111.507 150.124 111.913 150.517C112.113 150.714 112.247 150.995 112.241 151.286C112.24 151.576 112.128 151.859 111.954 152.091C111.781 152.327 111.54 152.508 111.278 152.637C111.015 152.769 110.731 152.851 110.443 152.914C109.867 153.035 109.273 153.102 108.67 153.12C108.067 153.134 107.47 153.123 106.886 153.034C106.595 152.986 106.308 152.911 106.041 152.79C105.773 152.67 105.53 152.499 105.333 152.287C105.137 152.075 104.987 151.817 104.925 151.536C104.86 151.255 104.903 150.957 105.025 150.704C105.146 150.452 105.351 150.235 105.612 150.132C105.873 150.026 106.169 150.056 106.411 150.169C106.656 150.282 106.858 150.464 107.007 150.676C107.157 150.891 107.246 151.134 107.305 151.376C107.42 151.864 107.417 152.348 107.447 152.809C107.495 153.734 107.54 154.595 107.581 155.382C107.66 156.952 107.724 158.224 107.769 159.107C107.789 159.544 107.805 159.885 107.816 160.12C107.82 160.233 107.823 160.321 107.826 160.384C107.828 160.443 107.827 160.474 107.827 160.474C107.827 160.474 107.822 160.444 107.818 160.385C107.813 160.322 107.807 160.235 107.799 160.122C107.784 159.887 107.763 159.546 107.736 159.11C107.685 158.227 107.611 156.956 107.52 155.386C107.476 154.599 107.427 153.738 107.375 152.814C107.344 152.353 107.344 151.87 107.231 151.395C107.173 151.16 107.085 150.925 106.943 150.723C106.801 150.521 106.607 150.349 106.378 150.244C106.151 150.139 105.879 150.113 105.642 150.21C105.404 150.304 105.213 150.505 105.1 150.742C104.986 150.979 104.946 151.257 105.007 151.519C105.065 151.783 105.207 152.028 105.395 152.231C105.773 152.645 106.33 152.862 106.9 152.951C107.474 153.038 108.07 153.049 108.667 153.036C109.265 153.018 109.855 152.952 110.424 152.832C110.707 152.77 110.985 152.689 111.239 152.563C111.493 152.438 111.721 152.266 111.885 152.043C112.05 151.823 112.155 151.557 112.156 151.289C112.162 151.02 112.04 150.764 111.854 150.58C111.474 150.212 110.88 150.103 110.414 150.304C109.94 150.497 109.591 150.901 109.382 151.335C109.172 151.775 109.096 152.253 109.069 152.711C109.043 153.171 109.06 153.618 109.072 154.047C109.086 154.476 109.111 154.888 109.139 155.28C109.257 156.849 109.435 158.112 109.55 158.985C109.609 159.419 109.655 159.756 109.687 159.99C109.702 160.102 109.713 160.189 109.721 160.252C109.728 160.307 109.73 160.338 109.73 160.338Z" fill="white"/>
<path d="M106.033 160.486C106.047 160.499 106.07 160.835 106.106 161.42C106.141 162.098 106.183 162.908 106.231 163.854L106.208 163.795C106.773 164.446 107.41 165.181 108.099 165.974L108.002 165.932C108.69 165.893 109.425 165.852 110.188 165.809L110.096 165.855C110.447 165.426 110.812 164.981 111.185 164.526C111.369 164.302 111.552 164.08 111.731 163.861L111.702 163.946C111.673 162.664 111.645 161.451 111.619 160.345L111.738 160.458C110.145 160.476 108.764 160.491 107.654 160.503C107.211 160.503 106.822 160.502 106.474 160.502C106.195 160.499 106.042 160.495 106.033 160.486C106.024 160.477 106.16 160.465 106.422 160.449C106.762 160.431 107.142 160.411 107.574 160.389C108.704 160.345 110.11 160.289 111.731 160.226L111.847 160.221L111.851 160.339C111.884 161.445 111.921 162.658 111.959 163.939L111.961 163.987L111.93 164.025C111.751 164.244 111.569 164.466 111.385 164.69C111.011 165.144 110.645 165.589 110.293 166.017L110.257 166.061L110.201 166.064C109.438 166.101 108.703 166.137 108.014 166.171L107.954 166.174L107.916 166.129C107.24 165.324 106.615 164.579 106.061 163.919L106.038 163.892V163.859C106.029 162.89 106.021 162.058 106.014 161.363C106.015 160.783 106.019 160.473 106.033 160.486Z" fill="white"/>
<path d="M111.675 163.65C111.672 163.656 111.599 163.622 111.468 163.562C111.337 163.502 111.144 163.421 110.901 163.337C110.416 163.169 109.712 163.012 108.927 163.036C108.142 163.059 107.448 163.259 106.974 163.457C106.736 163.555 106.549 163.648 106.421 163.716C106.293 163.783 106.223 163.822 106.219 163.816C106.216 163.811 106.281 163.763 106.404 163.686C106.527 163.609 106.712 163.507 106.949 163.4C107.422 163.186 108.125 162.973 108.923 162.949C109.721 162.924 110.436 163.094 110.921 163.279C111.164 163.371 111.355 163.462 111.483 163.531C111.611 163.601 111.678 163.645 111.675 163.65Z" fill="white"/>
<path d="M111.675 162.775C111.672 162.781 111.599 162.747 111.468 162.687C111.337 162.627 111.144 162.546 110.901 162.462C110.416 162.294 109.712 162.137 108.926 162.161C108.141 162.185 107.447 162.384 106.973 162.582C106.735 162.68 106.548 162.773 106.421 162.841C106.293 162.908 106.223 162.947 106.219 162.941C106.216 162.936 106.28 162.888 106.404 162.811C106.527 162.734 106.712 162.632 106.949 162.525C107.422 162.311 108.125 162.098 108.923 162.074C109.721 162.049 110.436 162.219 110.921 162.404C111.165 162.496 111.355 162.587 111.483 162.656C111.61 162.726 111.677 162.77 111.675 162.775Z" fill="white"/>
<path d="M111.622 161.943C111.619 161.949 111.546 161.915 111.415 161.855C111.283 161.795 111.091 161.714 110.848 161.63C110.363 161.462 109.659 161.305 108.874 161.329C108.089 161.353 107.395 161.552 106.921 161.749C106.683 161.847 106.496 161.94 106.368 162.008C106.24 162.075 106.17 162.114 106.166 162.108C106.163 162.103 106.228 162.055 106.351 161.978C106.474 161.901 106.659 161.799 106.896 161.692C107.369 161.478 108.072 161.265 108.87 161.241C109.669 161.216 110.383 161.386 110.868 161.571C111.112 161.663 111.302 161.754 111.43 161.823C111.557 161.894 111.624 161.939 111.622 161.943Z" fill="white"/>
<path d="M63.168 104.953C63.168 104.953 63.358 127.35 64.497 134.183L92.588 132.854C92.588 132.854 90.12 110.837 91.069 104.953H63.168Z" fill="#EBEBEB"/>
<path d="M86.8363 114.361C86.8453 114.513 82.6323 114.89 77.4283 115.203C72.2223 115.516 67.9953 115.647 67.9863 115.495C67.9773 115.343 72.1893 114.966 77.3953 114.653C82.5993 114.34 86.8263 114.209 86.8363 114.361Z" fill="white"/>
<path d="M86.8422 119.105C86.8512 119.257 82.6382 119.634 77.4342 119.947C72.2272 120.26 68.0012 120.391 67.9922 120.239C67.9832 120.087 72.1952 119.71 77.4012 119.397C82.6052 119.084 86.8332 118.953 86.8422 119.105Z" fill="white"/>
<path d="M82.0681 123.763C82.0771 123.915 79.6801 124.183 76.7151 124.361C73.7491 124.539 71.3372 124.561 71.3282 124.409C71.3192 124.257 73.7151 123.99 76.6821 123.811C79.6471 123.632 82.0591 123.611 82.0681 123.763Z" fill="white"/>
<path d="M61.8379 170.847C61.8379 170.847 62.0279 193.244 63.1669 200.077L91.2579 198.748C91.2579 198.748 88.7899 176.73 89.7399 170.846H61.8379V170.847Z" fill="#EBEBEB"/>
<path d="M85.5063 180.254C85.5153 180.406 81.3023 180.783 76.0983 181.096C70.8923 181.409 66.6653 181.54 66.6563 181.388C66.6473 181.236 70.8593 180.859 76.0653 180.546C81.2693 180.233 85.4973 180.103 85.5063 180.254Z" fill="white"/>
<path d="M85.5121 184.998C85.5211 185.15 81.3081 185.527 76.1041 185.84C70.8981 186.153 66.6711 186.284 66.6621 186.132C66.6531 185.98 70.8651 185.603 76.0711 185.29C81.2761 184.977 85.5031 184.847 85.5121 184.998Z" fill="white"/>
<path d="M80.7381 189.656C80.7471 189.808 78.3501 190.076 75.3851 190.254C72.4191 190.432 70.0071 190.454 69.9981 190.302C69.9891 190.15 72.3851 189.883 75.3521 189.704C78.3181 189.526 80.7291 189.504 80.7381 189.656Z" fill="white"/>
<path d="M138.605 110.89L141.388 175.489L222.031 176.462L218.411 111.743L138.605 110.89Z" fill="#EBEBEB"/>
<path d="M217.779 110.427H137.672V170.916H217.779V110.427Z" fill="#F5F5F5"/>
<path d="M217.779 170.916C217.779 170.916 217.763 170.526 217.754 169.794C217.748 169.046 217.74 167.968 217.728 166.566C217.714 163.73 217.695 159.598 217.67 154.326C217.642 143.779 217.601 128.686 217.552 110.427L217.778 110.653C195.132 110.667 167.489 110.684 137.678 110.702H137.671L137.946 110.427C137.936 132.182 137.927 152.78 137.919 170.915L137.671 170.667C161.373 170.718 181.367 170.761 195.454 170.791C202.499 170.819 208.063 170.842 211.888 170.857C213.785 170.87 215.247 170.88 216.256 170.887C216.742 170.893 217.115 170.898 217.386 170.901C217.642 170.906 217.779 170.916 217.779 170.916C217.779 170.916 217.661 170.926 217.415 170.93C217.151 170.933 216.786 170.938 216.313 170.944C215.315 170.951 213.87 170.961 211.994 170.974C208.182 170.99 202.637 171.012 195.617 171.04C181.491 171.07 161.441 171.113 137.673 171.164L137.425 171.165V170.916C137.417 152.78 137.408 132.182 137.398 110.428V110.152H137.674H137.681C167.492 110.17 195.135 110.187 217.781 110.201H218.008L218.007 110.427C217.958 128.745 217.918 143.887 217.889 154.468C217.864 159.718 217.844 163.833 217.831 166.657C217.82 168.04 217.811 169.104 217.805 169.842C217.796 170.559 217.779 170.916 217.779 170.916Z" fill="#E0E0E0"/>
<path d="M179.809 123.241H147.336V164.11H179.809V123.241Z" fill="#F5F5F5"/>
<path d="M179.809 164.11C179.804 164.105 179.799 164.036 179.795 163.904C179.791 163.749 179.787 163.56 179.781 163.323C179.774 162.785 179.764 162.04 179.752 161.088C179.736 159.113 179.714 156.28 179.686 152.703C179.656 145.509 179.613 135.329 179.563 123.242L179.81 123.489C170.133 123.497 159.058 123.507 147.34 123.518C147.275 123.576 147.858 123.001 147.612 123.25V123.261V123.283V123.327V123.416V123.593V123.947V124.654V126.063C147.612 127 147.612 127.933 147.611 128.861C147.61 130.717 147.609 132.554 147.609 134.368C147.606 137.997 147.603 141.539 147.6 144.973C147.588 151.837 147.576 158.27 147.565 164.11L147.336 163.881C157.079 163.93 165.163 163.971 170.848 163.999C173.668 164.024 175.891 164.044 177.445 164.058C178.187 164.069 178.767 164.078 179.194 164.084C179.591 164.093 179.809 164.11 179.809 164.11C179.817 164.118 179.625 164.127 179.242 164.135C178.826 164.141 178.26 164.15 177.537 164.161C175.995 164.175 173.79 164.195 170.992 164.22C165.272 164.249 157.139 164.29 147.337 164.338L147.109 164.339V164.109C147.098 158.269 147.087 151.836 147.075 144.972C147.072 141.538 147.069 137.997 147.066 134.367C147.065 132.552 147.064 130.716 147.064 128.86C147.064 127.932 147.064 126.999 147.063 126.062V124.653V123.946V123.592V123.415V123.326V123.282V123.26V123.249C146.818 123.492 147.396 122.905 147.342 122.966C159.06 122.976 170.135 122.986 179.812 122.995H180.06L180.059 123.242C180.008 135.396 179.966 145.63 179.936 152.863C179.908 156.416 179.886 159.23 179.871 161.192C179.859 162.124 179.849 162.852 179.842 163.378C179.836 163.604 179.832 163.785 179.828 163.932C179.819 164.055 179.814 164.115 179.809 164.11Z" fill="#E0E0E0"/>
<path d="M210.814 113.89H148.58V119.779H210.814V113.89Z" fill="#F5F5F5"/>
<path d="M210.814 119.778C210.807 119.771 210.8 119.634 210.792 119.375C210.785 119.088 210.777 118.711 210.766 118.233C210.751 117.21 210.73 115.756 210.703 113.89L210.814 114.001C200.319 114.098 176.396 114.165 148.584 114.165H148.581C149.131 113.615 148.733 114.013 148.856 113.891V113.893V113.899V113.911V113.935V113.982V114.076V114.265V114.643V115.396C148.856 115.896 148.856 116.394 148.856 116.887C148.856 117.873 148.855 118.841 148.855 119.779L148.581 119.505C165.985 119.551 181.494 119.592 192.694 119.622C198.277 119.656 202.784 119.684 205.934 119.704C207.473 119.72 208.679 119.733 209.537 119.742C209.928 119.75 210.24 119.756 210.481 119.761C210.695 119.766 210.808 119.772 210.814 119.778C210.82 119.784 210.72 119.791 210.517 119.797C210.285 119.802 209.985 119.808 209.608 119.816C208.765 119.825 207.58 119.838 206.068 119.854C202.933 119.873 198.448 119.901 192.892 119.935C181.642 119.965 166.063 120.006 148.58 120.052L148.306 120.053V119.778C148.306 118.84 148.306 117.872 148.305 116.886C148.305 116.393 148.305 115.895 148.305 115.395V114.642V114.264V114.075V113.981V113.934V113.91V113.898V113.892V113.89C148.428 113.767 148.03 114.164 148.581 113.613H148.584C176.396 113.613 200.319 113.68 210.814 113.777L210.927 113.778L210.925 113.889C210.898 115.783 210.876 117.258 210.862 118.297C210.851 118.765 210.842 119.134 210.836 119.414C210.828 119.663 210.821 119.785 210.814 119.778Z" fill="#E0E0E0"/>
<path d="M210.813 123.241H183.785V147.872H210.813V123.241Z" fill="#F5F5F5"/>
<path d="M210.813 147.873C210.804 147.864 210.796 147.702 210.787 147.397C210.78 147.056 210.771 146.614 210.76 146.06C210.745 144.856 210.725 143.168 210.699 141.039C210.67 136.705 210.628 130.587 210.579 123.242L210.813 123.476C203.007 123.488 193.725 123.502 183.787 123.517C183.724 123.576 184.306 122.997 184.06 123.246V123.253V123.266V123.292V123.344V123.449V123.659V124.078V124.914C184.06 125.47 184.06 126.025 184.06 126.576C184.059 127.679 184.059 128.773 184.058 129.856C184.056 132.021 184.053 134.143 184.051 136.21C184.042 140.342 184.034 144.256 184.026 147.871L183.784 147.629C191.8 147.679 198.516 147.721 203.28 147.751C205.625 147.778 207.486 147.8 208.811 147.815C209.425 147.827 209.913 147.836 210.287 147.843C210.625 147.854 210.804 147.863 210.813 147.873C210.822 147.882 210.661 147.891 210.341 147.9C209.979 147.907 209.507 147.916 208.912 147.928C207.601 147.943 205.757 147.965 203.435 147.992C198.634 148.022 191.863 148.064 183.784 148.114L183.543 148.116L183.542 147.873C183.534 144.258 183.526 140.344 183.517 136.212C183.515 134.145 183.513 132.023 183.51 129.858C183.51 128.775 183.509 127.681 183.508 126.578C183.508 126.026 183.508 125.472 183.508 124.916V124.08V123.661V123.451V123.346V123.294V123.268V123.255V123.248C183.262 123.492 183.843 122.908 183.786 122.968C193.723 122.983 203.005 122.997 210.812 123.009H211.048L211.046 123.243C210.996 130.649 210.955 136.819 210.926 141.189C210.9 143.295 210.88 144.966 210.865 146.157C210.854 146.692 210.845 147.119 210.838 147.449C210.831 147.737 210.822 147.881 210.813 147.873Z" fill="#E0E0E0"/>
<path d="M210.815 151.734H183.787V164.11H210.815V151.734Z" fill="#F5F5F5"/>
<path d="M210.814 164.11C210.8 164.096 210.786 163.787 210.771 163.213C210.759 162.591 210.742 161.764 210.721 160.728C210.695 158.544 210.658 155.487 210.613 151.734L210.813 151.934C203.764 151.954 194.254 151.98 183.787 152.009C183.54 152.255 184.12 151.674 184.06 151.735V151.738V151.744V151.757V151.782V151.833V151.935V152.139V152.545V153.355C184.06 153.893 184.059 154.429 184.059 154.961C184.058 156.025 184.057 157.077 184.056 158.112C184.052 160.182 184.049 162.188 184.045 164.108L183.784 163.847C191.579 163.897 198.286 163.941 203.112 163.972C205.475 164.002 207.374 164.027 208.744 164.044C209.368 164.057 209.871 164.068 210.265 164.077C210.617 164.089 210.804 164.099 210.814 164.11C210.825 164.121 210.659 164.131 210.329 164.142C209.949 164.15 209.464 164.161 208.862 164.175C207.506 164.193 205.627 164.217 203.289 164.247C198.42 164.278 191.652 164.321 183.785 164.372L183.524 164.374V164.111C183.521 162.191 183.517 160.185 183.514 158.115C183.513 157.08 183.512 156.028 183.511 154.964C183.511 154.432 183.51 153.896 183.51 153.358V152.548V152.142V151.938V151.836V151.785V151.76V151.747V151.741V151.738C183.45 151.796 184.032 151.215 183.787 151.461C194.254 151.49 203.765 151.517 210.813 151.536L211.015 151.537L211.013 151.737C210.968 155.54 210.932 158.639 210.906 160.852C210.885 161.869 210.868 162.681 210.856 163.292C210.842 163.842 210.828 164.124 210.814 164.11Z" fill="#E0E0E0"/>
<path d="M179.006 123.312C168.954 137.198 157.388 150.224 147.336 164.11L179.006 123.312Z" fill="white"/>
<path d="M147.336 164.11C147.321 164.099 147.412 163.942 147.601 163.654C147.831 163.317 148.111 162.906 148.449 162.409C149.192 161.332 150.303 159.801 151.7 157.926C154.49 154.173 158.483 149.094 162.955 143.539C167.428 137.982 171.465 132.947 174.331 129.259C175.722 127.463 176.867 125.985 177.719 124.885C178.091 124.413 178.398 124.023 178.65 123.702C178.868 123.435 178.99 123.3 179.005 123.312C179.02 123.323 178.928 123.48 178.74 123.768C178.51 124.105 178.23 124.516 177.892 125.012C177.149 126.088 176.038 127.62 174.641 129.495C171.851 133.248 167.857 138.328 163.384 143.884C158.913 149.438 154.876 154.473 152.01 158.162C150.619 159.958 149.474 161.436 148.622 162.536C148.25 163.008 147.943 163.398 147.691 163.719C147.473 163.986 147.351 164.121 147.336 164.11Z" fill="#E0E0E0"/>
<path d="M179.809 164.11C179.69 164.205 172.323 155.132 163.357 143.848C154.388 132.56 147.216 123.336 147.335 123.241C147.454 123.146 154.819 132.217 163.788 143.505C172.755 154.789 179.928 164.015 179.809 164.11Z" fill="#E0E0E0"/>
<path d="M141.389 123.328C141.389 126.134 139.114 128.408 136.309 128.408C133.503 128.408 131.229 126.134 131.229 123.328C131.229 120.522 133.503 118.248 136.309 118.248C139.115 118.248 141.389 120.523 141.389 123.328Z" fill="#E0E0E0"/>
<path d="M224.476 110.997C224.476 113.803 222.201 116.077 219.396 116.077C216.59 116.077 214.316 113.803 214.316 110.997C214.316 108.191 216.591 105.917 219.396 105.917C222.202 105.917 224.476 108.191 224.476 110.997Z" fill="#E0E0E0"/>
<path d="M423.201 146.382H364.658V231.238H423.201V146.382Z" fill="#E0E0E0"/>
<path d="M420.27 146.382H361.727V231.238H420.27V146.382Z" fill="#F5F5F5"/>
<path d="M412.994 155.572H368.998V222.047H412.994V155.572Z" fill="white"/>
<path d="M412.995 222.047C412.995 222.047 412.989 221.934 412.986 221.722C412.984 221.503 412.981 221.189 412.978 220.779C412.974 219.944 412.968 218.721 412.96 217.133C412.951 213.947 412.938 209.304 412.921 203.44C412.903 191.718 412.879 175.119 412.849 155.572L412.995 155.718C399.553 155.722 384.659 155.726 369.004 155.731H368.999L369.158 155.572C369.146 180.649 369.135 203.771 369.126 222.047L368.999 221.92C382.397 221.948 393.38 221.971 401.022 221.987C404.845 222.001 407.83 222.012 409.869 222.019C410.882 222.025 411.659 222.03 412.191 222.033C412.718 222.038 412.995 222.047 412.995 222.047C412.995 222.047 412.736 222.056 412.219 222.061C411.692 222.064 410.923 222.069 409.92 222.075C407.887 222.082 404.911 222.093 401.101 222.107C393.44 222.123 382.43 222.146 368.999 222.174H368.872V222.047C368.863 203.77 368.852 180.649 368.84 155.572V155.413H368.999H369.004C384.659 155.418 399.553 155.422 412.995 155.426H413.141V155.572C413.112 175.158 413.087 191.79 413.069 203.536C413.052 209.387 413.039 214.018 413.03 217.197C413.022 218.772 413.016 219.985 413.012 220.814C413.008 221.217 413.005 221.524 413.003 221.74C413.001 221.946 412.995 222.047 412.995 222.047Z" fill="#E0E0E0"/>
<path d="M420.433 146.382C420.467 146.409 420.07 146.989 419.39 147.898C418.71 148.807 417.745 150.044 416.643 151.382C415.541 152.72 414.511 153.904 413.749 154.746C412.987 155.588 412.494 156.089 412.461 156.06C412.427 156.031 412.86 155.477 413.578 154.599C414.363 153.647 415.329 152.475 416.397 151.179C417.464 149.883 418.429 148.711 419.213 147.758C419.938 146.885 420.398 146.354 420.433 146.382Z" fill="#E0E0E0"/>
<path d="M413.221 221.833C415.406 225.308 417.986 228.534 420.895 231.43L413.221 221.833Z" fill="white"/>
<path d="M420.893 231.43C420.864 231.459 420.342 231.006 419.555 230.213C418.768 229.42 417.726 228.28 416.66 226.948C415.595 225.615 414.712 224.347 414.112 223.405C413.511 222.463 413.184 221.854 413.219 221.832C413.259 221.807 413.653 222.373 414.298 223.279C414.943 224.185 415.85 225.424 416.908 226.749C417.967 228.072 418.976 229.229 419.718 230.058C420.461 230.888 420.926 231.397 420.893 231.43Z" fill="#E0E0E0"/>
<path d="M361.717 231.171C364.273 228.017 366.829 224.864 369.385 221.71L361.717 231.171Z" fill="white"/>
<path d="M369.385 221.709C369.453 221.764 367.792 223.927 365.675 226.54C363.557 229.153 361.785 231.226 361.717 231.171C361.649 231.116 363.31 228.953 365.428 226.34C367.545 223.727 369.317 221.654 369.385 221.709Z" fill="#E0E0E0"/>
<path d="M361.727 146.382C361.796 146.327 363.463 148.32 365.449 150.831C367.436 153.344 368.99 155.424 368.921 155.478C368.852 155.533 367.186 153.541 365.199 151.028C363.212 148.517 361.658 146.436 361.727 146.382Z" fill="#E0E0E0"/>
<path d="M399.289 169.069H384.557V210.896H399.289V169.069Z" fill="#E0E0E0"/>
<path d="M409.712 56.2184L401.332 56.2637L401.557 97.9637L409.937 97.9184L409.712 56.2184Z" fill="#E0E0E0"/>
<path d="M350.434 56.3276L328.732 56.4448L328.857 79.4658L350.559 79.3486L350.434 56.3276Z" fill="#EBEBEB"/>
<path d="M372.034 56.2119L350.332 56.3291L350.456 79.3501L372.158 79.2329L372.034 56.2119Z" fill="#F5F5F5"/>
<path d="M328.758 62.8169C343.18 62.9359 357.638 62.8519 372.058 62.6179C372.355 62.6139 372.353 62.1589 372.055 62.1569C357.633 62.0769 343.175 62.1479 328.755 62.4219C328.502 62.4269 328.504 62.8149 328.758 62.8169Z" fill="#E0E0E0"/>
<path d="M354.63 78.9668L315.201 79.1797L315.302 97.9397L354.731 97.7268L354.63 78.9668Z" fill="#EBEBEB"/>
<path d="M393.872 78.7534L354.443 78.9663L354.545 97.7263L393.974 97.5134L393.872 78.7534Z" fill="#F5F5F5"/>
<path d="M315.221 84.4089C341.414 84.7059 367.699 84.4399 393.891 84.0209C394.188 84.0159 394.186 83.5609 393.889 83.5599C367.694 83.4219 341.408 83.4369 315.22 84.0139C314.965 84.0189 314.966 84.4059 315.221 84.4089Z" fill="#E0E0E0"/>
<path d="M453.234 97.9521H300.477V104.673H453.234V97.9521Z" fill="#E0E0E0"/>
<path d="M331.687 101.183H325.486V124.117H331.687V101.183Z" fill="#E0E0E0"/>
<path d="M424.258 101.183H418.057V124.117H424.258V101.183Z" fill="#E0E0E0"/>
<path d="M417.89 40.6681L409.51 40.7134L409.819 98.0654L418.199 98.0201L417.89 40.6681Z" fill="#EBEBEB"/>
<path d="M430.985 51.3442L417.963 51.4146L418.214 97.8916L431.236 97.8212L430.985 51.3442Z" fill="#F5F5F5"/>
<path d="M430.888 60.3154C430.888 60.4404 427.973 60.5414 424.378 60.5414C420.781 60.5414 417.867 60.4404 417.867 60.3154C417.867 60.1904 420.782 60.0894 424.378 60.0894C427.973 60.0894 430.888 60.1904 430.888 60.3154Z" fill="#E0E0E0"/>
<path d="M430.888 58.3622C430.888 58.4872 427.973 58.5882 424.378 58.5882C420.781 58.5882 417.867 58.4872 417.867 58.3622C417.867 58.2372 420.782 58.1362 424.378 58.1362C427.973 58.1372 430.888 58.2382 430.888 58.3622Z" fill="#E0E0E0"/>
<path d="M430.888 90.8451C430.888 90.9701 427.973 91.0711 424.378 91.0711C420.781 91.0711 417.867 90.9701 417.867 90.8451C417.867 90.7201 420.782 90.6191 424.378 90.6191C427.973 90.6191 430.888 90.7201 430.888 90.8451Z" fill="#E0E0E0"/>
<path d="M430.888 88.892C430.888 89.017 427.973 89.118 424.378 89.118C420.781 89.118 417.867 89.017 417.867 88.892C417.867 88.767 420.782 88.666 424.378 88.666C427.973 88.667 430.888 88.768 430.888 88.892Z" fill="#E0E0E0"/>
<path d="M424.587 84.632C424.462 84.632 424.361 79.943 424.361 74.16C424.361 68.375 424.462 63.687 424.587 63.687C424.712 63.687 424.813 68.375 424.813 74.16C424.813 79.943 424.712 84.632 424.587 84.632Z" fill="#E0E0E0"/>
<path d="M445.203 62.7739H431.029V97.8549H445.203V62.7739Z" fill="#EBEBEB"/>
<path d="M438.517 88.7569C436.653 88.7569 435.35 87.4299 435.35 85.6019C435.35 84.6099 435.733 83.7499 436.497 83.2349L436.819 83.6779C436.186 84.1319 435.887 84.8249 435.887 85.6019C435.887 87.0729 436.939 88.1479 438.517 88.1479C440.095 88.1479 441.147 87.0719 441.147 85.6019C441.147 84.8249 440.848 84.1319 440.214 83.6779L440.537 83.2349C441.29 83.7489 441.684 84.6099 441.684 85.6019C441.685 87.4299 440.37 88.7569 438.517 88.7569Z" fill="#FAFAFA"/>
<path d="M440.884 82.3638L440.406 82.0888C440.812 81.6108 441.159 80.7618 441.159 79.8418C441.159 78.5268 440.693 78.0018 439.987 78.0018C438.17 78.0018 439.509 82.1368 437.059 82.1368C436.115 82.1368 435.35 81.3478 435.35 79.7698C435.35 78.9808 435.589 78.1208 435.959 77.6308L436.437 77.9058C436.054 78.4308 435.875 79.1128 435.875 79.7818C435.875 81.0008 436.377 81.5398 437.046 81.5398C438.922 81.5398 437.596 77.4038 439.974 77.4038C440.99 77.4038 441.683 78.2758 441.683 79.8658C441.685 80.8938 441.338 81.8738 440.884 82.3638Z" fill="#FAFAFA"/>
<path d="M440.884 76.6519L440.406 76.3769C440.812 75.8989 441.159 75.0499 441.159 74.1289C441.159 72.8149 440.693 72.2889 439.987 72.2889C438.17 72.2889 439.509 76.4239 437.059 76.4239C436.115 76.4239 435.35 75.6349 435.35 74.0579C435.35 73.2679 435.589 72.4079 435.959 71.9179L436.437 72.1929C436.054 72.7189 435.875 73.4009 435.875 74.0699C435.875 75.2879 436.377 75.8269 437.046 75.8269C438.922 75.8269 437.596 71.6919 439.974 71.6919C440.99 71.6919 441.683 72.5639 441.683 74.1539C441.685 75.1819 441.338 76.1619 440.884 76.6519Z" fill="#FAFAFA"/>
<path d="M413.569 52.8859C414.9 52.8859 415.978 51.8073 415.978 50.4769C415.978 49.1464 414.9 48.0679 413.569 48.0679C412.239 48.0679 411.16 49.1464 411.16 50.4769C411.16 51.8073 412.239 52.8859 413.569 52.8859Z" fill="#E0E0E0"/>
<path d="M414.313 57.1011H412.824V91.2191H414.313V57.1011Z" fill="#E0E0E0"/>
<path d="M470.806 454.02C470.806 454.164 374.218 454.28 255.098 454.28C135.937 454.28 39.3691 454.163 39.3691 454.02C39.3691 453.876 135.936 453.76 255.098 453.76C374.218 453.76 470.806 453.876 470.806 454.02Z" fill="#263238"/>
<path d="M156.181 110.238C140.133 135.48 141.184 170.477 158.717 194.71C170.405 210.865 187.939 221.694 201.862 235.968C215.785 250.243 226.359 271.279 219.011 289.816C211.531 308.687 189.623 316.364 173.216 328.317C155.345 341.337 142.793 361.448 138.948 383.222C135.103 404.996 140.007 428.189 152.337 446.543H322.761C322.761 446.543 352.698 389.488 314.208 346.008C275.718 302.528 255.047 301.815 256.472 273.304C257.898 244.793 277.856 235.526 289.26 224.835C300.664 214.144 356.262 189.196 323.474 110.239L156.181 110.238Z" fill="#FAFAFA"/>
<path d="M156.18 110.238C156.18 110.238 157.169 110.222 159.114 110.214C161.065 110.209 163.959 110.201 167.753 110.191C175.359 110.18 186.569 110.164 201.009 110.143C229.918 110.122 271.752 110.091 323.473 110.053H323.598L323.643 110.167C325.972 116.081 328.325 122.168 329.993 128.621C331.709 135.045 333.116 141.738 333.614 148.674C334.136 155.596 333.912 162.744 332.533 169.843C331.11 176.922 328.574 183.934 324.83 190.42C322.968 193.67 320.778 196.756 318.411 199.734C316.017 202.694 313.366 205.477 310.561 208.133C307.751 210.786 304.758 213.285 301.65 215.676C298.549 218.075 295.312 220.343 292.151 222.737C290.568 223.931 289.122 225.27 287.614 226.612C286.098 227.928 284.537 229.198 282.962 230.456C279.813 232.975 276.632 235.493 273.629 238.25C267.568 243.673 262.448 250.444 259.632 258.325C258.266 262.258 257.287 266.379 256.967 270.597C256.882 271.65 256.741 272.702 256.702 273.76C256.681 274.819 256.621 275.881 256.671 276.942C256.685 279.067 256.924 281.189 257.31 283.283C258.111 287.469 259.869 291.48 262.425 294.957C264.944 298.466 268.05 301.555 271.264 304.527C277.735 310.443 284.597 316.09 291.171 322.187C297.777 328.25 304.191 334.651 310.37 341.378C313.436 344.753 316.553 348.149 319.233 351.916C322.005 355.612 324.332 359.65 326.377 363.829C330.408 372.225 332.9 381.436 333.716 390.854C334.594 400.273 333.923 409.871 332.056 419.264C331.132 423.965 329.906 428.621 328.4 433.201C326.893 437.782 325.154 442.299 322.989 446.662L322.92 446.802H322.759C321.376 446.802 319.874 446.802 318.371 446.802C260.195 446.798 204.062 446.794 152.336 446.79H152.203L152.13 446.68C144.01 434.49 139.189 420.486 137.859 406.452C136.446 392.416 138.606 378.34 143.755 365.847C148.837 353.309 156.737 342.312 166.283 333.669C171.042 329.313 176.348 325.749 181.663 322.451C186.984 319.148 192.35 316.093 197.423 312.75C202.474 309.4 207.342 305.832 211.294 301.466C215.26 297.137 218.291 292.052 219.878 286.586C221.472 281.115 221.487 275.378 220.555 269.976C219.61 264.555 217.702 259.429 215.288 254.707C212.867 249.979 209.931 245.638 206.71 241.677C203.497 237.703 199.925 234.176 196.33 230.847C189.115 224.206 181.733 218.397 175.087 212.428C171.759 209.45 168.605 206.444 165.702 203.355C162.82 200.249 160.185 197.064 157.922 193.765C153.358 187.183 150.228 180.248 148.171 173.554C146.111 166.852 145.087 160.373 144.852 154.412C144.712 152.924 144.767 151.464 144.769 150.039C144.788 148.614 144.745 147.221 144.893 145.87C144.997 144.517 145.099 143.198 145.198 141.913C145.352 140.635 145.563 139.397 145.735 138.191C147.235 128.537 150.148 121.483 152.419 116.968C152.963 115.821 153.442 114.812 153.961 113.995C154.448 113.166 154.856 112.47 155.184 111.909C155.842 110.796 156.18 110.238 156.18 110.238C156.11 110.361 155.832 110.852 155.214 111.944C154.892 112.506 154.492 113.203 154.015 114.034C153.508 114.847 153.034 115.858 152.497 117.007C150.254 121.529 147.372 128.581 145.901 138.218C145.733 139.422 145.525 140.657 145.375 141.933C145.28 143.215 145.181 144.531 145.081 145.881C144.937 147.229 144.983 148.619 144.967 150.04C144.968 151.461 144.916 152.918 145.059 154.401C145.306 160.346 146.339 166.805 148.404 173.482C150.465 180.151 153.595 187.056 158.151 193.605C160.41 196.888 163.04 200.059 165.918 203.152C168.816 206.229 171.968 209.225 175.295 212.194C181.939 218.147 189.328 223.947 196.563 230.593C200.167 233.923 203.756 237.46 206.988 241.45C210.227 245.426 213.181 249.784 215.62 254.536C218.052 259.283 219.978 264.441 220.936 269.909C221.881 275.357 221.872 281.157 220.263 286.695C218.662 292.228 215.597 297.374 211.598 301.744C207.613 306.152 202.72 309.741 197.656 313.105C192.569 316.461 187.202 319.521 181.892 322.821C176.586 326.118 171.312 329.666 166.581 334.001C157.091 342.604 149.235 353.549 144.186 366.023C139.07 378.452 136.929 392.446 138.339 406.406C139.666 420.362 144.467 434.288 152.541 446.403L152.335 446.293C204.061 446.289 260.193 446.286 318.37 446.282C319.873 446.282 321.374 446.282 322.758 446.282L322.528 446.421C324.666 442.11 326.407 437.595 327.905 433.04C329.405 428.48 330.626 423.843 331.546 419.164C333.405 409.813 334.072 400.265 333.2 390.902C332.39 381.54 329.915 372.391 325.913 364.052C323.882 359.902 321.572 355.891 318.818 352.218C316.158 348.478 313.059 345.1 309.993 341.724C303.825 335.006 297.423 328.614 290.828 322.559C284.263 316.467 277.414 310.828 270.924 304.892C267.701 301.91 264.574 298.801 262.022 295.245C259.432 291.722 257.638 287.629 256.828 283.377C256.436 281.251 256.195 279.1 256.182 276.953C256.132 275.879 256.192 274.81 256.214 273.741C256.254 272.673 256.396 271.613 256.482 270.551C256.806 266.299 257.796 262.137 259.178 258.163C262.026 250.198 267.212 243.353 273.309 237.905C276.329 235.134 279.522 232.61 282.669 230.095C284.244 228.839 285.801 227.573 287.308 226.265C288.79 224.948 290.276 223.574 291.869 222.374C295.046 219.97 298.276 217.71 301.371 215.318C304.471 212.935 307.454 210.448 310.253 207.808C313.047 205.165 315.686 202.399 318.068 199.457C320.422 196.497 322.602 193.432 324.454 190.203C328.179 183.76 330.702 176.797 332.122 169.761C333.497 162.706 333.726 155.595 333.212 148.703C332.722 141.797 331.325 135.126 329.619 128.72C327.962 122.286 325.619 116.21 323.301 110.306L323.471 110.42C271.781 110.382 229.972 110.351 201.081 110.33C186.63 110.309 175.411 110.293 167.799 110.282C163.995 110.272 161.093 110.264 159.138 110.259C157.187 110.254 156.18 110.238 156.18 110.238Z" fill="#263238"/>
<path d="M316.67 156.533C341.771 160.659 302.194 205.115 279.793 222.657C266.822 232.815 252.891 243.83 246.731 259.11C239.742 276.446 244.922 295.931 241.535 313.37C240.973 316.265 236.693 315.81 236.736 312.861C236.903 301.415 236.598 289.974 234.701 278.704C232.011 262.721 225.866 246.909 214.664 235.195C205.52 225.634 193.53 219.28 183.776 210.341C169.535 197.291 154.907 180.459 153.48 161.196C153.48 161.196 180.822 139.172 195.999 141.952C213.736 145.201 231.197 172.57 258.681 169.436C277.871 167.247 287.555 151.748 316.67 156.533Z" fill="#FBBA2D"/>
<path d="M318.9 394.479C318.266 388.202 316.592 381.098 311.021 378.137C307.646 376.343 303.537 376.543 299.841 377.515C296.145 378.487 292.672 380.168 289.008 381.256C281.799 383.397 273.902 383.147 266.843 380.554C260.033 378.052 254.187 373.53 247.863 369.975C241.539 366.42 234.137 363.77 227.097 365.522C214.957 368.543 208.639 383.158 196.637 386.687C191.302 388.255 185.574 387.375 180.151 386.146C174.728 384.917 169.284 383.34 163.728 383.548C159.374 383.711 154.844 385.216 151.792 388.2L151.824 388.158C151.793 388.189 151.767 388.222 151.736 388.254C151.234 388.751 150.773 389.288 150.36 389.867C146.637 394.83 146.042 401.503 147.187 407.563C148.469 414.348 151.639 420.62 155.041 426.629C159.048 433.707 163.599 440.755 170.224 445.474C178.397 451.296 188.675 447.278 198.678 448.067C222.011 449.908 247.115 451.165 270.451 449.356C282.777 448.4 294.33 449.736 304.111 442.174C310.993 436.854 315.468 428.835 317.626 420.408C319.785 411.981 319.774 403.133 318.9 394.479Z" fill="#FBBA2D"/>
<g opacity="0.24">
<path d="M274.863 382.456C273.545 384.473 272.984 387.175 274.254 389.223C275.524 391.271 277.241 393.132 277.792 395.478C278.657 399.162 276.439 402.765 274.785 406.169C271.826 412.258 270.48 419.204 271.478 425.9C272.476 432.596 275.911 438.993 281.27 443.129C283.64 444.958 286.719 446.376 289.575 445.481C292.264 444.638 294.003 441.909 294.537 439.142C295.071 436.375 294.63 433.525 294.279 430.729C292.649 417.752 292.983 404.53 295.266 391.652C295.648 389.499 296.013 387.041 294.648 385.332C293.777 384.241 292.387 383.728 291.062 383.286C285.861 381.555 280.248 383.479 274.863 382.456Z" fill="black"/>
</g>
<path d="M139.829 454.28C139.829 454.28 139.361 446.458 149.562 442.104H328.813C328.813 442.104 338.161 446.835 339.312 454.118L139.829 454.28Z" fill="#263238"/>
<path d="M325.016 111.191C324.923 111.235 324.828 111.279 324.732 111.323L156.181 110.238C156.181 110.238 155.583 109.855 154.686 109.154C149.884 105.398 152.579 97.6832 158.675 97.7322L322.267 99.0532C329.02 99.1082 331.122 108.306 325.016 111.191Z" fill="#263238"/>
<g opacity="0.24">
<path d="M298.04 175.487C298.379 176.137 297.115 177.542 294.698 179.687C292.274 181.834 288.735 184.779 284.237 188.405C279.714 192.001 274.235 196.337 267.255 200.383C263.759 202.403 259.867 204.236 255.611 205.727C253.471 206.445 251.253 207.112 248.92 207.577C246.601 208.074 244.18 208.404 241.691 208.518C236.727 208.803 231.678 208.076 227.16 206.532C222.667 204.973 218.835 202.776 215.484 200.572C212.124 198.344 209.227 196.145 206.497 194.04C203.778 191.93 201.3 189.896 199.085 187.983C190.231 180.312 185.575 174.671 186.473 173.582C187.401 172.45 193.668 176.038 203.436 182.04C205.877 183.539 208.548 185.179 211.414 186.938C214.277 188.682 217.357 190.607 220.497 192.387C223.647 194.167 226.934 195.786 230.343 196.836C233.729 197.848 237.34 198.329 241.181 198.114C248.858 197.722 256.308 195.017 262.763 191.902C269.251 188.727 275.052 185.135 280.113 182.302C285.167 179.437 289.49 177.32 292.636 176.195C295.787 175.066 297.714 174.862 298.04 175.487Z" fill="black"/>
</g>
<path d="M236.864 334.262C238.714 333.611 240.925 335.472 240.599 337.406C240.273 339.34 237.573 340.373 236.039 339.151C234.505 337.929 234.908 335.067 236.72 334.317" fill="#FBBA2D"/>
<path d="M176.576 203.381C176.563 203.393 176.358 203.186 175.981 202.781C175.576 202.337 175.032 201.741 174.348 200.991C173.658 200.197 172.75 199.279 171.822 198.106C170.88 196.934 169.814 195.607 168.639 194.145C167.552 192.608 166.318 190.952 165.078 189.117C164.488 188.178 163.879 187.208 163.251 186.209C162.942 185.706 162.606 185.209 162.307 184.68C162.017 184.146 161.724 183.605 161.427 183.057C158.966 178.724 156.776 173.65 155.218 168.107C153.659 162.561 152.927 157.078 152.861 152.087C152.857 150.84 152.925 149.624 152.953 148.443C152.981 147.853 152.97 147.269 153.029 146.699C153.09 146.129 153.151 145.568 153.21 145.017C153.336 143.915 153.424 142.847 153.572 141.829C153.755 140.818 153.93 139.846 154.098 138.917C154.384 137.052 154.878 135.415 155.231 133.962C155.423 133.239 155.573 132.559 155.764 131.947C155.962 131.342 156.144 130.787 156.309 130.282C156.632 129.32 156.887 128.554 157.078 127.984C157.26 127.461 157.363 127.189 157.38 127.195C157.397 127.201 157.327 127.484 157.178 128.017C157.01 128.593 156.786 129.367 156.503 130.34C156.351 130.848 156.185 131.406 156.003 132.014C155.827 132.628 155.69 133.31 155.512 134.033C155.187 135.488 154.721 137.123 154.46 138.983C154.303 139.908 154.139 140.877 153.968 141.884C153.832 142.897 153.756 143.96 153.639 145.056C153.585 145.604 153.529 146.162 153.473 146.728C153.419 147.295 153.434 147.874 153.41 148.46C153.39 149.633 153.33 150.84 153.341 152.078C153.434 157.031 154.172 162.463 155.718 167.963C157.263 173.461 159.423 178.503 161.848 182.824C162.14 183.37 162.43 183.91 162.714 184.442C163.008 184.969 163.338 185.466 163.641 185.969C164.258 186.968 164.858 187.938 165.438 188.877C166.657 190.714 167.868 192.375 168.932 193.921C170.081 195.397 171.124 196.735 172.046 197.918C172.95 199.105 173.836 200.041 174.501 200.854C175.154 201.63 175.672 202.248 176.059 202.707C176.411 203.139 176.589 203.369 176.576 203.381Z" fill="#263238"/>
<path d="M167.087 351.943C167.079 351.939 167.143 351.827 167.274 351.614C167.422 351.38 167.619 351.069 167.869 350.674C168.14 350.254 168.468 349.747 168.852 349.153C169.048 348.852 169.259 348.528 169.483 348.184C169.729 347.854 170.017 347.521 170.308 347.159C170.899 346.437 171.555 345.636 172.27 344.762C173.04 343.933 173.922 343.074 174.847 342.129C176.746 340.293 179.042 338.333 181.712 336.352C187.02 332.329 193.868 328.331 201.291 323.666C204.975 321.295 208.852 318.797 212.518 315.756C216.189 312.739 219.728 309.26 222.593 305.11C228.243 296.71 230.538 286.978 230.738 278.28C230.966 269.515 229.102 261.709 226.905 255.486C224.682 249.241 222.132 244.487 220.281 241.281C219.355 239.674 218.594 238.45 218.071 237.626C217.823 237.229 217.629 236.917 217.482 236.683C217.352 236.469 217.289 236.357 217.296 236.352C217.303 236.347 217.381 236.449 217.526 236.654C217.683 236.882 217.892 237.184 218.158 237.569C218.711 238.376 219.5 239.584 220.455 241.179C222.364 244.36 224.973 249.103 227.252 255.363C229.504 261.6 231.421 269.451 231.218 278.292C231.181 280.496 231.003 282.753 230.666 285.036C230.35 287.322 229.867 289.636 229.202 291.943C227.916 296.568 225.852 301.16 223.024 305.403C220.121 309.61 216.541 313.12 212.84 316.153C209.142 319.21 205.246 321.708 201.547 324.073C194.096 328.725 187.245 332.68 181.931 336.65C179.257 338.605 176.956 340.535 175.048 342.342C174.119 343.272 173.23 344.117 172.454 344.932C171.729 345.791 171.066 346.578 170.467 347.288C170.171 347.644 169.878 347.97 169.627 348.295C169.397 348.633 169.181 348.95 168.979 349.246C168.58 349.828 168.239 350.324 167.958 350.735C167.69 351.118 167.479 351.42 167.32 351.646C167.173 351.845 167.094 351.948 167.087 351.943Z" fill="#263238"/>
<path d="M157.786 369.613C157.801 369.623 157.725 369.782 157.567 370.077C157.375 370.42 157.14 370.84 156.855 371.35C156.533 371.894 156.151 372.567 155.765 373.379C155.371 374.186 154.873 375.079 154.451 376.129C154.226 376.649 153.991 377.191 153.747 377.755C153.506 378.322 153.309 378.933 153.074 379.553C152.585 380.788 152.206 382.155 151.774 383.582C151.004 386.463 150.361 389.685 150.028 393.112C149.732 396.544 149.778 399.831 150.011 402.803C150.177 404.285 150.3 405.699 150.556 407.002C150.674 407.655 150.756 408.292 150.89 408.893C151.027 409.492 151.16 410.068 151.286 410.62C151.509 411.729 151.837 412.698 152.077 413.563C152.309 414.431 152.562 415.162 152.779 415.756C152.967 416.309 153.121 416.764 153.248 417.137C153.35 417.455 153.395 417.626 153.379 417.633C153.362 417.64 153.284 417.483 153.151 417.177C153 416.813 152.814 416.367 152.59 415.827C152.342 415.241 152.06 414.517 151.8 413.652C151.531 412.79 151.177 411.822 150.929 410.711C150.791 410.157 150.647 409.579 150.497 408.979C150.351 408.375 150.258 407.735 150.13 407.079C149.854 405.768 149.712 404.344 149.532 402.849C149.27 399.851 149.209 396.531 149.508 393.066C149.844 389.606 150.508 386.353 151.311 383.453C151.76 382.016 152.158 380.642 152.668 379.403C152.913 378.781 153.121 378.168 153.374 377.601C153.631 377.038 153.877 376.496 154.114 375.976C154.56 374.929 155.085 374.041 155.506 373.243C155.919 372.44 156.328 371.779 156.679 371.248C156.998 370.757 157.262 370.353 157.477 370.023C157.665 369.744 157.77 369.603 157.786 369.613Z" fill="#263238"/>
<path d="M281.423 393.646C281.428 393.654 281.359 393.703 281.22 393.794C281.053 393.898 280.849 394.026 280.596 394.184C280.005 394.539 279.195 395.026 278.17 395.642C277.637 395.958 277.05 396.306 276.409 396.685C275.754 397.046 275.016 397.389 274.237 397.783C272.664 398.542 270.918 399.508 268.857 400.287C267.838 400.705 266.772 401.142 265.662 401.598C264.547 402.045 263.344 402.39 262.122 402.813C259.688 403.702 256.993 404.335 254.177 405.07C248.498 406.334 242.144 407.26 235.424 407.475C228.7 407.611 222.304 407.017 216.566 406.052C213.715 405.466 210.991 404.974 208.513 404.213C207.27 403.855 206.05 403.572 204.914 403.184C203.781 402.787 202.694 402.406 201.654 402.042C199.556 401.372 197.761 400.499 196.151 399.823C195.352 399.47 194.598 399.165 193.925 398.839C193.266 398.494 192.661 398.176 192.112 397.889C191.056 397.327 190.222 396.884 189.613 396.56C189.353 396.416 189.142 396.298 188.97 396.203C188.827 396.12 188.755 396.074 188.76 396.066C188.764 396.058 188.844 396.089 188.996 396.157C189.174 396.24 189.393 396.342 189.663 396.468C190.281 396.77 191.129 397.184 192.202 397.708C192.755 397.982 193.365 398.285 194.03 398.614C194.707 398.926 195.465 399.216 196.267 399.555C197.883 400.203 199.68 401.05 201.778 401.694C202.816 402.047 203.903 402.415 205.034 402.799C206.169 403.175 207.386 403.446 208.625 403.794C211.096 404.534 213.81 405.007 216.648 405.578C222.361 406.513 228.722 407.088 235.409 406.953C242.092 406.739 248.412 405.832 254.068 404.6C256.872 403.882 259.558 403.268 261.986 402.4C263.205 401.988 264.407 401.654 265.52 401.219C266.63 400.776 267.695 400.351 268.714 399.945C270.775 399.192 272.526 398.253 274.106 397.521C274.889 397.14 275.631 396.811 276.291 396.464C276.938 396.1 277.531 395.766 278.069 395.463C279.113 394.884 279.939 394.426 280.54 394.092C280.803 393.952 281.017 393.839 281.19 393.746C281.34 393.673 281.418 393.638 281.423 393.646Z" fill="#263238"/>
<path d="M291.851 182.006C291.856 182.013 291.784 182.08 291.638 182.204C291.468 182.344 291.252 182.522 290.982 182.744C290.369 183.233 289.515 183.915 288.429 184.782C286.204 186.541 282.988 189.092 278.923 192.131C274.85 195.153 269.916 198.673 264.049 201.964C261.087 203.546 257.933 205.163 254.467 206.373C251.013 207.591 247.3 208.525 243.41 208.832C235.597 209.361 228.191 207.381 222.165 204.413C219.152 202.903 216.434 201.211 213.96 199.533C211.518 197.81 209.289 196.143 207.317 194.545C203.358 191.368 200.256 188.679 198.101 186.836C197.05 185.928 196.224 185.213 195.63 184.7C195.369 184.468 195.161 184.282 194.996 184.135C194.855 184.005 194.785 183.936 194.791 183.929C194.797 183.922 194.878 183.978 195.03 184.094C195.204 184.231 195.423 184.404 195.698 184.62C196.306 185.115 197.154 185.804 198.232 186.681C200.427 188.477 203.565 191.123 207.546 194.257C209.529 195.834 211.764 197.477 214.205 199.177C216.677 200.831 219.386 202.498 222.377 203.982C228.356 206.897 235.672 208.832 243.373 208.312C247.205 208.009 250.874 207.092 254.296 205.892C257.73 204.701 260.868 203.105 263.819 201.543C269.667 198.293 274.611 194.814 278.706 191.834C282.793 188.838 286.043 186.331 288.306 184.621C289.417 183.787 290.291 183.131 290.919 182.661C291.201 182.456 291.428 182.291 291.607 182.162C291.763 182.052 291.846 181.999 291.851 182.006Z" fill="#263238"/>
<g opacity="0.24">
<path d="M201.664 402.046C206.402 398.387 213.06 399.275 218.919 400.506C224.777 401.737 230.679 403.741 236.608 402.911C241.076 402.286 245.175 400.087 249.585 399.132C253.994 398.177 259.344 398.883 261.789 402.675C242.389 408.982 220.928 408.758 201.664 402.046Z" fill="black"/>
</g>
<path d="M367.035 374.91L345.498 350.796L345.28 380.108L351.762 398.909L287.341 410.083L284.609 359.253L279.971 320.216C279.403 315.433 282.131 310.868 286.613 309.103L304.342 302.122L329.312 306.703L339.357 310.521C343.574 312.124 347.333 314.738 350.303 318.135L380.54 352.713" fill="#203864"/>
<path d="M343.988 345.03C343.993 344.927 345.405 345.136 347.626 344.774C349.824 344.431 352.862 343.356 355.382 341.037C357.898 338.712 359.216 335.771 359.735 333.607C360.275 331.423 360.182 329.999 360.284 330.002C360.315 330.001 360.366 330.352 360.375 330.992C360.386 331.632 360.324 332.563 360.094 333.69C359.655 335.927 358.349 339.004 355.735 341.42C353.117 343.83 349.944 344.883 347.679 345.139C346.537 345.277 345.604 345.264 344.967 345.201C344.329 345.14 343.984 345.061 343.988 345.03Z" fill="white"/>
<path d="M345.873 378.86C346.024 378.859 346.062 368.704 345.96 356.182C345.857 343.656 345.652 333.505 345.502 333.507C345.351 333.508 345.313 343.661 345.415 356.187C345.517 368.709 345.722 378.861 345.873 378.86Z" fill="#263238"/>
<path d="M343.512 386.311L304.586 370.641C301.447 369.377 299.296 366.441 299.039 363.067L296.19 325.747C296.19 325.747 296.527 309.875 286.613 309.102L280.973 311.323C273.684 315.194 271.878 325.807 272.87 334.001C274.28 345.644 274.867 362.12 276.445 372.225C277.736 380.491 282.47 387.762 290.56 389.891L338.504 400.27L343.512 386.311Z" fill="#203864"/>
<path d="M296.748 331.44C296.766 331.439 296.808 331.733 296.871 332.295C296.933 332.903 297.016 333.723 297.121 334.754C297.32 336.941 297.6 340.021 297.944 343.805C298.274 347.643 298.664 352.189 299.098 357.233C299.204 358.497 299.313 359.792 299.424 361.115C299.54 362.438 299.62 363.793 299.921 365.108C300.206 366.428 300.84 367.664 301.856 368.605C302.866 369.55 304.129 370.241 305.448 370.84C316.182 375.485 326.074 379.319 333.255 382.009C336.82 383.322 339.72 384.391 341.78 385.15C342.752 385.508 343.525 385.793 344.098 386.005C344.626 386.205 344.901 386.318 344.895 386.336C344.889 386.353 344.603 386.273 344.064 386.105C343.483 385.916 342.699 385.662 341.713 385.342C339.676 384.667 336.739 383.655 333.128 382.356C325.905 379.751 315.997 375.974 305.232 371.315C303.894 370.706 302.579 369.993 301.5 368.983C300.412 367.979 299.714 366.603 299.425 365.225C299.114 363.844 299.041 362.479 298.929 361.16C298.824 359.837 298.721 358.541 298.62 357.276C298.228 352.228 297.875 347.678 297.577 343.836C297.302 340.046 297.078 336.962 296.919 334.771C296.855 333.737 296.804 332.915 296.766 332.305C296.736 331.738 296.73 331.441 296.748 331.44Z" fill="#263238"/>
<path d="M274.446 351.728C274.464 351.727 274.489 351.9 274.523 352.229C274.558 352.618 274.6 353.094 274.652 353.67C274.768 355 274.924 356.79 275.114 358.966C275.327 361.199 275.598 363.858 275.986 366.796C276.386 369.729 276.859 372.965 277.744 376.25C278.163 377.909 278.752 379.441 279.644 380.757C280.536 382.084 281.527 383.275 282.552 384.33C284.61 386.435 286.807 387.978 288.781 389.003C292.764 391.073 295.659 391.103 295.618 391.241C295.617 391.259 295.443 391.254 295.112 391.229C294.781 391.206 294.291 391.168 293.672 391.043C292.431 390.824 290.646 390.337 288.615 389.33C286.587 388.33 284.327 386.791 282.211 384.666C281.158 383.601 280.14 382.393 279.222 381.042C278.291 379.687 277.659 378.048 277.243 376.388C276.345 373.053 275.888 369.806 275.511 366.857C275.148 363.905 274.914 361.238 274.748 358.996C274.584 356.754 274.497 354.937 274.451 353.681C274.439 353.102 274.428 352.625 274.42 352.234C274.418 351.903 274.428 351.728 274.446 351.728Z" fill="#263238"/>
<path d="M291.091 377.843C291.038 377.828 291.203 376.996 291.8 375.769C292.389 374.545 293.48 372.962 295.068 371.6C296.662 370.244 298.396 369.415 299.698 369.024C301.003 368.627 301.851 368.594 301.858 368.649C301.874 368.736 301.057 368.898 299.819 369.372C298.582 369.841 296.943 370.69 295.407 371.996C293.877 373.309 292.782 374.795 292.125 375.943C291.463 377.09 291.175 377.872 291.091 377.843Z" fill="#263238"/>
<path d="M298.748 349.461C298.753 349.453 298.836 349.491 298.995 349.57C299.179 349.666 299.408 349.786 299.692 349.935C300.317 350.229 301.228 350.691 302.469 351.113C304.916 351.963 308.751 352.827 313.379 352.045C317.948 351.298 323.261 348.605 326.941 343.619C328.762 341.157 330.172 338.124 330.492 334.8C330.653 333.149 330.518 331.429 329.973 329.81C329.439 328.195 328.461 326.696 327.166 325.522C325.878 324.345 324.278 323.516 322.597 323.302C320.941 323.04 319.166 323.478 318.017 324.588C317.462 325.146 317.116 325.892 317.124 326.66C317.122 327.427 317.417 328.184 317.876 328.799C318.798 330.058 320.351 330.645 321.836 330.864C324.869 331.281 327.849 330.732 330.344 329.647C332.851 328.554 334.899 326.93 336.374 325.138C337.852 323.338 338.763 321.392 339.307 319.627C339.854 317.855 340.021 316.248 340.048 314.944C340.068 313.636 339.931 312.624 339.829 311.941C339.771 311.626 339.724 311.372 339.687 311.168C339.656 310.993 339.645 310.902 339.654 310.9C339.654 310.9 340.205 312.287 340.251 314.944C340.256 316.264 340.117 317.899 339.587 319.71C339.06 321.514 338.156 323.512 336.661 325.371C335.168 327.222 333.083 328.905 330.519 330.043C327.963 331.173 324.913 331.758 321.766 331.34C320.22 331.117 318.524 330.508 317.478 329.097C316.965 328.413 316.622 327.561 316.621 326.66C316.609 325.756 317.021 324.866 317.657 324.229C318.961 322.966 320.89 322.517 322.668 322.789C324.468 323.018 326.163 323.9 327.518 325.137C328.88 326.373 329.904 327.943 330.466 329.646C331.036 331.346 331.172 333.137 331.002 334.848C330.662 338.289 329.201 341.393 327.329 343.904C323.544 348.987 318.102 351.693 313.442 352.408C308.725 353.155 304.851 352.219 302.403 351.303C299.925 350.359 298.748 349.461 298.748 349.461Z" fill="white"/>
<path d="M273.25 339.507C273.226 339.485 273.444 339.194 273.889 338.71C274.338 338.23 275.033 337.571 275.992 336.881C277.881 335.46 281.01 334.168 284.603 333.829C286.399 333.638 288.142 333.724 289.678 334.042C291.216 334.361 292.539 334.879 293.589 335.416C294.641 335.95 295.437 336.477 295.967 336.864C296.495 337.254 296.767 337.495 296.748 337.522C296.694 337.604 295.53 336.724 293.43 335.749C291.353 334.755 288.174 333.926 284.658 334.348C281.137 334.683 278.102 335.875 276.201 337.185C274.275 338.467 273.322 339.58 273.25 339.507Z" fill="white"/>
<path d="M279.476 312.821C279.556 312.733 280.476 314.007 282.627 315.111C283.69 315.663 285.064 316.125 286.637 316.287C288.204 316.453 289.975 316.274 291.658 315.594C293.33 314.886 294.71 313.761 295.702 312.535C296.701 311.309 297.346 310.011 297.709 308.869C298.45 306.568 298.201 305.017 298.32 305.022C298.347 305.019 298.425 305.393 298.45 306.083C298.478 306.772 298.396 307.781 298.062 308.977C297.732 310.172 297.099 311.54 296.077 312.836C295.063 314.131 293.625 315.328 291.858 316.075C290.081 316.794 288.217 316.963 286.585 316.764C284.947 316.568 283.532 316.048 282.454 315.436C281.373 314.826 280.601 314.169 280.134 313.663C279.664 313.158 279.454 312.838 279.476 312.821Z" fill="white"/>
<path d="M313.396 374.188C313.378 374.186 313.406 373.933 313.477 373.451C313.587 372.98 313.741 372.266 314.167 371.437C314.952 369.76 316.908 367.66 319.994 366.379C323.037 365.012 327.221 364.748 331.439 365.969C333.496 366.582 335.858 367.337 337.403 369.347C338.158 370.335 338.417 371.807 337.841 373.007C337.29 374.214 336.206 375.044 335.067 375.625C333.906 376.192 332.646 376.513 331.382 376.538C330.129 376.562 328.822 376.251 327.844 375.441C326.857 374.643 326.337 373.41 326.26 372.234C326.169 371.048 326.41 369.902 326.79 368.862C328.449 364.698 331.804 362.051 334.813 360.741C337.872 359.402 340.642 359.262 342.47 359.426C344.314 359.616 345.268 360.015 345.268 360.015C345.252 360.083 344.277 359.753 342.455 359.628C340.648 359.528 337.937 359.725 334.965 361.077C333.49 361.751 331.968 362.718 330.597 364.042C329.232 365.359 328.005 367.047 327.242 369.027C326.884 370.021 326.667 371.108 326.757 372.195C326.836 373.275 327.301 374.349 328.169 375.049C329.027 375.758 330.205 376.047 331.375 376.023C332.552 376 333.748 375.695 334.837 375.163C335.909 374.62 336.9 373.839 337.371 372.798C337.862 371.764 337.656 370.537 336.991 369.648C336.332 368.74 335.369 368.085 334.387 367.581C333.398 367.081 332.338 366.742 331.311 366.435C327.181 365.216 323.125 365.435 320.138 366.724C317.107 367.934 315.173 369.927 314.35 371.535C313.495 373.145 313.47 374.209 313.396 374.188Z" fill="white"/>
<path d="M287.481 388.241C287.465 388.143 288.965 388.016 291.214 387.215C293.449 386.432 296.428 384.827 298.866 382.131C301.304 379.433 302.601 376.307 303.155 374.005C303.726 371.687 303.701 370.183 303.801 370.188C303.832 370.188 303.868 370.561 303.856 371.238C303.846 371.915 303.759 372.896 303.514 374.087C303.042 376.455 301.765 379.7 299.252 382.48C296.739 385.259 293.64 386.855 291.331 387.563C290.171 387.926 289.203 388.111 288.531 388.19C287.859 388.271 287.484 388.273 287.481 388.241Z" fill="white"/>
<path d="M274.865 359.231C274.86 359.214 275.021 359.149 275.335 359.043C275.649 358.94 276.115 358.796 276.725 358.642C277.94 358.348 279.752 357.945 282.027 358.103C283.159 358.192 284.399 358.45 285.632 358.994C286.858 359.537 288.085 360.391 288.995 361.633C289.887 362.874 290.435 364.487 290.302 366.171C290.24 367.01 289.983 367.853 289.53 368.606C289.074 369.347 288.39 370.02 287.49 370.312C286.603 370.591 285.561 370.449 284.86 369.792C284.168 369.122 283.995 368.182 283.953 367.366C283.89 365.706 284.249 364.115 284.87 362.735C286.108 359.944 288.412 358.111 290.547 357.348C292.698 356.552 294.606 356.611 295.841 356.824C296.465 356.932 296.936 357.071 297.249 357.181C297.56 357.298 297.719 357.367 297.713 357.384C297.697 357.435 297.045 357.177 295.812 357.024C294.592 356.876 292.738 356.879 290.68 357.691C288.637 358.472 286.471 360.25 285.308 362.93C284.726 364.252 284.397 365.774 284.462 367.34C284.501 368.105 284.68 368.908 285.216 369.415C285.743 369.915 286.601 370.047 287.332 369.815C288.072 369.577 288.678 368.999 289.088 368.334C289.495 367.659 289.733 366.897 289.793 366.128C289.923 364.586 289.425 363.073 288.604 361.912C287.768 360.749 286.618 359.922 285.453 359.386C284.281 358.848 283.089 358.578 281.994 358.468C279.788 358.267 277.987 358.605 276.769 358.837C275.546 359.09 274.876 359.271 274.865 359.231Z" fill="white"/>
<g opacity="0.3">
<path d="M332.325 381.862C328.163 379.511 324.09 377.704 319.738 375.727C315.386 373.749 311.123 371.21 308.275 367.371C302.903 360.13 303.515 349.68 298.016 342.535C298.375 347.34 298.734 352.144 299.093 356.949C299.422 361.352 298.747 365.707 301.584 368.699C303.973 371.22 308.632 373.153 311.931 374.241C318.559 376.428 325.696 379.676 332.325 381.862Z" fill="black"/>
</g>
<path d="M399.963 436.713C399.963 436.713 432.533 445.727 433.839 446.187C435.801 446.878 435.472 454.066 432.418 453.954C430.974 453.901 407.401 454.832 404.423 454.646C401.444 454.46 392.459 450.919 392.459 450.919L399.963 436.713Z" fill="#203864"/>
<path d="M413.53 449.141C413.694 449.163 413.914 447.441 414.965 445.644C415.991 443.832 417.37 442.776 417.268 442.646C417.211 442.52 415.593 443.438 414.493 445.372C413.374 447.294 413.393 449.155 413.53 449.141Z" fill="#263238"/>
<path d="M410.136 447.601C410.296 447.629 410.625 446.089 411.493 444.388C412.344 442.678 413.384 441.496 413.267 441.384C413.177 441.277 411.905 442.342 411.006 444.143C410.094 445.936 409.996 447.592 410.136 447.601Z" fill="#263238"/>
<path d="M406.95 446.748C407.114 446.738 406.989 445.111 407.712 443.307C408.404 441.491 409.6 440.38 409.486 440.261C409.421 440.137 407.96 441.144 407.205 443.109C406.428 445.064 406.818 446.795 406.95 446.748Z" fill="#263238"/>
<path d="M407.528 442.541C407.586 442.556 407.875 441.646 407.877 440.118C407.875 439.357 407.787 438.446 407.547 437.462C407.428 436.97 407.267 436.462 407.062 435.95C406.957 435.692 406.836 435.394 406.54 435.152C406.236 434.879 405.683 434.936 405.422 435.207C405.123 435.467 405.029 435.834 404.988 436.128C404.955 436.427 404.939 436.706 404.945 436.988C404.953 437.549 405.025 438.086 405.146 438.582C405.387 439.577 405.775 440.411 406.148 441.072C406.907 442.394 407.565 443.069 407.611 443.033C407.685 442.981 407.14 442.222 406.49 440.894C406.17 440.23 405.836 439.414 405.636 438.473C405.536 438.003 405.479 437.502 405.479 436.985C405.494 436.485 405.486 435.859 405.779 435.618C405.934 435.489 406.074 435.481 406.21 435.582C406.354 435.692 406.474 435.915 406.567 436.151C406.769 436.638 406.933 437.12 407.06 437.588C407.316 438.524 407.44 439.396 407.491 440.131C407.588 441.606 407.44 442.528 407.528 442.541Z" fill="#263238"/>
<path d="M407.486 442.21C407.501 442.151 406.715 441.88 405.385 441.871C404.723 441.87 403.929 441.939 403.074 442.154C402.652 442.268 402.199 442.377 401.743 442.644C401.297 442.87 400.83 443.49 401.007 444.132C401.147 444.738 401.665 445.162 402.18 445.295C402.699 445.44 403.201 445.388 403.641 445.291C404.535 445.086 405.23 444.646 405.757 444.251C406.801 443.432 407.31 442.806 407.271 442.76C407.214 442.691 406.597 443.227 405.536 443.935C405.002 444.276 404.334 444.645 403.538 444.8C403.142 444.876 402.715 444.899 402.33 444.783C401.947 444.678 401.628 444.385 401.537 444.009C401.444 443.645 401.664 443.312 402.021 443.1C402.37 442.884 402.802 442.759 403.203 442.639C404.009 442.409 404.762 442.303 405.398 442.256C406.673 442.167 407.472 442.297 407.486 442.21Z" fill="#263238"/>
<path d="M418.534 449.49C418.695 449.472 418.536 448.079 419.176 446.552C419.786 445.012 420.873 444.128 420.771 444.002C420.717 443.869 419.355 444.641 418.672 446.346C417.969 448.043 418.403 449.547 418.534 449.49Z" fill="#263238"/>
<path d="M395.809 450.993C395.795 451.028 396.242 451.236 397.069 451.586C397.906 451.902 399.13 452.345 400.693 452.709C403.808 453.494 408.249 453.939 413.128 453.887C418.009 453.833 422.407 453.611 425.597 453.483C427.107 453.403 428.372 453.336 429.371 453.283C430.262 453.224 430.754 453.173 430.753 453.135C430.752 453.097 430.258 453.076 429.365 453.071C428.365 453.078 427.098 453.087 425.586 453.098C422.287 453.163 417.937 453.248 413.126 453.342C408.269 453.393 403.882 453.013 400.779 452.333C397.665 451.693 395.847 450.892 395.809 450.993Z" fill="#263238"/>
<path d="M394.847 451.735C394.891 451.81 395.782 451.289 397.287 450.63C398.774 449.992 401.003 449.227 403.45 449.605C405.904 449.981 407.644 451.629 408.777 452.774C409.919 453.959 410.588 454.747 410.654 454.691C410.703 454.65 410.147 453.785 409.06 452.512C408.51 451.883 407.813 451.153 406.9 450.493C405.998 449.83 404.836 449.266 403.535 449.067C400.91 448.665 398.596 449.542 397.124 450.28C395.63 451.045 394.814 451.682 394.847 451.735Z" fill="#263238"/>
<path d="M365.392 427.721C365.392 427.721 334.572 447.9 333.467 448.735C331.807 449.989 333.711 455.961 336.586 454.927C337.946 454.438 363.808 447.244 366.589 446.162C369.37 445.08 376.856 438.977 376.856 438.977L365.392 427.721Z" fill="#203864"/>
<path d="M356.241 443.682C356.376 443.653 355.829 441.875 354.179 440.383C352.543 438.875 350.723 438.492 350.707 438.629C350.65 438.784 352.284 439.371 353.812 440.786C355.359 442.179 356.092 443.753 356.241 443.682Z" fill="#263238"/>
<path d="M359.007 441.184C359.137 441.133 358.541 439.585 357.128 438.153C355.725 436.71 354.189 436.082 354.136 436.211C354.058 436.353 355.408 437.163 356.738 438.534C358.082 439.892 358.864 441.259 359.007 441.184Z" fill="#263238"/>
<path d="M361.783 439.404C361.923 439.409 361.769 437.641 360.436 436.014C359.119 434.372 357.422 433.856 357.397 433.994C357.325 434.142 358.801 434.837 360.012 436.357C361.249 437.856 361.624 439.444 361.783 439.404Z" fill="#263238"/>
<path d="M359.954 435.571C360.035 435.532 359.613 434.698 359.256 433.264C359.081 432.548 358.934 431.68 358.894 430.71C358.873 430.225 358.883 429.716 358.928 429.191C358.945 428.938 358.992 428.689 359.095 428.54C359.194 428.402 359.329 428.368 359.517 428.444C359.869 428.584 360.052 429.183 360.218 429.655C360.375 430.148 360.473 430.642 360.52 431.12C360.615 432.077 360.545 432.956 360.442 433.686C360.226 435.149 359.937 436.038 360.023 436.065C360.078 436.086 360.499 435.242 360.822 433.752C360.977 433.009 361.094 432.096 361.021 431.075C360.985 430.566 360.891 430.031 360.728 429.495C360.649 429.224 360.549 428.963 360.426 428.688C360.298 428.42 360.097 428.099 359.733 427.942C359.401 427.763 358.857 427.877 358.651 428.229C358.443 428.55 358.418 428.87 358.396 429.148C358.357 429.698 358.358 430.231 358.393 430.736C358.463 431.746 358.656 432.641 358.885 433.367C359.352 434.824 359.903 435.602 359.954 435.571Z" fill="#263238"/>
<path d="M359.894 435.243C359.934 435.322 360.656 434.955 361.897 434.653C362.517 434.505 363.267 434.377 364.105 434.352C364.523 434.345 364.973 434.332 365.371 434.432C365.775 434.526 366.087 434.776 366.108 435.151C366.135 435.537 365.92 435.913 365.587 436.129C365.255 436.357 364.842 436.464 364.441 436.512C363.636 436.606 362.887 436.458 362.275 436.295C361.049 435.942 360.299 435.619 360.265 435.703C360.242 435.758 360.917 436.2 362.161 436.664C362.783 436.88 363.579 437.088 364.493 437.013C364.942 436.972 365.436 436.868 365.886 436.573C366.336 436.29 366.702 435.728 366.651 435.109C366.625 434.443 365.992 433.995 365.498 433.914C364.982 433.798 364.518 433.831 364.081 433.851C363.201 433.906 362.423 434.081 361.793 434.283C360.528 434.695 359.862 435.191 359.894 435.243Z" fill="#263238"/>
<path d="M340.512 453.801C340.547 453.849 341.03 453.489 341.266 452.607C341.524 451.746 341.362 450.422 340.689 449.262C340.367 448.677 339.998 448.17 339.656 447.723C339.319 447.275 338.97 446.87 338.61 446.6C338.254 446.322 337.881 446.197 337.625 446.188C337.367 446.177 337.236 446.24 337.24 446.272C337.241 446.357 337.791 446.316 338.361 446.895C338.65 447.17 338.938 447.557 339.25 448.019C339.566 448.477 339.91 448.976 340.211 449.524C340.835 450.611 341.021 451.735 340.889 452.529C340.777 453.327 340.44 453.748 340.512 453.801Z" fill="#263238"/>
<path d="M351.578 445.534C351.721 445.549 351.677 443.984 350.493 442.581C349.324 441.164 347.792 440.843 347.781 440.985C347.722 441.136 349.026 441.648 350.075 442.93C351.149 444.191 351.419 445.566 351.578 445.534Z" fill="#263238"/>
<path d="M373.687 440.065C373.66 440.033 373.188 440.38 372.332 440.995C371.465 441.595 370.192 442.435 368.532 443.323C366.874 444.213 364.828 445.137 362.496 446.01C360.162 446.88 357.545 447.701 354.777 448.503C349.232 450.099 344.213 451.559 340.591 452.648C338.854 453.181 337.413 453.624 336.308 453.963C335.3 454.285 334.748 454.48 334.758 454.517C334.768 454.553 335.341 454.427 336.366 454.167C337.483 453.871 338.94 453.485 340.696 453.019C344.346 452.024 349.378 450.624 354.929 449.026C357.702 448.222 360.331 447.382 362.674 446.479C365.015 445.573 367.067 444.603 368.718 443.66C370.371 442.719 371.625 441.821 372.458 441.164C373.282 440.493 373.708 440.09 373.687 440.065Z" fill="#263238"/>
<path d="M374.83 440.48C374.846 440.419 373.874 440.06 372.218 439.785C370.591 439.529 368.12 439.396 365.741 440.576C364.562 441.161 363.626 442.051 362.968 442.957C362.299 443.864 361.856 444.77 361.523 445.537C360.873 447.08 360.607 448.073 360.666 448.097C360.746 448.13 361.144 447.177 361.872 445.7C362.604 444.265 363.761 442.166 365.985 441.063C368.202 439.959 370.558 440.011 372.168 440.167C373.803 440.339 374.811 440.565 374.83 440.48Z" fill="#263238"/>
<path d="M429.441 378.507C429.441 378.507 438.687 381.808 438.725 392.176C438.799 412.034 398.6 433.924 398.6 433.924L345.105 398.479L341.752 397.122C341.752 397.122 413.966 369.996 429.441 378.507Z" fill="#263238"/>
<path d="M372.204 416.382C372.227 416.412 372.722 416.074 373.597 415.437C374.474 414.802 375.725 413.858 377.256 412.674C380.319 410.307 384.486 406.951 388.969 403.104C393.452 399.253 397.399 395.641 400.202 392.971C401.604 391.637 402.725 390.543 403.486 389.772C404.248 389.003 404.657 388.565 404.631 388.538C404.605 388.511 404.147 388.897 403.34 389.618C402.466 390.407 401.321 391.441 399.94 392.688C397.072 395.283 393.09 398.844 388.614 402.69C384.137 406.532 380.015 409.93 377.016 412.372C375.574 413.549 374.379 414.524 373.467 415.269C372.632 415.958 372.181 416.352 372.204 416.382Z" fill="#455A64"/>
<path d="M414.339 385.93C414.359 385.797 411.973 385.563 409.184 386.398C406.388 387.212 404.511 388.703 404.601 388.804C404.69 388.946 406.64 387.703 409.339 386.921C412.028 386.113 414.341 386.097 414.339 385.93Z" fill="#455A64"/>
<path d="M409.73 382.8C409.682 382.671 407.967 383.425 406.559 385.185C405.134 386.933 404.758 388.768 404.895 388.788C405.051 388.842 405.636 387.176 406.984 385.528C408.309 383.864 409.815 382.941 409.73 382.8Z" fill="#455A64"/>
<path d="M432.381 445.679C432.409 445.617 431.743 445.488 431.002 446.097C430.274 446.679 429.655 447.844 429.456 449.202C429.255 450.57 429.559 451.827 429.944 452.626C430.323 453.439 430.739 453.82 430.786 453.782C430.859 453.731 430.567 453.28 430.302 452.483C430.03 451.695 429.812 450.534 429.996 449.279C430.179 448.031 430.691 446.953 431.261 446.383C431.828 445.789 432.392 445.766 432.381 445.679Z" fill="#263238"/>
<path d="M417.136 346.065L398.084 394.362L316.046 395.699L314.527 391.261L343.278 390.218L357.096 347.374L417.136 346.065Z" fill="#455A64"/>
<path d="M378.824 366.974C379.877 366.261 381.822 366.547 382.769 367.395C383.716 368.244 384.023 369.713 383.541 370.89C383.06 372.067 381.847 372.892 380.577 372.96C379.228 373.032 377.821 372.188 377.444 370.891C377.068 369.594 377.487 367.658 378.824 366.974Z" fill="#EBEBEB"/>
<path d="M403.666 436.337C403.666 436.337 328.084 386.761 324.989 385.729C321.894 384.697 314.415 379.797 306.936 381.86C299.457 383.923 292.751 390.629 289.398 400.429C287.483 406.028 286.577 415.581 286.153 422.745C285.646 431.311 288.298 439.852 293.901 446.351C296.45 449.308 299.595 451.881 303.325 453.042C304.112 453.287 304.929 453.499 305.768 453.68C320.058 456.778 334.744 450.363 342.773 438.143L344.536 435.459C344.536 435.459 393.979 453.624 394.753 453.366L403.666 436.337Z" fill="#263238"/>
<path d="M310.158 422.691C310.158 422.691 310.295 422.761 310.573 422.874C310.872 422.993 311.282 423.156 311.81 423.365C312.925 423.795 314.534 424.414 316.602 425.21C320.806 426.794 326.87 429.078 334.409 431.918C341.974 434.74 351.034 438.095 361.2 441.795C371.367 445.49 382.634 449.547 394.666 453.621L394.885 453.695L394.992 453.49C396.881 449.882 398.874 446.076 400.897 442.213C401.928 440.243 402.951 438.288 403.907 436.462L404.023 436.24L403.814 436.107C381.118 421.7 360.814 408.81 346.16 399.508C338.843 394.893 332.939 391.169 328.842 388.584C326.813 387.318 325.233 386.332 324.139 385.649C323.614 385.328 323.206 385.079 322.911 384.898C322.633 384.731 322.484 384.658 322.484 384.658C322.484 384.658 322.614 384.762 322.883 384.944C323.172 385.135 323.57 385.399 324.083 385.739C325.165 386.441 326.728 387.456 328.734 388.758C332.809 391.376 338.683 395.149 345.961 399.824C360.59 409.162 380.861 422.101 403.519 436.564L403.426 436.21C402.47 438.035 401.447 439.991 400.415 441.96C398.394 445.823 396.402 449.631 394.514 453.239L394.839 453.108C382.813 449.045 371.541 445.008 361.365 441.342C351.205 437.644 342.129 434.341 334.536 431.578C326.973 428.803 320.889 426.572 316.672 425.025C314.59 424.268 312.97 423.678 311.847 423.27C311.312 423.08 310.895 422.933 310.592 422.826C310.307 422.728 310.158 422.691 310.158 422.691Z" fill="#455A64"/>
<path d="M318.003 246.637C319.291 243.153 322.14 241.64 325.75 240.766C329.36 239.892 333.377 240.927 336.116 243.436C337.948 245.114 339.291 247.433 341.553 248.459C345.279 250.148 350.053 247.68 353.584 249.744C355.674 250.966 356.701 253.747 355.905 256.034C355.109 258.321 352.579 259.865 350.181 259.525C352.609 260.672 353.062 264.326 351.39 266.427C349.718 268.528 346.628 269.097 344.044 268.366C341.461 267.635 339.315 265.832 337.49 263.863C335.665 261.894 334.067 259.709 332.092 257.891C330.116 256.073 327.651 254.609 324.968 254.509C321.336 254.374 317.985 256.815 316.078 259.909C314.171 263.003 313.46 266.672 312.929 270.267C312.398 273.863 311.997 277.531 310.61 280.891C310.447 281.285 310.214 281.723 309.797 281.81C309.194 281.936 308.752 281.268 308.51 280.701C305.778 274.299 304.321 267.356 304.247 260.396C304.204 256.354 304.657 252.57 307.167 249.401C309.677 246.232 315.467 244.26 318.003 246.637Z" fill="#263238"/>
<path d="M309.479 262.77L303.923 303.147C302.978 310.013 307.972 316.273 314.876 316.878C321.319 317.442 327.072 312.843 327.947 306.434C328.362 303.394 328.715 300.86 328.778 300.55C328.778 300.55 339.19 300.998 341.332 290.926C342.367 286.059 343.683 275.861 344.767 266.621C345.931 256.698 339.266 247.548 329.469 245.59L328.495 245.395C317.867 243.911 310.669 252.106 309.479 262.77Z" fill="#FFBE9D"/>
<path d="M328.825 300.408C328.825 300.408 322.341 299.652 316.41 294.037C316.41 294.037 318.069 301.925 328.326 303.028L328.825 300.408Z" fill="#EB996E"/>
<path d="M340.474 272.796C340.349 273.563 339.596 274.089 338.793 273.973C337.991 273.857 337.441 273.143 337.567 272.376C337.692 271.609 338.445 271.082 339.247 271.198C340.049 271.314 340.599 272.029 340.474 272.796Z" fill="#263238"/>
<path d="M341.606 271.143C341.39 271.295 340.459 270.269 338.906 269.963C337.36 269.635 336.062 270.206 335.932 269.982C335.866 269.881 336.116 269.578 336.684 269.316C337.244 269.054 338.146 268.871 339.112 269.068C340.077 269.266 340.819 269.784 341.214 270.242C341.618 270.704 341.711 271.076 341.606 271.143Z" fill="#263238"/>
<path d="M325.152 270.283C325.027 271.05 324.274 271.576 323.471 271.46C322.669 271.344 322.119 270.63 322.244 269.863C322.369 269.096 323.122 268.569 323.924 268.685C324.727 268.8 325.277 269.516 325.152 270.283Z" fill="#263238"/>
<path d="M326.299 268.385C326.082 268.537 325.15 267.511 323.599 267.205C322.053 266.877 320.755 267.448 320.624 267.224C320.558 267.123 320.806 266.82 321.376 266.559C321.936 266.297 322.838 266.114 323.803 266.311C324.768 266.51 325.51 267.028 325.905 267.485C326.309 267.946 326.403 268.319 326.299 268.385Z" fill="#263238"/>
<path d="M329.629 281.017C329.639 280.927 330.637 280.953 332.24 281.066C332.644 281.104 333.035 281.1 333.156 280.843C333.306 280.575 333.226 280.115 333.126 279.616C332.945 278.583 332.756 277.5 332.557 276.365C331.788 271.745 331.316 267.978 331.502 267.948C331.688 267.919 332.463 271.64 333.232 276.26C333.412 277.397 333.585 278.482 333.748 279.519C333.808 279.999 333.964 280.561 333.643 281.115C333.477 281.39 333.143 281.547 332.876 281.564C332.606 281.591 332.383 281.55 332.184 281.523C330.595 281.294 329.618 281.106 329.629 281.017Z" fill="#263238"/>
<path d="M324.85 281.177C325.105 281.213 324.772 282.897 325.975 284.381C327.174 285.868 329.007 286.037 328.974 286.275C328.976 286.385 328.509 286.522 327.747 286.391C326.999 286.268 325.961 285.812 325.225 284.905C324.492 283.996 324.31 282.943 324.39 282.24C324.465 281.524 324.737 281.145 324.85 281.177Z" fill="#263238"/>
<path d="M327.913 262.385C327.676 262.776 326.166 262.267 324.303 262.123C322.442 261.941 320.867 262.181 320.701 261.754C320.629 261.551 320.965 261.206 321.64 260.916C322.31 260.626 323.326 260.426 324.443 260.522C325.56 260.621 326.526 260.994 327.134 261.397C327.749 261.799 328.019 262.198 327.913 262.385Z" fill="#263238"/>
<path d="M341.933 266.539C341.59 266.837 340.594 266.258 339.312 265.983C338.04 265.664 336.891 265.746 336.714 265.327C336.64 265.126 336.882 264.807 337.424 264.569C337.959 264.33 338.797 264.215 339.675 264.418C340.553 264.622 341.254 265.095 341.629 265.545C342.011 265.998 342.088 266.391 341.933 266.539Z" fill="#263238"/>
<path d="M308.81 270.41C308.653 270.301 302.283 266.972 301.124 273.919C299.965 280.865 307.178 280.596 307.224 280.399C307.27 280.202 308.81 270.41 308.81 270.41Z" fill="#FFBE9D"/>
<path d="M305.542 277.413C305.515 277.386 305.407 277.478 305.187 277.537C304.972 277.595 304.619 277.601 304.279 277.405C303.59 277.013 303.167 275.745 303.342 274.487C303.43 273.852 303.663 273.272 303.97 272.811C304.267 272.338 304.655 272.038 305.035 272.034C305.417 272.01 305.642 272.275 305.694 272.485C305.755 272.695 305.687 272.826 305.722 272.844C305.739 272.865 305.89 272.753 305.882 272.456C305.876 272.313 305.822 272.136 305.681 271.975C305.537 271.812 305.303 271.702 305.041 271.687C304.499 271.635 303.935 272.047 303.597 272.553C303.23 273.057 302.953 273.706 302.854 274.419C302.665 275.826 303.163 277.256 304.119 277.713C304.586 277.922 305.019 277.843 305.256 277.714C305.502 277.579 305.564 277.43 305.542 277.413Z" fill="#EB996E"/>
<path d="M347.323 264.952C342.639 265.247 337.868 263.124 334.952 259.446C332.912 256.873 331.615 253.501 328.727 251.938C326.783 250.886 324.392 250.874 322.284 251.543C320.177 252.212 318.32 253.506 316.657 254.963C317.583 260.484 315.128 265.949 312.735 271.01C312.471 271.569 312.168 272.168 311.613 272.442C310.671 272.907 309.547 272.172 308.984 271.285C308.083 269.865 307.977 268.092 308.011 266.41C308.087 262.579 308.759 258.729 310.315 255.227C311.87 251.726 314.342 248.585 317.577 246.531C321.619 243.965 326.712 243.233 331.392 244.243C336.072 245.253 340.322 247.935 343.504 251.513C344.98 253.173 346.265 255.079 346.767 257.243" fill="#263238"/>
<path d="M67.4593 427.849C67.4503 427.844 67.5093 427.701 67.6343 427.427C67.7743 427.129 67.9613 426.728 68.2013 426.219C68.6823 425.152 69.3083 423.535 69.8663 421.383C70.9683 417.083 71.3523 410.512 69.7243 402.707C68.9683 398.799 67.7493 394.607 66.2603 390.163C64.7943 385.711 63.0913 380.987 61.7003 375.881C60.3253 370.787 59.2393 365.257 59.4483 359.46C59.6593 353.652 61.3783 347.854 63.2703 342.083C65.1573 336.303 67.1093 330.652 67.6943 324.97C68.3553 319.297 67.1413 313.728 64.5573 309.165C62.0543 304.553 58.9053 300.609 56.5483 296.524C54.1543 292.452 52.6573 288.265 51.7343 284.371C49.9453 276.519 50.5723 269.904 51.4293 265.544C52.3583 261.161 53.3943 258.895 53.3943 258.895C53.4043 258.899 53.3643 259.048 53.2783 259.337C53.1803 259.652 53.0483 260.074 52.8803 260.612C52.5333 261.732 52.0853 263.405 51.6593 265.589C50.8763 269.94 50.3233 276.51 52.1483 284.275C53.0893 288.126 54.5933 292.258 56.9783 296.274C59.3293 300.311 62.4923 304.239 65.0453 308.904C67.6843 313.518 68.9533 319.268 68.2803 325.03C67.6923 330.809 65.7253 336.497 63.8423 342.27C61.9513 348.036 60.2523 353.773 60.0373 359.484C59.8233 365.192 60.8813 370.669 62.2353 375.738C63.6033 380.819 65.2863 385.544 66.7343 390.009C68.2043 394.467 69.4083 398.692 70.1413 402.628C71.7263 410.491 71.2743 417.128 70.0933 421.442C69.4963 423.602 68.8303 425.216 68.3113 426.271C68.0493 426.771 67.8433 427.164 67.6893 427.457C67.5453 427.721 67.4683 427.854 67.4593 427.849Z" fill="#263238"/>
<path d="M59.7481 300.555C59.7481 300.555 54.9621 285.251 63.5471 276.291C63.8481 275.976 64.3791 276.125 64.4571 276.554C64.9151 279.08 65.4881 286.778 59.7481 300.555Z" fill="#203864"/>
<path d="M62.6161 281.39C62.6971 281.406 62.5601 282.483 62.2941 284.213C61.9801 286.158 61.6101 288.441 61.2021 290.963C60.8021 293.486 60.4391 295.768 60.1311 297.713C59.8691 299.441 59.7121 300.513 59.6241 300.506C59.5471 300.5 59.5541 299.411 59.7101 297.661C59.8681 295.912 60.1771 293.507 60.6101 290.866C61.0421 288.226 61.5021 285.848 61.8771 284.135C62.2501 282.422 62.5341 281.374 62.6161 281.39Z" fill="#263238"/>
<path d="M65.3691 336.649C65.3691 336.649 68.2961 320.884 80.0741 316.978C80.4881 316.841 80.8871 317.22 80.7551 317.636C79.9791 320.084 76.8851 327.156 65.3691 336.649Z" fill="#203864"/>
<path d="M76.867 321.05C76.931 321.102 76.307 321.99 75.262 323.395C74.074 324.967 72.68 326.812 71.141 328.851C69.607 330.894 68.219 332.742 67.037 334.316C65.997 335.721 65.357 336.595 65.283 336.548C65.217 336.507 65.733 335.548 66.689 334.074C67.647 332.603 69.044 330.62 70.662 328.489C72.278 326.357 73.798 324.471 74.93 323.132C76.061 321.792 76.803 320.997 76.867 321.05Z" fill="#263238"/>
<path d="M62.1863 376.199C62.1863 376.199 60.4083 360.263 70.5453 353.105C70.9013 352.854 71.3933 353.101 71.3883 353.537C71.3553 356.105 70.4493 363.771 62.1863 376.199Z" fill="#203864"/>
<path d="M68.6581 357.933C68.7351 357.964 68.3951 358.995 67.8031 360.643C67.1231 362.492 66.3251 364.663 65.4431 367.061C64.5691 369.461 63.7781 371.633 63.1041 373.482C62.5171 375.129 62.1581 376.151 62.0731 376.127C61.9981 376.106 62.2141 375.039 62.7001 373.351C63.1891 371.665 63.9501 369.362 64.8801 366.853C65.8081 364.344 66.7131 362.097 67.4081 360.487C68.1021 358.877 68.5811 357.902 68.6581 357.933Z" fill="#263238"/>
<path d="M71.0604 415.98C71.0604 415.98 69.8544 399.991 80.2404 393.2C80.6054 392.962 81.0884 393.226 81.0674 393.661C80.9434 396.227 79.7624 403.855 71.0604 415.98Z" fill="#203864"/>
<path d="M78.1811 397.958C78.2571 397.992 77.8801 399.01 77.2301 400.636C76.4841 402.46 75.6091 404.6 74.6421 406.965C73.6831 409.332 72.8141 411.474 72.0741 413.298C71.4281 414.923 71.0341 415.931 70.9501 415.905C70.8761 415.882 71.1291 414.823 71.6761 413.153C72.2251 411.485 73.0691 409.212 74.0881 406.737C75.1051 404.262 76.0911 402.05 76.8421 400.466C77.5911 398.881 78.1051 397.923 78.1811 397.958Z" fill="#263238"/>
<path d="M52.8711 287.109C52.8711 287.109 38.6581 279.687 38.3791 267.28C38.3691 266.844 38.8491 266.574 39.2081 266.822C41.3201 268.282 47.1741 273.315 52.8711 287.109Z" fill="#203864"/>
<path d="M41.3301 271.542C41.3991 271.496 42.0641 272.353 43.1011 273.765C44.2551 275.361 45.6111 277.236 47.1081 279.306C48.6111 281.371 49.9711 283.24 51.1291 284.832C52.1671 286.238 52.8151 287.107 52.7481 287.164C52.6891 287.215 51.9241 286.44 50.7951 285.094C49.6691 283.747 48.1841 281.829 46.6211 279.657C45.0571 277.486 43.6991 275.481 42.7511 274.006C41.8031 272.53 41.2611 271.588 41.3301 271.542Z" fill="#263238"/>
<path d="M68.1339 319.975C68.1339 319.975 53.4959 313.429 52.4649 301.063C52.4289 300.629 52.8919 300.33 53.2639 300.555C55.4609 301.885 61.6089 306.552 68.1339 319.975Z" fill="#203864"/>
<path d="M55.669 305.138C55.735 305.088 56.451 305.903 57.572 307.249C58.821 308.772 60.288 310.561 61.908 312.536C63.533 314.506 65.004 316.289 66.257 317.808C67.379 319.149 68.078 319.976 68.015 320.037C67.959 320.091 67.149 319.364 65.94 318.089C64.734 316.813 63.136 314.989 61.444 312.915C59.751 310.843 58.274 308.924 57.238 307.509C56.201 306.095 55.603 305.188 55.669 305.138Z" fill="#263238"/>
<path d="M59.7095 356.635C59.7095 356.635 49.6595 344.141 54.3735 332.662C54.5385 332.259 55.0875 332.204 55.3165 332.574C56.6675 334.759 60.0145 341.714 59.7095 356.635Z" fill="#203864"/>
<path d="M55.3706 337.749C55.4526 337.734 55.7186 338.786 56.1036 340.495C56.5216 342.42 57.0126 344.68 57.5556 347.177C58.1056 349.671 58.6026 351.928 59.0266 353.851C59.4146 355.556 59.6606 356.611 59.5756 356.636C59.5016 356.659 59.1106 355.642 58.6156 353.957C58.1236 352.272 57.5306 349.92 56.9696 347.304C56.4056 344.689 55.9656 342.307 55.6876 340.576C55.4086 338.844 55.2896 337.764 55.3706 337.749Z" fill="#263238"/>
<path d="M69.6647 399.777C69.6647 399.777 55.1397 392.986 54.3157 380.605C54.2867 380.17 54.7547 379.879 55.1237 380.111C57.2987 381.476 63.3677 386.246 69.6647 399.777Z" fill="#203864"/>
<path d="M57.4525 384.732C57.5195 384.683 58.2215 385.51 59.3195 386.874C60.5425 388.418 61.9795 390.231 63.5655 392.233C65.1575 394.23 66.5985 396.037 67.8255 397.577C68.9245 398.936 69.6095 399.775 69.5455 399.835C69.4885 399.888 68.6905 399.148 67.5035 397.853C66.3195 396.557 64.7515 394.706 63.0945 392.605C61.4365 390.505 59.9925 388.561 58.9805 387.13C57.9685 385.698 57.3855 384.781 57.4525 384.732Z" fill="#263238"/>
<path d="M98.5982 336.734C98.6122 336.735 98.6182 336.855 98.6162 337.087C98.6092 337.366 98.6012 337.703 98.5912 338.112C98.5482 339.075 98.4912 340.376 98.4192 342C98.2322 345.418 97.9712 350.184 97.6582 355.885L97.6572 355.898L97.6532 355.918C96.6162 361.72 93.6612 368.151 89.6922 374.395C86.7802 378.994 83.7282 383.176 81.0962 387.065C78.4462 390.943 76.2102 394.535 74.6512 397.718C73.0822 400.896 72.1702 403.627 71.6362 405.536C71.3812 406.494 71.1892 407.241 71.0782 407.752C70.9592 408.261 70.8862 408.527 70.8652 408.524C70.8452 408.52 70.8772 408.247 70.9592 407.729C71.0312 407.209 71.1872 406.451 71.4092 405.478C71.8762 403.541 72.7352 400.763 74.2682 397.534C75.7912 394.3 78.0062 390.66 80.6362 386.757C83.2502 382.84 86.2862 378.652 89.1822 374.076C93.1302 367.863 96.0702 361.53 97.1452 355.821L97.1412 355.854C97.5412 350.159 97.8762 345.398 98.1162 341.983C98.2472 340.363 98.3522 339.065 98.4302 338.104C98.4712 337.697 98.5052 337.362 98.5332 337.084C98.5642 336.852 98.5852 336.734 98.5982 336.734Z" fill="#263238"/>
<path d="M89.9492 373.202C89.9492 373.202 96.1012 358.395 88.3632 348.694C88.0912 348.354 87.5492 348.454 87.4332 348.873C86.7482 351.348 85.4802 358.962 89.9492 373.202Z" fill="#203864"/>
<path d="M88.8298 353.856C88.9118 353.847 89.1008 354.918 89.3178 356.658C89.5358 358.398 89.7788 360.808 89.9698 363.476C90.1628 366.145 90.2518 368.569 90.2508 370.325C90.2468 372.082 90.1568 373.167 90.0788 373.166C89.9908 373.165 89.9318 372.083 89.8268 370.338C89.6958 368.374 89.5418 366.068 89.3708 363.519C89.1928 360.97 89.0318 358.663 88.8948 356.698C88.7858 354.949 88.7468 353.865 88.8298 353.856Z" fill="#263238"/>
<g opacity="0.3">
<path d="M89.9492 373.202C89.9492 373.202 96.1012 358.395 88.3632 348.694C88.0912 348.354 87.5492 348.454 87.4332 348.873C86.7482 351.348 85.4802 358.962 89.9492 373.202Z" fill="black"/>
</g>
<path d="M70.8951 408.885C70.8951 408.885 75.8261 393.627 67.3261 384.586C67.0271 384.268 66.4961 384.412 66.4141 384.84C65.9321 387.362 65.2861 395.055 70.8951 408.885Z" fill="#203864"/>
<path d="M68.21 389.694C68.291 389.679 68.566 390.73 68.923 392.447C69.281 394.163 69.719 396.545 70.126 399.189C70.535 401.834 70.82 404.242 70.962 405.992C71.101 407.743 71.098 408.832 71.021 408.837C70.933 408.843 70.787 407.77 70.541 406.039C70.251 404.092 69.91 401.806 69.534 399.279C69.15 396.753 68.802 394.467 68.506 392.519C68.255 390.787 68.129 389.709 68.21 389.694Z" fill="#263238"/>
<g opacity="0.3">
<path d="M70.8951 408.885C70.8951 408.885 75.8261 393.627 67.3261 384.586C67.0271 384.268 66.4961 384.412 66.4141 384.84C65.9321 387.362 65.2861 395.055 70.8951 408.885Z" fill="black"/>
</g>
<path d="M97.7832 355.105C97.7832 355.105 110.919 345.909 109.593 333.571C109.546 333.138 109.035 332.932 108.712 333.223C106.806 334.945 101.651 340.691 97.7832 355.105Z" fill="#203864"/>
<g opacity="0.3">
<path d="M97.7832 355.105C97.7832 355.105 110.919 345.909 109.593 333.571C109.546 333.138 109.035 332.932 108.712 333.223C106.806 334.945 101.651 340.691 97.7832 355.105Z" fill="black"/>
</g>
<path d="M107.216 338.178C107.29 338.215 106.875 339.219 106.125 340.804C105.375 342.389 104.288 344.553 103.017 346.908C101.748 349.264 100.523 351.357 99.5802 352.838C98.6352 354.318 97.9762 355.185 97.9112 355.143C97.8372 355.095 98.3672 354.151 99.2152 352.622C100.158 350.894 101.265 348.865 102.489 346.623C103.706 344.377 104.808 342.343 105.747 340.611C106.593 339.078 107.142 338.142 107.216 338.178Z" fill="#263238"/>
<path d="M76.1914 393.759C76.1914 393.759 92.0344 391.289 96.2784 379.628C96.4274 379.219 96.0594 378.809 95.6404 378.928C93.1714 379.633 86.0124 382.521 76.1914 393.759Z" fill="#203864"/>
<g opacity="0.3">
<path d="M76.1914 393.759C76.1914 393.759 92.0344 391.289 96.2784 379.628C96.4274 379.219 96.0594 378.809 95.6404 378.928C93.1714 379.633 86.0124 382.521 76.1914 393.759Z" fill="black"/>
</g>
<path d="M92.1167 382.717C92.1667 382.783 91.3517 383.501 89.9807 384.594C88.6097 385.687 86.6807 387.151 84.5027 388.705C82.3257 390.261 80.3037 391.601 78.8047 392.516C77.3037 393.429 76.3307 393.917 76.2907 393.85C76.2457 393.774 77.1377 393.16 78.5727 392.161C80.1807 391.025 82.0677 389.691 84.1537 388.217C86.2357 386.736 88.1207 385.396 89.7257 384.255C91.1607 383.25 92.0657 382.651 92.1167 382.717Z" fill="#263238"/>
<path d="M61.078 422.915L56.457 454.02H85.257L81.523 422.915H61.078Z" fill="#455A64"/>
<path d="M82.6743 432.553C82.6743 432.719 77.4743 432.853 71.0613 432.853C64.6463 432.853 59.4473 432.719 59.4473 432.553C59.4473 432.387 64.6463 432.253 71.0613 432.253C77.4743 432.254 82.6743 432.388 82.6743 432.553Z" fill="#263238"/>
<path d="M83.2468 435.028C83.2468 435.194 77.8758 435.328 71.2528 435.328C64.6268 435.328 59.2578 435.194 59.2578 435.028C59.2578 434.862 64.6268 434.728 71.2528 434.728C77.8758 434.729 83.2468 434.863 83.2468 435.028Z" fill="#263238"/>
</svg>
