<svg xmlns="http://www.w3.org/2000/svg" width="138" height="162" viewBox="0 0 138 162" fill="none">
  <path d="M29.74 45.9786C29.3761 45.8131 29.039 45.594 28.74 45.3286C28.16 44.8786 27.34 44.2186 26.36 43.3286C25.2029 42.3031 24.1233 41.1934 23.13 40.0086C22.4996 39.2971 22.0229 38.463 21.73 37.5586C21.562 37.0437 21.5365 36.493 21.6563 35.9648C21.776 35.4366 22.0364 34.9507 22.41 34.5586C22.6354 34.3591 22.9094 34.2226 23.2043 34.1629C23.4993 34.1032 23.8048 34.1224 24.09 34.2186C24.6011 34.3669 25.0591 34.6584 25.41 35.0586C26.0587 35.7225 26.6352 36.4532 27.13 37.2386C28.5056 39.4494 29.4079 41.9215 29.78 44.4986C29.8649 44.8757 29.8886 45.264 29.85 45.6486C29.74 45.6486 29.54 44.0486 28.66 41.6486C28.1508 40.2264 27.4798 38.8674 26.66 37.5986C26.1887 36.8301 25.6427 36.1099 25.03 35.4486C24.48 34.8186 23.46 34.4486 22.88 34.9786C22.5841 35.294 22.3802 35.6844 22.2903 36.1074C22.2004 36.5305 22.228 36.9701 22.37 37.3786C22.6394 38.2005 23.0675 38.9615 23.63 39.6186C24.5889 40.7989 25.6174 41.9209 26.71 42.9786C28.59 44.8286 29.8 45.9086 29.74 45.9786Z" fill="#96B5EA"/>
  <path d="M29.4997 45.9791C29.4397 45.9091 30.6397 44.8391 32.3697 42.8991C33.2197 41.8991 34.2597 40.7591 35.3697 39.4391C35.885 38.7654 36.2467 37.9873 36.4297 37.1591C36.6197 36.3291 36.6697 35.2591 36.0697 34.7591C35.8928 34.6835 35.7012 34.6487 35.509 34.6574C35.3168 34.6661 35.1291 34.7179 34.9597 34.8091C34.5477 34.9728 34.1632 35.1987 33.8197 35.4791C33.1768 36.066 32.6182 36.7391 32.1597 37.4791C31.3989 38.7605 30.8168 40.14 30.4297 41.5791C29.6997 44.0591 29.4897 45.6691 29.4297 45.6491C29.3903 45.2683 29.4105 44.8837 29.4897 44.5091C29.6084 43.4811 29.7955 42.4622 30.0497 41.4591C30.4055 39.9496 30.9888 38.5031 31.7797 37.1691C32.2232 36.3737 32.7789 35.6462 33.4297 35.0091C33.8219 34.6808 34.2642 34.4175 34.7397 34.2291C35.0021 34.0864 35.296 34.0117 35.5947 34.0117C35.8934 34.0117 36.1873 34.0864 36.4497 34.2291C36.6704 34.4172 36.8487 34.6499 36.9728 34.9119C37.0969 35.1739 37.164 35.4592 37.1697 35.7491C37.2001 36.2566 37.1529 36.7658 37.0297 37.2591C36.796 38.1779 36.3585 39.0323 35.7497 39.7591C34.6297 41.0991 33.5797 42.2191 32.6697 43.1591C31.9604 43.9169 31.2128 44.6378 30.4297 45.3191C30.1597 45.5906 29.8452 45.8139 29.4997 45.9791Z" fill="#96B5EA"/>
  <path d="M51.3801 44.4492H7.8501V115.409H51.3801V44.4492Z" fill="#203864"/>
  <path d="M51.4297 44.4492C51.4297 44.4492 51.2997 44.6392 51.0297 44.9792L49.8197 46.4492C48.8197 47.7292 47.2697 49.5492 45.3697 51.7792C41.5797 56.2392 36.1897 62.2792 30.0997 68.7792C24.0097 75.2792 18.4297 81.1892 14.3397 85.4492L9.53975 90.4492C8.99975 90.9892 8.53975 91.4492 8.21975 91.7992L7.73975 92.2492C7.73975 92.2492 7.87974 92.0692 8.15974 91.7492L9.42974 90.3492L14.1497 85.2692L29.8197 68.5892C35.9097 62.0592 41.3297 56.0492 45.1697 51.5892L49.6997 46.3392L50.9397 44.9092C51.2197 44.6092 51.4297 44.4492 51.4297 44.4492Z" fill="white"/>
  <path d="M51.1701 60.0687C51.2501 60.1387 41.6101 70.5587 29.6501 83.3487C17.6901 96.1387 7.9301 106.449 7.8501 106.349C7.7701 106.249 17.4301 95.8887 29.4301 83.0887C41.4301 70.2887 51.1001 59.9987 51.1701 60.0687Z" fill="white"/>
  <path d="M51.5697 73.8988C51.6397 73.9688 42.9497 83.3188 32.1597 94.7788C21.3697 106.239 12.5397 115.449 12.4297 115.449C12.3197 115.449 21.0397 106.029 31.8397 94.5688C42.6397 83.1088 51.4897 73.8288 51.5697 73.8988Z" fill="white"/>
  <path d="M51.17 88.4492C51.25 88.5192 45.56 94.6692 38.46 102.169C31.36 109.669 25.55 115.709 25.46 115.639C25.37 115.569 31.07 109.429 38.17 101.919C45.27 94.4092 51.1 88.4492 51.17 88.4492Z" fill="white"/>
  <path d="M51.1699 102.568C50.7051 103.276 50.1834 103.945 49.6099 104.568C48.6099 105.778 47.1899 107.418 45.6099 109.198C42.4299 112.758 39.6099 115.518 39.3599 115.198C39.4799 115.378 42.1499 112.538 45.3599 108.978L49.4299 104.448C49.9631 103.78 50.5446 103.152 51.1699 102.568Z" fill="white"/>
  <path d="M37.5097 44.4497C37.5897 44.5197 31.0097 51.8397 22.8197 60.7997C14.6297 69.7597 7.92971 76.9797 7.81971 76.9097C7.70971 76.8397 14.3197 69.5197 22.5097 60.5497C30.6997 51.5797 37.4297 44.3797 37.5097 44.4497Z" fill="white"/>
  <path d="M23.8101 44.2588C23.8801 44.3288 20.3701 48.2588 15.9701 53.1188C11.5701 57.9788 7.97012 61.7888 7.85012 61.7188C7.73012 61.6488 11.2901 57.7188 15.6901 52.8588C20.0901 47.9988 23.7301 44.1888 23.8101 44.2588Z" fill="white"/>
  <path d="M11.8501 44.4492C11.3129 45.1682 10.6804 45.8107 9.9701 46.3592C9.34482 47.0009 8.63091 47.5498 7.8501 47.9892C8.38729 47.2703 9.01975 46.6277 9.7301 46.0792C10.3554 45.4375 11.0693 44.8886 11.8501 44.4492Z" fill="white"/>
  <path d="M7.91992 44.4492C7.91992 44.4492 8.08992 44.6092 8.36992 44.9292C8.64992 45.2492 9.10992 45.7792 9.59992 46.3592L14.1399 51.6092C17.9799 56.0192 23.3999 62.0292 29.4899 68.6092L45.1599 85.2892C47.0999 87.3892 48.6999 89.0992 49.8799 90.3692C50.3899 90.9292 50.8099 91.3692 51.1399 91.7692C51.4699 92.1692 51.5699 92.2692 51.5699 92.2692C51.5699 92.2692 51.3899 92.1192 51.0899 91.8192L49.7699 90.4492L44.9599 85.4492C40.9599 81.2192 35.3099 75.3892 29.2099 68.8492C23.1099 62.3092 17.7299 56.2692 13.9299 51.8492C12.0299 49.6192 10.5199 47.7992 9.48992 46.5192L8.30992 45.0492C8.04992 44.6392 7.91992 44.4492 7.91992 44.4492Z" fill="white"/>
  <path d="M8.12977 60.0687C8.20977 59.9987 17.9698 70.3087 29.9298 83.0687C41.8898 95.8287 51.5298 106.309 51.4298 106.379C51.3298 106.449 41.5998 96.1387 29.6398 83.3787C17.6798 70.6187 8.05977 60.1387 8.12977 60.0687Z" fill="white"/>
  <path d="M7.73981 73.8988C7.81981 73.8288 16.6298 83.0688 27.4198 94.5288C38.2098 105.989 46.9098 115.339 46.8398 115.449C46.7698 115.559 37.9498 106.289 27.1498 94.8188C16.3498 83.3488 7.65981 73.9688 7.73981 73.8988Z" fill="white"/>
  <path d="M8.13004 88.4498C8.21004 88.3798 14.02 94.4498 21.13 101.92C28.24 109.39 33.91 115.57 33.84 115.64C33.77 115.71 27.95 109.64 20.84 102.17C13.73 94.6998 8.06004 88.5598 8.13004 88.4498Z" fill="white"/>
  <path d="M8.12988 102.568C8.76718 103.149 9.35893 103.777 9.89988 104.448L13.9999 108.998C17.1799 112.558 19.8499 115.398 19.9999 115.218C19.7599 115.568 16.9299 112.808 13.7499 109.218C12.1499 107.438 10.7499 105.798 9.74988 104.588C9.15749 103.959 8.6158 103.283 8.12988 102.568Z" fill="white"/>
  <path d="M21.8 44.4497C21.87 44.3797 28.5801 51.5897 36.8001 60.5497C45.0201 69.5097 51.5301 76.8397 51.43 76.9097C51.33 76.9797 44.66 69.7697 36.43 60.7997C28.2001 51.8297 21.72 44.5197 21.8 44.4497Z" fill="white"/>
  <path d="M35.5001 44.2588C35.5801 44.1888 39.2101 48.0388 43.6201 52.8588C48.0301 57.6788 51.5301 61.6488 51.4501 61.7188C51.3701 61.7888 47.7501 57.9388 43.3401 53.1188C38.9301 48.2988 35.4301 44.3288 35.5001 44.2588Z" fill="white"/>
  <path d="M47.4297 44.4492C48.2105 44.8886 48.9244 45.4375 49.5497 46.0792C50.2621 46.6253 50.8949 47.2682 51.4297 47.9892C50.6526 47.5442 49.9395 46.9958 49.3097 46.3592C48.5972 45.8131 47.9645 45.1702 47.4297 44.4492Z" fill="white"/>
  <path d="M51.3801 78.3887H7.8501V80.6387H51.3801V78.3887Z" fill="#96B5EA"/>
  <path d="M17.7397 44.4492H15.6396V115.419H17.7397V44.4492Z" fill="#96B5EA"/>
  <path d="M40.1298 44.4492H38.0298V115.419H40.1298V44.4492Z" fill="#96B5EA"/>
  <g opacity="0.3">
    <path d="M51.3898 44.4492H26.8198V115.409H51.3898V44.4492Z" fill="#96B5EA"/>
  </g>
  <path d="M0.909836 162.01L137.09 162.01V115.24L0.909836 115.24V162.01Z" fill="#FBBA2D"/>
  <path d="M1.25984 140.979L137.09 140.979V136.259L1.25984 136.259V140.979Z" fill="white"/>
  <path d="M35.8699 162.01H39.8799L39.8799 115.21H35.8699L35.8699 162.01Z" fill="white"/>
  <path d="M110.08 162.01H114.09V115.21H110.08V162.01Z" fill="white"/>
  <path opacity="0.3" d="M0.909653 162.01H81.1396V115.24H0.909653V162.01Z" fill="#96B5EA"/>
  <path d="M96.7401 14.0702L94.2201 51.9202L35.7801 51.3802L35.3301 13.4902L96.7401 14.0702Z" fill="#E0E0E0"/>
  <path d="M95.0501 24.2395L94.1601 24.7595L94.7201 23.9095L92.6201 23.4595L94.7101 22.9295C94.7101 22.9295 94.7101 22.9295 94.7601 22.9295L94.2901 22.0595L95.0801 22.6195L95.6001 20.5195L96.0601 22.6295C96.0601 22.6295 96.0601 22.6895 96.1201 22.7295H96.1901L96.1401 23.5695L96.0901 24.4195L95.6001 26.6095L95.0501 24.2395Z" fill="white"/>
  <path d="M91.5098 43.1395L93.5898 42.6095H93.6498L93.1698 41.7294L93.9598 42.2894L94.4798 40.1895L94.8698 41.9894V42.4894L94.7798 43.9494L94.6898 45.2195L94.4598 46.2195L93.9798 43.9695L93.0998 44.4995L93.6598 43.6395L91.5098 43.1395Z" fill="white"/>
  <path d="M83.7399 50.8184L83.2699 49.9384L84.0599 50.4984L84.5799 48.3984L85.0399 50.5084C85.0538 50.5451 85.0741 50.5789 85.0999 50.6084L86.0199 50.1284L85.4399 50.8984L87.5699 51.4584L85.3899 51.8684H85.2899H83.7099L81.6099 51.4284L83.6999 50.8984C83.6999 50.8984 83.7199 50.8184 83.7399 50.8184Z" fill="white"/>
  <path d="M78.7399 26.39L76.6499 25.94L78.7299 25.41C78.7299 25.41 78.7299 25.41 78.7899 25.41L78.3099 24.54L79.0999 25.1L79.6199 23L80.0699 25.1C80.086 25.1387 80.1061 25.1755 80.1299 25.21L81.0599 24.72L80.4799 25.49L82.5999 26.06L80.4199 26.46H80.3499L80.9099 27.46L80.0499 26.84L79.5599 29.03L79.0799 26.79L78.1999 27.31L78.7399 26.39Z" fill="white"/>
  <path d="M69.9799 15.1098L67.8799 14.6698L69.9599 14.1398C69.9599 14.1398 69.9599 14.1398 70.0199 14.1398L69.8599 13.8398H71.3599H71.4499H71.9499L71.7099 14.1698L73.8399 14.7298L71.6599 15.1398H71.5799L72.1499 16.1398L71.2799 15.5198L70.7899 17.7098L70.3299 15.4498L69.4399 15.9798L69.9999 15.1198L69.9799 15.1098Z" fill="white"/>
  <path d="M66.8799 34.7991L68.9699 34.2791L68.4999 33.4091L69.2899 33.9691L69.8099 31.8691L70.2699 33.9791C70.2838 34.0158 70.3041 34.0496 70.3299 34.0791L71.2499 33.5991L70.6699 34.3691L72.7999 34.9291L70.6199 35.3391C70.6199 35.3391 70.6199 35.3391 70.5499 35.3391L71.1099 36.3391L70.2399 35.7291L69.7499 37.9091L69.2799 35.6691L68.3899 36.1891L68.9499 35.3391L66.8799 34.7991Z" fill="white"/>
  <path d="M36.1598 49.9301L36.6698 47.8301L37.1298 49.9401C37.1298 49.9401 37.1298 50.0001 37.1898 50.0401L38.1198 49.5601L37.5398 50.3301L39.6598 50.8901L37.4798 51.3001C37.4798 51.3001 37.4798 51.3001 37.4098 51.3001V51.3501H35.7798V51.2801V50.2801H35.8398L35.7798 50.1801V49.7001L36.1598 49.9701V49.9301Z" fill="white"/>
  <path d="M52.35 31.4486L50.25 31.0086L52.33 30.4786H52.39L51.91 29.5986L52.7 30.1586L53.22 28.0586L53.68 30.1686C53.6939 30.2052 53.7142 30.2391 53.74 30.2686L54.66 29.7886L54.08 30.5586L56.21 31.1186L54.03 31.5286H53.95L54.52 32.5286L53.65 31.9086L53.16 34.0986L52.68 31.8486L51.79 32.3786L52.35 31.5186V31.4486Z" fill="white"/>
  <path d="M36.2197 25.7895L36.7397 23.6895L37.1997 25.7895C37.2158 25.8281 37.2359 25.865 37.2597 25.8995L38.1797 25.4095L37.5997 26.1795L39.7297 26.7495L37.5497 27.1495C37.5227 27.1602 37.4986 27.1774 37.4797 27.1995L38.0397 28.1995L37.1697 27.5795L36.6797 29.7695L36.2097 27.5295L35.5197 27.9295V27.7495L35.8797 27.1895L35.5197 27.1095V26.2995L35.8797 26.2095L35.4297 25.3495V25.2895L36.1697 25.8195C36.1697 25.8195 36.2197 25.7995 36.2197 25.7895Z" fill="white"/>
  <path d="M37.6501 14.8088L35.5601 14.3588L37.6401 13.8388H37.7001L37.5401 13.5488H39.0401H39.1201H39.6301L39.3901 13.8788L41.5101 14.4388L39.3301 14.8488C39.3301 14.8488 39.3301 14.8488 39.2601 14.8488L39.8201 15.8488L38.9601 15.2388L38.4901 17.4488L38.0101 15.2088L37.1301 15.7288L37.6901 14.8788L37.6501 14.8088Z" fill="white"/>
  <path d="M65.3301 48.19L67.4101 47.66H67.4701L66.9901 46.79L67.7801 47.35L68.3001 45.25L68.7601 47.35C68.7762 47.3887 68.7963 47.4255 68.8201 47.46L69.7401 46.97L69.1601 47.74L71.2901 48.31L69.1101 48.71L69.0301 48.76L69.6001 49.76L68.7301 49.14L68.2401 51.33L67.7601 49.09L66.8701 49.61L67.4301 48.76L65.3301 48.19Z" fill="white"/>
  <path d="M76.54 41.7701L78.62 41.2401C78.62 41.2401 78.62 41.2401 78.68 41.2401L78.2 40.3701L78.99 40.9301L79.51 38.8301L79.97 40.9401C79.97 40.9401 79.97 41.0001 80.03 41.0401L80.95 40.5601L80.37 41.3301L82.5 41.8901L80.32 42.3001C80.32 42.3001 80.32 42.3001 80.24 42.3001L80.81 43.3001L79.94 42.6901L79.45 44.8701L78.97 42.6301L78.08 43.1501L78.64 42.3001L76.54 41.7701Z" fill="white"/>
  <path d="M86.9099 32.5391L85.3599 32.2091L86.8999 31.8191L86.5499 31.1791L87.1399 31.5891L87.5199 30.0391L87.8599 31.5891C87.8599 31.5891 87.8599 31.5891 87.8599 31.6691L88.5499 31.3091L88.1199 31.8791L89.6899 32.2991L88.0799 32.5991H88.0199L88.4399 33.3291L87.7999 32.8691L87.5299 34.4491L87.1799 32.7891L86.5299 33.1691L86.9399 32.5391H86.9099Z" fill="white"/>
  <path d="M65.19 23.8899L63.58 24.1799H63.52L63.94 24.8999L63.3 24.4499L62.94 26.0699L62.58 24.4099L61.93 24.7999L62.34 24.1699L60.79 23.8399L62.33 23.4499L61.98 22.7999L62.56 23.2199L62.94 21.6699L63.28 23.2299V23.3099L63.96 22.9499L63.54 23.5199L65.19 23.8899Z" fill="white"/>
  <path d="M46.6498 20.5185L46.2998 19.8785L46.8798 20.2885L47.2598 18.7285L47.5998 20.2885V20.3685L48.2798 20.0085L47.8598 20.5785L49.4298 20.9985L47.8198 21.2985C47.8198 21.2985 47.8198 21.2985 47.7598 21.2985L48.1798 22.0285L47.5398 21.5685L47.1798 23.1885L46.8198 21.5285L46.1698 21.9085L46.5798 21.2785L45.0298 20.9485L46.5698 20.5585C46.5772 20.5641 46.5861 20.5675 46.5953 20.5683C46.6045 20.5691 46.6138 20.5674 46.6221 20.5632C46.6305 20.5591 46.6374 20.5527 46.6423 20.5448C46.6472 20.5369 46.6498 20.5278 46.6498 20.5185Z" fill="white"/>
  <path d="M55.3 15.2088C55.3 15.2088 55.3 15.2088 55.25 15.2088L55.67 15.9388L55.03 15.4788L54.66 17.0988L54.31 15.4488L53.65 15.8288L54.07 15.1988L52.52 14.8688L54.06 14.4788L53.71 13.8288L54.29 14.2488L54.42 13.7188H54.9L55.01 14.2388C55.007 14.2653 55.007 14.2922 55.01 14.3188L55.69 13.9588L55.26 14.5288L56.83 14.9488L55.3 15.2088Z" fill="white"/>
  <path d="M58.2497 41.5391L56.6997 41.2091L58.2397 40.8191L57.8897 40.1691L58.4697 40.5891L58.8597 39.0391L59.1897 40.5991C59.1867 40.6256 59.1867 40.6525 59.1897 40.6791L59.8697 40.3191L59.4397 40.8891L61.0097 41.2991L59.3997 41.5991L59.8197 42.3191L59.1797 41.8691L58.8497 43.4491L58.4997 41.7991L57.8397 42.1891L58.2497 41.5391Z" fill="white"/>
  <path d="M44.6701 36.4492L43.1201 36.1192L44.6601 35.7292L44.3101 35.0792L44.8901 35.4992L45.2801 33.9492L45.6101 35.5092C45.6071 35.5358 45.6071 35.5626 45.6101 35.5892L46.2901 35.2292L45.8601 35.7992L47.4301 36.2092L45.8201 36.5092L46.2401 37.2292L45.6001 36.7792L45.2801 38.4492L44.9301 36.7892L44.2701 37.1792L44.6901 36.5492L44.6701 36.4492Z" fill="white"/>
  <path d="M42.6299 45.5491L44.1699 45.1591L43.8199 44.5091L44.3999 44.9191L44.7799 43.3691L45.1199 44.9291C45.118 44.9524 45.118 44.9759 45.1199 44.9991L45.8099 44.6491L45.3799 45.2191L46.9499 45.6291L45.3399 45.9291H45.2799L45.6999 46.6591L45.0599 46.2091L44.6999 47.8191L44.4299 46.1491L43.7799 46.5391L44.1899 45.9091L42.6299 45.5491Z" fill="white"/>
  <path d="M35.9597 38.3198L36.6397 37.9698L36.2097 38.5398L37.7797 38.9498L36.1697 39.2498L36.5797 39.9798L35.9397 39.5298L35.6997 40.5998V38.4498V36.8398L35.9997 38.2398C35.9799 38.2627 35.9661 38.2902 35.9597 38.3198Z" fill="white"/>
  <path d="M52.18 51.0988L51.83 50.4488L52.41 50.8588L52.79 49.2988L53.13 50.8588C53.13 50.8588 53.13 50.8588 53.13 50.9388L53.81 50.5788L53.38 51.1488L54.96 51.5688H53.17H52.25H50.54L52.08 51.1788L52.18 51.0988Z" fill="white"/>
  <path d="M79.8698 15.5288L80.2798 16.2588L79.6398 15.7988L79.2298 17.4488L78.8798 15.7887L78.2298 16.1688L78.6398 15.5387L77.0898 15.2188L78.6298 14.8188L78.2798 14.1788L78.8698 14.5888L79.0198 13.9688H79.4598L79.5898 14.5888C79.5898 14.5888 79.5898 14.6388 79.5898 14.6688L80.2798 14.3088L79.8498 14.8788L81.4198 15.2988L79.8698 15.5288Z" fill="white"/>
  <path d="M90.5398 15.1898H90.4798L90.8998 15.9098L90.2598 15.4598L89.8998 17.0698L89.5498 15.4198L88.8998 15.8098L89.3098 15.1798L87.7598 14.8498L89.2998 14.4598L89.0598 14.0098H89.2398L89.5398 14.2198V14.0398H90.1798V14.2198V14.2998L90.6698 14.0398H90.7898L90.4398 14.5098L92.0098 14.9298L90.5398 15.1898Z" fill="white"/>
  <g opacity="0.3">
    <path d="M85.65 13.959L85.29 51.839L94.22 51.919L96.74 14.069L85.65 13.959Z" fill="#96B5EA"/>
  </g>
  <path d="M92.35 14.0302L90.5 51.8902L88.48 51.8702L88.83 13.9902L92.35 14.0302Z" fill="#203864"/>
  <path d="M58.5294 13.7057L58.1724 51.584L63.0421 51.6299L63.3991 13.7516L58.5294 13.7057Z" fill="#203864"/>
  <path d="M80.7496 8.45C80.7496 8.45 76.3297 0.01 74.5097 0C74.5097 0 68.0796 2.75999 64.4196 11.79H61.2597C61.2597 11.79 59.5796 4.45 51.1396 0.449997C51.1396 0.449997 46.3196 9.13 46.1396 9.05C49.11 11.7935 52.951 13.4042 56.9896 13.6C63.7996 13.95 73.6996 13.32 73.6996 13.32C73.6996 13.32 79.7197 10.8 80.7496 8.45Z" fill="#203864"/>
  <g opacity="0.3">
    <path d="M59.62 12.8889C59.62 12.8889 52.49 8.76885 46.73 9.15885C46.73 9.15885 53.43 14.7789 59.62 12.8889Z" fill="#96B5EA"/>
  </g>
  <g opacity="0.3">
    <path d="M80.0397 8.34961C80.0397 8.34961 70.8197 8.86961 66.0397 13.2696C65.9997 13.2696 74.8197 14.2996 80.0397 8.34961Z" fill="#96B5EA"/>
  </g>
  <path d="M103.82 44.1193C103.82 44.1193 96.2701 30.0593 93.2101 30.1193C93.2101 30.1193 82.4901 34.8693 76.5301 50.0693H71.2301C71.2301 50.0693 68.2901 37.9493 54.0601 31.4293C54.0601 31.4293 46.1501 46.0693 45.8701 45.9293C50.8977 50.4747 57.3669 53.1021 64.1401 53.3493C75.5601 53.8193 92.1401 52.5693 92.1401 52.5693C92.1401 52.5693 102.16 48.1593 103.82 44.1193Z" fill="#FBBA2D"/>
  <g opacity="0.3">
    <path d="M68.5101 52.0283C68.5101 52.0283 56.5101 45.2683 46.8501 46.0283C46.8501 46.0183 58.1401 55.3083 68.5101 52.0283Z" fill="#96B5EA"/>
  </g>
  <g opacity="0.3">
    <path d="M102.64 44.0391C102.64 44.0391 87.2 45.0391 79.21 52.5491C79.21 52.5491 94 54.1091 102.64 44.0391Z" fill="#96B5EA"/>
  </g>
  <path d="M132.6 51.0195L131.96 114.51L31.1599 114.66L29.6899 51.1895L132.6 51.0195Z" fill="#96B5EA"/>
  <path d="M102.51 51.3688C102.332 51.6443 102.121 51.8963 101.88 52.1188C101.45 52.5788 100.8 53.2588 99.9599 54.1188C98.2799 55.8488 95.7999 58.3088 92.6999 61.3088C86.5099 67.3088 77.8099 75.4788 67.9499 84.1988C58.0899 92.9188 48.9499 100.569 42.2099 105.979C38.8499 108.689 36.1099 110.849 34.2099 112.309L31.9899 113.979C31.7427 114.19 31.4666 114.365 31.1699 114.499C31.1699 114.499 31.3799 114.239 31.8599 113.809C32.3399 113.379 33.0399 112.809 33.9599 111.989L41.7599 105.409C48.3599 99.8588 57.4299 92.1388 67.2799 83.4088C77.1299 74.6788 85.8999 66.6388 92.2099 60.7688L99.6999 53.7688C100.58 52.9488 101.28 52.3188 101.76 51.9088C102.24 51.4988 102.48 51.3388 102.51 51.3688Z" fill="white"/>
  <path d="M132.36 74.4483C132.56 74.6583 123.45 83.8183 112.01 94.9183C100.57 106.018 91.13 114.848 90.93 114.638C90.73 114.428 99.84 105.268 111.28 94.1683C122.72 83.0683 132.16 74.2583 132.36 74.4483Z" fill="white"/>
  <path d="M129.99 52.0985C129.99 52.0985 129.8 52.3785 129.37 52.8485C128.94 53.3185 128.29 53.9885 127.45 54.8485C125.76 56.5785 123.28 59.0385 120.19 62.0385C114 68.0385 105.3 76.2085 95.4399 84.9385C85.5799 93.6685 76.4399 101.299 69.6999 106.709C66.3399 109.419 63.5999 111.579 61.6999 113.039C60.6999 113.769 59.9899 114.339 59.4699 114.709C58.9499 115.079 58.6799 115.259 58.6499 115.229C58.6199 115.199 58.8699 114.969 59.3399 114.539C59.8099 114.109 60.5199 113.539 61.4399 112.729L69.2499 106.149C75.8499 100.589 84.9199 92.8685 94.7699 84.1485C104.62 75.4285 113.39 67.3685 119.7 61.4985L127.19 54.5485C128.07 53.7285 128.77 53.0985 129.25 52.6885C129.73 52.2785 129.97 52.0685 129.99 52.0985Z" fill="white"/>
  <path d="M75.9897 50.8887C75.5276 51.5121 74.9977 52.0823 74.4097 52.5887C73.3397 53.6387 71.7697 55.1187 69.8097 56.9287C65.8897 60.5387 60.3897 65.4487 54.1997 70.7187C48.0097 75.9887 42.2797 80.6487 38.0897 83.9387C35.9897 85.5887 34.2797 86.9387 33.0897 87.7887C32.4978 88.2911 31.8503 88.724 31.1597 89.0787C31.6424 88.4679 32.2001 87.9202 32.8197 87.4487L37.6197 83.3487L53.5197 69.9087L69.3197 56.3587L74.1397 52.2687C74.701 51.7388 75.3218 51.2757 75.9897 50.8887Z" fill="white"/>
  <path d="M46.24 51.3694C46.43 51.5894 42.88 54.7894 38.32 58.5194C33.76 62.2494 29.92 65.0994 29.74 64.8794C29.56 64.6594 33.11 61.4494 37.66 57.7194C42.21 53.9894 46.06 51.1494 46.24 51.3694Z" fill="white"/>
  <path d="M132.06 104.778C132.24 105.008 129.84 107.288 126.81 110.048C123.78 112.808 120.95 114.658 120.81 114.448C120.67 114.238 123.11 111.998 126.14 109.268C129.17 106.538 131.88 104.558 132.06 104.778Z" fill="white"/>
  <path d="M77.036 51.0092L68.876 51.0234L68.9873 114.813L77.1473 114.799L77.036 51.0092Z" fill="#FBBA2D"/>
  <g opacity="0.3">
    <path d="M103.77 51.0698L103.88 114.53L131.56 114.51L132.6 51.0098L103.77 51.0698Z" fill="#96B5EA"/>
  </g>
  <path d="M122.29 51V114.46L116.5 114.47L116.4 51.01L122.29 51Z" fill="#FBBA2D"/>
  <path d="M132.25 80.1094H30.3896V86.5994H132.25V80.1094Z" fill="#FBBA2D"/>
  <path d="M103.78 79.6591L101.41 115.339L46.3299 114.829L45.8999 79.1191L103.78 79.6591Z" fill="#FBBA2D"/>
  <path d="M102.19 89.2485L101.35 89.7385L101.88 88.9385L99.8799 88.5185L101.88 88.0185C101.88 88.0185 101.88 88.0185 101.93 88.0185L101.48 87.1985L102.23 87.7285L102.72 85.7285L103.15 87.7285C103.166 87.7607 103.186 87.7909 103.21 87.8185H103.28V88.6085C103.274 88.6246 103.274 88.6424 103.28 88.6585V89.4485L102.82 91.5185L102.19 89.2485Z" fill="white"/>
  <path d="M98.8501 107.06L100.85 106.56H100.9L100.45 105.73L101.19 106.26L101.68 104.26L102.05 105.96V106.42L101.96 107.8L101.88 109L101.66 110L101.21 107.88L100.37 108.38L100.9 107.57L98.8501 107.06Z" fill="white"/>
  <path d="M91.53 114.3L91.08 113.48L91.83 114L92.31 112L92.74 114C92.7539 114.037 92.7742 114.07 92.8 114.1L93.67 113.65L93.12 114.37L95.12 114.9L93.06 115.28H91.46L89.46 114.86L91.46 114.36L91.53 114.3Z" fill="white"/>
  <path d="M86.8101 91.2688L84.8101 90.8488L86.8101 90.3488L86.3601 89.5288L87.1101 90.0488L87.5901 88.0488L88.0201 90.0488C88.0201 90.0488 88.0201 90.1088 88.0801 90.1488L88.9501 89.6888L88.4001 90.4188L90.4001 90.9488L88.3401 91.3288H88.2801L88.8101 92.2588L87.9901 91.6788L87.5301 93.7388L87.0801 91.6288L86.2501 92.1188L86.8101 91.2688Z" fill="white"/>
  <path d="M78.5601 80.6492L76.5601 80.2292L78.5601 79.7292L78.4301 79.4492H79.8401H79.9201H80.4301L80.2001 79.7592L82.2001 80.2892L80.2001 80.6792C80.1775 80.6708 80.1526 80.6708 80.1301 80.6792L80.6601 81.5992L79.8501 81.0192L79.3801 83.0792L78.9301 80.9692L78.0901 81.4592L78.6201 80.6592L78.5601 80.6492Z" fill="white"/>
  <path d="M75.6396 99.2101L77.6396 98.7101L77.1897 97.8902L77.9296 98.4102L78.4196 96.4102L78.8496 98.4102C78.8636 98.4468 78.8839 98.4806 78.9097 98.5101L79.7796 98.0602L79.2297 98.7802L81.2297 99.3102L79.2297 99.6902C79.2026 99.7009 79.1786 99.7181 79.1597 99.7401L79.6897 100.66L78.8796 100.08L78.4097 102.14L77.9596 100.03L77.1197 100.52L77.6497 99.7202L75.6396 99.2101Z" fill="white"/>
  <path d="M46.6801 113.449L47.1701 111.449L47.6001 113.449C47.614 113.486 47.6343 113.52 47.6601 113.549L48.5301 113.089L47.9801 113.819L49.9801 114.349L47.9201 114.729H47.8501H46.3301V114.639V113.719V113.619V113.169L46.6801 113.419V113.449Z" fill="white"/>
  <path d="M61.9399 96.0794L59.9399 95.6594L61.9399 95.1594L61.4899 94.3394L62.2399 94.8594L62.7299 92.8594L63.1599 94.8594C63.1738 94.896 63.1942 94.9299 63.2199 94.9594L64.0899 94.5094L63.5399 95.2294L65.5399 95.7594L63.4799 96.1394L63.4099 96.1894L63.9499 97.1094L63.1299 96.5294L62.6699 98.5894L62.2799 96.4494L61.4499 96.9394L61.9699 96.1394L61.9399 96.0794Z" fill="white"/>
  <path d="M46.74 90.709L47.23 88.709L47.66 90.709C47.6765 90.7412 47.6966 90.7714 47.72 90.799L48.59 90.349L48.04 91.069L50.04 91.599L47.98 91.989H47.91L48.45 92.919L47.63 92.329L47.18 94.449L46.73 92.329L46.08 92.709V92.539L46.42 92.019L46.08 91.949V91.189L46.42 91.099L46.02 90.369L46.72 90.859C46.72 90.859 46.74 90.719 46.74 90.709Z" fill="white"/>
  <path d="M48.0898 80.3599L46.0898 79.9399L48.0898 79.4499L47.9398 79.1699H49.4298C49.4298 79.1699 49.4298 79.1699 49.4298 79.2199H49.5098H49.9898L49.7498 79.5299L51.7498 80.0599L49.6898 80.4399H49.6298L50.1598 81.3699L49.3398 80.7899L48.8798 82.8499L48.4298 80.7099L47.5998 81.1999L48.1298 80.3899L48.0898 80.3599Z" fill="white"/>
  <path d="M74.1797 111.829L76.1797 111.329H76.2297L75.7897 110.509L76.5297 111.029L77.0097 109.029L77.4497 111.029C77.4443 111.062 77.4443 111.096 77.4497 111.129L78.3197 110.669L77.7797 111.399L79.7797 111.929L77.7797 112.309H77.7097L78.2397 113.239L77.4197 112.659L76.9597 114.719L76.5097 112.609L75.6797 113.099L76.2097 112.289L74.1797 111.829Z" fill="white"/>
  <path d="M84.75 105.779L86.75 105.279L86.3 104.459L87.05 104.979L87.54 102.979L87.97 104.979C87.9839 105.015 88.0042 105.049 88.03 105.079L88.9 104.619L88.35 105.349L90.35 105.879L88.29 106.259L88.22 106.309L88.75 107.229L87.94 106.649L87.48 108.709L87.03 106.599L86.19 107.089L86.72 106.289L84.75 105.779Z" fill="white"/>
  <path d="M94.5201 97.069L93.0601 96.759L94.5101 96.389L94.1801 95.779L94.7301 96.169L95.0901 94.709L95.41 96.179C95.412 96.2023 95.412 96.2257 95.41 96.249L96.05 95.909L95.6501 96.449L97.1301 96.839L95.61 97.119H95.5601L95.9601 97.809L95.3501 97.379L95.0101 98.899L94.6801 97.339L94.0601 97.699L94.4501 97.109L94.5201 97.069Z" fill="white"/>
  <path d="M74.0399 88.9184L72.5299 89.1984H72.4699L72.8699 89.8884L72.2599 89.4584L71.9199 90.9784L71.5899 89.4184L70.9699 89.7784L71.3599 89.1784L69.8999 88.8684L71.3499 88.4984L71.0199 87.8884L71.5699 88.2784L71.9299 86.8184L72.2499 88.2784V88.3584L72.8999 88.0184L72.4899 88.5484L74.0399 88.9184Z" fill="white"/>
  <path d="M56.5699 85.7486L56.2399 85.1386L56.7899 85.5286L57.1499 84.0586L57.4699 85.5286C57.4653 85.5517 57.4653 85.5755 57.4699 85.5986L58.1099 85.2686L57.6999 85.7986L59.1899 86.1986L57.7299 86.4486L58.1199 87.1286L57.5199 86.6986L57.1799 88.2286L56.8399 86.6586L56.2199 87.0286L56.6099 86.4286L55.1499 86.1186L56.6099 85.7486H56.5699Z" fill="white"/>
  <path d="M64.7301 80.7389L65.1201 81.4189L64.5201 80.9889L64.1801 82.5189L63.8401 80.9489L63.2201 81.3189L63.6101 80.7189L62.0801 80.4489L63.5301 80.0789L63.2001 79.4789L63.7501 79.8689L63.8801 79.3789H64.4301L64.5301 79.8789C64.5282 79.9022 64.5282 79.9256 64.5301 79.9489L65.1801 79.6189L64.7701 80.1489L66.2601 80.5389L64.7301 80.7389Z" fill="white"/>
  <path d="M67.5 105.559L66.04 105.249L67.49 104.879L67.16 104.269L67.71 104.659L68.07 103.199L68.39 104.669C68.3919 104.693 68.3919 104.716 68.39 104.739L69.04 104.399L68.63 104.939L70.12 105.329L68.6 105.609L68.99 106.299L68.39 105.869L68.04 107.389L67.71 105.829L67.09 106.189L67.5 105.559Z" fill="white"/>
  <path d="M54.6997 100.789L53.2397 100.449L54.6898 100.079L54.4297 99.4489L54.9798 99.8389L55.3398 98.3789L55.6598 99.8389V99.9189L56.3097 99.5789L55.8997 100.119L57.3897 100.509L55.8698 100.789L56.2598 101.479L55.6598 101.049L55.3097 102.569L54.9798 101.009L54.3597 101.369L54.7497 100.779L54.6997 100.789Z" fill="white"/>
  <path d="M52.79 109.339L54.24 108.969L53.9 108.359L54.45 108.749L54.81 107.289L55.13 108.749C55.1216 108.772 55.1216 108.796 55.13 108.819L55.77 108.489L55.37 109.019L56.85 109.419L55.33 109.699L55.72 110.389L55.12 109.959L54.83 111.449L54.49 109.889L53.87 110.249L54.26 109.649L52.79 109.339Z" fill="white"/>
  <path d="M46.49 102.53L47.14 102.19L46.73 102.73L48.21 103.12L46.7 103.4H46.64L47.04 104.09L46.43 103.66L46.21 104.66V103.48V102.61V101.1L46.43 102.45L46.49 102.53Z" fill="white"/>
  <path d="M61.7798 114.569L61.4498 113.959L61.9998 114.349L62.3598 112.889L62.6698 114.349C62.6667 114.375 62.6667 114.402 62.6698 114.429L63.3098 114.089L62.9098 114.619L64.3898 115.019H62.6998H60.2998L61.7498 114.649L61.7798 114.569Z" fill="white"/>
  <path d="M87.8798 81.0391L88.2698 81.7291L87.6698 81.2891L87.3298 82.8191L86.9998 81.2591L86.3898 81.6191L86.7798 81.0191L85.3198 80.7091L86.7698 80.3391L86.4398 79.7291L86.9898 80.1191L87.1298 79.5391H87.5398L87.6698 80.1191C87.6679 80.1424 87.6679 80.1658 87.6698 80.1891L88.3098 79.8591L87.9098 80.3891L89.3898 80.7891L87.8798 81.0391Z" fill="white"/>
  <path d="M97.9399 80.7291L98.3299 81.4091L97.7299 80.9791L97.3899 82.5091L97.0499 80.9391L96.4299 81.3091L96.8199 80.7091L95.3599 80.3991L96.8199 80.0291L96.5999 79.6191H96.7599L97.0399 79.8191V79.6491H97.6399V79.8191C97.6506 79.8462 97.6678 79.8702 97.6899 79.8891L98.1499 79.6491H98.2599L97.9299 80.0891L99.4299 80.4491L97.9399 80.7291Z" fill="white"/>
  <g opacity="0.3">
    <path d="M93.3297 79.5684L92.9897 115.258L101.41 115.338L103.78 79.6584L93.3297 79.5684Z" fill="#96B5EA"/>
  </g>
  <path d="M99.6398 79.6298L97.8997 115.31L95.9897 115.29L96.3297 79.5898L99.6398 79.6298Z" fill="#203864"/>
  <path d="M67.772 79.3465L67.4355 115.045L72.0253 115.088L72.3618 79.3898L67.772 79.3465Z" fill="#203864"/>
  <path d="M88.7101 74.3301C88.7101 74.3301 84.5501 66.3301 82.8301 66.3301C82.8301 66.3301 76.7701 68.9301 73.3201 77.4401H70.3201C70.3201 77.4401 68.7401 70.6101 60.7801 66.8501C60.7801 66.8501 56.2401 75.0401 56.0801 74.9601C58.8794 77.5487 62.5017 79.0677 66.3101 79.2501C72.7301 79.5801 82.0601 78.9801 82.0601 78.9801C82.0601 78.9801 87.7501 76.5901 88.7101 74.3301Z" fill="#203864"/>
  <g opacity="0.3">
    <path d="M68.7999 78.5486C68.7999 78.5486 62.0799 74.6685 56.6499 75.0385C56.6499 75.0385 62.9399 80.3286 68.7999 78.5486Z" fill="#96B5EA"/>
  </g>
  <g opacity="0.3">
    <path d="M88.0501 74.2695C88.0501 74.2695 79.3601 74.7595 74.8101 78.9195C74.8101 78.9195 83.1201 79.8795 88.0501 74.2695Z" fill="#96B5EA"/>
  </g>
</svg>