<svg width="520" height="372" viewBox="0 0 520 372" fill="none" xmlns="http://www.w3.org/2000/svg">
<path d="M311.72 267.061C311.679 265.072 311.606 263.051 311.502 260.998C310.115 235.289 304.222 215.945 293.822 202.966C283.422 189.987 269.108 183.99 250.88 184.974C232.618 185.959 219.039 193.468 210.143 207.501C201.248 221.534 197.49 241.387 198.87 267.061H311.72Z" stroke="#203864" stroke-width="2" stroke-miterlimit="10"/>
<path d="M226.814 267.062H283.92C283.92 265.574 283.806 264.056 283.723 262.506C282.606 242.497 279.552 228.141 274.56 219.44C269.568 210.739 262.094 206.641 252.138 207.147C242.209 207.688 235.227 212.607 231.192 221.905C227.032 231.431 225.58 246.497 226.835 267.103L226.814 267.062Z" fill="#E7EAEE"/>
<path d="M226.814 267.062H283.92C283.92 265.574 283.806 264.056 283.723 262.506C282.606 242.497 279.552 228.141 274.56 219.44C269.568 210.739 262.094 206.641 252.138 207.147C242.209 207.688 235.227 212.607 231.192 221.905C227.032 231.431 225.58 246.497 226.835 267.103L226.814 267.062Z" stroke="#203864" stroke-width="2" stroke-miterlimit="10"/>
<path d="M462.352 267.062C462.352 267.337 462.243 267.602 462.048 267.797C461.853 267.992 461.588 268.102 461.312 268.102H63.3044C63.0377 268.088 62.7863 267.973 62.6024 267.779C62.4185 267.585 62.3161 267.329 62.3164 267.062C62.3161 266.794 62.4185 266.538 62.6024 266.344C62.7863 266.15 63.0377 266.035 63.3044 266.021H461.354C461.63 266.021 461.894 266.131 462.089 266.326C462.284 266.521 462.394 266.786 462.394 267.062H462.352Z" fill="#203864"/>
<path opacity="0.5" d="M60.2568 104.551C61.8692 104.571 63.4351 104.011 64.6686 102.972C65.902 101.934 66.7207 100.486 66.9752 98.8935C67.0592 98.2905 67.1009 97.6823 67.1 97.0735C67.0973 93.5696 65.7034 90.2101 63.2248 87.7334C60.7461 85.2567 57.3855 83.8655 53.8816 83.8655C53.5904 83.8655 53.2888 83.8655 52.9976 83.8655C52.7199 80.2325 51.0407 76.8497 48.3149 74.4319C45.589 72.0141 42.0299 70.7507 38.3897 70.9087C34.7495 71.0667 31.3133 72.6337 28.8071 75.2785C26.3009 77.9233 24.9211 81.4389 24.9592 85.0823C24.9592 85.4255 24.9592 85.7687 24.9592 86.1223C22.6794 84.8399 20.0839 84.2271 17.4712 84.3543C14.0517 84.5339 10.8145 85.9525 8.36463 88.3449C5.91477 90.7374 4.41984 93.94 4.15921 97.3543C4.15921 97.3543 4.15921 97.4583 4.15921 97.5207C4.11252 98.4291 4.25163 99.3374 4.56804 100.19C4.88444 101.043 5.37149 101.822 5.99939 102.48C6.62729 103.138 7.38284 103.661 8.21983 104.018C9.05682 104.374 9.95764 104.555 10.8672 104.551H60.2568Z" fill="#E7EAEE"/>
<path opacity="0.5" d="M506.48 147.545C518.481 147.545 519.272 129.47 507.291 128.825C506.896 128.825 506.511 128.825 506.116 128.825C504.019 128.824 501.934 129.15 499.938 129.792C499.12 124.895 496.573 120.454 492.759 117.276C488.944 114.098 484.117 112.394 479.153 112.473C474.189 112.553 469.418 114.41 465.707 117.708C461.996 121.007 459.592 125.527 458.931 130.447C456.352 129.217 453.53 128.581 450.673 128.586C449.117 128.581 447.566 128.769 446.056 129.147C435.375 131.799 437.455 147.628 448.458 147.628L506.48 147.545Z" fill="#E7EAEE"/>
<path opacity="0.5" d="M392.507 59.4778C405.777 59.4778 406.64 39.4994 393.401 38.7402C392.975 38.7402 392.538 38.7402 392.101 38.7402C389.787 38.7317 387.485 39.0826 385.279 39.7802C384.434 34.3196 381.643 29.3491 377.419 25.7867C373.195 22.2243 367.825 20.3107 362.3 20.3994C356.775 20.4882 351.469 22.5732 347.362 26.2694C343.255 29.9657 340.624 35.0233 339.956 40.5082C335.528 38.3901 330.502 37.879 325.739 39.0626C313.935 41.985 316.223 59.4882 328.391 59.4882L392.507 59.4778Z" fill="#E7EAEE"/>
<g opacity="0.5">
<path d="M69.4836 25.0222L66.5924 29.047L63.7012 33.0614L61.6732 28.5478L59.6348 24.0342L64.5644 24.5334L69.4836 25.0222Z" fill="#E7EAEE"/>
<path d="M377.489 102.658L373.953 108.41L370.428 114.161L367.204 108.233L363.99 102.294L370.74 102.471L377.489 102.658Z" fill="#E7EAEE"/>
<path d="M487.5 176.093L491.244 178.62L494.978 181.158L490.911 183.123L486.855 185.089L487.178 180.596L487.5 176.093Z" fill="#E7EAEE"/>
<path d="M131.883 75.5039L135.658 74.2871L139.433 73.0703L138.601 76.9495L137.769 80.8287L134.826 78.1663L131.883 75.5039Z" fill="#E7EAEE"/>
<path d="M59.0938 160.118L64.4706 161.169H69.8577L67.2058 165.235L64.5538 169.915L61.829 165.277L59.0938 160.118Z" fill="#E7EAEE"/>
<path d="M288.123 22.5264L292.938 24.9288L297.753 27.3208L293.271 30.2952L288.789 33.2696L288.456 27.8928L288.123 22.5264Z" fill="#E7EAEE"/>
<path d="M466.877 35.5889L469.425 36.8577L471.983 38.1265L469.602 39.7073L467.231 41.2881L467.054 38.4385L466.877 35.5889Z" fill="#E7EAEE"/>
</g>
<path d="M232.638 165.953L296.608 147.16C296.893 147.078 297.159 146.94 297.39 146.754C297.621 146.569 297.813 146.34 297.955 146.08C298.097 145.819 298.186 145.534 298.218 145.239C298.249 144.945 298.222 144.647 298.137 144.363L272.033 55.4529C271.862 54.8785 271.471 54.3947 270.945 54.1065C270.42 53.8184 269.802 53.7491 269.225 53.9137L225.431 66.7785C224.87 66.9417 224.394 67.314 224.1 67.8185L209.623 93.1217C209.469 93.3847 209.371 93.6764 209.336 93.9788C209.3 94.2812 209.327 94.5878 209.415 94.8793L229.84 164.414C229.923 164.699 230.061 164.964 230.246 165.196C230.431 165.427 230.66 165.62 230.92 165.763C231.18 165.906 231.465 165.996 231.76 166.029C232.055 166.062 232.353 166.036 232.638 165.953Z" fill="#FEFEFF"/>
<path d="M232.638 165.953L296.608 147.16C296.893 147.078 297.159 146.94 297.39 146.754C297.621 146.569 297.813 146.34 297.955 146.08C298.097 145.819 298.186 145.534 298.218 145.239C298.249 144.945 298.222 144.647 298.137 144.363L272.033 55.4529C271.862 54.8785 271.471 54.3947 270.945 54.1065C270.42 53.8184 269.802 53.7491 269.225 53.9137L225.431 66.7785C224.87 66.9417 224.394 67.314 224.1 67.8185L209.623 93.1217C209.469 93.3847 209.371 93.6764 209.336 93.9788C209.3 94.2812 209.327 94.5878 209.415 94.8793L229.84 164.414C229.923 164.699 230.061 164.964 230.246 165.196C230.431 165.427 230.66 165.62 230.92 165.763C231.18 165.906 231.465 165.996 231.76 166.029C232.055 166.062 232.353 166.036 232.638 165.953V165.953Z" stroke="#203864" stroke-width="2" stroke-linecap="round" stroke-linejoin="round"/>
<path d="M225.119 68.1616L230.464 86.32C230.556 86.628 230.586 86.9512 230.552 87.2708C230.518 87.5904 230.421 87.9 230.266 88.1817C230.111 88.4633 229.902 88.7114 229.65 88.9113C229.399 89.1113 229.11 89.2592 228.8 89.3464L209.789 95.0144" fill="#FEFEFF"/>
<path d="M225.119 68.1616L230.464 86.32C230.556 86.628 230.586 86.9512 230.552 87.2708C230.518 87.5904 230.421 87.9 230.266 88.1817C230.111 88.4633 229.902 88.7114 229.65 88.9113C229.399 89.1113 229.11 89.2592 228.8 89.3464L209.789 95.0144" stroke="#203864" stroke-width="2" stroke-linecap="round" stroke-linejoin="round"/>
<path d="M236.007 136.1L235.358 136.29C234.255 136.611 233.622 137.766 233.944 138.869L237.523 151.139C237.844 152.242 238.999 152.875 240.102 152.554L240.751 152.364C241.854 152.043 242.487 150.888 242.165 149.785L238.586 137.515C238.265 136.412 237.11 135.779 236.007 136.1Z" fill="#E7EAEE"/>
<path d="M256.06 134.778L255.412 134.969C254.31 135.293 253.678 136.449 254.002 137.551L256.242 145.174C256.565 146.277 257.721 146.908 258.824 146.584L259.472 146.393C260.574 146.07 261.205 144.914 260.882 143.811L258.642 136.188C258.318 135.086 257.162 134.455 256.06 134.778Z" fill="#E7EAEE"/>
<path d="M263.986 127.402L263.337 127.593C262.235 127.917 261.604 129.073 261.928 130.175L265.53 142.438C265.854 143.541 267.01 144.172 268.112 143.848L268.761 143.657C269.863 143.334 270.494 142.178 270.17 141.075L266.568 128.812C266.244 127.71 265.088 127.079 263.986 127.402Z" fill="#E7EAEE"/>
<path d="M244.041 128.216L243.392 128.406C242.29 128.73 241.659 129.886 241.983 130.988L246.948 147.892C247.272 148.994 248.428 149.625 249.53 149.301L250.179 149.111C251.281 148.787 251.912 147.631 251.588 146.529L246.623 129.625C246.299 128.523 245.143 127.892 244.041 128.216Z" fill="#E7EAEE"/>
<path d="M224.109 104.489L267.061 91.8735" stroke="#E7EAEE" stroke-width="2" stroke-linecap="round" stroke-linejoin="round"/>
<path d="M226.148 111.446L269.111 98.8311" stroke="#E7EAEE" stroke-width="2" stroke-linecap="round" stroke-linejoin="round"/>
<path d="M228.197 118.415L271.16 105.799" stroke="#E7EAEE" stroke-width="2" stroke-linecap="round" stroke-linejoin="round"/>
<path d="M319.893 141.95L321.495 138.559C321.566 138.407 321.604 138.241 321.607 138.073C321.611 137.905 321.579 137.737 321.514 137.582C321.45 137.427 321.354 137.286 321.232 137.17C321.111 137.054 320.967 136.964 320.809 136.906L299.395 129.22L298.459 130.915L318.24 142.48C318.383 142.557 318.539 142.604 318.701 142.619C318.862 142.634 319.025 142.616 319.179 142.566C319.334 142.517 319.476 142.437 319.599 142.331C319.722 142.225 319.822 142.095 319.893 141.95Z" fill="#203864"/>
<path d="M283.328 141.45C292.908 141.45 300.675 133.684 300.675 124.103C300.675 114.522 292.908 106.756 283.328 106.756C273.747 106.756 265.98 114.522 265.98 124.103C265.98 133.684 273.747 141.45 283.328 141.45Z" fill="#E7EAEE"/>
<path d="M283.328 137.831C290.909 137.831 297.056 131.685 297.056 124.103C297.056 116.521 290.909 110.375 283.328 110.375C275.746 110.375 269.6 116.521 269.6 124.103C269.6 131.685 275.746 137.831 283.328 137.831Z" fill="#FEFEFF"/>
<path d="M283.328 141.45C292.908 141.45 300.675 133.684 300.675 124.103C300.675 114.522 292.908 106.756 283.328 106.756C273.747 106.756 265.98 114.522 265.98 124.103C265.98 133.684 273.747 141.45 283.328 141.45Z" stroke="#203864" stroke-width="2" stroke-linecap="round" stroke-linejoin="round"/>
<path d="M284.086 117.135L283.982 126.578" stroke="#FBBA2D" stroke-width="2" stroke-linecap="round" stroke-linejoin="round"/>
<path d="M283.567 130.759C283.854 130.759 284.087 130.526 284.087 130.239C284.087 129.952 283.854 129.719 283.567 129.719C283.28 129.719 283.047 129.952 283.047 130.239C283.047 130.526 283.28 130.759 283.567 130.759Z" stroke="#FBBA2D" stroke-width="2" stroke-linecap="round" stroke-linejoin="round"/>
<path d="M436.509 267.062C437.653 267.062 438.589 266.864 438.506 266.635C438.423 266.407 439.338 266.022 440.451 265.793L453.44 263.183C453.709 263.129 453.964 263.023 454.192 262.871C454.42 262.718 454.615 262.523 454.767 262.295C454.918 262.066 455.023 261.811 455.076 261.542C455.129 261.273 455.128 260.997 455.073 260.728L449.561 233.303C449.506 233.036 449.4 232.781 449.247 232.555C449.094 232.328 448.898 232.134 448.67 231.984C448.442 231.833 448.187 231.729 447.918 231.677C447.65 231.625 447.374 231.626 447.107 231.681L434.127 234.281C433.86 234.336 433.584 234.337 433.316 234.285C433.047 234.233 432.792 234.129 432.564 233.978C432.336 233.828 432.14 233.633 431.987 233.407C431.834 233.181 431.728 232.926 431.673 232.659L414.96 149.219C414.852 148.679 414.534 148.203 414.076 147.897C413.618 147.591 413.057 147.479 412.516 147.587L372.611 155.605C372.001 155.767 371.434 156.062 370.95 156.468C370.467 156.874 370.079 157.382 369.814 157.955L330.419 258.586C329.984 259.863 329.866 261.226 330.075 262.559L330.564 265.023C330.692 265.597 331.007 266.112 331.458 266.488C331.91 266.864 332.473 267.081 333.06 267.103L436.509 267.062ZM385.299 196.342C385.684 195.302 386.194 195.302 386.412 196.425L395.138 239.824C395.245 240.365 395.133 240.926 394.827 241.384C394.521 241.842 394.045 242.16 393.505 242.268L368.711 247.25C367.588 247.479 366.985 246.782 367.38 245.711L385.299 196.342Z" fill="#203864"/>
<path d="M174.033 267.061C174.614 267.043 175.17 266.826 175.611 266.448C176.052 266.07 176.35 265.552 176.456 264.981L178.879 250.796C178.97 250.253 178.841 249.696 178.521 249.247C178.201 248.799 177.717 248.496 177.174 248.404L164.101 246.22C163.558 246.128 163.073 245.825 162.754 245.376C162.434 244.928 162.305 244.371 162.395 243.828L176.383 159.879C176.474 159.336 176.345 158.779 176.025 158.33C175.705 157.882 175.221 157.579 174.678 157.487L134.482 150.8C133.855 150.733 133.222 150.806 132.627 151.013C132.032 151.219 131.49 151.555 131.039 151.996L58.4371 232.076C57.5738 233.112 56.9775 234.344 56.7003 235.664L52.9459 258.19C52.8997 258.46 52.9072 258.736 52.9679 259.003C53.0287 259.27 53.1415 259.522 53.3 259.746C53.4584 259.969 53.6594 260.158 53.8913 260.304C54.1232 260.449 54.3815 260.547 54.6515 260.593L91.5195 266.718C92.8966 266.928 94.2866 267.042 95.6795 267.061H174.033ZM131.84 193.44C132.589 192.577 133.047 192.785 132.88 193.918L125.6 237.598C125.509 238.141 125.205 238.626 124.757 238.946C124.308 239.265 123.752 239.394 123.208 239.304L98.2483 235.144C97.1147 234.946 96.8027 234.104 97.5515 233.22L131.84 193.44Z" fill="#203864"/>
<path d="M75.9831 298.511H55.0063C54.7191 298.511 54.4863 298.744 54.4863 299.031V299.042C54.4863 299.329 54.7191 299.562 55.0063 299.562H75.9831C76.2703 299.562 76.5031 299.329 76.5031 299.042V299.031C76.5031 298.744 76.2703 298.511 75.9831 298.511Z" fill="#E7EAEE"/>
<path d="M137.842 296.421H116.866C116.579 296.421 116.346 296.654 116.346 296.941V296.951C116.346 297.238 116.579 297.471 116.866 297.471H137.842C138.13 297.471 138.362 297.238 138.362 296.951V296.941C138.362 296.654 138.13 296.421 137.842 296.421Z" fill="#E7EAEE"/>
<path d="M183.966 290.129H162.989C162.702 290.129 162.469 290.362 162.469 290.649V290.659C162.469 290.947 162.702 291.179 162.989 291.179H183.966C184.253 291.179 184.486 290.947 184.486 290.659V290.649C184.486 290.362 184.253 290.129 183.966 290.129Z" fill="#E7EAEE"/>
<path d="M219.616 304.803H198.639C198.352 304.803 198.119 305.036 198.119 305.323V305.334C198.119 305.621 198.352 305.854 198.639 305.854H219.616C219.903 305.854 220.136 305.621 220.136 305.334V305.323C220.136 305.036 219.903 304.803 219.616 304.803Z" fill="#E7EAEE"/>
<path d="M294.05 298.511H273.073C272.786 298.511 272.553 298.744 272.553 299.031V299.042C272.553 299.329 272.786 299.562 273.073 299.562H294.05C294.337 299.562 294.57 299.329 294.57 299.042V299.031C294.57 298.744 294.337 298.511 294.05 298.511Z" fill="#E7EAEE"/>
<path d="M382.116 299.562H361.139C360.852 299.562 360.619 299.794 360.619 300.082V300.092C360.619 300.379 360.852 300.612 361.139 300.612H382.116C382.403 300.612 382.636 300.379 382.636 300.092V300.082C382.636 299.794 382.403 299.562 382.116 299.562Z" fill="#E7EAEE"/>
<path d="M106.382 280.696H85.4048C85.1176 280.696 84.8848 280.929 84.8848 281.216V281.226C84.8848 281.513 85.1176 281.746 85.4048 281.746H106.382C106.669 281.746 106.902 281.513 106.902 281.226V281.216C106.902 280.929 106.669 280.696 106.382 280.696Z" fill="#E7EAEE"/>
<path d="M259.46 286.978H238.483C238.196 286.978 237.963 287.21 237.963 287.498V287.508C237.963 287.795 238.196 288.028 238.483 288.028H259.46C259.747 288.028 259.98 287.795 259.98 287.508V287.498C259.98 287.21 259.747 286.978 259.46 286.978Z" fill="#E7EAEE"/>
<path d="M417.768 286.978H396.791C396.504 286.978 396.271 287.21 396.271 287.498V287.508C396.271 287.795 396.504 288.028 396.791 288.028H417.768C418.055 288.028 418.288 287.795 418.288 287.508V287.498C418.288 287.21 418.055 286.978 417.768 286.978Z" fill="#E7EAEE"/>
<path d="M340.184 286.978H319.207C318.92 286.978 318.688 287.21 318.688 287.498V287.508C318.688 287.795 318.92 288.028 319.207 288.028H340.184C340.472 288.028 340.704 287.795 340.704 287.508V287.498C340.704 287.21 340.472 286.978 340.184 286.978Z" fill="#E7EAEE"/>
<path d="M445.026 296.421H424.049C423.762 296.421 423.529 296.654 423.529 296.941V296.951C423.529 297.238 423.762 297.471 424.049 297.471H445.026C445.313 297.471 445.546 297.238 445.546 296.951V296.941C445.546 296.654 445.313 296.421 445.026 296.421Z" fill="#E7EAEE"/>
<path d="M53.5385 267.062C53.5403 267.317 53.448 267.564 53.2792 267.756C53.1104 267.948 52.8769 268.071 52.6233 268.102H29.3065C29.0509 268.073 28.8149 267.951 28.644 267.759C28.473 267.567 28.3793 267.319 28.3809 267.062C28.3793 266.804 28.473 266.556 28.644 266.364C28.8149 266.172 29.0509 266.05 29.3065 266.021H52.6233C52.8769 266.052 53.1104 266.175 53.2792 266.367C53.448 266.559 53.5403 266.806 53.5385 267.062Z" fill="#203864"/>
<path d="M495.113 267.062C495.114 267.319 495.021 267.567 494.85 267.759C494.679 267.951 494.443 268.073 494.187 268.102H470.881C470.625 268.073 470.389 267.951 470.218 267.759C470.047 267.567 469.954 267.319 469.955 267.062C469.954 266.804 470.047 266.556 470.218 266.364C470.389 266.172 470.625 266.05 470.881 266.021H494.187C494.443 266.05 494.679 266.172 494.85 266.364C495.021 266.556 495.114 266.804 495.113 267.062Z" fill="#203864"/>
<path opacity="0.5" d="M184.081 25.927C190.716 25.927 191.361 15.9326 184.715 15.3918C184.413 15.3918 184.101 15.3918 183.789 15.3918C182.61 15.3888 181.438 15.5713 180.316 15.9326C179.859 13.1775 178.428 10.678 176.283 8.8889C174.139 7.0998 171.423 6.13999 168.631 6.18407C165.838 6.22816 163.154 7.27321 161.067 9.12911C158.98 10.985 157.629 13.5284 157.259 16.2966C155.813 15.6108 154.232 15.2555 152.631 15.2566C151.715 15.2569 150.802 15.3757 149.917 15.6102C143.999 17.1494 145.257 26.0102 151.383 26.0102L184.081 25.927Z" fill="#E7EAEE"/>
</svg>
