<svg width="51" height="51" viewBox="0 0 51 51" fill="none" xmlns="http://www.w3.org/2000/svg">
<g clip-path="url(#clip0_14109_225477)">
<path d="M40.5 43H5.5L14.25 31.75L20.5 39.25L29.25 28L30.5 29.675V20.5H20.5V15.5H5.5C4.17392 15.5 2.90215 16.0268 1.96447 16.9645C1.02678 17.9021 0.5 19.1739 0.5 20.5L0.5 45.5C0.5 46.8261 1.02678 48.0979 1.96447 49.0355C2.90215 49.9732 4.17392 50.5 5.5 50.5H40.5C41.8261 50.5 43.0979 49.9732 44.0355 49.0355C44.9732 48.0979 45.5 46.8261 45.5 45.5V30.5H31.125L40.5 43Z" fill="#E9E9EA"/>
<path d="M40.5 10.5V0.5H35.5V10.5H25.5V15.5H35.5V25.5H40.5V15.5H50.5V10.5H40.5Z" fill="#E9E9EA"/>
</g>
<defs>
<clipPath id="clip0_14109_225477">
<rect width="50" height="50" fill="white" transform="translate(0.5 0.5)"/>
</clipPath>
</defs>
</svg>
