<svg width="520" height="372" viewBox="0 0 520 372" fill="none" xmlns="http://www.w3.org/2000/svg">
<path opacity="0.5" d="M508.561 148.72C509.817 148.707 511.027 148.24 511.966 147.405C512.905 146.569 513.509 145.422 513.667 144.175C513.709 143.788 513.73 143.399 513.73 143.01C513.73 140.335 512.667 137.769 510.775 135.877C508.883 133.985 506.317 132.922 503.642 132.922H502.966C502.755 130.152 501.476 127.571 499.399 125.726C497.321 123.88 494.608 122.914 491.832 123.032C489.056 123.149 486.434 124.341 484.519 126.355C482.605 128.369 481.549 131.048 481.573 133.827C481.573 134.098 481.573 134.358 481.573 134.607C479.999 133.73 478.229 133.263 476.427 133.251C474.626 133.239 472.85 133.682 471.264 134.538C469.679 135.395 468.335 136.637 467.358 138.151C466.38 139.664 465.8 141.4 465.671 143.198C465.666 143.239 465.666 143.281 465.671 143.322C465.634 144.016 465.74 144.71 465.98 145.362C466.221 146.014 466.592 146.61 467.071 147.113C467.55 147.616 468.127 148.017 468.766 148.289C469.405 148.562 470.093 148.701 470.788 148.699L508.561 148.72Z" fill="#E7EAEE"/>
<path opacity="0.5" d="M437.704 70.7198C447.927 70.7198 448.593 55.3278 438.391 54.735C438.058 54.735 437.725 54.735 437.351 54.735C435.567 54.7331 433.794 55.0139 432.099 55.567C431.383 51.4111 429.206 47.6477 425.96 44.9559C422.714 42.2642 418.612 40.8214 414.396 40.8879C410.179 40.9545 406.126 42.5259 402.966 45.3188C399.806 48.1116 397.749 51.9418 397.165 56.1182C393.632 54.4375 389.612 54.0832 385.839 55.1198C376.999 57.543 379.038 70.7198 388.211 70.7198H437.704Z" fill="#E7EAEE"/>
<path opacity="0.5" d="M286.156 40.5598C298.636 40.5598 299.405 21.8398 286.988 21.1222C286.572 21.1222 286.135 21.1222 285.708 21.1222C283.535 21.135 281.378 21.4858 279.312 22.1622C278.469 17.0841 275.83 12.4776 271.876 9.18102C267.923 5.88446 262.917 4.11693 257.77 4.20007C252.623 4.28321 247.676 6.21149 243.831 9.63403C239.986 13.0566 237.497 17.7459 236.818 22.8486C234.152 21.5633 231.229 20.8984 228.269 20.9038C226.667 20.9059 225.071 21.1014 223.516 21.4862C212.44 24.159 214.593 40.5598 226.002 40.5598H286.156Z" fill="#E7EAEE"/>
<path d="M296.619 63.1799C296.619 63.1799 329.837 45.8431 335.619 75.9199C341.402 105.997 305.532 106.257 305.532 106.257L296.619 63.1799Z" fill="#E7EAEE"/>
<path d="M296.619 63.1799C296.619 63.1799 329.837 45.8431 335.619 75.9199C341.402 105.997 305.532 106.257 305.532 106.257L296.619 63.1799Z" stroke="#203864" stroke-width="2" stroke-miterlimit="10"/>
<path d="M336.545 79.04C336.545 79.04 348.235 76.96 352.863 76.96C357.491 76.96 358.427 77.1992 359.352 82.7528C360.278 88.3064 361.432 97.8224 369.544 97.8224H418.081" stroke="#203864" stroke-width="2" stroke-miterlimit="10"/>
<path d="M304.828 115.111C313.839 113.336 318.566 98.8043 315.385 82.6529C312.205 66.5014 302.322 54.8466 293.31 56.621C284.299 58.3955 279.572 72.9273 282.753 89.0788C285.933 105.23 295.817 116.885 304.828 115.111Z" fill="#FEFEFF"/>
<path d="M304.828 115.111C313.839 113.336 318.566 98.8043 315.385 82.6529C312.205 66.5014 302.322 54.8466 293.31 56.621C284.299 58.3955 279.572 72.9273 282.753 89.0788C285.933 105.23 295.817 116.885 304.828 115.111Z" stroke="#203864" stroke-width="2" stroke-miterlimit="10"/>
<path d="M297.115 115.48C304.347 114.063 307.762 100.418 304.743 85.0015C301.724 69.5852 293.414 58.2358 286.182 59.652C278.95 61.0682 275.535 74.7137 278.554 90.1301C281.573 105.546 289.883 116.896 297.115 115.48Z" fill="#FEFEFF"/>
<path d="M297.115 115.48C304.347 114.063 307.762 100.418 304.743 85.0015C301.724 69.5852 293.414 58.2358 286.182 59.652C278.95 61.0682 275.535 74.7137 278.554 90.1301C281.573 105.546 289.883 116.896 297.115 115.48Z" stroke="#203864" stroke-width="2" stroke-miterlimit="10"/>
<path d="M289.12 82.1911C290.843 82.1911 292.24 80.3286 292.24 78.0311C292.24 75.7336 290.843 73.8711 289.12 73.8711C287.397 73.8711 286 75.7336 286 78.0311C286 80.3286 287.397 82.1911 289.12 82.1911Z" fill="#203864"/>
<path d="M293.28 101.951C295.003 101.951 296.4 100.089 296.4 97.7913C296.4 95.4938 295.003 93.6313 293.28 93.6313C291.557 93.6313 290.16 95.4938 290.16 97.7913C290.16 100.089 291.557 101.951 293.28 101.951Z" fill="#203864"/>
<path d="M223.6 115.44H205.296C199.228 115.44 193.408 113.03 189.117 108.739C184.827 104.448 182.416 98.6283 182.416 92.5602C182.416 86.492 184.827 80.6724 189.117 76.3816C193.408 72.0907 199.228 69.6802 205.296 69.6802H222.175L223.6 115.44Z" fill="#E7EAEE"/>
<path d="M223.6 115.44H205.296C199.228 115.44 193.408 113.03 189.117 108.739C184.827 104.448 182.416 98.6283 182.416 92.5602V92.5602C182.416 86.492 184.827 80.6724 189.117 76.3816C193.408 72.0907 199.228 69.6802 205.296 69.6802H222.175L223.6 115.44Z" stroke="#203864" stroke-width="2" stroke-miterlimit="10"/>
<path d="M224.641 102.96H255.976C256.37 102.96 256.761 103.038 257.125 103.19C257.489 103.342 257.82 103.565 258.098 103.845C258.375 104.126 258.594 104.458 258.742 104.824C258.891 105.19 258.965 105.581 258.961 105.976V107.276C258.961 108.068 258.646 108.827 258.086 109.387C257.527 109.946 256.767 110.261 255.976 110.261H224.641V102.96Z" fill="#FEFEFF"/>
<path d="M224.641 102.96H255.976C256.37 102.96 256.761 103.038 257.125 103.19C257.489 103.342 257.82 103.565 258.098 103.845C258.375 104.126 258.594 104.458 258.742 104.824C258.891 105.19 258.965 105.581 258.961 105.976V107.276C258.961 108.068 258.646 108.827 258.086 109.387C257.527 109.946 256.767 110.261 255.976 110.261H224.641V102.96Z" stroke="#203864" stroke-width="2" stroke-miterlimit="10"/>
<path d="M224.641 72.7998H255.976C256.37 72.7998 256.761 72.878 257.125 73.03C257.489 73.1819 257.82 73.4046 258.098 73.685C258.375 73.9655 258.594 74.2982 258.742 74.664C258.891 75.0297 258.965 75.4212 258.961 75.8158V77.1158C258.955 77.9038 258.638 78.6577 258.079 79.2129C257.52 79.7682 256.764 80.0798 255.976 80.0798H224.641V72.7998Z" fill="#FEFEFF"/>
<path d="M224.641 72.7998H255.976C256.37 72.7998 256.761 72.878 257.125 73.03C257.489 73.1819 257.82 73.4046 258.098 73.685C258.375 73.9655 258.594 74.2982 258.742 74.664C258.891 75.0297 258.965 75.4212 258.961 75.8158V77.1158C258.955 77.9038 258.638 78.6577 258.079 79.2129C257.52 79.7682 256.764 80.0798 255.976 80.0798H224.641V72.7998Z" stroke="#203864" stroke-width="2" stroke-miterlimit="10"/>
<path d="M98.8008 53.3001C98.8008 53.3001 131.8 48.8801 134.161 55.7025C136.522 62.5249 136.75 65.6553 135.638 78.8945C134.525 92.1337 145.819 92.4145 152.101 92.2585C158.382 92.1025 189.104 92.2585 189.104 92.2585" stroke="#203864" stroke-width="2" stroke-linecap="round" stroke-linejoin="round"/>
<path d="M224.463 63.4712H222.736C219.767 63.4712 217.359 65.8785 217.359 68.848V115.294C217.359 118.264 219.767 120.671 222.736 120.671H224.463C227.432 120.671 229.839 118.264 229.839 115.294V68.848C229.839 65.8785 227.432 63.4712 224.463 63.4712Z" fill="#FEFEFF"/>
<path d="M224.463 63.4712H222.736C219.767 63.4712 217.359 65.8785 217.359 68.848V115.294C217.359 118.264 219.767 120.671 222.736 120.671H224.463C227.432 120.671 229.839 118.264 229.839 115.294V68.848C229.839 65.8785 227.432 63.4712 224.463 63.4712Z" stroke="#203864" stroke-width="2" stroke-miterlimit="10"/>
<path d="M205.318 270.4H316.067C317.466 260.24 317.846 249.966 317.201 239.73C315.772 213.501 309.768 193.762 299.188 180.513C288.608 167.263 274.003 161.144 255.373 162.157C236.75 163.176 222.883 170.841 213.773 185.151C204.662 199.461 200.832 219.734 202.281 245.97C202.684 254.178 203.699 262.343 205.318 270.4V270.4Z" stroke="#203864" stroke-width="2" stroke-miterlimit="10"/>
<path d="M233.792 270.4H288.163C289.243 260.731 289.451 250.986 288.787 241.28C287.685 220.868 284.565 206.204 279.427 197.288C274.29 188.372 266.663 184.191 256.547 184.746C246.411 185.3 239.287 190.32 235.175 199.805C231.064 209.289 229.563 224.155 230.672 244.4C231.063 253.132 232.106 261.823 233.792 270.4Z" fill="#E7EAEE"/>
<path d="M233.792 270.4H288.163C289.243 260.731 289.451 250.986 288.787 241.28C287.685 220.868 284.565 206.204 279.427 197.288C274.29 188.372 266.663 184.191 256.547 184.746C246.411 185.3 239.287 190.32 235.175 199.805C231.064 209.289 229.563 224.155 230.672 244.4C231.063 253.132 232.106 261.823 233.792 270.4V270.4Z" stroke="#203864" stroke-width="2" stroke-miterlimit="10"/>
<path d="M134.722 259.314C132.929 260.814 130.844 261.927 128.6 262.582C126.355 263.238 123.999 263.421 121.68 263.12C111.665 262.08 105.342 248.56 105.342 248.56C105.07 248.038 104.644 247.612 104.12 247.342C103.597 247.072 103.003 246.971 102.42 247.052L74.6308 252.148C74.3654 252.192 74.112 252.29 73.8866 252.437C73.6612 252.583 73.4686 252.775 73.321 253C73.1734 253.225 73.0741 253.478 73.0292 253.743C72.9843 254.008 72.995 254.279 73.0604 254.54L77.8964 268.58C78.1887 269.105 78.609 269.547 79.1182 269.865C79.6274 270.183 80.2088 270.367 80.8084 270.4H168.553C169.164 270.369 169.754 270.174 170.263 269.835C170.772 269.496 171.18 269.027 171.444 268.476C171.444 268.476 176.644 256.173 177.58 247.562C179.057 233.931 175.622 222.439 167.274 213.086C159.345 203.954 148.215 198.214 136.178 197.049C128.898 196.269 119.028 198.349 119.028 198.349C118.797 198.426 118.55 198.438 118.312 198.385C118.075 198.332 117.856 198.216 117.68 198.048C117.504 197.88 117.376 197.668 117.312 197.433C117.247 197.198 117.247 196.951 117.312 196.716L120.079 179.036C120.173 178.486 120.472 177.991 120.916 177.652C121.359 177.312 121.915 177.153 122.471 177.206L173.015 182.676C173.562 182.735 174.11 182.574 174.539 182.229C174.968 181.883 175.243 181.383 175.303 180.835L178.225 153.92C178.284 153.373 178.123 152.825 177.777 152.396C177.432 151.967 176.932 151.692 176.384 151.632L94.1204 142.719C93.5647 142.665 93.0094 142.825 92.5684 143.168C92.1274 143.51 91.8342 144.008 91.7492 144.56L80.6108 221.52C80.5455 222.086 80.6818 222.657 80.9956 223.132C81.3094 223.608 81.7807 223.958 82.3268 224.12L107.027 230.797C108.308 231.062 109.641 230.843 110.771 230.183C110.771 230.183 117.822 225.524 123.948 226.19C130.34 226.883 134.937 229.282 137.738 233.387C140.467 237.233 141.685 241.949 141.16 246.636C140.577 252.079 138.431 256.305 134.722 259.314Z" fill="#203864"/>
<path d="M75.3991 300.591H53.5591C53.2719 300.591 53.0391 300.824 53.0391 301.111C53.0391 301.398 53.2719 301.631 53.5591 301.631H75.3991C75.6863 301.631 75.9191 301.398 75.9191 301.111C75.9191 300.824 75.6863 300.591 75.3991 300.591Z" fill="#E7EAEE"/>
<path d="M138.84 299.551H117C116.713 299.551 116.48 299.784 116.48 300.071C116.48 300.358 116.713 300.591 117 300.591H138.84C139.128 300.591 139.36 300.358 139.36 300.071C139.36 299.784 139.128 299.551 138.84 299.551Z" fill="#E7EAEE"/>
<path d="M185.639 292.271H163.799C163.512 292.271 163.279 292.504 163.279 292.791C163.279 293.078 163.512 293.311 163.799 293.311H185.639C185.926 293.311 186.159 293.078 186.159 292.791C186.159 292.504 185.926 292.271 185.639 292.271Z" fill="#E7EAEE"/>
<path d="M223.081 306.831H201.241C200.954 306.831 200.721 307.064 200.721 307.351C200.721 307.638 200.954 307.871 201.241 307.871H223.081C223.368 307.871 223.601 307.638 223.601 307.351C223.601 307.064 223.368 306.831 223.081 306.831Z" fill="#E7EAEE"/>
<path d="M297.96 300.591H276.12C275.832 300.591 275.6 300.824 275.6 301.111C275.6 301.398 275.832 301.631 276.12 301.631H297.96C298.247 301.631 298.48 301.398 298.48 301.111C298.48 300.824 298.247 300.591 297.96 300.591Z" fill="#E7EAEE"/>
<path d="M387.399 301.631H365.559C365.272 301.631 365.039 301.864 365.039 302.151C365.039 302.439 365.272 302.671 365.559 302.671H387.399C387.686 302.671 387.919 302.439 387.919 302.151C387.919 301.864 387.686 301.631 387.399 301.631Z" fill="#E7EAEE"/>
<path d="M106.6 282.911H84.7602C84.473 282.911 84.2402 283.144 84.2402 283.431C84.2402 283.718 84.473 283.951 84.7602 283.951H106.6C106.887 283.951 107.12 283.718 107.12 283.431C107.12 283.144 106.887 282.911 106.6 282.911Z" fill="#E7EAEE"/>
<path d="M262.6 289.151H240.76C240.473 289.151 240.24 289.384 240.24 289.671C240.24 289.959 240.473 290.191 240.76 290.191H262.6C262.887 290.191 263.12 289.959 263.12 289.671C263.12 289.384 262.887 289.151 262.6 289.151Z" fill="#E7EAEE"/>
<path d="M424.84 289.151H403C402.713 289.151 402.48 289.384 402.48 289.671C402.48 289.959 402.713 290.191 403 290.191H424.84C425.128 290.191 425.36 289.959 425.36 289.671C425.36 289.384 425.128 289.151 424.84 289.151Z" fill="#E7EAEE"/>
<path d="M345.799 289.151H323.959C323.672 289.151 323.439 289.384 323.439 289.671C323.439 289.959 323.672 290.191 323.959 290.191H345.799C346.087 290.191 346.319 289.959 346.319 289.671C346.319 289.384 346.087 289.151 345.799 289.151Z" fill="#E7EAEE"/>
<path d="M451.88 299.551H430.04C429.752 299.551 429.52 299.784 429.52 300.071C429.52 300.358 429.752 300.591 430.04 300.591H451.88C452.167 300.591 452.4 300.358 452.4 300.071C452.4 299.784 452.167 299.551 451.88 299.551Z" fill="#E7EAEE"/>
<path d="M466.43 270.4C466.43 270.676 466.321 270.94 466.126 271.135C465.931 271.33 465.666 271.44 465.39 271.44H71.7607C71.4849 271.44 71.2203 271.33 71.0253 271.135C70.8303 270.94 70.7207 270.676 70.7207 270.4C70.7207 270.124 70.8303 269.86 71.0253 269.664C71.2203 269.469 71.4849 269.36 71.7607 269.36H465.369C465.645 269.36 465.91 269.469 466.105 269.664C466.3 269.86 466.409 270.124 466.409 270.4H466.43Z" fill="#203864"/>
<path d="M59.0831 270.4C59.0849 270.655 58.9926 270.903 58.8238 271.094C58.655 271.286 58.4215 271.409 58.1679 271.44H35.0383C34.7846 271.409 34.5511 271.286 34.3823 271.094C34.2135 270.903 34.1212 270.655 34.1231 270.4C34.1212 270.144 34.2135 269.897 34.3823 269.705C34.5511 269.513 34.7846 269.391 35.0383 269.36H58.1679C58.4215 269.391 58.655 269.513 58.8238 269.705C58.9926 269.897 59.0849 270.144 59.0831 270.4Z" fill="#203864"/>
<path d="M496.205 270.4C496.213 270.528 496.197 270.657 496.155 270.779C496.114 270.901 496.048 271.013 495.963 271.11C495.878 271.207 495.775 271.285 495.66 271.342C495.544 271.399 495.418 271.432 495.29 271.44H478.4C478.145 271.412 477.909 271.29 477.738 271.098C477.567 270.906 477.473 270.657 477.475 270.4C477.473 270.143 477.567 269.894 477.738 269.702C477.909 269.51 478.145 269.388 478.4 269.36H495.279C495.408 269.368 495.534 269.401 495.649 269.458C495.765 269.514 495.868 269.593 495.953 269.69C496.038 269.786 496.103 269.899 496.145 270.021C496.186 270.143 496.203 270.271 496.195 270.4H496.205Z" fill="#203864"/>
<path opacity="0.5" d="M56.3567 116.48C65.1863 116.48 65.8727 103.168 57.0535 102.575C56.7207 102.575 56.3775 102.575 56.0135 102.575C54.4599 102.572 52.9157 102.815 51.4375 103.293C50.842 99.653 48.9578 96.3488 46.1286 93.9829C43.2994 91.617 39.7138 90.3472 36.0262 90.4052C32.3386 90.4632 28.7948 91.8452 26.0414 94.2989C23.288 96.7526 21.5086 100.114 21.0279 103.771C19.1186 102.858 17.0289 102.386 14.9127 102.388C13.6439 102.387 12.3808 102.558 11.1583 102.897C3.4519 104.977 5.2407 116.511 13.2383 116.511L56.3567 116.48Z" fill="#E7EAEE"/>
<path d="M437.175 270.4C438.319 270.4 439.255 270.192 439.172 269.942C439.089 269.693 439.994 269.298 441.117 269.079L455.043 266.282C455.311 266.228 455.567 266.122 455.794 265.97C456.022 265.818 456.217 265.622 456.369 265.394C456.521 265.166 456.626 264.91 456.678 264.641C456.731 264.372 456.73 264.096 456.675 263.827L450.81 234.655C450.699 234.117 450.38 233.644 449.922 233.34C449.465 233.036 448.905 232.925 448.366 233.033L434.43 235.83C433.889 235.938 433.328 235.826 432.87 235.52C432.412 235.214 432.094 234.738 431.986 234.198L414.243 145.922C414.135 145.382 413.817 144.907 413.359 144.6C412.901 144.294 412.34 144.183 411.799 144.29L369.471 152.88C368.86 153.037 368.292 153.328 367.808 153.733C367.324 154.138 366.936 154.646 366.674 155.22L325.011 261.591C324.568 262.866 324.446 264.231 324.658 265.564L325.23 268.393C325.356 268.966 325.668 269.48 326.118 269.857C326.568 270.233 327.129 270.45 327.715 270.473L437.175 270.4ZM383.095 196.227C383.491 195.187 383.99 195.187 384.219 196.31L393.464 242.341C393.572 242.88 393.461 243.44 393.157 243.898C392.853 244.356 392.38 244.675 391.842 244.785L365.436 250.089C364.313 250.318 363.72 249.621 364.105 248.55L383.095 196.227Z" fill="#203864"/>
<g opacity="0.5">
<path d="M452.535 174.595L455.489 170.498L458.442 166.4L460.512 171.007L462.592 175.604L457.558 175.105L452.535 174.595Z" fill="#E7EAEE"/>
<path d="M179.545 51.8129L183.143 45.9369L186.742 40.0713L190.028 46.1241L193.315 52.1769L186.43 52.0001L179.545 51.8129Z" fill="#E7EAEE"/>
<path d="M79.8927 19.3023L76.0863 16.7231L72.2695 14.1439L76.4087 12.1367L80.5479 10.1191L80.2255 14.7159L79.8927 19.3023Z" fill="#E7EAEE"/>
<path d="M392.308 112.767L388.45 114.015L384.602 115.253L385.454 111.301L386.297 107.338L389.302 110.053L392.308 112.767Z" fill="#E7EAEE"/>
<path d="M495.248 50.9909L489.757 52.0309H484.266L486.97 46.4357L489.674 41.6621L492.461 46.3837L495.248 50.9909Z" fill="#E7EAEE"/>
<path d="M310.855 161.096L305.936 158.641L301.027 156.197L305.603 153.171L310.179 150.134L310.512 155.615L310.855 161.096Z" fill="#E7EAEE"/>
<path d="M49.3471 174.137L46.7367 172.837L44.1367 171.537L46.5599 169.936L48.9831 168.324L49.1703 171.225L49.3471 174.137Z" fill="#E7EAEE"/>
<path d="M119.818 86.5178L116.958 86.0082L114.088 85.4986L115.97 83.273L117.842 81.0474L118.83 83.7826L119.818 86.5178Z" fill="#E7EAEE"/>
</g>
</svg>
