<svg width="600" height="601" viewBox="0 0 600 601" fill="none" xmlns="http://www.w3.org/2000/svg">
<path d="M553.31 68.4268H470.425V154.828H553.31V68.4268Z" fill="#E0E0E0"/>
<path d="M547.696 68.4268H464.811V154.828H547.696V68.4268Z" fill="#FAFAFA"/>
<path d="M547.722 154.853H464.786V68.4014H547.722V154.853ZM464.836 154.801H547.67V68.4518H464.836V154.801Z" fill="#E0E0E0"/>
<path d="M536.554 80.041H475.953V143.213H536.554V80.041Z" fill="white"/>
<path d="M475.953 143.633C476.001 143.689 475.425 144.35 474.458 145.372C473.491 146.393 472.13 147.775 470.606 149.276C469.081 150.779 467.68 152.117 466.647 153.066C465.614 154.015 464.948 154.577 464.895 154.525C464.842 154.472 465.415 153.815 466.383 152.794C467.351 151.772 468.715 150.386 470.243 148.88C471.772 147.374 473.176 146.034 474.209 145.084C475.243 144.134 475.905 143.576 475.953 143.633Z" fill="#E0E0E0"/>
<path d="M536.554 143.478C536.611 143.43 537.272 144.006 538.293 144.974C539.314 145.942 540.697 147.302 542.198 148.826C543.7 150.351 545.038 151.751 545.987 152.784C546.937 153.818 547.498 154.484 547.447 154.535C547.394 154.588 546.736 154.016 545.715 153.048C544.694 152.08 543.308 150.717 541.802 149.188C540.296 147.659 538.955 146.255 538.005 145.222C537.056 144.189 536.498 143.525 536.554 143.478Z" fill="#E0E0E0"/>
<path d="M536.388 80.2091C536.34 80.1527 536.916 79.4915 537.883 78.4703C538.85 77.4491 540.211 76.0667 541.735 74.5655C543.26 73.0631 544.661 71.7251 545.694 70.7759C546.727 69.8267 547.393 69.2651 547.446 69.3179C547.498 69.3707 546.926 70.0283 545.958 71.0495C544.99 72.0707 543.626 73.4567 542.098 74.9627C540.569 76.4687 539.165 77.8091 538.132 78.7595C537.098 79.7075 536.436 80.2667 536.388 80.2091Z" fill="#E0E0E0"/>
<path d="M475.787 80.3649C475.731 80.4129 475.07 79.8368 474.049 78.8696C473.027 77.9012 471.645 76.5416 470.144 75.0176C468.641 73.4924 467.303 72.092 466.354 71.0588C465.404 70.0256 464.842 69.3596 464.895 69.308C464.948 69.2552 465.604 69.8277 466.627 70.7949C467.649 71.7621 469.034 73.1265 470.54 74.6553C472.046 76.1841 473.386 77.588 474.337 78.6224C475.286 79.6544 475.844 80.3169 475.787 80.3649Z" fill="#E0E0E0"/>
<path d="M536.388 143.212C536.384 143.207 536.38 143.104 536.375 142.905C536.372 142.689 536.368 142.4 536.362 142.023C536.356 141.231 536.346 140.092 536.334 138.613C536.32 135.62 536.3 131.266 536.273 125.738C536.244 114.674 536.204 98.9117 536.154 80.0393L536.388 80.2733C518.746 80.2829 498.029 80.2949 475.959 80.3081H475.953L476.222 80.0393C476.207 103.226 476.194 124.917 476.184 143.211L475.954 142.981C494.063 143.029 509.141 143.071 519.713 143.098C524.994 143.123 529.15 143.144 532.005 143.158C533.415 143.17 534.501 143.179 535.257 143.185C535.614 143.191 535.892 143.194 536.097 143.198C536.285 143.204 536.384 143.207 536.388 143.212C536.393 143.217 536.303 143.221 536.121 143.225C535.92 143.229 535.653 143.233 535.305 143.239C534.56 143.245 533.488 143.253 532.097 143.265C529.254 143.279 525.118 143.3 519.858 143.325C509.252 143.354 494.123 143.395 475.953 143.443H475.722V143.211C475.712 124.917 475.698 103.226 475.684 80.0393V79.7705H475.953H475.959C498.028 79.7825 518.746 79.7945 536.388 79.8053H536.622V80.0393C536.573 98.9729 536.532 114.787 536.504 125.887C536.477 131.392 536.457 135.728 536.442 138.709C536.43 140.168 536.422 141.292 536.415 142.073C536.409 142.438 536.404 142.72 536.402 142.93C536.397 143.122 536.393 143.217 536.388 143.212Z" fill="#E0E0E0"/>
<path d="M516.364 101.517H496.143V121.738H516.364V101.517Z" fill="#EBEBEB"/>
<path d="M553.31 188.047H470.425V274.448H553.31V188.047Z" fill="#E0E0E0"/>
<path d="M547.696 188.047H464.811V274.448H547.696V188.047Z" fill="#FAFAFA"/>
<path d="M547.722 274.472H464.786V188.02H547.722V274.472ZM464.836 274.421H547.67V188.071H464.836V274.421Z" fill="#E0E0E0"/>
<path d="M536.554 199.661H475.953V262.833H536.554V199.661Z" fill="white"/>
<path d="M475.953 263.252C476.001 263.309 475.425 263.97 474.458 264.991C473.491 266.012 472.13 267.395 470.606 268.896C469.081 270.398 467.68 271.736 466.647 272.685C465.614 273.635 464.948 274.197 464.895 274.145C464.842 274.092 465.415 273.434 466.383 272.413C467.351 271.392 468.715 270.006 470.243 268.5C471.772 266.994 473.176 265.653 474.209 264.703C475.243 263.754 475.905 263.195 475.953 263.252Z" fill="#E0E0E0"/>
<path d="M536.554 263.097C536.611 263.049 537.272 263.625 538.293 264.592C539.314 265.56 540.697 266.92 542.198 268.444C543.7 269.969 545.038 271.369 545.987 272.403C546.937 273.436 547.498 274.102 547.447 274.155C547.394 274.207 546.736 273.635 545.715 272.668C544.694 271.699 543.308 270.336 541.802 268.807C540.296 267.279 538.955 265.875 538.005 264.841C537.056 263.807 536.498 263.145 536.554 263.097Z" fill="#E0E0E0"/>
<path d="M536.388 199.828C536.34 199.772 536.916 199.111 537.883 198.089C538.85 197.068 540.211 195.686 541.735 194.185C543.26 192.682 544.661 191.344 545.694 190.395C546.727 189.446 547.393 188.884 547.446 188.937C547.498 188.99 546.926 189.647 545.958 190.669C544.99 191.69 543.626 193.076 542.098 194.582C540.569 196.088 539.165 197.428 538.132 198.379C537.098 199.327 536.436 199.885 536.388 199.828Z" fill="#E0E0E0"/>
<path d="M475.787 199.983C475.731 200.031 475.07 199.455 474.049 198.488C473.027 197.521 471.645 196.16 470.144 194.636C468.641 193.111 467.303 191.71 466.354 190.677C465.404 189.644 464.842 188.978 464.895 188.926C464.948 188.873 465.604 189.446 466.627 190.413C467.648 191.38 469.034 192.745 470.54 194.273C472.046 195.802 473.386 197.206 474.337 198.239C475.286 199.273 475.844 199.935 475.787 199.983Z" fill="#E0E0E0"/>
<path d="M536.388 262.831C536.384 262.827 536.38 262.723 536.375 262.524C536.372 262.308 536.368 262.019 536.362 261.642C536.356 260.85 536.346 259.711 536.334 258.231C536.32 255.239 536.3 250.885 536.273 245.357C536.244 234.293 536.204 218.531 536.154 199.658L536.388 199.892C518.746 199.902 498.029 199.914 475.959 199.927H475.953L476.222 199.658C476.207 222.845 476.194 244.536 476.184 262.83L475.954 262.599C494.063 262.649 509.141 262.689 519.713 262.717C524.994 262.742 529.15 262.763 532.005 262.777C533.415 262.789 534.501 262.797 535.257 262.803C535.614 262.809 535.892 262.813 536.097 262.817C536.285 262.823 536.384 262.827 536.388 262.831C536.393 262.836 536.303 262.839 536.121 262.844C535.92 262.848 535.653 262.851 535.305 262.857C534.56 262.863 533.488 262.872 532.097 262.884C529.254 262.898 525.118 262.919 519.858 262.944C509.252 262.973 494.123 263.012 475.953 263.061L475.722 263.063V262.831C475.712 244.537 475.698 222.846 475.684 199.659V199.391H475.953H475.959C498.028 199.403 518.746 199.415 536.388 199.425H536.622V199.659C536.573 218.593 536.532 234.407 536.504 245.507C536.477 251.012 536.457 255.348 536.442 258.329C536.43 259.788 536.422 260.912 536.415 261.693C536.409 262.058 536.404 262.34 536.402 262.55C536.397 262.742 536.393 262.836 536.388 262.831Z" fill="#E0E0E0"/>
<path d="M516.364 221.135H496.143V241.356H516.364V221.135Z" fill="#EBEBEB"/>
<path d="M120.771 277.888H55.3887V346.043H120.771V277.888Z" fill="#E0E0E0"/>
<path d="M116.342 277.888H50.9609V346.043H116.342V277.888Z" fill="#FAFAFA"/>
<path d="M116.362 346.063H50.9404V277.868H116.362V346.063ZM50.9812 346.022H116.322V277.908H50.9812V346.022Z" fill="#E0E0E0"/>
<path d="M107.553 287.051H59.7495V336.882H107.553V287.051Z" fill="white"/>
<path d="M59.7498 337.213C59.787 337.258 59.3334 337.778 58.5702 338.585C57.807 339.39 56.7342 340.481 55.5318 341.665C54.3282 342.85 53.2242 343.906 52.4082 344.654C51.5934 345.403 51.0678 345.847 51.027 345.805C50.9862 345.763 51.4374 345.245 52.2006 344.44C52.9638 343.634 54.0402 342.541 55.2462 341.353C56.4522 340.165 57.5598 339.108 58.3746 338.358C59.1894 337.608 59.7126 337.168 59.7498 337.213Z" fill="#E0E0E0"/>
<path d="M107.553 337.09C107.597 337.053 108.119 337.506 108.924 338.27C109.73 339.033 110.82 340.106 112.005 341.308C113.189 342.51 114.245 343.616 114.994 344.432C115.743 345.246 116.186 345.772 116.145 345.813C116.103 345.854 115.584 345.402 114.779 344.639C113.974 343.876 112.881 342.8 111.693 341.594C110.505 340.388 109.448 339.28 108.698 338.465C107.949 337.65 107.508 337.128 107.553 337.09Z" fill="#E0E0E0"/>
<path d="M107.422 287.182C107.385 287.138 107.838 286.616 108.602 285.811C109.365 285.006 110.438 283.915 111.64 282.73C112.842 281.545 113.948 280.49 114.762 279.741C115.577 278.992 116.103 278.55 116.144 278.59C116.184 278.632 115.733 279.151 114.97 279.956C114.207 280.761 113.132 281.854 111.924 283.042C110.718 284.23 109.611 285.288 108.796 286.038C107.982 286.788 107.46 287.228 107.422 287.182Z" fill="#E0E0E0"/>
<path d="M59.6187 287.305C59.5743 287.344 59.0535 286.889 58.2471 286.126C57.4419 285.363 56.3511 284.29 55.1667 283.087C53.9823 281.885 52.9263 280.78 52.1775 279.965C51.4287 279.15 50.9847 278.625 51.0267 278.584C51.0687 278.542 51.5859 278.993 52.3923 279.756C53.1975 280.519 54.2907 281.596 55.4787 282.802C56.6667 284.008 57.7239 285.115 58.4739 285.93C59.2227 286.745 59.6631 287.268 59.6187 287.305Z" fill="#E0E0E0"/>
<path d="M107.422 336.88C107.419 336.877 107.415 336.795 107.411 336.638C107.409 336.467 107.405 336.239 107.401 335.943C107.396 335.318 107.389 334.42 107.379 333.253C107.368 330.892 107.351 327.458 107.331 323.097C107.308 314.369 107.276 301.936 107.237 287.05L107.422 287.235C93.5058 287.244 77.163 287.252 59.7546 287.263H59.7498L59.961 287.052C59.9502 305.342 59.9394 322.451 59.931 336.881L59.7486 336.7C74.0334 336.739 85.9278 336.771 94.2666 336.793C98.433 336.813 101.71 336.829 103.963 336.839C105.075 336.849 105.932 336.856 106.528 336.861C106.81 336.866 107.029 336.869 107.191 336.872C107.342 336.874 107.419 336.877 107.422 336.88C107.426 336.884 107.355 336.887 107.211 336.891C107.053 336.893 106.841 336.897 106.568 336.901C105.98 336.905 105.135 336.913 104.037 336.922C101.794 336.933 98.5314 336.949 94.383 336.969C86.0166 336.992 74.0826 337.023 59.7498 337.061H59.5686V336.879C59.5602 322.449 59.5494 305.338 59.5386 287.049V286.838H59.751H59.7558C77.1642 286.847 93.507 286.857 107.423 286.866H107.608V287.05C107.569 301.985 107.537 314.459 107.515 323.216C107.493 327.559 107.477 330.98 107.467 333.33C107.457 334.482 107.45 335.367 107.445 335.984C107.44 336.272 107.437 336.494 107.434 336.659C107.429 336.809 107.426 336.884 107.422 336.88Z" fill="#E0E0E0"/>
<path d="M91.6274 303.989H75.6758V319.941H91.6274V303.989Z" fill="#EBEBEB"/>
<path d="M544.74 309.642C531.89 316.298 522.037 327.757 514.952 340.375C507.868 352.993 503.302 366.838 498.779 380.584L494.821 451.477C509.772 426.042 521.773 396.141 525.014 366.816C521.698 366.52 518.382 366.225 515.065 365.93C521.736 364.912 527.335 360.078 530.898 354.348C534.461 348.616 536.294 342.007 538.085 335.5C534.038 336.102 529.992 336.704 525.946 337.305C535.452 330.96 542.344 320.816 544.74 309.642Z" fill="#203864"/>
<path d="M492.607 468.087C492.607 468.087 460.156 429.246 460.53 392.166H473.639C473.639 392.166 459.4 382.802 460.526 377.558C461.653 372.314 462.028 352.464 462.028 352.464L474.013 355.46C474.013 355.46 465.024 350.966 463.901 343.849C462.778 336.733 466.523 303.772 466.523 303.772C466.523 303.772 481.13 319.129 485.624 334.86C490.12 350.59 501.917 368.943 498.452 416.884C494.988 464.826 492.607 468.087 492.607 468.087Z" fill="#CFE4FF"/>
<path d="M509.059 471.755C509.059 471.755 544.218 448.333 552.028 418.44L541.489 415.572C541.489 415.572 554.985 411.16 555.226 406.697C555.468 402.234 559.509 386.194 559.509 386.194L549.218 385.98C549.218 385.98 557.429 384.334 559.889 378.858C562.348 373.382 566.548 346.064 566.548 346.064C566.548 346.064 551.445 355.214 544.389 366.878C537.334 378.542 523.833 390.716 516.131 430.018C508.428 469.319 509.059 471.755 509.059 471.755Z" fill="#CFE4FF"/>
<path d="M475.388 337.639C475.399 337.636 475.439 337.773 475.506 338.042C475.578 338.343 475.671 338.738 475.789 339.237C476.034 340.329 476.379 341.875 476.82 343.846C477.27 345.848 477.794 348.301 478.362 351.159C478.939 354.015 479.613 357.263 480.272 360.871C481.663 368.072 483.129 376.683 484.64 386.261C486.104 395.848 487.566 406.411 488.864 417.526C490.136 428.649 491.124 439.269 491.886 448.937C492.601 458.609 493.137 467.329 493.427 474.657C493.609 478.319 493.694 481.636 493.783 484.547C493.881 487.459 493.932 489.968 493.95 492.017C493.97 494.038 493.986 495.621 493.998 496.739C493.997 497.253 493.995 497.659 493.994 497.967C493.989 498.244 493.982 498.386 493.971 498.386C493.961 498.386 493.946 498.244 493.931 497.968C493.916 497.66 493.896 497.254 493.872 496.742C493.832 495.625 493.777 494.042 493.707 492.023C493.652 489.974 493.567 487.468 493.435 484.559C493.313 481.651 493.196 478.336 492.986 474.677C492.641 467.355 492.059 458.645 491.313 448.982C490.52 439.322 489.516 428.711 488.245 417.597C486.948 406.489 485.504 395.932 484.073 386.348C482.594 376.771 481.173 368.158 479.84 360.95C479.21 357.339 478.567 354.086 478.022 351.226C477.487 348.364 476.999 345.904 476.585 343.895C476.192 341.913 475.885 340.36 475.668 339.263C475.574 338.758 475.501 338.36 475.445 338.055C475.395 337.781 475.377 337.641 475.388 337.639Z" fill="#203864"/>
<path d="M488.106 491.874C488.106 491.874 458.408 458.178 449.188 437.809L456.149 434.834C451.103 435.667 445.933 433.498 442.021 430.204C438.108 426.912 435.235 422.58 432.419 418.311L441.589 416.762C433.25 414.422 425.903 408.73 421.553 401.241C432.374 403.021 442.164 408.964 450.232 416.394C456.766 422.409 462.298 429.394 467.61 436.53C470.202 440.011 472.47 443.719 474.359 447.626C479.347 457.942 488.123 479.498 488.106 491.874Z" fill="#CFE4FF"/>
<path d="M552.496 365.676C552.505 365.681 552.458 365.797 552.36 366.019C552.242 366.271 552.092 366.594 551.904 366.998C551.472 367.892 550.867 369.144 550.098 370.738C548.507 373.973 546.252 378.679 543.524 384.518C540.787 390.354 537.637 397.355 534.252 405.175C530.896 413.008 527.321 421.669 523.763 430.837C520.225 440.017 517.044 448.832 514.258 456.887C511.5 464.952 509.12 472.249 507.221 478.41C505.31 484.566 503.813 489.564 502.814 493.028C502.312 494.725 501.917 496.058 501.636 497.01C501.503 497.436 501.397 497.776 501.314 498.041C501.239 498.272 501.194 498.389 501.184 498.386C501.173 498.384 501.197 498.26 501.252 498.024C501.319 497.754 501.406 497.41 501.514 496.976C501.768 496.018 502.126 494.674 502.58 492.962C503.508 489.476 504.942 484.458 506.798 478.28C508.646 472.1 510.984 464.783 513.713 456.701C516.472 448.63 519.641 439.8 523.181 430.613C526.741 421.436 530.336 412.775 533.724 404.947C537.14 397.133 540.334 390.146 543.125 384.331C545.906 378.511 548.222 373.834 549.881 370.63C550.696 369.059 551.335 367.823 551.792 366.942C552.004 366.548 552.172 366.235 552.304 365.99C552.421 365.778 552.486 365.671 552.496 365.676Z" fill="#203864"/>
<path d="M490.626 506.312C490.605 506.314 490.556 506.1 490.482 505.692C490.404 505.214 490.307 504.623 490.191 503.904C489.964 502.349 489.576 500.106 489.032 497.351C488.498 494.594 487.733 491.337 486.761 487.755C485.757 484.182 484.526 480.29 483.023 476.278C481.498 472.274 479.85 468.538 478.242 465.192C476.604 461.861 475.025 458.912 473.604 456.489C472.192 454.061 471.002 452.122 470.144 450.806C469.757 450.189 469.439 449.682 469.181 449.271C468.966 448.916 468.862 448.724 468.88 448.712C468.898 448.7 469.036 448.868 469.284 449.2C469.569 449.594 469.919 450.08 470.345 450.671C471.267 451.949 472.518 453.857 473.984 456.264C475.458 458.667 477.086 461.607 478.758 464.939C480.402 468.286 482.075 472.035 483.608 476.058C485.117 480.089 486.337 484.007 487.317 487.605C488.264 491.211 488.986 494.493 489.466 497.271C489.957 500.046 490.28 502.305 490.432 503.873C490.503 504.599 490.56 505.196 490.607 505.679C490.64 506.092 490.647 506.309 490.626 506.312Z" fill="#203864"/>
<path d="M529.812 498.386H464.815V511.645H529.812V498.386Z" fill="#203864"/>
<path d="M471.008 511.645L477.676 549.658H516.952L523.867 511.645H471.008Z" fill="#203864"/>
<path d="M525.824 511.645C525.824 511.818 513.529 511.958 498.365 511.958C483.196 511.958 470.903 511.818 470.903 511.645C470.903 511.472 483.196 511.333 498.365 511.333C513.529 511.333 525.824 511.472 525.824 511.645Z" fill="#CFE4FF"/>
<path d="M144.108 61.4688H38.5527V232.904H144.108V61.4688Z" fill="#203864"/>
<path d="M140.597 61.4688H35.0415V232.904H140.597V61.4688Z" fill="#C3DBFB"/>
<path d="M136.103 64.9453H39.5366V229.428H136.103V64.9453Z" fill="#CFE4FF"/>
<path d="M117.3 86.3184H57.9204V208.055H117.3V86.3184Z" fill="#C3DBFB"/>
<path d="M57.9208 164.976C57.784 153.604 68.2048 142.503 79.6816 140.915C85.1548 140.158 90.9688 141.224 96.0832 139.167C105.21 135.495 108.116 123.596 117.302 120.066L117.72 208.055H57.9208V164.976Z" fill="#203864"/>
<path d="M567.018 550.195C567.018 550.368 447.461 550.507 300.013 550.507C152.514 550.507 32.9829 550.366 32.9829 550.195C32.9829 550.023 152.515 549.883 300.013 549.883C447.459 549.883 567.018 550.022 567.018 550.195Z" fill="#263238"/>
<path d="M420.911 446.249H179.089C172.544 446.249 167.239 440.762 167.239 433.991V64.3517C167.239 57.5826 172.544 52.0938 179.089 52.0938H420.912C427.457 52.0938 432.762 57.5826 432.762 64.3517V433.99C432.762 440.761 427.456 446.249 420.911 446.249Z" fill="#191A15"/>
<path d="M304.631 428.318C304.631 434.424 299.59 439.374 293.37 439.374C287.151 439.374 282.109 434.424 282.109 428.318C282.109 422.211 287.151 417.261 293.37 417.261C299.59 417.261 304.631 422.212 304.631 428.318Z" fill="#455A64"/>
<path d="M327.205 72.9236H272.977C270.888 72.9236 269.195 71.1728 269.195 69.0116C269.195 66.8516 270.888 65.0996 272.977 65.0996H327.205C329.294 65.0996 330.988 66.8516 330.988 69.0116C330.986 71.1728 329.293 72.9236 327.205 72.9236Z" fill="#455A64"/>
<path d="M424.159 80.2139H175.381V409.381H424.159V80.2139Z" fill="white"/>
<path d="M424.39 80.2139H175.612V409.381H424.39V80.2139Z" fill="#EBEBEB"/>
<path d="M391.685 382.351H208.315C201.784 382.351 196.488 377.056 196.488 370.524V118.877C196.488 112.345 201.784 107.05 208.315 107.05H391.684C398.215 107.05 403.511 112.345 403.511 118.877V370.524C403.512 377.056 398.217 382.351 391.685 382.351Z" fill="white"/>
<path d="M263.597 142.571L264.765 139.948C265.878 140.685 267.46 141.187 268.914 141.187C270.388 141.187 270.962 140.775 270.962 140.164C270.962 138.169 263.813 139.625 263.813 134.955C263.813 132.709 265.646 130.877 269.381 130.877C271.016 130.877 272.704 131.254 273.944 131.973L272.848 134.614C271.644 133.967 270.459 133.643 269.363 133.643C267.873 133.643 267.334 134.146 267.334 134.775C267.334 136.697 274.466 135.259 274.466 139.894C274.466 142.085 272.633 143.953 268.896 143.953C266.83 143.953 264.782 143.397 263.597 142.571Z" fill="#FBBA2D"/>
<path d="M275.562 131.075C275.562 130.05 276.389 129.261 277.646 129.261C278.903 129.261 279.729 129.998 279.729 131.021C279.729 132.099 278.903 132.89 277.646 132.89C276.389 132.89 275.562 132.099 275.562 131.075ZM275.941 133.967H279.353V143.703H275.941V133.967Z" fill="#FBBA2D"/>
<path d="M292.036 133.967V141.924C292.036 145.607 289.953 147.349 286.324 147.349C284.455 147.349 282.677 146.918 281.491 146.073L282.731 143.684C283.539 144.331 284.868 144.726 286.018 144.726C287.85 144.726 288.622 143.9 288.622 142.373V142.05C287.957 142.823 286.969 143.199 285.73 143.199C283.144 143.199 280.953 141.367 280.953 138.493C280.953 135.637 283.144 133.805 285.73 133.805C287.077 133.805 288.119 134.235 288.784 135.152V133.967H292.036ZM288.658 138.493C288.658 137.307 287.759 136.518 286.539 136.518C285.317 136.518 284.401 137.307 284.401 138.493C284.401 139.679 285.317 140.487 286.539 140.487C287.76 140.487 288.658 139.679 288.658 138.493Z" fill="#FBBA2D"/>
<path d="M304.595 138.134V143.702H301.183V138.691C301.183 137.289 300.572 136.697 299.584 136.697C298.489 136.697 297.644 137.379 297.644 138.996V143.702H294.231V133.967H297.483V135.026C298.256 134.219 299.351 133.805 300.573 133.805C302.853 133.805 304.595 135.115 304.595 138.134Z" fill="#FBBA2D"/>
<path d="M322.203 133.967V143.702H318.952V142.661C318.215 143.468 317.173 143.864 316.06 143.864C313.671 143.864 311.928 142.499 311.928 139.41V133.967H315.342V138.853C315.342 140.362 315.935 140.954 316.959 140.954C317.965 140.954 318.791 140.29 318.791 138.655V133.967H322.203Z" fill="#FBBA2D"/>
<path d="M335.301 138.834C335.301 141.924 333.163 143.863 330.523 143.863C329.392 143.863 328.476 143.521 327.81 142.838V147.186H324.397V133.965H327.648V134.936C328.295 134.163 329.248 133.805 330.522 133.805C333.162 133.805 335.301 135.744 335.301 138.834ZM331.852 138.834C331.852 137.36 330.954 136.517 329.805 136.517C328.655 136.517 327.756 137.36 327.756 138.834C327.756 140.307 328.655 141.151 329.805 141.151C330.954 141.151 331.852 140.307 331.852 138.834Z" fill="#FBBA2D"/>
<path d="M220.143 213.964V215.294H222.475V216.229H220.143V218.064H218.977V213.026H222.783V213.962L220.143 213.964Z" fill="#191A15"/>
<path d="M227.299 214.194V218.065H226.233V217.604C225.938 217.942 225.507 218.122 225.032 218.122C224.06 218.122 223.377 217.575 223.377 216.381V214.194H224.5V216.216C224.5 216.862 224.788 217.15 225.285 217.15C225.803 217.15 226.178 216.819 226.178 216.106V214.192L227.299 214.194Z" fill="#191A15"/>
<path d="M228.345 212.726H229.468V218.066H228.345V212.726Z" fill="#191A15"/>
<path d="M230.511 212.726H231.634V218.066H230.511V212.726Z" fill="#191A15"/>
<path d="M239.415 213.028V218.066H238.459L235.947 215.007V218.066H234.796V213.028H235.761L238.266 216.087V213.028H239.415Z" fill="#191A15"/>
<path d="M243.959 215.856V218.066H242.908V217.583C242.699 217.936 242.296 218.123 241.728 218.123C240.822 218.123 240.281 217.619 240.281 216.95C240.281 216.267 240.764 215.792 241.943 215.792H242.836C242.836 215.309 242.548 215.028 241.943 215.028C241.533 215.028 241.109 215.165 240.828 215.388L240.425 214.605C240.85 214.302 241.475 214.137 242.094 214.137C243.275 214.137 243.959 214.684 243.959 215.856ZM242.836 216.843V216.447H242.066C241.54 216.447 241.374 216.641 241.374 216.899C241.374 217.18 241.612 217.367 242.008 217.367C242.384 217.367 242.706 217.194 242.836 216.843Z" fill="#191A15"/>
<path d="M251.518 215.849V218.066H250.395V216.022C250.395 215.397 250.114 215.108 249.66 215.108C249.158 215.108 248.805 215.432 248.805 216.123V218.066H247.682V216.022C247.682 215.397 247.415 215.108 246.947 215.108C246.45 215.108 246.099 215.432 246.099 216.123V218.066H244.976V214.194H246.048V214.641C246.336 214.31 246.768 214.137 247.265 214.137C247.805 214.137 248.266 214.346 248.538 214.77C248.848 214.374 249.352 214.137 249.935 214.137C250.856 214.137 251.518 214.668 251.518 215.849Z" fill="#191A15"/>
<path d="M256.344 216.447H253.414C253.522 216.929 253.933 217.223 254.522 217.223C254.932 217.223 255.228 217.101 255.494 216.849L256.092 217.497C255.732 217.907 255.192 218.122 254.494 218.122C253.156 218.122 252.285 217.28 252.285 216.129C252.285 214.971 253.171 214.136 254.35 214.136C255.487 214.136 256.365 214.899 256.365 216.143C256.364 216.231 256.351 216.353 256.344 216.447ZM253.4 215.792H255.307C255.228 215.302 254.86 214.987 254.356 214.987C253.846 214.987 253.479 215.295 253.4 215.792Z" fill="#191A15"/>
<path d="M222.877 250.447V251.383H218.976V246.346H222.782V247.282H220.134V248.375H222.473V249.282H220.134V250.447H222.877Z" fill="#191A15"/>
<path d="M230.27 249.167V251.384H229.147V249.34C229.147 248.715 228.866 248.426 228.413 248.426C227.91 248.426 227.557 248.75 227.557 249.441V251.384H226.434V249.34C226.434 248.715 226.168 248.426 225.7 248.426C225.204 248.426 224.851 248.75 224.851 249.441V251.384H223.728V247.513H224.8V247.959C225.088 247.628 225.52 247.455 226.016 247.455C226.556 247.455 227.016 247.664 227.29 248.089C227.599 247.693 228.103 247.455 228.686 247.455C229.608 247.455 230.27 247.988 230.27 249.167Z" fill="#191A15"/>
<path d="M234.707 249.175V251.384H233.655V250.901C233.447 251.254 233.043 251.441 232.476 251.441C231.57 251.441 231.03 250.939 231.03 250.268C231.03 249.585 231.512 249.11 232.692 249.11H233.585C233.585 248.627 233.297 248.347 232.692 248.347C232.281 248.347 231.858 248.483 231.577 248.707L231.174 247.923C231.599 247.621 232.224 247.455 232.843 247.455C234.023 247.455 234.707 248.002 234.707 249.175ZM233.583 250.161V249.765H232.813C232.287 249.765 232.122 249.959 232.122 250.219C232.122 250.499 232.359 250.687 232.755 250.687C233.131 250.687 233.454 250.514 233.583 250.161Z" fill="#191A15"/>
<path d="M235.588 246.346C235.588 245.993 235.869 245.721 236.285 245.721C236.703 245.721 236.983 245.98 236.983 246.324C236.983 246.699 236.703 246.972 236.285 246.972C235.869 246.972 235.588 246.699 235.588 246.346ZM235.725 247.512H236.848V251.384H235.725V247.512Z" fill="#191A15"/>
<path d="M237.891 246.043H239.014V251.383H237.891V246.043Z" fill="#191A15"/>
<path d="M245.492 250.305H243.153L242.707 251.383H241.512L243.757 246.346H244.909L247.161 251.383H245.937L245.492 250.305ZM245.125 249.419L244.326 247.491L243.528 249.419H245.125Z" fill="#191A15"/>
<path d="M251.519 246.043V251.383H250.446V250.937C250.167 251.275 249.755 251.439 249.238 251.439C248.143 251.439 247.302 250.663 247.302 249.446C247.302 248.231 248.143 247.453 249.238 247.453C249.713 247.453 250.116 247.604 250.396 247.921V246.043H251.519ZM250.417 249.447C250.417 248.778 249.985 248.375 249.432 248.375C248.871 248.375 248.439 248.778 248.439 249.447C248.439 250.117 248.871 250.52 249.432 250.52C249.985 250.519 250.417 250.117 250.417 249.447Z" fill="#191A15"/>
<path d="M256.501 246.043V251.383H255.428V250.937C255.147 251.275 254.737 251.439 254.22 251.439C253.125 251.439 252.284 250.663 252.284 249.446C252.284 248.231 253.125 247.453 254.22 247.453C254.695 247.453 255.098 247.604 255.379 247.921V246.043H256.501ZM255.399 249.447C255.399 248.778 254.967 248.375 254.414 248.375C253.853 248.375 253.421 248.778 253.421 249.447C253.421 250.117 253.853 250.52 254.414 250.52C254.967 250.519 255.399 250.117 255.399 249.447Z" fill="#191A15"/>
<path d="M259.943 247.455V248.492C259.85 248.485 259.778 248.477 259.691 248.477C259.072 248.477 258.663 248.816 258.663 249.557V251.385H257.54V247.514H258.612V248.025C258.886 247.649 259.347 247.455 259.943 247.455Z" fill="#191A15"/>
<path d="M264.35 249.765H261.42C261.528 250.247 261.939 250.543 262.528 250.543C262.938 250.543 263.234 250.42 263.5 250.168L264.098 250.816C263.738 251.227 263.199 251.441 262.499 251.441C261.161 251.441 260.29 250.599 260.29 249.448C260.29 248.29 261.176 247.455 262.355 247.455C263.492 247.455 264.37 248.218 264.37 249.463C264.371 249.549 264.357 249.671 264.35 249.765ZM261.406 249.11H263.313C263.234 248.62 262.866 248.305 262.362 248.305C261.852 248.305 261.485 248.614 261.406 249.11Z" fill="#191A15"/>
<path d="M264.748 251.024L265.121 250.218C265.466 250.441 265.992 250.592 266.467 250.592C266.986 250.592 267.18 250.455 267.18 250.239C267.18 249.607 264.841 250.254 264.841 248.707C264.841 247.974 265.504 247.454 266.633 247.454C267.166 247.454 267.756 247.576 268.123 247.792L267.749 248.592C267.367 248.376 266.986 248.304 266.633 248.304C266.13 248.304 265.913 248.462 265.913 248.664C265.913 249.326 268.252 248.685 268.252 250.21C268.252 250.93 267.582 251.441 266.424 251.441C265.769 251.442 265.108 251.262 264.748 251.024Z" fill="#191A15"/>
<path d="M268.571 251.024L268.945 250.218C269.291 250.441 269.815 250.592 270.29 250.592C270.809 250.592 271.003 250.455 271.003 250.239C271.003 249.607 268.664 250.254 268.664 248.707C268.664 247.974 269.327 247.454 270.456 247.454C270.989 247.454 271.579 247.576 271.946 247.792L271.572 248.592C271.19 248.376 270.809 248.304 270.456 248.304C269.953 248.304 269.736 248.462 269.736 248.664C269.736 249.326 272.075 248.685 272.075 250.21C272.075 250.93 271.405 251.441 270.247 251.441C269.592 251.442 268.93 251.262 268.571 251.024Z" fill="#191A15"/>
<path d="M224.107 280.332C224.107 281.455 223.264 282.154 221.919 282.154H220.904V283.542H219.737V278.506H221.918C223.265 278.506 224.107 279.203 224.107 280.332ZM222.927 280.332C222.927 279.778 222.567 279.455 221.855 279.455H220.905V281.203H221.855C222.567 281.203 222.927 280.879 222.927 280.332Z" fill="#191A15"/>
<path d="M228.248 281.333V283.542H227.198V283.061C226.989 283.412 226.586 283.6 226.018 283.6C225.111 283.6 224.572 283.096 224.572 282.427C224.572 281.744 225.055 281.269 226.234 281.269H227.127C227.127 280.787 226.839 280.506 226.234 280.506C225.824 280.506 225.4 280.642 225.119 280.866L224.716 280.081C225.141 279.779 225.766 279.613 226.385 279.613C227.564 279.613 228.248 280.16 228.248 281.333ZM227.125 282.318V281.922H226.354C225.829 281.922 225.663 282.116 225.663 282.376C225.663 282.656 225.901 282.844 226.297 282.844C226.672 282.844 226.995 282.671 227.125 282.318Z" fill="#191A15"/>
<path d="M228.891 283.182L229.266 282.376C229.611 282.6 230.137 282.751 230.612 282.751C231.13 282.751 231.325 282.614 231.325 282.398C231.325 281.765 228.986 282.413 228.986 280.866C228.986 280.132 229.648 279.613 230.778 279.613C231.31 279.613 231.901 279.736 232.268 279.952L231.894 280.75C231.512 280.534 231.13 280.463 230.778 280.463C230.275 280.463 230.058 280.621 230.058 280.823C230.058 281.485 232.396 280.844 232.396 282.37C232.396 283.09 231.727 283.6 230.569 283.6C229.912 283.6 229.251 283.42 228.891 283.182Z" fill="#191A15"/>
<path d="M232.714 283.182L233.088 282.376C233.434 282.6 233.959 282.751 234.435 282.751C234.953 282.751 235.147 282.614 235.147 282.398C235.147 281.765 232.809 282.413 232.809 280.866C232.809 280.132 233.471 279.613 234.6 279.613C235.133 279.613 235.723 279.736 236.091 279.952L235.716 280.75C235.335 280.534 234.953 280.463 234.6 280.463C234.097 280.463 233.88 280.621 233.88 280.823C233.88 281.485 236.219 280.844 236.219 282.37C236.219 283.09 235.549 283.6 234.391 283.6C233.735 283.6 233.074 283.42 232.714 283.182Z" fill="#191A15"/>
<path d="M243.056 279.669L241.653 283.541H240.574L239.703 281.138L238.804 283.541H237.725L236.329 279.669H237.387L238.3 282.29L239.251 279.669H240.201L241.123 282.29L242.065 279.669H243.056Z" fill="#191A15"/>
<path d="M243.189 281.606C243.189 280.44 244.088 279.613 245.319 279.613C246.549 279.613 247.442 280.44 247.442 281.606C247.442 282.773 246.549 283.6 245.319 283.6C244.089 283.6 243.189 282.772 243.189 281.606ZM246.305 281.606C246.305 280.937 245.881 280.534 245.319 280.534C244.757 280.534 244.325 280.937 244.325 281.606C244.325 282.276 244.757 282.678 245.319 282.678C245.881 282.678 246.305 282.275 246.305 281.606Z" fill="#191A15"/>
<path d="M250.596 279.613V280.649C250.503 280.642 250.431 280.634 250.344 280.634C249.725 280.634 249.315 280.973 249.315 281.713V283.541H248.193V279.668H249.264V280.18C249.539 279.808 250 279.613 250.596 279.613Z" fill="#191A15"/>
<path d="M255.176 278.203V283.542H254.103V283.096C253.823 283.434 253.412 283.6 252.895 283.6C251.8 283.6 250.959 282.823 250.959 281.606C250.959 280.39 251.8 279.613 252.895 279.613C253.37 279.613 253.773 279.764 254.053 280.081V278.203H255.176ZM254.074 281.606C254.074 280.937 253.642 280.534 253.089 280.534C252.527 280.534 252.095 280.937 252.095 281.606C252.095 282.276 252.527 282.678 253.089 282.678C253.642 282.678 254.074 282.275 254.074 281.606Z" fill="#191A15"/>
<path d="M352.174 364.293H256.276C253.108 364.293 250.54 361.725 250.54 358.557V348.054C250.54 344.886 253.108 342.318 256.276 342.318H352.174C355.342 342.318 357.91 344.886 357.91 348.054V358.557C357.91 361.725 355.342 364.293 352.174 364.293Z" fill="#FBBA2D"/>
<path d="M269.781 352.809C269.781 351.019 271.152 349.749 273.016 349.749C274.1 349.749 274.975 350.144 275.546 350.859L274.486 351.818C274.117 351.371 273.662 351.128 273.099 351.128C272.133 351.128 271.46 351.801 271.46 352.809C271.46 353.817 272.133 354.489 273.099 354.489C273.662 354.489 274.117 354.245 274.486 353.8L275.546 354.759C274.974 355.473 274.1 355.868 273.016 355.868C271.152 355.868 269.781 354.598 269.781 352.809Z" fill="white"/>
<path d="M279.259 351.119V352.557C279.116 352.539 279.015 352.532 278.897 352.532C278.249 352.532 277.804 352.859 277.804 353.657V355.75H276.207V351.195H277.729V351.741C278.056 351.33 278.585 351.119 279.259 351.119Z" fill="white"/>
<path d="M284.5 353.877H281.189C281.324 354.339 281.719 354.608 282.308 354.608C282.753 354.608 283.047 354.482 283.359 354.213L284.199 355.085C283.762 355.573 283.124 355.826 282.257 355.826C280.635 355.826 279.585 354.825 279.585 353.463C279.585 352.093 280.653 351.118 282.089 351.118C283.435 351.118 284.527 351.976 284.527 353.481C284.525 353.599 284.509 353.75 284.5 353.877ZM281.164 353.036H283.03C282.946 352.558 282.593 352.255 282.098 352.255C281.601 352.253 281.257 352.557 281.164 353.036Z" fill="white"/>
<path d="M289.406 353.22V355.75H287.918V355.162C287.691 355.599 287.238 355.827 286.573 355.827C285.48 355.827 284.875 355.212 284.875 354.423C284.875 353.583 285.488 353.061 286.901 353.061H287.808C287.783 352.599 287.472 352.338 286.842 352.338C286.405 352.338 285.917 352.489 285.606 352.733L285.068 351.649C285.589 351.305 286.363 351.12 287.077 351.12C288.558 351.119 289.406 351.775 289.406 353.22ZM287.809 354.288V353.893H287.12C286.608 353.893 286.423 354.078 286.423 354.355C286.423 354.625 286.641 354.819 287.019 354.819C287.372 354.817 287.683 354.648 287.809 354.288Z" fill="white"/>
<path d="M293.555 355.566C293.278 355.743 292.865 355.828 292.445 355.828C291.277 355.828 290.597 355.255 290.597 354.088V352.559H289.933V351.365H290.597V350.181H292.195V351.365H293.236V352.559H292.195V354.072C292.195 354.407 292.388 354.593 292.673 354.593C292.851 354.593 293.026 354.543 293.161 354.45L293.555 355.566Z" fill="white"/>
<path d="M298.664 353.877H295.352C295.487 354.339 295.881 354.608 296.471 354.608C296.916 354.608 297.21 354.482 297.521 354.213L298.361 355.085C297.925 355.573 297.285 355.826 296.42 355.826C294.798 355.826 293.747 354.825 293.747 353.463C293.747 352.093 294.815 351.118 296.251 351.118C297.596 351.118 298.688 351.976 298.688 353.481C298.688 353.599 298.673 353.75 298.664 353.877ZM295.327 353.036H297.194C297.11 352.558 296.757 352.255 296.262 352.255C295.764 352.253 295.419 352.557 295.327 353.036Z" fill="white"/>
<path d="M305.887 354.607H303.399L302.936 355.75H301.24L303.836 349.867H305.474L308.079 355.75H306.349L305.887 354.607ZM305.399 353.381L304.642 351.498L303.886 353.381H305.399Z" fill="white"/>
<path d="M308.145 353.464C308.145 352.094 309.228 351.119 310.758 351.119C311.791 351.119 312.582 351.582 312.893 352.372L311.657 353.002C311.439 352.574 311.119 352.388 310.75 352.388C310.195 352.388 309.759 352.774 309.759 353.463C309.759 354.17 310.195 354.556 310.75 354.556C311.119 354.556 311.439 354.371 311.657 353.942L312.893 354.572C312.581 355.361 311.791 355.824 310.758 355.824C309.228 355.827 308.145 354.851 308.145 353.464Z" fill="white"/>
<path d="M313.159 353.464C313.159 352.094 314.242 351.119 315.772 351.119C316.806 351.119 317.596 351.582 317.907 352.372L316.671 353.002C316.453 352.574 316.133 352.388 315.764 352.388C315.209 352.388 314.773 352.774 314.773 353.463C314.773 354.17 315.209 354.556 315.764 354.556C316.133 354.556 316.453 354.371 316.671 353.942L317.907 354.572C317.595 355.361 316.806 355.824 315.772 355.824C314.244 355.827 313.159 354.851 313.159 353.464Z" fill="white"/>
<path d="M318.174 353.464C318.174 352.094 319.257 351.119 320.745 351.119C322.25 351.119 323.317 352.095 323.317 353.464C323.317 354.842 322.249 355.827 320.745 355.827C319.257 355.827 318.174 354.842 318.174 353.464ZM321.704 353.464C321.704 352.775 321.291 352.389 320.745 352.389C320.208 352.389 319.788 352.775 319.788 353.464C319.788 354.162 320.208 354.557 320.745 354.557C321.291 354.557 321.704 354.162 321.704 353.464Z" fill="white"/>
<path d="M328.844 351.195V355.751H327.322V355.263C326.978 355.641 326.491 355.827 325.97 355.827C324.851 355.827 324.037 355.188 324.037 353.743V351.197H325.634V353.483C325.634 354.188 325.91 354.465 326.39 354.465C326.86 354.465 327.248 354.153 327.248 353.389V351.195H328.844Z" fill="white"/>
<path d="M334.716 353.145V355.75H333.118V353.405C333.118 352.75 332.833 352.473 332.371 352.473C331.857 352.473 331.462 352.793 331.462 353.548V355.75H329.865V351.195H331.388V351.691C331.749 351.313 332.262 351.118 332.833 351.118C333.901 351.119 334.716 351.734 334.716 353.145Z" fill="white"/>
<path d="M338.856 355.566C338.579 355.743 338.167 355.828 337.746 355.828C336.577 355.828 335.897 355.255 335.897 354.088V352.559H335.233V351.365H335.897V350.181H337.494V351.365H338.535V352.559H337.494V354.072C337.494 354.407 337.687 354.593 337.973 354.593C338.148 354.593 338.325 354.543 338.46 354.45L338.856 355.566Z" fill="white"/>
<path d="M304.5 215.848V213.026H305.667V215.804C305.667 216.761 306.084 217.157 306.79 217.157C307.502 217.157 307.912 216.761 307.912 215.804V213.026H309.064V215.848C309.064 217.33 308.214 218.15 306.783 218.15C305.349 218.15 304.5 217.331 304.5 215.848Z" fill="#191A15"/>
<path d="M309.763 217.705L310.136 216.898C310.482 217.121 311.007 217.273 311.481 217.273C312.001 217.273 312.194 217.136 312.194 216.92C312.194 216.287 309.856 216.934 309.856 215.387C309.856 214.654 310.519 214.136 311.648 214.136C312.179 214.136 312.77 214.258 313.137 214.474L312.761 215.273C312.381 215.057 311.999 214.985 311.647 214.985C311.143 214.985 310.927 215.144 310.927 215.345C310.927 216.008 313.264 215.367 313.264 216.892C313.264 217.612 312.595 218.122 311.438 218.122C310.785 218.121 310.123 217.941 309.763 217.705Z" fill="#191A15"/>
<path d="M317.732 216.445H314.804C314.912 216.927 315.322 217.222 315.911 217.222C316.322 217.222 316.617 217.1 316.883 216.848L317.481 217.496C317.121 217.906 316.581 218.121 315.884 218.121C314.546 218.121 313.674 217.279 313.674 216.128C313.674 214.97 314.559 214.135 315.74 214.135C316.876 214.135 317.754 214.898 317.754 216.142C317.753 216.229 317.739 216.351 317.732 216.445ZM314.788 215.791H316.696C316.617 215.301 316.25 214.986 315.746 214.986C315.234 214.984 314.867 215.294 314.788 215.791Z" fill="#191A15"/>
<path d="M320.907 214.135V215.172C320.813 215.164 320.741 215.157 320.655 215.157C320.036 215.157 319.627 215.496 319.627 216.237V218.065H318.503V214.194H319.575V214.705C319.85 214.329 320.309 214.135 320.907 214.135Z" fill="#191A15"/>
<path d="M325.535 215.847V218.064H324.413V216.02C324.413 215.395 324.125 215.106 323.628 215.106C323.09 215.106 322.701 215.437 322.701 216.15V218.064H321.578V214.192H322.65V214.646C322.953 214.315 323.406 214.135 323.931 214.135C324.845 214.135 325.535 214.668 325.535 215.847Z" fill="#191A15"/>
<path d="M329.979 215.856V218.066H328.929V217.583C328.719 217.936 328.317 218.123 327.748 218.123C326.842 218.123 326.302 217.62 326.302 216.95C326.302 216.267 326.785 215.792 327.965 215.792H328.857C328.857 215.309 328.569 215.028 327.965 215.028C327.555 215.028 327.13 215.165 326.849 215.388L326.446 214.605C326.871 214.302 327.497 214.137 328.117 214.137C329.296 214.136 329.979 214.683 329.979 215.856ZM328.856 216.842V216.446H328.085C327.56 216.446 327.395 216.64 327.395 216.898C327.395 217.179 327.632 217.366 328.028 217.366C328.403 217.367 328.727 217.194 328.856 216.842Z" fill="#191A15"/>
<path d="M337.537 215.847V218.064H336.415V216.02C336.415 215.395 336.135 215.106 335.681 215.106C335.177 215.106 334.825 215.43 334.825 216.121V218.064H333.701V216.02C333.701 215.395 333.435 215.106 332.968 215.106C332.471 215.106 332.119 215.43 332.119 216.121V218.064H330.997V214.192H332.068V214.639C332.356 214.308 332.788 214.135 333.285 214.135C333.824 214.135 334.285 214.344 334.558 214.768C334.868 214.372 335.372 214.135 335.954 214.135C336.874 214.135 337.537 214.668 337.537 215.847Z" fill="#191A15"/>
<path d="M342.362 216.445H339.434C339.542 216.927 339.952 217.222 340.541 217.222C340.952 217.222 341.247 217.1 341.513 216.848L342.111 217.496C341.751 217.906 341.211 218.121 340.514 218.121C339.176 218.121 338.305 217.279 338.305 216.128C338.305 214.97 339.189 214.135 340.37 214.135C341.506 214.135 342.385 214.898 342.385 216.142C342.383 216.229 342.369 216.351 342.362 216.445ZM339.418 215.791H341.326C341.247 215.301 340.88 214.986 340.376 214.986C339.865 214.984 339.499 215.294 339.418 215.791Z" fill="#191A15"/>
<path d="M219.728 200.22C243.125 200.22 266.522 200.22 289.919 200.22C290.112 200.22 290.112 199.92 289.919 199.92C266.522 199.92 243.125 199.92 219.728 199.92C219.536 199.92 219.535 200.22 219.728 200.22Z" fill="#191A15"/>
<path d="M310.73 200.22C334.126 200.22 357.524 200.22 380.92 200.22C381.114 200.22 381.114 199.92 380.92 199.92C357.524 199.92 334.126 199.92 310.73 199.92C310.538 199.92 310.537 200.22 310.73 200.22Z" fill="#191A15"/>
<path d="M295.739 199.455C295.739 198.074 296.803 197.043 298.252 197.043C299.687 197.043 300.751 198.068 300.751 199.455C300.751 200.843 299.687 201.867 298.252 201.867C296.804 201.868 295.739 200.837 295.739 199.455ZM300.079 199.455C300.079 198.411 299.298 197.642 298.253 197.642C297.196 197.642 296.413 198.411 296.413 199.455C296.413 200.499 297.194 201.268 298.253 201.268C299.297 201.268 300.079 200.499 300.079 199.455Z" fill="#191A15"/>
<path d="M303.61 198.208V198.836C303.556 198.828 303.508 198.828 303.461 198.828C302.767 198.828 302.335 199.253 302.335 200.034V201.813H301.688V198.242H302.309V198.842C302.538 198.424 302.983 198.208 303.61 198.208Z" fill="#191A15"/>
<path d="M292.29 238.856H222.144C220.066 238.856 218.38 237.171 218.38 235.092V227.402C218.38 225.324 220.065 223.638 222.144 223.638H292.291C294.37 223.638 296.056 225.323 296.056 227.402V235.092C296.055 237.17 294.37 238.856 292.29 238.856Z" fill="#EBEBEB"/>
<path d="M376.432 271.166H222.144C220.066 271.166 218.38 269.481 218.38 267.401V259.712C218.38 257.633 220.065 255.947 222.144 255.947H376.432C378.51 255.947 380.196 257.632 380.196 259.712V267.401C380.196 269.481 378.51 271.166 376.432 271.166Z" fill="#EBEBEB"/>
<path d="M376.432 303.561H222.144C220.066 303.561 218.38 301.876 218.38 299.797V292.107C218.38 290.029 220.065 288.343 222.144 288.343H376.432C378.51 288.343 380.196 290.028 380.196 292.107V299.797C380.196 301.876 378.51 303.561 376.432 303.561Z" fill="#EBEBEB"/>
<path d="M376.432 238.856H307.711C305.632 238.856 303.946 237.171 303.946 235.092V227.402C303.946 225.324 305.631 223.638 307.711 223.638H376.432C378.511 223.638 380.197 225.323 380.197 227.402V235.092C380.197 237.17 378.511 238.856 376.432 238.856Z" fill="#EBEBEB"/>
<path d="M225.45 318.625H221.49C220.833 318.625 220.3 318.092 220.3 317.435V313.475C220.3 312.817 220.833 312.284 221.49 312.284H225.45C226.108 312.284 226.641 312.817 226.641 313.475V317.435C226.641 318.092 226.108 318.625 225.45 318.625Z" fill="#FBBA2D"/>
<path d="M372.961 318.194H233.507C232.216 318.194 231.169 317.147 231.169 315.856C231.169 314.565 232.216 313.519 233.507 313.519H372.961C374.253 313.519 375.299 314.565 375.299 315.856C375.299 317.147 374.253 318.194 372.961 318.194Z" fill="#E0E0E0"/>
<path d="M256.45 326.939H234.223C232.932 326.939 231.886 325.892 231.886 324.601C231.886 323.31 232.932 322.264 234.223 322.264H256.45C257.741 322.264 258.787 323.31 258.787 324.601C258.787 325.892 257.741 326.939 256.45 326.939Z" fill="#E0E0E0"/>
<path d="M375.653 185.32H224.347C221.444 185.32 219.092 182.967 219.092 180.065V170.615C219.092 167.712 221.445 165.36 224.347 165.36H375.653C378.556 165.36 380.908 167.714 380.908 170.615V180.065C380.908 182.968 378.556 185.32 375.653 185.32Z" fill="#EBEBEB"/>
<path d="M269.388 176.878L269.654 176.316C270.028 176.654 270.669 176.898 271.316 176.898C272.187 176.898 272.562 176.56 272.562 176.122C272.562 174.892 269.51 175.668 269.51 173.797C269.51 173.02 270.115 172.358 271.438 172.358C272.029 172.358 272.64 172.517 273.057 172.805L272.82 173.381C272.38 173.1 271.884 172.97 271.438 172.97C270.582 172.97 270.214 173.33 270.214 173.768C270.214 174.998 273.265 174.229 273.265 176.078C273.265 176.849 272.646 177.51 271.315 177.51C270.546 177.51 269.79 177.251 269.388 176.878Z" fill="#191A15"/>
<path d="M274.097 172.459C274.097 172.207 274.298 172.006 274.565 172.006C274.831 172.006 275.033 172.2 275.033 172.445C275.033 172.704 274.838 172.906 274.565 172.906C274.298 172.905 274.097 172.711 274.097 172.459ZM274.219 173.639H274.91V177.453H274.219V173.639Z" fill="#191A15"/>
<path d="M279.876 173.639V176.936C279.876 178.281 279.192 178.893 277.897 178.893C277.2 178.893 276.494 178.698 276.076 178.324L276.408 177.791C276.759 178.094 277.314 178.288 277.875 178.288C278.774 178.288 279.184 177.87 279.184 177.008V176.705C278.853 177.101 278.358 177.296 277.809 177.296C276.709 177.296 275.874 176.547 275.874 175.446C275.874 174.345 276.708 173.604 277.809 173.604C278.378 173.604 278.896 173.813 279.22 174.23V173.639H279.876ZM279.199 175.445C279.199 174.704 278.652 174.207 277.89 174.207C277.119 174.207 276.572 174.704 276.572 175.445C276.572 176.178 277.119 176.69 277.89 176.69C278.652 176.691 279.199 176.18 279.199 175.445Z" fill="#191A15"/>
<path d="M284.814 175.258V177.453H284.123V175.338C284.123 174.589 283.748 174.223 283.093 174.223C282.359 174.223 281.885 174.662 281.885 175.489V177.453H281.193V173.64H281.855V174.214C282.135 173.826 282.625 173.604 283.23 173.604C284.159 173.604 284.814 174.136 284.814 175.258Z" fill="#191A15"/>
<path d="M291.59 173.64V177.453H290.934V176.877C290.654 177.272 290.178 177.496 289.638 177.496C288.653 177.496 287.998 176.956 287.998 175.834V173.64H288.689V175.755C288.689 176.503 289.064 176.878 289.718 176.878C290.438 176.878 290.898 176.432 290.898 175.611V173.64H291.59Z" fill="#191A15"/>
<path d="M296.859 175.546C296.859 176.719 296.047 177.498 294.932 177.498C294.392 177.498 293.917 177.289 293.601 176.878V178.85H292.91V173.64H293.571V174.244C293.881 173.82 294.371 173.604 294.932 173.604C296.047 173.604 296.859 174.381 296.859 175.546ZM296.162 175.546C296.162 174.741 295.608 174.208 294.873 174.208C294.147 174.208 293.593 174.741 293.593 175.546C293.593 176.36 294.147 176.893 294.873 176.893C295.608 176.892 296.162 176.36 296.162 175.546Z" fill="#191A15"/>
<path d="M305.527 173.64L304.101 177.453H303.439L302.337 174.56L301.222 177.453H300.561L299.143 173.64H299.798L300.905 176.677L302.057 173.64H302.639L303.769 176.69L304.905 173.64H305.527Z" fill="#191A15"/>
<path d="M306.105 172.459C306.105 172.207 306.307 172.006 306.575 172.006C306.841 172.006 307.043 172.2 307.043 172.445C307.043 172.704 306.848 172.906 306.575 172.906C306.307 172.905 306.105 172.711 306.105 172.459ZM306.229 173.639H306.919V177.453H306.229V173.639Z" fill="#191A15"/>
<path d="M310.382 177.23C310.173 177.41 309.855 177.496 309.547 177.496C308.776 177.496 308.338 177.071 308.338 176.301V174.207H307.69V173.638H308.338V172.803H309.028V173.638H310.123V174.207H309.028V176.272C309.028 176.682 309.244 176.913 309.626 176.913C309.828 176.913 310.022 176.848 310.165 176.733L310.382 177.23Z" fill="#191A15"/>
<path d="M314.837 175.258V177.452H314.146V175.337C314.146 174.588 313.773 174.222 313.118 174.222C312.385 174.222 311.908 174.661 311.908 175.488V177.452H311.218V172.112H311.908V174.177C312.196 173.81 312.671 173.603 313.255 173.603C314.182 173.603 314.837 174.136 314.837 175.258Z" fill="#191A15"/>
<path d="M321.649 174.905H322.339V176.869C321.836 177.294 321.138 177.51 320.432 177.51C318.885 177.51 317.749 176.424 317.749 174.935C317.749 173.444 318.885 172.358 320.447 172.358C321.246 172.358 321.921 172.625 322.382 173.135L321.937 173.581C321.518 173.178 321.044 172.998 320.475 172.998C319.309 172.998 318.468 173.812 318.468 174.934C318.468 176.041 319.309 176.869 320.468 176.869C320.893 176.869 321.289 176.776 321.648 176.545L321.649 174.905Z" fill="#191A15"/>
<path d="M323.263 175.546C323.263 174.41 324.104 173.604 325.249 173.604C326.392 173.604 327.226 174.409 327.226 175.546C327.226 176.684 326.392 177.498 325.249 177.498C324.104 177.496 323.263 176.684 323.263 175.546ZM326.53 175.546C326.53 174.734 325.983 174.208 325.25 174.208C324.516 174.208 323.962 174.734 323.962 175.546C323.962 176.36 324.516 176.893 325.25 176.893C325.983 176.892 326.53 176.36 326.53 175.546Z" fill="#191A15"/>
<path d="M327.836 175.546C327.836 174.41 328.677 173.604 329.822 173.604C330.966 173.604 331.8 174.409 331.8 175.546C331.8 176.684 330.966 177.498 329.822 177.498C328.677 177.496 327.836 176.684 327.836 175.546ZM331.104 175.546C331.104 174.734 330.556 174.208 329.823 174.208C329.089 174.208 328.536 174.734 328.536 175.546C328.536 176.36 329.089 176.893 329.823 176.893C330.556 176.892 331.104 176.36 331.104 175.546Z" fill="#191A15"/>
<path d="M336.408 173.639V176.936C336.408 178.281 335.725 178.893 334.429 178.893C333.732 178.893 333.026 178.698 332.608 178.324L332.938 177.791C333.291 178.094 333.846 178.288 334.407 178.288C335.307 178.288 335.718 177.87 335.718 177.008V176.705C335.386 177.101 334.89 177.296 334.342 177.296C333.241 177.296 332.407 176.547 332.407 175.446C332.407 174.345 333.241 173.604 334.342 173.604C334.911 173.604 335.428 173.813 335.752 174.23V173.639H336.408ZM335.732 175.445C335.732 174.704 335.185 174.207 334.422 174.207C333.651 174.207 333.105 174.704 333.105 175.445C333.105 176.178 333.651 176.69 334.422 176.69C335.185 176.691 335.732 176.18 335.732 175.445Z" fill="#191A15"/>
<path d="M337.728 172.114H338.418V177.454H337.728V172.114Z" fill="#191A15"/>
<path d="M343.168 175.777H340.074C340.16 176.446 340.7 176.893 341.455 176.893C341.901 176.893 342.276 176.742 342.556 176.432L342.937 176.878C342.592 177.28 342.066 177.498 341.433 177.498C340.203 177.498 339.382 176.684 339.382 175.546C339.382 174.417 340.196 173.604 341.296 173.604C342.398 173.604 343.182 174.394 343.182 175.568C343.183 175.626 343.176 175.712 343.168 175.777ZM340.074 175.28H342.52C342.448 174.639 341.966 174.186 341.296 174.186C340.635 174.187 340.147 174.633 340.074 175.28Z" fill="#191A15"/>
<path d="M259.878 175.348V176.474H262.639C262.4 177.449 261.528 178.061 260.327 178.061C258.785 178.061 257.665 176.962 257.664 175.448C257.664 174.578 258.104 173.75 258.831 173.273C259.999 172.509 261.401 172.803 262.131 173.638C262.319 173.852 262.619 173.92 262.866 173.78C263.178 173.602 263.267 173.177 263.029 172.909C262.358 172.148 261.359 171.695 260.287 171.695C258.133 171.695 256.508 173.307 256.508 175.445C256.508 177.584 258.149 179.195 260.326 179.195C262.372 179.195 263.857 177.821 263.857 175.929V175.347H259.878V175.348Z" fill="#191A15"/>
<path d="M402.255 123.232C408.674 120.593 411.738 113.249 409.099 106.83C406.459 100.411 399.116 97.3472 392.697 99.9866C386.278 102.626 383.214 109.969 385.853 116.388C388.493 122.807 395.836 125.871 402.255 123.232Z" fill="#FBBA2D"/>
<path d="M402.533 108.403L400.679 106.549L392.369 114.858L394.223 116.712L402.533 108.403Z" fill="white"/>
<path d="M394.232 106.549L392.378 108.403L400.688 116.713L402.542 114.859L394.232 106.549Z" fill="white"/>
<path d="M121.882 443.358L114.094 442.419C109.163 445.711 103.187 447.586 96.7267 447.424C81.4879 447.041 68.8075 434.895 67.7371 419.688C66.5011 402.118 80.6142 387.252 98.3538 387.709C113.414 388.097 125.991 399.958 127.282 414.968C127.923 422.416 125.794 429.395 121.796 434.964L121.809 434.954L121.882 443.358Z" fill="white"/>
<path d="M121.883 443.359C121.883 443.359 121.868 443.16 121.857 442.791C121.848 442.403 121.835 441.864 121.818 441.167C121.79 439.729 121.751 437.646 121.7 434.955L121.879 435.039C121.879 435.039 121.871 435.047 121.866 435.05C121.819 435.089 121.749 435.081 121.711 435.036C121.679 434.996 121.68 434.941 121.707 434.901C123.828 431.891 126.18 427.424 126.948 421.593C127.34 418.695 127.293 415.495 126.698 412.166C126.075 408.846 124.815 405.417 122.84 402.187C120.853 398.97 118.133 395.975 114.776 393.561C111.426 391.159 107.443 389.286 103.073 388.505C98.7226 387.687 94.0426 387.852 89.533 389.089C85.0102 390.299 80.7322 392.759 77.2006 396.109C75.3658 397.763 73.8898 399.733 72.5338 401.729C71.9314 402.774 71.3134 403.811 70.7986 404.888L70.0918 406.531L69.7438 407.351L69.4798 408.198C67.9798 412.686 67.645 417.404 68.2534 421.831C68.8402 426.277 70.5778 430.371 72.8614 433.844C75.163 437.322 78.0826 440.172 81.2494 442.29C84.427 444.398 87.8314 445.789 91.1446 446.535C91.981 446.682 92.8042 446.827 93.613 446.969C94.4242 447.092 95.2342 447.109 96.0226 447.183C97.603 447.306 99.1366 447.233 100.593 447.097C106.458 446.52 110.991 444.324 114.036 442.328C114.057 442.314 114.084 442.308 114.108 442.311C116.585 442.638 118.513 442.891 119.847 443.066C120.492 443.155 120.993 443.223 121.356 443.273C121.698 443.324 121.883 443.359 121.883 443.359C121.883 443.359 121.723 443.352 121.391 443.319C121.033 443.282 120.539 443.231 119.901 443.165C118.548 443.016 116.594 442.801 114.081 442.525L114.153 442.508C111.114 444.558 106.556 446.819 100.628 447.443C99.1546 447.589 97.6042 447.673 96.0034 447.559C95.2042 447.489 94.3834 447.475 93.5602 447.355C92.7394 447.216 91.9054 447.073 91.0558 446.929C87.6934 446.189 84.2338 444.794 80.9998 442.667C77.7778 440.529 74.803 437.645 72.4546 434.117C70.123 430.595 68.3482 426.432 67.741 421.908C67.1134 417.404 67.4482 412.602 68.971 408.03L69.2398 407.167L69.5926 406.332C69.8314 405.775 70.0714 405.218 70.3114 404.658C70.8346 403.561 71.4634 402.504 72.0766 401.441C73.4554 399.407 74.9602 397.401 76.8262 395.718C80.4226 392.306 84.781 389.804 89.3866 388.575C93.9802 387.318 98.7406 387.158 103.167 387.997C107.613 388.8 111.662 390.715 115.059 393.165C118.464 395.627 121.215 398.678 123.222 401.952C125.215 405.237 126.477 408.722 127.093 412.092C127.68 415.47 127.707 418.709 127.292 421.639C126.476 427.533 124.058 432.024 121.885 435.029L121.727 434.88C121.731 434.876 121.74 434.869 121.74 434.869C121.787 434.831 121.855 434.837 121.893 434.883C121.91 434.904 121.919 434.929 121.919 434.953C121.914 437.673 121.911 439.781 121.909 441.234C121.904 441.919 121.901 442.449 121.897 442.832C121.893 443.19 121.883 443.359 121.883 443.359Z" fill="#263238"/>
<path d="M84.3394 419.397L88.081 415.391L95.7766 421.778L109.959 407.169L113.688 410.92L95.4778 429.267L84.3394 419.397Z" fill="#FF725E"/>
<path d="M169.642 351.786C170.38 349.434 172.285 347.481 174.618 346.685C175.567 346.361 176.676 346.151 177.222 345.311C177.613 344.71 177.601 343.942 177.772 343.245C178.296 341.105 180.895 339.747 182.951 340.539C183.456 340.733 183.94 341.038 184.482 341.053C186.673 341.113 186.998 336.903 189.188 336.987C188.594 337.704 188.068 338.533 187.994 339.462C187.921 340.391 188.435 341.417 189.332 341.662C191.662 342.298 192.776 337.785 195.173 338.085C196.464 338.247 197.413 339.845 198.684 339.564C199.176 339.455 199.555 339.078 199.98 338.809C201.41 337.905 203.537 338.392 204.43 339.831C205.192 341.059 205.313 342.957 206.705 343.347C207.566 343.588 208.436 343.055 209.173 342.547C209.737 343.743 210.023 345.067 210 346.387C212.696 346.565 214.958 349.257 214.669 351.943C216.088 352.246 217.542 352.575 218.738 353.394C219.934 354.214 220.824 355.65 220.571 357.077C220.513 357.401 220.399 357.724 220.433 358.051C220.47 358.407 220.676 358.719 220.895 359.002C221.734 360.093 222.839 361.006 223.406 362.26C223.973 363.514 223.718 365.316 222.434 365.812C222.136 365.927 221.772 365.986 221.608 366.262C221.483 366.469 221.52 366.735 221.585 366.967C221.85 367.92 222.505 368.706 223.056 369.528C223.607 370.35 224.082 371.317 223.914 372.292C223.746 373.266 222.656 374.109 221.762 373.685C222.786 374.889 223.81 376.092 224.834 377.296C225.443 378.011 226.093 378.918 225.791 379.807C225.395 380.973 223.682 381.042 222.635 380.397C221.587 379.75 220.86 378.666 219.794 378.048C219.359 377.796 218.87 377.623 218.496 377.287C218.201 377.022 217.962 376.648 217.576 376.555C216.798 376.369 216.323 377.557 216.748 378.235C217.171 378.913 218.004 379.179 218.729 379.517C219.454 379.855 220.206 380.47 220.141 381.265C220.11 381.649 219.886 382 219.864 382.386C219.792 383.719 221.825 383.988 222.584 385.085C223.146 385.896 222.895 386.999 222.572 387.931C222.179 389.069 220.998 390.411 220.043 389.676C219.712 389.422 219.572 388.985 219.272 388.695C218.922 388.354 218.408 388.259 217.939 388.123C216.772 387.786 215.708 387.099 214.922 386.172C216.384 386.853 218.071 387.873 218.058 389.484C218.052 390.157 217.729 390.781 217.523 391.423C217.116 392.682 217.15 394.048 216.761 395.311C216.372 396.575 215.324 397.819 214.004 397.746C214.921 398.71 215.066 400.318 214.337 401.43C213.607 402.543 212.074 403.049 210.824 402.591C210.481 402.465 210.143 402.273 209.779 402.299C209.387 402.328 209.064 402.603 208.747 402.835C206.848 404.236 204.136 404.434 202.054 403.324C202.346 403.026 202.639 402.729 202.933 402.431C200.714 403.179 198.394 403.937 196.078 403.596C193.762 403.255 191.482 401.439 191.458 399.097C191.447 398.083 191.784 396.873 191.03 396.192C190.512 395.723 189.722 395.776 189.028 395.857C186.121 396.196 183.215 396.535 180.308 396.874C178.897 397.038 177.402 397.191 176.116 396.588C174.829 395.986 173.929 394.327 174.647 393.101C173.513 392.232 172.128 391.695 170.705 391.571C169.105 391.432 167.5 391.804 165.895 391.738C164.291 391.672 162.53 391 161.917 389.515C161.304 388.031 162.746 385.948 164.25 386.512C162.992 384.439 159.064 386.193 157.68 384.203C156.557 382.587 158.35 380.585 158.846 378.679C158.315 378.187 157.504 378.101 156.958 377.625C155.812 376.625 156.504 374.729 157.45 373.539C158.395 372.348 159.608 371.017 159.257 369.539C158.897 368.026 156.972 367.055 157.115 365.506C157.193 364.648 158.041 363.936 158.9 364.007C158.672 361.023 164.297 360.604 164.538 357.621C164.557 357.384 164.533 357.133 164.402 356.937C164.29 356.766 164.108 356.652 163.924 356.563C163.048 356.143 162.029 356.187 161.077 355.99C160.126 355.792 159.108 355.18 159.022 354.211C158.935 353.243 160.496 352.513 160.906 353.395C161.404 352.169 163.252 351.778 164.204 352.698C164.45 351.672 165.636 351.105 166.688 351.19C167.74 351.276 168.682 351.846 169.579 352.401" fill="#263238"/>
<path d="M194.976 373.609C192.373 370.459 188.27 368.939 184.245 368.236C182.558 367.941 180.786 367.772 179.161 368.313C177.536 368.854 176.096 370.273 176.017 371.984L177.539 374.413C179.307 378.61 184.176 380.386 187.608 383.38C189.101 384.682 190.644 386.375 192.62 386.236C193.656 386.163 194.595 385.563 195.311 384.809C198.122 381.849 197.579 376.759 194.976 373.609Z" fill="#FBBA2D"/>
<path d="M204.999 392.06C205.692 387.848 202.854 383.343 198.756 382.15C199.235 379.513 197.176 376.946 194.699 375.921C192.222 374.895 189.438 375.039 186.764 375.2C182.684 370.425 174.572 369.883 169.892 374.071C164.878 371.457 158.561 374.017 154.528 377.979C153.543 378.948 152.612 380.013 151.392 380.662C150.498 381.138 149.495 381.362 148.546 381.718C143.33 383.677 140.339 389.696 140.874 395.242C140.96 396.129 141.12 397.026 140.973 397.905C140.778 399.058 140.079 400.051 139.6 401.118C138.567 403.424 138.608 406.186 139.709 408.462C140.645 410.394 142.324 412.076 142.449 414.219C142.512 415.293 142.164 416.376 142.335 417.438C142.829 420.517 147.132 421.624 148.046 424.606C148.232 425.215 148.259 425.859 148.396 426.481C148.677 427.752 149.435 428.91 150.488 429.675C151.3 430.266 152.31 430.663 152.837 431.518C153.237 432.168 153.281 432.966 153.5 433.695C154.035 435.481 160.839 439.82 162.698 439.948L204.44 418.009C207.239 415.68 208.27 411.456 206.856 408.099C206.621 407.541 206.32 406.96 206.423 406.363C206.511 405.854 206.877 405.447 207.161 405.016C209.064 402.144 207.414 398.298 205.51 395.426C205.242 395.024 204.966 394.614 204.852 394.146C204.689 393.462 204.885 392.752 204.999 392.06Z" fill="#263238"/>
<path d="M193.129 398.511C189.303 391.093 180.155 385.122 170.921 385.449C165.099 385.656 161.501 387.57 158.928 388.587C153.167 390.867 150.234 395.905 150.234 395.905C148.233 397.673 143.969 409.862 148.01 418.434C152.501 427.956 158.359 439.404 163.232 445.67C173.031 458.269 184.583 454.196 184.583 454.196C184.573 454.175 189.729 464.856 189.729 464.856L204.151 477.069L217.002 456.117L219.804 451.59L193.129 398.511Z" fill="#FFBE9D"/>
<path d="M181.664 432.69C181.242 432.045 180.565 431.62 179.874 431.435C178.493 431.069 177.025 431.675 176.326 432.901C175.627 434.127 176.084 435.418 176.944 436.699C177.919 437.224 178.738 437.815 179.773 437.423C179.934 437.362 180.092 437.292 180.246 437.214C180.991 436.831 181.636 436.207 181.944 435.373C182.254 434.539 182.186 433.487 181.664 432.69Z" fill="#E8505B"/>
<path d="M158.489 427.89C158.971 428.844 160.176 429.221 161.18 428.736C162.183 428.252 162.608 427.088 162.126 426.135C161.643 425.182 160.439 424.803 159.435 425.286C158.431 425.771 158.006 426.938 158.489 427.89Z" fill="#263238"/>
<path d="M154.1 421.986C154.447 422.096 155.242 420.365 157.15 419.32C159.041 418.249 160.979 418.459 161.058 418.111C161.102 417.952 160.649 417.659 159.797 417.551C158.954 417.439 157.696 417.574 156.511 418.232C155.328 418.892 154.571 419.88 154.243 420.643C153.904 421.415 153.936 421.942 154.1 421.986Z" fill="#263238"/>
<path d="M173.541 430.89C173.49 430.778 172.193 431.225 170.139 432.038C169.625 432.255 169.11 432.412 168.846 432.125C168.538 431.836 168.453 431.2 168.377 430.504C168.186 429.075 167.985 427.576 167.775 426.005C166.866 419.63 165.923 414.495 165.667 414.534C165.411 414.573 165.939 419.772 166.847 426.149C167.083 427.715 167.307 429.208 167.523 430.636C167.643 431.29 167.671 432.092 168.323 432.684C168.654 432.976 169.157 433.042 169.515 432.954C169.879 432.878 170.155 432.732 170.404 432.614C172.39 431.655 173.592 431.003 173.541 430.89Z" fill="#263238"/>
<path d="M184.584 454.194C184.584 454.194 194.266 449.645 200.42 439.043C200.42 439.043 200.86 451.487 186.329 457.809L184.584 454.194Z" fill="#EB996E"/>
<path d="M151.529 417.981C152.105 418.27 153.393 417.154 155.176 416.357C156.933 415.503 158.619 415.23 158.763 414.605C158.817 414.309 158.381 413.958 157.533 413.816C156.694 413.67 155.449 413.794 154.233 414.36C153.017 414.929 152.127 415.802 151.704 416.536C151.272 417.275 151.266 417.832 151.529 417.981Z" fill="#263238"/>
<path d="M179.639 417.024C180.153 417.961 179.783 419.168 178.815 419.722C177.849 420.276 176.648 419.968 176.134 419.031C175.62 418.094 175.99 416.886 176.956 416.334C177.924 415.778 179.126 416.088 179.639 417.024Z" fill="#263238"/>
<path d="M180.583 408.37C180.478 408.718 178.601 408.394 176.659 409.377C174.707 410.331 173.784 412.049 173.453 411.916C173.296 411.863 173.311 411.323 173.704 410.558C174.089 409.8 174.911 408.838 176.124 408.234C177.339 407.632 178.581 407.566 179.395 407.727C180.223 407.885 180.641 408.209 180.583 408.37Z" fill="#263238"/>
<path d="M176.55 400.856C176.389 401.49 174.659 401.786 172.845 402.672C171.005 403.501 169.664 404.643 169.081 404.359C168.813 404.213 168.833 403.65 169.289 402.896C169.736 402.15 170.665 401.256 171.92 400.665C173.177 400.077 174.451 399.937 175.305 400.074C176.172 400.206 176.61 400.555 176.55 400.856Z" fill="#263238"/>
<path d="M198.115 412.822C197.551 411.792 197.403 408.713 198.332 407.995C200.811 406.079 205.819 403.603 209.658 410.465C214.907 419.844 204.407 423.179 204.24 422.92C204.109 422.717 200.063 416.377 198.115 412.822Z" fill="#FFBE9D"/>
<path d="M204.91 418.046C204.934 417.993 205.136 418.069 205.484 418.041C205.823 418.014 206.334 417.84 206.72 417.383C207.508 416.465 207.462 414.425 206.561 412.709C206.107 411.841 205.474 411.128 204.794 410.624C204.124 410.099 203.412 409.867 202.864 410.059C202.303 410.222 202.117 410.718 202.15 411.045C202.171 411.379 202.336 411.533 202.295 411.576C202.282 411.614 202.006 411.531 201.865 411.103C201.799 410.894 201.786 410.612 201.905 410.309C202.027 410 202.306 409.722 202.675 409.565C203.426 409.209 204.45 409.511 205.195 410.064C205.982 410.598 206.716 411.387 207.224 412.362C208.223 414.285 208.244 416.595 207.108 417.746C206.545 418.287 205.883 418.397 205.475 418.334C205.054 418.263 204.887 418.081 204.91 418.046Z" fill="#455A64"/>
<path d="M145.994 419.714C147.242 417.479 147.566 415.193 146.216 413.017C147.685 412.698 148.072 410.369 148.207 408.874C148.343 407.377 148.94 406.33 148.162 405.046C148.008 404.792 147.84 404.526 147.835 404.23C147.828 403.763 148.211 403.399 148.534 403.063C150.197 401.332 150.88 398.717 150.277 396.394C152.782 396.167 155.225 395.304 157.316 393.908C159.07 394.786 161.27 394.694 162.946 393.676C164.621 392.657 165.714 390.744 165.74 388.784C166.958 389.65 168.596 389.734 170.042 389.357C171.488 388.98 172.788 388.196 174.065 387.421C174.892 390.262 178.087 392.183 180.984 391.582C181.375 391.5 181.819 391.388 182.147 391.619C182.488 391.858 182.521 392.336 182.579 392.748C182.942 395.354 185.864 397.284 188.404 396.594C187.52 398.635 189.199 401.311 191.422 401.404C191.878 401.423 192.462 401.425 192.628 401.851C192.691 402.013 192.666 402.194 192.642 402.366C192.454 403.684 192.314 405.085 192.869 406.295C193.423 407.504 194.927 408.378 196.12 407.788C195.808 408.668 195.622 409.682 196.057 410.508C196.493 411.335 197.78 411.713 198.382 410.998C198.637 410.694 202.819 407.192 202.872 406.799C203.546 401.716 197.996 399.563 195.266 395.222C192.536 390.882 188.581 387.401 184.198 384.739C182.359 383.623 180.424 382.636 178.357 382.04C176.002 381.362 173.531 381.208 171.083 381.076C167.888 380.904 164.629 380.772 161.546 381.63C155.806 383.226 151.541 387.977 148.006 392.774C146.662 394.598 145.358 396.487 144.548 398.604C143.58 401.137 143.358 403.892 143.334 406.603C143.3 410.521 143.682 414.518 145.228 418.118" fill="#263238"/>
<path d="M142.334 417.435C142.334 417.435 142.214 416.995 142.288 416.145C142.315 415.721 142.397 415.202 142.406 414.589C142.41 413.978 142.292 413.269 141.968 412.538C141.662 411.801 141.176 411.051 140.648 410.23C140.122 409.412 139.537 408.496 139.188 407.392C138.832 406.297 138.668 405.049 138.798 403.744C138.863 403.093 139.001 402.429 139.225 401.775C139.444 401.116 139.775 400.484 140.106 399.851C140.432 399.217 140.75 398.554 140.861 397.831C140.971 397.106 140.869 396.346 140.78 395.567C140.599 393.998 140.67 392.327 141.071 390.669C141.467 389.014 142.134 387.347 143.182 385.857C143.678 385.093 144.316 384.416 144.983 383.761C145.69 383.147 146.444 382.558 147.306 382.123C147.726 381.889 148.183 381.716 148.631 381.527C149.088 381.362 149.552 381.223 150.01 381.068C150.932 380.777 151.789 380.339 152.53 379.69C153.282 379.061 153.943 378.304 154.694 377.609C155.429 376.897 156.251 376.265 157.106 375.673C157.966 375.081 158.894 374.581 159.854 374.133C160.824 373.701 161.845 373.365 162.898 373.126C165.001 372.688 167.309 372.74 169.358 373.657C169.561 373.748 169.763 373.839 169.962 373.929L169.78 373.952C172.271 371.732 175.667 370.87 178.793 371.144C181.933 371.403 184.925 372.815 186.876 375.103L186.75 375.049C188.185 374.963 189.608 374.889 191.01 374.981C192.407 375.074 193.788 375.341 195.03 375.916C196.266 376.498 197.317 377.402 198.04 378.497C198.764 379.586 199.12 380.925 198.886 382.178L198.791 382.024C200.875 382.636 202.537 384.057 203.612 385.675C204.694 387.299 205.246 389.156 205.199 390.896C205.21 391.331 205.134 391.756 205.085 392.171C205.012 392.583 204.923 392.979 204.896 393.368C204.869 393.757 204.916 394.135 205.068 394.475C205.214 394.819 205.429 395.127 205.631 395.439C206.443 396.686 207.076 397.907 207.491 399.071C207.904 400.234 208.106 401.341 208.055 402.303C208.018 403.267 207.744 404.06 207.427 404.636C207.116 405.224 206.754 405.584 206.611 405.89C206.45 406.186 206.436 406.366 206.424 406.363C206.424 406.363 206.424 406.18 206.575 405.872C206.71 405.554 207.065 405.181 207.356 404.599C207.658 404.025 207.912 403.245 207.937 402.299C207.976 401.356 207.764 400.27 207.347 399.125C206.926 397.979 206.29 396.775 205.476 395.543C205.274 395.235 205.05 394.921 204.89 394.553C204.724 394.189 204.668 393.764 204.696 393.355C204.721 392.944 204.81 392.54 204.88 392.134C204.925 391.727 204.997 391.316 204.984 390.891C205.021 389.198 204.473 387.389 203.412 385.81C202.357 384.237 200.734 382.865 198.719 382.282L198.602 382.249L198.624 382.129C198.839 380.953 198.504 379.691 197.808 378.651C197.114 377.605 196.098 376.735 194.91 376.18C193.714 375.629 192.366 375.369 190.993 375.281C189.617 375.193 188.206 375.268 186.772 375.356L186.695 375.361L186.644 375.302C184.75 373.088 181.835 371.713 178.769 371.462C175.716 371.198 172.409 372.044 169.998 374.193L169.92 374.263L169.816 374.216C169.622 374.129 169.428 374.041 169.232 373.953C167.255 373.069 165.022 373.016 162.967 373.442C161.939 373.675 160.939 374.002 159.988 374.425C159.044 374.864 158.131 375.355 157.286 375.935C156.444 376.517 155.634 377.137 154.912 377.837C154.172 378.518 153.506 379.28 152.73 379.927C152.344 380.251 151.931 380.546 151.486 380.786C151.04 381.025 150.572 381.2 150.108 381.356C149.644 381.512 149.18 381.65 148.734 381.811C148.297 381.993 147.854 382.16 147.445 382.387C146.606 382.808 145.871 383.38 145.181 383.975C144.529 384.614 143.905 385.273 143.417 386.019C142.387 387.475 141.727 389.108 141.334 390.73C140.934 392.357 140.858 393.994 141.03 395.54C141.114 396.314 141.22 397.097 141.098 397.868C140.977 398.638 140.641 399.321 140.31 399.957C139.972 400.594 139.648 401.207 139.432 401.847C139.21 402.484 139.07 403.131 139.003 403.767C138.869 405.04 139.02 406.264 139.361 407.339C139.694 408.422 140.26 409.325 140.779 410.15C141.299 410.975 141.782 411.739 142.085 412.492C142.405 413.237 142.517 413.971 142.502 414.592C142.482 415.216 142.39 415.732 142.352 416.152C142.308 416.572 142.306 416.894 142.315 417.109C142.325 417.323 142.343 417.434 142.334 417.435Z" fill="#455A64"/>
<path d="M164.332 374.421C164.328 374.45 164.004 374.415 163.423 374.441C162.845 374.469 161.999 374.575 161.04 374.966C160.086 375.349 159.017 376.032 158.189 377.114C157.367 378.188 156.791 379.644 156.767 381.212C156.76 381.662 156.792 382.119 156.882 382.536C156.975 382.947 157.167 383.334 157.494 383.491L157.9 383.685L157.461 383.786C156.253 384.063 155.286 384.852 154.735 385.729C154.17 386.613 154.035 387.579 154.091 388.349C154.147 389.126 154.384 389.72 154.573 390.103C154.767 390.487 154.911 390.679 154.89 390.693C154.883 390.699 154.841 390.657 154.767 390.57C154.691 390.483 154.59 390.345 154.477 390.156C154.253 389.779 153.977 389.177 153.889 388.367C153.802 387.567 153.917 386.537 154.503 385.584C155.073 384.641 156.089 383.786 157.39 383.478L157.356 383.773C156.892 383.547 156.672 383.053 156.568 382.607C156.468 382.146 156.436 381.683 156.442 381.205C156.467 379.561 157.079 378.042 157.951 376.929C158.832 375.807 159.961 375.119 160.956 374.751C161.957 374.376 162.832 374.304 163.421 374.313C163.717 374.319 163.947 374.34 164.099 374.366C164.254 374.393 164.333 374.411 164.332 374.421Z" fill="#455A64"/>
<path d="M185.554 376.873C185.572 376.879 185.528 377.065 185.408 377.39C185.286 377.714 185.089 378.182 184.747 378.715C184.405 379.243 183.911 379.849 183.175 380.308C182.454 380.762 181.474 381.077 180.448 380.882L180.638 380.735C180.617 380.911 180.595 381.091 180.574 381.274C180.542 381.455 180.494 381.637 180.455 381.821C180.154 382.919 179.579 383.871 178.901 384.577C178.229 385.292 177.481 385.786 176.809 386.089C176.135 386.393 175.543 386.51 175.138 386.563C174.728 386.596 174.503 386.589 174.502 386.569C174.49 386.499 175.422 386.515 176.71 385.881C177.346 385.564 178.05 385.069 178.681 384.374C179.318 383.687 179.856 382.777 180.14 381.739C180.178 381.565 180.223 381.393 180.253 381.221C180.275 381.049 180.296 380.879 180.317 380.714L180.34 380.534L180.509 380.567C181.429 380.749 182.339 380.477 183.026 380.066C183.722 379.652 184.216 379.09 184.57 378.596C185.266 377.582 185.5 376.847 185.554 376.873Z" fill="#455A64"/>
<path d="M195.322 382.89C195.333 382.887 195.357 382.95 195.394 383.076C195.42 383.203 195.456 383.396 195.433 383.647C195.403 384.144 195.135 384.875 194.467 385.488C193.801 386.114 192.756 386.485 191.614 386.67C191.04 386.761 190.447 386.862 189.804 386.898C189.175 386.925 188.443 386.871 187.853 386.424C187.805 386.383 187.756 386.342 187.711 386.304L187.971 386.25C187.451 387.457 186.853 388.586 186.093 389.46C185.346 390.344 184.427 390.923 183.594 391.183C182.76 391.454 182.029 391.437 181.557 391.334C181.319 391.287 181.14 391.225 181.025 391.172C180.909 391.121 180.851 391.088 180.855 391.079C180.864 391.051 181.111 391.151 181.577 391.212C182.039 391.274 182.734 391.255 183.52 390.969C184.308 390.691 185.16 390.129 185.866 389.269C186.583 388.419 187.158 387.319 187.672 386.124L187.758 385.923L187.932 386.069C187.969 386.1 188.01 386.135 188.051 386.168C188.537 386.54 189.189 386.606 189.791 386.581C190.399 386.552 191.002 386.457 191.565 386.376C192.687 386.21 193.679 385.877 194.314 385.317C194.957 384.764 195.241 384.096 195.307 383.633C195.382 383.161 195.287 382.896 195.322 382.89Z" fill="#455A64"/>
<path d="M186.987 343.697C186.997 343.716 186.827 343.791 186.582 344.022C186.342 344.25 186.037 344.663 185.903 345.277C185.764 345.884 185.796 346.675 186.179 347.467C186.543 348.266 187.197 349.034 187.939 349.845L188.059 349.976L187.899 350.058C186.823 350.605 185.796 351.559 185.184 352.841C184.565 354.107 184.468 355.741 185.206 357.12C185.843 358.388 187.043 359.303 188.297 359.509L188.751 359.583L188.346 359.801C186.883 360.587 185.956 361.989 185.632 363.329C185.291 364.686 185.574 365.961 186.011 366.882C186.454 367.815 187.043 368.423 187.468 368.791C187.901 369.158 188.176 369.308 188.161 369.331C188.157 369.339 188.086 369.307 187.954 369.236C187.819 369.168 187.631 369.049 187.401 368.874C186.946 368.525 186.316 367.923 185.832 366.969C185.355 366.031 185.029 364.699 185.369 363.266C185.691 361.855 186.647 360.369 188.197 359.525L188.245 359.816C186.88 359.598 185.596 358.615 184.917 357.266C184.535 356.538 184.343 355.722 184.362 354.93C184.374 354.137 184.587 353.378 184.903 352.705C185.557 351.359 186.642 350.372 187.776 349.813L187.735 350.025C187.002 349.203 186.34 348.402 185.976 347.556C185.592 346.719 185.578 345.866 185.749 345.239C185.915 344.598 186.258 344.177 186.527 343.959C186.663 343.85 186.777 343.779 186.859 343.745C186.941 343.706 186.984 343.691 186.987 343.697Z" fill="#455A64"/>
<path d="M214.997 354.911C215.004 354.916 214.968 354.976 214.892 355.086C214.813 355.193 214.71 355.365 214.54 355.56C214.211 355.958 213.674 356.502 212.878 357.03C212.082 357.554 211.019 358.064 209.722 358.298C208.436 358.552 206.908 358.504 205.402 357.958L205.607 357.824C205.534 359.664 204.722 361.767 202.957 363.057C201.089 364.418 198.487 364.38 196.895 363.132L197.134 362.988C197.258 363.771 197.135 364.544 196.876 365.21C196.616 365.879 196.232 366.453 195.809 366.932C194.945 367.888 193.936 368.429 193.104 368.805C192.262 369.174 191.564 369.381 191.088 369.52C190.61 369.654 190.35 369.712 190.345 369.698C190.34 369.681 190.592 369.591 191.058 369.428C191.522 369.261 192.208 369.028 193.027 368.639C193.836 368.247 194.809 367.694 195.619 366.766C196.412 365.856 197.076 364.499 196.836 363.039L196.775 362.661L197.076 362.895C198.556 364.043 201.016 364.074 202.766 362.795C204.43 361.584 205.222 359.577 205.304 357.812L205.314 357.604L205.51 357.676C206.948 358.21 208.424 358.276 209.676 358.047C210.938 357.839 211.985 357.364 212.777 356.876C214.37 355.87 214.946 354.858 214.997 354.911Z" fill="#455A64"/>
<path d="M212.664 374.115C212.671 374.115 212.689 374.197 212.647 374.347C212.605 374.495 212.477 374.699 212.244 374.877C211.773 375.22 210.993 375.545 209.971 375.671C208.958 375.79 207.678 375.655 206.475 374.981C205.285 374.32 204.207 373.129 203.727 371.613L203.717 371.581L204.005 371.624C203.106 372.927 201.788 373.78 200.513 374.213C199.226 374.657 197.976 374.679 196.971 374.547C195.961 374.413 195.18 374.137 194.663 373.912C194.144 373.685 193.881 373.516 193.89 373.499C193.913 373.427 195.017 374.093 196.998 374.319C197.979 374.419 199.185 374.373 200.414 373.931C201.636 373.499 202.886 372.675 203.737 371.439L203.921 371.174L204.026 371.483L204.036 371.513C204.488 372.943 205.502 374.079 206.623 374.72C207.752 375.37 208.97 375.527 209.948 375.441C210.929 375.352 211.713 375.061 212.169 374.773C212.643 374.469 212.639 374.102 212.664 374.115Z" fill="#455A64"/>
<path d="M166.57 355.327C166.648 355.3 166.638 356.677 167.729 358.455C168.274 359.326 169.114 360.268 170.29 360.952C171.462 361.629 172.968 362.012 174.53 361.894C175.41 361.828 176.249 361.605 176.989 361.27L177.172 361.189L177.211 361.382C177.461 362.623 177.956 363.721 178.535 364.615C179.119 365.507 179.776 366.206 180.382 366.712C180.682 366.967 180.971 367.187 181.229 367.342C181.488 367.493 181.753 367.538 181.937 367.453C182.124 367.373 182.225 367.231 182.252 367.13C182.282 367.027 182.264 366.965 182.278 366.963C182.282 366.961 182.322 367.018 182.308 367.142C182.294 367.263 182.196 367.442 181.984 367.552C181.768 367.673 181.441 367.634 181.154 367.483C180.865 367.328 180.572 367.119 180.253 366.869C179.616 366.374 178.924 365.673 178.306 364.766C177.695 363.856 177.168 362.728 176.902 361.445L177.122 361.557C176.35 361.912 175.472 362.149 174.556 362.217C172.925 362.341 171.355 361.931 170.14 361.209C168.92 360.481 168.07 359.486 167.534 358.573C166.991 357.656 166.759 356.813 166.648 356.237C166.6 355.946 166.57 355.719 166.566 355.563C166.558 355.409 166.559 355.328 166.57 355.327Z" fill="#455A64"/>
<path d="M180.211 430.056C179.91 430.131 180.52 432.111 179.263 434.04C178.012 435.974 175.834 436.407 175.905 436.689C175.915 436.822 176.494 436.928 177.39 436.674C178.272 436.433 179.46 435.756 180.229 434.576C180.995 433.394 181.083 432.107 180.898 431.274C180.715 430.425 180.343 430.002 180.211 430.056Z" fill="#263238"/>
<path d="M189.495 464.032C189.495 464.032 197.95 520.043 208.181 529.86C219.121 540.358 238.786 545.532 238.786 545.532C238.786 545.532 264.954 555.881 274.05 553.625L290.5 497.226C290.5 497.226 289.765 493.978 286.036 493.842C284.405 493.783 279.705 495.978 277.575 495.463C269.056 493.407 249.082 462.858 249.082 462.858C249.082 462.858 230.109 436.705 213.936 439.065C202.848 440.682 198.257 445.623 194.081 456.801C193.072 459.503 191.523 461.977 189.495 464.032Z" fill="#FBBA2D"/>
<path d="M189.494 464.032L182.116 501.391L148.013 491.701L142.122 511.611L199.82 537.665L211.176 490.433L189.494 464.032Z" fill="#FBBA2D"/>
<path d="M266.64 529.927C266.478 529.866 268.987 522.872 272.244 514.308C275.501 505.741 278.272 498.848 278.433 498.911C278.593 498.972 276.085 505.964 272.829 514.531C269.572 523.094 266.801 529.988 266.64 529.927Z" fill="#263238"/>
<path d="M265.999 522.091C265.837 522.031 267.242 517.813 269.137 512.67C271.033 507.525 272.7 503.405 272.862 503.465C273.024 503.525 271.619 507.741 269.723 512.887C267.829 518.029 266.161 522.151 265.999 522.091Z" fill="#263238"/>
<path d="M188.607 474.84C188.783 474.84 188.911 478.757 189.103 483.579C189.199 485.991 189.304 488.172 189.401 489.749C189.496 491.324 189.586 492.299 189.495 492.314C189.415 492.329 189.171 491.37 188.962 489.791C188.751 488.214 188.575 486.024 188.479 483.605C188.381 481.185 188.374 478.994 188.409 477.408C188.442 475.82 188.52 474.84 188.607 474.84Z" fill="#263238"/>
<g opacity="0.3">
<path d="M169.825 524.12L182.536 518.595L189.494 493.948L184.759 524.317L175.398 526.636L169.825 524.12Z" fill="black"/>
</g>
<g opacity="0.3">
<path d="M275.907 503.746C275.071 503.252 273.991 503.616 273.297 504.326C272.602 505.037 272.205 506.026 271.825 506.984C269.314 513.341 266.802 519.696 264.291 526.052C263.932 526.961 263.565 527.922 263.669 528.906C263.773 529.89 264.54 530.862 265.429 530.735C266.253 530.617 266.748 529.693 267.114 528.87C270.695 520.817 273.75 512.478 276.246 503.94" fill="black"/>
</g>
<path d="M95.1826 496.698C95.1826 496.698 99.7846 490.563 102.48 489.25C104.624 488.205 117.407 485.945 118.964 486.246C120.522 486.547 148.013 492.569 148.013 492.569L144.451 504.579L142.697 503.758C142.697 503.758 137.145 506.543 132.914 505.21C128.682 503.875 123.265 500.149 123.265 500.149L119.483 501.565C119.483 501.565 123.639 502.867 123.95 504.586C124.261 506.304 121.896 506.493 121.896 506.493L121.725 507.249C121.427 508.573 120.127 509.415 118.795 509.148C116.359 508.66 112.839 507.826 112.056 506.956C111.732 506.597 110.061 503.532 110.061 503.532C107.487 501.719 107.529 499.92 107.675 498.82C107.965 496.62 110.303 494.157 110.303 494.157L105.665 493.903C105.665 493.903 98.1874 501.565 95.1826 496.698Z" fill="#FFBE9D"/>
<path d="M133.795 494.684C128.218 494.684 122.921 493.938 118.769 494.973C117.673 495.247 116.56 495.643 115.771 496.449C114.982 497.256 114.616 498.57 115.184 499.545C115.672 500.38 116.696 500.758 117.661 500.814C118.626 500.869 119.587 500.667 120.553 500.644C122.876 500.589 125.094 501.562 127.153 502.638C129.214 503.713 131.25 504.925 133.522 505.413C135.793 505.903 141.128 505.472 142.697 503.757" fill="#FFBE9D"/>
<path d="M142.697 503.756C142.71 503.767 142.602 503.914 142.344 504.149C142.074 504.365 141.641 504.652 141.03 504.894C139.811 505.379 137.938 505.794 135.594 505.82C134.428 505.848 133.099 505.664 131.804 505.18C130.497 504.716 129.191 504.038 127.839 503.326C126.488 502.618 125.074 501.874 123.515 501.4C122.737 501.166 121.927 500.999 121.1 500.964C120.277 500.914 119.434 501.062 118.526 501.12C117.629 501.184 116.64 501.096 115.818 500.597C114.965 500.132 114.465 499.07 114.624 498.148C114.738 497.226 115.267 496.412 115.951 495.892C116.631 495.359 117.412 495.059 118.162 494.842C121.196 494.017 124.013 494.177 126.317 494.237C128.546 494.358 130.391 494.459 131.79 494.536C133.081 494.605 133.795 494.639 133.796 494.686C133.796 494.707 133.618 494.726 133.277 494.744C132.936 494.765 132.433 494.774 131.784 494.778C130.488 494.788 128.613 494.723 126.305 494.678C124.011 494.671 121.215 494.572 118.323 495.394C117.612 495.606 116.903 495.894 116.322 496.358C115.739 496.81 115.324 497.48 115.232 498.22C115.128 498.958 115.469 499.682 116.141 500.063C116.807 500.464 117.641 500.556 118.49 500.495C119.342 500.443 120.232 500.287 121.13 500.342C122.022 500.383 122.884 500.564 123.697 500.814C125.327 501.32 126.767 502.096 128.113 502.818C130.774 504.302 133.289 505.47 135.601 505.38C137.888 505.41 139.741 505.07 140.948 504.668C142.17 504.266 142.658 503.716 142.697 503.756Z" fill="#455A64"/>
<path d="M115.95 493.39C115.977 493.465 115.429 493.722 114.495 493.894C113.564 494.073 112.266 494.193 110.835 494.232C107.971 494.304 105.659 494.074 105.665 493.905C105.671 493.729 107.981 493.679 110.817 493.608C112.236 493.57 113.516 493.521 114.438 493.457C115.361 493.398 115.92 493.302 115.95 493.39Z" fill="#455A64"/>
<path d="M122.089 506.5C122.127 506.648 119.143 507.127 115.61 506.182C112.069 505.268 109.706 503.385 109.812 503.275C109.912 503.108 112.352 504.699 115.77 505.578C119.175 506.492 122.083 506.306 122.089 506.5Z" fill="#455A64"/>
<path d="M114.414 500.24C114.434 500.072 115.686 500.09 117.17 500.465C118.657 500.834 119.77 501.409 119.708 501.566C119.646 501.731 118.465 501.431 117.019 501.071C115.574 500.706 114.391 500.414 114.414 500.24Z" fill="#455A64"/>
<path d="M57.9741 509.659L88.2513 494.84C88.7481 494.596 89.3337 494.642 89.7897 494.96L123.077 516.113C123.845 516.649 123.99 517.753 123.387 518.477L105.791 542.025L57.9741 509.659Z" fill="#263238"/>
<path d="M61.7495 510.745L102.498 537.575L121.012 516.935L88.9331 497.014L61.7495 510.745Z" fill="white"/>
<path d="M77.5871 502.747L112.568 526.349L102.498 537.576L61.7495 510.746L77.5871 502.747Z" fill="#E0E0E0"/>
<path d="M95.4678 503.439L90.1182 507.786C89.7642 508.074 89.2434 508.02 88.9566 507.666C88.6686 507.312 88.7226 506.792 89.0766 506.504L94.4262 502.158C94.7802 501.87 95.301 501.924 95.5878 502.278C95.8758 502.632 95.8218 503.151 95.4678 503.439Z" fill="#E0E0E0"/>
<path d="M97.8887 505.412L92.5391 509.758C92.1851 510.046 91.6643 509.992 91.3775 509.638C91.0895 509.284 91.1435 508.764 91.4975 508.477L96.8471 504.13C97.2011 503.842 97.7207 503.896 98.0087 504.25C98.2967 504.604 98.2427 505.124 97.8887 505.412Z" fill="#E0E0E0"/>
<path d="M100.479 507.719L95.129 512.065C94.775 512.353 94.2542 512.299 93.9674 511.945C93.6794 511.591 93.7334 511.07 94.0874 510.783L99.437 506.437C99.791 506.149 100.312 506.203 100.599 506.557C100.887 506.911 100.833 507.432 100.479 507.719Z" fill="#E0E0E0"/>
<path d="M101.541 510.852L98.5089 513.315C98.1549 513.603 97.6341 513.549 97.3473 513.195C97.0593 512.841 97.1133 512.322 97.4673 512.034L100.5 509.57C100.854 509.282 101.374 509.336 101.661 509.69C101.949 510.044 101.895 510.565 101.541 510.852Z" fill="#E0E0E0"/>
<path d="M90.9718 502.714L87.445 505.188C87.0718 505.45 86.5558 505.36 86.2942 504.987C86.0326 504.614 86.1226 504.099 86.4958 503.836L90.0226 501.362C90.3958 501.1 90.9118 501.19 91.1734 501.563C91.4362 501.936 91.3462 502.451 90.9718 502.714Z" fill="#FBBA2D"/>
<path d="M109.153 514.545L106.106 517.592C105.784 517.915 105.26 517.915 104.939 517.592C104.616 517.269 104.616 516.746 104.939 516.425L107.986 513.378C108.308 513.055 108.832 513.055 109.153 513.378C109.476 513.701 109.476 514.224 109.153 514.545Z" fill="#FBBA2D"/>
<path d="M105.791 542.025C104.995 543.268 103.342 543.631 102.098 542.836L57.5951 514.365C56.3519 513.569 55.9883 511.915 56.7839 510.672C57.5795 509.429 59.2331 509.065 60.4763 509.861L104.98 538.332C106.224 539.128 106.586 540.78 105.791 542.025Z" fill="#263238"/>
<path d="M447.589 454.753L448.887 423.044C448.887 423.044 481.341 416.012 482.152 410.175L420.973 403.151L416.923 452.475L447.589 454.753Z" fill="#455A64"/>
<g opacity="0.6">
<path d="M429.698 424.243C428.535 423.827 427.818 422.427 428.185 421.249C428.553 420.069 429.969 419.327 431.141 419.723C432.311 420.119 433.224 421.771 432.727 422.901C432.229 424.032 430.518 424.813 429.477 424.148" fill="white"/>
</g>
<path d="M420.971 403.151L420.563 408.124L479.875 412.846C479.875 412.846 481.933 412.208 482.511 409.765L420.971 403.151Z" fill="#263238"/>
<path d="M449.858 423.433C449.871 423.133 448.383 422.881 446.983 421.803C445.554 420.763 444.892 419.406 444.608 419.503C444.327 419.54 444.636 421.367 446.355 422.641C448.062 423.931 449.901 423.713 449.858 423.433Z" fill="#263238"/>
<path d="M456.503 421.265C456.594 420.979 455.335 420.369 454.414 419.023C453.454 417.704 453.302 416.313 453.002 416.304C452.724 416.235 452.381 417.974 453.558 419.627C454.72 421.287 456.474 421.549 456.503 421.265Z" fill="#263238"/>
<path d="M460.752 413.84C460.484 413.755 459.953 415.222 460.596 416.923C461.227 418.628 462.591 419.386 462.737 419.146C462.925 418.912 462.083 417.961 461.576 416.556C461.036 415.163 461.048 413.893 460.752 413.84Z" fill="#263238"/>
<path d="M448.76 430.627C448.656 430.343 447.248 430.652 445.563 430.406C443.872 430.195 442.598 429.525 442.422 429.77C442.231 429.973 443.433 431.182 445.423 431.443C447.409 431.719 448.89 430.873 448.76 430.627Z" fill="#263238"/>
<g opacity="0.3">
<path d="M447.589 454.753L448.887 423.044C448.887 423.044 481.341 416.012 482.152 410.175L420.973 403.151L416.923 452.475L447.589 454.753Z" fill="black"/>
</g>
<path d="M452.732 431.497C452.238 432.485 448.555 524.545 448.555 524.545L416.864 512.041C416.864 512.041 411.256 501.572 412.244 487.247C413.232 472.92 421.631 428.953 421.631 428.953L452.732 431.497Z" fill="#263238"/>
<path d="M444.281 456.768L428.96 428.976C428.96 428.976 453.074 406.144 450.742 400.732L394.778 426.429L416.873 470.713L444.281 456.768Z" fill="#455A64"/>
<g opacity="0.6">
<path d="M413.171 439.945C411.96 440.191 410.621 439.367 410.324 438.168C410.028 436.968 410.855 435.599 412.061 435.331C413.267 435.063 414.905 436.004 415.064 437.228C415.225 438.453 414.165 440.007 412.931 439.979" fill="white"/>
</g>
<path d="M394.778 426.428L397.005 430.892L450.179 404.195C450.179 404.195 451.609 402.582 450.837 400.194L394.778 426.428Z" fill="#263238"/>
<path d="M429.992 428.805C429.848 428.541 428.444 429.097 426.688 428.902C424.927 428.752 423.658 427.933 423.465 428.165C423.244 428.341 424.455 429.744 426.585 429.943C428.714 430.161 430.174 429.021 429.992 428.805Z" fill="#263238"/>
<path d="M434.551 423.506C434.481 423.215 433.088 423.347 431.604 422.672C430.099 422.042 429.248 420.931 428.988 421.078C428.714 421.163 429.322 422.828 431.185 423.632C433.039 424.451 434.674 423.766 434.551 423.506Z" fill="#263238"/>
<path d="M434.338 414.955C434.066 415.021 434.37 416.551 435.802 417.671C437.226 418.803 438.784 418.743 438.786 418.462C438.825 418.165 437.612 417.788 436.452 416.849C435.267 415.939 434.619 414.847 434.338 414.955Z" fill="#263238"/>
<path d="M432.781 435.526C432.545 435.339 431.501 436.331 429.932 436.995C428.377 437.69 426.939 437.777 426.915 438.078C426.857 438.351 428.512 438.762 430.348 437.955C432.191 437.16 433.019 435.67 432.781 435.526Z" fill="#263238"/>
<g opacity="0.3">
<path d="M441.241 451.266L438.515 446.31L411.632 460.204L413.894 464.767L441.241 451.266Z" fill="black"/>
</g>
<path d="M290.499 497.226L299.361 494.409C299.361 494.409 315.664 481.317 333.943 483.046C352.221 484.776 367.042 493.371 367.042 493.371L386.062 503.796L434.969 516.888L406.81 450.442L434.617 438.914C434.617 438.914 462.411 483.672 470.809 496.269C479.207 508.867 485.596 521.592 486.585 531.966C487.573 542.34 479.77 556.872 458.281 559.342C436.791 561.812 344.811 555.668 344.811 555.668L274.049 553.626L290.499 497.226Z" fill="#263238"/>
<path d="M290.499 497.226C290.499 497.226 290.416 497.562 290.236 498.204C290.052 498.854 289.782 499.806 289.428 501.055C288.704 503.571 287.637 507.282 286.251 512.107C283.459 521.756 279.379 535.85 274.22 553.675L274.053 553.446C288.65 553.851 305.686 554.325 324.754 554.854C343.839 555.067 364.893 556.815 387.595 557.862C398.946 558.422 410.704 558.946 422.822 559.303C428.881 559.466 435.03 559.605 441.259 559.617C444.373 559.603 447.51 559.621 450.658 559.491C452.234 559.45 453.816 559.408 455.39 559.26C456.968 559.147 458.553 559.045 460.116 558.751C466.371 557.826 472.633 555.55 477.595 551.364C482.56 547.266 486.036 541.096 486.32 534.498C486.402 533.678 486.284 532.858 486.277 532.038C486.169 531.218 486.098 530.39 485.944 529.574C485.661 527.937 485.298 526.308 484.82 524.704C483.896 521.488 482.671 518.343 481.272 515.265C478.461 509.108 474.984 503.203 471.208 497.45C464.673 487.55 458.476 477.615 452.334 467.87C446.234 458.1 440.234 448.489 434.355 439.075L434.732 439.196C425.263 443.119 415.992 446.96 406.923 450.717L407.083 450.326C417.105 474.004 426.534 496.281 435.212 516.783L435.424 517.284L434.899 517.143C417.226 512.398 400.878 508.009 386.001 504.015L385.975 504.008L385.951 503.995C380.88 501.21 375.991 498.524 371.293 495.943C368.932 494.671 366.664 493.344 364.377 492.198C362.08 491.06 359.785 490.042 357.507 489.134C348.39 485.545 339.601 483.472 331.712 483.102C327.769 482.977 324.072 483.481 320.72 484.264C317.372 485.085 314.37 486.193 311.689 487.348C306.339 489.706 302.287 492.298 299.406 494.466L299.394 494.474L299.383 494.478C296.373 495.416 294.162 496.106 292.69 496.564C291.224 497.018 290.499 497.226 290.499 497.226C290.499 497.226 291.188 496.983 292.645 496.508C294.116 496.032 296.329 495.315 299.34 494.341L299.317 494.353C302.194 492.151 306.237 489.53 311.596 487.136C314.282 485.964 317.292 484.837 320.656 483.998C324.024 483.196 327.745 482.674 331.723 482.787C339.669 483.135 348.484 485.19 357.651 488.772C359.941 489.679 362.247 490.695 364.56 491.833C366.871 492.985 369.14 494.308 371.502 495.573C376.204 498.145 381.097 500.821 386.172 503.595L386.121 503.575C401.004 507.547 417.36 511.911 435.038 516.63L434.725 516.99C426.028 496.495 416.58 474.226 406.537 450.558L406.419 450.282L406.696 450.166C415.762 446.404 425.032 442.558 434.499 438.631L434.738 438.531L434.876 438.751C440.756 448.162 446.758 457.77 452.862 467.539C459.006 477.28 465.204 487.214 471.733 497.106C475.52 502.878 479.012 508.806 481.842 515.005C483.249 518.104 484.486 521.276 485.42 524.53C485.902 526.153 486.272 527.806 486.559 529.47C486.715 530.299 486.788 531.142 486.897 531.979C486.907 532.827 487.024 533.677 486.942 534.52C486.645 541.326 483.07 547.641 477.992 551.832C472.916 556.111 466.542 558.412 460.209 559.347C458.625 559.644 457.028 559.746 455.437 559.858C453.847 560.007 452.26 560.049 450.68 560.089C447.519 560.217 444.379 560.197 441.26 560.21C435.022 560.193 428.87 560.05 422.808 559.882C410.684 559.516 398.923 558.982 387.57 558.41C364.857 557.34 343.818 555.564 324.738 555.319C305.673 554.748 288.64 554.238 274.046 553.8L273.814 553.792L273.879 553.57C279.12 535.74 283.264 521.641 286.101 511.988C287.522 507.186 288.616 503.491 289.358 500.985C289.729 499.749 290.011 498.808 290.203 498.165C290.394 497.539 290.499 497.226 290.499 497.226Z" fill="#455A64"/>
<path d="M431.598 515.813C431.607 515.771 432.012 515.826 432.737 515.963C433.461 516.093 434.502 516.327 435.783 516.63C438.332 517.272 441.876 518.229 445.53 519.985C449.207 521.705 452.078 524.155 453.711 526.244C454.145 526.748 454.479 527.247 454.77 527.687C455.073 528.116 455.306 528.506 455.472 528.837C455.823 529.489 455.999 529.856 455.96 529.878C455.853 529.941 455.081 528.494 453.373 526.529C451.685 524.553 448.866 522.236 445.256 520.547C441.671 518.822 438.177 517.803 435.668 517.056C433.147 516.333 431.576 515.904 431.598 515.813Z" fill="#455A64"/>
<path d="M126.185 536.733C126.185 536.733 113.645 529.607 111.199 529.458C107.713 529.247 92.3436 529.774 90.4596 529.647C88.7736 529.533 88.0728 531.318 88.7856 532.519C89.4996 533.721 91.2312 535.663 95.9868 535.544C100.742 535.425 103.477 536.257 104.665 536.733C105.853 537.21 105.512 538.669 105.512 538.669C105.512 538.669 98.6112 539.03 96.606 538.562C93.8544 537.92 84.744 531.733 84.744 531.733L81.108 529.407C81.108 529.407 79.5864 531.259 81.9636 534.706C84.342 538.154 87.312 541.244 87.312 541.244C87.312 541.244 84.048 543.297 86.9028 546.441C86.9028 546.441 84.804 550.395 89.5788 552.709C89.5788 552.709 90.6348 555.477 92.694 557.13C94.1448 558.294 97.8204 558.073 100.079 558.208C102.647 558.362 108.278 557.811 110.134 557.421C115.286 556.338 118.984 555.085 118.984 555.085L130.339 555.732L131.374 536.371L126.185 536.733Z" fill="#FFBE9D"/>
<path d="M94.5647 545.265C94.5071 545.421 92.4815 544.792 90.1907 543.554C87.8951 542.323 86.2559 540.977 86.3543 540.844C86.4575 540.698 88.2311 541.793 90.4871 543.004C92.7395 544.221 94.6307 545.098 94.5647 545.265Z" fill="#455A64"/>
<path d="M93.06 549.599C93.0144 549.757 91.3584 549.394 89.5224 548.425C87.6828 547.464 86.4432 546.307 86.5476 546.179C86.658 546.036 88.0296 546.941 89.8128 547.871C91.5912 548.812 93.1152 549.429 93.06 549.599Z" fill="#455A64"/>
<path d="M93.3263 554.246C93.2927 554.408 91.8083 554.201 90.1763 553.38C88.5395 552.566 87.4835 551.503 87.5927 551.379C87.7055 551.239 88.8911 552.044 90.4559 552.821C92.0159 553.607 93.3707 554.072 93.3263 554.246Z" fill="#455A64"/>
<g opacity="0.3">
<path d="M218.817 537.196C225.225 528.834 228.518 518.421 229.853 507.972C231.187 497.521 230.869 487.593 230.358 477.07C228.137 498.337 224.337 518.052 218.817 537.196Z" fill="black"/>
</g>
<path d="M231.464 464.882C231.574 465.95 231.482 462.554 231.458 463.739C231.157 478.082 222.703 539.202 211.732 551.097C203.357 560.175 124.823 556.313 124.823 556.313L125.687 535.861C125.687 535.861 127.806 535.245 141.906 533.483C156.006 531.722 184.76 524.317 184.76 524.317L194.442 460.361" fill="#FBBA2D"/>
<path d="M194.441 460.361C194.441 460.361 194.407 460.754 194.304 461.513C194.195 462.292 194.038 463.413 193.832 464.873C193.399 467.841 192.767 472.17 191.957 477.716C190.298 488.846 187.915 504.835 185.006 524.354L184.982 524.517L184.823 524.558C176.416 526.701 167.208 528.935 157.322 531.023C152.376 532.05 147.263 533.065 141.953 533.774C136.676 534.472 131.184 535.093 125.773 536.152L125.992 535.874C125.718 542.393 125.429 549.292 125.134 556.326L124.838 556.004C130.382 556.259 136.265 556.452 142.22 556.595C153.454 556.854 164.429 556.919 175.016 556.628C180.31 556.478 185.508 556.237 190.582 555.821C195.648 555.387 200.622 554.849 205.325 553.696C206.495 553.396 207.647 553.054 208.741 552.609C209.821 552.152 210.898 551.626 211.631 550.774C213.151 549.019 214.283 546.955 215.238 544.876C217.164 540.709 218.534 536.437 219.764 532.297C222.17 523.989 223.855 516.093 225.266 508.871C228.037 494.41 229.613 482.587 230.525 474.405C230.976 470.313 231.241 467.126 231.352 464.962C231.377 464.423 231.398 463.946 231.418 463.531L231.422 463.487C231.424 463.502 231.412 463.449 231.48 463.441C231.512 463.447 231.504 463.457 231.516 463.469C231.528 463.502 231.521 463.491 231.524 463.503L231.53 463.581L231.536 463.727C231.539 463.822 231.541 463.912 231.542 464C231.544 464.171 231.545 464.327 231.545 464.468C231.526 464.747 231.577 464.955 231.481 465.1C231.45 464.949 231.462 464.882 231.462 464.882C231.468 464.879 231.48 464.957 231.504 465.085C231.479 464.967 231.497 464.741 231.481 464.469C231.475 464.329 231.469 464.173 231.463 464.002C231.458 463.916 231.454 463.826 231.449 463.732L231.439 463.588L231.432 463.517C231.42 463.505 231.431 463.516 231.515 463.505L231.512 463.538C231.503 463.952 231.491 464.429 231.478 464.967C231.408 467.137 231.181 470.33 230.767 474.43C229.928 482.627 228.419 494.467 225.701 508.954C224.315 516.19 222.654 524.101 220.262 532.442C219.038 536.6 217.674 540.891 215.736 545.109C214.771 547.214 213.636 549.311 212.05 551.151C211.219 552.109 210.07 552.66 208.957 553.136C207.826 553.599 206.652 553.948 205.465 554.255C200.701 555.43 195.714 555.974 190.63 556.417C185.54 556.839 180.334 557.085 175.033 557.24C164.43 557.54 153.446 557.48 142.205 557.219C136.243 557.077 130.36 556.882 124.806 556.624L124.498 556.61L124.511 556.3C124.811 549.266 125.105 542.367 125.382 535.848L125.392 535.613L125.6 535.569C128.399 534.975 131.111 534.633 133.831 534.239C136.544 533.885 139.228 533.535 141.876 533.189C147.155 532.491 152.264 531.488 157.204 530.47C167.081 528.403 176.291 526.191 184.696 524.074L184.512 524.277C187.511 504.771 189.966 488.793 191.676 477.671C192.544 472.136 193.22 467.813 193.685 464.849C193.921 463.394 194.102 462.276 194.228 461.5C194.357 460.746 194.441 460.361 194.441 460.361Z" fill="#263238"/>
</svg>
