<svg width="300" height="200" viewBox="0 0 300 200" fill="none" xmlns="http://www.w3.org/2000/svg">
<path d="M87.9531 48.9037L43.0728 78.9258L87.2796 145.011L132.16 114.989L87.9531 48.9037Z" fill="#F5F5F5"/>
<path d="M108.968 111.864L108.46 115.016L86.1479 111.8L86.656 108.648L108.968 111.864Z" fill="#E0E0E0"/>
<path d="M97.7317 100.619L100.932 101.079L97.3837 123.047L94.1797 122.583L97.7317 100.619Z" fill="#E0E0E0"/>
<path d="M77.1998 72.6998C77.2318 72.7438 72.7358 75.8118 67.1558 79.5398C61.5758 83.2678 57.0278 86.2598 56.9958 86.2118C56.9638 86.1638 61.4598 83.0998 67.0398 79.3678C72.6198 75.6358 77.1478 72.6518 77.1998 72.6998Z" fill="#E0E0E0"/>
<path d="M93.6877 68.555C93.7197 68.603 86.2397 73.659 76.9837 79.851C67.7277 86.043 60.1837 91.023 60.1597 90.979C60.1357 90.935 67.5997 85.871 76.8677 79.679C86.1357 73.487 93.6557 68.507 93.6877 68.555Z" fill="#E0E0E0"/>
<path d="M96.9958 73.5003C97.0278 73.5483 89.5478 78.6083 80.2918 84.8003C71.0358 90.9923 63.4918 95.9723 63.4678 95.9243C63.4438 95.8763 70.9158 90.8203 80.1758 84.6243C89.4358 78.4283 96.9638 73.4523 96.9958 73.5003Z" fill="#E0E0E0"/>
<path d="M100.304 78.4476C100.336 78.4956 92.8558 83.5556 83.5998 89.7436C74.3438 95.9316 66.7998 100.92 66.7998 100.872C66.7998 100.824 74.2438 95.7636 83.5038 89.5716C92.7638 83.3796 100.272 78.3996 100.304 78.4476Z" fill="#E0E0E0"/>
<path d="M103.6 83.3968C103.632 83.4448 96.1517 88.5008 86.8957 94.6928C77.6397 100.885 70.0957 105.865 70.0757 105.817C70.0557 105.769 77.5317 100.713 86.7997 94.5208C96.0677 88.3288 103.6 83.3488 103.6 83.3968Z" fill="#E0E0E0"/>
<path d="M238.028 93.1867L200.335 118.4L237.461 173.9L275.153 148.686L238.028 93.1867Z" fill="#F5F5F5"/>
<path d="M255.68 146.071L255.252 148.719L236.512 146.019L236.944 143.371L255.68 146.071Z" fill="#E0E0E0"/>
<path d="M246.244 136.629L248.932 137.017L245.952 155.465L243.26 155.077L246.244 136.629Z" fill="#E0E0E0"/>
<path d="M228.984 113.201C229.016 113.249 225.244 115.829 220.556 118.961C215.868 122.093 212.044 124.597 212.012 124.561C211.98 124.525 215.756 121.937 220.44 118.801C225.124 115.665 228.952 113.133 228.984 113.201Z" fill="#E0E0E0"/>
<path d="M242.844 109.7C242.876 109.748 236.6 114.004 228.844 119.2C221.088 124.396 214.74 128.58 214.708 128.532C214.676 128.484 220.952 124.228 228.708 119.028C236.464 113.828 242.8 109.652 242.844 109.7Z" fill="#E0E0E0"/>
<path d="M245.624 113.852C245.656 113.9 239.38 118.156 231.624 123.356C223.868 128.556 217.52 132.732 217.488 132.684C217.456 132.636 223.712 128.4 231.488 123.2C239.264 118 245.6 113.808 245.624 113.852Z" fill="#E0E0E0"/>
<path d="M248.4 118C248.432 118.048 242.152 122.304 234.4 127.504C226.648 132.704 220.296 136.88 220.264 136.832C220.232 136.784 226.508 132.532 234.264 127.328C242.02 122.124 248.372 117.96 248.4 118Z" fill="#E0E0E0"/>
<path d="M251.2 122.164C251.232 122.212 244.956 126.464 237.2 131.664C229.444 136.864 223.096 141.04 223.064 140.996C223.032 140.952 229.308 136.692 237.064 131.492C244.82 126.292 251.148 122.116 251.2 122.164Z" fill="#E0E0E0"/>
<path d="M178.397 51.3366L137.27 29.3398L104.88 89.8982L146.007 111.895L178.397 51.3366Z" fill="#F5F5F5"/>
<path d="M138.968 92.9487L136.36 93.8407L129.736 75.5327L132.348 74.6367L138.968 92.9487Z" fill="#E0E0E0"/>
<path d="M142.968 79.8125L143.92 82.4405L125.736 88.6685L124.784 86.0405L142.968 79.8125Z" fill="#E0E0E0"/>
<path d="M155.888 52.7997C155.856 52.8597 151.688 50.6917 146.572 47.9597C141.456 45.2277 137.34 42.9597 137.372 42.8997C137.404 42.8397 141.576 45.0077 146.692 47.7397C151.808 50.4717 155.92 52.7357 155.888 52.7997Z" fill="#E0E0E0"/>
<path d="M165.76 63.6905C165.728 63.7505 158.824 60.1185 150.34 55.5825C141.856 51.0465 135.008 47.3185 135.04 47.2585C135.072 47.1985 141.972 50.8265 150.456 55.3665C158.94 59.9065 165.792 63.6305 165.76 63.6905Z" fill="#E0E0E0"/>
<path d="M163.336 68.2237C163.304 68.2837 156.4 64.6557 147.916 60.1157C139.432 55.5757 132.584 51.8517 132.616 51.7917C132.648 51.7317 139.548 55.3638 148.032 59.8997C156.516 64.4358 163.368 68.1637 163.336 68.2237Z" fill="#E0E0E0"/>
<path d="M160.912 72.7552C160.88 72.8152 153.976 69.1872 145.492 64.6512C137.008 60.1152 130.16 56.3992 130.192 56.3272C130.224 56.2552 137.124 59.8952 145.608 64.4312C154.092 68.9672 160.944 72.6952 160.912 72.7552Z" fill="#E0E0E0"/>
<path d="M158.488 77.2881C158.456 77.3481 151.552 73.7201 143.068 69.1841C134.584 64.6481 127.732 60.9201 127.768 60.8601C127.804 60.8001 134.7 64.4281 143.184 68.9641C151.668 73.5001 158.52 77.2281 158.488 77.2881Z" fill="#E0E0E0"/>
<path opacity="0.2" d="M158.7 0H157.668V17.592H158.7V0Z" fill="black"/>
<path d="M134.092 38.8756H182.276C182.276 38.8756 177.828 17.5996 157.82 17.5996C140.024 17.5996 134.092 38.8756 134.092 38.8756Z" fill="#E9E9EA"/>
<path d="M158.7 0H157.668V17.592H158.7V0Z" fill="#E9E9EA"/>
<path d="M265.468 175.932C265.468 175.988 213.768 176.036 150.004 176.036C86.2402 176.036 34.5322 176 34.5322 175.932C34.5322 175.864 86.2242 175.828 150.004 175.828C213.784 175.828 265.468 175.872 265.468 175.932Z" fill="#4C4F54"/>
<path d="M47.3158 150.881C47.992 150.93 48.6516 151.114 49.255 151.424C49.8584 151.733 50.3933 152.16 50.8278 152.681C51.6917 153.728 52.3034 154.96 52.6158 156.281C53.2918 158.809 52.8758 161.797 52.1558 164.313C49.4198 163.333 47.7278 160.413 46.9558 158.877C45.7558 156.453 45.0398 151.333 47.3038 150.877" fill="#E9E9EA"/>
<path d="M56.0962 167.38C55.6853 166.743 55.4504 166.009 55.4153 165.251C55.3801 164.494 55.5461 163.741 55.8962 163.068C56.2572 162.402 56.7474 161.815 57.338 161.34C57.9287 160.866 58.6079 160.514 59.3362 160.304C60.0042 160.096 60.7802 160.012 61.3602 160.4C61.6216 160.598 61.8252 160.862 61.9498 161.166C62.0743 161.469 62.1152 161.8 62.0682 162.124C61.9632 162.774 61.687 163.385 61.2682 163.892C59.9362 165.696 58.3202 167.196 56.0682 167.38" fill="#E9E9EA"/>
<path d="M56.4 175.832C56.3407 175.662 56.2991 175.486 56.276 175.308C56.204 174.932 56.108 174.448 55.992 173.868C55.633 172.279 55.533 170.644 55.696 169.024C55.8846 167.396 56.5047 165.848 57.492 164.54C57.7937 164.148 58.1415 163.795 58.528 163.488C58.633 163.404 58.7425 163.327 58.856 163.256C58.8921 163.226 58.9326 163.201 58.976 163.184C58.47 163.616 58.0078 164.097 57.596 164.62C56.6607 165.929 56.0718 167.454 55.884 169.052C55.628 170.916 55.944 172.624 56.128 173.852C56.224 174.464 56.304 174.96 56.348 175.304C56.3795 175.478 56.3969 175.654 56.4 175.832Z" fill="#4C4F54"/>
<path d="M48.1958 154.734C48.2415 154.797 48.2791 154.866 48.3078 154.938C48.3798 155.098 48.4758 155.298 48.5878 155.55C48.8318 156.082 49.1718 156.854 49.5838 157.81C50.4078 159.726 51.5118 162.39 52.6638 165.358C53.8158 168.326 54.7958 171.034 55.4638 173.006C55.8078 173.99 56.0758 174.79 56.2638 175.346C56.3478 175.61 56.4118 175.822 56.4638 175.986C56.4923 176.06 56.5125 176.136 56.5238 176.214C56.4832 176.146 56.451 176.074 56.4278 175.998C56.3678 175.838 56.2918 175.63 56.1918 175.37L55.3478 173.05C54.6318 171.094 53.6318 168.39 52.4838 165.426C51.3358 162.462 50.2478 159.79 49.4558 157.862C49.0558 156.914 48.7478 156.142 48.5198 155.578C48.4158 155.322 48.3318 155.118 48.2678 154.954C48.2378 154.883 48.2137 154.81 48.1958 154.734Z" fill="#4C4F54"/>
<path d="M53.148 170.24C52.3249 168.87 51.1875 167.715 49.8298 166.871C48.4721 166.028 46.9331 165.519 45.34 165.388C44.54 165.332 43.556 165.468 43.196 166.188C42.836 166.908 43.316 167.788 43.868 168.372C45.0408 169.599 46.5506 170.451 48.207 170.822C49.8635 171.192 51.5924 171.063 53.176 170.452" fill="#E9E9EA"/>
<path d="M46.5718 167.558C46.7414 167.55 46.9114 167.556 47.0798 167.578C47.277 167.589 47.4734 167.612 47.6678 167.646C47.8958 167.69 48.1638 167.714 48.4438 167.794C48.7568 167.86 49.0654 167.946 49.3678 168.05C49.7182 168.163 50.0615 168.296 50.3958 168.45C51.1648 168.795 51.8921 169.225 52.5638 169.734C53.2277 170.255 53.8291 170.851 54.3558 171.51C54.5832 171.797 54.793 172.098 54.9838 172.41C55.1563 172.68 55.3138 172.959 55.4558 173.246C55.576 173.48 55.6828 173.72 55.7758 173.966C55.856 174.148 55.9241 174.335 55.9798 174.526C56.039 174.686 56.0832 174.85 56.1118 175.018C56.0678 175.018 55.8758 174.33 55.3358 173.306C55.1888 173.031 55.0272 172.764 54.8518 172.506C54.6569 172.203 54.4459 171.911 54.2198 171.63C53.1736 170.337 51.8393 169.307 50.3238 168.622C49.9758 168.47 49.6438 168.326 49.3198 168.222C49.0223 168.114 48.7192 168.022 48.4118 167.946C47.2918 167.638 46.5678 167.602 46.5718 167.558Z" fill="#4C4F54"/>
<path d="M119.6 93.816L105.44 166.536L103.6 176.056L198 175.6C202.24 175.58 206 171.816 207.356 166.224L224.1 97.572C225.136 93.328 222.864 88.912 219.648 88.916L124.08 89.016C122 89.012 120.136 90.98 119.6 93.816Z" fill="#E9E9EA"/>
<g opacity="0.5">
<path d="M119.6 93.816L105.44 166.536L103.6 176.056L198 175.6C202.24 175.58 206 171.816 207.356 166.224L224.1 97.572C225.136 93.328 222.864 88.912 219.648 88.916L124.08 89.016C122 89.012 120.136 90.98 119.6 93.816Z" fill="#D0D0D0"/>
</g>
<path d="M188.956 161.599L178.956 81.0352C178.556 77.7352 175.92 75.2712 172.812 75.2832L150.892 75.3512C150.077 75.3604 149.273 75.5354 148.528 75.8655C147.784 76.1956 147.114 76.6739 146.56 77.2712L136.16 88.3392L75.2 88.6672C71.476 88.6872 68.612 92.2152 69.104 96.1752L78.388 170.635C78.788 173.931 81.424 176.391 84.524 176.387L190.784 176.175C202.616 176.419 203.748 172.927 203.748 172.927C190.164 175.931 188.956 161.619 188.956 161.599Z" fill="#E9E9EA"/>
<g opacity="0.5">
<path d="M143.136 145.488L139.552 149.336L111.952 124.504L115.536 120.656L143.136 145.488Z" fill="white"/>
<path d="M138.052 119.805L142.012 123.369L117.04 150.189L113.076 146.625L138.052 119.805Z" fill="white"/>
</g>
</svg>
