<svg width="76" height="76" viewBox="0 0 76 76" fill="none" xmlns="http://www.w3.org/2000/svg">
<path d="M69.1417 0.3125H6.85999C3.27108 0.3125 0.361694 3.22189 0.361694 6.8108V69.0925C0.361694 72.6814 3.27108 75.5908 6.85999 75.5908H69.1417C72.7306 75.5908 75.64 72.6814 75.64 69.0925V6.8108C75.64 3.22189 72.7306 0.3125 69.1417 0.3125Z" fill="#FAFAFA"/>
<path d="M0.362021 6.80984C0.362021 6.80984 0.362021 6.55487 0.362021 6.05871C0.46597 5.09396 0.784883 4.16477 1.2953 3.33953C1.80571 2.51428 2.49464 1.81395 3.31141 1.29007C3.96185 0.860233 4.68607 0.554193 5.44765 0.387342C6.30485 0.236379 7.17616 0.180911 8.04559 0.221955L39.1451 0.1875H60.597H66.482C67.4813 0.1875 68.4736 0.1875 69.5003 0.1875C70.5405 0.243413 71.5519 0.548277 72.4497 1.07645C73.3801 1.61019 74.1679 2.36064 74.7462 3.26403C75.3244 4.16742 75.6761 5.19705 75.7712 6.26544C75.8333 8.40168 75.7712 10.5241 75.7712 12.6948C75.7712 30.0397 75.7712 49.1074 75.7712 69.1191C75.7728 70.4058 75.4021 71.6655 74.704 72.7464C74.0058 73.8272 73.01 74.6831 71.8364 75.2108C71.2577 75.4767 70.642 75.6533 70.0103 75.7345C69.3925 75.8018 68.7707 75.8249 68.1497 75.8035H50.1295H22.9166H7.1842C6.1555 75.8391 5.13171 75.6461 4.18658 75.2384C3.26495 74.8309 2.44762 74.2199 1.79597 73.4513C1.14431 72.6827 0.675261 71.7764 0.424041 70.8005C0.226101 69.8517 0.156569 68.8805 0.217309 67.9132V65.0947C0.217309 63.2571 0.217309 61.4332 0.217309 59.6232C0.217309 56.0398 0.217309 52.608 0.217309 49.3279C0.217309 36.2348 0.265546 25.6018 0.279329 18.2559C0.279329 14.5968 0.279328 11.7508 0.313784 9.81436C0.313784 8.8496 0.313784 8.11915 0.313784 7.6161C0.313784 7.11305 0.313784 6.86497 0.313784 6.86497C0.313784 6.86497 0.313784 7.11994 0.313784 7.6161C0.313784 8.11225 0.313784 8.8496 0.313784 9.81436C0.313784 11.7508 0.313784 14.5968 0.34824 18.2559C0.34824 25.6018 0.382695 36.2141 0.403369 49.3279C0.403369 52.608 0.403369 56.0398 0.403369 59.6232C0.403369 61.4057 0.403369 63.2295 0.403369 65.0947V67.9132C0.350534 68.8553 0.420023 69.8004 0.610101 70.7247C0.850705 71.6561 1.29943 72.5207 1.92249 73.2536C2.54556 73.9865 3.32674 74.5685 4.20725 74.9558C5.11325 75.3464 6.09493 75.53 7.08084 75.4934H68.0946C68.6994 75.5145 69.3049 75.4938 69.9069 75.4313C70.502 75.3496 71.0823 75.1825 71.6297 74.9352C72.7411 74.4355 73.6842 73.6253 74.3457 72.6019C75.0071 71.5786 75.3586 70.3858 75.3578 69.1673C75.3578 49.1832 75.3578 30.0879 75.3578 12.7431C75.3578 10.5862 75.3578 8.42235 75.3578 6.34124C75.2689 5.32428 74.9355 4.34387 74.3859 3.48356C73.8364 2.62325 73.087 1.90855 72.2017 1.40033C71.3745 0.884011 70.4372 0.570009 69.4659 0.483817C68.4667 0.483817 67.4537 0.483817 66.4614 0.483817H60.5764L39.1451 0.442472L8.04559 0.387342C7.18609 0.345793 6.32461 0.394294 5.47521 0.532055C4.74001 0.689229 4.0395 0.978768 3.40788 1.38655C2.39916 2.01922 1.58758 2.92152 1.06491 3.99139C0.63141 4.86967 0.391702 5.83085 0.362021 6.80984Z" fill="#E9E9EA"/>
<path d="M55.9317 57.4745C55.6836 56.9508 52.5413 45.6218 52.5413 45.6218L53.1201 33.5555L53.6921 16.8378L45.5675 15.3906C39.6756 18.8362 30.4071 20.2144 24.4049 17.458C24.4049 17.458 21.1661 17.6096 19.5812 19.0636C18.9748 19.6218 19.9602 24.4938 20.8491 29.2968C21.7863 34.348 24.4187 46.9036 24.4187 46.9036C24.4187 46.9036 19.9533 57.6744 19.0023 60.7685C19.0023 60.7685 46.291 55.8207 55.4286 60.7685C55.4286 60.7753 57.3581 60.5066 55.9317 57.4745Z" fill="#E9E9EA"/>
<path d="M9.58156 25.1918L19.7528 18.9141L22.5092 32.9099L17.2651 37.3684C17.2651 37.3684 9.29903 33.2682 9.58156 25.1918Z" fill="#E9E9EA"/>
<path d="M53.693 16.8359L64.0296 21.3151C64.0296 21.3151 60.6323 34.2773 58.6477 35.7864L53.4036 33.5675L52.1149 37.5988L52.046 21.322L53.693 16.8359Z" fill="#E9E9EA"/>
<path d="M18.2104 36.076C18.0246 36.0226 17.848 35.9413 17.6867 35.8348C17.2403 35.5798 16.812 35.2943 16.4049 34.9803C15.0194 33.9448 13.8293 32.6707 12.8905 31.2178C12.3682 30.4051 11.9296 29.5416 11.5812 28.6405C11.3192 27.9098 11.13 27.155 11.0161 26.3872C10.9339 25.8723 10.897 25.3511 10.9059 24.8298C10.8878 24.6373 10.9065 24.4432 10.961 24.2578C11.023 24.2578 11.0161 25.071 11.2642 26.3251C11.4108 27.0698 11.6206 27.8006 11.8913 28.5096C12.2345 29.3701 12.6543 30.198 13.1455 30.9835C14.0665 32.4031 15.2034 33.6702 16.5152 34.7392C17.5489 35.6005 18.2449 36.0209 18.2104 36.076Z" fill="white"/>
<path d="M21.1101 30.9585C21.1101 30.9585 20.9585 30.9102 20.7104 30.7586C20.4045 30.5207 20.1166 30.2604 19.849 29.9799C18.9596 29.0324 18.1463 28.0163 17.4165 26.941C16.677 25.8756 16.0027 24.7664 15.3974 23.6194C15.1132 23.1581 14.9147 22.6492 14.8116 22.1172C14.8599 22.1172 15.108 22.6547 15.6248 23.4954C16.1416 24.3361 16.8583 25.4869 17.6921 26.7273C18.5259 27.9677 19.3735 29.0565 20.0144 29.8008C20.3383 30.166 20.6139 30.4485 20.8069 30.6415C20.9998 30.8344 21.117 30.9309 21.1101 30.9585Z" fill="white"/>
<path d="M52.4989 17.7891C52.0908 17.9248 51.6741 18.033 51.2516 18.1129C50.4453 18.3128 49.2876 18.6229 47.875 19.057L42.8927 20.6144C40.8661 21.2572 38.7925 21.7411 36.6907 22.0615C32.805 22.5929 28.8488 22.2034 25.1412 20.9245C24.0293 20.5452 22.9468 20.0845 21.9024 19.5463C21.5303 19.3602 21.2616 19.1811 21.0686 19.0708C20.969 19.0184 20.8764 18.9535 20.793 18.8779C21.1946 19.0318 21.5859 19.2113 21.9645 19.4154C23.0228 19.913 24.1114 20.3434 25.2239 20.704C28.8943 21.8924 32.7848 22.2409 36.608 21.7239C38.7071 21.4214 40.7804 20.9607 42.81 20.3457C44.6913 19.7944 46.3727 19.2569 47.806 18.8572C49.2394 18.4575 50.4109 18.1681 51.2516 18.0234C51.6582 17.9407 51.9407 17.8993 52.1957 17.8649C52.2917 17.8227 52.3943 17.7971 52.4989 17.7891Z" fill="white"/>
<path d="M53.6156 27.2642C53.5079 27.2995 53.3972 27.3248 53.2849 27.34L52.3339 27.4916C51.507 27.6294 50.3079 27.781 48.8194 27.9326C45.8425 28.2427 41.7078 28.4839 37.1046 28.4908C32.5013 28.4977 28.4011 28.3254 25.3897 28.1738L21.9166 27.9533L20.9588 27.8775C20.8449 27.8728 20.7317 27.8566 20.6211 27.8292C20.7329 27.8115 20.8469 27.8115 20.9588 27.8292H21.9166L25.4586 27.9188C28.4425 28.0084 32.5702 28.1393 37.1321 28.1324C41.6941 28.1256 45.808 27.9257 48.785 27.6776C50.2735 27.5605 51.4794 27.4433 52.3132 27.3538L53.2711 27.2642C53.3852 27.2453 53.5016 27.2453 53.6156 27.2642Z" fill="white"/>
<path d="M53.1179 33.5547C52.7395 33.7157 52.3475 33.8426 51.9464 33.9337C51.5674 34.0508 51.0988 34.1542 50.5682 34.2783C50.0376 34.4023 49.3898 34.5332 48.6869 34.6366C45.0391 35.218 41.3546 35.5404 37.6612 35.6013C33.3405 35.7254 29.4263 35.6013 26.6355 35.3808C25.2572 35.2775 24.0789 35.1534 23.2933 35.0501C22.8848 35.0054 22.4796 34.934 22.0804 34.8364C22.4907 34.826 22.9012 34.8513 23.3071 34.9122C24.0995 34.9674 25.2366 35.0569 26.6492 35.1259C29.4677 35.2568 33.3749 35.367 37.675 35.243C41.364 35.1781 45.0458 34.8928 48.7007 34.3885C49.3898 34.2989 50.0307 34.1887 50.582 34.0784C51.1333 33.9682 51.6088 33.8924 51.9602 33.7959C52.341 33.6925 52.7276 33.6119 53.1179 33.5547Z" fill="white"/>
<path d="M52.2352 42.1616C51.8655 42.2449 51.49 42.3002 51.1119 42.3269C50.4228 42.4096 49.334 42.5061 48.0316 42.6164C45.4268 42.8162 41.8296 43.0229 37.8328 43.0712C33.836 43.1194 30.2526 42.9747 27.6271 42.7404C26.3247 42.6164 25.2703 42.4992 24.5468 42.3683C24.1702 42.3264 23.7971 42.2574 23.4304 42.1616C23.8107 42.1504 24.1913 42.1735 24.5675 42.2305C25.2566 42.3132 26.3454 42.3959 27.6409 42.4854C30.2457 42.6577 33.8429 42.768 37.8259 42.7128C41.809 42.6577 45.4061 42.4992 48.0109 42.3614L51.0982 42.1891C51.4756 42.1466 51.8561 42.1374 52.2352 42.1616Z" fill="white"/>
<path d="M53.9195 50.6371C53.51 50.6547 53.0998 50.6385 52.6929 50.5888L49.3507 50.3545C46.5323 50.1685 42.625 49.9755 38.325 49.9755C34.025 49.9755 30.1039 50.1685 27.2993 50.3545L23.9571 50.5888C23.5502 50.6385 23.14 50.6547 22.7305 50.6371C23.1297 50.5459 23.5351 50.4837 23.9433 50.451C24.7289 50.3476 25.8659 50.2305 27.2786 50.0996C30.097 49.8515 34.0112 49.6172 38.3043 49.6172C42.5975 49.6172 46.5323 49.8515 49.3301 50.0996C50.7083 50.2236 51.8798 50.3476 52.6654 50.451C53.0875 50.4817 53.5067 50.5439 53.9195 50.6371Z" fill="white"/>
<path d="M57.1876 20.4232C56.9091 21.479 56.4422 22.4758 55.8094 23.3657C55.2765 24.3191 54.5762 25.1688 53.742 25.874C53.6594 25.812 54.5483 24.675 55.4786 23.1727C56.4089 21.6705 57.0636 20.3749 57.1876 20.4232Z" fill="white"/>
<path d="M19.9555 24.2812C20.062 24.5636 20.136 24.8573 20.176 25.1564L20.6928 27.5752C21.1338 29.6908 21.7196 32.4748 22.3673 35.5551C23.0151 38.6354 23.5664 41.5021 23.9385 43.5556C24.1177 44.5824 24.2555 45.4162 24.3382 45.9951C24.3939 46.2951 24.4216 46.5996 24.4209 46.9047C24.3152 46.6197 24.2412 46.3239 24.2004 46.0226L23.6835 43.6039C23.2425 41.4952 22.6568 38.7043 22.0159 35.624C21.375 32.5437 20.8099 29.6839 20.4447 27.6234C20.2587 26.5967 20.1208 25.7628 20.0381 25.184C19.9825 24.8863 19.9548 24.5841 19.9555 24.2812Z" fill="#E9E9EA"/>
<path d="M53.7939 27.9922C53.8199 28.2212 53.8199 28.4523 53.7939 28.6813C53.7939 29.1292 53.7525 29.777 53.7181 30.5763C53.6354 32.1682 53.4975 34.3733 53.3253 36.7783C53.153 39.1833 52.9738 41.416 52.8291 42.9803C52.7533 43.7797 52.6913 44.4274 52.6362 44.8685C52.6236 45.1019 52.5843 45.3331 52.519 45.5576C52.4842 45.3292 52.4842 45.0969 52.519 44.8685C52.519 44.4206 52.519 43.7728 52.5948 42.9734C52.6775 41.3816 52.8153 39.1764 52.9876 36.7714C53.1599 34.3665 53.339 32.1337 53.4838 30.5695C53.5527 29.7701 53.6216 29.1292 53.6767 28.6813C53.6792 28.4469 53.7188 28.2143 53.7939 27.9922Z" fill="#E9E9EA"/>
<path d="M61.2599 20.2734C61.0203 20.9794 60.7372 21.6698 60.4123 22.3408C59.8748 23.6018 59.1857 25.366 58.5448 27.3506C57.9039 29.3352 57.456 31.182 57.1666 32.5258C57.0419 33.2564 56.8739 33.9789 56.6635 34.6896C56.6318 34.491 56.6318 34.2887 56.6635 34.0901C56.7049 33.7042 56.7807 33.1529 56.8978 32.4707C57.2061 30.7018 57.6366 28.9565 58.1865 27.2472C58.731 25.5343 59.3918 23.8604 60.1642 22.2374C60.4605 21.6172 60.7155 21.121 60.9085 20.7834C61.0019 20.5982 61.1201 20.4266 61.2599 20.2734Z" fill="white"/>
<path d="M55.898 57.887C55.7699 57.875 55.6432 57.8519 55.519 57.8181L54.4578 57.5632C53.9961 57.446 53.431 57.3082 52.7695 57.1773C52.1079 57.0463 51.3913 56.8603 50.523 56.7362C49.6547 56.6122 48.7726 56.433 47.7665 56.3297C46.7604 56.2263 45.6992 56.116 44.5966 56.0196C42.1731 55.8747 39.7431 55.8747 37.3196 56.0196C34.8948 56.1956 32.483 56.5201 30.0978 56.9912C29.0021 57.2324 27.9615 57.4391 27.0037 57.7148C26.0458 57.9904 25.15 58.2316 24.3368 58.4866C23.5237 58.7415 22.807 58.9965 22.173 59.217C21.539 59.4375 20.9947 59.6443 20.5536 59.8234L19.5337 60.2231C19.4159 60.2796 19.2906 60.3191 19.1616 60.3403C19.2681 60.2698 19.3812 60.2098 19.4993 60.1611L20.4916 59.7063C20.9257 59.5065 21.4564 59.2722 22.0972 59.0172C22.7381 58.7622 23.4754 58.4797 24.2541 58.2316C25.0328 57.9835 25.9493 57.6665 26.921 57.4116C27.8926 57.1566 28.9263 56.9016 30.022 56.6535C34.8306 55.6406 39.7587 55.3158 44.6587 55.6888C45.775 55.7922 46.8431 55.8748 47.8355 56.0333C48.8278 56.1918 49.7512 56.3228 50.5919 56.4882C51.4326 56.6535 52.1768 56.8258 52.8384 56.9843C53.4999 57.1428 54.0581 57.2875 54.5129 57.4322L55.5604 57.7492C55.6793 57.7777 55.7932 57.8242 55.898 57.887Z" fill="white"/>
</svg>
